<svg xmlns="http://www.w3.org/2000/svg" style="display: none;">
  <symbol id="monster" viewBox="0 0 128 128">
    <title>Monster</title>
      <path d="m108.437 69.581c0-4.592-1.79-8.962-5.101-12.818 2.329-1.924 6.476-5.95 8.354-11.514.395-1.17.76-2.706 1.148-4.332.572-2.406 1.221-5.132 1.962-6.466 1.045-1.88 2.086-3.356 2.922-4.542 1.436-2.037 2.384-3.382 1.348-4.546-1.79-2.013-13.516-1.143-20.42.986-5.439 1.677-9.878 4.215-12.595 6.004-1.179-1.917-2.495-3.657-3.925-5.195-.048-6.539-5.461-11.761-6.59-12.088-.383-.112-.868-.002-1.157.271-.56.526-.42 1.151-.164 2.286.208.925.519 2.338.606 3.98-2.721-1.339-5.631-2.068-8.636-2.068s-5.915.728-8.636 2.068c.087-1.642.399-3.055.606-3.98.255-1.134.396-1.76-.164-2.286-.29-.272-.774-.381-1.157-.272-1.13.328-6.543 5.55-6.591 12.089-1.43 1.538-2.746 3.278-3.925 5.195-2.717-1.789-7.155-4.327-12.595-6.004-6.905-2.128-18.632-2.997-20.42-.986-1.036 1.165-.088 2.51 1.348 4.546.836 1.186 1.876 2.663 2.922 4.542.742 1.334 1.39 4.06 1.962 6.466.387 1.626.753 3.162 1.148 4.332 1.878 5.564 6.025 9.59 8.354 11.514-3.311 3.855-5.101 8.226-5.101 12.818 0 3.978 1.388 7.752 3.857 11.149-8.382 8.706-13.434 20.182-13.434 32.454 0 .29.003.578.01.866.042 1.822 1.562 3.305 3.387 3.305h96.857c1.825 0 3.344-1.483 3.387-3.305.007-.288.01-.577.01-.866 0-12.272-5.051-23.747-13.434-32.454 2.468-3.397 3.857-7.171 3.857-11.149z" fill="#e6e7e8"/></g><g><g><g>
      <path d="m61.681 90.705c-12.051 0-22.89-3.231-30.411-8.379-3.494 7.305-5.523 15.95-5.523 25.224 0 1.406.056 2.795.147 4.171h71.575c.091-1.375.147-2.764.147-4.171 0-9.274-2.029-17.919-5.523-25.224-7.522 5.148-18.362 8.379-30.412 8.379z" fill="#ffd7e5"/></g><g><g>
      <path d="m31.264 82.323c-2.622-1.795-4.838-3.825-6.564-6.031-8.504 8.469-13.718 19.854-13.718 32.385 0 .281.004.56.01.839.029 1.226 1.034 2.204 2.26 2.204h12.641c-.091-1.375-.147-2.764-.147-4.171.001-9.273 2.024-17.922 5.518-25.226z" fill="#fa759e"/></g><g>
      <path d="m98.661 76.292c-1.726 2.206-3.941 4.235-6.564 6.031 3.494 7.304 5.517 15.953 5.517 25.228 0 1.406-.056 2.795-.147 4.171h12.641c1.226 0 2.232-.979 2.26-2.204.007-.279.01-.559.01-.839.002-12.533-5.213-23.918-13.717-32.387z" fill="#fa759e"/></g></g></g><g><g><g>
      <path d="m113.721 21.605c-1.054-1.185-11.473-1.082-19.247 1.314-5.988 1.846-10.783 4.798-13.264 6.519 2.447 4.312 4.202 9.449 5.02 15.073 4.416 2.051 8.148 4.643 10.946 7.617 1.785-1.348 6.867-5.603 8.94-11.745.988-2.927 1.868-8.603 3.192-10.985 2.581-4.642 5.17-6.941 4.413-7.793z" fill="#6dc9f7"/></g><g>
      <path d="m86.23 44.511c.491.228.966.468 1.439.709.6-5.263 4.242-11.488 10.185-16.471 5.165-4.33 10.956-6.795 15.855-7.153-1.101-1.175-11.481-1.066-19.234 1.323-5.988 1.846-10.783 4.798-13.264 6.519 2.446 4.312 4.201 9.449 5.019 15.073z" fill="#0089ef"/></g></g><g><g>
      <path d="m26.186 52.127c2.799-2.974 6.53-5.565 10.946-7.617.818-5.624 2.573-10.761 5.02-15.073-2.482-1.721-7.277-4.673-13.264-6.519-7.774-2.396-18.193-2.5-19.247-1.314-.757.852 1.832 3.151 4.413 7.793 1.324 2.382 2.204 8.058 3.192 10.985 2.072 6.142 7.155 10.397 8.94 11.745z" fill="#6dc9f7"/></g><g>
      <path d="m35.693 45.22c.473-.241.948-.481 1.439-.709.818-5.624 2.573-10.761 5.02-15.073-2.482-1.721-7.277-4.673-13.264-6.519-7.753-2.39-18.133-2.499-19.234-1.323 4.899.358 10.69 2.824 15.855 7.153 5.942 4.983 9.584 11.207 10.184 16.471z" fill="#0089ef"/></g></g></g><g>
      <path d="m86.23 44.511c-2.354-16.184-12.45-28.351-24.549-28.351s-22.195 12.166-24.549 28.351c-10.059 4.673-16.574 12.144-16.574 20.564 0 14.156 18.411 25.631 41.122 25.631s41.122-11.475 41.122-25.631c.001-8.421-6.514-15.892-16.572-20.564z" fill="#d4fbff"/></g><g><g>
      <path d="m61.681 19.539c8.312 0 15.761 4.783 20.798 12.339-4.503-9.481-12.136-15.719-20.798-15.719s-16.295 6.238-20.798 15.719c5.037-7.556 12.486-12.339 20.798-12.339z" fill="#fff"/></g></g><g fill="#0089ef">
      <path d="m70.436 23.306c-.141.331-.291.655-.449.97-.643 1.288.083 2.831 1.5 3.083l2.134.38c1.101.196 2.187-.491 2.434-1.582.173-.763.308-1.546.389-2.342.683-6.695-5.098-11.988-5.727-12.17-.68-.199 2.223 5.774-.281 11.661z"/>
      <path d="m52.926 23.306c.141.331.291.655.449.97.643 1.288-.083 2.831-1.5 3.083l-2.134.38c-1.101.196-2.187-.491-2.434-1.582-.173-.763-.308-1.546-.389-2.342-.683-6.695 5.098-11.988 5.727-12.17.679-.199-2.224 5.774.281 11.661z"/></g><g fill="#fff">
      <path d="m71.128 67.425c.19 2.78.659 6.215 1.819 6.215 1.543 0 1.929-6.08 2.023-8.606-1.021.799-2.308 1.645-3.842 2.391z"/>
      <path d="m49.012 64.871c.057 2.418.357 8.769 1.934 8.769 1.172 0 1.676-3.506 1.892-6.3-1.558-.777-2.831-1.654-3.826-2.469z"/></g><g fill="#3a2c60">
      <path d="m44.003 110.721h-6.357c-.552 0-1 .448-1 1s.448 1 1 1h6.357c.552 0 1-.448 1-1s-.447-1-1-1z"/>
      <path d="m103.804 65.074c0-4.6-1.809-8.978-5.155-12.835 2.388-1.957 6.541-5.981 8.415-11.538.393-1.164.758-2.697 1.144-4.32.574-2.414 1.225-5.149 1.975-6.499 1.048-1.886 2.091-3.365 2.929-4.554 1.4-1.987 2.326-3.3 1.357-4.389-1.603-1.804-12.98-1.229-20.289 1.023-5.512 1.699-10.048 4.333-12.671 6.066-1.203-1.971-2.548-3.761-4.015-5.332-.019-6.496-5.379-11.688-6.497-12.014-.34-.098-.778 0-1.036.243-.507.477-.38 1.041-.127 2.166.219.971.555 2.473.624 4.22-2.76-1.393-5.719-2.153-8.777-2.153s-6.017.759-8.778 2.153c.069-1.747.406-3.249.624-4.22.252-1.125.379-1.689-.127-2.166-.258-.243-.696-.343-1.036-.242-1.118.326-6.477 5.519-6.497 12.014-1.467 1.571-2.811 3.361-4.014 5.332-2.623-1.733-7.158-4.367-12.671-6.066-7.308-2.252-18.686-2.825-20.289-1.023-.969 1.09-.043 2.403 1.357 4.39.838 1.188 1.881 2.668 2.929 4.554.75 1.35 1.401 4.085 1.976 6.499.386 1.623.75 3.155 1.144 4.319 1.875 5.556 6.027 9.58 8.415 11.537-3.346 3.857-5.155 8.235-5.155 12.835 0 3.966 1.388 7.728 3.858 11.113-8.663 8.919-13.435 20.419-13.435 32.49 0 .289.003.577.011.862.041 1.754 1.503 3.182 3.26 3.182h12.641 7.434c.552 0 1-.448 1-1s-.448-1-1-1h-6.483c-.059-1.106-.097-2.164-.097-3.17 0-8.416 1.728-16.605 4.971-23.781 7.424 4.755 17.648 7.752 28.963 7.92v19.032h-12.38c-.552 0-1 .448-1 1s.448 1 1 1h61.807c1.757 0 3.219-1.427 3.26-3.182.007-.287.01-.574.01-.862 0-12.07-4.771-23.57-13.434-32.49 2.47-3.385 3.859-7.148 3.859-11.114zm4.63-36.162c-.884 1.59-1.539 4.344-2.172 7.007-.375 1.577-.729 3.066-1.093 4.143-1.761 5.217-5.883 9.072-7.889 10.71-2.293-2.277-5.154-4.34-8.529-6.12.825-5.065 4.417-10.671 9.744-15.137 4.388-3.679 9.393-6.079 13.946-6.754-.269.424-.625.933-.965 1.416-.864 1.228-1.941 2.755-3.042 4.735zm-13.665-5.037c4.396-1.355 9.371-1.912 13.029-2.01-3.609 1.249-7.275 3.341-10.587 6.119-5.275 4.423-8.967 9.955-10.195 15.15-.849-4.946-2.404-9.47-4.505-13.368 2.502-1.664 6.903-4.241 12.258-5.891zm-19.319-.162c-.073.715-.197 1.463-.369 2.222-.126.555-.708.923-1.284.819l-2.134-.379c-.472-.084-.696-.403-.788-.585-.167-.333-.165-.723.007-1.067.167-.334.325-.675.474-1.025 1.483-3.488 1.208-6.949.786-9.316 1.642 1.991 3.708 5.41 3.308 9.331zm-24.231-9.331c-.421 2.367-.697 5.828.786 9.315.149.35.307.691.474 1.025.172.345.175.734.007 1.067-.092.182-.316.5-.788.585l-2.133.379c-.583.104-1.159-.264-1.284-.82-.172-.758-.296-1.505-.37-2.222-.399-3.918 1.666-7.337 3.308-9.329zm-10.369 15.383c-2.1 3.898-3.656 8.422-4.505 13.368-1.228-5.194-4.92-10.727-10.195-15.149-3.302-2.768-6.954-4.857-10.55-6.107 3.665.092 8.617.65 12.993 1.999 5.356 1.65 9.756 4.226 12.257 5.889zm-22.657 10.297c-.363-1.077-.717-2.566-1.093-4.143-.633-2.664-1.289-5.418-2.173-7.008-1.101-1.979-2.177-3.507-3.042-4.734-.34-.482-.696-.992-.966-1.416 4.554.674 9.558 3.075 13.947 6.754 5.327 4.466 8.92 10.072 9.744 15.137-3.375 1.781-6.237 3.844-8.529 6.12-2.005-1.638-6.128-5.493-7.888-10.71zm17.99 6.032c.007-.004.014-.006.021-.01.444-.226.888-.452 1.35-.666.306-.142.52-.429.568-.763 1.122-7.715 4.041-14.376 8.023-19.224.057.314.114.629.186.947.322 1.425 1.594 2.396 3.025 2.396.184 0 .372-.016.56-.05l2.134-.379c.972-.173 1.783-.776 2.225-1.656.454-.902.452-1.944-.005-2.859-.148-.298-.29-.603-.423-.916-.483-1.135-.743-2.279-.865-3.38 2.719-1.53 5.657-2.375 8.701-2.375s5.982.845 8.7 2.375c-.122 1.101-.383 2.245-.865 3.38-.133.313-.275.618-.423.916-.457.915-.458 1.957-.005 2.859.442.879 1.253 1.483 2.225 1.656l2.134.379c.188.034.375.05.559.05 1.43 0 2.703-.971 3.025-2.396.072-.318.129-.633.186-.947 3.982 4.849 6.901 11.509 8.023 19.224.049.334.262.621.568.763 10.016 4.653 15.996 12.001 15.996 19.657 0 13.582-17.999 24.631-40.123 24.631s-40.123-11.05-40.123-24.631c-.002-7.298 5.44-14.311 14.623-18.981zm-11.436 61.457c0 1.016.028 2.062.085 3.17h-11.58c-.679 0-1.245-.551-1.261-1.229-.006-.271-.01-.542-.01-.815 0-11.459 4.503-22.386 12.683-30.903 1.504 1.745 3.315 3.368 5.374 4.85-3.454 7.51-5.291 16.103-5.291 24.927zm37.934-15.861c11.315-.168 21.539-3.165 28.963-7.92 3.243 7.177 4.971 15.365 4.971 23.781 0 1.009-.038 2.067-.097 3.17h-33.837zm48.699 16.987c0 .273-.003.545-.009.816-.016.677-.582 1.228-1.261 1.228h-11.58c.058-1.107.086-2.152.086-3.17 0-8.823-1.838-17.416-5.292-24.926 2.059-1.482 3.87-3.105 5.374-4.85 8.179 8.516 12.682 19.444 12.682 30.902z"/>
      <path d="m50.443 43.232c-1.407 0-2.547 1.14-2.547 2.547s1.14 2.547 2.547 2.547 2.547-1.14 2.547-2.547c.001-1.406-1.14-2.547-2.547-2.547z"/>
      <path d="m70.371 45.779c0 1.407 1.14 2.547 2.547 2.547s2.547-1.14 2.547-2.547-1.14-2.547-2.547-2.547-2.547 1.141-2.547 2.547z"/>
      <path d="m62.13 58.117c2.149 0 3.897-1.748 3.897-3.897v-1.698c0-.552-.448-1-1-1s-1 .448-1 1v1.698c0 1.046-.851 1.897-1.897 1.897s-1.896-.851-1.896-1.897v-1.698c0-.552-.448-1-1-1s-1 .448-1 1v1.698c0 2.149 1.748 3.897 3.896 3.897z"/>
      <path d="m71.002 40.721 4.988.869c.058.01.116.015.173.015.477 0 .899-.342.984-.828.095-.544-.27-1.062-.813-1.157l-4.988-.869c-.546-.09-1.062.271-1.157.813-.095.544.269 1.062.813 1.157z"/>
      <path d="m47.199 41.605c.057 0 .115-.005.173-.015l4.988-.869c.544-.095.908-.613.813-1.157-.095-.543-.607-.904-1.157-.813l-4.988.869c-.544.095-.908.613-.813 1.157.085.486.507.828.984.828z"/>
      <path d="m48.027 65.373c.278 9.26 2.057 9.267 2.919 9.267 1.491 0 2.317-1.706 2.756-5.792 2.313.958 5.115 1.645 8.428 1.645 3.147 0 5.85-.653 8.12-1.571.399 4.033 1.208 5.718 2.696 5.718 1.293 0 2.652-1.11 3-9.094 1.725-1.414 2.661-2.613 2.754-2.735.333-.44.247-1.067-.193-1.401-.441-.336-1.069-.247-1.401.193-.052.069-5.332 6.891-14.976 6.891-9.845 0-14.913-6.805-14.963-6.874-.323-.445-.947-.546-1.395-.224-.448.323-.549.948-.226 1.396.086.118.909 1.234 2.481 2.581zm24.928 6.967c-.221-.51-.562-1.687-.778-4.304.604-.316 1.16-.645 1.681-.98-.21 2.878-.587 4.567-.903 5.284zm-22.008.001c-.313-.731-.676-2.462-.85-5.414.518.344 1.082.681 1.688 1.008-.247 2.694-.609 3.892-.838 4.406z"/>
      <path d="m66.342 97.833c.933 0 1.69-.757 1.69-1.69s-.757-1.69-1.69-1.69-1.69.757-1.69 1.69.756 1.69 1.69 1.69z"/><circle cx="66.342" cy="106.283" r="1.69"/></g></g></g>
  </symbol>
  <symbol id="wizard-hoodie" viewBox="0 0 128 128">
    <title>Young Wizard</title>
      <path d="m89.648 77.598c9.299-6.8 14.021-14.534 14.021-23.103 0-20.374-18.624-47.669-37.669-47.669s-37.669 27.295-37.669 47.669c0 10.244 7.05 18.013 13.938 23.163-7.539 5.468-12.455 14.34-12.455 24.344v20.172c0 1.654 1.346 3 3 3h66.373c1.654 0 3-1.346 3-3v-20.172c0-10.041-4.954-18.941-12.539-24.404z" fill="#e6e7e8"/></g><g><path d="m83.944 73.628c7.174-5.023 14.725-12.711 14.725-23.133 0-19.147-17.522-46.669-36.669-46.669s-36.669 27.522-36.669 46.669c0 10.33 7.647 18.143 14.691 23.155-7.949 5.186-13.208 14.152-13.208 24.352v20.173c0 1.105.896 2 2 2h66.373c1.105 0 2-.895 2-2v-20.173c-.001-10.214-5.274-19.191-13.243-24.374z" fill="#fa759e"/><g><path d="m62 6.826c18.58 0 35.628 25.915 36.621 44.947.025-.422.048-.846.048-1.277 0-19.148-17.522-46.67-36.669-46.67s-36.669 27.522-36.669 46.669c0 .402.028.794.051 1.189 1.041-19.023 18.067-44.858 36.618-44.858z" fill="#fff"/></g><g><path d="m62 69.541c-3.15 0-6.148-.646-8.872-1.809v.269c0 4.9 8.872 10.872 8.872 10.872s8.872-5.972 8.872-10.872v-.269c-2.724 1.163-5.722 1.809-8.872 1.809z" fill="#fff"/></g><g><path d="m62 18.166c-8.487 0-16.607 6.103-22.608 14.325v14.442c0 12.486 10.122 22.608 22.608 22.608s22.608-10.122 22.608-22.608v-14.442c-6.001-8.222-14.121-14.325-22.608-14.325z" fill="#fff"/><g><g fill="#ffd7e5"><path d="m74.894 49.323c-1.109 0-2.008.567-2.008 1.266s.899 1.266 2.008 1.266 2.008-.567 2.008-1.266-.899-1.266-2.008-1.266z"/><ellipse cx="49.106" cy="50.308" rx="2.008" ry="1.266"/></g><g><path d="m62 61.74c-3.442 0-5.195-2.373-5.268-2.474-.323-.448-.223-1.073.226-1.396.447-.322 1.068-.222 1.392.22.058.077 1.268 1.65 3.65 1.65 2.373 0 3.647-1.646 3.66-1.663.332-.439.959-.528 1.4-.193.44.333.527.961.193 1.401-.074.1-1.898 2.455-5.253 2.455z" fill="#fa759e"/></g></g></g><path d="m73.46 109.451c2.678-2.83 4.331-6.639 4.331-10.843 0-8.721-7.07-15.792-15.792-15.792s-15.792 7.07-15.792 15.792c0 4.204 1.653 8.013 4.332 10.843z" fill="#6dc9f7"/><path d="m73.821 109.451h-23.642l-2 10.723h27.642z" fill="#0089ef"/><g><path d="m66.853 87.519.312.922c.193.57.641 1.018 1.211 1.211l.922.312-.922.312c-.57.193-1.018.641-1.211 1.211l-.312.922-.312-.922c-.193-.57-.641-1.018-1.211-1.211l-.922-.312.922-.312c.57-.193 1.018-.641 1.211-1.211z" fill="#d4fbff"/></g><g><path d="m69.417 94.057.652 1.924c.403 1.19 1.337 2.124 2.527 2.527l1.924.652-1.924.652c-1.19.403-2.124 1.337-2.527 2.527l-.652 1.924-.652-1.924c-.403-1.19-1.337-2.124-2.527-2.527l-1.924-.652 1.924-.652c1.19-.403 2.124-1.337 2.527-2.527z" fill="#d4fbff"/></g><g><circle cx="38" cy="111.785" fill="#fff" r="8.39"/><g><circle cx="86" cy="111.785" fill="#fff" r="8.39"/><g fill="#3a2c60"><path d="m85.641 73.603c9.304-6.801 14.028-14.537 14.028-23.108 0-20.373-18.624-47.669-37.669-47.669s-37.669 27.296-37.669 47.669c0 10.247 7.054 18.017 13.944 23.168-7.54 5.467-12.461 14.334-12.461 24.339v20.173c0 1.654 1.346 3 3 3h66.373c1.654 0 3-1.346 3-3v-20.173c-.001-10.042-4.959-18.936-12.546-24.399zm-40.251 38.182c0 4.075-3.315 7.39-7.39 7.39s-7.39-3.315-7.39-7.39 3.315-7.39 7.39-7.39 7.39 3.315 7.39 7.39zm27.632-3.334h-22.044c-2.434-2.72-3.77-6.199-3.77-9.843 0-8.156 6.635-14.792 14.791-14.792s14.792 6.636 14.792 14.792c.001 3.644-1.335 7.122-3.769 9.843zm-23.638 10.723.627-3.362h8.239c.553 0 1-.448 1-1s-.447-1-1-1h-7.866l.627-3.361h21.979l.627 3.361h-3.45c-.553 0-1 .448-1 1s.447 1 1 1h3.823l.627 3.362zm36.616-14.779c4.074 0 7.39 3.315 7.39 7.39s-3.315 7.39-7.39 7.39-7.39-3.315-7.39-7.39 3.316-7.39 7.39-7.39zm10.186 13.779c0 .551-.448 1-1 1h-3.413c2.197-1.72 3.617-4.39 3.617-7.39 0-5.177-4.212-9.39-9.39-9.39-.612 0-1.209.063-1.789.176v-10.796c0-.552-.447-1-1-1s-1 .448-1 1v11.427c-3.294 1.46-5.601 4.755-5.601 8.584 0 3 1.42 5.669 3.617 7.39h-3.575l-1.824-9.78c2.553-3.03 3.964-6.816 3.964-10.786 0-9.259-7.533-16.792-16.792-16.792s-16.791 7.533-16.791 16.792c0 3.971 1.411 7.758 3.964 10.786l-1.824 9.78h-3.576c2.197-1.72 3.617-4.39 3.617-7.39 0-3.828-2.306-7.124-5.6-8.584v-11.427c0-.552-.447-1-1-1s-1 .448-1 1v10.797c-.58-.112-1.177-.176-1.79-.176-5.178 0-9.39 4.212-9.39 9.39 0 3 1.42 5.669 3.617 7.39h-3.413c-.552 0-1-.449-1-1v-20.173c0-9.578 4.835-18.035 12.18-23.1 5.647 3.906 10.767 6.001 11.244 6.191.122.049.248.072.372.072.396 0 .771-.238.929-.629.205-.513-.044-1.095-.557-1.3-.257-.103-25.65-10.482-25.65-28.741-.001-19.519 17.634-45.669 35.668-45.669s35.669 26.15 35.669 45.669c0 10.999-8.578 20.644-25.496 28.667l-.21.1c-.499.237-.712.833-.475 1.332.237.5.832.713 1.332.475l.209-.099c4.102-1.945 7.713-3.995 10.874-6.138 7.403 5.057 12.284 13.548 12.284 23.171v20.171z"/><path d="m85.608 46.933v-11.174c1.985 3.084 3.659 6.37 4.932 9.646.154.396.532.638.933.638.121 0 .243-.022.362-.068.515-.2.77-.779.57-1.294-4.94-12.715-15.923-26.353-28.771-27.437-.058-.005-.116-.012-.174-.017-.484-.036-.971-.06-1.46-.06-.49 0-.976.024-1.461.06-.057.005-.114.012-.172.017-12.849 1.081-23.832 14.72-28.772 27.436-.199.515.056 1.094.57 1.294s1.094-.055 1.295-.57c1.272-3.276 2.947-6.561 4.932-9.646v11.174c0 9.508 5.654 17.716 13.773 21.453.386 5.172 8.347 10.691 9.277 11.317.169.114.364.17.559.17s.39-.057.559-.17c.93-.626 8.891-6.144 9.277-11.317 8.118-3.736 13.771-11.944 13.771-21.452zm-45.216 0v-6.586c1.022-3.689 2.818-7.148 5.309-10.127.777-.929 1.686-1.714 2.676-2.367-.89 1.911-1.397 4.035-1.397 6.283 0 .711.067 1.405.162 2.09h5.874l1.462-4.415 1.153 4.415h1.711l.546-5.826.619 5.826h11.846l.922-2.33 1.02 2.33h4.521c.096-.685.162-1.379.162-2.09 0-2.265-.516-4.403-1.418-6.325 1.015.66 1.945 1.46 2.738 2.409 2.491 2.979 4.286 6.437 5.309 10.126v6.588c0 11.915-9.693 21.608-21.608 21.608s-21.607-9.695-21.607-21.609zm21.608 30.721c-2.307-1.653-6.63-5.281-7.65-8.393 2.401.825 4.973 1.279 7.65 1.279s5.249-.454 7.65-1.279c-1.022 3.109-5.343 6.739-7.65 8.393z"/><path d="m52.026 42.507c-1.249 0-2.261 1.012-2.261 2.261s1.012 2.261 2.261 2.261 2.261-1.012 2.261-2.261-1.013-2.261-2.261-2.261z"/><path d="m71.974 42.507c-1.249 0-2.261 1.012-2.261 2.261s1.012 2.261 2.261 2.261 2.261-1.012 2.261-2.261-1.012-2.261-2.261-2.261z"/><path d="m65.571 52.26v-1.507c0-.552-.447-1-1-1s-1 .448-1 1v1.507c0 .866-.705 1.571-1.571 1.571s-1.571-.705-1.571-1.571v-1.507c0-.552-.447-1-1-1s-1 .448-1 1v1.507c0 1.969 1.603 3.571 3.571 3.571s3.571-1.602 3.571-3.571z"/><path d="m70.254 40.389 4.427.771c.059.01.116.015.173.015.478 0 .899-.342.984-.828.095-.544-.27-1.062-.813-1.157l-4.427-.771c-.553-.091-1.063.27-1.157.813-.095.544.269 1.062.813 1.157z"/><path d="m53.402 38.419-4.427.771c-.544.095-.908.613-.813 1.157.085.486.507.828.984.828.057 0 .114-.005.173-.015l4.427-.771c.544-.095.908-.613.813-1.157-.095-.543-.605-.905-1.157-.813z"/><path d="m66.458 113.813h-4.166c-.553 0-1 .448-1 1s.447 1 1 1h4.166c.553 0 1-.448 1-1s-.447-1-1-1z"/></g></g></g></g></g>
  </symbol>
  <symbol id="goddess" viewBox="0 0 128 128">
    <title>Goddess</title>
      <path d="m116.034 19.175c-5.658-7.345-19.66-8.182-20.253-8.214-.453-.027-.848.265-.989.687-7.747-2.04-14.641.297-16.598 1.074-1.685-1.091-7.493-4.146-16.642-1.578-9.324 2.619-16.896 10.987-20.772 22.957-3.528 10.893-3.432 22.566-.095 32.403-13.175 2.21-23.248 13.688-23.248 27.481 0 2.417.31 4.763.891 7.001-3 1.569-5.055 4.707-5.055 8.321 0 5.177 4.212 9.389 9.39 9.389 2.338 0 4.475-.865 6.12-2.284 4.471 3.303 9.961 5.313 15.903 5.444.053.003 66.529 0 66.529 0 1.654 0 3-1.346 3-3v-18.173c0-6.962-2.336-13.375-6.295-18.477 1.017-2.514 2.173-4.832 3.31-7.099 1.579-3.147 3.07-6.12 4.178-9.523 2.972-9.125 3.154-19.022 1.051-27.862.807-1.766 4.911-11.619-.425-18.547z" fill="#e6e7e8"/></g><g><g><g><path d="m65.157 67.754v-3.38c-7.714-3.317-13.219-10.79-13.663-19.609-.582 1.047-1.056 2.128-1.359 3.26-2.583 9.648.46 16.527 2.719 23.804 3.653-2.216 7.829-3.655 12.303-4.075z" fill="#ffd7e5"/></g><g><path d="m82.901 64.422v3.332c3.489.327 6.794 1.277 9.815 2.728.611-6.225 2.084-13.01 2.688-19.377-2.11 6.003-6.682 10.843-12.503 13.317z" fill="#ffd7e5"/></g></g><g><g><path d="m40.843 116.856h.465c-.208 0-.414-.011-.621-.016.052.004.102.016.156.016z" fill="#fff"/><path d="m82.901 67.754v-3.332c-2.712 1.153-5.694 1.795-8.828 1.795-3.169 0-6.178-.666-8.916-1.843v3.38c-2.355.221-4.627.725-6.784 1.474 5.987 4.928 9.806 12.396 9.806 20.756 0 14.84-12.031 26.871-26.871 26.871h65.908c1.105 0 2-.895 2-2v-18.172c0-15.123-11.554-27.544-26.315-28.929z" fill="#fff"/><g><path d="m94.643 38.183c-4.084-13.092-20.569-17.243-20.569-17.243s-2.714 5.076-7 8.792c-5.269 4.568-12.333 9.193-15.579 15.032.602 11.949 10.481 21.452 22.579 21.452 9.861 0 18.243-6.316 21.333-15.121.444-4.659.426-9.097-.764-12.912z" fill="#fff"/></g></g><path d="m83.301 85.335c-3.745 0-7.083 1.727-9.272 4.424-1.563-1.927-3.719-3.344-6.184-4.004.218 1.378.334 2.79.334 4.229 0 10.721-6.28 19.972-15.36 24.284v2.587h42.421v-19.581c0-6.593-5.345-11.939-11.939-11.939z" fill="#fa759e"/><g><path d="m83.301 85.335c-3.745 0-7.083 1.727-9.272 4.424-1.563-1.927-3.719-3.344-6.184-4.004.16 1.012.262 2.043.305 3.09 2.337.694 4.381 2.068 5.879 3.915 2.189-2.697 5.527-4.424 9.272-4.424 6.594 0 11.939 5.345 11.939 11.939v-3c0-6.595-5.345-11.94-11.939-11.94z" fill="#fff"/></g></g><g><path d="m94.643 38.183c-4.084-13.092-20.569-17.243-20.569-17.243s-2.714 5.076-7 8.792c-5.269 4.568-12.333 9.193-15.579 15.032.602 11.949 10.481 21.452 22.579 21.452 9.861 0 18.243-6.316 21.333-15.121.444-4.659.426-9.097-.764-12.912z" fill="#fff"/></g><g fill="#ffd7e5"><path d="m86.967 44.999c-1.109 0-2.008.567-2.008 1.266s.899 1.266 2.008 1.266 2.008-.567 2.008-1.266-.899-1.266-2.008-1.266z"/><path d="m61.18 44.718c-1.109 0-2.008.567-2.008 1.266s.899 1.266 2.008 1.266 2.008-.567 2.008-1.266-.899-1.266-2.008-1.266z"/></g><g><path d="m74.073 57.415c-3.443 0-5.195-2.373-5.268-2.474-.323-.448-.222-1.073.226-1.396.446-.322 1.068-.222 1.392.221.061.081 1.269 1.649 3.649 1.649 2.373 0 3.647-1.646 3.66-1.663.333-.439.96-.527 1.401-.193.44.333.526.961.193 1.401-.075.101-1.897 2.455-5.253 2.455z" fill="#fa759e"/></g><g><path d="m96.793 11.314c-10.974-6.819-22.72-1.457-22.72-1.457s-5.87-4.666-16.25-1.75c-18.915 5.313-27.534 34.172-19.778 55.211 1.07-.13 2.157-.204 3.262-.204 3.284 0 6.429.591 9.338 1.67-1.422-4.973-2.259-10.23-.511-16.759 1.994-7.446 10.725-12.905 16.938-18.292 4.286-3.716 7-8.792 7-8.792s16.485 4.151 20.569 17.243c3.369 10.799-2.57 26.543-2.194 38.408.625 19.738 8.61 28.752 8.61 28.752s-1.865-14.325 0-21.678c2.265-8.933 6.919-14.775 9.4-22.392 5.867-18.006.89-40.917-13.664-49.96z" fill="#ffd7e5"/></g><path d="m111.241 15.785c-5.442-7.066-19.513-7.825-19.513-7.825s-2.859 13.799 2.584 20.865c5.442 7.066 17.125 4.724 17.125 4.724s5.247-10.697-.196-17.764z" fill="#6dc9f7"/><circle cx="41.308" cy="89.985" fill="#6dc9f7" r="26.871"/><g><g><path d="m55.715 98.633c.928.164 1.992 1.033 1.743 2.439-.123.695-.195 3.068-1.586 3.864-1.462.837-2.453 2.26-2.759 2.007-.759-.627.801-1.807 1.309-3.625.289-1.035-.085-2.222.083-3.088.198-1.029.93-1.647 1.21-1.597z" fill="#0089ef"/></g><g><path d="m58.68 77.958c1.5-.068 1.74 1.31 2.52 1.834s2.882.786 2.882.786l2.452.129c-2.718-7.389-8.59-13.254-15.984-15.962.083.406-.059.81-.618 1.159-2.096 1.31-3.931 1.31-3.931 1.31s-1.887.202-2.782 1.338-.263 1.993-.624 3.117-1.834.786-1.834.786-3.12-.871-4.509.809c-.535.647-.105 3.208-.799 4.112-1.108 1.443-2.581 1.94-2.309 3.188.222 1.014 2.167 2.736 3.66 1.727 1.104-.746.124-1.827.823-2.634.81-.937 2.945-1.193 3.659-1.419 2.658-.842 4.503-.564 5.816.291 1.313.854.932 3.781 2.734 4.073.792.128 1.931.503 2.464.131.339-.237.798.597.584 1.282s-1.365 1.146-2.17 1.178-1.613-.348-1.906-.557c-1.452-1.032-4.039.688-5.247.907-1.207.218-2.059-1.326-4.275-.441s-4.021 2.943-4.021 2.943c-.264.192-.475.443-.618.736-.474.971-1.55 3.225-1.55 3.685 0 .41.044 2.109 1.222 3.017s2.366 1.555 2.713 1.901c.59.59 1.377 1.377 2.557 2.951s1.269 5.312.679 6.492c-.382.764.307 2.434.841 3.517.309.626.924 1.04 1.62 1.098.782.065 4.892-1.871 5.272-2.557.462-.833 1.025-1.88 1.138-2.218.168-.503.348-3.763 1.833-5.533s4.797-5.882 4.397-8.223-2.187-1.599-3.027-3.94c-.428-1.193-1.562-2.151-1.231-2.589s.995-.481 1.787-.103c.324.155.551 1.663 1.178 2.727.596 1.012 1.587 1.586 2.106 1.62 1.064.071 3.369-2.056 3.526-3.269.06-.468-1.514-.468-2.184-1.328-1.069-1.371-.4-2.456-1.028-2.912-.628-.457-1.42-.002-1.628-.286-.543-.742.73-1.695.579-2.461-.15-.767 2.522-2.38 3.233-2.412z" fill="#0089ef"/></g><g><path d="m14.437 89.985c0 3.287.593 6.435 1.673 9.347 1.656 1.723 3.797 2.948 4.34 2.706.532-.237 1.246-2.171 1.182-4.36-.054-1.855-.873-3.823-.685-5.825.24-2.557 1.657-4.528 2.227-5.575.68-1.25 2.975-1.322 4.454-2.391 1.875-1.355 2.912-3.711 2.912-5.482 0-1.276-2.132-6.126-3.845-7.821-.784-.776-1.559-1.238-2.257-1.508-6.097 4.925-10.001 12.459-10.001 20.909z" fill="#0089ef"/></g></g><g><circle cx="18.663" cy="105.307" fill="#fff" r="8.39"/><g fill="#3a2c60"><path d="m88.029 115.855h-5.375c-.552 0-1 .447-1 1s.448 1 1 1h5.375c.552 0 1-.447 1-1s-.447-1-1-1z"/><path d="m64.099 42.705c1.249 0 2.261-1.012 2.261-2.261s-1.012-2.261-2.261-2.261-2.261 1.012-2.261 2.261 1.013 2.261 2.261 2.261z"/><path d="m84.048 38.183c-1.249 0-2.261 1.012-2.261 2.261s1.012 2.261 2.261 2.261 2.261-1.012 2.261-2.261-1.013-2.261-2.261-2.261z"/><path d="m74.073 51.507c1.969 0 3.571-1.602 3.571-3.571v-1.507c0-.552-.448-1-1-1s-1 .448-1 1v1.507c0 .866-.705 1.571-1.571 1.571s-1.571-.705-1.571-1.571v-1.507c0-.552-.448-1-1-1s-1 .448-1 1v1.507c0 1.969 1.603 3.571 3.571 3.571z"/><path d="m82.327 36.065 4.427.771c.058.01.116.015.173.015.477 0 .899-.342.984-.828.095-.544-.27-1.062-.813-1.157l-4.427-.771c-.544-.092-1.062.27-1.157.813-.095.545.269 1.062.813 1.157z"/><path d="m112.034 15.175c-5.658-7.345-19.659-8.182-20.252-8.214-.451-.024-.856.271-.993.699-7.745-2.036-14.639.286-16.594 1.062-1.684-1.092-7.493-4.146-16.642-1.578-7.325 2.058-13.697 7.771-17.941 16.088-5.953 11.665-7.042 26.928-2.895 39.266-13.19 2.196-23.28 13.682-23.28 27.486 0 2.417.33 4.754.912 6.991-3.011 1.566-5.076 4.709-5.076 8.331 0 5.178 4.212 9.39 9.39 9.39 2.348 0 4.493-.873 6.141-2.303 4.441 3.281 9.875 5.276 15.771 5.43.09.008.175.032.268.032h38.187c.552 0 1-.447 1-1s-.448-1-1-1h-25.212v-.977c9.101-4.592 15.36-14.023 15.36-24.894 0-.924-.048-1.836-.136-2.737 1.614.687 3.068 1.735 4.21 3.142.38.469 1.174.469 1.553 0 2.091-2.577 5.188-4.055 8.496-4.055 6.032 0 10.938 4.907 10.938 10.939v18.581h-2.21c-.552 0-1 .447-1 1s.448 1 1 1h15.186c1.654 0 3-1.346 3-3v-18.171c0-6.962-2.337-13.372-6.296-18.473 1.017-2.515 2.174-4.834 3.312-7.103 1.579-3.146 3.07-6.119 4.178-9.523 2.972-9.124 3.151-19.019 1.049-27.858.802-1.756 4.916-11.618-.424-18.551zm-19.481-6.144c3.1.303 13.552 1.725 17.896 7.365 3.827 4.968 1.87 12.076.724 15.172l-3.06-3.973 1.08-8.324c.071-.548-.315-1.049-.863-1.121-.55-.072-1.05.315-1.121.863l-.823 6.341-4.729-6.139.615-4.736c.071-.548-.315-1.049-.863-1.121-.551-.076-1.05.315-1.121.863l-.357 2.753-2.592-3.366c-.338-.438-.966-.518-1.403-.182-.438.337-.519.965-.182 1.403l2.592 3.365-2.753-.357c-.551-.077-1.05.315-1.121.863s.315 1.049.863 1.121l4.737.615 4.728 6.139-6.34-.823c-.553-.074-1.049.315-1.121.863-.071.548.315 1.049.863 1.121l8.324 1.08 3.062 3.976c-3.284.321-10.65.404-14.486-4.576-4.336-5.633-3.046-16.109-2.549-19.185zm-73.89 103.665c-4.075 0-7.39-3.315-7.39-7.39s3.315-7.39 7.39-7.39 7.39 3.315 7.39 7.39-3.315 7.39-7.39 7.39zm22.645 3.159c-5.655 0-10.874-1.845-15.136-4.936 1.175-1.568 1.88-3.507 1.88-5.613 0-5.178-4.212-9.39-9.39-9.39-.844 0-1.658.122-2.436.332-.504-2.008-.79-4.102-.79-6.265 0-14.265 11.606-25.871 25.871-25.871s25.872 11.608 25.872 25.872c0 14.266-11.606 25.871-25.871 25.871zm9.702-67.201c1.588 7.322 6.546 13.338 13.147 16.39v1.812c-1.941.24-3.815.669-5.613 1.25-2.128-1.68-4.504-3.055-7.066-4.063-1.207-4.347-2.033-9.229-.468-15.389zm9.428-12.203c.186.241.467.4.782.4.057 0 .115-.005.173-.015l4.427-.771c.544-.095.908-.613.813-1.157-.095-.543-.609-.905-1.157-.813l-2.733.476c.276-.221.551-.443.826-.663 1.465-1.175 2.85-2.284 4.16-3.42 3.465-3.005 5.904-6.81 6.824-8.368 3.162.974 15.741 5.481 19.135 16.361 1.127 3.612 1.159 7.879.742 12.368-3.058 8.597-11.225 14.368-20.357 14.368-11.437 0-20.85-8.876-21.556-20.251 1.798-3.095 4.74-5.866 7.921-8.515zm31.424 32.542c-2.493-1.045-5.154-1.79-7.961-2.137v-1.79c3.952-1.814 7.353-4.702 9.796-8.355-.207 1.387-.429 2.777-.651 4.159-.433 2.699-.873 5.444-1.184 8.123zm-8.561 15.342c-3.522 0-6.841 1.415-9.272 3.92-1.488-1.534-3.314-2.645-5.311-3.285-1.093-5.987-4.101-11.31-8.369-15.311 1.579-.437 3.214-.751 4.902-.909.514-.049.907-.48.907-.996v-1.896c2.477.879 5.142 1.359 7.916 1.359 2.72 0 5.356-.481 7.828-1.352v1.89c0 .516.393.947.907.996 3.141.295 6.111 1.097 8.842 2.311-.171 1.918-.256 3.787-.2 5.562.144 4.533.668 8.501 1.392 11.941-2.37-2.592-5.764-4.23-9.542-4.23zm24.914 12.348v18.173c0 .552-.449 1-1 1h-10.975v-16.673c2.005 4.436 3.909 6.642 4.07 6.824.194.22.469.337.749.337.14 0 .281-.029.414-.09.4-.182.634-.604.578-1.039-.019-.142-1.818-14.222-.022-21.303.305-1.203.657-2.351 1.042-3.457 3.239 4.587 5.144 10.179 5.144 16.228zm1.293-35.719c-1.062 3.26-2.521 6.167-4.064 9.246-1.993 3.972-4.053 8.079-5.354 13.21-1.285 5.068-.868 13.168-.446 18.019-2.341-4.132-5.796-12.283-6.195-24.878-.147-4.659.688-9.863 1.572-15.373 1.311-8.164 2.666-16.605.577-23.302-4.203-13.472-20.584-17.739-21.279-17.914-.447-.114-.91.093-1.126.498-.026.049-2.675 4.954-6.773 8.508-1.281 1.11-2.65 2.208-4.101 3.37-5.647 4.527-11.486 9.208-13.149 15.418-1.648 6.155-1.026 11.243.033 15.494-2.505-.741-5.152-1.146-7.894-1.146-.867 0-1.723.045-2.57.123-4.135-11.912-3.125-26.768 2.655-38.095 3.988-7.814 9.919-13.167 16.701-15.072 9.709-2.729 15.134 1.395 15.357 1.57.293.234.695.283 1.036.127.092-.041 7.576-3.332 15.942-1.108-.588 4.129-1.391 13.959 3.09 19.776 3.529 4.582 9.351 5.498 13.443 5.498 1.555 0 2.851-.132 3.686-.246 1.886 8.349 1.665 17.662-1.141 26.277z"/></g></g></g></g>
  </symbol>
</svg>