<svg id="Layer_1" enable-background="new 0 0 128 128" height="512" viewBox="0 0 128 128" width="512" xmlns="http://www.w3.org/2000/svg"><g><g fill="#e6e7e8"><path d="m116.312 87.111c1.814-1.537 3.86-3.688 5.639-6.594 4.355-7.115 3.913-13.2 3.49-13.899-.528-.87-.704-1.17-10.874 4.103 1.338-2.182 2.945-5.352 4.139-9.435 2.062-7.054.151-15.052-1.626-15.837-.6-.265-1.103.109-1.471.382-1.708 1.269-7.311 6.442-13.565 13.202.04-.407.083-.809.114-1.231.729-10.11-5.748-27.858-17.557-32.657-5.413-2.201-9.675-1.778-10.817-1.604-1.956-.697-13.8-4.46-25.076 2.168-12.505 7.351-18.243 19.168-17.113 35.115-6.893-7.627-13.348-13.615-15.204-14.994-.368-.273-.871-.648-1.471-.382-1.777.785-3.688 8.783-1.626 15.837 1.193 4.083 2.801 7.253 4.139 9.435-10.172-5.272-10.347-4.972-10.875-4.102-.423.699-.865 6.784 3.49 13.899 1.778 2.906 3.824 5.058 5.639 6.594-5.179-1.083-5.529-.498-5.822-.007-.779 1.294 2.802 8.75 11.813 14.492 1.483.945 4.696 2.442 8.493 3.522-.249 1.555-.383 3.148-.383 4.772v11.173c0 1.654 1.346 3 3 3h66.373c1.654 0 3-1.346 3-3v-11.173c0-1.62-.133-3.208-.38-4.759 3.819-1.081 7.053-2.586 8.542-3.535 9.011-5.742 12.592-13.198 11.813-14.491-.295-.491-.647-1.076-5.824.006z"/><path d="m66 20.334c9.809 0 21.5-1.075 21.5-6.199s-11.692-6.198-21.5-6.198-21.5 1.075-21.5 6.199 11.691 6.198 21.5 6.198zm0-5.119c-6 0-10.367-.522-13.154-1.08 2.787-.557 7.154-1.079 13.154-1.079s10.367.522 13.154 1.08c-2.787.557-7.154 1.079-13.154 1.079z"/></g><g><g fill="#6dc9f7"><path d="m107.002 85.413s5.859-2.496 10.096-9.418c4.179-6.827 3.675-12.549 3.488-12.859-.255-.422-13.283 6.418-13.283 6.418s4.074-4.445 6.443-12.549c2.099-7.18-.161-14.24-1.07-14.642-.351-.155-7.965 6.721-16.039 15.71-1.531 8.927-5.394 13.623-7.942 17.548-1.402 2.16-2.093 4.921-2.395 7.624 5.269 4.239 9.032 10.273 10.347 17.18 3.942-1.013 7.412-2.57 9.139-3.671 9.334-5.948 11.682-12.818 11.494-13.133-.463-.77-10.278 1.792-10.278 1.792z"/><path d="m34.777 85.892c.081-2.032.035-4.208-.302-6.559-1.252-8.73-4.543-12.419-5.589-19.546-8.614-9.815-17.189-17.589-17.561-17.424-.908.401-3.168 7.462-1.07 14.642 2.369 8.103 6.443 12.549 6.443 12.549s-13.029-6.84-13.284-6.418c-.187.309-.691 6.032 3.488 12.859 4.237 6.922 10.096 9.418 10.096 9.418s-9.815-2.562-10.277-1.793c-.189.315 2.16 7.185 11.493 13.133 1.72 1.096 5.169 2.644 9.091 3.656 1.064-5.567 3.72-10.567 7.472-14.517z"/></g><path d="m62 15.334c-4.809 0-20.5-.375-20.5-5.199s15.691-5.199 20.5-5.199 20.5.375 20.5 5.199-15.691 5.199-20.5 5.199zm-16.83-5.199c1.956.878 7.712 2.08 16.83 2.08s14.875-1.202 16.83-2.08c-1.956-.878-7.712-2.08-16.83-2.08s-14.875 1.202-16.83 2.08z" fill="#6dc9f7"/><g><g><path d="m80.225 22.071c-6.005-2.441-10.536-1.5-10.536-1.5v9.5c.185-.028.286-.042.286-.042s4.235.416 8.063 3.104c1.448 1.017 2.674 2.267 3.659 3.469 1.871 2.284 2.887 5.144 2.887 8.096v10.123c0 9.307-5.63 17.29-13.666 20.756v1.395c5.796.559 11.088 2.821 15.382 6.28.302-2.705.992-5.47 2.396-7.632 2.933-4.518 7.613-10.051 8.466-21.891.655-9.104-5.091-26.844-16.937-31.658z" fill="#0089ef"/></g><path d="m85.913 49.725c-.473 0-.922.14-1.33.388v4.709c0 1.289-.114 2.552-.321 3.782.49.392 1.048.634 1.651.634 1.861 0 3.369-2.13 3.369-4.757s-1.508-4.756-3.369-4.756z" fill="#fff"/><path d="m70.917 76.967v-1.378c-2.743 1.183-5.766 1.841-8.943 1.841-3.123 0-6.096-.636-8.801-1.781v1.307c-14.795 1.352-26.385 13.787-26.385 28.934v11.173c0 1.105.895 2 2 2h66.373c1.105 0 2-.895 2-2v-11.173c0-15.099-11.516-27.505-26.244-28.923z" fill="#fff"/><g><path d="m70.917 76.973v2.917c0 4.9-3.972 8.872-8.872 8.872-4.081 0-7.51-2.759-8.544-6.511-.106 1.817-.422 3.749-1.151 5.445-2.235 5.196-5.875 6.125-8.125 10.375-2.46 4.648 2.848 9.473 2.848 9.473s-3.136-.152-6.309-1.389v12.909h42.421v-19.4c0-5.192 2.697-9.947 7.012-12.636-4.756-5.568-11.578-9.312-19.28-10.055z" fill="#fa759e"/></g><path d="m53.5 82.278c-.108 1.809-.424 3.731-1.15 5.418-.234.544-.487 1.032-.748 1.492 3.82 2.123 9.076-.534 9.076-.534l-.005-.008c-3.454-.539-6.25-3.061-7.173-6.368z" fill="#ffd7e5"/><path d="m74.829 86.696c2.345-4.197-.692-7.785-2.789-9.602-.373-.05-.746-.096-1.123-.131v2.928c0 4.462-3.297 8.143-7.585 8.768.206.103 8.151 4.024 11.497-1.963z" fill="#ffd7e5"/><path d="m61.975 77.43c-3.123 0-6.096-.636-8.801-1.781v4.241c0 4.9 3.972 8.872 8.872 8.872s8.872-3.972 8.872-8.872v-4.301c-2.744 1.183-5.766 1.841-8.943 1.841z" fill="#fff"/><path d="m69.688 20.571v9.25s-2.065 5.838-7.713 9c-8.523 4.771-18.667 2.167-20.608 15.837-1.751 12.328 11.737 20.964 11.737 20.964s1.397 7.077-.753 12.075c-2.235 5.196-5.875 6.125-8.125 10.375-2.46 4.648 2.848 9.473 2.848 9.473s-8.964-.409-11.918-5.825c-3-5.5.75-12.417-.68-22.385-1.328-9.257-4.95-12.841-5.756-20.871-1.744-17.392 4.483-28.829 16.496-35.892 11.796-6.937 24.472-2.001 24.472-2.001z" fill="#0089ef"/><path d="m46.544 107.006c-2.848-.657-6.653-2.104-8.39-5.288-3-5.5.75-12.417-.68-22.385-1.328-9.257-4.95-12.841-5.756-20.871-1.744-17.392 4.483-28.829 16.496-35.892 4.313-2.536 8.742-3.481 12.627-3.664-4.497-.214-10.156.448-15.627 3.664-12.014 7.063-18.24 18.5-16.496 35.892.805 8.03 4.428 11.614 5.756 20.871 1.43 9.968-2.32 16.885.68 22.385 2.954 5.416 11.919 5.825 11.919 5.825s-.213-.196-.529-.537z" fill="#fff"/><path d="m81.696 36.602c-.985-1.203-2.211-2.452-3.659-3.469-3.827-2.687-8.063-3.104-8.063-3.104s-.14.018-.39.058c-.479 1.174-2.678 5.973-7.61 8.734-8.523 4.771-18.667 2.167-20.608 15.837-1.751 12.327 11.735 20.962 11.737 20.963 2.724 1.164 5.722 1.809 8.872 1.809 12.486 0 22.608-10.122 22.608-22.608v-10.124c0-2.952-1.016-5.812-2.887-8.096z" fill="#fff"/><g><g fill="#ffd7e5"><path d="m74.868 56.212c-1.109 0-2.008.567-2.008 1.266s.899 1.266 2.008 1.266 2.008-.567 2.008-1.266-.899-1.266-2.008-1.266z"/><path d="m49.081 55.931c-1.109 0-2.008.567-2.008 1.266s.899 1.266 2.008 1.266 2.008-.567 2.008-1.266-.899-1.266-2.008-1.266z"/></g><path d="m61.975 68.629c-3.443 0-5.195-2.373-5.268-2.474-.323-.448-.223-1.073.226-1.396.446-.322 1.068-.222 1.393.221.06.081 1.269 1.649 3.649 1.649 2.373 0 3.647-1.646 3.66-1.663.332-.439.959-.527 1.4-.193.44.333.527.961.193 1.401-.075.1-1.898 2.455-5.253 2.455z" fill="#fa759e"/></g><g fill="#3a2c60"><path d="m112.313 83.111c1.814-1.537 3.859-3.688 5.638-6.594 4.356-7.116 3.914-13.2 3.491-13.899-.527-.87-.704-1.169-10.874 4.103 1.338-2.182 2.944-5.352 4.138-9.435 2.062-7.053.151-15.051-1.625-15.837-.601-.265-1.103.109-1.471.382-1.708 1.269-7.312 6.447-13.565 13.207.04-.409.084-.812.114-1.235.729-10.11-5.748-27.858-17.557-32.657-5.411-2.2-9.674-1.777-10.817-1.604-1.958-.698-13.802-4.46-25.076 2.168-12.506 7.353-18.244 19.172-17.113 35.122-6.893-7.626-13.349-13.622-15.205-15-.368-.273-.87-.646-1.471-.382-1.777.785-3.688 8.783-1.626 15.837 1.193 4.083 2.801 7.253 4.139 9.435-10.172-5.274-10.348-4.976-10.874-4.104-.423.699-.865 6.784 3.49 13.899 1.778 2.906 3.824 5.058 5.639 6.594-5.177-1.083-5.529-.497-5.825-.005-.775 1.295 2.811 8.752 11.815 14.49 1.482.945 4.697 2.437 8.494 3.516-.25 1.557-.383 3.152-.383 4.779v11.172c0 1.654 1.346 3 3 3h31.878c.553 0 1-.448 1-1s-.447-1-1-1h-18.903v-10.491c2.714.836 5.071.961 5.264.97.016 0 .031.001.046.001.403 0 .77-.243.924-.618.161-.39.061-.838-.251-1.122-.048-.043-4.712-4.348-2.638-8.265.943-1.782 2.167-2.948 3.461-4.182 1.173-1.118 2.371-2.274 3.434-3.906 1.006.391 2.074.561 3.138.561 2.151 0 4.254-.644 5.709-1.334.393.048.789.085 1.195.085.385 0 .762-.028 1.135-.071.82.37 3.203 1.332 5.797 1.332 2.436 0 5.054-.85 6.725-3.84 1.558-2.789 1.246-5.742-.826-8.525 5.383 1.34 10.154 4.24 13.81 8.188-4.09 2.985-6.5 7.691-6.5 12.816v18.4h-6.508c-.553 0-1 .448-1 1s.447 1 1 1h19.483c1.654 0 3-1.346 3-3v-11.172c0-1.622-.136-3.212-.385-4.765 3.819-1.08 7.057-2.58 8.546-3.53 9.011-5.742 12.592-13.198 11.813-14.491-.295-.489-.647-1.075-5.823.007zm-32.465-60.114c11.817 4.802 16.903 22.513 16.316 30.661-.735 10.202-4.33 15.516-7.218 19.785-.381.563-.748 1.105-1.091 1.634-1.087 1.676-1.856 3.816-2.302 6.365-3.862-2.764-8.4-4.641-13.317-5.321-.018-.004-.034-.012-.052-.015 6.388-3.077 11.181-8.949 12.799-16.017.306.09.617.149.93.149 2.45 0 4.369-2.529 4.369-5.757s-1.919-5.756-4.369-5.756c-.111 0-.22.012-.33.023v-4.049c0-3.178-1.105-6.278-3.113-8.729-1.21-1.477-2.508-2.706-3.858-3.654-3.171-2.227-6.562-2.972-7.923-3.194v-7.673c1.489-.133 4.932-.17 9.159 1.548zm-26.27 51.739c-.997-.668-12.796-8.855-11.222-19.938 1.275-8.979 6.074-10.358 12.149-12.104 2.621-.753 5.332-1.531 7.957-3.001 4.571-2.559 6.904-6.71 7.781-8.618 1.072.169 4.296.824 7.219 2.876 1.201.843 2.365 1.948 3.46 3.285 1.716 2.095 2.66 4.745 2.66 7.462v10.124c0 11.915-9.693 21.608-21.608 21.608-2.909 0-5.735-.57-8.396-1.694zm32.005-23.962c.11-.026.22-.049.33-.049 1.284 0 2.369 1.72 2.369 3.756 0 2.331-1.431 4.263-2.932 3.617.149-1.071.232-2.164.232-3.276v-4.048zm-66.831 45.136c-6.915-4.407-9.865-9.327-10.746-11.397 1.75.197 5.517 1.026 8.738 1.867.512.131 1.028-.149 1.198-.643.17-.495-.071-1.037-.552-1.244-.056-.024-5.632-2.479-9.637-9.02-3.05-4.983-3.451-9.16-3.45-11.001 2.151.942 7.278 3.526 11.929 5.967.432.228.962.109 1.257-.275.297-.385.273-.927-.055-1.286-.039-.042-3.943-4.364-6.221-12.153-1.658-5.671-.417-11.213.373-13.015 2.337 1.814 9.312 8.47 16.352 16.51.522 3.333 1.509 5.919 2.548 8.63 1.157 3.017 2.354 6.136 2.997 10.626.307 2.141.365 4.141.305 6.022-3.501 3.784-6.037 8.47-7.231 13.662-3.36-.962-6.277-2.276-7.805-3.25zm21.012 22.153h-10.976c-.552 0-1-.449-1-1v-11.172c0-6.396 2.161-12.29 5.778-17.014-.071.758-.149 1.5-.227 2.217-.455 4.203-.847 7.832.938 11.104 1.225 2.245 3.333 3.694 5.487 4.634zm7.426-25.154c-1.354 1.29-2.753 2.625-3.849 4.694-1.748 3.301-.202 6.569 1.257 8.605-2.705-.52-6.844-1.813-8.565-4.969-1.484-2.722-1.141-5.903-.705-9.931.378-3.495.806-7.456.138-12.117-.677-4.713-1.914-7.938-3.11-11.058-1.156-3.017-2.249-5.866-2.641-9.771-1.626-16.216 3.61-27.642 16.008-34.93 9.758-5.736 20.302-2.991 22.967-2.146v8.37c-.009.019-.022.034-.03.053-.373.914-2.469 5.605-7.172 8.239-2.424 1.356-5.021 2.103-7.532 2.824-6.233 1.791-12.12 3.481-13.578 13.744-1.67 11.756 9.573 20.15 11.813 21.695.241 1.506.966 7.082-.758 11.089-1.144 2.654-2.649 4.089-4.243 5.609zm5.793-4.215c.095-.199.194-.39.285-.603.337-.783.585-1.612.775-2.452.925 1.286 2.155 2.329 3.577 3.049-1.373.34-3.085.528-4.637.006zm1.528-6.531c.104-1.96-.026-3.756-.171-5.004 2.451.839 5.01 1.271 7.635 1.271 2.786 0 5.459-.488 7.942-1.378v2.839c0 4.34-3.531 7.872-7.872 7.872-3.55-.001-6.556-2.365-7.534-5.6zm19.445 4.045c-1.776 3.177-5.129 3.076-7.501 2.502 3.233-1.623 5.462-4.962 5.462-8.819v-1.556c2.028 1.93 3.794 4.732 2.039 7.873zm22.205 30.855c0 .551-.448 1-1 1h-10.975v-18.4c0-4.533 2.155-8.693 5.807-11.297 3.855 4.806 6.169 10.899 6.169 17.525v11.172zm9.087-21.153c-1.534.978-4.473 2.295-7.851 3.259-1.49-6.495-5.086-12.195-10.034-16.334.362-2.755 1.088-5.002 2.17-6.67.336-.518.695-1.049 1.069-1.602 2.41-3.563 5.563-8.247 6.963-16.045 6.506-7.264 12.676-13.123 14.846-14.808.791 1.802 2.03 7.345.373 13.015-2.267 7.756-6.182 12.111-6.221 12.154-.327.359-.35.901-.053 1.286s.825.501 1.256.274c4.649-2.441 9.777-5.025 11.929-5.967 0 1.842-.401 6.018-3.451 11.001-4.004 6.541-9.581 8.996-9.637 9.02-.48.207-.722.749-.552 1.244s.688.778 1.198.644c3.223-.841 6.989-1.67 8.739-1.867-.878 2.068-3.827 6.988-10.744 11.396z"/><path d="m62 16.334c9.809 0 21.5-1.075 21.5-6.199s-11.691-6.199-21.5-6.199-21.5 1.075-21.5 6.199 11.692 6.199 21.5 6.199zm0-10.398c11.481 0 19.5 1.727 19.5 4.199s-8.019 4.199-19.5 4.199-19.5-1.727-19.5-4.199 8.019-4.199 19.5-4.199z"/><path d="m44.761 11.047c2.402 1.079 8.664 2.167 17.239 2.167 8.573 0 14.836-1.088 17.239-2.167.359-.161.591-.518.591-.912s-.231-.751-.591-.912c-2.403-1.079-8.666-2.167-17.239-2.167-8.575 0-14.837 1.088-17.239 2.167-.359.161-.591.518-.591.912s.231.751.591.912zm17.239-1.991c5.998 0 10.366.522 13.154 1.08-2.788.558-7.156 1.08-13.154 1.08-6 0-10.367-.522-13.154-1.08 2.787-.558 7.154-1.08 13.154-1.08z"/><path d="m70.86 118.063h-5.86c-.553 0-1 .448-1 1s.447 1 1 1h5.86c.553 0 1-.448 1-1s-.447-1-1-1z"/><path d="m52 49.396c-1.249 0-2.261 1.012-2.261 2.261s1.012 2.261 2.261 2.261 2.261-1.012 2.261-2.261c0-1.248-1.012-2.261-2.261-2.261z"/><path d="m71.949 49.396c-1.249 0-2.261 1.012-2.261 2.261s1.012 2.261 2.261 2.261 2.261-1.012 2.261-2.261c0-1.248-1.012-2.261-2.261-2.261z"/><path d="m65.546 59.149v-1.507c0-.552-.447-1-1-1s-1 .448-1 1v1.507c0 .866-.705 1.571-1.571 1.571s-1.571-.705-1.571-1.571v-1.507c0-.552-.447-1-1-1s-1 .448-1 1v1.507c0 1.969 1.603 3.571 3.571 3.571s3.571-1.602 3.571-3.571z"/><path d="m70.229 47.279 4.427.771c.059.01.116.015.173.015.478 0 .899-.342.984-.828.095-.544-.27-1.062-.813-1.157l-4.427-.771c-.552-.092-1.062.27-1.157.813-.096.544.269 1.062.813 1.157z"/><path d="m53.377 45.308-4.427.772c-.544.095-.908.613-.813 1.157.085.486.507.828.984.828.057 0 .114-.005.173-.015l4.427-.771c.544-.095.908-.613.813-1.157-.094-.544-.603-.907-1.157-.814z"/></g></g></g></g></svg>