<svg id="Layer_1" enable-background="new 0 0 128 128" height="512" viewBox="0 0 128 128" width="512" xmlns="http://www.w3.org/2000/svg"><g><g><path d="m96.984 84.204v-52c0-12.44-10.121-22.561-22.561-22.561h-16.847c-12.439 0-22.561 10.121-22.561 22.561v52c-3.293 4.835-5.202 10.683-5.202 16.979v18.173c0 1.654 1.346 3 3 3h66.373c1.654 0 3-1.346 3-3v-18.173c0-6.296-1.909-12.144-5.202-16.979z" fill="#e6e7e8"/></g><g><path d="m53.128 68.255v-3.346c2.724 1.165 5.721 1.815 8.872 1.815s6.148-.649 8.872-1.815v3.346c8.74.82 16.354 5.51 21.113 12.338v-52.389c0-11.908-9.653-21.561-21.561-21.561h-16.848c-11.908 0-21.561 9.653-21.561 21.561v52.388c4.759-6.827 12.373-11.517 21.113-12.337z" fill="#fa759e"/><g><path d="m70.872 68.255v-3.346c-2.724 1.165-5.721 1.815-8.872 1.815s-6.148-.649-8.872-1.815v3.346c-14.761 1.384-26.314 13.805-26.314 28.929v18.173c0 1.105.896 2 2 2h66.373c1.105 0 2-.895 2-2v-18.173c-.001-15.124-11.554-27.545-26.315-28.929z" fill="#fff"/></g><g><path d="m83.211 117.356v-19.581c0-6.594-5.345-11.939-11.939-11.939-3.745 0-7.083 1.727-9.272 4.424-2.189-2.697-5.527-4.424-9.272-4.424-6.594 0-11.939 5.345-11.939 11.939v19.582h42.422z" fill="#6dc9f7"/></g><g><path d="m71.272 85.836c-3.745 0-7.083 1.727-9.272 4.424-2.189-2.697-5.527-4.424-9.272-4.424-6.594 0-11.939 5.345-11.939 11.939v3c0-6.594 5.345-11.939 11.939-11.939 3.745 0 7.083 1.727 9.272 4.424 2.189-2.697 5.527-4.424 9.272-4.424 6.594 0 11.938 5.345 11.938 11.939v-3c0-6.594-5.344-11.939-11.938-11.939z" fill="#fff"/></g><path d="m64.065 17.891c-.635 0-3.494 0-4.13 0-7.572 0-13.709 6.138-13.709 13.709v28.703c4.074 3.97 9.637 6.419 15.774 6.419s11.7-2.449 15.774-6.419v-28.703c0-7.571-6.138-13.709-13.709-13.709z" fill="#fff"/><g><g><path d="m53 52.013c-.553 0-1-.448-1-1v-8.638c0-.552.447-1 1-1s1 .448 1 1v8.638c0 .552-.447 1-1 1z" fill="#fa759e"/></g><g><path d="m71 52.013c-.553 0-1-.448-1-1v-8.638c0-.552.447-1 1-1s1 .448 1 1v8.638c0 .552-.447 1-1 1z" fill="#fa759e"/></g></g><g fill="#ffd7e5"><path d="m74.894 45.505c-1.109 0-2.008.567-2.008 1.266s.899 1.266 2.008 1.266 2.008-.567 2.008-1.266-.899-1.266-2.008-1.266z"/><path d="m49.106 45.224c-1.109 0-2.008.567-2.008 1.266s.899 1.266 2.008 1.266 2.008-.567 2.008-1.266-.899-1.266-2.008-1.266z"/></g><g><path d="m62 57.921c-3.443 0-5.195-2.373-5.268-2.474-.323-.448-.223-1.073.226-1.396.447-.322 1.068-.222 1.393.221.06.081 1.269 1.649 3.649 1.649 2.372 0 3.647-1.646 3.66-1.663.332-.439.959-.528 1.401-.193.439.333.526.961.192 1.401-.075.1-1.898 2.455-5.253 2.455z" fill="#fa759e"/></g><g><path d="m46.226 31.6c0-7.572 6.138-13.709 13.709-13.709.635 0 1.585-.002 2.065-.002-2.491-3.435-6.723-5.533-11.291-5.533-7.571-.001-13.709 6.137-13.709 13.709v25.458c0 5.095 4.13 9.226 9.226 9.226z" fill="#fa759e"/><g><path d="m77.774 31.6c0-7.572-6.138-13.709-13.709-13.709-.635 0-1.585-.002-2.065-.002 2.491-3.435 6.723-5.533 11.291-5.533 7.571-.001 13.709 6.137 13.709 13.709v25.458c0 5.095-4.13 9.226-9.226 9.226z" fill="#fa759e"/><g fill="#3a2c60"><path d="m76 116.356h-5.375c-.553 0-1 .448-1 1s.447 1 1 1h5.375c.553 0 1-.448 1-1s-.447-1-1-1z"/><path d="m92.984 80.205v-52.001c0-12.44-10.121-22.561-22.561-22.561h-16.847c-12.439 0-22.561 10.121-22.561 22.561v52.001c-3.293 4.835-5.202 10.683-5.202 16.979v18.173c0 1.654 1.346 3 3 3h38.187c.553 0 1-.448 1-1s-.447-1-1-1h-25.211v-18.583c0-6.031 4.907-10.938 10.938-10.938 3.309 0 6.405 1.478 8.496 4.054.379.469 1.174.469 1.553 0 2.091-2.577 5.187-4.054 8.495-4.054 6.032 0 10.939 4.907 10.939 10.938v18.582h-2.21c-.553 0-1 .448-1 1s.447 1 1 1h15.187c1.654 0 3-1.346 3-3v-18.172c0-6.297-1.91-12.145-5.203-16.979zm-59.968-52.001c0-11.337 9.224-20.561 20.561-20.561h16.848c11.337 0 20.561 9.224 20.561 20.561v49.39c-4.714-5.506-11.412-9.285-19.112-10.236v-1.821c2.093-.966 4.043-2.243 5.801-3.81.035.004.066.021.102.021 5.636 0 10.223-4.587 10.223-10.226v-25.458c0-8.111-6.599-14.709-14.71-14.709-4.425 0-8.545 1.845-11.29 4.967-2.745-3.122-6.866-4.967-11.291-4.967-8.11 0-14.709 6.599-14.709 14.709v25.458c0 5.638 4.587 10.226 10.226 10.226.036 0 .067-.017.102-.021 1.758 1.566 3.708 2.843 5.801 3.81v1.821c-7.7.952-14.398 4.731-19.112 10.236v-49.39zm14.21 31.672v-28.276c0-7.008 5.702-12.709 12.71-12.709l2.064-.003 2.064.002c7.008 0 12.71 5.702 12.71 12.709v28.276c-4.021 3.775-9.252 5.848-14.774 5.848s-10.753-2.073-14.774-5.847zm-2-.188c-4.066-.496-7.226-3.968-7.226-8.166v-25.458c0-7.008 5.701-12.709 12.709-12.709 3.484 0 6.753 1.294 9.098 3.536-8.053.07-14.581 6.641-14.581 14.709zm33.548-28.088c0-8.068-6.528-14.639-14.581-14.709 2.345-2.242 5.613-3.536 9.098-3.536 7.008 0 12.709 5.702 12.709 12.709v25.458c0 4.197-3.16 7.67-7.226 8.165zm17.413 83.756c0 .551-.448 1-1 1h-10.976v-18.582-6.818c0-2.726.797-5.373 2.304-7.655.305-.461.178-1.081-.283-1.386-.458-.304-1.08-.179-1.385.283-1.714 2.594-2.623 5.601-2.634 8.7-2.293-3.635-6.335-6.063-10.942-6.063-3.522 0-6.841 1.416-9.271 3.919-2.431-2.504-5.749-3.919-9.272-3.919-4.607 0-8.648 2.427-10.941 6.063-.011-3.1-.921-6.107-2.635-8.7-.305-.462-.926-.587-1.386-.283s-.587.925-.282 1.385c1.508 2.281 2.305 4.928 2.305 7.655v6.818 18.582h-10.975c-.552 0-1-.449-1-1v-18.171c0-14.565 10.923-26.574 25.408-27.933.514-.048.906-.479.906-.996v-1.904c2.501.885 5.149 1.372 7.872 1.372s5.371-.487 7.872-1.372v1.904c0 .516.393.947.906.996 14.485 1.359 25.408 13.368 25.408 27.933v18.172z"/><path d="m50.921 113.896c.161.096.338.142.513.142.34 0 .672-.173.859-.486l.473-.791.609.684c.197.222.472.335.747.335.236 0 .475-.083.665-.253.412-.367.449-.999.082-1.412l-1.026-1.154.786-1.313c.283-.474.129-1.088-.345-1.372-.474-.283-1.088-.129-1.372.344l-.463.774-1.98-2.225 1.29-1.532c.356-.422.302-1.053-.121-1.409s-1.055-.3-1.408.121l-1.103 1.311-1.45-1.63c-.367-.413-1.001-.45-1.412-.083-.412.367-.449.999-.082 1.412l1.643 1.847-1.623 1.928c-.356.422-.302 1.053.121 1.409.188.158.416.235.643.235.285 0 .568-.121.766-.356l1.437-1.706 2.204 2.478-.796 1.33c-.285.475-.131 1.088.343 1.372z"/><path d="m77.787 93.948c-.413-.367-1.046-.331-1.412.083l-1.451 1.631-1.104-1.311c-.354-.422-.985-.478-1.408-.121-.423.356-.478.987-.121 1.409l1.29 1.532-1.979 2.225-.463-.774c-.284-.474-.898-.627-1.372-.344-.474.284-.628.897-.345 1.372l.786 1.313-1.026 1.154c-.367.413-.33 1.044.082 1.412.19.169.429.253.665.253.275 0 .55-.113.747-.335l.609-.684.473.791c.188.313.52.486.859.486.175 0 .352-.046.513-.142.474-.284.628-.897.345-1.372l-.796-1.33 2.204-2.477 1.436 1.706c.197.235.48.356.766.356.227 0 .455-.077.643-.235.423-.356.478-.987.121-1.409l-1.622-1.927 1.644-1.848c.365-.415.328-1.047-.084-1.414z"/><path d="m52.026 38.689c-1.249 0-2.261 1.012-2.261 2.261s1.012 2.261 2.261 2.261 2.261-1.012 2.261-2.261-1.013-2.261-2.261-2.261z"/><path d="m71.974 38.689c-1.249 0-2.261 1.012-2.261 2.261s1.012 2.261 2.261 2.261 2.261-1.012 2.261-2.261-1.012-2.261-2.261-2.261z"/><path d="m65.571 48.442v-1.507c0-.552-.447-1-1-1s-1 .448-1 1v1.507c0 .866-.705 1.571-1.571 1.571s-1.571-.705-1.571-1.571v-1.507c0-.552-.447-1-1-1s-1 .448-1 1v1.507c0 1.969 1.603 3.571 3.571 3.571s3.571-1.602 3.571-3.571z"/><path d="m70.427 37.586c.151 0 .305-.034.448-.107l4.427-2.229c.494-.248.692-.85.444-1.343-.249-.494-.852-.692-1.343-.443l-4.427 2.229c-.494.248-.692.85-.444 1.343.176.349.529.55.895.55z"/><path d="m54.023 35.693-4.427-2.229c-.491-.249-1.095-.051-1.343.443-.248.493-.05 1.095.444 1.343l4.427 2.229c.144.073.297.107.448.107.366 0 .719-.201.895-.55.249-.493.051-1.095-.444-1.343z"/></g></g></g></g></g></svg>