<svg id="Layer_1" enable-background="new 0 0 128 128" height="512" viewBox="0 0 128 128" width="512" xmlns="http://www.w3.org/2000/svg"><g><g><path d="m107.582 17.298c-.087-.475-.501-.819-.983-.819h-48.999c-.475 0-.885.334-.979.8-1.228 6-7.212 36.116-4.504 39.709 1.239 1.646 4.639.559 7.188-.589-.672 2.407-1.691 6.464-2.244 10.661-.404 3.066-1.273 14.205.496 15.153 1.125.603 4.043-.08 7.116-1.106-2.363 4.277-5.961 9.148-11.058 12.002-5.287 2.961-11.671 2.42-17.304 1.94-3.254-.277-6.254-.529-8.529.023-1.879.101-4.401.507-5.65 1.368-.856.591-1.036 1.281-1.036 1.755 0 .706.37 1.725 2.13 2.571.07.034.152.066.227.099-.058 1.419.265 2.82.98 4.147 2.383 4.417 8.853 7.891 18.22 9.779 2.553.515 4.943.731 7.2.731 6.512 0 11.901-1.804 16.802-3.445 2.512-.841 4.884-1.635 7.145-2.077 2.626-.513 5.888.194 9.34.945 6.849 1.489 14.612 3.178 20.478-4 3.963-4.85.418-13.035-2.43-19.611-.653-1.509-1.271-2.935-1.74-4.189-.445-1.192-.794-2.319-1.072-3.366 4.712.929 5.059.668 5.355.444 1.349-1.023 1.389-10.857 1.108-14.828-.249-3.534-.897-6.885-1.384-9.026 2.013 1.045 4.534 1.88 5.708.356 4.447-5.782-.951-36.001-1.581-39.427z" fill="#e6e7e8"/></g><g><path d="m94.51 79.494c-.691-1.849-1.162-3.551-1.486-5.028-4.005-.843-8.5-1.911-8.5-1.911s-6.065 8.897-8.438 8.909c-2.445.012-8.09-8.292-8.09-8.292s-2.409 1.051-5.245 2.114c-2.327 4.821-6.38 11.186-12.647 14.695-8.787 4.921-20.454.638-26.12 2.076.843-.042 1.495-.021 1.671.046.645.245.938 3.833 0 4.583-.559.447-3.131.226-5.122-.471-.842 5.846 5.898 11.091 18.319 13.595 13.491 2.72 22.573-3.191 30.756-4.792s20.86 7.543 29.235-2.707c4.435-5.43-1.864-16.211-4.333-22.817z" fill="#ffd7e5"/><g><g><path d="m98.527 89.213c1.117 3.885 1.379 7.571-.686 10.098-8.375 10.25-21.052 1.106-29.235 2.707s-17.265 7.512-30.756 4.792c-9.057-1.826-15.084-5.112-17.37-9.023.473 5.201 7.075 9.745 18.37 12.023 13.491 2.72 22.573-3.191 30.756-4.792s20.86 7.543 29.235-2.707c2.593-3.172 1.519-8.172-.314-13.098z" fill="#fff"/></g></g><g><path d="m53.6 13.479s-7.259 35.493-4.686 38.907c1.296 1.72 7.998-1.901 7.998-1.901s-2.01 6.242-2.861 12.704c-.894 6.789-.617 13.823-.022 14.142 1.988 1.067 13.966-4.159 13.966-4.159s5.645 8.304 8.09 8.292c2.374-.012 8.438-8.909 8.438-8.909s14 3.328 14.601 2.871c.5-.381 1.176-7.427.715-13.961-.409-5.792-1.935-11.18-1.935-11.18s5.197 3.475 6.463 1.83c4.306-5.595-1.771-38.636-1.771-38.636h-48.996z" fill="#fa759e"/></g><path d="m25.654 96.686c.938-.75.645-4.339 0-4.583-.645-.245-7.559.09-7.559 2.092.001 2.122 6.622 3.241 7.559 2.491z" fill="#fa759e"/><g fill="#3a2c60"><path d="m71.342 14.479h6.795c.553 0 1-.448 1-1s-.447-1-1-1h-6.795c-.553 0-1 .448-1 1s.447 1 1 1z"/><path d="m103.582 13.298c-.087-.475-.501-.819-.983-.819h-20.257c-.553 0-1 .448-1 1s.447 1 1 1h19.422c2.362 13.14 4.711 33.26 1.812 37.027-.366.354-2.854-.543-5.114-2.053-.348-.232-.806-.225-1.144.023-.339.247-.488.678-.374 1.081.015.053 1.503 5.363 1.9 10.978.397 5.658-.081 11.232-.422 12.909-1.884-.204-8.085-1.535-13.666-2.861-.405-.097-.824.067-1.058.409-3.054 4.479-6.613 8.438-7.617 8.473-.001 0-.001 0-.002 0-1.02 0-4.409-3.668-7.256-7.855-.271-.398-.79-.546-1.227-.354-5.11 2.229-11.243 4.352-12.85 4.24-.313-1.452-.501-7.115.296-13.176.829-6.293 2.802-12.467 2.822-12.528.125-.389.001-.814-.313-1.076s-.755-.306-1.114-.111c-2.881 1.557-6.155 2.608-6.725 2.179-1.418-1.881 1.258-20.293 4.704-37.305h12.599c.553 0 1-.448 1-1s-.447-1-1-1h-13.415c-.475 0-.885.334-.979.8-1.228 6-7.212 36.116-4.504 39.709 1.239 1.645 4.639.56 7.188-.589-.672 2.407-1.691 6.464-2.244 10.661-.404 3.066-1.274 14.204.496 15.153 1.127.604 4.049-.082 7.126-1.109-2.344 4.243-5.944 9.136-11.068 12.005-5.286 2.961-11.671 2.419-17.304 1.94-3.245-.275-6.237-.526-8.508.021-1.881.099-4.417.504-5.671 1.37-.856.591-1.036 1.281-1.036 1.755 0 .706.37 1.725 2.13 2.571.074.035.16.069.239.104-.058 1.417.254 2.817.968 4.142 2.382 4.417 8.853 7.89 18.22 9.779 2.553.515 4.944.731 7.201.731 6.512 0 11.899-1.803 16.801-3.444 2.512-.841 4.884-1.635 7.145-2.077 2.626-.512 5.888.194 9.34.945 6.85 1.489 14.613 3.177 20.478-4 3.963-4.85.418-13.035-2.43-19.611-.653-1.509-1.271-2.935-1.74-4.189-.413-1.104-.751-2.231-1.052-3.362 4.692.925 5.041.664 5.336.439 1.247-.949 1.429-10.27 1.107-14.827-.249-3.534-.897-6.885-1.384-9.026 2.013 1.044 4.533 1.88 5.708.356 4.447-5.783-.951-36.002-1.581-39.428zm-84.495 80.952c-.001 0-.002 0-.003.001.421-.784 4.609-1.356 5.998-1.24.221.69.245 2.38-.04 2.863-.771.193-3.979-.195-5.488-1.215-.352-.238-.446-.409-.467-.409zm74.486-14.406c.487 1.303 1.114 2.75 1.777 4.283 2.633 6.079 5.909 13.644 2.717 17.551-5.089 6.228-11.907 4.746-18.504 3.312-3.66-.796-7.115-1.546-10.149-.954-2.388.467-4.82 1.281-7.395 2.144-6.362 2.13-13.574 4.544-22.971 2.649-8.646-1.743-14.79-4.939-16.855-8.767-.445-.826-.681-1.673-.731-2.535.969.237 2.001.392 2.888.392.829 0 1.529-.133 1.928-.452 1.361-1.089.896-4.159.875-4.289-.025-.159-.063-.286-.095-.425 1.432 0 3.122.122 5.082.289 5.626.478 12.628 1.072 18.451-2.188 6.347-3.554 10.475-9.899 12.866-14.745 1.557-.592 3.028-1.199 4.181-1.693 1.788 2.55 5.936 8.049 8.443 8.049h.008c2.453-.012 6.764-5.749 8.869-8.778 3.001.71 5.374 1.246 7.256 1.648.363 1.516.806 3.031 1.359 4.509z"/><path d="m83.235 59.013c-.517.197-.774.775-.578 1.291.676 1.769 2.483 5.882 4.685 5.882 2.379 0 3.192-4.586 3.432-6.558.066-.548-.324-1.047-.873-1.113-.55-.063-1.047.324-1.113.872-.269 2.216-1.004 4.554-1.433 4.8-.591-.104-1.965-2.338-2.828-4.597-.198-.516-.779-.774-1.292-.577z"/><path d="m90.987 21.417c-.553-.067-1.047.324-1.113.872-.269 2.216-1.004 4.554-1.433 4.799-.591-.104-1.965-2.338-2.828-4.597-.197-.517-.777-.773-1.291-.577-.517.197-.774.775-.578 1.291.676 1.769 2.483 5.882 4.685 5.882 2.379 0 3.192-4.586 3.432-6.557.066-.549-.325-1.047-.874-1.113z"/><path d="m96.54 44.255c2.379 0 3.192-4.586 3.432-6.558.066-.548-.324-1.047-.873-1.113-.552-.069-1.047.324-1.113.872-.269 2.216-1.004 4.554-1.433 4.8-.591-.104-1.965-2.338-2.828-4.597-.197-.517-.778-.773-1.291-.577-.517.197-.774.775-.578 1.291.675 1.768 2.483 5.882 4.684 5.882z"/><path d="m78.657 41.737c-.497 2.206-1.48 4.463-1.939 4.647-.558-.2-1.667-2.444-2.327-4.708-.153-.529-.709-.837-1.239-.68-.53.154-.835.709-.681 1.239.668 2.294 2.101 6.142 4.195 6.142 2.302 0 3.524-4.337 3.942-6.202.121-.539-.218-1.074-.756-1.195-.543-.121-1.074.219-1.195.757z"/><path d="m66.428 63.891c-.508-.256-1.243-2.595-1.514-4.812-.067-.548-.57-.937-1.113-.872-.548.067-.938.565-.872 1.113.239 1.972 1.052 6.558 3.432 6.558 2.201 0 4.009-4.114 4.685-5.882.196-.516-.062-1.093-.578-1.291-.513-.197-1.094.061-1.291.577-.865 2.259-2.239 4.493-2.749 4.609z"/><path d="m67.219 20.937c-.863 2.258-2.238 4.492-2.749 4.608-.507-.256-1.243-2.595-1.513-4.812-.067-.549-.566-.94-1.113-.872-.548.067-.938.565-.872 1.113.239 1.972 1.052 6.558 3.431 6.558 2.202 0 4.009-4.114 4.685-5.882.196-.516-.062-1.093-.578-1.291-.513-.194-1.094.061-1.291.578z"/><path d="m62.321 37.082c-.519-.199-1.094.061-1.291.577-.864 2.258-2.238 4.492-2.749 4.608-.507-.256-1.243-2.595-1.514-4.812-.067-.549-.567-.94-1.113-.872-.548.067-.938.565-.872 1.113.239 1.972 1.053 6.558 3.432 6.558 2.201 0 4.009-4.114 4.684-5.882.198-.515-.061-1.093-.577-1.29z"/></g></g></g></svg>