<svg id="Layer_1" enable-background="new 0 0 128 128" height="512" viewBox="0 0 128 128" width="512" xmlns="http://www.w3.org/2000/svg"><g><g><path d="m108.437 69.581c0-4.592-1.79-8.962-5.101-12.818 2.329-1.924 6.476-5.95 8.354-11.514.395-1.17.76-2.706 1.148-4.332.572-2.406 1.221-5.132 1.962-6.466 1.045-1.88 2.086-3.356 2.922-4.542 1.436-2.037 2.384-3.382 1.348-4.546-1.79-2.013-13.516-1.143-20.42.986-5.439 1.677-9.878 4.215-12.595 6.004-1.179-1.917-2.495-3.657-3.925-5.195-.048-6.539-5.461-11.761-6.59-12.088-.383-.112-.868-.002-1.157.271-.56.526-.42 1.151-.164 2.286.208.925.519 2.338.606 3.98-2.721-1.339-5.631-2.068-8.636-2.068s-5.915.728-8.636 2.068c.087-1.642.399-3.055.606-3.98.255-1.134.396-1.76-.164-2.286-.29-.272-.774-.381-1.157-.272-1.13.328-6.543 5.55-6.591 12.089-1.43 1.538-2.746 3.278-3.925 5.195-2.717-1.789-7.155-4.327-12.595-6.004-6.905-2.128-18.632-2.997-20.42-.986-1.036 1.165-.088 2.51 1.348 4.546.836 1.186 1.876 2.663 2.922 4.542.742 1.334 1.39 4.06 1.962 6.466.387 1.626.753 3.162 1.148 4.332 1.878 5.564 6.025 9.59 8.354 11.514-3.311 3.855-5.101 8.226-5.101 12.818 0 3.978 1.388 7.752 3.857 11.149-8.382 8.706-13.434 20.182-13.434 32.454 0 .29.003.578.01.866.042 1.822 1.562 3.305 3.387 3.305h96.857c1.825 0 3.344-1.483 3.387-3.305.007-.288.01-.577.01-.866 0-12.272-5.051-23.747-13.434-32.454 2.468-3.397 3.857-7.171 3.857-11.149z" fill="#e6e7e8"/></g><g><g><g><path d="m61.681 90.705c-12.051 0-22.89-3.231-30.411-8.379-3.494 7.305-5.523 15.95-5.523 25.224 0 1.406.056 2.795.147 4.171h71.575c.091-1.375.147-2.764.147-4.171 0-9.274-2.029-17.919-5.523-25.224-7.522 5.148-18.362 8.379-30.412 8.379z" fill="#ffd7e5"/></g><g><g><path d="m31.264 82.323c-2.622-1.795-4.838-3.825-6.564-6.031-8.504 8.469-13.718 19.854-13.718 32.385 0 .281.004.56.01.839.029 1.226 1.034 2.204 2.26 2.204h12.641c-.091-1.375-.147-2.764-.147-4.171.001-9.273 2.024-17.922 5.518-25.226z" fill="#fa759e"/></g><g><path d="m98.661 76.292c-1.726 2.206-3.941 4.235-6.564 6.031 3.494 7.304 5.517 15.953 5.517 25.228 0 1.406-.056 2.795-.147 4.171h12.641c1.226 0 2.232-.979 2.26-2.204.007-.279.01-.559.01-.839.002-12.533-5.213-23.918-13.717-32.387z" fill="#fa759e"/></g></g></g><g><g><g><path d="m113.721 21.605c-1.054-1.185-11.473-1.082-19.247 1.314-5.988 1.846-10.783 4.798-13.264 6.519 2.447 4.312 4.202 9.449 5.02 15.073 4.416 2.051 8.148 4.643 10.946 7.617 1.785-1.348 6.867-5.603 8.94-11.745.988-2.927 1.868-8.603 3.192-10.985 2.581-4.642 5.17-6.941 4.413-7.793z" fill="#6dc9f7"/></g><g><path d="m86.23 44.511c.491.228.966.468 1.439.709.6-5.263 4.242-11.488 10.185-16.471 5.165-4.33 10.956-6.795 15.855-7.153-1.101-1.175-11.481-1.066-19.234 1.323-5.988 1.846-10.783 4.798-13.264 6.519 2.446 4.312 4.201 9.449 5.019 15.073z" fill="#0089ef"/></g></g><g><g><path d="m26.186 52.127c2.799-2.974 6.53-5.565 10.946-7.617.818-5.624 2.573-10.761 5.02-15.073-2.482-1.721-7.277-4.673-13.264-6.519-7.774-2.396-18.193-2.5-19.247-1.314-.757.852 1.832 3.151 4.413 7.793 1.324 2.382 2.204 8.058 3.192 10.985 2.072 6.142 7.155 10.397 8.94 11.745z" fill="#6dc9f7"/></g><g><path d="m35.693 45.22c.473-.241.948-.481 1.439-.709.818-5.624 2.573-10.761 5.02-15.073-2.482-1.721-7.277-4.673-13.264-6.519-7.753-2.39-18.133-2.499-19.234-1.323 4.899.358 10.69 2.824 15.855 7.153 5.942 4.983 9.584 11.207 10.184 16.471z" fill="#0089ef"/></g></g></g><g><path d="m86.23 44.511c-2.354-16.184-12.45-28.351-24.549-28.351s-22.195 12.166-24.549 28.351c-10.059 4.673-16.574 12.144-16.574 20.564 0 14.156 18.411 25.631 41.122 25.631s41.122-11.475 41.122-25.631c.001-8.421-6.514-15.892-16.572-20.564z" fill="#d4fbff"/></g><g><g><path d="m61.681 19.539c8.312 0 15.761 4.783 20.798 12.339-4.503-9.481-12.136-15.719-20.798-15.719s-16.295 6.238-20.798 15.719c5.037-7.556 12.486-12.339 20.798-12.339z" fill="#fff"/></g></g><g fill="#0089ef"><path d="m70.436 23.306c-.141.331-.291.655-.449.97-.643 1.288.083 2.831 1.5 3.083l2.134.38c1.101.196 2.187-.491 2.434-1.582.173-.763.308-1.546.389-2.342.683-6.695-5.098-11.988-5.727-12.17-.68-.199 2.223 5.774-.281 11.661z"/><path d="m52.926 23.306c.141.331.291.655.449.97.643 1.288-.083 2.831-1.5 3.083l-2.134.38c-1.101.196-2.187-.491-2.434-1.582-.173-.763-.308-1.546-.389-2.342-.683-6.695 5.098-11.988 5.727-12.17.679-.199-2.224 5.774.281 11.661z"/></g><g fill="#fff"><path d="m71.128 67.425c.19 2.78.659 6.215 1.819 6.215 1.543 0 1.929-6.08 2.023-8.606-1.021.799-2.308 1.645-3.842 2.391z"/><path d="m49.012 64.871c.057 2.418.357 8.769 1.934 8.769 1.172 0 1.676-3.506 1.892-6.3-1.558-.777-2.831-1.654-3.826-2.469z"/></g><g fill="#3a2c60"><path d="m44.003 110.721h-6.357c-.552 0-1 .448-1 1s.448 1 1 1h6.357c.552 0 1-.448 1-1s-.447-1-1-1z"/><path d="m103.804 65.074c0-4.6-1.809-8.978-5.155-12.835 2.388-1.957 6.541-5.981 8.415-11.538.393-1.164.758-2.697 1.144-4.32.574-2.414 1.225-5.149 1.975-6.499 1.048-1.886 2.091-3.365 2.929-4.554 1.4-1.987 2.326-3.3 1.357-4.389-1.603-1.804-12.98-1.229-20.289 1.023-5.512 1.699-10.048 4.333-12.671 6.066-1.203-1.971-2.548-3.761-4.015-5.332-.019-6.496-5.379-11.688-6.497-12.014-.34-.098-.778 0-1.036.243-.507.477-.38 1.041-.127 2.166.219.971.555 2.473.624 4.22-2.76-1.393-5.719-2.153-8.777-2.153s-6.017.759-8.778 2.153c.069-1.747.406-3.249.624-4.22.252-1.125.379-1.689-.127-2.166-.258-.243-.696-.343-1.036-.242-1.118.326-6.477 5.519-6.497 12.014-1.467 1.571-2.811 3.361-4.014 5.332-2.623-1.733-7.158-4.367-12.671-6.066-7.308-2.252-18.686-2.825-20.289-1.023-.969 1.09-.043 2.403 1.357 4.39.838 1.188 1.881 2.668 2.929 4.554.75 1.35 1.401 4.085 1.976 6.499.386 1.623.75 3.155 1.144 4.319 1.875 5.556 6.027 9.58 8.415 11.537-3.346 3.857-5.155 8.235-5.155 12.835 0 3.966 1.388 7.728 3.858 11.113-8.663 8.919-13.435 20.419-13.435 32.49 0 .289.003.577.011.862.041 1.754 1.503 3.182 3.26 3.182h12.641 7.434c.552 0 1-.448 1-1s-.448-1-1-1h-6.483c-.059-1.106-.097-2.164-.097-3.17 0-8.416 1.728-16.605 4.971-23.781 7.424 4.755 17.648 7.752 28.963 7.92v19.032h-12.38c-.552 0-1 .448-1 1s.448 1 1 1h61.807c1.757 0 3.219-1.427 3.26-3.182.007-.287.01-.574.01-.862 0-12.07-4.771-23.57-13.434-32.49 2.47-3.385 3.859-7.148 3.859-11.114zm4.63-36.162c-.884 1.59-1.539 4.344-2.172 7.007-.375 1.577-.729 3.066-1.093 4.143-1.761 5.217-5.883 9.072-7.889 10.71-2.293-2.277-5.154-4.34-8.529-6.12.825-5.065 4.417-10.671 9.744-15.137 4.388-3.679 9.393-6.079 13.946-6.754-.269.424-.625.933-.965 1.416-.864 1.228-1.941 2.755-3.042 4.735zm-13.665-5.037c4.396-1.355 9.371-1.912 13.029-2.01-3.609 1.249-7.275 3.341-10.587 6.119-5.275 4.423-8.967 9.955-10.195 15.15-.849-4.946-2.404-9.47-4.505-13.368 2.502-1.664 6.903-4.241 12.258-5.891zm-19.319-.162c-.073.715-.197 1.463-.369 2.222-.126.555-.708.923-1.284.819l-2.134-.379c-.472-.084-.696-.403-.788-.585-.167-.333-.165-.723.007-1.067.167-.334.325-.675.474-1.025 1.483-3.488 1.208-6.949.786-9.316 1.642 1.991 3.708 5.41 3.308 9.331zm-24.231-9.331c-.421 2.367-.697 5.828.786 9.315.149.35.307.691.474 1.025.172.345.175.734.007 1.067-.092.182-.316.5-.788.585l-2.133.379c-.583.104-1.159-.264-1.284-.82-.172-.758-.296-1.505-.37-2.222-.399-3.918 1.666-7.337 3.308-9.329zm-10.369 15.383c-2.1 3.898-3.656 8.422-4.505 13.368-1.228-5.194-4.92-10.727-10.195-15.149-3.302-2.768-6.954-4.857-10.55-6.107 3.665.092 8.617.65 12.993 1.999 5.356 1.65 9.756 4.226 12.257 5.889zm-22.657 10.297c-.363-1.077-.717-2.566-1.093-4.143-.633-2.664-1.289-5.418-2.173-7.008-1.101-1.979-2.177-3.507-3.042-4.734-.34-.482-.696-.992-.966-1.416 4.554.674 9.558 3.075 13.947 6.754 5.327 4.466 8.92 10.072 9.744 15.137-3.375 1.781-6.237 3.844-8.529 6.12-2.005-1.638-6.128-5.493-7.888-10.71zm17.99 6.032c.007-.004.014-.006.021-.01.444-.226.888-.452 1.35-.666.306-.142.52-.429.568-.763 1.122-7.715 4.041-14.376 8.023-19.224.057.314.114.629.186.947.322 1.425 1.594 2.396 3.025 2.396.184 0 .372-.016.56-.05l2.134-.379c.972-.173 1.783-.776 2.225-1.656.454-.902.452-1.944-.005-2.859-.148-.298-.29-.603-.423-.916-.483-1.135-.743-2.279-.865-3.38 2.719-1.53 5.657-2.375 8.701-2.375s5.982.845 8.7 2.375c-.122 1.101-.383 2.245-.865 3.38-.133.313-.275.618-.423.916-.457.915-.458 1.957-.005 2.859.442.879 1.253 1.483 2.225 1.656l2.134.379c.188.034.375.05.559.05 1.43 0 2.703-.971 3.025-2.396.072-.318.129-.633.186-.947 3.982 4.849 6.901 11.509 8.023 19.224.049.334.262.621.568.763 10.016 4.653 15.996 12.001 15.996 19.657 0 13.582-17.999 24.631-40.123 24.631s-40.123-11.05-40.123-24.631c-.002-7.298 5.44-14.311 14.623-18.981zm-11.436 61.457c0 1.016.028 2.062.085 3.17h-11.58c-.679 0-1.245-.551-1.261-1.229-.006-.271-.01-.542-.01-.815 0-11.459 4.503-22.386 12.683-30.903 1.504 1.745 3.315 3.368 5.374 4.85-3.454 7.51-5.291 16.103-5.291 24.927zm37.934-15.861c11.315-.168 21.539-3.165 28.963-7.92 3.243 7.177 4.971 15.365 4.971 23.781 0 1.009-.038 2.067-.097 3.17h-33.837zm48.699 16.987c0 .273-.003.545-.009.816-.016.677-.582 1.228-1.261 1.228h-11.58c.058-1.107.086-2.152.086-3.17 0-8.823-1.838-17.416-5.292-24.926 2.059-1.482 3.87-3.105 5.374-4.85 8.179 8.516 12.682 19.444 12.682 30.902z"/><path d="m50.443 43.232c-1.407 0-2.547 1.14-2.547 2.547s1.14 2.547 2.547 2.547 2.547-1.14 2.547-2.547c.001-1.406-1.14-2.547-2.547-2.547z"/><path d="m70.371 45.779c0 1.407 1.14 2.547 2.547 2.547s2.547-1.14 2.547-2.547-1.14-2.547-2.547-2.547-2.547 1.141-2.547 2.547z"/><path d="m62.13 58.117c2.149 0 3.897-1.748 3.897-3.897v-1.698c0-.552-.448-1-1-1s-1 .448-1 1v1.698c0 1.046-.851 1.897-1.897 1.897s-1.896-.851-1.896-1.897v-1.698c0-.552-.448-1-1-1s-1 .448-1 1v1.698c0 2.149 1.748 3.897 3.896 3.897z"/><path d="m71.002 40.721 4.988.869c.058.01.116.015.173.015.477 0 .899-.342.984-.828.095-.544-.27-1.062-.813-1.157l-4.988-.869c-.546-.09-1.062.271-1.157.813-.095.544.269 1.062.813 1.157z"/><path d="m47.199 41.605c.057 0 .115-.005.173-.015l4.988-.869c.544-.095.908-.613.813-1.157-.095-.543-.607-.904-1.157-.813l-4.988.869c-.544.095-.908.613-.813 1.157.085.486.507.828.984.828z"/><path d="m48.027 65.373c.278 9.26 2.057 9.267 2.919 9.267 1.491 0 2.317-1.706 2.756-5.792 2.313.958 5.115 1.645 8.428 1.645 3.147 0 5.85-.653 8.12-1.571.399 4.033 1.208 5.718 2.696 5.718 1.293 0 2.652-1.11 3-9.094 1.725-1.414 2.661-2.613 2.754-2.735.333-.44.247-1.067-.193-1.401-.441-.336-1.069-.247-1.401.193-.052.069-5.332 6.891-14.976 6.891-9.845 0-14.913-6.805-14.963-6.874-.323-.445-.947-.546-1.395-.224-.448.323-.549.948-.226 1.396.086.118.909 1.234 2.481 2.581zm24.928 6.967c-.221-.51-.562-1.687-.778-4.304.604-.316 1.16-.645 1.681-.98-.21 2.878-.587 4.567-.903 5.284zm-22.008.001c-.313-.731-.676-2.462-.85-5.414.518.344 1.082.681 1.688 1.008-.247 2.694-.609 3.892-.838 4.406z"/><path d="m66.342 97.833c.933 0 1.69-.757 1.69-1.69s-.757-1.69-1.69-1.69-1.69.757-1.69 1.69.756 1.69 1.69 1.69z"/><circle cx="66.342" cy="106.283" r="1.69"/></g></g></g></svg>