<svg id="Layer_1" enable-background="new 0 0 128 128" height="512" viewBox="0 0 128 128" width="512" xmlns="http://www.w3.org/2000/svg"><g><g><g><path d="m98.02 116.808c-2.507-.719-4.311-2.599-5.584-4.586 8.8-6.453 14.564-15.87 14.564-25.973 0-4.688-1.296-9.243-3.713-13.393 1.181-2.922 3.946-11.27-.937-15.621-4.068-3.624-10.399-1.964-13.652-.738-.252-.868-.399-1.777-.399-2.715v-1.188h4.695c2.653 0 4.811-2.158 4.811-4.811s-2.158-4.811-4.811-4.811h-11.621c.211-.571.343-1.181.343-1.824 0-2.924-2.378-5.302-5.302-5.302s-5.302 2.378-5.302 5.302c0 .644.132 1.253.343 1.824h-32.45c-2.653 0-4.811 2.158-4.811 4.811s2.158 4.811 4.811 4.811h4.695v1.188c0 .938-.147 1.847-.398 2.715-3.252-1.226-9.584-2.887-13.652.739-4.883 4.351-2.117 12.699-.937 15.621-2.417 4.149-3.713 8.704-3.713 13.392 0 10.109 5.771 19.531 14.58 25.984-1.269 1.98-3.075 3.851-5.599 4.575-1.959.563-3.096 2.613-2.533 4.572.453 1.576 1.913 2.677 3.551 2.677.344 0 .687-.048 1.02-.144 4.677-1.342 7.811-4.588 9.864-7.84 6.024 3.012 12.922 4.775 20.117 4.775s14.093-1.763 20.117-4.775c2.053 3.252 5.187 6.497 9.864 7.839.333.096.677.145 1.021.145 1.638 0 3.099-1.101 3.552-2.677.272-.949.158-1.947-.32-2.811s-1.266-1.488-2.214-1.761zm-63.452-54.056c.517-.459 1.917-.462 3.568-.115-1.349.981-2.599 2.027-3.756 3.127-.225-1.514-.171-2.692.188-3.012zm63.052 3.012c-1.156-1.099-2.407-2.145-3.756-3.127 1.651-.347 3.052-.344 3.568.115.359.32.413 1.498.188 3.012z" fill="#e6e7e8"/></g><g><path d="m63.612 19.518c1.136.687 2.603.646 3.736-.105 1.086-.719 1.624-1.914 1.438-3.195-.079-.546-.586-.921-1.133-.847-.546.079-.926.586-.847 1.133.1.689-.311 1.074-.564 1.242-.493.327-1.119.35-1.597.061-.918-.555-1.684-2.034-1.708-3.298-.029-1.538.371-2.538 1.336-3.345 1.228-1.025 2.886-1.431 4.549-1.113 1.73.33 3.189 1.375 4.003 2.866 2.429 4.456-.378 7.684-3.35 11.103-1.589 1.828-3.233 3.718-3.983 5.801-.945 2.624-.895 5.823.148 9.51.125.44.526.728.962.728.09 0 .182-.013.273-.038.531-.151.84-.704.69-1.235-.928-3.276-.992-6.065-.191-8.288.624-1.731 2.074-3.399 3.611-5.167 3.136-3.607 6.691-7.696 3.597-13.372-1.101-2.02-3.063-3.432-5.384-3.874-2.255-.429-4.516.132-6.206 1.542-1.442 1.206-2.095 2.768-2.055 4.918.034 1.688.963 3.938 2.675 4.973z" fill="#e6e7e8"/></g><g><path d="m84.839 37.844c.252 0 .504-.095.698-.284 1.625-1.586 2.597-3.227 2.891-4.879.234-1.318-.048-2.755-.321-4.146-.563-2.863-.802-4.684 1.295-5.97.712-.437 1.594-.524 2.418-.239.787.273 1.393.848 1.663 1.578.2.543.127 1.023-.253 1.656-.293.487-.955.923-1.416.933-.003 0-.005 0-.008 0-.169 0-.306-.122-.367-.244-.084-.169-.006-.269.027-.312.341-.434.265-1.063-.169-1.404s-1.063-.266-1.404.169c-.552.703-.645 1.638-.243 2.441.42.84 1.289 1.363 2.208 1.349 1.292-.029 2.531-.979 3.086-1.903.692-1.154.828-2.258.415-3.378-.478-1.294-1.53-2.306-2.885-2.775-1.392-.481-2.892-.327-4.118.424-3.389 2.078-2.736 5.396-2.212 8.061.249 1.265.483 2.46.315 3.41-.219 1.232-.999 2.509-2.318 3.797-.396.386-.403 1.019-.018 1.414.196.202.456.302.716.302z" fill="#e6e7e8"/></g><g><path d="m41.72 28.289c1.042.016 1.989-.566 2.458-1.501.453-.905.353-1.917-.268-2.708-.34-.435-.97-.511-1.404-.17-.435.341-.511.969-.17 1.404.139.178.157.373.054.58-.101.203-.335.408-.624.398-.619-.014-1.467-.567-1.852-1.207-.488-.813-.58-1.434-.319-2.143.343-.927 1.109-1.656 2.104-2 1.039-.36 2.15-.249 3.051.303 2.56 1.569 2.326 3.815 1.635 7.328-.323 1.641-.657 3.339-.383 4.876.343 1.931 1.485 3.854 3.394 5.719.195.189.447.284.699.284.26 0 .52-.101.716-.301.386-.396.378-1.028-.017-1.415-1.604-1.566-2.554-3.126-2.823-4.637-.208-1.169.076-2.613.377-4.141.614-3.123 1.378-7.009-2.552-9.418-1.413-.867-3.146-1.045-4.75-.488-1.562.541-2.774 1.706-3.326 3.198-.471 1.277-.313 2.542.48 3.865.633 1.055 2.047 2.142 3.52 2.174z" fill="#e6e7e8"/></g><g><path d="m58.984 41.147c2.013 0 3.651-1.638 3.651-3.651s-1.638-3.651-3.651-3.651-3.651 1.638-3.651 3.651 1.638 3.651 3.651 3.651z" fill="#e6e7e8"/></g><g><path d="m71.112 29.2c0 1.623 1.321 2.944 2.944 2.944s2.944-1.321 2.944-2.944c0-1.624-1.321-2.944-2.944-2.944s-2.944 1.321-2.944 2.944z" fill="#e6e7e8"/></g><g><path d="m52.548 33.657c1.559 0 2.827-1.268 2.827-2.827s-1.268-2.827-2.827-2.827-2.827 1.268-2.827 2.827 1.268 2.827 2.827 2.827z" fill="#e6e7e8"/></g><g><path d="m87.889 39.147c0 1.559 1.268 2.827 2.827 2.827s2.827-1.268 2.827-2.827-1.268-2.827-2.827-2.827-2.827 1.268-2.827 2.827z" fill="#e6e7e8"/></g><g><path d="m40.397 41.733c1.623 0 2.944-1.321 2.944-2.944s-1.321-2.944-2.944-2.944c-1.624 0-2.944 1.321-2.944 2.944s1.32 2.944 2.944 2.944z" fill="#e6e7e8"/></g></g><g><path d="m75.636 39.971c.664-.757 1.08-1.738 1.08-2.824 0-2.376-1.926-4.302-4.302-4.302s-4.302 1.926-4.302 4.302c0 1.086.416 2.067 1.08 2.824z" fill="#fa759e"/><g><g><path d="m93.744 113.77c-3.133-.899-5.247-3.371-6.631-5.794-1.455 1.024-2.993 1.969-4.606 2.82 1.931 3.325 5.004 6.795 9.751 8.157.248.071.498.105.745.105 1.172 0 2.25-.77 2.59-1.953.409-1.432-.418-2.925-1.849-3.335z" fill="#6dc9f7"/></g><g><path d="m36.901 107.985c-1.379 2.416-3.493 4.881-6.645 5.785-1.431.411-2.259 1.904-1.848 3.335.34 1.183 1.418 1.953 2.59 1.953.246 0 .496-.034.745-.105 4.747-1.362 7.819-4.832 9.751-8.157-1.609-.849-3.142-1.791-4.593-2.811z" fill="#6dc9f7"/></g></g><g><g><path d="m87.582 58.242c2.437-.83 5.336-1.287 6.516-.237.942.839.747 3.352.128 5.783 1.514 1.604 2.847 3.319 3.951 5.137.957-2.235 4.181-10.781-.491-14.945-4.121-3.673-10.995-1.276-13.584-.171.716 1.76 1.904 3.304 3.48 4.433z" fill="#6dc9f7"/></g><g><path d="m29.775 63.788c-.619-2.431-.814-4.944.128-5.783 1.179-1.05 4.079-.593 6.516.237 1.576-1.13 2.763-2.674 3.481-4.432-2.589-1.106-9.462-3.502-13.584.171-4.672 4.164-1.449 12.71-.491 14.945 1.103-1.818 2.435-3.533 3.95-5.138z" fill="#6dc9f7"/></g></g><g><path d="m87.872 58.464c-2.894-1.916-4.573-5.212-4.573-8.683v-2.188h-42.599v2.188c0 3.471-1.679 6.766-4.573 8.682-8.64 5.722-14.127 14.252-14.127 23.786 0 17.231 17.909 33.6 40 33.6s40-16.369 40-33.6c0-9.534-5.487-18.064-14.128-23.785z" fill="#0089ef"/></g><g><path d="m88.995 47.593h-53.99c-2.105 0-3.811-1.706-3.811-3.811 0-2.105 1.706-3.811 3.811-3.811h53.99c2.105 0 3.811 1.706 3.811 3.811 0 2.105-1.706 3.811-3.811 3.811z" fill="#6dc9f7"/></g><g><path d="m35.005 42.971h53.99c1.572 0 2.92.952 3.503 2.311.198-.461.308-.967.308-1.5 0-2.105-1.706-3.811-3.811-3.811h-53.99c-2.105 0-3.811 1.706-3.811 3.811 0 .533.111 1.039.308 1.5.583-1.358 1.931-2.311 3.503-2.311z" fill="#fff"/></g><g fill="#fa759e"><path d="m54.984 30.845c-1.464 0-2.651 1.187-2.651 2.651s1.187 2.651 2.651 2.651 2.651-1.187 2.651-2.651c.001-1.464-1.186-2.651-2.651-2.651z"/><path d="m70.056 23.256c-1.074 0-1.944.87-1.944 1.944s.87 1.944 1.944 1.944 1.944-.87 1.944-1.944c0-1.073-.87-1.944-1.944-1.944z"/><path d="m48.548 25.004c-1.009 0-1.827.818-1.827 1.827s.818 1.827 1.827 1.827 1.827-.818 1.827-1.827-.818-1.827-1.827-1.827z"/><path d="m86.715 33.32c-1.009 0-1.827.818-1.827 1.827s.818 1.827 1.827 1.827 1.827-.818 1.827-1.827-.818-1.827-1.827-1.827z"/></g><g><path d="m36.397 32.845c-1.074 0-1.944.87-1.944 1.944s.87 1.944 1.944 1.944 1.944-.87 1.944-1.944-.871-1.944-1.944-1.944z" fill="#fa759e"/><g fill="#3a2c60"><path d="m94.02 112.808c-2.162-.62-4.034-2.168-5.581-4.588 8.798-6.453 14.561-15.868 14.561-25.971 0-4.688-1.296-9.243-3.713-13.393 1.247-3.071 3.926-11.287-.937-15.622-4.071-3.628-10.332-2.003-13.652-.74-.251-.867-.398-1.776-.398-2.713v-1.188h4.695c2.653 0 4.811-2.158 4.811-4.811s-2.158-4.811-4.811-4.811h-11.624c.215-.57.346-1.18.346-1.824 0-2.924-2.378-5.302-5.302-5.302s-5.302 2.378-5.302 5.302c0 .645.131 1.254.346 1.824h-32.454c-2.653 0-4.811 2.158-4.811 4.811s2.158 4.811 4.811 4.811h4.695v1.188c0 .937-.147 1.846-.398 2.713-3.321-1.263-9.583-2.888-13.652.74-4.863 4.334-2.184 12.551-.937 15.622-2.417 4.15-3.713 8.705-3.713 13.393 0 10.108 5.769 19.528 14.575 25.981-1.542 2.409-3.419 3.954-5.595 4.578-.949.272-1.735.898-2.213 1.761-.479.864-.592 1.862-.32 2.811.453 1.577 1.913 2.678 3.551 2.678.344 0 .688-.048 1.021-.144 3.994-1.146 7.298-3.796 9.852-7.846 6.027 3.016 12.929 4.781 20.129 4.781s14.103-1.765 20.129-4.781c2.554 4.05 5.858 6.7 9.852 7.845.333.096.677.145 1.021.145 1.638 0 3.098-1.101 3.551-2.678.272-.949.159-1.947-.32-2.811-.479-.863-1.265-1.489-2.213-1.761zm2.999-58.081c3.366 2.999 1.98 8.895.914 12.022-.785-1.122-1.66-2.206-2.614-3.251.527-2.289.79-5.039-.557-6.24-1.678-1.496-5.144-.704-6.995-.128-.957-.769-1.746-1.711-2.324-2.783 2.931-1.111 8.309-2.532 11.576.38zm-3.402 7.034c-1.154-1.097-2.401-2.14-3.746-3.119 1.83-.386 3.121-.281 3.561.11.254.227.451 1.219.185 3.009zm-24.505-24.614c0-1.821 1.481-3.302 3.302-3.302s3.302 1.481 3.302 3.302c0 .678-.213 1.302-.567 1.824h-5.47c-.354-.522-.567-1.146-.567-1.824zm-42.131 17.58c3.267-2.911 8.645-1.49 11.575-.378-.578 1.072-1.367 2.014-2.324 2.783-1.849-.576-5.315-1.367-6.995.128-1.348 1.2-1.084 3.95-.557 6.24-.954 1.045-1.829 2.129-2.614 3.251-1.065-3.129-2.451-9.025.915-12.024zm3.402 7.034c-.266-1.79-.069-2.782.185-3.008.439-.391 1.73-.497 3.561-.11-1.345.978-2.593 2.021-3.746 3.118zm1.083 56.23c-.883.255-1.846-.288-2.097-1.163-.125-.435-.073-.893.146-1.289.22-.396.581-.684 1.016-.808 2.638-.757 4.88-2.564 6.683-5.356.932.619 1.894 1.204 2.883 1.756-2.272 3.549-5.166 5.866-8.631 6.86zm5.932-10.874s-.001-.001-.001-.001c-8.679-6.087-14.397-15.142-14.397-24.867 0-8.83 4.986-17.195 13.68-22.951 3.144-2.082 5.021-5.64 5.021-9.517v-1.188h5.612c.552 0 1-.448 1-1s-.448-1-1-1h-12.308c-1.55 0-2.811-1.261-2.811-2.811s1.261-2.811 2.811-2.811h53.99c1.55 0 2.811 1.261 2.811 2.811s-1.261 2.811-2.811 2.811h-30.01c-.552 0-1 .448-1 1s.448 1 1 1h23.315v1.188c0 3.877 1.877 7.435 5.021 9.517 8.693 5.756 13.679 14.121 13.679 22.951 0 17.366-18.224 32.6-39 32.6-9.14 0-17.784-2.95-24.602-7.732zm57.233 9.711c-.251.875-1.208 1.421-2.098 1.163-3.464-.994-6.358-3.31-8.632-6.859.994-.555 1.96-1.144 2.897-1.766 1.809 2.803 4.046 4.613 6.67 5.365.436.125.796.412 1.016.808.219.396.271.854.147 1.289z"/><path d="m55.375 46.593h-4.282c-.552 0-1 .448-1 1s.448 1 1 1h4.282c.552 0 1-.448 1-1s-.448-1-1-1z"/><path d="m59.612 15.518c1.136.687 2.602.646 3.736-.105 1.086-.719 1.624-1.914 1.438-3.195-.079-.546-.588-.92-1.133-.847-.546.079-.926.586-.847 1.133.1.689-.311 1.074-.564 1.242-.491.327-1.12.35-1.597.061-.918-.555-1.684-2.034-1.708-3.298-.027-1.539.373-2.539 1.338-3.346 1.228-1.024 2.886-1.43 4.549-1.113 1.731.33 3.189 1.374 4.003 2.866 2.429 4.456-.378 7.685-3.351 11.103-1.589 1.828-3.232 3.718-3.983 5.8-.945 2.624-.895 5.824.148 9.511.125.44.526.728.962.728.09 0 .182-.013.273-.038.531-.151.84-.704.69-1.235-.928-3.276-.992-6.065-.191-8.288.623-1.73 2.074-3.399 3.61-5.166 3.137-3.607 6.692-7.696 3.597-13.372-1.101-2.02-3.063-3.431-5.384-3.874-2.257-.433-4.516.133-6.206 1.542-1.442 1.206-2.095 2.769-2.055 4.918.034 1.688.963 3.938 2.675 4.973z"/><path d="m80.839 33.845c.252 0 .504-.095.699-.285 1.625-1.586 2.597-3.228 2.89-4.878.234-1.318-.048-2.756-.322-4.146-.563-2.864-.801-4.684 1.296-5.97.713-.438 1.594-.524 2.418-.239.787.272 1.393.848 1.663 1.579.2.542.126 1.022-.254 1.655-.292.487-.954.923-1.416.933-.003 0-.005 0-.008 0-.169 0-.306-.122-.367-.244-.085-.169-.006-.27.027-.313.341-.434.265-1.063-.169-1.404s-1.063-.266-1.404.169c-.552.703-.645 1.638-.243 2.441.42.84 1.295 1.346 2.208 1.349 1.293-.029 2.531-.979 3.086-1.903.692-1.154.828-2.258.415-3.378-.478-1.294-1.529-2.306-2.884-2.775-1.392-.482-2.893-.328-4.118.424-3.389 2.078-2.737 5.395-2.213 8.061.249 1.265.484 2.46.315 3.41-.219 1.231-.999 2.509-2.319 3.797-.395.386-.403 1.019-.017 1.414.197.202.457.303.717.303z"/><path d="m37.72 24.289c1.053.026 1.989-.567 2.458-1.502.453-.905.352-1.917-.268-2.708-.341-.435-.971-.51-1.404-.17-.435.341-.511.97-.17 1.404.139.177.157.372.054.579-.101.203-.336.42-.624.398-.619-.014-1.467-.567-1.852-1.208-.488-.813-.58-1.434-.319-2.143.343-.927 1.109-1.656 2.103-2 1.04-.36 2.151-.249 3.051.303 2.56 1.569 2.326 3.815 1.635 7.327-.323 1.642-.657 3.339-.383 4.877.343 1.93 1.485 3.854 3.394 5.718.195.189.447.284.699.284.26 0 .52-.101.716-.301.386-.396.378-1.028-.017-1.415-1.604-1.566-2.554-3.126-2.823-4.636-.208-1.169.076-2.613.377-4.141.614-3.123 1.378-7.009-2.552-9.418-1.414-.867-3.146-1.045-4.751-.488-1.562.541-2.774 1.706-3.325 3.197-.471 1.278-.313 2.542.48 3.864.634 1.059 2.048 2.147 3.521 2.179z"/><path d="m54.984 37.147c2.013 0 3.651-1.638 3.651-3.651s-1.638-3.651-3.651-3.651-3.651 1.638-3.651 3.651 1.638 3.651 3.651 3.651zm0-5.302c.911 0 1.651.741 1.651 1.651 0 .911-.741 1.651-1.651 1.651s-1.651-.741-1.651-1.651c0-.911.741-1.651 1.651-1.651z"/><path d="m67.112 25.2c0 1.624 1.321 2.944 2.944 2.944s2.944-1.32 2.944-2.944c0-1.623-1.321-2.944-2.944-2.944s-2.944 1.321-2.944 2.944zm3.888 0c0 .521-.423.944-.944.944s-.944-.424-.944-.944.423-.944.944-.944.944.424.944.944z"/><path d="m48.548 29.658c1.559 0 2.827-1.268 2.827-2.827s-1.268-2.827-2.827-2.827-2.827 1.268-2.827 2.827 1.268 2.827 2.827 2.827zm0-3.654c.456 0 .827.371.827.827s-.371.827-.827.827-.827-.371-.827-.827.371-.827.827-.827z"/><path d="m83.889 35.147c0 1.559 1.268 2.827 2.827 2.827s2.827-1.268 2.827-2.827-1.268-2.827-2.827-2.827-2.827 1.268-2.827 2.827zm3.653 0c0 .456-.371.827-.827.827s-.827-.371-.827-.827.371-.827.827-.827.827.371.827.827z"/><path d="m36.397 37.732c1.623 0 2.944-1.321 2.944-2.944s-1.321-2.944-2.944-2.944c-1.624 0-2.944 1.321-2.944 2.944s1.32 2.944 2.944 2.944zm0-3.887c.521 0 .944.423.944.944s-.423.944-.944.944-.944-.423-.944-.944.423-.944.944-.944z"/></g></g></g></g></svg>