<svg id="Layer_1" enable-background="new 0 0 128 128" height="512" viewBox="0 0 128 128" width="512" xmlns="http://www.w3.org/2000/svg"><g><g><path d="m124.375 110.94c-.021-.04-2.167-4.018-1.84-8.516.123-1.684.329-3.351.528-4.963.708-5.742 1.378-11.166-1.91-15.831-4.654-6.604-13.311-6.733-16.964-6.458-1.782-1.836-4.14-3.204-6.814-3.903l-18.567-4.853v-1.251c0-1.744-1.347-3.164-3.052-3.314v-10.809c0-3.236-2.107-5.985-5.02-6.96 1.644-1.344 2.696-3.386 2.696-5.669v-7.65c0-4.536-2.907-8.397-6.951-9.845v-1.722c1.428.302 2.827.858 4.064 1.831 3.986 3.136 5.147 7.29 5.42 10.224.074.785.672 1.405 1.456 1.506.074.009.147.014.22.014.699 0 1.325-.43 1.57-1.101 1.863-5.117 3.705-14.563-4.887-20.346-9.712-6.535-21.369-.803-21.861-.556-.456.229-.671.76-.504 1.241l2.703 7.817c.093.268.293.484.552.599s.555.115.814.002c.04-.018 1.921-.806 4.475-1.243v1.418c-4.584 1.112-8.002 5.24-8.002 10.161v5.628c0 1.181.961 2.142 2.142 2.142.958 0 1.806-.644 2.062-1.566.475-1.708 1.211-2.948 2.018-3.4.397-.222.813-.26 1.311-.117 2.058.589 2.292 2.362 2.263 3.302l-3.006.97c-1.533.495-2.835 1.526-3.667 2.904l-1.857 3.075h-5.167l-13.658-13.66c2.247-1.152 4.744-1.907 7.41-2.161.522-.05.921-.488.921-1.012 0-.525-.398-.963-.92-1.013-.73-.07-1.455-.105-2.157-.105-12.035 0-21.886 9.522-22.42 21.428h-2.482v-2.739c0-.374-.205-.718-.535-.896-.329-.177-.729-.159-1.042.046l-5.707 3.756c-.286.188-.458.508-.458.85s.172.662.458.85l5.708 3.756c.169.111.364.167.559.167.165 0 .332-.04.483-.122.329-.178.535-.522.535-.896v-2.739h2.482c.534 11.906 10.385 21.428 22.42 21.428.699 0 1.425-.035 2.156-.105.522-.05.921-.488.921-1.013s-.398-.963-.921-1.013c-2.666-.254-5.164-1.009-7.411-2.161l13.658-13.657h4.721l.002 26.639c0 .955.18 1.889.534 2.774l.61 1.526-6.574 5.079c-1.124.868-1.707 2.23-1.559 3.643l.962 9.209c.178 1.708 1.607 2.996 3.325 2.996h6.432c.562 0 1.017-.456 1.017-1.017v-2.52c0-1.843-1.5-3.343-3.343-3.343h-1.115v-3.309l9.679-3.52 27.662 7.958 8.615 10.997-1.478 7.066h-1.597c-1.843 0-3.342 1.5-3.342 3.343v2.616c0 .562.455 1.017 1.017 1.017h6.297c1.477 0 2.798-.991 3.196-2.365l3.854-11.278c.27-.793.291-1.637.06-2.441l-3.631-12.624c1.371-1.357 4.944-5.605 4.019-12.041.463.52.873 1.141 1.179 1.906.887 2.216 1.067 4.878 1.257 7.697.224 3.304.454 6.72 1.87 9.729 2.961 6.291 10.474 9.781 10.791 9.927.136.062.28.092.422.092.276 0 .548-.113.745-.325.3-.32.358-.796.148-1.181zm-78.573-67.162c-1.774.312-3.187 1.66-3.593 3.4h-18.257c.327-6.724 3.85-12.602 9.176-16.074zm-21.85 5.434h18.257c.406 1.74 1.819 3.088 3.593 3.4l-12.675 12.674c-5.325-3.472-8.848-9.35-9.175-16.074z" fill="#e6e7e8"/></g><g><g><path d="m117.451 98.281c.555-7.627 2.747-14.535-1.199-20.134-4.54-6.441-13.394-6.271-16.519-5.987.247.277.482.566.703.867.709.967 1.339 2.14 1.813 3.514 1.466.708 2.93 1.919 3.768 4.014 2.017 5.043.589 12.032 3.102 17.371 2.836 6.027 10.295 9.434 10.295 9.434s-2.318-4.205-1.963-9.079z" fill="#ffd7e5"/></g><g><path d="m18.818 44.125c0-11.14 8.501-20.291 19.369-21.328-.678-.065-1.364-.101-2.059-.101-11.835 0-21.429 9.594-21.429 21.429s9.594 21.428 21.429 21.428c.695 0 1.381-.036 2.059-.101-10.868-1.035-19.369-10.187-19.369-21.327z" fill="#ffd7e5"/><path d="m4.5 44.125 5.708 3.757v-7.513z" fill="#fa759e"/></g><g><path d="m58.897 17.244c.866 0 1.701.126 2.497.344v-3.666c-1.36-.159-2.702-.128-3.944.014v3.429c.473-.071.954-.121 1.447-.121z" fill="#ffd7e5"/></g><g><path d="m50.271 58.769v16.491c0 .821.157 1.634.461 2.396l.895 2.238-7.182 5.549c-.837.647-1.279 1.68-1.169 2.732l.962 9.209c.124 1.184 1.122 2.084 2.313 2.084h6.432v-2.52c0-1.284-1.041-2.326-2.326-2.326h-2.132v-5.039l10.66-3.876 28.297 8.14 9.109 11.629-1.744 8.339h-2.423c-1.284 0-2.326 1.041-2.326 2.326v2.616h6.298c1.034 0 1.944-.683 2.233-1.676l3.854-11.278c.202-.591.218-1.23.045-1.831l-3.805-13.226s5.524-4.555 4.07-12.21c-.436-2.297-1.326-4.105-2.357-5.511-1.789-2.438-4.463-4.079-7.388-4.843l-19.326-5.051v-2.037c0-1.284-1.041-2.326-2.326-2.326h-21.125z" fill="#fa759e"/></g><path d="m50.271 40.647h11.77c3.482 0 6.304-2.822 6.304-6.304v-7.65c0-5.218-4.23-9.448-9.448-9.448-5.218 0-9.448 4.23-9.448 9.448v5.628c0 .621.503 1.124 1.124 1.124.506 0 .946-.334 1.082-.821.452-1.626 1.754-5.034 4.589-4.223 3.693 1.056 2.926 5.044 2.926 5.044l-3.637 1.174c-1.299.419-2.403 1.294-3.109 2.462z" fill="#6dc9f7"/><g><path d="m48.85 7.607s11.506-5.787 20.836.491c8.081 5.438 6.193 14.501 4.5 19.153-.24.658-1.213.532-1.277-.165-.277-2.983-1.469-7.519-5.804-10.929-6.131-4.824-15.551-.732-15.551-.732z" fill="#fa759e"/></g><g><path d="m69.686 11.098c4.056 2.729 5.6 6.371 5.918 9.91.36-4.372-.698-9.397-5.918-12.91-9.33-6.278-20.836-.491-20.836-.491l.899 2.6c2.877-1.194 12.16-4.342 19.937.891z" fill="#fff"/></g><g><path d="m64.344 40.648h-9.799v-.001h-12.036c-1.921 0-3.478 1.557-3.478 3.478s1.557 3.478 3.478 3.478h7.762v11.165h20.399v-11.795c-.001-3.493-2.832-6.325-6.326-6.325z" fill="#0089ef"/><g fill="#3a2c60"><path d="m120.291 106.879c-.022-.04-2.17-4.021-1.843-8.525.123-1.685.328-3.351.527-4.963.709-5.739 1.378-11.16-1.906-15.82-4.586-6.506-13.049-6.727-16.95-6.443-1.782-1.84-4.142-3.211-6.818-3.911l-18.58-4.856v-1.265c0-1.74-1.347-3.156-3.052-3.298v-10.825c0-3.24-2.117-5.992-5.039-6.955 1.654-1.34 2.715-3.385 2.715-5.675v-7.65c0-4.533-2.907-8.391-6.951-9.833v-1.76c1.437.302 2.846.862 4.093 1.843 3.991 3.14 5.153 7.299 5.425 10.236.073.777.667 1.39 1.443 1.49.072.009.145.014.217.014.691 0 1.312-.426 1.553-1.09 1.86-5.112 3.701-14.55-4.88-20.325-9.702-6.529-21.354-.802-21.844-.555-.448.225-.66.747-.496 1.22l2.704 7.818c.091.264.288.477.543.589s.545.113.801.001c.041-.017 1.932-.814 4.499-1.252v1.456c-4.583 1.106-8.002 5.23-8.002 10.147v5.628c0 1.171.953 2.124 2.125 2.124.95 0 1.792-.639 2.045-1.553.476-1.713 1.215-2.957 2.027-3.411.402-.226.822-.263 1.325-.119 2.078.594 2.306 2.389 2.274 3.331l-3.018.974c-1.529.494-2.828 1.522-3.657 2.896l-1.862 3.083h-5.183l-13.682-13.677c2.254-1.159 4.76-1.919 7.437-2.175.514-.049.905-.48.905-.996s-.392-.947-.905-.996c-.733-.07-1.458-.105-2.154-.105-12.032 0-21.878 9.524-22.403 21.429h-2.516v-2.757c0-.368-.202-.706-.525-.88s-.717-.157-1.024.045l-5.709 3.757c-.281.185-.45.499-.45.835s.169.65.45.835l5.708 3.756c.167.109.358.165.55.165.163 0 .326-.04.475-.12.324-.175.525-.513.525-.88v-2.756h2.516c.525 11.905 10.371 21.428 22.403 21.428.702 0 1.427-.035 2.155-.105.513-.049.905-.48.905-.996s-.392-.947-.905-.996c-2.677-.255-5.183-1.015-7.437-2.174l13.68-13.68h4.747v26.658c0 .954.179 1.885.533 2.768l.615 1.538-6.584 5.087c-1.119.865-1.7 2.221-1.553 3.628l.962 9.208c.177 1.7 1.599 2.981 3.308 2.981h6.433c.552 0 1-.448 1-1v-2.52c0-1.834-1.492-3.326-3.326-3.326h-1.132v-3.338l9.696-3.526 5.56 1.599c.533.156 1.084-.154 1.238-.685.152-.531-.154-1.085-.685-1.237l-5.872-1.689c-.203-.059-.419-.051-.618.021l-10.66 3.876c-.395.144-.658.52-.658.94v5.039c0 .552.448 1 1 1h2.132c.731 0 1.326.595 1.326 1.326v1.52h-5.433c-.681 0-1.248-.511-1.318-1.188l-.962-9.209c-.075-.712.219-1.399.786-1.837l7.182-5.549c.354-.273.483-.748.317-1.163l-.896-2.239c-.258-.646-.39-1.327-.39-2.025v-15.491h19.397.727c.73 0 1.325.595 1.325 1.326v2.038c0 .455.307.853.747.967l19.327 5.051c2.837.742 5.265 2.329 6.834 4.468 1.085 1.479 1.818 3.197 2.182 5.106 1.32 6.954-3.52 11.082-3.724 11.252-.308.253-.436.665-.325 1.048l3.805 13.226c.117.406.106.832-.03 1.231l-3.867 11.322c-.164.563-.688.956-1.273.956h-5.298v-1.617c0-.731.595-1.326 1.325-1.326h2.423c.474 0 .882-.332.979-.795l1.744-8.339c.061-.289-.01-.589-.191-.821l-9.11-11.629c-.13-.166-.309-.286-.511-.344l-11.6-3.337c-.526-.154-1.085.153-1.237.685-.152.531.153 1.084.685 1.237l11.288 3.248 8.623 11.007-1.482 7.088h-1.61c-1.834 0-3.325 1.492-3.325 3.326v2.617c0 .552.447 1 1 1h6.297c1.47 0 2.783-.986 3.18-2.353l3.854-11.278c.27-.789.29-1.629.06-2.431l-3.634-12.634c1.367-1.352 4.97-5.621 4.012-12.095.51.564.923 1.213 1.221 1.959.888 2.218 1.067 4.882 1.258 7.702.224 3.302.454 6.717 1.868 9.723 2.958 6.286 10.466 9.772 10.783 9.918.134.061.275.09.415.09.271 0 .539-.111.732-.319.292-.316.35-.785.144-1.163zm-111.083-60.852-2.889-1.901 2.889-1.901zm40.888-37.879c2.689-1.11 11.673-4.173 19.032.779 6.749 4.542 6.014 11.862 4.581 16.593-.547-3.152-2.073-7.071-5.985-10.15-2.495-1.963-5.443-2.577-8.158-2.577-3.136 0-5.959.82-7.405 1.327zm8.355 6.701c.633-.042 1.284-.049 1.944-.013v1.528c-.49-.071-.987-.12-1.497-.12-.151 0-.297.016-.447.023zm-5.17 22.749c.581-.962 1.49-1.682 2.56-2.027l3.637-1.174c.347-.112.606-.404.675-.763.325-1.69-.015-5.16-3.632-6.195-1.02-.292-1.98-.191-2.852.297-1.657.928-2.533 3.025-2.977 4.621-.034.119-.244.088-.243-.036v-5.628c0-4.658 3.79-8.448 8.449-8.448 4.658 0 8.448 3.79 8.448 8.448v7.65c0 2.925-2.379 5.304-5.304 5.304h-7.497-2.502zm-11.511 2.124c-1.788.299-3.216 1.653-3.618 3.404h-18.288c.322-6.743 3.855-12.637 9.196-16.114zm-14.169-14.159c-5.692 3.864-9.436 10.269-9.752 17.563h-2.113c.379-7.795 5.133-14.459 11.865-17.563zm-11.865 19.563h2.113c.316 7.293 4.06 13.699 9.752 17.563-6.732-3.105-11.487-9.769-11.865-17.563zm4.128 0h18.288c.402 1.751 1.83 3.104 3.618 3.403l-12.71 12.71c-5.341-3.477-8.873-9.371-9.196-16.113zm31.407 12.643v-9.166h3.274c.552 0 1-.448 1-1s-.448-1-1-1h-12.037c-1.366 0-2.478-1.112-2.478-2.478 0-1.367 1.112-2.479 2.478-2.479h21.836c2.937 0 5.326 2.389 5.326 5.325v10.796h-18.399zm66.116 47.315c-2.325-1.467-5.708-4.069-7.361-7.583-1.255-2.666-1.473-5.889-1.684-9.006-.192-2.851-.392-5.799-1.396-8.31-.766-1.914-2.078-3.37-3.892-4.345-.369-.985-.839-1.913-1.406-2.78 3.873-.078 10.246.641 13.787 5.664 2.84 4.029 2.245 8.846 1.557 14.423-.202 1.636-.411 3.328-.537 5.063-.194 2.658.351 5.109.932 6.874z"/><path d="m72.788 88.582-4.164-1.198c-.529-.155-1.084.155-1.237.685-.152.531.153 1.084.685 1.237l4.164 1.198c.092.027.186.04.276.04.435 0 .835-.286.961-.724.152-.532-.154-1.086-.685-1.238z"/></g></g></g></g></svg>