<svg id="Layer_1" enable-background="new 0 0 128 128" height="512" viewBox="0 0 128 128" width="512" xmlns="http://www.w3.org/2000/svg"><g><path d="m125.162 69.975c-.032-.06-3.15-6.029-3.204-10.555-.053-4.425 2.824-8.553 2.853-8.594.252-.358.243-.838-.023-1.186-.267-.348-.729-.482-1.138-.331-.443.162-10.25 3.781-17.534 8.058-.781-4.408-2.093-9.268-4.016-13.786 8.111-2.639 15.334-6.548 17.744-16.016 1.636-6.429-.033-12.513-4.58-16.693-4.127-3.794-10.001-5.268-14.62-3.67-6.152 2.13-9.831 6.932-10.705 9.458-.313.907-.306 1.597.024 2.11.747 1.161 2.842.909 7.133.274 1.922-.284 4.104-.606 5.089-.488 1.73.208 4.681 1.925 5.72 4.612.78 2.016.268 4.088-1.524 6.158-1.708 1.974-5.556 3.17-10.21 4.365-1.322-1.529-2.777-2.864-4.375-3.926-8.992-5.977-21.514-1.027-25.797.99-4.283-2.017-16.805-6.968-25.797-.99-8.09 5.379-12.556 17.65-14.319 27.602-7.283-4.277-17.09-7.896-17.533-8.058-.41-.151-.873-.017-1.139.332-.266.348-.275.829-.021 1.186.029.041 2.905 4.15 2.852 8.594-.054 4.517-3.173 10.496-3.204 10.556-.128.244-.15.53-.061.791.089.26.282.473.533.586.06.027 5.961 2.746 8.81 7.824 2.874 5.124 2.512 13.949 2.508 14.038-.014.302.11.594.337.794.226.2.531.286.829.237.065-.01 6.656-1.081 12.905 1.94 1.611.779 3.08 1.854 4.39 3.198-1.067 4.972-1.755 10.289-1.991 15.845-4.679.455-8.349 4.41-8.349 9.207 0 .552.448 1 1 1h76.5c.552 0 1-.448 1-1 0-4.796-3.67-8.752-8.349-9.207-.236-5.556-.924-10.874-1.991-15.845 1.31-1.343 2.778-2.418 4.39-3.198 6.225-3.011 12.84-1.952 12.906-1.94.294.046.603-.038.829-.238s.35-.492.336-.793c-.004-.088-.366-8.914 2.508-14.038 2.849-5.078 8.75-7.797 8.81-7.824.251-.114.444-.326.534-.587.09-.262.068-.548-.06-.792zm-30.867 15.527c-.436 1.532-1.111 3.02-2.005 4.45-.878-2.533-1.867-4.927-2.951-7.165 1.9-1.272 3.741-2.552 5.47-3.822.124 2.308.027 4.635-.514 6.537zm-57.104-6.537c1.729 1.27 3.57 2.55 5.47 3.822-1.084 2.238-2.073 4.632-2.951 7.165-.895-1.43-1.569-2.917-2.005-4.449-.542-1.903-.638-4.229-.514-6.538z" fill="#e6e7e8"/><g><path d="m96.972 4.147c-7.126 2.468-10.917 8.917-10.167 10.083.75 1.167 8.87-.982 11.5-.667 3.695.442 10.382 6.005 4.833 12.417-1.969 2.276-6.255 3.549-11.321 4.834 1.949 2.363 3.575 5.172 4.915 8.157 8.327-2.58 15.751-6.256 18.143-15.652 3.5-13.751-9.375-22.126-17.903-19.172z" fill="#6dc9f7"/><g fill="#0089ef"><path d="m32.333 73.084c-5.998-4.521-10.419-8.835-10.331-11.683.055-1.772.264-3.97.645-6.402-7.354-4.61-18.64-8.751-18.64-8.751s3.093 4.364 3.036 9.184-3.319 11.01-3.319 11.01 6.218 2.804 9.27 8.245 2.635 14.572 2.635 14.572 6.899-1.169 13.507 2.026c2.099 1.015 3.751 2.386 5.038 3.785.527-2.399 1.143-4.713 1.841-6.93-1.315-1.716-2.555-3.844-3.272-6.364-.721-2.534-.701-5.732-.41-8.692z"/><path d="m116.958 55.432c-.057-4.82 3.036-9.184 3.036-9.184s-11.286 4.142-18.64 8.751c.381 2.432.59 4.63.645 6.402.088 2.848-4.334 7.162-10.331 11.683.291 2.959.31 6.158-.41 8.691-.717 2.52-1.957 4.649-3.272 6.364.698 2.217 1.314 4.531 1.841 6.93 1.287-1.399 2.939-2.77 5.038-3.785 6.608-3.195 13.507-2.026 13.507-2.026s-.417-9.131 2.635-14.572 9.27-8.245 9.27-8.245-3.262-6.19-3.319-11.009z"/></g><path d="m92 112.185c-.021 0-.042.003-.063.003-.434-13-3.337-24.771-7.853-33.78-7.504 4.968-15.54 9.591-20.16 12.171-1.197.664-2.652.664-3.849 0-4.619-2.58-12.656-7.203-20.16-12.171-4.516 9.01-7.419 20.78-7.853 33.78-.021 0-.042-.003-.063-.003-4.556 0-8.25 3.694-8.25 8.25h76.5c.001-4.556-3.693-8.25-8.249-8.25z" fill="#ffd7e5"/><g><path d="m101.999 61.401c-.27-8.748-4.229-27.805-14.756-34.803-8.875-5.9-21.501-.556-25.243 1.266-3.742-1.822-16.368-7.166-25.243-1.266-10.527 6.998-14.486 26.056-14.756 34.803-.219 7.111 27.643 23.351 38.074 29.178 1.197.664 2.652.664 3.849 0 10.432-5.826 38.294-22.066 38.075-29.178z" fill="#fa759e"/><path d="m36.757 29.598c8.876-5.901 21.501-.556 25.243 1.266 3.742-1.822 16.368-7.166 25.243-1.266 9.753 6.484 13.866 23.314 14.633 32.711.079-.315.132-.621.123-.908-.27-8.748-4.229-27.805-14.755-34.803-8.876-5.9-21.502-.556-25.244 1.266-3.742-1.822-16.368-7.166-25.243-1.266-10.527 6.998-14.486 26.056-14.756 34.803-.009.286.044.593.123.908.767-9.397 4.88-26.227 14.633-32.711z" fill="#fff"/><path d="m62 31.985c-13.019 0-23.573 8.327-23.573 20.894s10.554 25.488 23.573 25.488 23.573-12.922 23.573-25.488-10.554-20.894-23.573-20.894z" fill="#ffd7e5"/><path d="m63.178 52.107h-2.356c-4.485 0-8.121 3.636-8.121 8.121v15.859c2.853 1.446 5.996 2.281 9.298 2.281 3.303 0 6.445-.834 9.299-2.281v-15.86c0-4.484-3.635-8.12-8.12-8.12z" fill="#fff"/><g fill="#fa759e"><g><circle cx="58.499" cy="59.798" r=".575"/><circle cx="54.804" cy="61.488" r=".575"/><circle cx="55.104" cy="57.922" r=".575"/></g><g><circle cx="65.533" cy="59.705" r=".575"/><circle cx="69.228" cy="61.395" r=".575"/><circle cx="68.928" cy="57.829" r=".575"/></g></g></g><g fill="#3a2c60"><path d="m121.162 65.975c-.032-.06-3.15-6.029-3.204-10.555-.053-4.425 2.824-8.553 2.853-8.594.252-.358.243-.838-.023-1.186-.267-.348-.728-.482-1.138-.331-.438.161-10.246 3.781-17.533 8.06-.781-4.408-2.093-9.268-4.015-13.787 7.871-2.557 15.296-6.406 17.743-16.017 1.636-6.429-.033-12.513-4.58-16.693-4.127-3.794-10.001-5.268-14.62-3.67-6.152 2.13-9.831 6.932-10.705 9.458-.313.907-.306 1.597.024 2.11.747 1.161 2.842.909 7.133.274 1.922-.284 4.102-.606 5.09-.488 1.73.208 4.681 1.925 5.72 4.612.78 2.016.268 4.088-1.524 6.158-1.741 2.012-5.784 3.229-10.21 4.365-1.322-1.529-2.777-2.864-4.375-3.926-8.992-5.977-21.514-1.027-25.797.99-4.283-2.017-16.805-6.968-25.797-.99-8.091 5.379-12.557 17.652-14.32 27.604-7.287-4.279-17.095-7.899-17.533-8.06-.412-.151-.873-.017-1.139.332-.266.348-.275.829-.021 1.186.029.041 2.905 4.15 2.852 8.594-.054 4.517-3.173 10.496-3.204 10.556-.128.244-.15.53-.061.791.089.26.282.473.533.586.06.027 5.961 2.746 8.811 7.824 2.874 5.124 2.512 13.949 2.508 14.038-.014.302.11.594.336.794.227.2.531.289.83.237.065-.01 6.656-1.081 12.905 1.94 1.605.776 3.074 1.865 4.388 3.214-1.079 5.052-1.757 10.388-1.989 15.829-4.679.455-8.349 4.41-8.349 9.207 0 .552.448 1 1 1h76.5c.552 0 1-.448 1-1 0-4.779-3.642-8.723-8.349-9.198-.232-5.444-.91-10.782-1.989-15.837 1.314-1.349 2.782-2.438 4.388-3.214 6.225-3.011 12.84-1.952 12.906-1.94.294.046.603-.038.829-.238s.35-.492.336-.793c-.004-.088-.366-8.914 2.508-14.038 2.849-5.078 8.751-7.797 8.811-7.824.251-.114.444-.326.534-.587.087-.263.065-.549-.063-.793zm-3.423-17.782c-.874 1.823-1.814 4.447-1.781 7.25.042 3.542 1.674 7.676 2.675 9.886l-16.526-1.102c.595-1.038.918-2 .892-2.857-.054-1.738-.232-3.733-.54-5.874 5.007-3.038 11.665-5.859 15.28-7.303zm-13.844-21.559c2.881-3.329 2.611-6.29 1.877-8.188-1.252-3.236-4.789-5.57-7.348-5.876-1.255-.153-3.375.163-5.62.495-1.679.248-4.123.61-5.066.504.336-1.535 3.675-6.44 9.561-8.479 3.942-1.366 9.011-.058 12.612 3.252 3.988 3.666 5.444 9.034 3.995 14.728-2.23 8.762-9.229 12.293-16.629 14.675-1.078-2.273-2.323-4.423-3.742-6.344 4.407-1.16 8.378-2.477 10.36-4.767zm-21.765 27.869h2.373c-.066.869-.18 1.741-.347 2.612h-2.026c-.552 0-1 .448-1 1s.448 1 1 1h1.551c-.246.88-.539 1.753-.88 2.612h-.671c-.552 0-1 .448-1 1 0 .483.35.867.805.961-3.72 7.573-11.056 13.679-19.935 13.679s-16.215-6.107-19.935-13.679c.455-.093.805-.478.805-.961 0-.552-.448-1-1-1h-.672c-.341-.86-.634-1.733-.88-2.612h1.551c.552 0 1-.448 1-1s-.448-1-1-1h-2.026c-.167-.871-.281-1.743-.347-2.612h2.373c.552 0 1-.448 1-1s-.448-1-1-1h-2.423c.207-11.33 9.619-19.518 22.554-19.518s22.347 8.188 22.553 19.519h-2.423c-.552 0-1 .448-1 1s.448.999 1 .999zm-44.82-27.072c2.802-1.863 6.025-2.533 9.211-2.533 5.957 0 11.779 2.339 14.478 3.597v2.51c-13.579.417-23.365 9.306-23.563 21.498h-2.082c-.552 0-1 .448-1 1s.448 1 1 1h2.138c.062.869.172 1.741.328 2.612h-2.466c-.552 0-1 .448-1 1s.448 1 1 1h2.904c.229.878.504 1.75.822 2.612h-3.727c-.552 0-1 .448-1 1s.448 1 1 1h4.548c3.91 8.576 12.104 15.64 22.099 15.64s18.189-7.064 22.097-15.639h4.548c.552 0 1-.448 1-1s-.448-1-1-1h-3.727c.318-.862.593-1.734.822-2.612h2.904c.552 0 1-.448 1-1s-.448-1-1-1h-2.464c.156-.871.266-1.744.328-2.612h2.138c.552 0 1-.448 1-1s-.448-1-1-1h-2.082c-.199-12.193-9.985-21.082-23.564-21.499v-2.509c4.141-1.93 15.647-6.411 23.689-1.065 10.23 6.801 14.058 25.845 14.31 34.001.136 4.422-14.257 15.256-37.56 28.272-.901.5-1.978.5-2.876.001-23.305-13.017-37.698-23.851-37.562-28.273.251-8.157 4.08-27.2 14.309-34.001zm52.985 54.071c-.431 1.515-1.106 2.997-1.999 4.427-.867-2.517-1.845-4.912-2.929-7.16 1.888-1.265 3.718-2.538 5.437-3.8.141 2.637-.025 4.835-.509 6.533zm-54.591 4.427c-.893-1.43-1.568-2.912-1.999-4.427-.483-1.699-.65-3.896-.509-6.534 1.719 1.262 3.549 2.535 5.438 3.8-1.085 2.249-2.064 4.644-2.93 7.161zm-29.443-37.736c3.615 1.443 10.273 4.264 15.281 7.303-.308 2.141-.486 4.136-.54 5.874-.026.857.297 1.819.892 2.857l-16.527 1.103c1-2.21 2.633-6.345 2.675-9.886.033-2.803-.907-5.427-1.781-7.251zm7.604 26.005c-1.813-3.232-4.636-5.554-6.778-6.979l16.135-1.076c1.188 1.468 2.806 3.049 4.723 4.692l-11.334 15.402c-.134-3.243-.692-8.377-2.746-12.039zm15.706 16.187c-4.542-2.195-9.157-2.424-11.824-2.318l11.739-15.951c.581.47 1.186.944 1.806 1.421-.296 3.451-.136 6.318.489 8.513.62 2.179 1.688 4.285 3.144 6.276-.479 1.559-.92 3.156-1.315 4.789-1.239-1.112-2.59-2.029-4.039-2.73zm69.61 29.05h-17.743c.426-.681.638-1.472.604-2.296-.194-4.61-.139-13.741 2.41-23.09.131-.482-.153-.979-.635-1.111-.483-.13-.979.153-1.111.635-2.613 9.584-2.67 18.926-2.472 23.642.025.61-.193 1.188-.615 1.629-.278.29-.624.485-1 .591h-2.025v-2.471c0-.5-.405-.905-.905-.905s-.905.405-.905.905v2.471h-1.888v-2.471c0-.5-.405-.905-.905-.905s-.905.405-.905.905v2.471h-1.285c-.933-.267-1.622-1.118-1.622-2.136v-6.355c0-.5-.405-.905-.905-.905s-.905.405-.905.905v6.355c0 .786.235 1.515.625 2.136h-9.137c.39-.621.625-1.35.625-2.136v-20.34c0-.5-.405-.905-.905-.905s-.905.405-.905.905v20.34c0 1.018-.689 1.869-1.622 2.136h-1.285v-2.471c0-.5-.405-.905-.905-.905s-.905.405-.905.905v2.471h-1.889v-2.471c0-.5-.405-.905-.905-.905s-.905.405-.905.905v2.471h-2.024c-.376-.107-.721-.301-1-.591-.422-.44-.64-1.019-.615-1.629.198-4.717.141-14.061-2.472-23.642-.131-.481-.625-.765-1.111-.635-.482.132-.766.629-.635 1.111 2.549 9.345 2.604 18.478 2.411 23.089-.034.824.178 1.616.604 2.296h-18.595c.48-3.473 3.428-6.161 6.968-6.244v.005c.072-.002.142-.011.214-.011 1.754 0 3.447.635 4.768 1.788.416.365 1.048.321 1.411-.095s.32-1.047-.096-1.411c-1.405-1.227-3.141-1.986-4.977-2.207.501-11.569 3.043-22.622 7.211-31.376 6.565 4.302 13.653 8.43 19.274 11.57.754.418 1.581.627 2.408.627.828 0 1.657-.21 2.413-.629 5.62-3.139 12.707-7.266 19.271-11.568 4.168 8.753 6.71 19.807 7.21 31.376-1.836.221-3.572.98-4.977 2.207-.416.364-.459.995-.096 1.411.364.417.996.46 1.411.095 1.32-1.153 3.013-1.788 4.768-1.788.084 0 .166.01.25.013v-.001c3.545.122 6.454 2.794 6.931 6.239zm-4.751-29.05c-1.45.701-2.801 1.619-4.039 2.73-.395-1.633-.836-3.23-1.315-4.789 1.456-1.991 2.523-4.096 3.144-6.276.624-2.195.784-5.061.489-8.512.621-.477 1.226-.951 1.806-1.421l11.739 15.951c-2.668-.107-7.284.121-11.824 2.317zm15.705-16.187c-2.054 3.662-2.612 8.796-2.746 12.039l-11.334-15.402c1.917-1.643 3.535-3.224 4.723-4.692l16.136 1.076c-2.143 1.425-4.966 3.747-6.779 6.979z"/><path d="m67.275 103.164c-.5 0-.905.405-.905.905v4.5c0 .5.405.905.905.905s.905-.405.905-.905v-4.5c0-.5-.406-.905-.905-.905z"/><path d="m67.275 96.054c-.5 0-.905.405-.905.905v4.484c0 .5.405.905.905.905s.905-.405.905-.905v-4.484c0-.499-.406-.905-.905-.905z"/><path d="m55.379 45.916c0-1.166-.945-2.11-2.111-2.11s-2.11.945-2.11 2.11.945 2.111 2.11 2.111 2.111-.946 2.111-2.111z"/><path d="m70.731 43.805c-1.166 0-2.111.945-2.111 2.11s.945 2.111 2.111 2.111 2.11-.945 2.11-2.111-.944-2.11-2.11-2.11z"/><path d="m69.795 66.419c-.552 0-1 .448-1 1 0 1.598-1.3 2.897-2.897 2.897s-2.898-1.299-2.898-2.897v-11.051l2.666-2.666c.714-.714.208-1.935-.802-1.935h-5.728c-1.01 0-1.516 1.221-.802 1.935l2.666 2.666v11.051c0 1.598-1.3 2.897-2.897 2.897s-2.897-1.3-2.897-2.897c0-.552-.448-1-1-1s-1 .448-1 1c0 2.701 2.197 4.897 4.897 4.897 1.596 0 3.003-.779 3.897-1.964.895 1.185 2.301 1.964 3.897 1.964 2.701 0 4.897-2.197 4.897-4.897.001-.552-.447-1-.999-1z"/><path d="m94.923 7.944c-.714.362-1.085 1.065-.829 1.569s1.042.619 1.756.257 1.085-1.065.829-1.569-1.042-.62-1.756-.257z"/></g></g></g></svg>