<svg id="Layer_1" enable-background="new 0 0 128 128" height="512" viewBox="0 0 128 128" width="512" xmlns="http://www.w3.org/2000/svg"><g><g><path d="m103.526 103.969h-2.997l-2.423-10.475h.42c3.304 0 5.991-2.688 5.991-5.991s-2.688-5.991-5.991-5.991h-2.176c5.856-6.934 9.397-15.884 9.397-25.649 0-5.172-1.002-10.112-2.805-14.649.662-.569 1.425-1.021 2.265-1.306l3.764-1.275c.406-.138.679-.519.679-.947s-.273-.81-.679-.947l-3.764-1.275c-2.02-.685-3.634-2.299-4.318-4.316l-1.275-3.765c-.138-.406-.519-.68-.947-.68s-.81.273-.947.679l-1.075 3.174c-7.309-8.855-18.363-14.506-30.711-14.506-21.953 0-39.813 17.859-39.813 39.813 0 9.766 3.54 18.716 9.397 25.649h-2.176c-3.304 0-5.991 2.688-5.991 5.992 0 3.303 2.688 5.99 5.991 5.99h.42l-2.423 10.475h-2.997c-3.304 0-5.991 2.688-5.991 5.991s2.688 5.991 5.991 5.991h75.185c3.304 0 5.991-2.688 5.991-5.991s-2.688-5.991-5.992-5.991z" fill="#e6e7e8"/></g><g><g><g><path d="m90.136 78.512c6.573-6.953 10.61-16.327 10.61-26.65 0-21.436-17.377-38.813-38.813-38.813s-38.813 17.377-38.813 38.813c0 10.323 4.038 19.697 10.61 26.65z" fill="#fa759e"/></g></g><g><g><path d="m36.732 78.512c-6.574-6.951-10.611-16.326-10.611-26.65 0-20.932 16.573-37.985 37.313-38.775-.498-.019-.997-.038-1.5-.038-21.436 0-38.813 17.377-38.813 38.813 0 10.323 4.038 19.697 10.61 26.65z" fill="#fff"/></g></g><path d="m92.848 88.494h-61.829l-2.886 12.475h67.601z" fill="#0089ef"/><path d="m99.526 100.969h-75.185c-2.757 0-4.991 2.235-4.991 4.991s2.235 4.991 4.991 4.991h75.184c2.757 0 4.991-2.235 4.991-4.991.001-2.757-2.234-4.991-4.99-4.991z" fill="#6dc9f7"/><path d="m94.526 78.512h-65.185c-2.757 0-4.991 2.235-4.991 4.991s2.235 4.991 4.991 4.991h65.184c2.757 0 4.991-2.235 4.991-4.991.001-2.756-2.234-4.991-4.99-4.991z" fill="#6dc9f7"/><path d="m73.861 23.607.768 2.267c.475 1.402 1.576 2.502 2.977 2.977l2.267.768-2.267.768c-1.402.475-2.502 1.576-2.977 2.977l-.768 2.267-.768-2.267c-.475-1.402-1.576-2.502-2.977-2.977l-2.267-.768 2.267-.768c1.402-.475 2.502-1.576 2.977-2.977z" fill="#ffd7e5"/><path d="m84.162 40.676 1.602 4.729c.991 2.924 3.286 5.22 6.21 6.21l4.729 1.602-4.729 1.602c-2.924.991-5.22 3.286-6.21 6.21l-1.602 4.729-1.602-4.729c-.991-2.924-3.286-5.22-6.21-6.21l-4.729-1.602 4.729-1.602c2.924-.991 5.22-3.286 6.21-6.21z" fill="#ffd7e5"/><g><path d="m94.667 23.701 1.275 3.764c.789 2.328 2.616 4.155 4.944 4.944l3.764 1.275-3.764 1.275c-2.328.789-4.155 2.616-4.944 4.944l-1.275 3.764-1.275-3.764c-.789-2.328-2.616-4.155-4.944-4.944l-3.764-1.275 3.764-1.275c2.328-.789 4.155-2.616 4.944-4.944z" fill="#ffd7e5"/><g fill="#3a2c60"><path d="m99.526 99.969h-2.997l-2.423-10.475h.42c3.304 0 5.991-2.688 5.991-5.991s-2.688-5.991-5.991-5.991h-2.165c6.065-7.18 9.385-16.201 9.385-25.65 0-5.172-1.005-10.109-2.808-14.646.663-.57 1.427-1.023 2.268-1.309l3.764-1.275c.406-.138.679-.519.679-.947s-.273-.81-.679-.947l-3.764-1.274c-2.02-.685-3.634-2.299-4.318-4.318l-1.275-3.764c-.138-.405-.519-.679-.947-.679s-.81.273-.947.679l-1.085 3.202c-7.307-8.86-18.346-14.533-30.701-14.533-21.953 0-39.813 17.859-39.813 39.813 0 9.45 3.321 18.471 9.385 25.65h-2.165c-3.304 0-5.991 2.688-5.991 5.991s2.688 5.991 5.991 5.991h.42l-2.423 10.475h-2.997c-3.304 0-5.991 2.688-5.991 5.991s2.688 5.991 5.991 5.991h75.185c3.304 0 5.991-2.688 5.991-5.991s-2.686-5.993-5.99-5.993zm-5.187-72.183.328-.969.328.969c.882 2.604 2.965 4.687 5.57 5.57l.968.327-.968.328c-2.605.884-4.688 2.966-5.57 5.57l-.328.969-.328-.969c-.882-2.604-2.965-4.687-5.57-5.57l-.968-.328.968-.327c2.605-.883 4.688-2.965 5.57-5.57zm-68.989 55.717c0-2.201 1.791-3.991 3.991-3.991h22.925c.552 0 1-.447 1-1s-.448-1-1-1h-18.091c-6.483-7.011-10.054-16.1-10.054-25.65 0-20.85 16.962-37.813 37.813-37.813 12.094 0 22.865 5.72 29.791 14.583-.838 1.309-2.105 2.324-3.597 2.83l-3.764 1.274c-.406.138-.679.519-.679.947s.273.81.679.947l3.764 1.275c2.02.685 3.634 2.299 4.318 4.318l1.275 3.764c.138.405.519.679.947.679s.81-.273.947-.679l1.275-3.764c.148-.437.347-.851.577-1.245 1.465 4.024 2.28 8.358 2.28 12.882 0 9.55-3.571 18.638-10.054 25.65h-19.093c-.552 0-1 .447-1 1s.448 1 1 1h23.926c2.201 0 3.991 1.79 3.991 3.991s-1.791 3.991-3.991 3.991h-65.185c-2.2.002-3.991-1.788-3.991-3.989zm6.464 5.991h60.239l2.423 10.475h-65.085zm67.712 20.457h-75.185c-2.201 0-3.991-1.79-3.991-3.991s1.791-3.991 3.991-3.991h75.185c2.201 0 3.991 1.79 3.991 3.991s-1.79 3.991-3.991 3.991z"/><path d="m66 77.512h-8.9c-.552 0-1 .447-1 1s.448 1 1 1h8.9c.552 0 1-.447 1-1s-.448-1-1-1z"/><path d="m72.146 33.686.768 2.267c.138.405.519.679.947.679s.81-.273.947-.679l.768-2.268c.372-1.1 1.251-1.979 2.351-2.351l2.267-.768c.406-.138.679-.519.679-.947s-.273-.81-.679-.947l-2.268-.769c-1.1-.372-1.979-1.251-2.351-2.352l-.768-2.267c-.138-.405-.519-.679-.947-.679s-.81.273-.947.679l-.768 2.267c-.373 1.101-1.251 1.979-2.352 2.352l-2.267.769c-.406.138-.679.519-.679.947s.273.81.679.947l2.267.768c1.101.372 1.98 1.251 2.353 2.352zm1.715-7.031c.579 1.318 1.646 2.385 2.963 2.964-1.318.578-2.384 1.646-2.963 2.963-.58-1.317-1.646-2.385-2.963-2.964 1.317-.578 2.384-1.645 2.963-2.963z"/><path d="m76.029 50.667-4.729 1.603c-.406.138-.679.519-.679.947s.273.81.679.947l4.729 1.602c2.611.885 4.699 2.973 5.584 5.585l1.602 4.729c.138.405.519.679.947.679s.81-.273.947-.679l1.602-4.729c.885-2.612 2.973-4.7 5.584-5.585l4.729-1.602c.406-.138.679-.519.679-.947s-.273-.81-.679-.947l-4.729-1.603c-2.611-.884-4.699-2.972-5.584-5.584l-1.602-4.729c-.138-.405-.519-.679-.947-.679s-.81.273-.947.679l-1.602 4.729c-.885 2.612-2.973 4.7-5.584 5.584zm7.478-4.941.655-1.934.655 1.934c1.084 3.197 3.64 5.753 6.837 6.836l1.933.655-1.933.654c-3.198 1.084-5.753 3.64-6.837 6.837l-.655 1.934-.655-1.934c-1.083-3.197-3.639-5.753-6.837-6.837l-1.933-.654 1.933-.655c3.198-1.083 5.753-3.639 6.837-6.836z"/></g></g></g></g></svg>