<svg id="Layer_1" enable-background="new 0 0 128 128" height="512" viewBox="0 0 128 128" width="512" xmlns="http://www.w3.org/2000/svg"><g><g><path d="m96.333 8.986c-16.314 0-29.588 13.273-29.588 29.588 0 2.016.222 3.992.613 5.922-6.618-3.483-13.733-5.191-21.602-5.191-9.835 0-18.497 2.66-26.479 8.133-15.228 10.444-13.942 28.418-12.16 34.463 1.405 4.771 6.85 8.331 9.694 9.909-2.206 1.484-4.397 4.24-2.893 8.099 1.743 4.479 6.88 5.3 9.458 5.423-.927 2.705-2.642 8.742-.979 12.454.619 1.384 1.634 2.336 3.015 2.828 1.999.712 3.817.642 5.404-.209.916-.491 1.643-1.189 2.21-1.925.201.756.525 1.524 1.037 2.212.976 1.313 2.419 2.085 4.291 2.293 3.523.396 6.06-3.274 7.401-6.204 1.272 2.784 3.617 6.234 6.879 6.233.171 0 .346-.009.521-.029 1.872-.208 3.315-.979 4.291-2.293.512-.688.836-1.457 1.037-2.212.567.736 1.294 1.434 2.21 1.925 1.587.851 3.405.921 5.404.209 1.381-.492 2.396-1.444 3.015-2.829 1.662-3.711-.052-9.749-.979-12.453 2.579-.123 7.715-.944 9.458-5.422 1.506-3.859-.686-6.615-2.893-8.099 2.845-1.578 8.289-5.137 9.694-9.909.918-3.116 1.698-9.404.159-16.195 3.723 1.624 7.677 2.456 11.78 2.456 16.314 0 29.588-13.273 29.588-29.588s-13.272-29.589-29.586-29.589z" fill="#e6e7e8"/></g><g><g><path d="m67.668 44.263c-7.363-5.048-15.676-7.957-25.912-7.957s-18.55 2.909-25.913 7.957c-14.746 10.112-13.546 27.315-11.767 33.355 1.779 6.039 10.89 10.173 10.89 10.173s-6.193 2.427-4.115 7.754c2.074 5.329 9.959 4.787 9.959 4.787s-5.334 13.103.938 15.338c6.272 2.234 8.089-5.047 8.089-5.047s-1.238 6.714 4.628 7.367c3.834.427 6.598-5.47 7.29-8.078.693 2.608 3.456 8.505 7.29 8.078 5.866-.652 4.628-7.367 4.628-7.367s1.817 7.281 8.089 5.047c6.273-2.236.938-15.338.938-15.338s7.885.542 9.959-4.787c2.078-5.327-4.115-7.754-4.115-7.754s9.111-4.135 10.89-10.173c1.78-6.04 2.979-23.243-11.766-33.355z" fill="#ffd7e5"/></g><path d="m92.333 5.986c-15.789 0-28.588 12.799-28.588 28.588 0 6.649 2.276 12.763 6.084 17.62l-2.489 12.502 12.271-4.52c3.832 1.908 8.149 2.986 12.721 2.986 15.789 0 28.588-12.799 28.588-28.588s-12.799-28.588-28.587-28.588z" fill="#6dc9f7"/><g><g><path d="m92.333 5.986c-.503 0-1.003.014-1.5.039 15.091.78 27.088 13.263 27.088 28.549 0 15.27-11.973 27.743-27.043 28.545.482.024.966.043 1.455.043 15.789 0 28.588-12.799 28.588-28.588s-12.8-28.588-28.588-28.588z" fill="#fff"/></g></g><g><g><path d="m89.315 12.642h13.944l-12.153 19.765h17.934l-24.104 24.478 8.999-18.642h-16.086z" fill="#fa759e"/><g fill="#3a2c60"><path d="m20.035 42.685c.162 0 .326-.039.479-.122 2.155-1.177 4.396-2.165 6.659-2.938.522-.178.802-.747.623-1.27s-.746-.802-1.27-.623c-2.371.81-4.716 1.844-6.972 3.075-.484.265-.663.872-.398 1.357.181.332.524.521.879.521z"/><path d="m34.769 76.449c1.747-.112 2.563-2.195 1.378-3.485-3.845-4.188-10.704-10.989-13.922-10.06-2.128.615-6.707 8.443-3.228 11.767 2.358 2.253 10.662 2.107 15.772 1.778z"/><path d="m64.513 74.671c3.478-3.324-1.1-11.153-3.228-11.767-3.218-.929-10.077 5.872-13.922 10.06-1.184 1.29-.369 3.373 1.378 3.485 5.11.329 13.414.475 15.772-1.778z"/><path d="m39.614 86.956-4.115 7.79c-.852 1.612.317 3.552 2.141 3.552h8.229c1.823 0 2.992-1.939 2.141-3.552l-4.115-7.79c-.908-1.72-3.372-1.72-4.281 0z"/><path d="m92.333 4.986c-16.314 0-29.588 13.273-29.588 29.588 0 2.028.224 4.015.62 5.955-6.622-3.489-13.735-5.224-21.609-5.224-3.694 0-7.27.381-10.628 1.132-.538.121-.878.655-.757 1.194.12.539.649.876 1.194.758 3.215-.719 6.644-1.084 10.19-1.084 8.175 0 15.493 1.95 22.28 5.882 1.006 3.309 2.578 6.434 4.724 9.258l-2.399 12.056c-.071.355.056.72.331.956.184.157.415.24.649.24.116 0 .233-.02.346-.062l10.811-3.982c1.605 6.555.861 12.687-.022 15.684-1.627 5.524-10.258 9.506-10.345 9.545-.365.167-.596.536-.585.938.011.401.26.758.634.904.215.084 5.244 2.113 3.549 6.46-1.779 4.571-8.892 4.155-8.96 4.152-.336-.018-.675.133-.877.412s-.246.643-.117.962c.927 2.281 3.006 8.929 1.514 12.259-.395.879-1.003 1.455-1.861 1.761-1.462.521-2.697.492-3.78-.084-2.193-1.169-2.995-4.235-3.002-4.264-.131-.524-.658-.847-1.18-.734-.527.113-.87.625-.774 1.155.005.029.499 2.891-.854 4.703-.641.857-1.59 1.345-2.902 1.491-2.899.318-5.49-4.62-6.212-7.341-.116-.438-.514-.743-.967-.743s-.85.305-.967.743c-.723 2.72-3.248 7.665-6.214 7.341-1.312-.146-2.261-.634-2.901-1.491-1.353-1.812-.858-4.674-.854-4.701.098-.531-.244-1.044-.771-1.159-.524-.111-1.051.211-1.183.735-.007.031-.825 3.097-2.994 4.259-1.084.581-2.322.611-3.788.088-.858-.306-1.467-.882-1.86-1.761-1.492-3.33.586-9.979 1.514-12.259.13-.32.086-.684-.117-.963-.201-.279-.53-.43-.878-.411-.073.003-7.173.438-8.96-4.153-1.686-4.321 3.336-6.375 3.549-6.459.374-.147.624-.503.635-.905.01-.402-.221-.771-.587-.937-.087-.04-8.712-4.01-10.344-9.545-1.666-5.657-2.872-22.479 11.373-32.248.456-.313.571-.935.259-1.39s-.934-.573-1.39-.259c-15.229 10.444-13.942 28.418-12.161 34.463 1.405 4.771 6.85 8.331 9.694 9.909-2.206 1.484-4.397 4.24-2.893 8.099 1.743 4.479 6.88 5.3 9.458 5.423-.927 2.705-2.642 8.742-.979 12.454.619 1.385 1.634 2.336 3.015 2.829 2 .711 3.818.64 5.404-.209.916-.491 1.643-1.189 2.21-1.925.201.756.525 1.524 1.037 2.212.976 1.313 2.419 2.085 4.29 2.293 3.523.395 6.061-3.273 7.402-6.204 1.272 2.784 3.616 6.233 6.878 6.233.172 0 .347-.009.522-.029 1.872-.208 3.315-.979 4.291-2.293.512-.688.836-1.457 1.037-2.212.567.736 1.294 1.434 2.21 1.925 1.588.852 3.406.921 5.404.209 1.381-.492 2.396-1.444 3.015-2.829 1.662-3.711-.052-9.749-.979-12.454 2.579-.123 7.715-.944 9.458-5.422 1.506-3.859-.686-6.615-2.893-8.099 2.845-1.578 8.289-5.137 9.694-9.909.918-3.116 1.696-9.405.156-16.196 3.724 1.625 7.679 2.457 11.783 2.457 16.314 0 29.588-13.273 29.588-29.588s-13.272-29.589-29.586-29.589zm0 57.176c-4.305 0-8.435-.97-12.275-2.881-.247-.123-.531-.138-.791-.043l-10.597 3.903 2.14-10.751c.058-.286-.014-.583-.193-.813-3.841-4.898-5.871-10.778-5.871-17.003 0-15.212 12.376-27.588 27.588-27.588s27.588 12.376 27.588 27.588c-.002 15.212-12.378 27.588-27.589 27.588z"/><path d="m109.04 31.407h-16.145l11.216-18.241c.19-.309.198-.696.021-1.012s-.511-.512-.873-.512h-13.944c-.395 0-.752.231-.913.591l-11.466 25.602c-.138.31-.11.668.074.953.184.284.5.456.839.456h14.492l-8.306 17.208c-.213.44-.075.97.324 1.252.174.123.376.183.576.183.26 0 .519-.102.713-.298l24.104-24.479c.282-.287.365-.716.21-1.088-.156-.373-.519-.615-.922-.615zm-20.577 20.471 6.371-13.2c.149-.31.13-.675-.054-.966-.183-.292-.503-.468-.847-.468h-14.54l10.569-23.601h11.508l-11.216 18.24c-.19.309-.198.696-.021 1.012s.511.512.873.512h15.546z"/></g></g></g></g></g></svg>