<svg id="Layer_1" enable-background="new 0 0 128 128" height="512" viewBox="0 0 128 128" width="512" xmlns="http://www.w3.org/2000/svg"><g><g><path d="m121.015 83.85c-7.859-11.974-7.112-19.427-5.28-25.36l2.69.691c.083.021.166.031.249.031.25 0 .494-.094.682-.268.25-.232.363-.576.302-.912l-1.432-7.849c-.068-.374-.343-.677-.708-.782-.365-.104-.759.007-1.015.288l-5.524 6.061c-.236.259-.319.624-.219.96s.369.595.709.683l2.326.598c-1.956 6.354-2.75 14.315 5.548 26.957 6.197 9.442.057 17.331-3.103 20.467v-2.108c0-11.479-6.47-21.472-15.952-26.534l11.04-13.887c.239-.301.285-.711.118-1.057s-.517-.565-.901-.565h-8.631c.477-1.167.861-2.381 1.147-3.632.306.09.616.149.929.149 3.492 0 4.369-13.619 4.369-13.757 0-1.094-.574-1.463-.916-1.586-.134-.048-.269-.07-.406-.075v-6.575c0-6.284-2.786-11.906-7.177-15.735-.597-6.836-6.094-12.145-7.293-12.494-.34-.099-.789 0-1.046.244-.521.489-.39 1.071-.104 2.346.207.919.503 2.252.648 3.813l-6.154-4.754.266 3.489-6.125-4.378-5.063 4.233-.313-2.563-4 3.938v-2.25l-2.619 2.095c.151-1.479.432-2.741.63-3.623.287-1.275.417-1.856-.104-2.346-.258-.243-.708-.342-1.046-.244-1.199.349-6.696 5.658-7.294 12.493-4.391 3.83-7.178 9.453-7.178 15.737v6.575c-.137.005-.272.027-.406.075-.342.123-.916.493-.916 1.586 0 .138.877 13.757 4.369 13.757.313 0 .623-.059.93-.149.286 1.251.67 2.465 1.147 3.632h-8.631c-.384 0-.734.22-.901.565-.167.346-.121.756.118 1.057l11.04 13.887c-7.776 4.151-13.526 11.617-15.343 20.501l-6.864-27.109c7.13-3.232 11.005-11.168 9.064-18.833l-1.831-7.23c.669.316 1.42.365 2.126.137.735-.238 1.333-.748 1.685-1.436s.415-1.472.178-2.207c-.238-.736-.748-1.334-1.436-1.686l-5.607-2.868c-1.009-.517-2.233-.394-3.122.313-.886.708-1.279 1.875-1 2.973l3.399 13.424c1.167 4.609-.879 9.331-4.911 11.662l-5.877-23.211c.493.268 1.055.382 1.625.335.77-.066 1.468-.429 1.965-1.02s.734-1.341.668-2.111-.429-1.468-1.021-1.965l-6.357-5.347c-.71-.599-1.672-.82-2.574-.591-.899.229-1.64.88-1.98 1.744l-3.047 7.728c-.284.719-.271 1.505.038 2.214.308.709.874 1.255 1.592 1.539.567.224 1.181.264 1.771.114.708-.179 1.318-.621 1.712-1.222l5.878 23.213c-4.656-.132-8.703-3.312-9.87-7.92l-3.398-13.425c-.278-1.098-1.179-1.937-2.296-2.138-1.119-.202-2.253.275-2.893 1.209l-3.568 5.191c-.438.637-.601 1.406-.46 2.166s.569 1.419 1.205 1.856c.637.438 1.406.603 2.167.461.73-.135 1.368-.536 1.804-1.132l1.831 7.23c1.941 7.665 9.121 12.798 16.935 12.25l9.09 35.901c-2.359 1.707-3.903 4.476-3.903 7.604 0 5.177 4.212 9.39 9.39 9.39h66.661c1.654 0 3-1.346 3-3v-13.362c2.216-1.904 12.826-11.998 4.774-24.266z" fill="#e6e7e8"/></g><g><g><g><g><g><path d="m96.383 58.263c-2.861 5.864-8.189 10.293-14.628 11.969l-.003.013h.426c4.504 0 8.768 1.025 12.573 2.854l11.795-14.836z" fill="#fa759e"/></g><g><path d="m70.397 70.245c-6.459-1.666-11.805-6.103-14.672-11.981h-10.164l11.795 14.836c3.805-1.829 8.069-2.854 12.573-2.854z" fill="#fa759e"/></g></g><g><path d="m86.992 70.649c.516.087 1.028.187 1.535.3.007.185.027.367.027.554 0 7.262-12.5 13.149-12.5 13.149s-12.5-5.887-12.5-13.149c0-.187.019-.369.027-.554-12.995 2.897-22.713 14.489-22.713 28.358v18.173c0 1.105.895 2 2 2h66.373c1.105 0 2-.895 2-2v-18.173c-.001-14.41-10.491-26.363-24.249-28.658z" fill="#fa759e"/></g><g fill="#fff"><g><path d="m63.554 71.503c0-.187.019-.369.027-.554.507-.113 1.018-.213 1.534-.3-13.758 2.295-24.247 14.248-24.247 28.658v3c0-14.013 9.919-25.708 23.119-28.452-.273-.763-.433-1.548-.433-2.352z"/><path d="m86.993 70.649c.516.087 1.028.187 1.534.3.007.185.027.367.027.554 0 .803-.16 1.589-.432 2.352 13.2 2.743 23.119 14.438 23.119 28.452v-3c-.001-14.41-10.49-26.363-24.248-28.658z"/></g><path d="m82.178 70.245h-.417c-1.823.474-3.736.728-5.707.728s-3.884-.254-5.707-.728h-.417c-2.182 0-4.305.248-6.349.704-.007.185-.027.367-.027.554 0 7.262 12.5 13.149 12.5 13.149s12.5-5.887 12.5-13.149c0-.187-.019-.369-.027-.554-2.044-.456-4.167-.704-6.349-.704z"/></g></g><g><g><path d="m98.662 43.656v4.709c0 1.289-.114 2.552-.321 3.782.49.392 1.048.634 1.651.634 1.861 0 3.369-10.13 3.369-12.757s-4.291 3.383-4.699 3.632z" fill="#fff"/></g><g fill="#fa759e"><path d="m87.965 17.911c-.162.38-.334.752-.515 1.114-.739 1.479.095 3.251 1.723 3.541l2.45.436c1.265.225 2.511-.564 2.796-1.817.199-.876.353-1.775.447-2.69.785-7.688-5.854-13.767-6.577-13.977-.782-.227 2.552 6.633-.324 13.393z"/><path d="m64.143 17.911c.162.38.334.752.515 1.114.739 1.479-.095 3.251-1.723 3.541l-2.45.436c-1.265.225-2.511-.564-2.796-1.817-.199-.876-.353-1.775-.447-2.69-.785-7.688 5.854-13.767 6.577-13.977.781-.227-2.552 6.633.324 13.393z"/></g><g><path d="m53.445 48.365v-4.709c-.408-.248-4.699-6.258-4.699-3.631s1.508 12.757 3.369 12.757c.603 0 1.161-.242 1.651-.634-.207-1.232-.321-2.494-.321-3.783z" fill="#fff"/></g><path d="m89.462 25.572h-.678c-3.05 0-5.996 1.107-8.291 3.115-2.542 2.224-6.338 2.224-8.88 0-2.295-2.008-5.241-3.115-8.291-3.115h-.678c-5.081 0-9.2 4.119-9.2 9.2v13.593c0 12.486 10.122 22.608 22.608 22.608s22.608-10.122 22.608-22.608v-13.593c.002-5.081-4.117-9.2-9.198-9.2z" fill="#fff"/></g></g><path d="m41.841 102.738-9.409-37.16c7.085-2.761 11.188-10.443 9.275-18.001l-2.373-9.37 1.885.964c.932.477 2.072.107 2.547-.823.476-.931.108-2.072-.823-2.547l-5.608-2.868c-.662-.339-1.46-.258-2.042.205-.581.464-.838 1.224-.655 1.945l3.399 13.424c1.4 5.53-1.482 11.145-6.543 13.362l-6.92-27.33 1.863 1.567c.8.673 1.995.569 2.667-.231.673-.8.57-1.994-.231-2.667l-6.358-5.347c-.466-.392-1.093-.536-1.683-.386s-1.073.574-1.296 1.141l-3.048 7.729c-.384.972.094 2.072 1.067 2.456.383.151.786.169 1.158.074.57-.144 1.065-.552 1.298-1.141l.893-2.265 6.92 27.33c-5.507.458-10.714-3.108-12.115-8.638l-3.399-13.424c-.183-.721-.77-1.268-1.502-1.399-.732-.13-1.473.179-1.894.792l-3.569 5.19c-.592.861-.374 2.04.488 2.632.86.592 2.04.375 2.632-.488l1.199-1.744 2.373 9.37c1.914 7.557 9.179 12.361 16.724 11.417l9.474 37.416c1.07-.65 2.293-1.07 3.606-1.185z" fill="#6dc9f7"/><circle cx="42.58" cy="111.09" fill="#fff" r="8.39"/><g><path d="m114.673 54.212-6.955-1.788 5.523-6.06z" fill="#ffd7e5"/><g fill="#3a2c60"><path d="m58.054 105.899c-.552 0-1 .448-1 1v6.5c0 .552.448 1 1 1s1-.448 1-1v-6.5c0-.552-.448-1-1-1z"/><path d="m58.054 96.832c-.552 0-1 .448-1 1v5.192c0 .552.448 1 1 1s1-.448 1-1v-5.192c0-.553-.448-1-1-1z"/><path d="m66.632 61.345c.043.519.477.891.993.891.013 0 .026 0 .04-.001.534-.02.958-.482.962-1.016.001-.092.06-.905 1.852-1.222 2.503-.444 5.191.564 5.219.574.209.079.486.087.714 0 .028-.01 2.716-1.018 5.219-.574 1.791.317 1.85 1.13 1.853 1.182-.046.55.363 1.034.914 1.08.028.002.056.003.084.003.515 0 .952-.395.996-.917.077-.919-.556-2.796-3.498-3.318-2.492-.442-5.008.253-5.924.551-.916-.299-3.432-.993-5.924-.551-2.944.522-3.577 2.399-3.5 3.318z"/><path d="m68.34 45.2c0-1.249-1.012-2.261-2.261-2.261s-2.261 1.012-2.261 2.261 1.012 2.261 2.261 2.261 2.261-1.012 2.261-2.261z"/><path d="m86.028 42.939c-1.249 0-2.261 1.012-2.261 2.261s1.012 2.261 2.261 2.261 2.261-1.012 2.261-2.261c0-1.248-1.012-2.261-2.261-2.261z"/><path d="m76.054 56.263c1.969 0 3.571-1.602 3.571-3.571v-1.507c0-.552-.448-1-1-1s-1 .448-1 1v1.507c0 .866-.705 1.571-1.571 1.571s-1.571-.705-1.571-1.571v-1.507c0-.552-.448-1-1-1s-1 .448-1 1v1.507c0 1.969 1.602 3.571 3.571 3.571z"/><path d="m84.48 42.608c.124 0 .249-.023.371-.072l4.427-1.771c.513-.206.762-.787.557-1.3-.206-.512-.785-.76-1.3-.557l-4.427 1.771c-.513.206-.762.787-.557 1.3.156.391.532.629.929.629z"/><path d="m62.829 40.765 4.427 1.771c.122.049.248.072.371.072.397 0 .772-.238.929-.629.205-.513-.044-1.095-.557-1.3l-4.427-1.771c-.515-.205-1.095.044-1.3.557s.045 1.095.557 1.3z"/><path d="m79.063 61.858h-6.019c-.552 0-1 .448-1 1s.448 1 1 1h6.019c.552 0 1-.448 1-1s-.448-1-1-1z"/><path d="m117.015 79.85c-7.861-11.976-7.111-19.427-5.278-25.36l2.688.691c.083.021.166.031.249.031.25 0 .494-.094.682-.268.25-.232.363-.576.302-.912l-1.432-7.849c-.068-.374-.343-.677-.708-.782-.366-.104-.759.007-1.015.288l-5.523 6.061c-.236.259-.319.624-.219.96s.369.595.709.683l2.326.598c-1.956 6.354-2.75 14.314 5.548 26.957 6.197 9.442.056 17.332-3.103 20.467v-2.108c0-11.479-6.47-21.472-15.952-26.534l11.041-13.887c.239-.301.285-.711.118-1.057s-.517-.565-.901-.565h-8.631c.477-1.167.861-2.381 1.147-3.632.306.09.617.149.93.149 3.492 0 4.369-13.619 4.369-13.757 0-1.094-.574-1.463-.916-1.586-.134-.048-.27-.071-.407-.076v-6.574c0-6.284-2.786-11.906-7.177-15.735-.597-6.836-6.095-12.146-7.293-12.494-.339-.099-.789.001-1.047.243-.521.489-.39 1.071-.104 2.346.207.919.503 2.252.648 3.813l-6.154-4.753.266 3.489-6.125-4.378-5.063 4.233-.313-2.562-4 3.937v-2.25l-2.62 2.1c.151-1.481.432-2.745.63-3.627.287-1.275.417-1.857-.104-2.346-.258-.243-.708-.343-1.046-.244-1.199.349-6.695 5.658-7.293 12.493-4.391 3.83-7.178 9.452-7.178 15.737v6.574c-.137.005-.272.028-.406.076-.342.123-.916.492-.916 1.586 0 .138.877 13.757 4.369 13.757.313 0 .623-.059.93-.149.286 1.251.67 2.465 1.147 3.632h-8.631c-.384 0-.734.22-.901.565-.167.346-.121.756.118 1.057l11.043 13.89c-7.78 4.156-13.527 11.632-15.338 20.527l-6.871-27.138c7.129-3.232 11.005-11.168 9.063-18.833l-1.831-7.23c.669.316 1.421.367 2.126.137.735-.238 1.333-.748 1.685-1.436s.415-1.472.177-2.207-.748-1.334-1.435-1.686l-5.608-2.868c-1.009-.517-2.233-.394-3.122.313-.886.708-1.278 1.874-1 2.973l3.399 13.424c1.167 4.609-.878 9.331-4.911 11.662l-5.877-23.212c1.182.64 2.692.383 3.59-.684 1.026-1.221.868-3.049-.353-4.076l-6.357-5.348c-.71-.598-1.672-.819-2.573-.59-.899.228-1.64.879-1.981 1.743l-3.048 7.729c-.284.719-.27 1.505.038 2.214s.874 1.255 1.592 1.539c.566.224 1.178.264 1.771.114.708-.179 1.318-.621 1.712-1.222l5.877 23.213c-4.656-.132-8.703-3.311-9.87-7.92l-3.396-13.426c-.278-1.098-1.179-1.938-2.295-2.138-1.119-.201-2.253.276-2.893 1.209l-3.568 5.191c-.438.637-.601 1.406-.46 2.166s.569 1.419 1.205 1.856c.637.438 1.406.604 2.167.461.731-.135 1.368-.537 1.804-1.132l1.831 7.231c1.941 7.666 9.123 12.806 16.935 12.25l9.09 35.901c-2.359 1.707-3.903 4.476-3.903 7.604 0 5.177 4.212 9.39 9.39 9.39h66.66c1.654 0 3-1.346 3-3v-13.361c2.215-1.906 12.826-12 4.774-24.268zm-4.395-31.32.789 4.325-3.833-.985zm-8.147 10.733-10.026 12.61c-2.505-1.125-5.188-1.918-7.997-2.32 4.51-2.222 8.209-5.842 10.535-10.291h7.488zm-34.544 11.982h.303c.149.038.3.069.45.104l1.909 7.377 1.568-1.661 1.894 3.333 2.26-3.333 1.448 1.427 1.727-7.158c.129-.03.259-.057.387-.089h.302c1.83 0 3.617.182 5.351.518-.273 5.718-9.376 10.701-11.475 11.773-2.099-1.072-11.202-6.055-11.475-11.773 1.734-.336 3.522-.518 5.351-.518zm-15.483-22.88v-13.593c0-4.521 3.678-8.2 8.2-8.2h.678c2.808 0 5.519 1.019 7.632 2.868 2.907 2.543 7.29 2.544 10.197 0 2.114-1.849 4.824-2.868 7.632-2.868h.678c4.521 0 8.2 3.678 8.2 8.2v13.593c0 9.845-6.62 18.167-15.641 20.764l.297-1.23-2.004-1.667-4.26 1.333-3.998-1.333-2.266 1.667.32 1.236c-9.034-2.589-15.665-10.917-15.665-20.77zm45.408 3.408c-.141-.016-.283-.058-.426-.122.15-1.075.234-2.171.234-3.286v-4.303c.143-.165.329-.389.595-.711.43-.521 1.345-1.631 2.067-2.353-.234 3.415-1.5 9.814-2.47 10.775zm-5.984-33.379c-.084.828-.229 1.692-.427 2.57-.162.713-.9 1.185-1.645 1.054l-2.451-.436c-.606-.108-.894-.517-1.011-.75-.214-.425-.211-.921.008-1.359.19-.38.371-.771.541-1.17 1.812-4.259 1.316-8.492.786-11.188 1.951 2.208 4.7 6.371 4.199 11.279zm-31.433-11.28c-.531 2.696-1.026 6.929.786 11.188.17.399.351.79.541 1.169.219.438.222.934.008 1.359-.118.234-.405.643-1.011.75l-2.45.436c-.747.13-1.483-.341-1.646-1.054-.198-.874-.342-1.738-.427-2.57-.501-4.906 2.248-9.069 4.199-11.278zm-10.183 44.659c-.97-.961-2.236-7.36-2.47-10.775.722.722 1.636 1.831 2.065 2.352.266.323.452.547.596.712v4.303c0 1.116.083 2.212.234 3.286-.142.064-.284.106-.425.122zm-4.62 7.49h7.488c2.324 4.446 6.021 8.064 10.527 10.287-2.807.402-5.49 1.195-7.992 2.32zm-17.903 6.998c-.113-.448-.517-.754-.968-.754-.042 0-.083.002-.125.008-7.143.895-13.864-3.693-15.631-10.67l-2.373-9.37c-.096-.38-.406-.669-.793-.739-.388-.072-.778.094-1 .418l-1.2 1.745c-.135.196-.338.329-.572.372-.235.044-.472-.006-.668-.143-.197-.135-.329-.339-.373-.573-.043-.235.007-.472.142-.668l3.568-5.192c.197-.288.547-.435.892-.373s.623.321.709.66l3.399 13.424c1.506 5.95 7.041 9.897 13.167 9.389.293-.024.56-.176.731-.416s.228-.542.155-.827l-6.92-27.331c-.106-.421-.472-.725-.905-.752-.433-.029-.835.227-.994.631l-.893 2.265c-.107.271-.331.467-.612.539-.183.046-.372.034-.546-.035-.458-.181-.684-.7-.503-1.159l3.048-7.728c.105-.267.334-.468.612-.539.279-.071.575-.002.793.182l6.358 5.348c.377.317.426.881.109 1.258s-.882.426-1.259.109l-1.863-1.566c-.332-.28-.807-.313-1.175-.082-.368.23-.545.672-.438 1.093l6.92 27.33c.072.285.266.523.53.653.265.128.572.135.841.018 5.627-2.465 8.618-8.573 7.111-14.524l-3.399-13.424c-.086-.339.036-.7.308-.917.274-.218.653-.257.965-.097l5.608 2.869c.212.108.369.293.443.52.073.227.054.469-.055.682-.109.212-.294.37-.521.443-.228.073-.468.054-.682-.055l-1.885-.964c-.349-.179-.771-.137-1.079.108-.307.245-.442.646-.346 1.027l2.373 9.37c1.767 6.977-1.96 14.209-8.668 16.823-.47.183-.73.688-.606 1.177l9.139 36.091c-.591.127-1.162.308-1.706.541zm5.459 44.829c0-4.075 3.315-7.39 7.39-7.39s7.39 3.315 7.39 7.39-3.315 7.39-7.39 7.39-7.39-3.315-7.39-7.39zm75.05 6.39c0 .551-.449 1-1 1h-14.186v-20.023c0-.552-.448-1-1-1s-1 .448-1 1v20.023h-34v-1.706c0-.552-.448-1-1-1s-1 .448-1 1v1.706h-8.701c2.197-1.72 3.617-4.39 3.617-7.39 0-5.167-4.196-9.372-9.359-9.388l-.73-2.884c.219-12.718 8.937-23.398 20.71-26.592.732 7.451 12.521 13.088 13.038 13.332.135.063.281.095.426.095s.291-.032.426-.095c.517-.244 12.306-5.881 13.038-13.332 11.924 3.235 20.722 14.147 20.722 27.081v18.173z"/></g></g></g></g></svg>