<svg id="Layer_1" enable-background="new 0 0 128 128" height="512" viewBox="0 0 128 128" width="512" xmlns="http://www.w3.org/2000/svg"><g><g><path d="m80.046 72.418c4.441-3.298 7.683-8.118 8.959-13.681.307.091.619.15.933.15 2.45 0 4.369-2.529 4.369-5.757 0-.786-.115-1.529-.323-2.205v-9.941c0-7.691-3.119-14.666-8.158-19.729-.454-6.984-6.096-12.449-7.313-12.803-.339-.099-.788 0-1.046.244-.521.489-.39 1.071-.104 2.346.245 1.089.618 2.757.712 4.701-3.657-1.757-7.753-2.743-12.075-2.743s-8.418.986-12.077 2.743c.095-1.944.467-3.612.712-4.701.287-1.275.417-1.856-.104-2.346-.258-.243-.708-.342-1.046-.244-1.217.354-6.859 5.82-7.313 12.804-5.039 5.063-8.158 12.038-8.158 19.729v9.941c-.207.676-.323 1.419-.323 2.205 0 3.228 1.919 5.757 4.369 5.757.316 0 .627-.06.933-.15 1.277 5.562 4.518 10.382 8.959 13.681-12.744 3.486-22.14 15.161-22.14 28.995v19.173c0 1.654 1.346 3 3 3h66.373c1.654 0 3-1.346 3-3v-19.173c.001-13.836-9.395-25.51-22.139-28.996z" fill="#e6e7e8"/></g><g><g><path d="m73.575 68.869c-.406.243-.819.476-1.241.693.102.587.166 1.188.166 1.805 0 5.799-4.701 10.5-10.5 10.5s-10.5-4.701-10.5-10.5c0-.617.064-1.217.166-1.805-.422-.217-.835-.451-1.241-.693-13.444 2.552-23.611 14.357-23.611 28.544v19.173c0 1.105.895 2 2 2h66.373c1.105 0 2-.895 2-2v-19.173c-.001-14.187-10.168-25.992-23.612-28.544z" fill="#6dc9f7"/><path d="m51.275 69.362c-.291-.157-.577-.322-.86-.491-13.439 2.556-23.601 14.359-23.601 28.542v19.173c0 1.105.895 2 2 2h3c-1.105 0-2-.895-2-2v-19.173c0-13.42 9.098-24.709 21.461-28.051z" fill="#fff"/></g><path d="m62 72.064c-3.725 0-7.236-.906-10.334-2.502-.102.587-.166 1.188-.166 1.805 0 5.799 4.701 10.5 10.5 10.5s10.5-4.701 10.5-10.5c0-.617-.064-1.217-.166-1.805-3.098 1.596-6.609 2.502-10.334 2.502z" fill="#fff"/><g><g fill="#fa759e"><path d="m73.911 18.804c-.162.38-.334.752-.515 1.114-.739 1.479.095 3.251 1.723 3.541l2.45.436c1.265.225 2.511-.564 2.796-1.817.199-.876.353-1.775.447-2.69.785-7.688-5.854-13.767-6.577-13.977-.782-.226 2.552 6.633-.324 13.393z"/><path d="m50.089 18.804c.162.38.334.752.515 1.114.739 1.479-.095 3.251-1.723 3.541l-2.45.436c-1.265.225-2.511-.564-2.796-1.817-.199-.876-.353-1.775-.447-2.69-.784-7.688 5.855-13.766 6.577-13.976.782-.227-2.552 6.632.324 13.392z"/></g><g><g><path d="m85.938 44.373c-.473 0-.922.14-1.33.388v4.709c0 1.289-.113 2.552-.32 3.782.49.392 1.047.634 1.65.634 1.861 0 3.369-2.13 3.369-4.757 0-2.626-1.508-4.756-3.369-4.756z" fill="#fff"/></g><g><path d="m39.392 48.929v-4.167c-.408-.248-.857-.388-1.33-.388-1.861 0-3.369 2.13-3.369 4.757s1.508 4.757 3.369 4.757c.633 0 1.219-.262 1.725-.69-.257-1.39-.395-2.816-.395-4.269z" fill="#fff"/></g></g><path d="m79.038 27.433c-2.037-2.063-5.083-2.661-7.833-1.744-2.374.792-5.62 1.28-9.205 1.28s-6.831-.488-9.205-1.28c-2.75-.917-5.796-.319-7.833 1.744-3.444 3.489-5.57 8.28-5.57 13.57v8.453c0 12.486 10.122 22.608 22.608 22.608 12.486 0 22.608-10.122 22.608-22.608v-8.453c0-5.29-2.126-10.082-5.57-13.57z" fill="#fff"/><g fill="#fa759e"><path d="m52.026 44.045c-1.249 0-2.261 1.012-2.261 2.261s1.012 2.261 2.261 2.261 2.261-1.012 2.261-2.261c0-1.248-1.013-2.261-2.261-2.261z"/><path d="m71.974 44.045c-1.249 0-2.261 1.012-2.261 2.261s1.012 2.261 2.261 2.261 2.261-1.012 2.261-2.261c0-1.248-1.012-2.261-2.261-2.261z"/></g><g fill="#3a2c60"><path d="m76.044 68.419c4.442-3.298 7.685-8.119 8.962-13.683.307.091.619.15.932.15 2.45 0 4.369-2.529 4.369-5.757 0-.785-.115-1.527-.322-2.203v-9.942c0-7.69-3.12-14.661-8.158-19.724-.452-6.986-6.096-12.454-7.313-12.808-.34-.097-.788.002-1.046.244-.521.489-.39 1.071-.103 2.346.246 1.093.62 2.766.713 4.717-3.66-1.76-7.752-2.759-12.078-2.759s-8.418 1-12.078 2.76c.093-1.952.467-3.625.713-4.718.287-1.275.417-1.856-.103-2.346-.258-.243-.708-.342-1.046-.244-1.218.354-6.861 5.822-7.313 12.809-5.037 5.063-8.158 12.035-8.158 19.724v9.941c-.207.676-.323 1.419-.323 2.205 0 3.228 1.919 5.757 4.369 5.757.316 0 .627-.06.933-.15 1.277 5.563 4.519 10.384 8.962 13.682-12.745 3.485-22.143 15.158-22.143 28.993v19.173c0 1.654 1.346 3 3 3h66.373c1.654 0 3-1.346 3-3v-2.889c0-.552-.448-1-1-1s-1 .448-1 1v2.889c0 .551-.449 1-1 1h-14.186v-20.023c0-.552-.448-1-1-1s-1 .448-1 1v20.023h-34v-20.023c0-.552-.448-1-1-1s-1 .448-1 1v20.023h-14.186c-.551 0-1-.449-1-1v-19.173c0-13.55 9.657-24.878 22.448-27.487.104.06.207.121.312.179-.046.415-.074.835-.074 1.262 0 6.341 5.159 11.5 11.5 11.5s11.5-5.159 11.5-11.5c0-.427-.027-.847-.073-1.262.105-.058.208-.12.312-.179 12.791 2.609 22.448 13.937 22.448 27.487v4.45c0 .552.448 1 1 1s1-.448 1-1v-4.45c0-13.835-9.398-25.509-22.143-28.994zm9.33-15.673c.151-1.076.234-2.173.234-3.289v-4.033c.11-.026.219-.049.33-.049 1.284 0 2.369 1.72 2.369 3.756 0 2.331-1.431 4.263-2.933 3.615zm-5.558-33.459c-.084.828-.229 1.692-.427 2.57-.162.713-.902 1.18-1.645 1.054l-2.451-.436c-.606-.108-.894-.517-1.011-.75-.214-.425-.211-.921.008-1.359.19-.38.371-.771.541-1.17 1.813-4.259 1.317-8.491.786-11.188 1.951 2.208 4.7 6.372 4.199 11.279zm-31.433-11.279c-.531 2.696-1.026 6.929.786 11.188.17.399.351.789.541 1.169.219.439.222.934.008 1.359-.118.234-.405.643-1.012.75l-2.45.436c-.755.133-1.48-.328-1.645-1.053-.199-.879-.343-1.745-.427-2.571-.501-4.906 2.248-9.069 4.199-11.278zm-12.691 41.122c0-2.036 1.085-3.756 2.369-3.756.11 0 .22.023.33.049v4.033c0 1.117.083 2.215.234 3.291-1.468.612-2.932-1.282-2.933-3.617zm4.7.326v-8.453c0-4.847 1.876-9.417 5.282-12.868 1.205-1.22 2.838-1.868 4.556-1.868.744 0 1.503.122 2.25.371 2.574.858 5.956 1.332 9.521 1.332 3.566 0 6.947-.473 9.521-1.332 2.472-.827 5.079-.251 6.804 1.498 3.406 3.45 5.282 8.02 5.282 12.868v8.453c0 11.915-9.693 21.608-21.608 21.608s-21.608-9.694-21.608-21.609zm31.108 21.911c0 5.238-4.262 9.5-9.5 9.5s-9.5-4.262-9.5-9.5c0-.101.009-.2.013-.3 2.906 1.28 6.113 1.997 9.487 1.997s6.581-.716 9.487-1.997c.004.1.013.199.013.3z"/><path d="m97.187 104.571c-.552 0-1 .448-1 1v4.375c0 .552.448 1 1 1s1-.448 1-1v-4.375c0-.552-.448-1-1-1z"/><path d="m62 57.369c1.969 0 3.571-1.602 3.571-3.571v-1.507c0-.552-.448-1-1-1s-1 .448-1 1v1.507c0 .866-.705 1.571-1.571 1.571s-1.571-.705-1.571-1.571v-1.507c0-.552-.448-1-1-1s-1 .448-1 1v1.507c0 1.969 1.602 3.571 3.571 3.571z"/><path d="m70.426 42.942c.151 0 .304-.034.449-.107l4.427-2.229c.493-.248.692-.85.443-1.343-.248-.493-.848-.693-1.343-.443l-4.427 2.229c-.493.248-.692.85-.443 1.343.176.349.528.55.894.55z"/><path d="m54.024 41.049-4.427-2.229c-.495-.25-1.094-.05-1.343.443s-.05 1.095.443 1.343l4.427 2.229c.145.073.298.107.449.107.366 0 .718-.201.894-.55.249-.493.05-1.095-.443-1.343z"/><path d="m68.009 61.963c0-.552-.448-1-1-1h-10.018c-.552 0-1 .448-1 1s.448 1 1 1h10.019c.552 0 .999-.447.999-1z"/></g></g></g></g></svg>