<svg id="Layer_1" enable-background="new 0 0 128 128" height="512" viewBox="0 0 128 128" width="512" xmlns="http://www.w3.org/2000/svg"><g><g><path d="m125.487 37.234c-.03-.058-3.036-5.819-3.087-10.169-.051-4.256 2.718-8.23 2.746-8.27.252-.358.243-.838-.023-1.186s-.723-.483-1.138-.331c-.457.168-11.284 4.162-18.383 8.667-7.148 4.537-10.747 9.002-10.897 9.19-.199.25-.267.581-.182.89.028.102 2.804 10.274 1.119 16.196-.646 2.271-1.772 4.201-2.969 5.767-1.171-2.472-2.678-4.753-4.458-6.791.342-9.437-7.599-16.537-8.69-16.854-.34-.101-.806.003-1.063.246-.542.509-.402 1.131-.065 2.633.351 1.563.918 4.103.888 7.026-3.995-2.027-8.507-3.175-13.285-3.175s-9.289 1.149-13.285 3.173c-.03-2.923.536-5.463.887-7.025.338-1.502.478-2.125-.064-2.634-.283-.266-.68-.356-1.063-.247-1.091.317-9.032 7.417-8.689 16.854-1.78 2.039-3.288 4.32-4.459 6.792-1.197-1.566-2.323-3.496-2.969-5.767-1.683-5.915 1.091-16.094 1.119-16.196.085-.309.018-.64-.182-.89-.15-.188-3.75-4.653-10.898-9.19-7.098-4.505-17.925-8.499-18.382-8.667-.41-.15-.873-.017-1.139.332-.266.348-.275.829-.021 1.186.028.04 2.796 3.995 2.745 8.27-.052 4.35-3.057 10.111-3.087 10.168-.128.244-.15.53-.061.791s.283.473.534.586c.057.026 5.73 2.627 8.482 7.533 2.768 4.935 2.419 13.439 2.416 13.524-.014.302.11.593.336.793.226.201.534.287.829.238.064-.01 6.436-1.03 12.43 1.868 2.296 1.11 4.015 2.708 5.268 4.251-.157 1.23-.247 2.481-.247 3.753 0 16.267 13.233 29.5 29.5 29.5.761 0 1.513-.038 2.26-.095-2.057 4.093-8.814 14.852-22.082 12.457-7.687-1.389-10.696-8.626-13.351-15.01-1.962-4.72-3.658-8.797-6.951-10.135-6.048-2.46-11.265 2.985-13.048 5.171l-1.839-1.544c-.262-.22-.618-.29-.941-.189-.326.102-.577.362-.667.691l-2.1 7.697c-.1.367.017.758.301 1.011.187.166.424.252.664.252.126 0 .254-.024.375-.073l7.6-3.079c.325-.132.558-.424.612-.771.055-.347-.076-.696-.345-.922l-2.125-1.784c1.515-1.84 5.989-6.545 10.759-4.608 2.52 1.024 4.066 4.744 5.857 9.05 2.71 6.517 6.083 14.627 14.842 16.21 1.446.262 2.819.381 4.126.381 13.22 0 19.415-12.293 20.645-15.07 14.094-2.209 24.908-14.432 24.908-29.136 0-1.275-.09-2.529-.248-3.761 1.25-1.538 2.969-3.131 5.269-4.243 5.994-2.898 12.367-1.878 12.431-1.868.298.048.603-.038.829-.238s.35-.492.336-.794c-.004-.085-.358-8.581 2.415-13.524 2.742-4.889 8.426-7.507 8.483-7.533.251-.114.444-.326.533-.586.09-.262.067-.548-.061-.792z" fill="#e6e7e8"/></g><g><g><g><path d="m35.58 55.885c-1.619-1.821-3.307-4.307-4.184-7.392-1.781-6.26 1.117-16.736 1.117-16.736s-3.563-4.47-10.651-8.969-18.192-8.571-18.192-8.571 2.984 4.21 2.929 8.86c-.054 4.65-3.202 10.623-3.202 10.623s5.999 2.706 8.944 7.955 2.542 14.059 2.542 14.059 6.656-1.128 13.032 1.954c2.626 1.27 4.532 3.116 5.877 4.851.33-2.313.938-4.535 1.788-6.634z" fill="#ffd7e5"/></g><g><path d="m117.4 23.077c-.055-4.65 2.929-8.86 2.929-8.86s-11.102 4.073-18.191 8.572-10.651 8.969-10.651 8.969 2.898 10.476 1.117 16.736c-.877 3.084-2.566 5.571-4.184 7.392.85 2.099 1.458 4.321 1.788 6.634 1.345-1.735 3.251-3.581 5.877-4.851 6.375-3.083 13.032-1.954 13.032-1.954s-.402-8.81 2.542-14.059c2.945-5.249 8.944-7.955 8.944-7.955s-3.147-5.974-3.203-10.624z" fill="#ffd7e5"/></g></g><circle cx="62" cy="66.573" fill="#fa759e" r="28.5"/><g><path d="m62 41.073c15.237 0 27.68 11.957 28.46 27 .026-.497.04-.997.04-1.5 0-15.74-12.76-28.5-28.5-28.5s-28.5 12.76-28.5 28.5c0 .503.014 1.003.04 1.5.78-15.043 13.223-27 28.46-27z" fill="#fff"/></g><g fill="#ffd7e5"><path d="m74.856 47.442c-.195.458-.403.906-.621 1.343-.89 1.783.114 3.919 2.076 4.268l2.953.526c1.525.271 3.027-.68 3.369-2.19.239-1.056.426-2.139.538-3.242.946-9.266-7.056-16.592-7.927-16.845-.94-.275 3.078 7.992-.388 16.14z"/><path d="m49.144 47.442c.195.458.403.906.621 1.343.89 1.783-.114 3.919-2.076 4.268l-2.953.526c-1.525.271-3.027-.68-3.369-2.19-.239-1.056-.426-2.139-.538-3.242-.946-9.266 7.056-16.592 7.927-16.845.94-.275-3.078 7.992.388 16.14z"/></g><g><path d="m6.346 87.681 5.5 4.618-7.6 3.079z" fill="#ffd7e5"/><g fill="#3a2c60"><path d="m121.487 33.234c-.03-.058-3.035-5.81-3.087-10.168-.05-4.257 2.718-8.231 2.746-8.271.252-.357.243-.838-.023-1.185s-.726-.482-1.138-.331c-.457.168-11.284 4.162-18.383 8.667-7.147 4.536-10.747 9.001-10.897 9.189-.199.25-.267.582-.182.89.028.102 2.802 10.281 1.119 16.196-.573 2.016-1.574 3.952-2.967 5.776-1.172-2.474-2.679-4.759-4.46-6.799.343-9.438-7.598-16.54-8.69-16.857-.341-.1-.806.003-1.063.246-.542.509-.402 1.131-.065 2.633.352 1.565.919 4.109.888 7.037-3.997-2.026-8.505-3.184-13.285-3.184s-9.289 1.158-13.285 3.185c-.032-2.928.536-5.472.887-7.037.338-1.502.478-2.124-.064-2.633-.257-.242-.724-.344-1.063-.247-1.092.317-9.034 7.418-8.69 16.857-1.782 2.04-3.288 4.325-4.461 6.799-1.393-1.824-2.394-3.759-2.968-5.776-1.683-5.915 1.091-16.094 1.12-16.196.085-.309.018-.64-.182-.89-.149-.188-3.75-4.653-10.897-9.189-7.097-4.506-17.925-8.5-18.383-8.668-.411-.149-.872-.016-1.138.331s-.275.828-.023 1.186c.028.04 2.797 4.014 2.746 8.271-.052 4.35-3.057 10.111-3.087 10.168-.128.244-.15.53-.061.791.089.26.283.473.533.586.057.026 5.742 2.645 8.484 7.533 2.768 4.934 2.419 13.438 2.416 13.524-.014.302.11.593.336.793.227.201.532.286.829.238.063-.011 6.435-1.03 12.43 1.869 1.995.965 3.759 2.409 5.266 4.266-.156 1.225-.245 2.471-.245 3.738 0 16.267 13.233 29.5 29.5 29.5.763 0 1.523-.04 2.281-.099-2.012 4.116-8.647 14.888-22.104 12.46-7.687-1.389-10.696-8.626-13.351-15.011-1.962-4.72-3.658-8.797-6.951-10.135-6.05-2.461-11.267 2.986-13.049 5.171l-1.839-1.544c-.262-.22-.617-.29-.941-.189-.326.102-.577.362-.667.691l-2.1 7.697c-.1.367.017.758.301 1.011.187.166.424.252.664.252.126 0 .254-.024.375-.073l7.6-3.079c.325-.132.558-.424.612-.771.055-.347-.076-.696-.345-.922l-2.125-1.784c1.515-1.839 5.989-6.543 10.759-4.609 2.52 1.024 4.066 4.744 5.857 9.051 2.71 6.517 6.083 14.627 14.842 16.21 1.445.261 2.82.381 4.126.381 13.247 0 19.439-12.34 20.653-15.086 3.36-.53 6.617-1.622 9.595-3.259.483-.266.66-.874.394-1.358s-.873-.661-1.358-.394c-4.027 2.215-8.604 3.387-13.231 3.387-15.164 0-27.5-12.336-27.5-27.5 0-6.213 2.092-11.933 5.58-16.542.089.522.19 1.048.31 1.579.406 1.793 2.01 3.016 3.813 3.016.233 0 .469-.02.707-.063l2.953-.526c1.225-.217 2.247-.977 2.803-2.084.573-1.14.57-2.457-.007-3.613-.209-.419-.408-.849-.595-1.289-.659-1.549-1.024-3.107-1.206-4.609 3.909-2.138 8.381-3.369 13.142-3.369s9.233 1.231 13.141 3.369c-.181 1.502-.547 3.06-1.205 4.609-.188.44-.388.87-.596 1.288-.578 1.157-.581 2.474-.008 3.614.557 1.107 1.578 1.868 2.803 2.085l2.954.526c.237.042.474.063.706.063 1.803 0 3.407-1.223 3.814-3.017.12-.531.221-1.057.31-1.578 3.488 4.609 5.58 10.33 5.58 16.542 0 5.53-1.634 10.861-4.726 15.419-.311.457-.191 1.079.266 1.389s1.079.191 1.389-.266c3.317-4.89 5.071-10.61 5.071-16.542 0-1.267-.089-2.513-.245-3.738 1.507-1.858 3.271-3.301 5.266-4.266 5.994-2.898 12.367-1.879 12.431-1.869.298.047.604-.038.829-.238.226-.2.35-.492.336-.793-.004-.085-.353-8.59 2.415-13.524 2.743-4.889 8.426-7.507 8.483-7.533.251-.114.444-.326.533-.587.093-.259.07-.545-.058-.789zm-115.744 60.459 1.157-4.241 3.03 2.545zm.173-77.533c3.691 1.476 10.552 4.391 15.41 7.474 4.42 2.805 7.45 5.612 9.055 7.264l-25.341 1.69c.968-2.148 2.519-6.105 2.56-9.499.032-2.669-.85-5.17-1.684-6.929zm7.297 25.006c-1.731-3.086-4.41-5.306-6.471-6.687l23.689-1.58-14.569 19.797c-.136-3.137-.684-8.028-2.649-11.53zm15.137 15.602c-4.347-2.102-8.763-2.338-11.351-2.243l13.538-18.396c-.648 3.692-1.184 8.839-.104 12.638.737 2.589 2.088 5.046 4.005 7.317-.519 1.358-.941 2.763-1.256 4.208-1.433-1.481-3.052-2.663-4.832-3.524zm20.53-5.714c-.271.538-.769.908-1.367 1.014l-2.953.526c-1.023.178-1.998-.446-2.22-1.427-.241-1.066-.416-2.117-.519-3.123-.658-6.445 3.285-11.829 5.62-14.317-.675 3.155-1.552 8.619.782 14.105.203.477.419.943.646 1.398.294.59.298 1.254.011 1.824zm33.298-3.009c-.103 1.005-.276 2.056-.519 3.122-.222.982-1.198 1.606-2.219 1.427l-2.954-.526c-.598-.106-1.096-.476-1.366-1.015-.287-.571-.283-1.235.011-1.823.226-.455.442-.92.646-1.397 2.326-5.468 1.463-10.913.789-14.073 2.374 2.521 6.265 7.88 5.612 14.285zm20.497-24.412c4.857-3.083 11.719-5.998 15.409-7.474-.833 1.759-1.715 4.26-1.684 6.93.04 3.394 1.592 7.351 2.559 9.499l-25.343-1.691c1.602-1.649 4.626-4.45 9.059-7.264zm-7.026 33.135c-1.779.861-3.397 2.043-4.832 3.525-.315-1.445-.737-2.85-1.256-4.208 1.918-2.271 3.269-4.729 4.005-7.317 1.081-3.798.545-8.946-.103-12.638l13.538 18.395c-2.589-.095-7.006.143-11.352 2.243zm15.138-15.602c-1.965 3.502-2.512 8.393-2.649 11.53l-14.57-19.798 23.689 1.58c-2.06 1.382-4.739 3.601-6.47 6.688z"/><path d="m82.844 84.512c-1.443 1.675-3.088 3.176-4.888 4.461-.449.321-.554.945-.232 1.395.194.273.502.419.814.419.201 0 .404-.061.58-.186 1.93-1.378 3.693-2.987 5.241-4.783.36-.418.313-1.05-.105-1.411-.417-.359-1.049-.314-1.41.105z"/><path d="m76.79 71.504c3.452-1.854 4.75-8.075 5.2-11.321.112-.809-.778-1.369-1.465-.928l-14.189 9.116c-.609.391-.586 1.286.046 1.638 2.261 1.26 6.939 3.359 10.408 1.495z"/><path d="m57.664 68.371-14.189-9.116c-.687-.441-1.578.119-1.465.928.451 3.246 1.748 9.466 5.2 11.321 3.469 1.864 8.147-.235 10.408-1.495.631-.353.655-1.247.046-1.638z"/><path d="m55.99 85.215c.085 0 .172-.011.258-.034l15.02-4c.533-.142.851-.69.709-1.224-.144-.535-.69-.85-1.225-.709l-15.019 4c-.534.142-.851.69-.709 1.224.119.448.524.743.966.743z"/></g></g></g></g></svg>