<svg id="Layer_1" enable-background="new 0 0 128 128" height="512" viewBox="0 0 128 128" width="512" xmlns="http://www.w3.org/2000/svg"><g><g><path d="m123.969 95.151c0-12.156-8.206-22.425-19.367-25.577 3.806-2.891 6.589-7.044 7.721-11.841.247.064.496.108.747.108 2.224 0 3.965-2.278 3.965-5.187 0-.691-.105-1.342-.284-1.94v-8.75c0-13.647-11.103-24.75-24.75-24.75s-24.751 11.103-24.751 24.751v8.751c-.18.598-.284 1.249-.284 1.939 0 2.908 1.742 5.187 3.966 5.187.252 0 .501-.043.747-.106 1.132 4.796 3.915 8.948 7.721 11.839-5.333 1.505-9.99 4.631-13.4 8.816-3.41-4.185-8.067-7.311-13.398-8.817 3.806-2.891 6.589-7.044 7.721-11.84.247.063.496.107.747.107 2.224 0 3.965-2.278 3.965-5.187 0-.69-.104-1.34-.284-1.938v-8.752c0-13.647-11.103-24.75-24.751-24.75-13.647 0-24.75 11.103-24.75 24.75v8.752c-.179.597-.284 1.248-.284 1.938 0 2.908 1.742 5.187 3.965 5.187.252 0 .501-.043.747-.106 1.132 4.796 3.915 8.948 7.72 11.839-11.161 3.152-19.367 13.421-19.367 25.577v16.875c0 1.522 1.238 2.76 2.76 2.76h110.178c1.654 0 3-1.346 3-3z" fill="#e6e7e8"/></g><g><g><g><path d="m98.167 66.024c-2.978 1.777-6.447 2.816-10.167 2.816s-7.189-1.039-10.167-2.816c-6.475 1.224-12.075 4.897-15.833 10.007-3.758-5.11-9.358-8.783-15.833-10.007-2.978 1.777-6.447 2.816-10.167 2.816s-7.189-1.039-10.167-2.816c-11.843 2.238-20.802 12.633-20.802 25.127v16.635c0 1.105.895 2 2 2h50 7.939 52c1.105 0 2-.895 2-2v-16.635c-.001-12.494-8.96-22.889-20.803-25.127z" fill="#6dc9f7"/><g><path d="m26.562 66.461c-.25-.135-.486-.292-.729-.437-11.843 2.238-20.802 12.633-20.802 25.127v16.635c0 1.105.895 2 2 2h2.401c-.972 0-1.76-.788-1.76-1.76v-16.875c-.001-11.812 8.008-21.749 18.89-24.69z" fill="#fff"/></g></g><g><path d="m36 68.84c-3.28 0-6.366-.808-9.094-2.213-.091.52-.148 1.053-.148 1.599 0 5.104 4.138 9.242 9.242 9.242s9.242-4.138 9.242-9.242c0-.547-.057-1.079-.148-1.599-2.728 1.405-5.814 2.213-9.094 2.213z" fill="#fff"/></g><g><g><g><path d="m57.069 44.468c-.416 0-.811.123-1.171.341v4.145c0 1.135-.099 2.246-.282 3.329.431.345.922.558 1.452.558 1.638 0 2.965-1.874 2.965-4.187.002-2.311-1.326-4.186-2.964-4.186z" fill="#fff"/></g><g><path d="m16.101 48.478v-3.668c-.359-.218-.754-.341-1.171-.341-1.638 0-2.965 1.874-2.965 4.187 0 2.312 1.328 4.187 2.965 4.187.557 0 1.073-.23 1.518-.608-.225-1.223-.347-2.479-.347-3.757z" fill="#fff"/></g></g><path d="m50.996 29.558c-1.793-1.816-4.474-2.342-6.894-1.535-2.089.697-4.946 1.127-8.102 1.127s-6.012-.43-8.102-1.127c-2.42-.807-5.101-.281-6.894 1.535-3.031 3.071-4.903 7.288-4.903 11.944v7.44c0 10.99 8.909 19.899 19.899 19.899 10.99 0 19.899-8.909 19.899-19.899v-7.44c0-4.656-1.872-8.874-4.903-11.944z" fill="#fff"/></g></g><g><g><path d="m88 68.84c-3.28 0-6.366-.808-9.094-2.213-.091.52-.148 1.053-.148 1.599 0 5.104 4.138 9.242 9.242 9.242s9.242-4.138 9.242-9.242c0-.547-.057-1.079-.148-1.599-2.728 1.405-5.814 2.213-9.094 2.213z" fill="#fff"/></g><g><g><g><path d="m109.069 44.468c-.416 0-.811.123-1.171.341v4.145c0 1.135-.099 2.246-.282 3.329.431.345.922.558 1.452.558 1.638 0 2.965-1.874 2.965-4.187.002-2.311-1.326-4.186-2.964-4.186z" fill="#fff"/></g><g><path d="m68.101 48.478v-3.668c-.359-.218-.755-.341-1.171-.341-1.638 0-2.965 1.874-2.965 4.187 0 2.312 1.328 4.187 2.965 4.187.557 0 1.073-.23 1.518-.608-.225-1.223-.347-2.479-.347-3.757z" fill="#fff"/></g></g><path d="m102.996 29.558c-1.793-1.816-4.474-2.342-6.894-1.535-2.09.697-4.946 1.127-8.102 1.127s-6.012-.43-8.102-1.127c-2.42-.807-5.101-.281-6.894 1.535-3.031 3.071-4.903 7.288-4.903 11.944v7.44c0 10.99 8.909 19.899 19.899 19.899 10.99 0 19.899-8.909 19.899-19.899v-7.44c0-4.656-1.872-8.874-4.903-11.944z" fill="#fff"/><g fill="#3a2c60"><path d="m41.207 60.983c.333-.44.247-1.068-.193-1.401-.442-.334-1.068-.246-1.401.193-.012.017-1.27 1.641-3.612 1.641-2.346 0-3.539-1.544-3.602-1.627-.323-.443-.946-.542-1.392-.221-.448.323-.549.948-.226 1.396.072.1 1.809 2.452 5.22 2.452 3.324 0 5.13-2.334 5.206-2.433z"/><path d="m27.221 44.179c-1.099 0-1.99.891-1.99 1.99s.891 1.99 1.99 1.99 1.99-.891 1.99-1.99-.891-1.99-1.99-1.99z"/><path d="m44.779 44.179c-1.099 0-1.99.891-1.99 1.99s.891 1.99 1.99 1.99 1.99-.891 1.99-1.99-.891-1.99-1.99-1.99z"/><path d="m36 56.026c1.799 0 3.263-1.464 3.263-3.263v-1.327c0-.552-.448-1-1-1s-1 .448-1 1v1.327c0 .696-.567 1.263-1.263 1.263s-1.263-.567-1.263-1.263v-1.327c0-.552-.448-1-1-1s-1 .448-1 1v1.327c0 1.8 1.464 3.263 3.263 3.263z"/><path d="m43.244 42.434 3.896.679c.058.01.116.015.173.015.477 0 .899-.342.984-.828.095-.544-.27-1.062-.813-1.157l-3.896-.679c-.548-.092-1.062.27-1.157.813-.095.544.269 1.061.813 1.157z"/><path d="m28.413 40.463-3.896.679c-.544.095-.908.613-.813 1.157.085.486.507.828.984.828.057 0 .115-.005.173-.015l3.896-.679c.544-.095.908-.613.813-1.157-.095-.543-.609-.905-1.157-.813z"/><path d="m100.578 65.592c3.818-2.891 6.611-7.052 7.745-11.859.247.064.496.108.747.108 2.224 0 3.965-2.278 3.965-5.187 0-.691-.105-1.342-.284-1.94v-8.75c0-13.647-11.103-24.75-24.75-24.75s-24.751 11.103-24.751 24.751v8.751c-.18.598-.284 1.249-.284 1.939 0 2.908 1.742 5.187 3.966 5.187.252 0 .501-.043.747-.106 1.134 4.806 3.927 8.966 7.745 11.857-5.353 1.508-10.034 4.633-13.45 8.838-3.413-4.193-8.058-7.33-13.398-8.836 3.82-2.891 6.614-7.053 7.748-11.861.247.063.496.107.747.107 2.224 0 3.965-2.278 3.965-5.187 0-.69-.104-1.34-.284-1.938v-8.752c0-13.647-11.103-24.75-24.751-24.75-13.647 0-24.75 11.103-24.75 24.75v8.752c-.179.597-.284 1.248-.284 1.938 0 2.908 1.742 5.187 3.965 5.187.252 0 .501-.043.747-.106 1.134 4.806 3.927 8.966 7.745 11.857-11.171 3.146-19.393 13.397-19.393 25.559v16.875c0 1.522 1.238 2.76 2.76 2.76h110.178c1.654 0 3-1.346 3-3v-2.303c0-.552-.447-1-1-1s-1 .448-1 1v2.303c0 .551-.448 1-1 1h-12.126v-17.504c0-.552-.447-1-1-1s-1 .448-1 1v17.503h-29.685v-17.503c0-.552-.447-1-1-1s-1 .448-1 1v17.503h-13.127v-17.634c0-11.864 8.459-21.766 19.656-24.055.046.026.09.057.136.083-.039.358-.065.707-.065 1.048 0 5.647 4.595 10.242 10.242 10.242s10.241-4.594 10.241-10.242c0-.34-.026-.69-.065-1.047.047-.026.09-.057.136-.083 11.197 2.289 19.656 12.191 19.656 24.055v3.917c0 .552.447 1 1 1s1-.448 1-1v-3.917c.001-12.163-8.221-22.414-19.39-25.56zm-56.336 2.634c0 4.544-3.697 8.242-8.242 8.242s-8.241-3.697-8.241-8.242c0-.027.004-.056.004-.084 2.53 1.089 5.313 1.698 8.237 1.698 2.925 0 5.708-.609 8.238-1.698 0 .028.004.057.004.084zm12.445-16.471c.125-.923.212-1.857.212-2.813v-3.45c1.093-.141 2.136 1.375 2.136 3.163 0 1.902-1.127 3.549-2.348 3.1zm-43.721-3.1c0-1.787 1.045-3.302 2.136-3.163v3.449c0 .957.087 1.893.213 2.816-1.195.418-2.349-1.199-2.349-3.102zm4.136.286v-7.439c0-4.235 1.639-8.227 4.614-11.242 1.038-1.051 2.445-1.608 3.925-1.608.641 0 1.296.105 1.941.32 2.278.76 5.268 1.178 8.418 1.178 3.151 0 6.141-.418 8.418-1.179 2.134-.709 4.381-.216 5.866 1.289 2.976 3.015 4.615 7.007 4.615 11.242v7.439c0 10.421-8.478 18.899-18.899 18.899-10.42 0-18.898-8.478-18.898-18.899zm38.929 42.21v17.635h-3.188v-17.504c0-.552-.448-1-1-1s-1 .448-1 1v17.503h-29.685v-17.503c0-.552-.448-1-1-1s-1 .448-1 1v17.503h-12.367c-.419 0-.76-.341-.76-.76v-16.874c0-11.864 8.459-21.766 19.656-24.055.046.026.09.057.137.083-.039.356-.065.706-.065 1.047 0 5.647 4.594 10.242 10.241 10.242s10.242-4.594 10.242-10.242c0-.34-.026-.69-.065-1.047.053-.03.102-.064.155-.094 5.821 1.195 10.892 4.454 14.424 8.976-2.974 4.289-4.725 9.486-4.725 15.09zm52.656-39.397c.125-.923.212-1.857.212-2.813v-3.449c1.087-.138 2.135 1.374 2.136 3.163 0 1.902-1.126 3.547-2.348 3.099zm-43.722-3.099c0-1.787 1.045-3.303 2.136-3.163v3.449c0 .957.087 1.892.212 2.816-1.193.416-2.348-1.198-2.348-3.102zm4.136.286v-7.439c0-4.234 1.639-8.227 4.615-11.242 1.037-1.051 2.444-1.608 3.924-1.608.642 0 1.297.104 1.941.32 2.279.76 5.269 1.178 8.419 1.178s6.14-.418 8.418-1.179c2.13-.713 4.379-.217 5.865 1.289 2.977 3.015 4.615 7.007 4.615 11.242v7.439c0 10.421-8.478 18.899-18.898 18.899s-18.899-8.478-18.899-18.899zm27.141 19.285c0 4.544-3.697 8.242-8.241 8.242-4.545 0-8.242-3.697-8.242-8.242 0-.027.004-.057.004-.084 2.53 1.09 5.313 1.698 8.238 1.698 2.924 0 5.708-.609 8.237-1.698 0 .028.004.057.004.084z"/><path d="m118.969 97.332c-.553 0-1 .448-1 1v3.851c0 .552.447 1 1 1s1-.448 1-1v-3.851c0-.553-.447-1-1-1z"/><path d="m93.41 60.379c0-.552-.447-1-1-1h-8.818c-.553 0-1 .448-1 1s.447 1 1 1h8.818c.552 0 1-.448 1-1z"/><path d="m79.221 44.179c-1.099 0-1.99.891-1.99 1.99s.891 1.99 1.99 1.99 1.99-.891 1.99-1.99-.891-1.99-1.99-1.99z"/><path d="m96.779 44.179c-1.099 0-1.99.891-1.99 1.99s.891 1.99 1.99 1.99 1.99-.891 1.99-1.99-.891-1.99-1.99-1.99z"/><path d="m88 56.026c1.799 0 3.263-1.464 3.263-3.263v-1.327c0-.552-.447-1-1-1s-1 .448-1 1v1.327c0 .696-.566 1.263-1.263 1.263s-1.264-.567-1.264-1.263v-1.327c0-.552-.447-1-1-1s-1 .448-1 1v1.327c.001 1.8 1.465 3.263 3.264 3.263z"/><path d="m95.417 42.448c.174 0 .351-.045.511-.141l3.897-2.321c.475-.283.63-.896.348-1.371-.283-.474-.896-.629-1.371-.348l-3.897 2.321c-.475.283-.63.896-.348 1.371.187.315.519.489.86.489z"/><path d="m81.096 40.589-3.896-2.321c-.475-.281-1.088-.126-1.371.348-.282.475-.127 1.088.348 1.371l3.896 2.321c.16.095.337.141.511.141.341 0 .673-.174.86-.488.282-.476.127-1.089-.348-1.372z"/></g></g></g></g></g></svg>