<svg id="Layer_1" enable-background="new 0 0 128 128" height="512" viewBox="0 0 128 128" width="512" xmlns="http://www.w3.org/2000/svg"><g><g><path d="m107.349 43.284c-2.584-2.469-5.293-4.345-7.686-5.731.81-.409 1.601-.926 2.329-1.608 2.835-2.658 3.294-7.35 2.49-10.821-.535-2.314-1.6-3.875-2.922-4.281-1.586-.484-3.306 1.184-5.695 3.488-.938.906-1.91 1.842-2.854 2.609-.717.583-1.443 1.012-2.1 1.34-.34-.469-.694-.925-1.06-1.37.731-1.302 1.41-2.72 1.953-4.179 1.731-4.654 3.946-12.986 1.266-14.692-1.742-1.108-3.192.856-5.6 4.107-1.141 1.54-2.56 3.457-4.272 5.41-.706.805-1.466 1.528-2.234 2.206-4.26-2.181-9.212-3.38-14.665-3.38s-10.405 1.2-14.665 3.38c-.768-.678-1.528-1.401-2.234-2.206-1.713-1.953-3.132-3.87-4.271-5.409-2.409-3.253-3.863-5.212-5.602-4.109-2.68 1.707-.465 10.038 1.267 14.692.543 1.459 1.222 2.878 1.953 4.179-.366.445-.72.901-1.061 1.37-.657-.328-1.383-.757-2.1-1.34-.943-.767-1.914-1.703-2.852-2.607-2.393-2.308-4.12-3.976-5.698-3.489-1.321.407-2.387 1.967-2.922 4.28-.803 3.472-.344 8.164 2.491 10.822.633.594 1.313 1.069 2.012 1.453-2.461 1.4-5.277 3.319-7.964 5.886-4.266 4.075-9.771 13.72-8.462 15.797.689 1.092 2.203.877 4.116.606 1.114-.157 2.376-.334 3.438-.247 1.924.161 3.611.669 4.702 1.074-1.173 1.338-2.977 3.916-4.07 7.998-1.082 4.039-2.33 14.081.169 15.197.86.386 1.733-.183 3.318-1.212 1.399-.909 3.143-2.04 4.99-2.571.289-.083.566-.154.839-.22-1.346 5.979-2.992 11.323-6.472 11.323-3.563 0-4.16-3.364-4.216-3.743-.075-.547-.582-.931-1.126-.854-.548.075-.93.58-.854 1.127.26 1.892 1.889 5.471 6.196 5.471 5.161 0 7.005-6.385 8.608-13.713 1.105-.134 1.991-.136 2.604-.096-.605 2.396-1.73 8.138-.312 13.482.231.868.574 1.739.984 2.588-1.338 3.557-3.311 7.031-5.347 10.617-1.419 2.498-2.886 5.081-4.106 7.685-.356.76-.382 1.642-.071 2.42.311.775.907 1.368 1.681 1.668 11.297 4.394 23.167 6.591 35.036 6.591 11.87 0 23.74-2.197 35.037-6.591.773-.301 1.37-.893 1.681-1.668.311-.778.285-1.66-.071-2.42-1.221-2.604-2.688-5.186-4.105-7.683-2.175-3.831-4.272-7.535-5.606-11.347.263-.616.483-1.239.648-1.861 1.418-5.344.293-11.085-.313-13.481.724-.048 1.822-.04 3.219.182 1.598 7.292 3.448 13.628 8.589 13.628 4.308 0 5.937-3.579 6.196-5.471.075-.545-.305-1.046-.85-1.124-.548-.079-1.051.302-1.131.847-.056.384-.652 3.748-4.216 3.748-3.448 0-5.096-5.245-6.435-11.156.07.019.135.034.205.054 1.849.531 3.591 1.663 4.991 2.572 1.585 1.029 2.459 1.598 3.318 1.212 2.499-1.116 1.251-11.158.169-15.197-1.094-4.083-2.898-6.66-4.071-7.998 1.092-.405 2.779-.913 4.702-1.074 1.063-.089 2.324.088 3.438.247 1.916.27 3.43.484 4.116-.606 1.311-2.08-4.195-11.726-8.46-15.801z" fill="#e6e7e8"/></g><g><g><path d="m88.168 90.501c-1.836 4.092-5.458 7.525-6.37 7.827-.353.117-1.681-4.301-3.811-8.262-2.993 5.969-12.05 11.376-15.689 13.873-3.758-2.578-13.294-8.459-15.962-14.449-2.317 4.096-3.762 8.961-4.132 8.839-.858-.284-4.114-3.335-6.026-7.099-2.329 6.437-6.66 12.477-9.62 18.789-.492 1.049-.013 2.311 1.067 2.732 22.301 8.674 47.047 8.674 69.348 0 1.08-.42 1.559-1.682 1.067-2.732-3.073-6.551-7.617-12.807-9.872-19.518z" fill="#0089ef"/></g><g><path d="m62.298 103.938c-3.046-2.09-9.887-6.35-13.791-11.079-1.985 8.149-5.866 15.791-8.889 23.663 14.899 3.637 30.461 3.637 45.36 0-3.018-7.858-6.891-15.488-8.879-23.621-3.901 4.802-10.75 8.944-13.801 11.037z" fill="#6dc9f7"/></g><path d="m102.659 40.008c-3.22-3.077-6.655-5.207-9.386-6.607-.962.262-1.909.393-2.761.438.908 3.103 1.402 6.521 1.402 10.237 0 7.966-3.222 16.039-7.752 22.781.337.754.551 1.569.615 2.418.22 2.918-1.255 5.504-3.537 6.899.003.083.019.164.019.248 0 6.795-8.489 15.337-18.961 15.337s-18.961-8.542-18.961-15.337c0-.029.006-.058.007-.087-2.277-1.398-3.747-3.984-3.524-6.9.068-.883.304-1.725.666-2.503-4.557-6.758-7.803-14.86-7.803-22.856 0-3.716.494-7.134 1.402-10.237-.964-.051-2.049-.21-3.141-.549-2.764 1.397-6.298 3.561-9.602 6.718-4.826 4.612-9.017 13.414-8.306 14.542.604.958 4.078-.331 6.792-.104 3.602.301 6.375 1.729 6.375 1.729s-3.241 2.549-4.861 8.598c-1.523 5.686-1.649 13.463-.389 14.026.806.36 4-2.79 7.625-3.832 4.46-1.282 7.125-.583 7.125-.583s-2.375 7.438-.615 14.063c1.312 4.939 6.053 9.531 7.115 9.883.37.122 1.815-4.743 4.132-8.839 2.668 5.991 12.205 11.872 15.962 14.449 3.639-2.496 12.696-7.903 15.689-13.873 2.13 3.962 3.458 8.379 3.811 8.262 1.063-.351 5.803-4.944 7.115-9.883 1.76-6.625-.615-14.063-.615-14.063s2.665-.698 7.125.583c3.625 1.042 6.819 4.192 7.625 3.832 1.26-.563 1.134-8.339-.389-14.026-1.62-6.049-4.861-8.598-4.861-8.598s2.773-1.427 6.375-1.729c2.714-.227 6.188 1.063 6.792.104.712-1.128-3.479-9.93-8.305-14.541z" fill="#d4fbff"/><g fill="#0089ef"><path d="m97.267 17.799c-1.506-.463-4.64 3.491-7.625 5.917-1.065.865-2.15 1.439-3.027 1.809 1.667 2.438 2.99 5.216 3.896 8.313 2.084-.109 4.732-.687 6.797-2.622 4-3.75 2.667-12.583-.041-13.417z"/><path d="m37.981 25.525c-.876-.371-1.962-.944-3.027-1.809-2.985-2.425-6.119-6.38-7.625-5.917-2.708.833-4.042 9.667-.042 13.417 2.065 1.936 4.713 2.513 6.797 2.622.906-3.097 2.23-5.874 3.897-8.313z"/></g><path d="m46.054 62.69c.775-.12 1.53-.116 2.25-.009 1.448.217 2.917-.465 3.577-1.772 1.805-3.574 5.785-6.736 10.416-6.736 4.579 0 8.521 3.091 10.354 6.616.67 1.289 2.132 1.964 3.566 1.735.738-.118 1.512-.126 2.308-.005 2.517.383 4.628 2.083 5.636 4.337 4.53-6.743 7.752-14.815 7.752-22.781 0-19.33-13.259-30.692-29.615-30.692s-29.615 11.362-29.615 30.692c0 7.996 3.246 16.098 7.803 22.856 1.022-2.201 3.094-3.859 5.568-4.241z" fill="#ffd7e5"/><g><path d="m62.298 16.382c15.856 0 28.801 10.679 29.578 28.942.017-.417.038-.833.038-1.25 0-19.33-13.259-30.692-29.615-30.692s-29.615 11.362-29.615 30.692c0 .416.02.833.038 1.25.775-18.263 13.72-28.942 29.576-28.942z" fill="#fff"/></g><path d="m84.776 69.274c-.256-3.388-2.892-6.244-6.251-6.755-.796-.121-1.57-.113-2.308.005-1.434.23-2.896-.446-3.566-1.735-1.832-3.525-5.775-6.616-10.354-6.616-4.631 0-8.611 3.161-10.416 6.736-.66 1.307-2.129 1.989-3.577 1.772-.72-.108-1.475-.111-2.25.009-3.349.516-5.975 3.365-6.234 6.744-.223 2.916 1.246 5.502 3.524 6.9 0 .029-.007.058-.007.087 0 6.795 8.489 15.337 18.961 15.337s18.961-8.542 18.961-15.337c0-.084-.017-.165-.019-.248 2.281-1.395 3.756-3.981 3.536-6.899z" fill="#fa759e"/><g fill="#6dc9f7"><path d="m80.282 28.133c1.122-.299 4.603-4.428 6.583-9.75 2.43-6.531 3.182-12.536 1.667-13.5-1.504-.957-3.833 3.917-8.583 9.333-3.672 4.187-8.78 6.566-8.667 8.417.25 4.083 6.5 6.166 9 5.5z"/><path d="m44.313 28.133c-1.122-.299-4.603-4.428-6.583-9.75-2.43-6.531-3.182-12.536-1.667-13.5 1.504-.957 3.833 3.917 8.583 9.333 3.672 4.187 8.78 6.566 8.667 8.417-.25 4.083-6.5 6.166-9 5.5z"/></g><g fill="#fa759e"><path d="m68.989 39.008c-.5-1.333 1.958-7 7.167-7.333 6.646-.425 12.416 8.035 17.375 11.292 2.579 1.693 6.41-.379 6.125-.208-.267.16-2.396 3-5.333 3-7.417 0-11.707-8.574-17.031-9.042-5.22-.459-7.803 3.624-8.303 2.291z"/><path d="m55.607 39.008c.5-1.333-1.958-7-7.167-7.333-6.646-.425-12.416 8.035-17.375 11.292-2.579 1.693-6.41-.379-6.125-.208.267.16 2.396 3 5.333 3 7.417 0 11.707-8.574 17.031-9.042 5.22-.459 7.803 3.624 8.303 2.291z"/></g><g fill="#3a2c60"><path d="m80.369 102.69c-.202-.514-.786-.764-1.297-.563-.514.203-.766.784-.563 1.298.597 1.512 1.222 3.016 1.854 4.519.161.382.532.612.922.612.13 0 .262-.025.388-.079.51-.214.748-.801.534-1.31-.626-1.489-1.246-2.979-1.838-4.477z"/><path d="m103.349 39.284c-2.588-2.473-5.296-4.345-7.689-5.729.811-.409 1.603-.927 2.332-1.61 2.835-2.658 3.294-7.35 2.49-10.821-.535-2.314-1.6-3.875-2.922-4.281-1.586-.484-3.306 1.184-5.695 3.488-.938.906-1.91 1.842-2.854 2.609-.719.584-1.446 1.015-2.104 1.342-.34-.468-.693-.924-1.058-1.368.732-1.303 1.412-2.723 1.955-4.184 1.731-4.654 3.946-12.986 1.266-14.692-1.742-1.108-3.192.856-5.6 4.107-1.141 1.54-2.56 3.457-4.272 5.41-.71.809-1.474 1.536-2.246 2.217-4.259-2.181-9.201-3.391-14.653-3.391s-10.394 1.211-14.653 3.392c-.772-.681-1.537-1.408-2.246-2.217-1.713-1.953-3.132-3.87-4.271-5.409-2.409-3.253-3.863-5.212-5.602-4.109-2.68 1.707-.465 10.038 1.267 14.692.544 1.461 1.224 2.881 1.955 4.184-.365.444-.719.9-1.058 1.368-.658-.327-1.385-.758-2.105-1.342-.943-.767-1.914-1.703-2.852-2.607-2.393-2.308-4.12-3.976-5.698-3.489-1.321.407-2.387 1.967-2.922 4.28-.803 3.472-.344 8.164 2.491 10.822.634.595 1.317 1.062 2.017 1.446-2.459 1.399-5.279 3.322-7.969 5.893-4.266 4.075-9.771 13.72-8.462 15.797.689 1.092 2.203.877 4.116.606 1.114-.157 2.376-.334 3.438-.247 1.924.161 3.611.669 4.702 1.074-1.173 1.338-2.977 3.916-4.07 7.998-1.082 4.039-2.33 14.081.169 15.197.86.386 1.733-.183 3.318-1.212 1.399-.909 3.143-2.04 4.99-2.571.289-.083.566-.154.839-.22-1.346 5.979-2.992 11.323-6.472 11.323-3.563 0-4.16-3.364-4.216-3.743-.075-.547-.582-.931-1.126-.854-.548.075-.93.58-.854 1.127.26 1.892 1.889 5.471 6.196 5.471 5.161 0 7.005-6.385 8.608-13.713 1.105-.134 1.991-.136 2.604-.096-.605 2.396-1.73 8.138-.312 13.482.23.866.572 1.733.981 2.58-1.338 3.559-3.306 7.037-5.343 10.625-1.419 2.498-2.886 5.081-4.106 7.685-.356.76-.382 1.642-.071 2.42.311.775.907 1.368 1.681 1.668 11.297 4.394 23.167 6.591 35.036 6.591 11.87 0 23.74-2.197 35.037-6.591.773-.301 1.37-.893 1.681-1.668.311-.778.285-1.66-.071-2.42-1.221-2.604-2.688-5.186-4.105-7.683-2.175-3.83-4.273-7.534-5.607-11.346.263-.616.484-1.24.649-1.862 1.418-5.344.293-11.085-.313-13.481.724-.048 1.822-.04 3.219.182 1.598 7.292 3.448 13.628 8.589 13.628 4.308 0 5.937-3.579 6.196-5.471.075-.545-.305-1.046-.85-1.124-.548-.079-1.051.302-1.131.847-.056.384-.652 3.748-4.216 3.748-3.448 0-5.096-5.245-6.435-11.156.07.019.135.034.205.054 1.849.531 3.591 1.663 4.991 2.572 1.585 1.029 2.459 1.598 3.318 1.212 2.499-1.116 1.251-11.158.169-15.197-1.094-4.083-2.898-6.66-4.071-7.998 1.092-.405 2.779-.913 4.702-1.074 1.063-.089 2.324.088 3.438.247 1.916.27 3.43.484 4.116-.606 1.31-2.081-4.196-11.727-8.461-15.802zm-13.077-14.792c1.01-.821 2.012-1.788 2.981-2.722 1.245-1.202 3.127-3.016 3.715-3.016h.004c.472.146 1.161 1.09 1.562 2.82.652 2.818.333 6.81-1.909 8.912-1.616 1.515-3.667 2.097-5.436 2.286-.798-2.457-1.861-4.738-3.161-6.82.71-.367 1.477-.837 2.244-1.46zm-5.48 15.427c-2.434-2.039-4.732-3.964-7.414-4.199-.313-.027-.617-.041-.912-.041-2.979 0-5.074 1.308-6.374 2.119-.009.005-.017.01-.024.015.182-.6.55-1.428 1.193-2.288.745-.995 2.379-2.688 4.958-2.853 4.109-.271 8.155 3.516 11.712 6.852 1.76 1.65 3.421 3.208 5.051 4.278.749.492 1.568.729 2.384.805-.335.095-.684.151-1.044.151-3.753-.001-6.69-2.461-9.53-4.839zm-4.091-25.044c1.768-2.015 3.214-3.969 4.376-5.539 1.125-1.52 2.391-3.229 2.979-3.537.582.85.378 5.5-2.128 12.234-1.938 5.211-5.145 8.815-5.918 9.136-1.251.323-3.923-.252-5.791-1.599-.838-.604-1.854-1.615-1.939-3-.01-.503 1.821-1.931 3.033-2.875 1.632-1.271 3.663-2.854 5.388-4.82zm-44.164-9.077c.587.303 1.855 2.017 2.983 3.539 1.162 1.569 2.608 3.523 4.375 5.538 1.724 1.966 3.755 3.55 5.388 4.822 1.211.944 3.042 2.372 3.032 2.874-.085 1.385-1.102 2.396-1.939 3-1.867 1.346-4.538 1.921-5.791 1.599-.773-.321-3.979-3.926-5.917-9.136-2.512-6.752-2.711-11.408-2.131-12.236zm7.518 23.301c.402.107.858.158 1.349.158 1.926 0 4.375-.79 6.142-2.063 1.704-1.229 2.661-2.785 2.766-4.5.095-1.539-1.539-2.812-3.799-4.574-.382-.297-.777-.606-1.176-.925 3.812-1.812 8.176-2.813 12.961-2.813s9.15 1.001 12.961 2.813c-.399.318-.794.627-1.175.924-2.261 1.762-3.895 3.035-3.8 4.574.104 1.715 1.062 3.271 2.766 4.5 1.767 1.273 4.216 2.063 6.142 2.063.49 0 .946-.051 1.349-.158.986-.263 2.607-1.948 4.172-4.317 3.08 3.95 5.125 8.862 5.869 14.477-.421-.388-.848-.787-1.281-1.194-3.852-3.613-8.241-7.708-13.207-7.389-2.719.174-5.212 1.719-6.842 4.24-.902 1.395-1.623 3.31-1.198 4.443.211.561.615.771.838.847.728.247 1.37-.156 2.261-.711 1.295-.808 3.256-2.033 6.052-1.783 2.056.181 4.12 1.91 6.306 3.74 2.142 1.794 4.493 3.755 7.317 4.712-.266 3.67-1.206 7.35-2.623 10.885-.531-.45-1.107-.817-1.746-1.065-5.305-2.055-9.037 2.121-9.194 2.3-.362.415-.32 1.043.093 1.407.413.366 1.046.325 1.41-.087.12-.135 2.986-3.297 6.969-1.754.601.233 1.138.632 1.631 1.146-.93 2.038-2.007 4.016-3.195 5.902-1.291-1.763-3.245-3.024-5.493-3.367-.875-.133-1.755-.131-2.616.007-1.029.164-2.064-.333-2.52-1.209-1.853-3.561-6.047-7.154-11.242-7.154-5.271 0-9.478 3.659-11.308 7.285-.453.897-1.472 1.39-2.537 1.234-.838-.125-1.695-.123-2.551.009-2.207.34-4.13 1.568-5.418 3.287-1.21-1.913-2.308-3.921-3.252-5.992.493-.515 1.03-.914 1.632-1.147 3.971-1.541 6.833 1.602 6.968 1.753.364.415.996.455 1.409.092.416-.364.458-.995.095-1.411-.157-.179-3.897-4.354-9.194-2.3-.639.248-1.215.614-1.747 1.065-1.417-3.535-2.357-7.216-2.623-10.885 2.824-.956 5.175-2.917 7.317-4.712 2.186-1.831 4.25-3.56 6.306-3.74 2.804-.251 4.757.975 6.052 1.783.891.555 1.531.958 2.261.711.223-.076.627-.286.838-.847.425-1.133-.296-3.048-1.198-4.443-1.63-2.521-4.123-4.065-6.842-4.24-5-.316-9.355 3.776-13.207 7.389-.433.407-.86.806-1.281 1.194.744-5.614 2.789-10.527 5.868-14.477 1.559 2.369 3.179 4.054 4.165 4.317zm36.203 47.322c0 6.454-8.288 14.337-17.961 14.337s-17.96-7.883-17.963-14.275c.003-.025.009-.09.009-.116.013-.359-.17-.697-.476-.885-2.066-1.269-3.235-3.557-3.051-5.972.225-2.932 2.491-5.384 5.39-5.832.336-.052.673-.078 1.007-.078.317 0 .632.023.942.07 1.925.292 3.776-.642 4.619-2.311 1.554-3.079 5.101-6.186 9.522-6.186 4.356 0 7.895 3.052 9.467 6.077.861 1.657 2.71 2.564 4.611 2.261.655-.104 1.328-.106 1.999-.004 2.91.443 5.183 2.899 5.404 5.841.183 2.417-.99 4.705-3.062 5.971-.308.188-.49.528-.478.888.005.064.011.126.021.214zm-43.593-36.897c3.556-3.335 7.566-7.111 11.712-6.852 2.579.165 4.213 1.858 4.958 2.853.644.86 1.012 1.688 1.193 2.288-.008-.005-.016-.01-.024-.015-1.429-.891-3.819-2.381-7.286-2.078-2.682.235-4.98 2.161-7.414 4.199-2.84 2.378-5.776 4.838-9.529 4.838-.359 0-.708-.055-1.041-.15.813-.076 1.633-.314 2.381-.806 1.629-1.069 3.29-2.628 5.05-4.277zm-10.603-17.95c.4-1.73 1.09-2.675 1.526-2.813h.007c.627 0 2.505 1.811 3.749 3.011.968.934 1.97 1.899 2.979 2.72.768.623 1.535 1.093 2.245 1.46-1.301 2.083-2.365 4.366-3.163 6.825-1.765-.189-3.812-.772-5.434-2.291-2.242-2.102-2.561-6.093-1.909-8.912zm2.239 52.431c-2.134.613-4.095 1.886-5.526 2.815-.469.305-1.02.662-1.391.861-.503-1.621-.435-7.58.924-12.651 1.503-5.609 4.486-8.05 4.513-8.071.268-.21.41-.543.377-.881-.032-.339-.234-.638-.537-.794-.12-.062-2.992-1.522-6.75-1.836-1.287-.108-2.667.087-3.884.259-.65.092-1.571.222-2.054.201.278-1.869 3.675-8.989 8.06-13.178 3.076-2.939 6.37-4.994 9.014-6.36.611.167 1.213.283 1.793.359-.53 2.051-.885 4.208-1.048 6.461-.433.346-.86.667-1.275.94-1.708 1.12-4.351.077-5.119-.268-.486-.218-1.114-.047-1.358.422-.228.437-.09.976.296 1.269.039.039.093.097.161.168.792.831 2.896 3.037 5.778 3.037.523 0 1.029-.042 1.522-.114.336 4.114 1.448 8.204 3.101 12.089-2.271 3.264-3.414 8.608-4.524 13.836-.07.329-.14.658-.21.987-.585.115-1.204.26-1.863.449zm-.863 37.264c-.106-.266-.098-.567.024-.828 1.188-2.534 2.636-5.082 4.035-7.547 1.739-3.063 3.484-6.183 4.845-9.408 1.956 3.042 4.49 5.441 5.547 5.791 1.063.352 1.381-.46 2.351-2.853.548-1.355 1.251-3.091 2.109-4.822.316.494.677.984 1.059 1.47-1.368 5.41-3.549 10.617-5.702 15.713-.903 2.138-1.824 4.341-2.688 6.544-3.723-.948-7.41-2.102-11.033-3.511-.25-.099-.445-.293-.547-.549zm65.661-8.372c1.399 2.464 2.846 5.012 4.034 7.545.122.26.131.562.024.827-.102.255-.297.45-.548.547-3.62 1.408-7.305 2.562-11.026 3.51-.666-1.698-1.348-3.345-1.945-4.763-.215-.51-.803-.747-1.31-.534-.509.214-.748.8-.534 1.31.564 1.34 1.205 2.885 1.834 4.48-14.045 3.26-28.61 3.26-42.654.002.829-2.101 1.708-4.209 2.573-6.258 2.01-4.758 4.045-9.611 5.451-14.666 3.502 3.671 8.326 6.908 11.346 8.931.519.347.985.66 1.387.935.17.117.368.175.565.175s.396-.059.565-.175c.464-.318 1.017-.684 1.634-1.092 3.124-2.068 7.75-5.135 11.129-8.709.448 1.619.955 3.277 1.584 5.03.146.409.531.663.941.663.112 0 .226-.019.338-.059.52-.187.79-.759.604-1.279-.78-2.174-1.399-4.218-1.894-6.181.253-.327.496-.657.721-.99.742 1.555 1.359 3.081 1.844 4.278.969 2.395 1.301 3.2 2.348 2.852 1.121-.37 3.902-3.046 5.894-6.35 1.389 3.429 3.254 6.729 5.095 9.971zm-5.056-29.482c-.265.069-.489.245-.622.485-.132.24-.16.524-.077.786.023.072 2.263 7.249.603 13.502-1.003 3.775-4.279 7.457-5.815 8.74-.157-.37-.342-.826-.515-1.253-.668-1.653-1.584-3.916-2.749-6.083-.178-.33-.564-.542-.896-.526-.373.005-.712.218-.879.552-2.489 4.964-9.508 9.609-13.7 12.385-.393.26-.76.503-1.095.728-.262-.177-.542-.365-.84-.564-4.175-2.796-11.945-8-14.21-13.084-.153-.345-.488-.574-.865-.592-.016 0-.032-.001-.048-.001-.359 0-.692.193-.87.508-1.321 2.335-2.338 4.844-3.08 6.676-.173.427-.357.883-.515 1.252-1.547-1.29-4.815-4.967-5.816-8.737-1.661-6.254.578-13.43.602-13.502.083-.261.055-.545-.077-.786s-.357-.416-.622-.485c-.081-.021-1.408-.352-3.685-.159.019-.091.038-.18.058-.271.957-4.505 1.938-9.104 3.558-12.088 1.026 2.114 2.199 4.156 3.483 6.093-.292.748-.485 1.542-.548 2.368-.228 2.977 1.113 5.807 3.525 7.516.353 7.306 9.117 15.884 19.949 15.884 10.918 0 19.736-8.714 19.957-16.058 2.405-1.708 3.743-4.53 3.519-7.501-.059-.791-.237-1.552-.507-2.272 1.268-1.918 2.427-3.938 3.441-6.03 1.62 2.984 2.602 7.583 3.558 12.088.024.112.047.222.071.333-2.647-.314-4.204.073-4.293.096zm19.93-19.707c-1.217-.172-2.6-.367-3.884-.259-3.757.314-6.629 1.774-6.75 1.836-.303.156-.505.455-.537.794-.033.339.109.671.377.881.029.023 2.997 2.409 4.514 8.071 1.358 5.071 1.426 11.03.924 12.651-.371-.199-.922-.557-1.391-.861-1.432-.93-3.393-2.203-5.527-2.816-.43-.124-.839-.224-1.238-.315-.08-.373-.159-.747-.239-1.12-1.109-5.228-2.253-10.572-4.524-13.836 1.653-3.886 2.765-7.975 3.101-12.089.493.072.999.113 1.522.113 2.882 0 4.986-2.206 5.778-3.037.068-.071.122-.129.161-.168.386-.292.523-.833.296-1.269-.246-.469-.873-.64-1.359-.422-.769.347-3.414 1.387-5.118.268-.416-.273-.842-.594-1.275-.94-.162-2.253-.518-4.41-1.048-6.461.451-.059.917-.147 1.389-.26 2.607 1.363 5.813 3.385 8.823 6.261 4.384 4.189 7.781 11.31 8.06 13.178-.476.021-1.404-.109-2.055-.2z"/><circle cx="49.942" cy="44.03" r="3.47"/><path d="m74.653 47.5c1.917 0 3.47-1.554 3.47-3.47s-1.553-3.47-3.47-3.47c-1.916 0-3.47 1.554-3.47 3.47s1.554 3.47 3.47 3.47z"/><path d="m46.448 67.133c-1.298 0-2.35 1.052-2.35 2.35s1.052 2.35 2.35 2.35 2.35-1.052 2.35-2.35-1.052-2.35-2.35-2.35z"/><path d="m77.781 67.133c-1.298 0-2.35 1.052-2.35 2.35s1.052 2.35 2.35 2.35 2.35-1.052 2.35-2.35-1.052-2.35-2.35-2.35z"/><path d="m72.127 76.797h-19.676c-.902 0-1.388 1.03-.842 1.748 1.781 2.343 5.891 4.877 10.678 4.877 4.832 0 8.974-2.581 10.728-4.942.516-.694-.023-1.683-.888-1.683z"/></g><g><g><path d="m54.218 80.923c1.07.722 2.335 1.359 3.739 1.81-.347-3.235-.938-7.437-1.677-7.521-.642-.074-1.449 2.913-2.062 5.711z" fill="#fff"/></g><g><path d="m70.375 80.91c-.612-2.794-1.418-5.772-2.06-5.699-.738.084-1.329 4.28-1.676 7.514 1.403-.452 2.667-1.092 3.736-1.815z" fill="#fff"/></g></g></g></g></svg>