<svg id="Layer_1" enable-background="new 0 0 128 128" height="512" viewBox="0 0 128 128" width="512" xmlns="http://www.w3.org/2000/svg"><g><g><path d="m94.033 94.471c-.041-.05-.082-.097-.131-.138-1.95-2.051-4.184-3.828-6.642-5.266 1.318-.785 2.525-1.768 3.573-3.073 2.882-3.587 3.659-9.678 3.542-15.752 1.985-.551 3.433-2.824 3.433-5.627 0-3.228-1.919-5.756-4.369-5.756-.044 0-.087.008-.131.009-.423-2.697-.87-4.88-1.15-6.15 2.452-.271 4.372-2.332 4.372-4.854 0-2.707-2.202-4.909-4.908-4.909h-2.344c-3.1-7.831-7.985-15.814-12.761-23.605-1.692-2.76-3.441-5.615-5.056-8.379-1.183-1.984-3.224-3.168-5.461-3.168s-4.278 1.184-5.465 3.174c-1.61 2.756-3.359 5.611-5.052 8.371-4.775 7.791-9.661 15.774-12.761 23.605h-2.344c-2.706 0-4.908 2.202-4.908 4.909 0 2.523 1.921 4.583 4.372 4.854-.28 1.27-.727 3.453-1.15 6.15-.044-.002-.087-.009-.131-.009-2.45 0-4.369 2.528-4.369 5.756 0 2.803 1.448 5.076 3.433 5.627-.116 6.074.661 12.165 3.542 15.753 1.048 1.304 2.255 2.288 3.573 3.073-2.457 1.438-4.691 3.214-6.641 5.265-.051.041-.092.089-.134.141-5.05 5.38-8.152 12.608-8.152 20.551v6.173c0 1.654 1.346 3 3 3h66.373c1.654 0 3-1.346 3-3v-6.173c0-7.943-3.103-15.172-8.153-20.552z" fill="#e6e7e8"/></g><g><path d="m81.14 85.041c-3.281 1.483-7.173 2.097-11.113 3.389-5.226 1.713-8.027 4.937-8.027 4.937s-2.801-3.225-8.027-4.938c-3.941-1.292-7.832-1.905-11.113-3.389-9.513 4.775-16.047 14.613-16.047 25.983v6.173c0 1.105.896 2 2 2h66.373c1.105 0 2-.895 2-2v-6.173c0-11.369-6.533-21.207-16.046-25.982z" fill="#6dc9f7"/><g fill="#fa759e"><path d="m56.977 112.346h-13.188v6.85h11.607c-.209-.66-.323-1.362-.323-2.091.001-1.844.727-3.517 1.904-4.759z"/><path d="m67.023 112.346c1.177 1.242 1.903 2.914 1.903 4.76 0 .729-.114 1.431-.323 2.091h11.607v-6.85h-13.187z"/></g><path d="m68.926 117.106c0-3.825-3.101-6.927-6.927-6.927s-6.927 3.101-6.927 6.927c0 .729.114 1.431.323 2.091h13.208c.209-.66.323-1.362.323-2.091z" fill="#ffd7e5"/><path d="m86.914 47.771h-49.829s-6.092 24.938.862 33.597c3.765 4.687 9.838 5.034 16.026 7.062 5.226 1.713 8.027 4.937 8.027 4.937s2.801-3.225 8.027-4.938c6.187-2.028 12.261-2.375 16.026-7.062 6.954-8.658.861-33.596.861-33.596z" fill="#d4fbff"/><path d="m62 93.367s-2.505-2.879-7.192-4.641l7.192 12.768 7.192-12.768c-4.687 1.762-7.192 4.641-7.192 4.641z" fill="#fff"/><g><g fill="#fff"><path d="m35.53 56.084c-.309-.132-.629-.226-.968-.226-1.861 0-3.369 2.13-3.369 4.757s1.508 4.757 3.369 4.757c.032 0 .062-.008.093-.009.113-3.261.468-6.493.875-9.279z"/><path d="m89.438 55.858c-.339 0-.66.094-.968.226.406 2.787.761 6.018.875 9.278.031.001.062.009.093.009 1.861 0 3.369-2.13 3.369-4.757s-1.508-4.756-3.369-4.756z"/></g><path d="m86.914 47.771h-49.829s-6.092 24.938.862 33.597c3.765 4.687 9.838 5.034 16.026 7.062 5.226 1.713 8.027 4.937 8.027 4.937s2.801-3.225 8.027-4.938c6.187-2.028 12.261-2.375 16.026-7.062 6.954-8.658.861-33.596.861-33.596z" fill="#d4fbff"/><path d="m39.392 47.771v13.184c0 12.486 10.122 22.608 22.608 22.608 12.486 0 22.608-10.122 22.608-22.608v-13.184z" fill="#fff"/><g><path d="m66.602 7.482c-2.129-3.572-7.075-3.572-9.204 0-7.704 13.195-17.741 27.214-20.313 40.289h49.829c-2.571-13.075-12.608-27.094-20.312-40.289z" fill="#0089ef"/><g><path d="m63.5 5.031c-2.201-.657-4.733.154-6.102 2.451-7.704 13.195-17.741 27.214-20.313 40.289h3c2.571-13.075 12.608-27.094 20.313-40.289.76-1.275 1.881-2.086 3.102-2.451z" fill="#fff"/></g><path d="m87.621 39.954h-51.242c-2.159 0-3.909 1.75-3.909 3.909s1.75 3.909 3.909 3.909h51.242c2.159 0 3.909-1.75 3.909-3.909s-1.75-3.909-3.909-3.909z" fill="#6dc9f7"/></g><g fill="#d4fbff"><path d="m62.026 73.398c-.207-.553.812-2.904 2.973-3.042 2.757-.176 5.151 3.333 7.208 4.684 1.07.702 2.659-.157 2.541-.086-.111.067-.727 2.518-2.852 2.518-3.358 0-4.872-2.433-6.917-3.292-2.083-.875-2.745-.229-2.953-.782z"/><path d="m61.974 73.398c.207-.553-.812-2.904-2.973-3.042-2.757-.176-5.151 3.333-7.208 4.684-1.07.702-2.659-.157-2.541-.086.111.067.727 2.518 2.852 2.518 3.358 0 4.872-2.433 6.917-3.292 2.083-.875 2.745-.229 2.953-.782z"/></g><g fill="#3a2c60"><path d="m83.247 85.074c1.322-.786 2.534-1.772 3.584-3.08 2.882-3.588 3.659-9.679 3.543-15.753 1.985-.55 3.433-2.824 3.433-5.627 0-3.228-1.919-5.756-4.369-5.756-.044 0-.087.01-.131.012-.423-2.698-.871-4.883-1.151-6.153 2.452-.271 4.372-2.332 4.372-4.854 0-2.707-2.202-4.909-4.908-4.909h-2.348c-.417-1.058-.863-2.134-1.368-3.251-.228-.503-.819-.728-1.323-.499-.503.228-.727.82-.499 1.323.376.832.711 1.634 1.032 2.427h-42.217c3.051-7.442 7.714-15.089 12.292-22.559 1.697-2.77 3.453-5.634 5.069-8.401.817-1.372 2.217-2.191 3.742-2.191s2.925.819 3.738 2.183c1.62 2.774 3.375 5.637 5.071 8.405 1.906 3.11 3.877 6.325 5.709 9.497.276.477.888.642 1.366.365.479-.276.643-.888.366-1.366-1.846-3.193-3.823-6.42-5.736-9.541-1.691-2.76-3.44-5.613-5.054-8.377-1.182-1.982-3.223-3.166-5.46-3.166s-4.278 1.184-5.465 3.174c-1.61 2.757-3.359 5.611-5.052 8.372-4.776 7.791-9.645 15.773-12.744 23.604h-2.36c-2.706 0-4.908 2.202-4.908 4.909 0 2.523 1.92 4.583 4.371 4.854-.28 1.27-.727 3.455-1.151 6.153-.044-.002-.086-.012-.13-.012-2.45 0-4.369 2.528-4.369 5.756 0 2.803 1.448 5.076 3.433 5.627-.116 6.074.661 12.165 3.543 15.753 1.051 1.308 2.263 2.294 3.585 3.08-8.922 5.219-14.939 14.888-14.939 25.95v6.173c0 1.654 1.346 3 3 3h66.373c1.654 0 3-1.346 3-3v-6.173c0-11.061-6.018-20.729-14.94-25.949zm8.561-24.46c0 1.556-.64 2.939-1.51 3.494-.13-2.53-.39-5.001-.696-7.235 1.185.145 2.206 1.797 2.206 3.741zm-58.337-16.752c0-1.604 1.305-2.909 2.908-2.909h51.242c1.604 0 2.908 1.305 2.908 2.909s-1.305 2.909-2.908 2.909h-51.242c-1.604 0-2.908-1.305-2.908-2.909zm6.921 4.909h43.217v12.184c0 11.915-9.693 21.608-21.608 21.608s-21.609-9.693-21.609-21.608zm-8.2 11.843c0-1.946.994-3.587 2.203-3.729-.305 2.231-.564 4.697-.694 7.222-.869-.555-1.509-1.938-1.509-3.493zm6.535 20.128c-5.905-7.353-1.777-27.763-.845-31.971h.51v12.184c0 13.018 10.591 23.608 23.608 23.608s23.608-10.591 23.608-23.608v-12.184h.509c.934 4.208 5.062 24.618-.845 31.971-2.615 3.255-6.457 4.257-10.905 5.418-1.511.395-3.073.802-4.652 1.32-3.906 1.28-6.515 3.356-7.715 4.471-1.2-1.115-3.809-3.191-7.715-4.471-1.579-.518-3.142-.925-4.653-1.32-4.448-1.161-8.29-2.163-10.905-5.418zm23.273 18.715-4.791-8.505c2.609 1.476 4.017 3.051 4.036 3.072.189.219.465.344.755.344s.565-.125.755-.344c.019-.022 1.416-1.598 4.039-3.077zm-12.873-11.362c1.482.387 3.015.787 4.535 1.285.157.052.306.108.458.163l6.88 12.213v3.09c0 .552.447 1 1 1s1-.448 1-1v-3.09l6.88-12.214c.153-.054.301-.111.458-.163 1.521-.499 3.053-.898 4.534-1.285 2.163-.564 4.266-1.118 6.206-1.935 2.379 1.244 4.558 2.816 6.476 4.66-5.11 2.755-8.343 8.088-8.343 13.976v6.55h-11.782c-1.42-1.339-3.328-2.167-5.429-2.167s-4.009.827-5.429 2.167h-11.782v-6.55c0-5.888-3.234-11.221-8.344-13.976 1.919-1.845 4.097-3.416 6.476-4.66 1.94.819 4.044 1.372 6.206 1.936zm18.8 29.011c0 .367-.034.732-.102 1.091h-11.65c-.067-.359-.102-.724-.102-1.091 0-3.268 2.659-5.926 5.927-5.926s5.927 2.658 5.927 5.926zm1.049-3.76h10.235v4.851h-9.368c.05-.361.083-.725.083-1.091.001-1.36-.344-2.64-.95-3.76zm-41.162 3.851v-6.173c0-7.183 2.722-13.734 7.178-18.701 4.757 2.321 7.798 7.136 7.798 12.474v7.55 5.851h-13.976c-.552-.001-1-.45-1-1.001zm16.975-3.851h10.235c-.606 1.12-.951 2.4-.951 3.76 0 .366.033.73.083 1.091h-9.368v-4.851zm51.398 3.851c0 .551-.448 1-1 1h-13.976v-5.851-7.55c0-5.338 3.04-10.153 7.797-12.474 4.456 4.967 7.178 11.518 7.178 18.701v6.174z"/><path d="m78.217 28.891c.896 1.624 1.688 3.127 2.418 4.594.176.351.529.554.896.554.149 0 .302-.034.445-.105.494-.246.695-.847.449-1.341-.744-1.493-1.548-3.021-2.459-4.669-.266-.482-.874-.66-1.358-.392-.483.267-.659.875-.391 1.359z"/><path d="m74.318 74.048c-.494.222-1.199.395-1.563.156-.573-.376-1.219-.982-1.902-1.623-1.685-1.581-3.593-3.37-5.918-3.224-1.128.072-2.17.629-2.936 1.546-.765-.917-1.807-1.474-2.936-1.546-2.315-.145-4.232 1.644-5.918 3.224-.684.641-1.329 1.247-1.902 1.623-.363.239-1.069.065-1.563-.156-.484-.219-1.077-.03-1.322.437-.17.326-.141.706.045 1l.026.062c.818 1.94 2.055 2.924 3.673 2.924 2.095 0 3.577-.835 4.775-1.683.877.809 2.579 1.974 5.121 1.974 2.498 0 4.223-1.177 5.111-1.981 1.2.85 2.684 1.69 4.786 1.69 1.618 0 2.854-.984 3.673-2.924l.026-.062c.186-.294.215-.674.045-1-.243-.467-.836-.655-1.321-.437zm-22.968 2.219c.337-.061.675-.182.992-.391.718-.472 1.425-1.134 2.173-1.836 1.388-1.303 2.92-2.787 4.423-2.687.963.062 1.584.787 1.873 1.335-.509.043-1.218.166-2.178.569-.81.34-1.521.873-2.211 1.389-1.254.938-2.438 1.825-4.318 1.825-.291 0-.54-.075-.754-.204zm7.194-.684c.291-.193.577-.361.864-.481.973-.409 1.537-.426 1.949-.438.163-.005.399-.016.643-.083.244.067.479.078.643.083.412.012.977.029 1.949.438.281.118.563.283.849.472-.696.543-1.846 1.189-3.44 1.189-1.634-.001-2.776-.641-3.457-1.18zm13.353.888c-1.881 0-3.065-.886-4.318-1.825-.689-.516-1.401-1.049-2.211-1.389-.96-.403-1.669-.526-2.178-.569.289-.548.91-1.274 1.873-1.335 1.492-.101 3.034 1.384 4.423 2.687.748.702 1.455 1.364 2.173 1.836.318.208.655.33.992.391-.215.129-.463.204-.754.204z"/><path d="m51.627 60.051c1.249 0 2.261-1.012 2.261-2.261s-1.012-2.261-2.261-2.261-2.261 1.012-2.261 2.261 1.012 2.261 2.261 2.261z"/><path d="m69.314 57.791c0 1.249 1.012 2.261 2.261 2.261s2.261-1.012 2.261-2.261-1.012-2.261-2.261-2.261c-1.248 0-2.261 1.012-2.261 2.261z"/><path d="m62 68.854c1.969 0 3.571-1.602 3.571-3.571v-1.507c0-.552-.447-1-1-1s-1 .448-1 1v1.507c0 .866-.705 1.571-1.571 1.571s-1.571-.705-1.571-1.571v-1.507c0-.552-.447-1-1-1s-1 .448-1 1v1.507c0 1.968 1.602 3.571 3.571 3.571z"/><path d="m69.855 53.412 4.428.771c.059.01.116.015.173.015.478 0 .899-.342.984-.829.095-.544-.27-1.062-.813-1.157l-4.428-.771c-.554-.092-1.063.27-1.157.814s.269 1.062.813 1.157z"/><path d="m48.747 54.198c.057 0 .114-.005.173-.015l4.428-.771c.544-.095.908-.613.813-1.157s-.603-.907-1.157-.814l-4.428.771c-.544.095-.908.613-.813 1.157.085.486.507.829.984.829z"/><path d="m72.508 63.294c.905 0 1.718-.23 2.229-.471.25-.118.357-.416.239-.665-.117-.25-.417-.359-.665-.239-.026.013-2.665 1.225-4.464-.774-.187-.206-.502-.222-.707-.037s-.222.501-.037.706c1.015 1.126 2.282 1.48 3.405 1.48z"/><path d="m49.688 61.918c-.248-.113-.547-.009-.664.242-.117.25-.011.546.239.664.512.241 1.324.471 2.229.471 1.123 0 2.39-.354 3.404-1.481.185-.205.168-.521-.037-.706-.204-.184-.521-.168-.707.037-1.787 1.984-4.357.823-4.464.773z"/></g></g></g></g></svg>