<svg id="Layer_1" enable-background="new 0 0 128 128" height="512" viewBox="0 0 128 128" width="512" xmlns="http://www.w3.org/2000/svg"><g><path d="m87.307 88.97c.756-.373 1.34-.707 1.789-1.006.702 1.341 2.091 2.268 3.706 2.268 2.314 0 4.198-1.883 4.198-4.198s-1.884-4.199-4.198-4.199c-1.716 0-3.19 1.038-3.841 2.516-.807-.426-2.021-.95-3.818-1.602 1.818-2.517 3.151-5.403 3.866-8.525.306.09.617.149.93.149 3.492 0 4.369-13.619 4.369-13.757 0-1.094-.574-1.463-.916-1.586-.988-.353-2.004.449-3.783 2.514v-13.56-.314c0-1.173-.671-2.187-1.751-2.646-.024-.01-.049-.015-.073-.025l-18.454-27.085c1.608-1.077 2.669-2.91 2.669-4.987 0-3.309-2.691-6-6-6s-6 2.691-6 6c0 2.077 1.061 3.91 2.669 4.987l-18.457 27.09c-.023.009-.047.014-.07.024-1.08.458-1.751 1.473-1.751 2.646v.31 13.562c-1.781-2.067-2.804-2.868-3.783-2.515-.342.123-.916.492-.916 1.586 0 .138.877 13.757 4.369 13.757.313 0 .623-.059.93-.149.714 3.122 2.047 6.008 3.866 8.525-1.796.652-3.011 1.176-3.818 1.602-.651-1.479-2.125-2.516-3.841-2.516-2.314 0-4.198 1.883-4.198 4.199 0 2.315 1.884 4.198 4.198 4.198 1.615 0 3.004-.927 3.706-2.268.449.299 1.032.633 1.789 1.006-8.893 5.227-14.879 14.89-14.879 25.93v7.173c0 1.654 1.346 3 3 3h66.373c1.654 0 3-1.346 3-3v-7.174c-.001-11.04-5.987-20.703-14.88-25.93z" fill="#e6e7e8"/><g><g><g><path d="m81.039 84.865c-3.037 1.264-6.473 2.369-6.473 2.369s5.296 10.313 4.124 11.485-11.485-4.124-11.485-4.124-3.547 11.036-5.205 11.036-5.205-11.037-5.205-11.037-10.312 5.296-11.485 4.124c-1.172-1.172 4.124-11.485 4.124-11.485s-3.435-1.104-6.473-2.369c-9.568 4.757-16.147 14.626-16.147 26.036v7.173c0 1.105.896 2 2 2h66.373c1.105 0 2-.895 2-2v-7.173c-.001-11.41-6.58-21.279-16.148-26.035z" fill="#ffd7e5"/></g><g><path d="m85.603 82.028c0-.551-2.612-1.608-6.092-2.773-4.146 5.072-10.45 8.311-17.511 8.311-7.062 0-13.365-3.239-17.511-8.311-3.48 1.165-6.092 2.222-6.092 2.773 0 1.658 11.037 5.205 11.037 5.205s-5.296 10.313-4.124 11.485 11.485-4.124 11.485-4.124 3.547 11.037 5.205 11.037 5.205-11.037 5.205-11.037 10.313 5.296 11.485 4.124-4.124-11.485-4.124-11.485 11.037-3.547 11.037-5.205z" fill="#fa759e"/><g fill="#6dc9f7"><path d="m42.89 97.624c-1.767 0-3.198 1.432-3.198 3.198s1.432 3.198 3.198 3.198 3.198-1.432 3.198-3.198c.001-1.766-1.431-3.198-3.198-3.198z"/><g><circle cx="88.802" cy="82.033" r="3.198"/><path d="m35.199 78.835c-1.767 0-3.198 1.432-3.198 3.198s1.432 3.198 3.198 3.198 3.198-1.432 3.198-3.198-1.432-3.198-3.198-3.198z"/></g><circle cx="62" cy="108.83" r="3.198"/><path d="m81.092 97.61c-1.767 0-3.198 1.432-3.198 3.198s1.432 3.198 3.198 3.198 3.198-1.432 3.198-3.198-1.432-3.198-3.198-3.198z"/></g></g></g><g><g fill="#fff"><path d="m84.608 60.248v4.709c0 1.289-.114 2.552-.321 3.782.49.392 1.048.634 1.651.634 1.861 0 3.369-10.13 3.369-12.757s-4.29 3.384-4.699 3.632z"/><path d="m39.392 64.958v-4.709c-.408-.248-4.699-6.258-4.699-3.631s1.508 12.757 3.369 12.757c.603 0 1.161-.242 1.651-.634-.208-1.232-.321-2.494-.321-3.783z"/><path d="m39.392 49.479v15.479c0 12.486 10.122 22.608 22.608 22.608 12.486 0 22.608-10.122 22.608-22.608v-15.479z"/></g><path d="m63.877 13.556c-.58.236-1.212.371-1.877.371s-1.297-.136-1.877-.371l-20.731 30.428v5.495h45.217v-5.495z" fill="#6dc9f7"/><circle cx="62" cy="8.927" fill="#fa759e" r="5"/><path d="m62 6.927c2.235 0 4.105 1.477 4.746 3.5.15-.476.254-.973.254-1.5 0-2.761-2.239-5-5-5s-5 2.239-5 5c0 .526.104 1.024.254 1.5.64-2.023 2.511-3.5 4.746-3.5z" fill="#fff"/><g><path d="m42.568 42.325 2.473 2.388 4.348-4.198c.726-.701 1.878-.701 2.604 0l4.348 4.198 4.349-4.198c.727-.701 1.878-.701 2.604 0l4.346 4.198 4.352-4.2c.726-.701 1.877-.701 2.603 0l4.355 4.2 2.481-2.393c1.19-1.148 3.176-.304 3.176 1.349v5.809h-45.216v-5.805c0-1.654 1.987-2.497 3.177-1.348z" fill="#fa759e"/><g fill="#3a2c60"><path d="m83.292 84.976c.762-.375 1.352-.712 1.803-1.012.702 1.341 2.091 2.268 3.707 2.268 2.314 0 4.198-1.883 4.198-4.199 0-2.315-1.884-4.198-4.198-4.198-1.718 0-3.194 1.039-3.844 2.52-.806-.427-2.013-.95-3.816-1.604 1.819-2.517 3.152-5.404 3.867-8.526.306.09.617.149.93.149 3.492 0 4.369-13.619 4.369-13.756 0-1.094-.574-1.463-.916-1.586-.988-.35-2.004.449-3.783 2.515v-8.066-5.495-.316c0-1.173-.671-2.187-1.751-2.646-.024-.01-.049-.016-.073-.025l-18.454-27.084c1.608-1.078 2.669-2.911 2.669-4.987 0-3.309-2.691-6-6-6s-6 2.691-6 6c0 2.077 1.061 3.91 2.669 4.987l-18.456 27.088c-.023.009-.047.014-.07.024-1.08.459-1.751 1.473-1.751 2.646v.31 5.495 8.067c-1.779-2.064-2.799-2.866-3.783-2.515-.342.123-.916.493-.916 1.586 0 .138.877 13.756 4.369 13.756.313 0 .623-.059.93-.149.714 3.122 2.048 6.009 3.867 8.526-1.803.654-3.01 1.178-3.817 1.605-.65-1.481-2.126-2.52-3.843-2.52-2.314 0-4.198 1.883-4.198 4.198s1.884 4.199 4.198 4.199c1.615 0 3.004-.927 3.706-2.268.451.3 1.042.637 1.803 1.012-8.897 5.226-14.894 14.88-14.894 25.923v7.172c0 1.654 1.346 3 3 3h25.936c.553 0 1-.448 1-1s-.447-1-1-1h-9.75v-7.023c0-.552-.447-1-1-1s-1 .448-1 1v7.023h-14.186c-.552 0-1-.449-1-1v-7.17c0-10.831 6.178-20.228 15.185-24.904 1.331.544 2.974 1.15 5.014 1.826-2.358 4.697-3.347 7.435-3.689 9.07-.449-.164-.928-.268-1.434-.268-2.314 0-4.198 1.883-4.198 4.199 0 2.315 1.884 4.198 4.198 4.198 2.315 0 4.199-1.883 4.199-4.198 0-.374-.065-.73-.157-1.076 1.609-.302 4.377-1.272 9.274-3.731 1.685 5.084 2.94 7.731 3.859 9.111-1.338.703-2.264 2.09-2.264 3.704 0 2.315 1.884 4.198 4.198 4.198s4.198-1.883 4.198-4.198c0-1.614-.925-3.001-2.264-3.704.92-1.38 2.174-4.027 3.859-9.111 4.878 2.45 7.643 3.422 9.254 3.728-.091.343-.154.696-.154 1.066 0 2.315 1.884 4.198 4.198 4.198s4.198-1.883 4.198-4.198-1.884-4.199-4.198-4.199c-.5 0-.973.103-1.418.264-.346-1.638-1.337-4.373-3.686-9.052 2.04-.676 3.682-1.282 5.013-1.826 9.007 4.676 15.186 14.073 15.186 24.904v7.172c0 .551-.448 1-1 1h-14.185v-7.023c0-.552-.447-1-1-1s-1 .448-1 1v7.023h-9.875c-.553 0-1 .448-1 1s.447 1 1 1h26.062c1.654 0 3-1.346 3-3v-7.173c0-11.043-5.997-20.698-14.895-25.924zm5.51-5.141c1.212 0 2.198.986 2.198 2.198s-.986 2.199-2.198 2.199c-1.213 0-2.199-.986-2.199-2.199 0-1.212.986-2.198 2.199-2.198zm-6.675-36.795c.386-.374.822-.229.949-.175.125.053.532.268.532.805v4.809h-43.216v-4.805c0-.537.408-.752.533-.805.124-.053.563-.197.949.176l2.473 2.388c.387.374 1.002.374 1.389 0l4.348-4.198c.343-.33.875-.329 1.216 0l4.348 4.198c.387.374 1.002.374 1.389 0l4.35-4.198c.342-.329.874-.329 1.216 0l4.346 4.198c.387.374 1.002.375 1.389 0l4.353-4.201c.34-.329.874-.328 1.214 0l4.355 4.201c.389.374 1.002.374 1.389 0zm-41.735 20.684 1.378-1.503c2.962-3.23 4.679-7.386 4.911-11.743h30.638c.232 4.356 1.949 8.512 4.911 11.743l1.378 1.503v1.233c0 11.915-9.693 21.608-21.608 21.608s-21.608-9.693-21.608-21.608zm45.81-3.779c.43-.521 1.346-1.632 2.067-2.354-.233 3.415-1.499 9.813-2.47 10.775-.141-.016-.283-.058-.425-.122.151-1.075.234-2.171.234-3.286v-4.303c.144-.165.329-.389.594-.71zm-24.202-55.017c2.206 0 4 1.794 4 4s-1.794 4-4 4-4-1.794-4-4 1.794-4 4-4zm0 10c.509 0 1-.07 1.472-.19l17.962 26.364c-.249.128-.484.295-.696.5l-1.787 1.724-3.661-3.532c-1.121-1.078-2.874-1.078-3.991.001l-3.658 3.53-3.651-3.527c-1.119-1.082-2.874-1.083-3.993 0l-3.655 3.528-3.653-3.527c-1.119-1.082-2.874-1.082-3.993 0l-3.653 3.527-1.778-1.717c-.213-.206-.449-.373-.699-.502l17.964-26.366c.47.116.961.187 1.47.187zm-23.8 53.438c-.971-.962-2.236-7.36-2.47-10.775.722.722 1.638 1.833 2.067 2.354.265.322.451.545.594.71v4.303c0 1.116.083 2.212.234 3.286-.142.063-.284.106-.425.122zm-3.002 15.866c-1.212 0-2.198-.986-2.198-2.199 0-1.212.986-2.198 2.198-2.198s2.198.986 2.198 2.198c.001 1.212-.986 2.199-2.198 2.199zm7.692 18.788c-1.212 0-2.198-.986-2.198-2.198s.986-2.199 2.198-2.199c1.213 0 2.199.986 2.199 2.199 0 1.212-.986 2.198-2.199 2.198zm19.11 8.008c-1.212 0-2.198-.986-2.198-2.198s.986-2.199 2.198-2.199 2.198.986 2.198 2.199c0 1.212-.986 2.198-2.198 2.198zm21.29-10.219c0 1.212-.986 2.198-2.198 2.198s-2.198-.986-2.198-2.198.986-2.199 2.198-2.199 2.198.987 2.198 2.199zm-9.613-13.119c2.013 3.919 4.032 8.665 4.182 10.197-1.532-.149-6.277-2.17-10.196-4.182-.262-.134-.568-.146-.84-.034s-.479.338-.569.618c-1.348 4.194-3.274 8.979-4.253 10.167-.978-1.189-2.905-5.973-4.253-10.167-.09-.279-.298-.505-.569-.618-.123-.051-.253-.076-.383-.076-.157 0-.313.037-.457.11-3.919 2.013-8.664 4.033-10.196 4.182.149-1.532 2.169-6.278 4.182-10.197.134-.261.146-.568.034-.839s-.338-.479-.618-.569c-4.022-1.293-8.588-3.118-10.004-4.128.792-.427 2.367-1.032 4.443-1.738 4.33 4.987 10.711 8.15 17.82 8.15s13.49-3.163 17.821-8.151c2.076.706 3.651 1.311 4.442 1.738-1.416 1.01-5.98 2.835-10.003 4.128-.28.09-.506.298-.618.569-.112.272-.099.579.035.84z"/><path d="m65.25 119.072h-6.25c-.553 0-1 .448-1 1s.447 1 1 1h6.25c.553 0 1-.448 1-1s-.447-1-1-1z"/><path d="m52.026 59.532c-1.249 0-2.261 1.012-2.261 2.261s1.012 2.261 2.261 2.261 2.261-1.012 2.261-2.261-1.013-2.261-2.261-2.261z"/><path d="m71.974 59.532c-1.249 0-2.261 1.012-2.261 2.261s1.012 2.261 2.261 2.261 2.261-1.012 2.261-2.261-1.012-2.261-2.261-2.261z"/><path d="m62 72.856c1.969 0 3.571-1.602 3.571-3.571v-1.507c0-.552-.447-1-1-1s-1 .448-1 1v1.507c0 .866-.705 1.571-1.571 1.571s-1.571-.705-1.571-1.571v-1.507c0-.552-.447-1-1-1s-1 .448-1 1v1.507c0 1.969 1.602 3.571 3.571 3.571z"/><path d="m70.158 57.164 4.427 1.229c.09.025.18.037.269.037.438 0 .84-.291.963-.733.147-.532-.164-1.083-.696-1.231l-4.427-1.229c-.532-.147-1.083.163-1.231.696-.149.532.163 1.083.695 1.231z"/><path d="m49.147 58.43c.089 0 .179-.012.269-.037l4.427-1.229c.532-.147.844-.699.696-1.231-.147-.533-.7-.843-1.231-.696l-4.427 1.229c-.532.147-.844.699-.696 1.231.122.442.524.733.962.733z"/><path d="m62 78.765c3.71 0 5.723-2.599 5.807-2.71.332-.438.246-1.06-.189-1.395-.437-.334-1.063-.253-1.4.182-.063.078-1.528 1.923-4.218 1.923-2.743 0-4.133-1.811-4.202-1.904-.323-.443-.945-.543-1.393-.221-.448.323-.549.948-.226 1.396.081.111 2.013 2.729 5.821 2.729z"/></g></g></g></g></g></svg>