<svg id="Layer_1" enable-background="new 0 0 128 128" height="512" viewBox="0 0 128 128" width="512" xmlns="http://www.w3.org/2000/svg"><g><path d="m82.355 73.81c-3.039-.98-5.208-3.513-5.756-6.536 8.239-7.619 15.401-21.869 15.401-31.748 0-14.336-11.664-26-26-26s-26 11.664-26 26c0 10.074 7.063 24.345 15.366 31.888-.59 2.96-2.731 5.431-5.721 6.396-13.246 4.274-22.145 16.502-22.145 30.428v15.236c0 1.654 1.346 3 3 3h71c1.654 0 3-1.346 3-3v-15.236c0-13.926-8.899-26.155-22.145-30.428z" fill="#e6e7e8"/><g><path d="m78.048 70.761c-3.554-1.147-6.081-4.226-6.518-7.861-3.199 2.868-6.512 4.651-9.53 4.651-3.075 0-6.379-1.731-9.546-4.523-.481 3.579-2.991 6.599-6.503 7.732-12.446 4.017-21.451 15.694-21.451 29.478v15.236c0 1.105.895 2 2 2h71c1.105 0 2-.895 2-2v-15.236c0-13.784-9.005-25.461-21.452-29.477z" fill="#6dc9f7"/><path d="m71.53 62.9c-3.199 2.868-6.512 4.651-9.53 4.651-3.075 0-6.379-1.731-9.546-4.523-.481 3.579-2.991 6.599-6.503 7.732-.784.253-1.554.537-2.31.85 4.666 2.857 11.166 4.632 18.358 4.632 7.193 0 13.692-1.775 18.358-4.632-.755-.312-1.526-.597-2.31-.85-3.552-1.145-6.079-4.225-6.517-7.86z" fill="#0089ef"/><path d="m78.892 74.926-3.34-1.023c-3.938 1.473-8.57 2.339-13.551 2.339-4.982 0-9.614-.866-13.551-2.339l-3.34 1.023c-2.443.748-4.11 3.002-4.11 5.555 0 2.071 1.103 3.986 2.895 5.025l.281.163c4.626 2.683 7.772 7.334 8.54 12.626l.518 3.569c.632 4.355 4.365 7.585 8.766 7.585 4.4 0 8.134-3.23 8.766-7.585l.518-3.569c.768-5.293 3.914-9.943 8.54-12.626l.281-.163c1.792-1.039 2.895-2.954 2.895-5.025 0-2.553-1.667-4.807-4.108-5.555z" fill="#d4fbff"/><path d="m62 6.526c-13.807 0-25 11.193-25 25s13.973 36.025 25 36.025c10.656 0 25-22.218 25-36.025s-11.193-25-25-25z" fill="#6dc9f7"/><path d="m62 9.526c13.285 0 24.144 10.363 24.947 23.446.033-.49.053-.974.053-1.446 0-13.807-11.193-25-25-25s-25 11.193-25 25c0 .474.02.961.052 1.454.8-13.086 11.661-23.454 24.948-23.454z" fill="#fff"/><g fill="#0089ef"><path d="m54.37 34.049c-3.736-3.736-10.135-3.395-10.135-3.395s-.341 6.399 3.395 10.135 10.135 3.395 10.135 3.395.341-6.399-3.395-10.135z"/><path d="m79.765 30.654s-6.399-.341-10.135 3.395-3.395 10.135-3.395 10.135 6.399.341 10.135-3.395 3.395-10.135 3.395-10.135z"/></g><circle cx="62" cy="87.713" fill="#0089ef" r="7.5"/><g fill="#3a2c60"><path d="m78.355 69.809c-2.994-.966-5.189-3.511-5.74-6.551 8.232-7.622 15.385-21.86 15.385-31.732 0-14.336-11.664-26-26-26s-26 11.664-26 26c0 10.07 7.057 24.334 15.356 31.879-.594 2.972-2.775 5.457-5.712 6.404-13.245 4.274-22.144 16.502-22.144 30.429v15.236c0 1.654 1.346 3 3 3h24.187c.552 0 1-.448 1-1s-.448-1-1-1h-7.111c.002-.026.015-.049.015-.076v-18.545c0-.552-.448-1-1-1s-1 .448-1 1v18.544c0 .027.013.05.015.076h-15.106c-.551 0-1-.449-1-1v-15.236c0-12.095 7.168-22.812 18.095-27.51.62.362 1.262.705 1.928 1.026l-.707.217c-2.881.882-4.816 3.499-4.816 6.511 0 2.419 1.3 4.676 3.393 5.89l.282.164c4.389 2.545 7.324 6.884 8.052 11.905l.518 3.569c.699 4.813 4.893 8.442 9.755 8.442 4.863 0 9.057-3.629 9.755-8.442l.518-3.569c.729-5.021 3.664-9.36 8.052-11.905l.282-.163c2.093-1.215 3.393-3.472 3.393-5.891 0-3.012-1.935-5.629-4.815-6.511l-.707-.217c.666-.321 1.308-.664 1.928-1.026 10.926 4.699 18.094 15.415 18.094 27.511v15.236c0 .551-.449 1-1 1h-15.108c.002-.026.015-.049.015-.076v-18.545c0-.552-.448-1-1-1s-1 .448-1 1v18.544c0 .027.013.05.015.076h-12.172c-.552 0-1 .448-1 1s.448 1 1 1h29.25c1.654 0 3-1.346 3-3v-15.236c0-13.926-8.899-26.154-22.145-30.428zm-40.355-38.283c0-13.234 10.767-24 24-24s24 10.766 24 24c0 14.076-14.355 35.025-24 35.025-10.359.001-24-22.03-24-35.025zm40.599 44.356c2.034.623 3.401 2.471 3.401 4.599 0 1.708-.918 3.303-2.396 4.16l-.281.163c-4.92 2.854-8.211 7.719-9.029 13.348l-.518 3.569c-.557 3.836-3.899 6.729-7.776 6.729-3.876 0-7.219-2.893-7.776-6.729l-.518-3.569c-.817-5.629-4.108-10.494-9.028-13.348l-.282-.164c-1.478-.856-2.396-2.451-2.396-4.159 0-2.127 1.367-3.976 3.401-4.599l3.012-.922c4.07 1.477 8.72 2.283 13.586 2.283 4.867 0 9.516-.805 13.586-2.283zm-16.599-.639c-5.919 0-11.497-1.215-15.962-3.449.075-.025.146-.057.221-.081 3.273-1.056 5.794-3.663 6.797-6.865 2.961 2.309 6.025 3.704 8.944 3.704 2.871 0 5.933-1.438 8.911-3.813.976 3.254 3.509 5.903 6.83 6.974.075.024.146.056.221.081-4.465 2.233-10.043 3.449-15.962 3.449z"/><path d="m63.563 116.474h-8.188c-.552 0-1 .448-1 1s.448 1 1 1h8.188c.552 0 1-.448 1-1s-.448-1-1-1z"/><path d="m57.818 45.182c.51-.027.918-.435.945-.945.015-.279.319-6.89-3.686-10.896-4.005-4.005-10.617-3.704-10.895-3.686-.51.027-.918.435-.945.945-.015.279-.319 6.89 3.686 10.896 3.414 3.414 8.72 3.697 10.386 3.697.288 0 .468-.009.509-.011zm-9.481-5.1c-2.555-2.555-3.021-6.594-3.096-8.422 1.828.075 5.868.542 8.422 3.096 2.555 2.555 3.021 6.594 3.096 8.422-1.828-.076-5.868-.542-8.422-3.096z"/><path d="m66.182 45.182c.041.002.221.011.509.011 1.667 0 6.973-.284 10.386-3.697 4.005-4.005 3.701-10.616 3.686-10.896-.027-.51-.435-.918-.945-.945-.279-.016-6.891-.318-10.895 3.686-4.005 4.005-3.701 10.616-3.686 10.896.027.51.435.918.945.945zm4.155-10.427c2.554-2.554 6.594-3.021 8.422-3.096-.075 1.828-.541 5.868-3.096 8.422-2.554 2.554-6.594 3.021-8.422 3.096.075-1.827.541-5.867 3.096-8.422z"/><path d="m53.5 87.713c0 4.687 3.813 8.5 8.5 8.5s8.5-3.813 8.5-8.5-3.813-8.5-8.5-8.5-8.5 3.813-8.5 8.5zm15 0c0 3.584-2.916 6.5-6.5 6.5s-6.5-2.916-6.5-6.5 2.916-6.5 6.5-6.5 6.5 2.916 6.5 6.5z"/><path d="m57.798 53.325c-.324-.444-.946-.543-1.393-.221-.448.323-.549.948-.226 1.396.081.111 2.013 2.729 5.82 2.729 3.711 0 5.723-2.6 5.807-2.711.333-.44.247-1.067-.193-1.401-.442-.335-1.068-.246-1.401.193-.014.02-1.484 1.918-4.212 1.918-2.748.001-4.137-1.816-4.202-1.903z"/></g></g></g></svg>