<svg id="Layer_1" enable-background="new 0 0 128 128" height="512" viewBox="0 0 128 128" width="512" xmlns="http://www.w3.org/2000/svg"><g><path d="m116.394 58.16c3.677-4.362 7.479-8.873 3.791-13.332-2.84-3.434-15.814-2.148-25.827 4.838.087-.911.143-1.828.143-2.756 0-10.549-5.766-19.772-14.308-24.699.242-.821.365-1.659.365-2.499 0-6.195-6.53-11.235-14.557-11.235s-14.557 5.04-14.557 11.235c0 .84.123 1.678.365 2.499-8.543 4.927-14.309 14.15-14.309 24.699 0 .928.056 1.845.143 2.756-10.012-6.986-22.987-8.273-25.827-4.838-3.688 4.459.114 8.97 3.791 13.332 2.301 2.729 4.68 5.552 5.247 8.313.268 1.305-.183 3.091-.66 4.982-1.015 4.023-2.277 9.029 2.425 13.025 1.306 1.111 3.213 1.741 5.472 2.035-2.67 1.767-4.718 3.923-5.64 6.569-1.938 5.556-.486 11.869 3.883 16.887 1.05 1.206 2.222 2.266 3.48 3.177v7.374c0 1.654 1.346 3 3 3h66.373c1.654 0 3-1.346 3-3v-7.374c1.258-.912 2.43-1.971 3.48-3.177 4.369-5.019 5.82-11.332 3.883-16.887-.923-2.646-2.97-4.802-5.641-6.569 2.259-.293 4.167-.924 5.473-2.035 4.702-3.996 3.439-9.002 2.425-13.025-.477-1.891-.927-3.677-.66-4.982.567-2.761 2.946-5.583 5.247-8.313z" fill="#e6e7e8"/><g><g fill="#d4fbff"><g><path d="m106.167 62.272c1.541-7.501 14.518-14.434 9.246-20.807-2.392-2.892-16.211-1.798-26.383 6.449-.131.704-.279 1.403-.462 2.087.455.811.739 1.823.739 2.939 0 2.627-1.508 4.757-3.369 4.757-.603 0-1.161-.242-1.651-.634-1.298 7.7-6.483 14.081-13.472 17.043.003.585.005 1.21.005 1.763 5.306.414 17.437 1.771 25.748 5.877 3.48.005 6.427-.549 8.165-2.027 6.404-5.442.51-12.947 1.434-17.447z"/><path d="m104.605 89.413c-3.6-10.323-26.022-12.943-33.785-13.545 0 .792-.005 1.431-.019 1.548 14.795 1.352 26.385 13.787 26.385 28.934v2.284c6.298-4.343 9.873-12.182 7.419-19.221z"/></g><g><path d="m53.18 75.869c0-.552.002-1.177.005-1.763-6.99-2.962-12.175-9.343-13.472-17.043-.49.392-1.048.634-1.651.634-1.861 0-3.369-2.13-3.369-4.757 0-1.115.283-2.128.739-2.939-.183-.685-.331-1.383-.462-2.087-10.172-8.247-23.991-9.341-26.383-6.449-5.272 6.373 7.706 13.306 9.246 20.807.924 4.499-4.97 12.004 1.433 17.447 1.738 1.478 4.685 2.032 8.165 2.027 8.312-4.106 20.443-5.463 25.749-5.877z"/><path d="m26.814 106.35c0-15.147 11.59-27.582 26.385-28.934-.014-.117-.019-.755-.019-1.548-7.763.602-30.185 3.222-33.785 13.545-2.454 7.038 1.121 14.877 7.419 19.221z"/></g></g><g><path d="m70.802 77.416c.024-.198.021-1.885.013-3.31-2.709 1.148-5.688 1.784-8.815 1.784-3.127 0-6.106-.635-8.815-1.783-.007 1.425-.01 3.111.013 3.31-14.795 1.352-26.385 13.787-26.385 28.934v10.173c0 1.105.895 2 2 2h66.373c1.105 0 2-.895 2-2v-10.174c0-15.147-11.59-27.582-26.384-28.934z" fill="#fff"/><path d="m81.812 80.72c-1.278 9.353-9.65 16.582-19.812 16.582s-18.534-7.229-19.812-16.582c-3.211 1.719-6.064 4.02-8.411 6.767 4.316 2.689 7.013 7.444 7.013 12.636v18.4h42.421v-18.4c0-5.192 2.697-9.947 7.013-12.636-2.349-2.747-5.201-5.048-8.412-6.767z" fill="#fa759e"/><path d="m62 15.41c4.694 0 9.112 1.179 12.979 3.253.372-.935.578-1.925.578-2.951 0-5.653-6.069-10.235-13.557-10.235s-13.557 4.582-13.557 10.235c0 1.027.206 2.016.578 2.951 3.867-2.074 8.285-3.253 12.979-3.253z" fill="#ffd7e5"/><path d="m62 8.477c6.826 0 12.457 3.812 13.402 8.768.101-.5.155-1.012.155-1.533 0-5.653-6.069-10.235-13.557-10.235s-13.557 4.582-13.557 10.235c0 .521.054 1.033.155 1.533.945-4.956 6.576-8.768 13.402-8.768z" fill="#fff"/><g><path d="m62 15.41c-15.188 0-27.5 12.312-27.5 27.5 0 2.453.327 4.829.931 7.092.617-1.099 1.56-1.818 2.63-1.818.473 0 .922.14 1.33.388v-.305c0-2.684 1.882-4.986 4.504-5.558 3.099-.677 7.214-1.861 10.391-3.803 5.855-3.582 7.714-9.417 7.714-9.417s1.638 5.041 6.262 9.041c2.703 2.338 7.831 3.637 11.626 4.313 2.724.485 4.721 2.832 4.721 5.6v.129c.408-.248.857-.388 1.33-.388 1.071 0 2.013.719 2.63 1.818.604-2.263.931-4.638.931-7.092 0-15.188-12.312-27.5-27.5-27.5z" fill="#ffd7e5"/></g><g fill="#fff"><path d="m85.938 48.184c-.473 0-.922.14-1.33.388v4.709c0 1.289-.114 2.552-.321 3.782.49.392 1.048.634 1.651.634 1.861 0 3.369-2.13 3.369-4.757 0-2.626-1.508-4.756-3.369-4.756z"/><path d="m39.392 53.281v-4.709c-.408-.248-.857-.388-1.33-.388-1.861 0-3.369 2.13-3.369 4.757s1.508 4.757 3.369 4.757c.603 0 1.161-.242 1.651-.634-.208-1.231-.321-2.493-.321-3.783z"/></g><path d="m79.888 42.843c-3.795-.676-8.923-1.975-11.626-4.313-4.624-4-6.262-9.041-6.262-9.041s-1.859 5.836-7.713 9.416c-3.177 1.943-7.291 3.127-10.391 3.803-2.623.573-4.504 2.874-4.504 5.558v5.014c0 12.487 10.122 22.61 22.608 22.61 12.486 0 22.608-10.122 22.608-22.608v-4.838c0-2.769-1.996-5.116-4.72-5.601z" fill="#fff"/><g><g fill="#ffd7e5"><path d="m74.894 54.672c-1.109 0-2.008.567-2.008 1.266s.899 1.266 2.008 1.266 2.008-.567 2.008-1.266c0-.7-.899-1.266-2.008-1.266z"/><path d="m49.106 54.391c-1.109 0-2.008.567-2.008 1.266s.899 1.266 2.008 1.266 2.008-.567 2.008-1.266-.899-1.266-2.008-1.266z"/></g><path d="m62 67.088c-3.444 0-5.195-2.373-5.268-2.474-.323-.448-.222-1.073.226-1.396.446-.321 1.068-.223 1.392.221.061.081 1.269 1.649 3.65 1.649 2.336 0 3.61-1.6 3.664-1.668.338-.434.964-.517 1.4-.181.436.335.522.956.19 1.394-.076.1-1.898 2.455-5.254 2.455z" fill="#fa759e"/></g><g fill="#3a2c60"><path d="m112.394 54.16c3.677-4.362 7.479-8.874 3.79-13.332-2.841-3.435-15.82-2.146-25.835 4.845.09-.913.151-1.832.151-2.763 0-10.55-5.766-19.772-14.308-24.699.242-.821.364-1.658.364-2.499 0-6.195-6.53-11.235-14.556-11.235s-14.557 5.04-14.557 11.235c0 .84.123 1.677.365 2.499-8.542 4.927-14.308 14.15-14.308 24.699 0 .931.062 1.851.151 2.764-10.014-6.993-22.995-8.282-25.835-4.846-3.688 4.458.113 8.97 3.79 13.332 2.301 2.729 4.68 5.552 5.247 8.313.268 1.305-.183 3.091-.66 4.982-1.014 4.022-2.277 9.029 2.425 13.025 1.305 1.11 3.212 1.739 5.47 2.031-2.671 1.767-4.714 3.926-5.637 6.573-1.938 5.556-.486 11.869 3.883 16.887 1.049 1.205 2.223 2.259 3.48 3.168v7.383c0 1.654 1.346 3 3 3h16.436c.552 0 1-.448 1-1s-.448-1-1-1h-3.461v-17.4c0-5.148-2.431-9.873-6.553-12.856 1.81-1.958 3.903-3.653 6.219-5.029 1.963 9.248 10.539 16.065 20.545 16.065s18.582-6.816 20.545-16.065c2.316 1.376 4.409 3.071 6.219 5.029-4.123 2.983-6.553 7.708-6.553 12.856v17.4h-22.836c-.552 0-1 .448-1 1s.448 1 1 1h35.811c1.654 0 3-1.346 3-3v-7.383c1.257-.909 2.43-1.963 3.479-3.168 4.369-5.019 5.821-11.332 3.884-16.888-.923-2.647-2.967-4.806-5.638-6.573 2.258-.292 4.165-.921 5.47-2.031 4.702-3.996 3.439-9.002 2.425-13.025-.477-1.891-.927-3.677-.66-4.982.568-2.76 2.947-5.582 5.248-8.312zm-50.394 20.73c-11.915 0-21.608-9.693-21.608-21.608v-5.014c0-2.22 1.529-4.104 3.717-4.582 3.035-.663 7.354-1.882 10.699-3.928 2.724-1.666 4.61-3.775 5.885-5.628-.415 1.59-1.339 3.876-3.378 6.688-.324.447-.225 1.073.223 1.396.177.128.383.19.586.19.31 0 .615-.143.811-.413 2.648-3.655 3.599-6.558 3.925-8.408 1.038 1.737 2.576 3.823 4.748 5.703 2.87 2.482 8.167 3.84 12.105 4.541 2.257.402 3.896 2.343 3.896 4.616v4.838c0 11.915-9.694 21.609-21.609 21.609zm-23.938-25.706c.11 0 .22.023.33.049v4.048c0 1.112.083 2.204.232 3.276-1.5.645-2.931-1.286-2.932-3.617.001-2.036 1.085-3.756 2.37-3.756zm47.314 7.373c.149-1.071.232-2.164.232-3.276v-4.048c.11-.026.219-.049.33-.049 1.284 0 2.369 1.72 2.369 3.756 0 2.331-1.43 4.262-2.931 3.617zm3.124-13.647c0 1.682-.172 3.333-.48 4.948-.616-.431-1.323-.674-2.082-.674-.15 0-.299.012-.446.031-.503-2.693-2.63-4.859-5.429-5.357-3.691-.657-8.622-1.9-11.147-4.085-3.948-3.415-5.631-7.674-5.916-8.457v-5.508c1.035 1.692 2.526 3.677 4.607 5.478 1.415 1.224 3.543 2.288 6.328 3.163.1.031.201.046.3.046.425 0 .819-.273.954-.701.166-.527-.127-1.088-.654-1.254-2.522-.792-4.412-1.723-5.619-2.767-3.948-3.415-5.631-7.674-5.916-8.457v-2.881c14.15.529 25.5 12.198 25.5 26.475zm-39.056-27.198c0-5.092 5.633-9.235 12.557-9.235 6.923 0 12.556 4.143 12.556 9.235 0 .511-.066 1.021-.183 1.527-3.745-1.812-7.943-2.829-12.374-2.829s-8.629 1.017-12.373 2.829c-.117-.506-.183-1.016-.183-1.527zm11.556.724v2.883c-.299.828-2.218 5.664-7.236 8.733-.471.288-.619.904-.331 1.375.289.47.902.619 1.375.331 2.946-1.802 4.922-4.125 6.192-6.077v5.638c-.299.828-2.218 5.664-7.236 8.733-3.106 1.9-7.197 3.05-10.082 3.68-2.762.603-4.777 2.787-5.2 5.482-.139-.017-.279-.029-.42-.029-.759 0-1.466.243-2.081.674-.308-1.615-.48-3.266-.48-4.948-.001-14.278 11.349-25.947 25.499-26.475zm-41.087 62.522c-3.753-3.19-2.75-7.167-1.78-11.012.535-2.12 1.04-4.121.679-5.874-.669-3.259-3.215-6.279-5.677-9.2-3.983-4.727-6.226-7.81-3.778-10.769.57-.688 2.199-1.094 4.472-1.094 5.087 0 13.394 2.04 20.248 7.48.09.449.182.896.294 1.339-.429.893-.678 1.956-.678 3.112 0 2.965 1.62 5.334 3.782 5.701.222 1.102-.154 1.898-.582 2.799-.405.851-.863 1.816-.624 2.963.477 2.292 3.085 3.004 3.196 3.034.085.022.171.033.255.033.441 0 .843-.294.963-.74.143-.531-.172-1.079-.703-1.226-.016-.004-1.533-.45-1.753-1.509-.097-.465.116-.948.472-1.697.27-.567.589-1.241.745-2.045 1.995 6.442 6.683 11.707 12.738 14.489 0 .065 0 .131-.001.195-5.707.482-16.906 1.89-24.955 5.801-3.188-.006-5.814-.507-7.313-1.78zm19.876 21.165v17.4h-10.975c-.551 0-1-.449-1-1v-10.173c0-6.646 2.275-12.75 6.117-17.56 3.682 2.602 5.858 6.778 5.858 11.333zm-13.975 6.227v.234c-.688-.592-1.356-1.219-1.971-1.925-3.892-4.47-5.201-10.046-3.503-14.916 2.736-7.846 17.552-11.024 27.165-12.272-12.688 3.618-21.691 15.182-21.691 28.879zm36.186-10.048c-9.274 0-17.184-6.438-18.701-15.073 3.039-1.508 6.405-2.489 9.99-2.816.543-.05.945-.551.904-1.095-.011-.148-.015-.835-.013-1.764 2.449.863 5.08 1.337 7.82 1.337 2.741 0 5.371-.474 7.821-1.337.001.925-.002 1.606-.012 1.744-.032.268.045.538.215.748s.417.342.687.367c3.585.328 6.951 1.309 9.99 2.816-1.517 8.634-9.427 15.073-18.701 15.073zm34.186 20.221c0 .551-.449 1-1 1h-10.975v-17.4c0-4.554 2.176-8.731 5.859-11.332 3.842 4.809 6.117 10.914 6.117 17.56v10.172zm7.475-26.78c1.698 4.87.389 10.446-3.503 14.916-.615.706-1.283 1.333-1.971 1.925v-.234c0-13.7-9.006-25.265-21.697-28.882 9.612 1.247 24.433 4.423 27.171 12.275zm2.206-21.798c.97 3.846 1.973 7.822-1.78 11.013-1.499 1.274-4.125 1.774-7.313 1.781-8.049-3.911-19.247-5.319-24.954-5.801 0-.065 0-.13-.001-.195 6.006-2.759 10.664-7.961 12.687-14.33.163.754.462 1.393.719 1.934.356.749.569 1.231.472 1.697-.22 1.059-1.738 1.504-1.748 1.507-.534.141-.853.688-.712 1.222.118.449.523.746.966.746.084 0 .17-.011.255-.034.111-.029 2.719-.742 3.196-3.034.239-1.147-.22-2.112-.624-2.963-.433-.91-.812-1.712-.576-2.832 2.198-.327 3.853-2.718 3.853-5.715 0-1.156-.249-2.219-.678-3.112.112-.445.204-.894.295-1.345 9.916-7.868 22.873-8.611 24.718-6.381 2.447 2.959.205 6.042-3.778 10.769-2.462 2.921-5.007 5.941-5.677 9.2-.359 1.752.146 3.754.68 5.873z"/><path d="m55.188 117.523h-5.688c-.552 0-1 .448-1 1s.448 1 1 1h5.688c.552 0 1-.448 1-1s-.448-1-1-1z"/><path d="m76.617 33.186c.975.233 2.017.45 3.096.642.059.011.118.016.176.016.476 0 .897-.34.983-.825.097-.544-.265-1.063-.809-1.16-1.041-.186-2.043-.393-2.979-.618-.536-.125-1.076.203-1.206.739-.129.537.202 1.077.739 1.206z"/><path d="m43.895 33.708c.071 0 .143-.007.214-.023 3.04-.664 5.731-1.513 8.001-2.523.505-.225.731-.816.507-1.32-.226-.505-.818-.731-1.32-.507-2.146.956-4.707 1.762-7.614 2.396-.54.118-.881.651-.764 1.19.102.469.516.787.976.787z"/><path d="m52.026 47.856c-1.249 0-2.261 1.012-2.261 2.261s1.012 2.261 2.261 2.261 2.261-1.012 2.261-2.261-1.013-2.261-2.261-2.261z"/><path d="m71.974 47.856c-1.249 0-2.261 1.012-2.261 2.261s1.012 2.261 2.261 2.261 2.261-1.012 2.261-2.261-1.012-2.261-2.261-2.261z"/><path d="m64.571 55.101c-.552 0-1 .448-1 1v1.507c0 .866-.705 1.571-1.571 1.571s-1.571-.705-1.571-1.571v-1.507c0-.552-.448-1-1-1s-1 .448-1 1v1.507c0 1.969 1.602 3.571 3.571 3.571s3.571-1.602 3.571-3.571v-1.507c0-.552-.448-1-1-1z"/><path d="m75.025 44.539-4.427-.771c-.548-.092-1.062.27-1.157.813-.095.544.27 1.062.813 1.157l4.427.771c.058.01.116.015.173.015.477 0 .899-.342.984-.828.095-.544-.269-1.062-.813-1.157z"/><path d="m53.402 43.768-4.427.771c-.544.095-.908.613-.813 1.157.085.486.507.828.984.828.057 0 .115-.005.173-.015l4.427-.771c.544-.095.908-.613.813-1.157-.094-.543-.608-.906-1.157-.813z"/></g></g></g></g></svg>