<svg id="Layer_1" enable-background="new 0 0 128 128" height="512" viewBox="0 0 128 128" width="512" xmlns="http://www.w3.org/2000/svg"><g><g><path d="m112.23 86.596c-7.015-7.015-15.47-9.145-21.676-8.318-.06-.709-.347-1.402-.888-1.943-.873-.873-2.135-1.109-3.23-.732l-3.952-7.223c-.625-1.14-1.902-1.749-3.18-1.509l-3.095.576c-.242.045-.469.126-.686.224l-13.829-12.428-21.912-30.021c-.687-.942-1.6-1.718-2.641-2.245l-17.961-9.091c-2.443-1.236-5.449-.262-6.703 2.171l-.916 1.777c-.655 1.271-.734 2.766-.216 4.099.517 1.333 1.583 2.383 2.923 2.879l14.307 5.303c.915.339 1.722.92 2.334 1.679l22.341 27.715c.037.046.078.089.123.128l18.251 15.826-1.733 1.733c-.45.45-.656 1.068-.566 1.698.09.629.461 1.166 1.019 1.471l7.326 4.009c-.111.323-.181.662-.181 1.014 0 .835.324 1.62.915 2.209.601.601 1.389.903 2.179.911-.721 6.176 1.451 14.475 8.355 21.379 7.842 7.842 21.86 8.764 28.021 8.764 1.724 0 2.833-.072 3.02-.085.497-.035.893-.43.927-.927.063-.854 1.36-21.008-8.676-31.043z" fill="#e6e7e8"/></g><g><path d="m107.523 83.303c-7.259-7.259-16.188-9.14-22.167-7.825-.1.205-.227.4-.397.57l-6.841 6.841c-.102.102-.211.19-.327.267-1.254 5.977.654 14.822 7.856 22.023 9.828 9.828 30.264 8.388 30.264 8.388s1.441-20.436-8.388-30.264z" fill="#fa759e"/><g><path d="m86.078 102.179c-6.242-6.242-8.506-13.718-8.183-19.493-1.457 5.976.362 15.102 7.753 22.493 9.828 9.828 30.264 8.388 30.264 8.388s.078-1.133.073-2.98c-2.72.135-20.831.669-29.907-8.408z" fill="#fff"/></g><g><path d="m8.45 14.292.916-1.777c1.007-1.954 3.401-2.73 5.362-1.737l17.961 9.091c.904.458 1.687 1.123 2.285 1.942l21.974 30.106 16.663 14.974-4.52 4.52-19.062-16.53-22.341-27.715c-.726-.9-1.681-1.587-2.765-1.989l-14.307-5.303c-2.251-.833-3.265-3.448-2.166-5.582z" fill="#0089ef"/></g><path d="m77.608 64.861c-.415-.758-1.27-1.164-2.12-1.006l-3.095.576c-.854.159-1.508.852-1.618 1.714l-.523 4.106-3.652 3.652c-.472.472-.358 1.264.227 1.584l8.198 4.486 7.014-7.014z" fill="#fa759e"/><path d="m84.959 73.043c-.83-.83-2.175-.83-3.005 0l-6.841 6.841c-.83.83-.83 2.175 0 3.005.83.83 2.175.83 3.005 0l6.841-6.841c.83-.83.83-2.175 0-3.005z" fill="#ffd7e5"/><g fill="#3a2c60"><path d="m108.23 82.596c-7.016-7.016-15.47-9.142-21.675-8.313-.06-.71-.346-1.405-.888-1.947-.873-.873-2.135-1.109-3.23-.732l-3.952-7.223c-.625-1.14-1.902-1.749-3.18-1.509l-3.095.576c-.242.045-.469.126-.686.224l-13.83-12.429-7.781-10.66c-.325-.446-.95-.544-1.397-.218-.446.326-.544.951-.218 1.397l7.842 10.745c.041.056.087.108.139.154l13.796 12.397c-.147.296-.25.618-.293.96l-.479 3.767-.26.26-18.291-15.861-22.286-27.645c-.838-1.04-1.943-1.835-3.196-2.299l-14.307-5.303c-.805-.298-1.444-.928-1.754-1.728-.311-.8-.263-1.697.13-2.459l.916-1.777c.752-1.46 2.555-2.045 4.021-1.303l17.961 9.091c.76.385 1.426.952 1.928 1.639l7.034 9.637c.326.447.95.544 1.397.218.446-.326.544-.951.218-1.397l-7.034-9.637c-.687-.942-1.6-1.718-2.641-2.245l-17.959-9.09c-2.443-1.236-5.449-.262-6.703 2.171l-.916 1.777c-.655 1.271-.734 2.766-.216 4.099.517 1.333 1.583 2.383 2.923 2.879l14.307 5.303c.915.339 1.722.92 2.334 1.679l22.341 27.715c.037.046.078.089.123.128l18.251 15.826-1.733 1.733c-.45.45-.656 1.068-.566 1.698.09.629.461 1.166 1.019 1.471l7.326 4.009c-.111.323-.181.662-.181 1.014 0 .835.324 1.62.915 2.209.603.603 1.392.905 2.185.912-.723 6.176 1.444 14.473 8.349 21.378 7.842 7.842 21.86 8.764 28.021 8.764 1.724 0 2.833-.072 3.02-.085.497-.035.893-.43.927-.927.063-.854 1.36-21.008-8.676-31.043zm-37.271-11.639c.157-.157.257-.361.285-.581l.522-4.106c.055-.433.38-.776.809-.856l3.095-.576c.062-.011.123-.017.185-.017.36 0 .697.195.876.52l4.07 7.44-5.954 5.955-7.54-4.126zm4.532 10.43c0-.3.116-.583.329-.795l6.841-6.841c.22-.219.508-.329.796-.329s.576.11.796.329c.438.438.438 1.152 0 1.591l-6.842 6.841c-.439.438-1.151.439-1.591 0-.213-.213-.329-.496-.329-.796zm39.462 31.222c-3.979.125-20.35.111-28.599-8.137-6.79-6.79-8.665-15.155-7.63-20.794.026-.024.056-.041.081-.067.606 2.432 2.213 6.7 6.425 10.454.19.17.428.253.665.253.275 0 .549-.113.746-.334.368-.413.331-1.044-.081-1.412-4.709-4.197-5.825-9.19-6.06-10.653l1.038-1.038 3.844 3.845c.195.195.451.293.707.293s.512-.098.707-.293c.391-.39.391-1.023 0-1.414l-3.844-3.845.646-.646c1.227-.059 5.687-.04 8.785 3.059.195.195.451.293.707.293s.512-.098.707-.293c.391-.391.391-1.023 0-1.414-2.629-2.629-5.985-3.401-8.245-3.599l.114-.114c.111-.111.201-.235.292-.358.962-.183 1.994-.292 3.099-.292 5.356 0 12.107 2.253 17.759 7.905 8.248 8.251 8.264 24.617 8.137 28.601z"/><path d="m43.116 34.662 3.251 4.454c.196.269.5.411.809.411.204 0 .411-.063.588-.192.446-.326.544-.951.218-1.397l-3.251-4.454c-.325-.446-.95-.544-1.397-.218-.446.324-.544.95-.218 1.396z"/></g></g></g></svg>