<svg id="Layer_1" enable-background="new 0 0 128 128" height="512" viewBox="0 0 128 128" width="512" xmlns="http://www.w3.org/2000/svg"><g><g><path d="m124.759 56.979c-.031-.06-3.157-6.051-3.211-10.578-.052-4.434 2.83-8.571 2.859-8.612.252-.358.243-.838-.023-1.186-.267-.347-.724-.483-1.138-.331-.475.174-11.716 4.321-19.084 8.997-7.417 4.708-11.152 9.34-11.308 9.535-.199.25-.267.582-.182.89.029.106 2.915 10.68 1.162 16.841-.605 2.126-1.665 4.167-3.146 6.086-1.763-1.41-3.642-2.671-5.618-3.772.676-1.217 1.01-2.619.901-4.07-.049-.653-.211-1.274-.426-1.872 3.791-5.742 6.455-12.553 6.455-19.323 0-7.119-2.164-13.269-5.931-17.888.602-1.08 1.16-2.25 1.607-3.452 1.478-3.973 3.353-11.095 1.006-12.588-1.59-1.01-2.92.786-4.936 3.506-.961 1.298-2.157 2.913-3.599 4.558-.566.646-1.176 1.227-1.793 1.776-3.596-1.82-7.766-2.821-12.355-2.821s-8.759 1.001-12.355 2.821c-.617-.549-1.227-1.131-1.793-1.776-1.442-1.644-2.638-3.259-3.598-4.557-2.015-2.721-3.348-4.517-4.937-3.506-2.347 1.494-.471 8.616 1.007 12.588.447 1.202 1.005 2.372 1.607 3.452-3.766 4.618-5.93 10.767-5.93 17.887 0 6.79 2.679 13.622 6.486 19.375-.234.622-.406 1.272-.458 1.955-.108 1.41.205 2.775.841 3.969-1.954 1.092-3.813 2.342-5.559 3.738-1.48-1.919-2.541-3.959-3.145-6.086-1.75-6.154 1.133-16.735 1.163-16.841.085-.309.018-.64-.182-.89-.155-.195-3.89-4.827-11.308-9.535-7.368-4.676-18.608-8.823-19.083-8.997-.411-.151-.873-.017-1.139.332-.266.348-.275.829-.021 1.186.029.042 2.911 4.159 2.858 8.612-.054 4.527-3.179 10.518-3.21 10.578-.128.244-.15.53-.061.791s.283.473.534.586c.059.027 5.963 2.734 8.828 7.839 2.88 5.134 2.517 13.977 2.513 14.066-.014.302.11.594.336.794.227.201.532.29.83.237.066-.01 6.671-1.082 12.931 1.944.745.36 1.447.804 2.13 1.286-6.428 7.678-10.284 17.703-10.284 28.405 0 .254.003.508.008.761.034 1.622 1.382 2.941 3.005 2.941h75.973c1.624 0 2.973-1.319 3.006-2.941.005-.253.008-.506.008-.761 0-10.702-3.856-20.727-10.282-28.405.683-.482 1.385-.927 2.129-1.286 6.237-3.017 12.866-1.957 12.933-1.944.297.048.603-.038.829-.238s.35-.492.336-.793c-.004-.089-.372-8.923 2.514-14.066 2.854-5.088 8.769-7.813 8.828-7.84.251-.114.444-.326.533-.586.089-.262.067-.548-.061-.791z" fill="#e6e7e8"/></g><g><g><path d="m77.982 73.2c-.249 5.683-7.3 12.636-15.982 12.636s-15.733-6.953-15.982-12.636c-7.467 7.573-12.369 20.3-12.369 34.729 0 1.248.044 2.481.116 3.702h56.47c.072-1.221.116-2.453.116-3.702 0-14.429-4.902-27.156-12.369-34.729z" fill="#ffd7e5"/></g><g><g><path d="m32.703 80.321c1.373-1.552 2.855-2.997 4.436-4.317-1.55-1.84-3.099-4.252-3.936-7.196-1.85-6.502 1.161-17.381 1.161-17.381s-3.7-4.642-11.062-9.314c-7.362-4.672-18.892-8.902-18.892-8.902s3.099 4.373 3.042 9.202-3.326 11.032-3.326 11.032 6.23 2.81 9.288 8.262 2.64 14.601 2.64 14.601 6.913-1.172 13.534 2.03c1.176.567 2.204 1.25 3.115 1.983z" fill="#fa759e"/></g><g><path d="m116.548 42.413c-.057-4.829 3.042-9.202 3.042-9.202s-11.53 4.23-18.892 8.902-11.062 9.314-11.062 9.314 3.01 10.879 1.161 17.381c-.837 2.943-2.386 5.356-3.936 7.196 1.581 1.32 3.063 2.764 4.436 4.317.911-.733 1.939-1.416 3.114-1.984 6.621-3.201 13.534-2.03 13.534-2.03s-.418-9.149 2.64-14.601 9.288-8.262 9.288-8.262-3.268-6.202-3.325-11.031z" fill="#fa759e"/></g></g><g><g><path d="m46.019 73.209c-.005-.106-.024-.215-.024-.32 0-.025.005-.049.006-.074-.669-.411-1.249-.95-1.722-1.573-13.199 6.868-22.279 21.156-22.279 37.686 0 .247.003.494.008.74.023 1.09.916 1.961 2.006 1.961h9.751c-.072-1.221-.116-2.453-.116-3.702 0-14.426 4.903-27.147 12.37-34.718z" fill="#fa759e"/></g><g><path d="m79.639 71.2c-.461.583-1.013 1.09-1.65 1.479.002.07.016.139.016.209 0 .105-.019.214-.024.32 7.466 7.572 12.369 20.292 12.369 34.72 0 1.248-.044 2.481-.116 3.702h9.751c1.09 0 1.983-.871 2.006-1.961.005-.246.008-.493.008-.74.001-16.565-9.117-30.878-22.36-37.729z" fill="#fa759e"/></g></g><g><g><path d="m48.288 61.298c.654-.101 1.292-.098 1.9-.007 1.222.183 2.463-.393 3.02-1.496 1.523-3.017 4.884-5.686 8.793-5.686 3.865 0 7.194 2.609 8.74 5.585.566 1.088 1.8 1.658 3.01 1.464.622-.1 1.276-.107 1.948-.004 2.125.323 3.907 1.758 4.757 3.661 3.824-5.692 6.544-12.507 6.544-19.231 0-16.318-11.193-25.909-25-25.909s-25 9.592-25 25.909c0 6.75 2.74 13.589 6.587 19.294.863-1.858 2.612-3.258 4.701-3.58z" fill="#ffd7e5"/></g><g><path d="m62 22.674c13.338 0 24.233 8.952 24.959 24.27.024-.453.041-.907.041-1.36 0-16.318-11.193-25.909-25-25.909s-25 9.592-25 25.909c0 .453.017.907.041 1.361.726-15.318 11.621-24.271 24.959-24.271z" fill="#fff"/></g><g><g fill="#fa759e"><path d="m67.977 45.755v.272c0 2.177 3.013 3.773 6.117 3.24 2.182-.375 3.71-1.71 3.71-3.24v-2.931z"/><path d="m56.023 45.755v.272c0 2.177-3.013 3.773-6.117 3.24-2.182-.375-3.71-1.71-3.71-3.24v-2.931z"/></g></g><path d="m80.975 66.856c-.216-2.86-2.441-5.271-5.277-5.702-.672-.102-1.325-.095-1.948.004-1.211.194-2.445-.376-3.01-1.464-1.547-2.976-4.875-5.585-8.74-5.585-3.909 0-7.269 2.669-8.793 5.686-.557 1.103-1.798 1.679-3.02 1.496-.608-.091-1.245-.094-1.9.007-2.827.436-5.044 2.84-5.262 5.693-.188 2.462 1.052 4.644 2.975 5.825 0 .025-.006.049-.006.074 0 5.736 7.166 12.947 16.006 12.947s16.006-7.211 16.006-12.947c0-.071-.014-.139-.016-.21 1.926-1.178 3.171-3.361 2.985-5.824z" fill="#fa759e"/><g fill="#fa759e"><path d="m77.182 32.126c.948-.253 3.886-3.738 5.557-8.231 2.052-5.513 2.686-10.582 1.407-11.396-1.269-.808-3.236 3.306-7.246 7.879-3.099 3.534-7.412 5.543-7.316 7.105.211 3.447 5.487 5.206 7.598 4.643z"/><path d="m46.818 32.126c-.948-.253-3.886-3.738-5.557-8.231-2.052-5.513-2.686-10.582-1.407-11.396 1.269-.808 3.236 3.306 7.246 7.879 3.099 3.534 7.412 5.543 7.316 7.105-.211 3.447-5.487 5.206-7.598 4.643z"/></g><g fill="#3a2c60"><path d="m120.759 52.979c-.031-.06-3.157-6.051-3.211-10.578-.052-4.434 2.83-8.571 2.859-8.612.252-.358.243-.838-.023-1.186-.267-.347-.727-.483-1.138-.331-.475.174-11.716 4.321-19.084 8.997-7.417 4.708-11.152 9.34-11.308 9.535-.199.25-.267.582-.182.89.029.106 2.913 10.688 1.162 16.841-.599 2.106-1.672 4.132-3.145 6.049-1.756-1.383-3.633-2.629-5.622-3.727.679-1.219 1.014-2.624.905-4.077-.048-.641-.206-1.252-.415-1.84 4.149-6.326 6.443-13.179 6.443-19.356 0-7.119-2.164-13.268-5.931-17.887.602-1.08 1.16-2.25 1.608-3.453 1.479-3.972 3.354-11.094 1.007-12.588-1.595-1.013-2.924.788-4.938 3.507-.96 1.298-2.156 2.913-3.598 4.557-.569.649-1.183 1.234-1.803 1.785-3.595-1.82-7.757-2.83-12.345-2.83s-8.751 1.01-12.345 2.83c-.62-.552-1.234-1.136-1.803-1.785-1.442-1.644-2.638-3.259-3.599-4.557-2.015-2.721-3.349-4.519-4.936-3.506-2.348 1.494-.472 8.616 1.006 12.588.447 1.202 1.005 2.373 1.607 3.452-3.766 4.618-5.93 10.767-5.93 17.887 0 6.195 2.306 13.065 6.476 19.405-.228.613-.396 1.254-.448 1.926-.108 1.412.206 2.78.845 3.975-1.967 1.09-3.824 2.326-5.562 3.696-1.473-1.916-2.547-3.943-3.146-6.05-1.75-6.154 1.133-16.735 1.163-16.841.085-.309.018-.64-.182-.89-.155-.195-3.89-4.827-11.308-9.535-7.368-4.676-18.608-8.823-19.083-8.997-.41-.151-.872-.017-1.139.332-.266.348-.275.829-.021 1.186.029.042 2.911 4.159 2.858 8.612-.054 4.527-3.179 10.518-3.211 10.578-.128.244-.15.53-.061.791.089.26.282.473.533.586.06.027 5.974 2.751 8.829 7.84 2.88 5.134 2.517 13.977 2.513 14.066-.014.302.11.594.336.794.227.201.531.29.83.237.066-.009 6.671-1.083 12.932 1.944.72.348 1.399.777 2.068 1.248-6.487 7.701-10.222 17.704-10.222 28.441 0 .254.003.508.008.762.034 1.621 1.383 2.94 3.006 2.94h9.749.002 8.818c.552 0 1-.448 1-1s-.448-1-1-1h-7.863c-.043-.939-.071-1.842-.071-2.702 0-12.794 3.981-24.783 10.726-32.551 1.62 5.669 8.418 11.458 16.624 11.458 8.204 0 15.006-5.787 16.628-11.453 6.744 7.768 10.723 19.755 10.723 32.546 0 .851-.028 1.755-.071 2.702h-30.943c-.552 0-1 .448-1 1s.448 1 1 1h31.899.002 9.749c1.624 0 2.973-1.319 3.006-2.941.005-.253.008-.506.008-.761 0-10.742-3.733-20.744-10.22-28.445.669-.471 1.348-.899 2.066-1.246 6.236-3.017 12.865-1.957 12.933-1.944.298.048.603-.038.829-.238s.35-.492.336-.793c-.004-.089-.372-8.923 2.514-14.066 2.854-5.088 8.769-7.813 8.828-7.84.251-.114.444-.326.533-.586.09-.262.068-.548-.06-.791zm-19.525-10.021c5.087-3.229 12.289-6.28 16.101-7.801-.876 1.827-1.82 4.458-1.787 7.268.042 3.55 1.68 7.695 2.681 9.908l-26.465-1.765c1.655-1.71 4.823-4.661 9.47-7.61zm-23.582-21.921c1.496-1.706 2.719-3.357 3.701-4.685.854-1.152 1.806-2.438 2.326-2.846.371 1.005.089 4.756-1.878 10.04-1.581 4.25-4.24 7.301-4.903 7.62-1.021.255-3.209-.222-4.743-1.329-.681-.49-1.505-1.307-1.574-2.391.079-.431 1.479-1.523 2.502-2.32 1.383-1.077 3.104-2.418 4.569-4.089zm-37.346-7.541c.517.395 1.479 1.694 2.34 2.856.982 1.327 2.206 2.979 3.702 4.685 1.465 1.67 3.186 3.012 4.569 4.09 1.022.797 2.422 1.888 2.501 2.294-.068 1.108-.893 1.925-1.573 2.416-1.536 1.107-3.719 1.582-4.744 1.329-.662-.319-3.322-3.37-4.903-7.62-1.989-5.345-2.255-9.121-1.892-10.05zm-2.306 32.088c0-6.323 1.857-11.804 5.077-16.016 1.31 1.936 2.653 3.303 3.483 3.524.35.093.746.138 1.171.138 1.661 0 3.767-.677 5.282-1.77 1.479-1.065 2.309-2.42 2.4-3.916.084-1.381-1.321-2.477-3.268-3.994-.258-.201-.527-.413-.795-.625 3.144-1.452 6.729-2.25 10.648-2.25s7.505.798 10.648 2.25c-.268.212-.537.424-.795.625-1.946 1.517-3.353 2.613-3.268 3.994.092 1.496.921 2.851 2.399 3.916 1.517 1.092 3.622 1.77 5.282 1.77.426 0 .822-.044 1.172-.138.83-.221 2.173-1.588 3.483-3.524 3.224 4.212 5.081 9.692 5.081 16.016 0 5.499-1.972 11.604-5.54 17.345-1.113-1.441-2.736-2.479-4.61-2.764-.756-.115-1.515-.113-2.257.006-.804.129-1.612-.257-1.965-.938-1.585-3.048-5.177-6.124-9.628-6.124-4.516 0-8.118 3.132-9.685 6.235-.353.697-1.147 1.084-1.979.958-.725-.108-1.465-.105-2.2.008-1.839.284-3.435 1.294-4.545 2.699-3.601-5.766-5.591-11.899-5.591-17.425zm-31.335-10.428c3.811 1.521 11.011 4.571 16.101 7.801 4.647 2.949 7.816 5.901 9.47 7.61l-26.466 1.766c1.002-2.213 2.639-6.358 2.682-9.908.033-2.811-.911-5.442-1.787-7.269zm7.622 26.061c-1.817-3.24-4.648-5.568-6.795-6.995l24.791-1.654-15.245 20.716c-.134-3.249-.692-8.396-2.751-12.067zm15.737 16.219c-4.551-2.2-9.179-2.428-11.85-2.322l14.204-19.301c-.685 3.84-1.272 9.276-.136 13.269.676 2.376 1.858 4.657 3.512 6.793-1.119.974-2.19 1.996-3.195 3.079-.816-.587-1.665-1.097-2.535-1.518zm2.625 30.492c0 .868.021 1.759.063 2.702h-8.698c-.543 0-.995-.44-1.006-.981-.005-.239-.008-.48-.008-.721 0-15.447 8.056-29.315 21.059-36.413.21.217.435.421.674.612-7.574 8.088-12.084 21.009-12.084 34.801zm29.351-23.092c-8.082 0-15.006-6.569-15.01-11.864.005-.04.01-.116.01-.156 0-.348-.181-.67-.477-.852-1.694-1.04-2.652-2.917-2.501-4.896.184-2.403 2.042-4.414 4.418-4.78.275-.042.551-.064.825-.064.26 0 .518.019.773.057 1.686.255 3.319-.564 4.061-2.034 1.291-2.557 4.234-5.137 7.9-5.137 3.612 0 6.547 2.535 7.853 5.046.759 1.458 2.39 2.256 4.057 1.991.537-.086 1.088-.087 1.64-.003 2.385.363 4.248 2.377 4.43 4.789.149 1.981-.813 3.857-2.511 4.896-.31.189-.493.532-.478.895.001.023.013.146.016.168 0 5.375-6.925 11.944-15.006 11.944zm38.992 24.813c-.011.541-.462.981-1.006.981h-8.698c.043-.951.063-1.842.063-2.702 0-13.837-4.539-26.799-12.159-34.881.233-.182.454-.374.661-.579 13.057 7.083 21.147 20.969 21.147 36.46 0 .241-.003.482-.008.721zm-7.017-32.213c-.882.427-1.717.927-2.531 1.515-1.005-1.083-2.078-2.103-3.197-3.077 1.655-2.137 2.836-4.417 3.511-6.792 1.136-3.993.549-9.429-.136-13.269l14.203 19.301c-2.669-.106-7.297.122-11.85 2.322zm15.739-16.219c-2.059 3.671-2.618 8.818-2.752 12.066l-15.244-20.715 24.791 1.654c-2.147 1.427-4.978 3.755-6.795 6.995z"/><path d="m54 110.63h-7.364c-.552 0-1 .448-1 1s.448 1 1 1h7.364c.552 0 1-.448 1-1s-.448-1-1-1z"/><path d="m67.494 42.809c.099 0 .2-.015.3-.046l10.31-3.24c.527-.166.819-.727.654-1.254-.166-.527-.725-.821-1.254-.654l-10.31 3.24c-.527.166-.819.727-.654 1.254.135.426.528.7.954.7z"/><path d="m77.543 42.13-9.827 2.659c-.437.118-.739.514-.739.965v.272c0 1.062.511 2.077 1.438 2.858 1.136.957 2.766 1.485 4.465 1.485.459 0 .924-.039 1.384-.118 2.674-.459 4.541-2.197 4.541-4.225v-2.931c0-.312-.145-.605-.393-.794s-.568-.254-.869-.171zm-.739 3.897c0 1.02-1.211 1.967-2.879 2.254-1.575.27-3.232-.092-4.222-.925-.237-.2-.508-.492-.642-.859l7.742-2.095v1.625z"/><path d="m45.896 39.523 10.311 3.24c.1.031.201.046.3.046.425 0 .819-.273.954-.701.166-.527-.127-1.088-.654-1.254l-10.311-3.24c-.525-.164-1.088.127-1.254.654-.165.527.128 1.089.654 1.255z"/><path d="m49.737 50.252c.461.08.925.118 1.384.118 1.699 0 3.329-.528 4.464-1.485.927-.782 1.438-1.797 1.438-2.858v-.272c0-.452-.303-.847-.739-.965l-9.827-2.659c-.299-.082-.621-.019-.869.171-.247.189-.392.482-.392.794v2.931c0 2.028 1.867 3.766 4.541 4.225zm-2.541-5.85 7.742 2.095c-.134.367-.404.659-.642.859-.988.833-2.645 1.193-4.22.925-1.669-.287-2.88-1.235-2.88-2.254z"/><path d="m48.62 65.048c-1.096 0-1.984.888-1.984 1.984s.888 1.984 1.984 1.984 1.984-.888 1.984-1.984-.888-1.984-1.984-1.984z"/><circle cx="75.07" cy="67.032" r="1.984"/><path d="m70.298 73.206h-16.61c-.762 0-1.172.869-.711 1.476 1.503 1.978 4.973 4.117 9.014 4.117 4.079 0 7.575-2.179 9.056-4.172.435-.586-.019-1.421-.749-1.421z"/></g><g><g><path d="m55.18 76.689c.904.609 1.971 1.148 3.157 1.528-.293-2.731-.792-6.278-1.416-6.349-.543-.062-1.224 2.459-1.741 4.821z" fill="#fff"/></g><g><path d="m68.818 76.678c-.517-2.359-1.197-4.872-1.739-4.811-.623.071-1.122 3.613-1.415 6.343 1.185-.381 2.252-.921 3.154-1.532z" fill="#fff"/></g></g></g></g></g></svg>