<svg id="Layer_1" enable-background="new 0 0 128 128" height="512" viewBox="0 0 128 128" width="512" xmlns="http://www.w3.org/2000/svg"><g><g><path d="m112.188 57.253c-3.958-6.828-11.66-6.521-14.528-6.14-.266-2.125-.97-7.07-2.233-11.54-1.16-4.106-2.524-7.668-3.24-9.44 1.684-.323 4.654-1.093 6.872-2.758 2.377-1.785 3.971-5.873 3.216-7.192-.59-1.032-1.945-1.06-3.823-1.099-2.012-.042-4.515-.094-6.771-1.259-1.307-.675-2.617-1.506-4.004-2.386-4.886-3.098-10.962-6.951-20.777-5.85-21.533 2.421-28.375 34.72-29.561 41.39-2.426-.68-8.228-1.893-12.82.399-2.6 1.297-4.396 3.503-5.339 6.557-2.79 9.037 6.004 34.683 14.295 45.92 2.61 3.538 4.883 5.258 6.946 5.258 3.832 0 5.709-2.243 7.219-4.044 1.422-1.699 2.31-2.653 4.025-2.485 1.525.149 2.857 4.266 4.032 7.898 1.837 5.68 3.919 12.119 8.692 12.119 4.902 0 6.824-6.511 8.52-12.256 1.016-3.442 2.066-7.002 3.464-7.92 1.339-.879 2.32.003 4.406 2.384 1.768 2.018 3.771 4.305 6.719 4.305 5.424 0 12.476-11.222 15.256-16.047 7.48-12.98 13.122-29.45 9.434-35.814z" fill="#e6e7e8"/></g><g><g><path d="m16.135 54.231c3.456-11.197 18.001-5.956 18.001-5.956s5.856-39.102 28.875-41.691c12.128-1.364 18.089 4.968 24.21 8.13 4.33 2.237 9.47.715 10.185 1.965.362.634-.663 4.181-2.948 5.896-3.018 2.266-7.683 2.769-7.683 2.769s2.065 4.75 3.69 10.5 2.326 12.43 2.326 12.43 9.955-2.417 14.532 5.479c5.983 10.321-14.983 50.36-23.824 50.36-5.278 0-7.504-9.264-11.674-6.524-4.169 2.74-4.407 20.012-11.435 20.012-7.301 0-7.743-19.535-12.627-20.012s-4.924 6.524-11.341 6.524c-8.173.002-23.743-38.685-20.287-49.882z" fill="#d4fbff"/></g><g><g><path d="m62.035 9.584c12.424-1.364 18.53 4.968 24.801 8.13 3.947 1.991 8.542 1.009 10.025 1.649.543-1.237.733-2.354.545-2.683-.715-1.251-5.854.272-10.185-1.965-6.121-3.162-12.082-9.494-24.21-8.13-10.851 1.22-17.886 10.554-22.294 20.08 4.559-8.407 11.376-15.989 21.318-17.081z" fill="#fff"/></g></g><g fill="#3a2c60"><path d="m108.187 53.253c-3.957-6.827-11.664-6.523-14.527-6.14-.266-2.125-.971-7.07-2.234-11.54-1.16-4.106-2.524-7.668-3.24-9.44 1.684-.323 4.655-1.093 6.873-2.759 2.378-1.786 3.97-5.874 3.215-7.191-.589-1.032-1.945-1.06-3.822-1.099-2.012-.042-4.515-.094-6.771-1.26-1.307-.675-2.617-1.506-4.005-2.386-4.886-3.095-10.965-6.951-20.777-5.847-21.533 2.421-28.374 34.719-29.56 41.389-2.427-.68-8.228-1.892-12.819.399-2.601 1.297-4.397 3.503-5.339 6.557-2.79 9.037 6.004 34.683 14.295 45.92 2.61 3.538 4.883 5.258 6.946 5.258 3.832 0 5.709-2.243 7.219-4.045 1.423-1.699 2.317-2.653 4.025-2.484 1.525.149 2.857 4.266 4.032 7.898 1.837 5.68 3.919 12.119 8.692 12.119 4.903 0 6.824-6.511 8.521-12.256 1.016-3.442 2.066-7.001 3.464-7.92 1.338-.88 2.319.003 4.406 2.384 1.767 2.018 3.771 4.305 6.719 4.305 5.438 0 13.134-11.459 18.07-21.273.248-.493.049-1.094-.444-1.343-.492-.249-1.095-.05-1.343.444-5.785 11.5-12.785 20.171-16.283 20.171-2.042 0-3.654-1.841-5.215-3.623-1.913-2.185-4.085-4.66-7.008-2.738-2.011 1.321-3.064 4.892-4.285 9.026-1.497 5.073-3.194 10.822-6.602 10.822-3.317 0-5.162-5.703-6.789-10.734-1.561-4.828-2.91-8.997-5.74-9.273-2.845-.28-4.392 1.564-5.753 3.191-1.434 1.712-2.788 3.329-5.686 3.329-.768 0-2.483-.578-5.337-4.445-7.866-10.66-16.587-35.742-13.994-44.143.774-2.509 2.226-4.31 4.315-5.354 5.066-2.533 12.32.019 12.392.044.282.101.594.071.851-.083.257-.153.432-.414.476-.71.058-.383 5.997-38.371 27.998-40.845 9.11-1.028 14.62 2.468 19.48 5.55 1.427.904 2.773 1.758 4.158 2.474 2.669 1.378 5.547 1.438 7.648 1.482.711.015 1.648.034 2.063.139-.082.844-.903 3.267-2.615 4.552-2.756 2.07-7.146 2.57-7.191 2.575-.315.035-.597.217-.756.492-.16.274-.18.609-.053.9.021.047 2.058 4.761 3.645 10.374 1.581 5.598 2.287 12.196 2.294 12.262.029.287.183.547.418.713.235.167.533.223.813.154.093-.021 9.277-2.158 13.431 5.009 1.673 2.886 1.029 9.156-1.766 17.202-.182.521.095 1.091.616 1.273.522.18 1.091-.095 1.272-.617 2.144-6.169 4.163-14.45 1.607-18.859z"/><path d="m104.851 73.959c-.513-.201-1.095.051-1.296.566-.67 1.709-1.424 3.472-2.24 5.241-.231.501-.013 1.096.489 1.327.136.063.278.092.418.092.378 0 .74-.215.909-.581.832-1.804 1.602-3.604 2.285-5.348.203-.515-.051-1.095-.565-1.297z"/><path d="m76.148 38.911c2.811-1.51 3.868-6.577 4.235-9.22.091-.659-.634-1.115-1.193-.756l-11.556 7.424c-.496.318-.477 1.047.038 1.334 1.841 1.026 5.651 2.735 8.476 1.218z"/><path d="m60.571 36.359-11.556-7.424c-.56-.359-1.285.097-1.193.756.367 2.644 1.424 7.71 4.235 9.22 2.826 1.518 6.635-.192 8.477-1.218.514-.287.532-1.016.037-1.334z"/><path d="m63.448 48.47c3.379.295 5.441 2.438 7.191 1 1.956-1.607-3.365-7.75-7.125-7.75s-8.419 4.423-7.5 6.375c1 2.125 3.828.061 7.434.375z"/></g></g></g></svg>