<svg id="Layer_1" enable-background="new 0 0 128 128" height="512" viewBox="0 0 128 128" width="512" xmlns="http://www.w3.org/2000/svg"><g><g><g><path d="m121.738 113.241c-1.041-1.034-2.368-1.673-3.802-1.846-.828-3.369-3.872-5.818-7.393-5.818-2.385 0-4.631 1.145-6.066 3.04-1.763-.88-3.704-1.342-5.668-1.342-3.174 0-6.233 1.202-8.57 3.334-1.092-1.177-2.865-1.684-4.44-1.189-1.231-2.155-3.422-3.561-5.901-3.795v-27.226c.99-.883 3.693-3.564 6.047-8.36.885-1.803 1.548-4.013 2.25-6.354.864-2.885 1.76-5.869 3.096-8.053 2.193-3.583 4.974-6.549 7.004-8.714 1.503-1.603 2.237-2.403 2.523-3.063 1.69-3.908.39-7.174-.897-8.417-.604-.583-1.694-.833-3.074-1.149-.444-.102-.912-.209-1.38-.333-.205-.054-.457-.2-.725-.354-.517-.299-1.096-.639-1.825-.604-1.166.056-2.033.439-2.578 1.14-.578.745-.729 1.748-.459 3.064.198.967 1.112 2.116 1.827 2.894l-3.167 2.413c-.231.178-.546.182-.783.01-.21-.152-.311-.414-.257-.668l3.921-18.554c.472-2.236-.897-4.414-3.116-4.957-2.213-.541-4.438.752-5.054 2.953l-4.194 14.985c-.031.112-.109.168-.152.192-.046.024-.137.057-.244.024-.144-.044-.237-.184-.222-.333l2.031-20.038c.252-2.5-1.572-4.774-4.067-5.068-2.496-.299-4.795 1.49-5.133 3.976l-2.393 17.579c-.021.163-.12.258-.178.3-.057.042-.18.108-.341.083-.216-.035-.375-.219-.378-.438l-.296-18.968c-.042-2.754-2.317-4.995-5.072-4.995-2.754 0-4.981 2.157-5.07 4.9-.007.159-.685 15.931-1.056 19.346-.353 3.241-1.086 9.986-5.729 12.189-1.225.582-2.244.686-3.036.308-.863-.412-1.339-1.323-1.558-1.875.833-1.005 2.722-3.519 3.024-5.956.488-3.921-1.299-7.221-3.223-7.552-.953-.165-2.063.63-4.483 2.441-.527.395-1.086.813-1.663 1.229-.794.575-1.635 1.093-2.446 1.595-2.031 1.255-3.786 2.338-4.391 3.963-1.509 4.056 2.223 16.914 3.474 19.785 1.655 3.795 5.44 10.816 8.674 14.546 2.235 2.578 4.306 3.606 5.42 4.002v20.146c-2.174-.988-4.559-1.525-7.016-1.525-6.238 0-11.858 3.342-14.859 8.776-1.133-.268-2.292-.404-3.455-.404-6.499 0-11.853 4.07-12.406 9.279-2.541.5-4.479 2.765-4.479 5.431v3.192c0 .552.447 1 1 1h113.333c.553 0 1-.448 1-1v-4.535c0-1.752-.685-3.397-1.929-4.632z" fill="#e6e7e8"/></g><g><path d="m95.406 105.314c3.729 0 6.011-5.551 6.011-8.574 0-2.951-2.65-4.713-7.089-4.713-3.418 0-6.198 2.781-6.198 6.198 0 3.379 3.808 7.089 7.276 7.089z" fill="#e6e7e8"/></g><g><path d="m86.936 77.527c-1.081.264-1.995.933-2.573 1.884-.571.939-.696 2.241-.344 3.574.348 1.31 1.083 2.388 2.019 2.957.433.263.929.394 1.468.394.694 0 1.459-.217 2.252-.647 1.085-.588 2.104-1.523 2.661-2.439.611-1.005.573-2.145-.108-3.209-.585-.914-1.531-1.606-2.222-2.026-.951-.577-2.071-.751-3.153-.488z" fill="#e6e7e8"/></g><g><path d="m92.765 67.713c.575 0 1.158-.164 1.707-.502.837-.516 1.51-1.375 1.845-2.358.369-1.083.276-2.195-.253-3.052-.308-.499-.71-1.025-1.36-1.146-.679-.126-1.198.266-1.65.612-.189.146-.414.319-.694.492-.257.158-.537.303-.813.447-.937.488-1.905.993-2.174 1.963-.099.359-.131.926.277 1.588.782 1.27 1.935 1.956 3.115 1.956z" fill="#e6e7e8"/></g><g><path d="m45.019 84.017c.953-.613 1.582-1.018 1.842-1.712.329-.878-.132-1.709-.676-2.554-2.887-4.486-5.054-4.041-6.089-3.375-2.25 1.449-2.932 3.843-1.657 5.822.646 1.005 1.709 1.802 2.914 2.187.505.161 1.013.241 1.504.241.788 0 1.535-.205 2.159-.607z" fill="#e6e7e8"/></g></g><g><path d="m41.884 68.855c3.045 3.512 5.664 3.903 5.664 3.903v22.536c2.06 1.198 3.832 2.836 5.176 4.794 2.844-1.281 6.501-1.552 10.185-.482 3.207.932 5.849 2.714 7.614 4.877 1.137-1.116 2.672-1.822 4.374-1.892v-28.653s3.334-2.605 6.149-8.339c1.948-3.968 2.901-10.421 5.391-14.488 3.61-5.897 8.855-10.251 9.462-11.652 1.628-3.762.14-6.514-.674-7.3-.558-.539-2.287-.778-4.015-1.235-.792-.21-1.504-.962-2.246-.927-2.358.112-2.358 1.769-2.106 3.004.253 1.235 2.358 3.201 2.358 3.201l-4.071 3.102c-.581.443-1.384.453-1.976.024-.531-.384-.785-1.044-.65-1.685l3.921-18.554c.358-1.694-.693-3.367-2.375-3.779-1.681-.412-3.386.584-3.853 2.251l-4.194 14.985c-.199.713-.947 1.121-1.654.903-.6-.184-.986-.766-.922-1.391l2.031-20.037c.2-1.973-1.219-3.742-3.189-3.974-1.967-.232-3.758 1.155-4.025 3.118l-2.392 17.578c-.11.807-.863 1.366-1.668 1.237-.695-.112-1.209-.706-1.22-1.41l-.295-18.968c-.035-2.224-1.848-4.01-4.073-4.01-2.199 0-4 1.745-4.071 3.942 0 0-.682 15.924-1.061 19.411-.43 3.951-1.324 10.626-6.294 12.985s-6.149-2.695-6.149-2.695 2.812-3.062 3.159-5.854c.435-3.499-1.179-6.233-2.401-6.444-.741-.128-2.9 1.695-5.391 3.496-2.687 1.942-5.786 3.216-6.486 5.096-1.348 3.622 2.142 16.029 3.453 19.036 1.577 3.612 5.285 10.566 8.514 14.29z" fill="#6dc9f7"/><path d="m113.1 108.348c-.432-3.252-3.186-5.77-6.556-5.77-2.467 0-4.596 1.36-5.742 3.357-1.755-1.047-3.8-1.659-5.992-1.659-3.464 0-6.568 1.51-8.716 3.897-.523-1.148-1.674-1.95-3.018-1.95-.644 0-1.241.192-1.75.509-.986-2.434-3.365-4.154-6.152-4.154-1.812 0-3.451.73-4.65 1.906-1.765-2.164-4.407-3.946-7.614-4.877-3.683-1.07-7.34-.799-10.185.482-2.883-4.198-7.713-6.955-13.191-6.955-6.301 0-11.735 3.653-14.343 8.948-1.239-.366-2.573-.575-3.972-.575-6.328 0-11.457 4.09-11.457 9.135 0 .015.003.028.003.043-2.463.056-4.431 2.068-4.431 4.532v3.193h113.333v-4.535c0-3.07-2.499-5.55-5.567-5.527z" fill="#ffd7e5"/><path d="m90.328 89.027c-2.871 0-5.198 2.327-5.198 5.198s3.405 6.089 6.276 6.089 5.011-4.704 5.011-7.574c0-2.871-3.219-3.713-6.089-3.713z" fill="#ffd7e5"/><g><path d="m90.327 92.027c2.425 0 5.089.606 5.862 2.522.148-.64.228-1.258.228-1.809 0-2.871-3.219-3.713-6.089-3.713s-5.198 2.327-5.198 5.198c0 .473.1.955.267 1.431.668-2.099 2.61-3.629 4.93-3.629z" fill="#fff"/></g><path d="m85.569 74.87c-1.495-.909-3.443-.434-4.352 1.061s-.154 4.248 1.341 5.157 4.098-.863 5.007-2.358-.501-2.952-1.996-3.86z" fill="#ffd7e5"/><path d="m91.214 58.325c-.803-1.302-1.029-.518-2.33.285-1.302.803-3.186 1.321-2.383 2.623s2.146 1.93 3.448 1.127 2.068-2.733 1.265-4.035z" fill="#ffd7e5"/><g><path d="m41.345 76.292c-1.06-1.646-3.061-4.135-4.707-3.075s-2.417 2.794-1.358 4.44c1.06 1.646 3.549 2.581 5.195 1.521s1.929-1.24.87-2.886z" fill="#ffd7e5"/><g fill="#3a2c60"><path d="m74.898 88.966c.553 0 1-.448 1-1v-4.833c0-.552-.447-1-1-1s-1 .448-1 1v4.833c0 .552.447 1 1 1z"/><path d="m52.087 65.779c.161.096.338.142.513.142.34 0 .672-.173.858-.486l.474-.792.61.685c.197.222.472.335.747.335.236 0 .475-.083.665-.253.412-.367.449-.999.082-1.412l-1.027-1.154.786-1.312c.284-.474.13-1.088-.344-1.372-.475-.284-1.089-.129-1.371.344l-.464.774-1.98-2.226 1.29-1.532c.356-.422.302-1.053-.121-1.409s-1.054-.3-1.408.121l-1.104 1.311-1.451-1.631c-.366-.413-1.001-.45-1.412-.083-.412.367-.449.999-.082 1.412l1.644 1.848-1.622 1.927c-.356.422-.302 1.053.121 1.409.188.158.416.235.643.235.285 0 .568-.121.766-.356l1.436-1.706 2.205 2.478-.796 1.33c-.286.475-.132 1.089.342 1.373z"/><path d="m76.486 48.306c.197.235.48.356.766.356.227 0 .455-.077.643-.235.423-.356.478-.987.121-1.409l-1.622-1.927 1.644-1.848c.367-.413.33-1.044-.082-1.412-.411-.366-1.045-.331-1.412.083l-1.451 1.631-1.104-1.311c-.354-.422-.985-.478-1.408-.121-.423.356-.478.987-.121 1.409l1.29 1.532-1.98 2.226-.464-.774c-.282-.474-.896-.627-1.371-.344-.474.284-.628.898-.344 1.372l.786 1.312-1.027 1.154c-.367.413-.33 1.044.082 1.412.19.169.428.253.665.253.275 0 .55-.113.747-.335l.61-.685.474.792c.187.313.519.486.858.486.175 0 .352-.046.513-.142.474-.284.628-.898.344-1.372l-.796-1.33 2.205-2.478z"/><path d="m117.738 109.242c-1.042-1.034-2.368-1.674-3.802-1.847-.829-3.369-3.873-5.817-7.393-5.817-2.384 0-4.631 1.144-6.067 3.04-1.762-.88-3.703-1.342-5.667-1.342-3.173 0-6.233 1.202-8.57 3.333-1.092-1.178-2.866-1.687-4.441-1.188-1.229-2.155-3.421-3.561-5.9-3.795v-10.243c0-.552-.447-1-1-1s-1 .448-1 1v10.305c-1.186.2-2.305.673-3.274 1.396-1.922-2.033-4.525-3.592-7.435-4.438-3.451-1.002-7.088-.917-10.115.218-1.261-1.661-2.801-3.051-4.525-4.132v-21.974c0-.487-.361-.905-.842-.987-.023-.004-2.346-.433-5.066-3.571-3.099-3.573-6.749-10.358-8.351-14.035-1.514-3.47-4.575-15.22-3.434-18.288.365-.981 1.921-1.942 3.567-2.959.843-.52 1.714-1.058 2.567-1.675.586-.424 1.154-.849 1.689-1.25 1.121-.838 2.502-1.872 3.015-2.047.573.269 1.877 2.353 1.509 5.311-.304 2.436-2.877 5.273-2.903 5.302-.223.244-.312.582-.236.903.024.107.637 2.637 2.779 3.67 1.364.657 2.97.557 4.771-.298 5.652-2.682 6.468-10.178 6.859-13.78.378-3.479 1.037-18.824 1.065-19.487.054-1.667 1.403-2.974 3.072-2.974s3.047 1.357 3.072 3.025l.296 18.969c.019 1.191.885 2.192 2.061 2.382.663.109 1.315-.055 1.849-.451.535-.396.879-.978.97-1.639l2.392-17.577c.192-1.413 1.493-2.434 2.917-2.26 1.418.167 2.455 1.459 2.311 2.88l-2.03 20.037c-.111 1.094.571 2.124 1.624 2.448.603.185 1.239.12 1.791-.182s.95-.802 1.119-1.408l4.194-14.986c.323-1.154 1.488-1.834 2.651-1.549 1.165.285 1.883 1.428 1.635 2.602l-3.921 18.555c-.216 1.026.193 2.087 1.043 2.701.955.691 2.226.676 3.168-.039l4.071-3.102c.233-.178.377-.451.393-.745.015-.294-.102-.58-.316-.781-.901-.842-1.945-2.103-2.062-2.67-.179-.872-.056-1.262.079-1.435.212-.272.712-.351 1.095-.369h.007c.138 0 .487.202.72.337.353.204.751.435 1.216.558.489.129.979.242 1.443.349.801.184 1.897.436 2.133.64.572.552 1.883 2.874.45 6.184-.159.37-1.17 1.448-2.147 2.49-1.971 2.103-4.95 5.28-7.249 9.037-1.473 2.404-2.404 5.513-3.306 8.52-.678 2.26-1.317 4.394-2.13 6.049-2.665 5.428-5.837 7.968-5.867 7.991-.242.189-.384.48-.384.788v5.612c0 .552.447 1 1 1s1-.448 1-1v-5.15c.989-.883 3.692-3.564 6.046-8.36.886-1.804 1.549-4.015 2.251-6.356.864-2.885 1.759-5.867 3.095-8.05 2.193-3.582 4.973-6.547 7.003-8.713 1.504-1.604 2.239-2.404 2.524-3.063 1.691-3.908.39-7.175-.897-8.417-.603-.583-1.693-.833-3.073-1.15-.444-.102-.912-.209-1.38-.333-.206-.054-.459-.201-.726-.355-.517-.299-1.095-.636-1.824-.604-1.166.056-2.033.439-2.578 1.14-.578.745-.729 1.747-.459 3.063.197.968 1.112 2.117 1.827 2.895l-3.166 2.413c-.234.177-.547.18-.784.01-.21-.152-.312-.415-.258-.669l3.921-18.553c.473-2.236-.896-4.414-3.115-4.958-2.225-.542-4.438.754-5.054 2.953l-4.194 14.985c-.031.112-.109.168-.152.192-.045.023-.134.058-.245.025-.144-.044-.236-.185-.221-.334l2.03-20.037c.254-2.5-1.57-4.774-4.066-5.068-2.496-.292-4.795 1.49-5.134 3.977l-2.392 17.577c-.022.164-.121.26-.178.302-.059.042-.178.109-.34.083-.217-.035-.376-.219-.379-.438l-.296-18.975c-.042-2.754-2.317-4.994-5.072-4.994s-4.982 2.157-5.07 4.899c-.007.159-.685 15.932-1.056 19.346-.353 3.241-1.086 9.986-5.729 12.189-1.223.581-2.244.685-3.036.308-.863-.411-1.339-1.322-1.558-1.875.832-1.005 2.722-3.52 3.024-5.956.488-3.921-1.299-7.222-3.223-7.553-.955-.165-2.063.63-4.483 2.441-.527.395-1.086.813-1.663 1.229-.794.574-1.634 1.093-2.446 1.594-2.032 1.255-3.787 2.338-4.392 3.963-1.509 4.055 2.223 16.914 3.475 19.784 1.653 3.793 5.437 10.813 8.673 14.546 2.236 2.578 4.306 3.605 5.42 4.002v20.146c-2.174-.988-4.559-1.525-7.015-1.525-6.238 0-11.858 3.342-14.859 8.776-1.133-.268-2.292-.404-3.455-.404-6.499 0-11.853 4.07-12.406 9.279-2.541.5-4.479 2.765-4.479 5.431v3.193c0 .552.447 1 1 1h113.334c.553 0 1-.448 1-1v-4.536c-.001-1.748-.685-3.393-1.93-4.627zm-.071 8.166h-111.334v-2.193c0-1.905 1.55-3.489 3.454-3.533.544-.012.975-.499.975-1.042 0-4.485 4.691-8.135 10.457-8.135 1.246 0 2.487.18 3.688.534.467.14.966-.081 1.181-.517 2.548-5.175 7.7-8.39 13.445-8.39 4.939 0 9.563 2.438 12.367 6.521.273.4.796.545 1.235.346 2.737-1.233 6.198-1.393 9.494-.434 2.88.837 5.408 2.453 7.119 4.549.178.218.438.351.72.366.264.018.554-.088.755-.285 1.064-1.044 2.467-1.62 3.949-1.62 2.306 0 4.356 1.385 5.226 3.529.11.273.337.484.617.576.282.091.587.053.838-.102 1.184-.739 2.773-.217 3.33 1.006.14.307.425.523.758.574.331.051.669-.068.896-.319 2.04-2.266 4.945-3.566 7.973-3.566 1.92 0 3.815.525 5.48 1.518.23.138.507.177.765.108.26-.068.48-.237.614-.469 1.026-1.788 2.849-2.854 4.875-2.854 2.801 0 5.193 2.107 5.565 4.902.066.497.49.868.991.868h.042c1.202 0 2.333.465 3.187 1.313.863.856 1.338 1.997 1.338 3.211z"/><path d="m91.405 101.314c3.729 0 6.012-5.551 6.012-8.574 0-2.951-2.65-4.713-7.09-4.713-3.418 0-6.198 2.781-6.198 6.198 0 3.379 3.809 7.089 7.276 7.089zm-1.078-11.287c1.53 0 5.09.264 5.09 2.713 0 2.477-1.875 6.574-4.012 6.574-2.367 0-5.276-2.806-5.276-5.089 0-2.315 1.884-4.198 4.198-4.198z"/><path d="m80.362 75.412c-1.188 1.957-.327 5.313 1.676 6.531.448.272.944.391 1.459.391 1.881 0 4.01-1.584 4.922-3.083 1.045-1.72.152-3.725-2.33-5.235-1.965-1.194-4.532-.568-5.727 1.396zm4.688.312c.543.33 2.269 1.486 1.66 2.487-.742 1.22-2.824 2.515-3.633 2.022-1.037-.63-1.611-2.787-1.006-3.783.407-.67 1.124-1.041 1.856-1.041.385.001.772.102 1.123.315z"/><path d="m88.766 63.713c.576 0 1.158-.164 1.707-.502 1.686-1.039 2.725-3.574 1.593-5.41-.309-.5-.711-1.026-1.361-1.146-.679-.125-1.198.266-1.65.612-.189.146-.414.319-.695.492-.256.158-.537.304-.813.448-.938.488-1.906.993-2.174 1.963-.099.359-.131.925.278 1.588.782 1.269 1.935 1.955 3.115 1.955zm-.297-3.733c.319-.167.644-.336.939-.52.349-.214.628-.427.862-.607.021-.016.042-.032.064-.049.009.014.018.029.027.045.501.811-.098 2.14-.939 2.658-1.062.653-1.854-.448-2.071-.801-.008-.013-.015-.023-.02-.033.187-.197.774-.503 1.138-.693z"/><path d="m42.186 75.75c-2.888-4.485-5.053-4.041-6.089-3.375-1.035.666-1.761 1.536-2.098 2.515-.38 1.102-.224 2.276.44 3.307.646 1.004 1.708 1.802 2.914 2.187.505.162 1.013.241 1.504.241.788 0 1.534-.205 2.158-.607l.005-.003c1.766-1.136 2.691-1.894 1.166-4.265zm-2.248 2.584-.004.003c-.698.449-1.533.282-1.972.142-.759-.243-1.447-.752-1.841-1.364-.334-.519-.412-1.048-.231-1.573.188-.543.646-1.071 1.289-1.485.088-.056.188-.083.301-.083.712 0 1.887 1.092 3.024 2.859.295.458.404.687.445.798-.17.162-.614.448-1.011.703z"/></g></g></g></g></svg>