<svg id="Layer_1" enable-background="new 0 0 128 128" height="512" viewBox="0 0 128 128" width="512" xmlns="http://www.w3.org/2000/svg"><g><g><path d="m114.752 121.621h-7.333v-12.971c5.702-.508 10.188-5.306 10.188-11.138 0-6.17-5.02-11.189-11.188-11.189-6.17 0-11.189 5.02-11.189 11.189 0 5.832 4.487 10.63 10.189 11.138v12.971h-15.109c.218-.208.428-.426.623-.663 1.265-1.546 1.818-3.489 1.561-5.471-.958-7.381-2.488-19.263-3.358-26.031-.449-3.492-1.278-6.948-2.463-10.274h-.001l-4.582-12.845c.012-.062.043-.119.043-.183v-4.724-1.508c0-.883-.391-1.67-1-2.22l.797-12.321 4.29 6.705c.682 1.066 1.107 2.296 1.229 3.558l1.303 13.457c.317 3.27 3.107 5.642 6.41 5.419 1.629-.115 3.107-.864 4.163-2.11 1.057-1.246 1.554-2.827 1.401-4.453l-1.238-13.175c-.302-3.21-1.381-6.343-3.118-9.059l-8.518-13.311c-2.256-3.525-5.718-5.969-9.665-6.947.164-.778.252-1.583.252-2.408 0-3.52-1.571-6.674-4.041-8.818-.653-3.26-3.251-5.639-3.877-5.822-.343-.099-.748-.005-1.006.237-.468.44-.349.971-.197 1.644.081.36.189.858.265 1.433-.908-.227-1.853-.361-2.83-.361s-1.922.134-2.83.361c.076-.575.184-1.073.265-1.433.151-.673.271-1.204-.197-1.644-.258-.242-.665-.336-1.005-.237-.627.182-3.225 2.561-3.878 5.822-2.47 2.144-4.041 5.298-4.041 8.818 0 .826.089 1.631.252 2.409-3.948.978-7.409 3.423-9.666 6.948l-8.517 13.312c-1.736 2.714-2.813 5.845-3.116 9.055l-1.24 13.176c-.099 1.045.075 2.07.49 3.001l-17.85 21.143c-.774.917-1.138 2.125-.997 3.317s.775 2.283 1.742 2.995c.751.553 1.662.847 2.585.847.264 0 .529-.024.791-.073 1.18-.22 2.227-.926 2.872-1.938l14.649-22.962c.414.121.842.203 1.283.234 3.284.227 6.093-2.149 6.409-5.42l1.303-13.456c.122-1.261.548-2.491 1.23-3.558l4.289-6.705.797 12.321c-.609.549-1 1.337-1 2.22v1.508 4.723c0 .064.031.12.043.182l-4.582 12.839c-1.188 3.328-2.018 6.792-2.468 10.295l-3.366 26.221c-.248 1.933.296 3.828 1.531 5.336.173.211.359.408.551.595h-13.114v-4.977c4.742-.501 8.45-4.523 8.45-9.395 0-5.21-4.239-9.45-9.45-9.45-5.21 0-9.449 4.239-9.449 9.45 0 4.873 3.708 8.894 8.449 9.395v4.977h-9.216c-.553 0-1 .448-1 1s.447 1 1 1h96c.553 0 1-.448 1-1s-.447-1.001-1-1.001zm-61.658 0c1.154-1.092 1.954-2.563 2.177-4.241l3.175-23.814c.438-3.292 1.33-6.509 2.65-9.563l2.24-5.18.165.915c.086.476.5.823.984.823h4.533c.484 0 .898-.347.984-.823l.165-.915 2.231 5.159c1.326 3.066 2.22 6.3 2.657 9.611l3.162 23.925c.214 1.618.973 3.037 2.067 4.102h-27.19z" fill="#e6e7e8"/></g><g><g><path d="m94.491 50.877c-.288-3.066-1.305-6.02-2.965-8.614l-8.517-13.311c-2.288-3.576-5.95-5.984-10.05-6.721.311-1.003.479-2.069.479-3.174 0-5.902-4.785-10.687-10.687-10.687s-10.687 4.785-10.687 10.687c0 1.105.168 2.171.479 3.174-4.1.738-7.762 3.145-10.05 6.722l-8.517 13.312c-1.659 2.593-2.675 5.545-2.964 8.61l-1.24 13.176c-.264 2.803 1.831 5.274 4.639 5.472 2.712.191 5.082-1.813 5.344-4.519l1.303-13.456c.138-1.424.612-2.795 1.383-4.001l5.933-9.273 1.334 20.607-5.935 16.63c-1.166 3.266-1.976 6.647-2.417 10.087l-3.366 26.22c-.44 3.427 2.093 6.519 5.54 6.762l.153.011c3.29.232 6.164-2.104 6.596-5.343.885-6.642 2.327-17.463 3.174-23.814.452-3.388 1.368-6.69 2.724-9.828l6.573-15.202 6.564 15.182c1.362 3.15 2.281 6.475 2.731 9.877l3.162 23.925c.417 3.156 3.218 5.441 6.393 5.217l.157-.011c3.588-.253 6.203-3.441 5.744-6.979-.96-7.381-2.489-19.264-3.36-26.033-.441-3.433-1.25-6.805-2.413-10.065l-5.935-16.637 1.334-20.607 5.933 9.273c.771 1.205 1.245 2.576 1.383 4.001l1.303 13.456c.262 2.706 2.632 4.71 5.344 4.519 2.808-.198 4.903-2.668 4.639-5.471z" fill="#d4fbff"/><path d="m36.18 61.784c-1.114-.82-2.704-.31-3.133 1.005l-.663 2.03-20.201 23.927c-1.251 1.482-.987 3.712.574 4.861 1.562 1.149 3.77.738 4.812-.897l16.842-26.4 1.741-1.236c1.128-.8 1.142-2.47.028-3.29z" fill="#0089ef"/><g fill="#fa759e"><path d="m66.079 12.055c-.081.19-.167.375-.257.556-.368.737.047 1.621.859 1.765l1.222.217c.631.112 1.252-.281 1.394-.906.099-.437.176-.885.223-1.341.391-3.833-2.919-6.863-3.279-6.968-.39-.114 1.272 3.306-.162 6.677z"/><path d="m59.425 12.055c.081.19.167.375.257.556.368.737-.047 1.621-.859 1.765l-1.222.217c-.631.112-1.252-.281-1.394-.906-.099-.437-.176-.885-.223-1.341-.391-3.833 2.919-6.863 3.279-6.968.39-.114-1.272 3.306.162 6.677z"/></g><path d="m75.132 53.922h-24.76c-1.105 0-2 .895-2 2v1.508h28.76v-1.508c0-1.105-.895-2-2-2z" fill="#0089ef"/><path d="m77.132 57.43h-28.76v4.724l11.234 8.518.88 4.89h4.532l.881-4.89 11.233-8.518z" fill="#fa759e"/></g><g id="XMLID_40_"><ellipse cx="102.419" cy="93.512" fill="#fa759e" rx="10.189" ry="10.189" transform="matrix(.526 -.851 .851 .526 -30.972 131.473)"/><g><path d="m102.419 86.323c5.116 0 9.34 3.775 10.067 8.689.073-.491.123-.989.123-1.5 0-5.627-4.562-10.189-10.189-10.189s-10.189 4.562-10.189 10.189c0 .511.05 1.009.123 1.5.725-4.914 4.948-8.689 10.065-8.689z" fill="#fff"/></g></g><g id="XMLID_35_"><circle cx="24.968" cy="103.249" fill="#ffd7e5" r="8.45"/><g fill="#3a2c60"><path d="m85.372 95.136c-.548.071-.935.572-.864 1.12l.528 4.094c.065.504.496.872.991.872.042 0 .086-.002.129-.008.548-.071.935-.572.864-1.12l-.528-4.094c-.071-.547-.571-.941-1.12-.864z"/><path d="m110.752 117.621h-7.333v-12.971c5.702-.508 10.189-5.306 10.189-11.138 0-6.17-5.02-11.189-11.189-11.189s-11.189 5.02-11.189 11.189c0 5.832 4.487 10.63 10.189 11.138v12.971h-15.109c.218-.208.429-.426.623-.663 1.265-1.546 1.818-3.489 1.561-5.471l-1.072-8.284c-.071-.547-.571-.943-1.12-.864-.548.071-.935.572-.864 1.12l1.074 8.286c.186 1.43-.215 2.832-1.126 3.947-.921 1.125-2.234 1.802-3.695 1.906l-.158.011c-2.662.182-4.985-1.726-5.332-4.351l-3.161-23.926c-.462-3.495-1.406-6.908-2.805-10.143l-3.426-7.925.005-.031 9.701-7.357 4.273 11.977c1.137 3.186 1.932 6.502 2.362 9.857l.968 7.521c.071.547.558.942 1.12.864.548-.07.935-.571.864-1.119l-.968-7.521c-.45-3.497-1.278-6.953-2.464-10.273l-4.582-12.844c.012-.063.043-.12.043-.185v-4.723-1.508c0-.884-.391-1.671-1.001-2.22l.798-12.32 4.289 6.705c.684 1.068 1.108 2.298 1.23 3.558l1.305 13.455c.315 3.27 3.108 5.649 6.409 5.42 1.629-.115 3.107-.864 4.163-2.109 1.057-1.246 1.555-2.827 1.401-4.453l-1.238-13.174c-.302-3.209-1.38-6.342-3.117-9.06l-8.518-13.311c-2.256-3.524-5.723-5.95-9.67-6.927.166-.784.257-1.595.257-2.428 0-3.516-1.573-6.66-4.039-8.803-.648-3.268-3.253-5.654-3.881-5.837-.341-.098-.746-.003-1.005.238-.467.44-.348.972-.196 1.646.081.359.189.858.264 1.432-.907-.231-1.853-.362-2.831-.362s-1.923.131-2.83.362c.076-.574.184-1.072.264-1.432.151-.673.271-1.205-.196-1.646-.259-.243-.666-.336-1.006-.238-.627.183-3.232 2.569-3.88 5.837-2.466 2.143-4.039 5.287-4.039 8.803 0 .833.091 1.644.257 2.428-3.947.978-7.415 3.404-9.67 6.928l-8.517 13.313c-1.736 2.716-2.814 5.848-3.115 9.055l-1.241 13.176c-.099 1.045.075 2.07.49 3l-17.85 21.143c-.773.917-1.137 2.126-.995 3.318.141 1.191.775 2.282 1.741 2.993.751.553 1.662.847 2.585.847.264 0 .529-.024.791-.073 1.18-.22 2.227-.926 2.872-1.938l14.651-22.965c.413.122.84.205 1.281.236 3.3.231 6.093-2.15 6.409-5.42l1.303-13.456c.122-1.26.547-2.49 1.23-3.558l4.289-6.705.798 12.32c-.61.549-1.001 1.337-1.001 2.22v1.508 4.723c0 .065.031.122.043.184l-4.581 12.837c-1.188 3.327-2.019 6.791-2.469 10.295l-3.365 26.223c-.248 1.933.295 3.828 1.53 5.336.173.211.359.408.551.595h-13.113v-4.977c4.741-.501 8.449-4.523 8.449-9.395 0-5.21-4.239-9.45-9.449-9.45-5.211 0-9.45 4.239-9.45 9.45 0 4.873 3.708 8.894 8.45 9.395v4.977h-9.217c-.553 0-1 .448-1 1s.447 1 1 1h96c.553 0 1-.448 1-1s-.447-1-.999-1zm-17.523-24.109c0-5.067 4.122-9.189 9.189-9.189s9.189 4.123 9.189 9.189c0 4.729-3.591 8.632-8.189 9.132v-2.684l3.396-3.093c.408-.372.438-1.004.065-1.413-.371-.408-1.003-.438-1.413-.066l-2.048 1.865v-6.053c0-.552-.447-1-1-1s-1 .448-1 1v2.984l-1.924-1.808c-.4-.378-1.036-.359-1.413.044-.379.402-.358 1.035.044 1.413l3.293 3.094v5.717c-4.598-.5-8.189-4.403-8.189-9.132zm-75.711 9.737c0-4.108 3.342-7.45 7.45-7.45 4.107 0 7.449 3.342 7.449 7.45 0 3.768-2.814 6.883-6.449 7.375v-4.251l2.469-2.249c.408-.372.438-1.004.065-1.413s-1.003-.438-1.413-.066l-1.121 1.021v-1.955c0-.552-.447-1-1-1s-1 .448-1 1v3.902l-.757-.689c-.407-.372-1.039-.342-1.412.066-.372.408-.343 1.041.066 1.413l2.103 1.914v2.307c-3.636-.491-6.45-3.607-6.45-7.375zm31.854-44.819h7.014l1.781 9.897-8.796-6.67v-3.227zm0-2.508c0-.551.448-1 1-1h24.761c.552 0 1 .449 1 1v.508h-7.851-11.06-7.851v-.508zm9.047 2.508h3.333v8.156c0 .552.447 1 1 1s1-.448 1-1v-8.156h3.334l-2.903 16.131h-2.86zm17.713 3.227-8.796 6.67 1.781-9.897h7.014v3.227zm-9.414-48.602c.098-.198.192-.4.28-.607.002-.001.002-.001.002-.002.582-1.367.715-2.718.669-3.882.564 1.012.998 2.286.855 3.681-.039.392-.107.802-.203 1.22-.021.097-.134.157-.243.143l-1.221-.217c-.025-.004-.101-.018-.145-.105-.02-.041-.046-.125.006-.231zm-8.882-4.491c-.046 1.164.087 2.515.669 3.882 0 0 0 .001.001.002.088.207.183.409.281.608.052.104.025.188.005.229-.044.087-.119.101-.144.105l-1.222.217c-.11.015-.222-.045-.244-.144-.095-.417-.163-.827-.202-1.221-.142-1.393.291-2.666.856-3.678zm-2.731 4.577c.042.256.068.507.127.767.23 1.013 1.134 1.705 2.148 1.704.13 0 .263-.011.396-.035l1.223-.217c.689-.123 1.266-.551 1.58-1.176.32-.638.319-1.375-.002-2.019-.081-.164-.159-.331-.232-.503-.263-.62-.396-1.245-.46-1.851.907-.283 1.868-.44 2.867-.44s1.961.157 2.868.44c-.064.606-.197 1.232-.46 1.851-.073.172-.151.339-.231.502-.322.646-.323 1.382-.003 2.02.314.625.891 1.054 1.581 1.176l1.222.217c.133.024.266.035.396.035 1.015 0 1.918-.691 2.147-1.703.06-.261.086-.512.128-.768 1.272 1.638 2.04 3.686 2.04 5.916 0 5.341-4.346 9.687-9.688 9.687-5.341 0-9.687-4.346-9.687-9.687 0-2.23.768-4.278 2.04-5.916zm-38.379 79.032c-.354.555-.905.927-1.553 1.047-.645.121-1.293-.028-1.824-.418-.529-.39-.864-.964-.941-1.618s.114-1.291.538-1.793l20.201-23.928c.084-.098.146-.212.187-.334l.663-2.029c.104-.318.347-.559.665-.661.105-.034.212-.05.318-.05.216 0 .427.068.607.201.27.198.422.504.419.839-.003.334-.161.637-.434.831l-1.741 1.236c-.104.075-.194.169-.264.278zm32.648-53.963c-.028-.432-.33-.796-.748-.904-.417-.107-.858.065-1.093.429l-5.933 9.274c-.853 1.333-1.384 2.87-1.535 4.443l-1.303 13.456c-.211 2.183-2.073 3.768-4.278 3.617-.093-.007-.18-.031-.271-.045l.936-1.467 1.582-1.123c.802-.57 1.267-1.461 1.275-2.445.009-.984-.441-1.883-1.233-2.466-.793-.583-1.785-.744-2.722-.445-.938.301-1.649 1.009-1.955 1.945l-.603 1.844-.684.811c-.053-.323-.072-.653-.04-.988l1.242-13.176c.271-2.892 1.243-5.715 2.81-8.165l8.517-13.312c1.994-3.118 5.073-5.253 8.573-6.091 1.728 4.298 5.932 7.343 10.841 7.343s9.113-3.046 10.841-7.344c3.5.838 6.579 2.972 8.574 6.09l8.518 13.311c1.567 2.45 2.539 5.275 2.812 8.169l1.238 13.174c.103 1.085-.23 2.141-.936 2.973-.705.831-1.691 1.331-2.778 1.408-2.198.15-4.066-1.435-4.278-3.617l-1.303-13.456c-.151-1.573-.683-3.109-1.535-4.443l-5.933-9.273c-.233-.364-.675-.536-1.093-.429-.418.108-.72.472-.748.904l-.953 14.717c-.015 0-.029-.005-.045-.005h-24.761c-.015 0-.03.004-.045.005zm-10.39 73.735 3.365-26.221c.432-3.363 1.228-6.686 2.367-9.878l4.272-11.97 9.702 7.357.006.031-3.435 7.944c-1.393 3.221-2.334 6.617-2.798 10.092l-3.174 23.814c-.36 2.705-2.808 4.666-5.535 4.477l-.153-.011c-1.39-.098-2.642-.746-3.524-1.823-.882-1.076-1.271-2.43-1.093-3.812zm10.119 5.676c1.15-1.092 1.946-2.562 2.169-4.241l3.174-23.814c.439-3.293 1.331-6.511 2.651-9.563l2.24-5.18.165.915c.086.476.5.823.984.823h4.532c.484 0 .898-.347.984-.823l.165-.916 2.231 5.16c1.325 3.065 2.22 6.299 2.658 9.611l3.161 23.925c.214 1.618.973 3.037 2.067 4.102h-27.181z"/></g></g></g></g></svg>