<svg id="Layer_1" enable-background="new 0 0 128 128" height="512" viewBox="0 0 128 128" width="512" xmlns="http://www.w3.org/2000/svg"><g><g><path d="m96.855 88.97c1.665-1.034 2.995-2.047 3.741-2.976 2.882-3.588 3.659-9.679 3.543-15.753 1.985-.551 3.432-2.824 3.432-5.627 0-3.228-1.919-5.756-4.369-5.756-.044 0-.087.008-.131.009-.631-4.024-1.321-6.919-1.417-7.314-2.073-10.502-8.833-21.532-15.371-32.199-1.693-2.762-3.443-5.618-5.058-8.384-1.182-1.983-3.223-3.167-5.461-3.167s-4.279 1.184-5.466 3.174c-1.61 2.758-3.36 5.614-5.053 8.376-5.004 8.164-10.131 16.54-13.194 24.73v-16.768c0-3.816-2.77-8.538-8.232-14.033-2.073-2.085-4.832-3.234-7.768-3.234s-5.695 1.148-7.768 3.234c-5.462 5.495-8.232 10.216-8.232 14.033v19.174c0 .552.448 1 1 1h11.249v55.715c-3.315 1.451-5.64 4.759-5.64 8.603 0 1.515.369 2.943 1.01 4.212-2.034.247-3.62 1.964-3.62 4.064 0 2.269 1.845 4.114 4.114 4.114h80.786c1.654 0 3-1.346 3-3v-6.173c0-11.129-6.083-20.857-15.095-26.054zm-46.982-37.417c-.096.395-.786 3.29-1.417 7.314-.044-.002-.086-.009-.13-.009-2.45 0-4.369 2.528-4.369 5.756 0 2.803 1.447 5.076 3.432 5.627-.116 6.074.661 12.165 3.543 15.753.746.929 2.076 1.942 3.741 2.976-5.935 3.422-10.595 8.809-13.087 15.27-.554-.406-1.149-.757-1.785-1.035v-55.716h11.093c-.41 1.362-.755 2.717-1.021 4.064z" fill="#e6e7e8"/></g><g><g><path d="m90.841 85.009c-7.27 4.1-19.078 8.358-19.078 8.358s-11.807-4.258-19.078-8.358c-9.547 4.763-16.109 14.62-16.109 26.015v6.173c0 1.105.895 2 2 2h66.373c1.105 0 2-.895 2-2v-6.173c.001-11.395-6.56-21.252-16.108-26.015z" fill="#fa759e"/><g fill="#0089ef"><path d="m53.553 112.346h11.607v6.85h-11.607z"/><path d="m78.367 112.346h11.607v6.85h-11.607z"/></g><path d="m65.16 111.106h13.208v8.091h-13.208z" fill="#ffd7e5"/><path d="m71.764 93.367s-2.47-.891-5.844-2.248l5.844 10.375 5.844-10.375c-3.374 1.358-5.844 2.248-5.844 2.248z" fill="#fff"/><g><g fill="#fff"><path d="m45.655 60.955v-4.709c-.408-.248-.857-.388-1.33-.388-1.861 0-3.369 2.13-3.369 4.757s1.508 4.757 3.369 4.757c.603 0 1.161-.242 1.651-.634-.207-1.231-.321-2.494-.321-3.783z"/><path d="m99.202 55.858c-.339 0-.66.093-.968.226.406 2.787.762 6.018.875 9.278.031.001.062.009.093.009 1.861 0 3.369-2.13 3.369-4.757s-1.509-4.756-3.369-4.756z"/></g><path d="m96.678 47.771h-49.829s-6.092 24.938.862 33.597c3.765 4.687 24.052 12 24.052 12s20.287-7.313 24.052-12c6.956-8.659.863-33.597.863-33.597z" fill="#6dc9f7"/><path d="m49.155 47.771v13.184c0 12.486 10.122 22.608 22.608 22.608 12.486 0 22.608-10.122 22.608-22.608v-13.184z" fill="#fff"/><g><path d="m76.365 7.482c-2.129-3.572-7.075-3.572-9.204 0-7.704 13.195-17.741 27.214-20.312 40.289h49.829c-2.571-13.075-12.608-27.094-20.313-40.289z" fill="#fa759e"/><g><path d="m73.264 5.031c-2.201-.657-4.733.154-6.102 2.451-7.705 13.195-17.742 27.214-20.313 40.289h3c2.571-13.075 12.608-27.094 20.313-40.289.76-1.275 1.88-2.086 3.102-2.451z" fill="#fff"/></g></g></g></g><g><path d="m24.991 9.987c3.895-3.919 10.223-3.919 14.118 0 3.891 3.915 7.941 9.023 7.941 13.328v19.174h-30v-19.174c0-4.305 4.05-9.413 7.941-13.328z" fill="#d4fbff"/><g fill="#6dc9f7"><path d="m32.05 99.418c.965 0 1.887.171 2.75.471v-72.024c0-1.519-1.231-2.75-2.75-2.75-1.519 0-2.75 1.231-2.75 2.75v72.023c.863-.299 1.785-.47 2.75-.47z"/><path d="m39.936 112.969h-15.772c-1.72 0-3.114 1.394-3.114 3.114s1.394 3.114 3.114 3.114h15.773c1.72 0 3.114-1.394 3.114-3.114s-1.395-3.114-3.115-3.114z"/></g></g><g><circle cx="32.05" cy="107.807" fill="#fff" r="8.39"/><ellipse cx="32.05" cy="107.807" fill="#fff" rx="8.39" ry="8.39" transform="matrix(.707 -.707 .707 .707 -66.844 54.239)"/><g fill="#3a2c60"><path d="m99.795 90.467c-.045-.055-.091-.103-.146-.146-1.993-2.093-4.288-3.891-6.808-5.343 1.671-1.037 3.007-2.053 3.755-2.984 2.882-3.588 3.659-9.679 3.543-15.753 1.985-.551 3.432-2.824 3.432-5.627 0-3.228-1.919-5.756-4.369-5.756-.044 0-.086.01-.13.012-.629-4.007-1.315-6.892-1.416-7.309-.716-3.633-2.02-7.513-3.987-11.859-.228-.503-.819-.726-1.323-.499-.503.228-.727.82-.499 1.323 1.69 3.735 2.872 7.1 3.596 10.245h-1.071-45.217-1.07c2.263-9.813 8.666-20.26 14.865-30.375 1.698-2.771 3.454-5.635 5.07-8.402.818-1.372 2.217-2.191 3.743-2.191s2.925.819 3.738 2.183c1.621 2.776 3.377 5.641 5.076 8.412 1.904 3.107 3.874 6.321 5.705 9.49.276.478.887.642 1.366.365.479-.276.642-.888.366-1.366-1.844-3.191-3.82-6.416-5.731-9.535-1.693-2.761-3.443-5.617-5.058-8.383-1.182-1.983-3.223-3.167-5.46-3.167-2.238 0-4.279 1.184-5.466 3.174-1.61 2.757-3.36 5.612-5.052 8.374-5.005 8.165-10.132 16.543-13.196 24.734v-16.77c0-3.816-2.77-8.538-8.232-14.033-2.073-2.085-4.832-3.234-7.768-3.234s-5.695 1.148-7.768 3.234c-5.463 5.496-8.232 10.217-8.232 14.033v19.174c0 .552.448 1 1 1h11.249v55.715c-3.315 1.451-5.639 4.759-5.639 8.603 0 1.515.369 2.943 1.01 4.212-2.034.247-3.62 1.964-3.62 4.064 0 2.269 1.845 4.114 4.114 4.114h80.786c1.654 0 3-1.346 3-3v-6.173c-.001-7.945-3.103-15.177-8.156-20.556zm-2.478.354c-5.11 2.755-8.343 8.088-8.343 13.976v6.55h-9.607v-.24c0-.552-.448-1-1-1h-13.207c-.552 0-1 .448-1 1v.24h-9.607v-6.55c0-5.889-3.235-11.224-8.348-13.978 1.921-1.848 4.102-3.427 6.486-4.673 3.85 2.124 8.717 4.232 12.533 5.775l5.54 9.836v3.09c0 .552.448 1 1 1s1-.448 1-1v-3.09l5.539-9.835c3.812-1.541 8.674-3.647 12.522-5.769 2.385 1.244 4.569 2.819 6.492 4.668zm-56.887 21.198c.64-1.269 1.01-2.697 1.01-4.212 0-2.327-.856-4.454-2.262-6.096 1.236-3.499 3.146-6.68 5.576-9.39 4.759 2.32 7.8 7.136 7.8 12.475v7.55 5.851h-9.106c.375-.62.603-1.338.603-2.114-.001-2.1-1.588-3.817-3.621-4.064zm30.995-17.71c.109.04.224.059.339.059s.229-.02.339-.059c.196-.071 1.432-.519 3.248-1.221l-3.587 6.369-3.587-6.369c1.816.702 3.052 1.15 3.248 1.221zm30.146-33.695c0 1.555-.64 2.937-1.509 3.492-.13-2.53-.39-5.001-.696-7.235 1.191.141 2.205 1.797 2.205 3.743zm-8.199-11.843v12.184c0 11.915-9.693 21.608-21.608 21.608s-21.608-9.693-21.608-21.608v-12.184zm-45.217 0v12.184c0 13.018 10.591 23.608 23.608 23.608s23.608-10.591 23.608-23.608v-12.184h.51c.934 4.207 5.064 24.614-.845 31.97-2.185 2.721-11.071 6.736-17.783 9.446-.007.003-.013.002-.02.005-2.602 1.047-4.683 1.822-5.47 2.112-.787-.29-2.866-1.064-5.471-2.112-.006-.002-.012-.002-.018-.004-6.712-2.71-15.598-6.725-17.784-9.446-5.907-7.353-1.778-27.763-.845-31.97h.51zm-4.689 15.335c-.869-.555-1.51-1.937-1.51-3.492 0-1.947.994-3.587 2.203-3.729-.304 2.231-.564 4.697-.693 7.221zm2.407-16.553c-.096.395-.786 3.291-1.418 7.317-.044-.002-.086-.012-.13-.012-2.45 0-4.369 2.528-4.369 5.756 0 2.803 1.448 5.076 3.433 5.627-.116 6.074.661 12.165 3.543 15.753.746.929 2.078 1.944 3.744 2.978-5.935 3.423-10.587 8.815-13.08 15.276-.557-.41-1.156-.764-1.796-1.044v-55.715h11.094c-.41 1.362-.755 2.717-1.021 4.064zm-27.823-6.064v-18.174c0-3.223 2.646-7.587 7.65-12.623 1.695-1.705 3.95-2.644 6.35-2.644s4.655.939 6.35 2.644c5.004 5.035 7.65 9.399 7.65 12.623v18.174h-10.25v-13.624c0-2.068-1.682-3.75-3.75-3.75s-3.75 1.682-3.75 3.75v13.624zm12.25-13.624c0-.965.785-1.75 1.75-1.75s1.75.785 1.75 1.75v70.722c-.568-.108-1.151-.17-1.75-.17s-1.182.062-1.75.17zm1.75 72.553c4.075 0 7.39 3.315 7.39 7.39s-3.315 7.39-7.39 7.39c-4.074 0-7.389-3.315-7.389-7.39s3.315-7.39 7.389-7.39zm-10 15.665c0-1.166.948-2.114 2.114-2.114h.819c1.722 1.973 4.248 3.228 7.067 3.228s5.345-1.255 7.067-3.228h.819c1.165 0 2.113.948 2.113 2.114s-.948 2.114-2.113 2.114h-15.772c-1.166 0-2.114-.948-2.114-2.114zm32.503-2.737h9.607v4.851h-9.607zm11.607-1v-.24h11.208v.24 5.851h-11.208zm13.207 1h9.607v4.851h-9.607zm26.583 3.851c0 .551-.449 1-1 1h-13.976v-5.851-7.55c0-5.337 3.04-10.153 7.797-12.474 4.456 4.967 7.178 11.518 7.178 18.701v6.174z"/><path d="m87.98 28.891c.896 1.624 1.688 3.127 2.419 4.594.175.351.528.554.896.554.149 0 .302-.034.445-.105.495-.246.695-.847.449-1.341-.744-1.493-1.548-3.021-2.458-4.669-.268-.484-.875-.659-1.359-.392s-.659.875-.392 1.359z"/><path d="m61.39 55.53c-1.249 0-2.261 1.012-2.261 2.261s1.012 2.261 2.261 2.261 2.261-1.012 2.261-2.261-1.012-2.261-2.261-2.261z"/><path d="m81.339 55.53c-1.249 0-2.261 1.012-2.261 2.261s1.012 2.261 2.261 2.261 2.261-1.012 2.261-2.261-1.012-2.261-2.261-2.261z"/><path d="m71.764 68.854c1.969 0 3.571-1.602 3.571-3.571v-1.507c0-.552-.448-1-1-1s-1 .448-1 1v1.507c0 .866-.705 1.571-1.571 1.571s-1.571-.705-1.571-1.571v-1.507c0-.552-.448-1-1-1s-1 .448-1 1v1.507c-.001 1.968 1.602 3.571 3.571 3.571z"/><path d="m79.619 53.412 4.427.771c.058.01.116.015.172.015.477 0 .899-.342.984-.829.095-.544-.27-1.062-.814-1.157l-4.427-.771c-.547-.09-1.062.271-1.157.814-.094.544.27 1.062.815 1.157z"/><path d="m58.511 54.198c.057 0 .115-.005.172-.015l4.427-.771c.544-.095.909-.613.814-1.157-.095-.543-.613-.904-1.157-.814l-4.427.771c-.544.095-.909.613-.814 1.157.085.486.508.829.985.829z"/><path d="m71.764 75.762c3.71 0 5.723-2.6 5.806-2.71.333-.44.247-1.067-.193-1.401-.442-.335-1.069-.247-1.401.193-.015.02-1.485 1.918-4.212 1.918-2.749 0-4.139-1.819-4.203-1.905-.324-.443-.947-.542-1.392-.221-.448.323-.549.948-.226 1.396.081.113 2.013 2.73 5.821 2.73z"/></g></g></g></g></svg>