<svg id="Layer_1" enable-background="new 0 0 128 128" height="512" viewBox="0 0 128 128" width="512" xmlns="http://www.w3.org/2000/svg"><g><g><path d="m117.538 31.598c.451-1.179.131-2.481-.813-3.318-.946-.837-2.277-.997-3.392-.405l-12.85 6.803c-2.066-10.925-11.677-19.215-23.193-19.215s-21.126 8.29-23.191 19.214l-12.849-6.803c-1.116-.59-2.447-.431-3.392.405-.945.837-1.264 2.139-.813 3.318l5.87 15.345c1.857 4.854 6.291 8.276 11.364 8.951 1.489 6.537 5.696 12.047 11.368 15.278-11.054 2.061-20 10.186-23.235 20.784l-12.092-46.465c.274-.25.523-.528.716-.857.504-.859.644-1.862.393-2.826l-.137-.527c-.251-.963-.862-1.772-1.72-2.276-.144-.084-.297-.143-.447-.207l3.466-6.34c.178-.326.161-.723-.043-1.032l-12.86-19.416c-.479-.724-1.331-1.05-2.171-.831-.84.218-1.425.918-1.491 1.784l-1.763 23.221c-.028.37.151.725.465.922l6.117 3.846c-.101.129-.206.255-.29.399-.504.859-.644 1.862-.393 2.826l.137.527c.251.963.862 1.772 1.72 2.276.33.194.683.328 1.046.412l14.797 56.868c-2.086 1.724-3.417 4.329-3.417 7.24 0 5.177 4.212 9.39 9.39 9.39h66.643c1.654 0 3-1.346 3-3v-17.172c0-14.69-10.595-26.945-24.543-29.545 5.672-3.231 9.879-8.741 11.369-15.277.811-.108 1.607-.278 2.377-.521.56 2.449 2.128 4.171 4.027 4.171 2.383 0 4.25-2.708 4.25-6.167 0-1.302-.285-2.536-.786-3.571.601-.883 1.106-1.841 1.497-2.863zm-8.581 21.779c0 2.456-1.186 4.167-2.25 4.167-.872 0-1.815-1.16-2.131-2.926 1.55-.748 2.956-1.775 4.144-3.024.152.556.237 1.162.237 1.783z" fill="#e6e7e8"/></g><g><path d="m81.445 67.733c-2.531.98-5.279 1.523-8.156 1.523-2.876 0-5.625-.543-8.155-1.522-15.101 1.044-27.03 13.617-27.03 28.983v17.173c0 1.105.895 2 2 2h66.373c1.105 0 2-.895 2-2v-17.174c0-15.367-11.929-27.94-27.032-28.983z" fill="#fff"/><g><path d="m81.943 67.773c.677.059 1.349.133 2.012.237l-10.664 13.176-10.664-13.176c.663-.104 1.335-.178 2.012-.237-7.317.632-13.858 3.971-18.615 9.016 5.492 2.338 9.057 7.73 9.057 13.7v25.4h36.421v-25.4c0-5.969 3.565-11.361 9.057-13.7-4.757-5.046-11.298-8.384-18.616-9.016z" fill="#0089ef"/></g><g><path d="m57.323 115.889h8.812l28.612-43.853c-2.1-1.309-4.379-2.354-6.792-3.097z" fill="#6dc9f7"/></g><g><path d="m87.955 68.94-30.632 46.949h3l30.058-46.068c-.794-.324-1.599-.627-2.426-.881z" fill="#fff"/></g><g fill="#fff"><g><path d="m109.8 24.759-14.087 7.458c.118.936.186 1.888.186 2.857v11.572c0 1.485-.147 2.935-.421 4.34 5.029-.385 9.432-3.633 11.256-8.4l5.87-15.345c.66-1.725-1.171-3.346-2.804-2.482z"/><path d="m50.683 46.649v-11.579c0-.967.068-1.918.186-2.854l-14.086-7.458c-1.632-.864-3.464.757-2.804 2.482l5.87 15.345c1.823 4.766 6.226 8.014 11.255 8.4-.274-1.404-.421-2.852-.421-4.336z"/></g><path d="m73.289 12.463c-12.485 0-22.607 10.121-22.607 22.607v11.579c0 12.485 10.121 22.607 22.607 22.607 12.487 0 22.61-10.123 22.61-22.61v-11.573c0-12.487-10.123-22.61-22.61-22.61z"/></g><g><path d="m39.834 99.11c.152 0 .301.015.451.023l-15.101-58.037c-.209.121-.431.227-.676.29l-3.914 1.018c-.246.064-.49.08-.732.076l15.136 58.171c1.367-.967 3.033-1.541 4.836-1.541z" fill="#fa759e"/><circle cx="39.834" cy="107.499" fill="#fff" r="8.39"/><path d="m19.083 36.598 3.914-1.018c.202-.053.404-.076.604-.082l4.111-7.519-12.857-19.418c-.526-.794-1.759-.473-1.831.476l-1.764 23.222 7.255 4.562c.178-.092.366-.171.568-.223z" fill="#d4fbff"/><g><path d="m26.461 38.059-.137-.527c-.379-1.458-1.869-2.332-3.327-1.953l-3.914 1.018c-1.458.379-2.332 1.869-1.953 3.327l.137.527c.379 1.458 1.869 2.332 3.327 1.953l3.914-1.018c1.458-.379 2.332-1.869 1.953-3.327z" fill="#6dc9f7"/><g fill="#3a2c60"><path d="m83.786 114.889h-6.495c-.552 0-1 .448-1 1s.448 1 1 1h6.495c.552 0 1-.448 1-1s-.448-1-1-1z"/><path d="m113.538 27.598c.451-1.179.131-2.481-.814-3.318-.945-.836-2.277-.996-3.392-.405l-12.85 6.803c-2.066-10.924-11.678-19.215-23.194-19.215-11.515 0-21.125 8.29-23.19 19.215l-12.848-6.803c-1.116-.591-2.447-.431-3.393.405-.945.836-1.264 2.139-.813 3.318l5.87 15.345c1.852 4.84 6.262 8.284 11.364 8.954 1.491 6.541 5.704 12.054 11.383 15.283-11.066 2.06-20.013 10.19-23.243 20.804l-12.098-46.494c.273-.25.522-.528.715-.857.504-.859.644-1.862.393-2.826l-.137-.527c-.251-.963-.862-1.772-1.72-2.276-.144-.085-.297-.143-.448-.207l3.466-6.339c.178-.326.161-.723-.043-1.032l-12.857-19.417c-.479-.724-1.332-1.049-2.171-.831-.84.218-1.425.919-1.491 1.784l-1.764 23.221c-.028.37.151.725.465.922l6.117 3.846c-.101.129-.205.255-.29.399-.504.859-.644 1.862-.393 2.826l.137.527c.251.963.862 1.772 1.72 2.276.33.194.683.328 1.045.412l14.797 56.869c-2.086 1.724-3.417 4.329-3.417 7.24 0 5.177 4.212 9.389 9.39 9.389h33.194c.552 0 1-.448 1-1s-.448-1-1-1h-5.047l27.058-41.471c1.363.917 2.636 1.954 3.816 3.089-5.116 2.753-8.354 8.09-8.354 13.981v24.4h-2.71c-.552 0-1 .448-1 1s.448 1 1 1h18.687c1.654 0 3-1.346 3-3v-17.172c0-14.693-10.599-26.944-24.55-29.541 5.675-3.23 9.885-8.74 11.376-15.278.813-.107 1.608-.282 2.378-.524.56 2.448 2.128 4.171 4.027 4.171 2.383 0 4.25-2.709 4.25-6.167 0-1.303-.286-2.539-.788-3.575.6-.884 1.109-1.839 1.499-2.859zm-63.64 22.222c-4.106-.766-7.604-3.639-9.116-7.592l-5.87-15.345c-.23-.6.149-.998.271-1.105.085-.076.327-.259.659-.259.142 0 .301.034.472.124l13.482 7.137c-.073.754-.113 1.517-.113 2.29v11.579c0 1.076.079 2.134.219 3.173 0 0-.005-.003-.004-.002zm31.688 18.927c.153.012.306.021.458.035l-8.753 10.815-8.755-10.817c.151-.014.304-.022.455-.033 2.583.973 5.378 1.509 8.297 1.509 2.92 0 5.715-.537 8.298-1.509zm4.791.782-29.595 45.359h-.701v-24.4c0-5.891-3.237-11.227-8.353-13.98 3.917-3.771 8.922-6.414 14.494-7.41l10.292 12.717c.19.235.476.371.777.371s.587-.136.777-.371l10.291-12.716c.681.122 1.355.261 2.018.43zm-72.356-60.416 12.525 18.914-3.572 6.533c-.077.015-.153.031-.229.051l-.968.252-2.964-11.393c-.139-.534-.683-.856-1.22-.716-.534.139-.855.685-.716 1.22l2.964 11.393-1.011.263c-.075.02-.149.042-.224.067l-6.304-3.963zm4.214 31.086-.137-.527c-.116-.446-.052-.912.182-1.31s.608-.681 1.055-.797l3.914-1.019c.145-.038.292-.057.438-.057.303 0 .603.081.872.239.398.234.681.608.797 1.055l.137.527c.116.446.052.912-.182 1.31s-.608.681-1.055.797l-3.914 1.019c-.446.115-.912.052-1.31-.182-.398-.233-.681-.608-.797-1.055zm2.874 3.105 1.694-.441 1.694-.441 14.501 55.73c-1.202.107-2.336.445-3.366.963zm11.336 64.196c0-4.075 3.315-7.39 7.39-7.39s7.39 3.315 7.39 7.39c0 4.074-3.315 7.389-7.39 7.389s-7.39-3.315-7.39-7.389zm16.779 0c0-4.755-3.557-8.687-8.148-9.298l-1.585-6.093c.89-5.363 3.306-10.215 6.783-14.098 4.762 2.32 7.806 7.137 7.806 12.477v24.4h-8.473c2.198-1.719 3.617-4.388 3.617-7.388zm16.37 7.389h-6.424l29.204-44.76c1.737.587 3.397 1.338 4.964 2.238zm41.884-1c0 .551-.449 1-1 1h-13.976v-24.4c0-5.341 3.045-10.16 7.809-12.479 4.453 4.968 7.167 11.526 7.167 18.707zm-12.579-67.243c0 11.916-9.694 21.61-21.61 21.61-11.914 0-21.606-9.692-21.606-21.606v-11.58c0-11.914 9.692-21.607 21.606-21.607 11.916 0 21.61 9.694 21.61 21.61zm1.782 3.165c.14-1.036.218-2.092.218-3.166v-11.572c0-.774-.04-1.538-.113-2.293l13.482-7.137c.566-.301 1.009.027 1.131.135s.5.506.271 1.106l-5.87 15.345c-1.007 2.632-2.905 4.767-5.266 6.139.27-1.899 1.263-3.156 2.174-3.156.552 0 1-.448 1-1s-.448-1-1-1c-2.372 0-4.231 2.684-4.248 6.12-.577.203-1.167.376-1.775.49 0-.005-.004-.007-.004-.011zm8.277-.434c0 2.456-1.186 4.167-2.25 4.167-.872 0-1.814-1.158-2.13-2.923 1.553-.749 2.957-1.776 4.144-3.026.15.556.236 1.162.236 1.782z"/><path d="m66.12 24.534c2.379.338 4.775.508 7.171.508s4.792-.169 7.171-.508c.547-.078.927-.584.85-1.131-.078-.547-.585-.92-1.131-.85-4.572.652-9.208.651-13.78 0-.538-.073-1.053.302-1.131.85-.078.547.303 1.053.85 1.131z"/><path d="m62.119 29.534c3.707.527 7.439.791 11.172.791s7.465-.264 11.172-.791c.546-.078.927-.584.849-1.131s-.583-.922-1.131-.849c-7.226 1.029-14.554 1.029-21.779 0-.542-.073-1.053.302-1.131.849-.079.547.302 1.053.848 1.131z"/><path d="m78.904 56.343c-.441-.335-1.069-.247-1.401.193-.015.019-1.485 1.918-4.212 1.918-2.747 0-4.137-1.816-4.203-1.904-.324-.444-.946-.543-1.392-.221-.361.261-.484.714-.353 1.116.027.959.196 4.698 1.157 4.698.587 0 .86-1.391.988-2.695.939.544 2.203 1.006 3.802 1.006 1.583 0 2.853-.474 3.8-1.025.128 1.309.401 2.713.99 2.713.96 0 1.129-3.725 1.157-4.692.132-.394.017-.842-.333-1.107z"/><path d="m63.317 41.222c-1.249 0-2.261 1.012-2.261 2.261s1.012 2.261 2.261 2.261 2.261-1.012 2.261-2.261-1.013-2.261-2.261-2.261z"/><path d="m83.265 41.222c-1.249 0-2.261 1.012-2.261 2.261s1.012 2.261 2.261 2.261 2.261-1.012 2.261-2.261-1.012-2.261-2.261-2.261z"/><path d="m70.72 48.467c-.552 0-1 .448-1 1v1.507c0 1.969 1.602 3.571 3.571 3.571s3.571-1.602 3.571-3.571v-1.507c0-.552-.448-1-1-1s-1 .448-1 1v1.507c0 .866-.705 1.571-1.571 1.571s-1.571-.705-1.571-1.571v-1.507c0-.552-.448-1-1-1z"/><path d="m85.694 36.997-4.427 2.229c-.493.248-.692.85-.443 1.343.176.349.528.55.894.55.151 0 .304-.034.449-.107l4.427-2.229c.493-.248.692-.85.443-1.343-.248-.493-.847-.692-1.343-.443z"/><path d="m65.315 39.226-4.427-2.229c-.496-.249-1.095-.05-1.343.443-.249.493-.05 1.095.443 1.343l4.427 2.229c.145.073.298.107.449.107.366 0 .718-.201.894-.55.249-.494.05-1.095-.443-1.343z"/></g></g></g></g></g></svg>