<svg id="Layer_1" enable-background="new 0 0 128 128" height="512" viewBox="0 0 128 128" width="512" xmlns="http://www.w3.org/2000/svg"><g><g><path d="m93.84 82.334c-.198-2.314-2.123-4.142-4.487-4.142-.968 0-1.86.311-2.597.83-1.738-.548-3.549-.947-5.419-1.178v-1.446c5.946-2.749 10.561-7.897 12.596-14.198.15.837.477 1.538.755 2.122.355.749.569 1.232.472 1.698-.22 1.059-1.737 1.504-1.747 1.507-.534.141-.853.688-.712 1.222.118.449.523.746.966.746.085 0 .171-.011.256-.034.11-.029 2.719-.742 3.196-3.033.238-1.147-.22-2.112-.624-2.963-.472-.992-.872-1.859-.489-3.145 2.154-.377 3.767-2.741 3.767-5.698 0-1.14-.243-2.19-.661-3.075.562-2.248.854-4.576.854-6.955 0-10.55-5.766-19.772-14.308-24.699.242-.821.365-1.658.365-2.499 0-6.195-6.53-11.235-14.557-11.235s-14.557 5.04-14.557 11.235c0 .841.123 1.678.365 2.499-8.542 4.927-14.308 14.15-14.308 24.699 0 2.379.291 4.707.854 6.955-.418.885-.661 1.935-.661 3.075 0 2.92 1.572 5.261 3.685 5.682.391 1.295-.012 2.165-.485 3.161-.154.324-.315.664-.443 1.025-2.585-.727-5.478-.08-7.507 1.949l-.488.489-.489-.489c-2.987-2.987-7.85-2.988-10.839 0-2.988 2.988-2.988 7.851 0 10.839l8.2 8.2v22.133c-3.642 1.293-6.262 4.763-6.262 8.843 0 5.177 4.212 9.39 9.39 9.39h66.732c1.654 0 3-1.346 3-3v-15.174c-.001-10.633-5.439-19.99-13.813-25.336zm-45.676-18.011c.296-.622.644-1.376.778-2.285 2.008 6.375 6.654 11.588 12.652 14.361v1.446c-8.517 1.053-15.812 5.56-20.547 12.042v-4.409l8.2-8.2c1.447-1.447 2.245-3.372 2.245-5.419s-.798-3.972-2.245-5.419c-.456-.456-.96-.834-1.491-1.151.086-.277.228-.587.408-.966z" fill="#e6e7e8"/></g><g><g><g><path d="m76.338 74.741v-2.981c-2.724 1.164-5.722 1.809-8.872 1.809s-6.148-.646-8.872-1.809v2.981c-14.761 1.385-26.314 13.806-26.314 28.929v15.173c0 1.105.895 2 2 2h66.373c1.105 0 2-.895 2-2v-15.173c-.001-15.123-11.554-27.544-26.315-28.929z" fill="#fff"/></g><g fill="#fa759e"><path d="m67.466 96.747c-2.189-2.697-5.527-4.424-9.272-4.424-6.594 0-11.939 5.345-11.939 11.939v16.582h14.544l15.41-28.49c-3.527.154-6.659 1.824-8.743 4.393z"/><path d="m84.798 95.473-4.445 25.37h8.323v-16.582c.001-3.482-1.499-6.606-3.878-8.788z"/></g><g><path d="m84.629 76.788-23.83 44.055h19.555l7.449-42.523z" fill="#d4fbff"/></g></g><g><g><path d="m67.466 13.09c4.694 0 9.112 1.179 12.979 3.253.372-.935.578-1.925.578-2.951 0-5.653-6.069-10.235-13.557-10.235s-13.557 4.582-13.557 10.235c0 1.027.206 2.016.578 2.951 3.867-2.074 8.285-3.253 12.979-3.253z" fill="#ffd7e5"/></g><g><path d="m67.466 6.157c6.825 0 12.457 3.812 13.402 8.768.101-.5.155-1.012.155-1.533 0-5.653-6.07-10.235-13.557-10.235s-13.557 4.582-13.557 10.235c0 .521.054 1.033.155 1.533.945-4.956 6.576-8.768 13.402-8.768z" fill="#fff"/></g><g><path d="m44.858 50.961v-5.014c0-2.684 1.882-4.986 4.504-5.558 3.099-.677 7.214-1.861 10.391-3.803 5.854-3.581 7.713-9.416 7.713-9.416s1.638 5.041 6.262 9.041c2.703 2.338 7.831 3.637 11.626 4.313 2.724.485 4.721 2.832 4.721 5.6v4.838c0 2.299-.346 4.517-.983 6.607 3.675-4.677 5.874-10.569 5.874-16.979 0-15.188-12.312-27.5-27.5-27.5s-27.5 12.312-27.5 27.5c0 6.41 2.199 12.302 5.875 16.978-.638-2.09-.983-4.308-.983-6.607z" fill="#ffd7e5"/></g><g><path d="m91.404 45.864c-.473 0-.922.14-1.33.388v4.709c0 1.289-.114 2.552-.321 3.782.49.392 1.048.634 1.651.634 1.861 0 3.369-2.13 3.369-4.757 0-2.626-1.508-4.756-3.369-4.756z" fill="#fff"/><g><path d="m44.858 50.961v-4.709c-.408-.248-.857-.388-1.33-.388-1.861 0-3.369 2.13-3.369 4.757s1.508 4.757 3.369 4.757c.603 0 1.161-.242 1.651-.634-.208-1.231-.321-2.493-.321-3.783z" fill="#fff"/></g></g><path d="m85.354 40.523c-3.795-.676-8.923-1.975-11.626-4.313-4.624-4-6.262-9.041-6.262-9.041s-1.859 5.836-7.713 9.416c-3.177 1.943-7.291 3.127-10.391 3.803-2.623.573-4.504 2.874-4.504 5.558v5.014c0 12.486 10.122 22.608 22.608 22.608s22.608-10.122 22.608-22.608v-4.838c0-2.767-1.996-5.114-4.72-5.599z" fill="#fff"/><g><g fill="#ffd7e5"><path d="m80.36 52.352c-1.109 0-2.008.567-2.008 1.266s.899 1.266 2.008 1.266 2.008-.567 2.008-1.266-.899-1.266-2.008-1.266z"/><path d="m54.572 52.071c-1.109 0-2.008.567-2.008 1.266s.899 1.266 2.008 1.266 2.008-.567 2.008-1.266-.899-1.266-2.008-1.266z"/></g><g><path d="m67.466 64.768c-3.442 0-5.195-2.373-5.268-2.474-.323-.448-.223-1.073.226-1.396.446-.322 1.068-.222 1.392.22.058.077 1.268 1.65 3.65 1.65 2.373 0 3.647-1.646 3.66-1.663.332-.439.959-.528 1.4-.193.44.333.527.961.193 1.401-.075.1-1.898 2.455-5.253 2.455z" fill="#fa759e"/></g></g></g><circle cx="85.354" cy="78.717" fill="#6dc9f7" r="3.525"/><g fill="#6dc9f7"><g><path d="m90.976 30.319c-3.029-2.476-8.01-1.394-8.01-1.394s-.071 5.097 2.958 7.573 8.01 1.394 8.01 1.394.071-5.097-2.958-7.573z"/><path d="m80.008 21.387c-3.029-2.476-8.01-1.394-8.01-1.394s-.071 5.097 2.958 7.573 8.01 1.394 8.01 1.394.07-5.097-2.958-7.573z"/></g><g><path d="m51.966 28.925s-4.981-1.082-8.01 1.394-2.958 7.573-2.958 7.573 4.981 1.082 8.01-1.394 2.958-7.573 2.958-7.573z"/><path d="m62.934 19.993s-4.981-1.082-8.01 1.394-2.958 7.573-2.958 7.573 4.981 1.082 8.01-1.394c3.029-2.477 2.958-7.573 2.958-7.573z"/></g></g><g><path d="m33.92 104.064c.737 0 1.447.105 2.128.283v-23.284l-.006.006c-1.172 1.172-3.071 1.172-4.243 0l-.006-.006v23.283c.68-.178 1.39-.282 2.127-.282z" fill="#6dc9f7"/><path d="m44.54 63.146c-2.603-2.603-6.822-2.603-9.425 0l-1.196 1.196-1.196-1.196c-2.603-2.603-6.822-2.603-9.425 0-2.603 2.602-2.603 6.822 0 9.425l1.196 1.196 7.303 7.303c1.172 1.172 3.071 1.172 4.243 0l7.303-7.303 1.196-1.196c2.604-2.603 2.604-6.823.001-9.425z" fill="#fa759e"/><g><path d="m39.41 67.515c-1.346-1.346-3.527-1.346-4.873 0l-.618.618-.618-.618c-1.346-1.346-3.527-1.346-4.873 0-1.346 1.346-1.346 3.527 0 4.873l.618.618 3.458 3.459c.781.781 2.047.781 2.828 0l3.458-3.459.618-.618c1.348-1.346 1.348-3.528.002-4.873z" fill="#ffd7e5"/></g><g><path d="m33.92 104.064c-4.633 0-8.39 3.756-8.39 8.39s3.756 8.39 8.39 8.39 8.39-3.756 8.39-8.39-3.757-8.39-8.39-8.39z" fill="#fff"/><g fill="#3a2c60"><path d="m89.842 78.351c-.19-2.321-2.119-4.159-4.488-4.159-.971 0-1.866.314-2.604.837-1.737-.548-3.543-.953-5.411-1.184v-1.446c5.946-2.749 10.562-7.897 12.596-14.198.15.838.478 1.538.756 2.123.355.749.569 1.232.472 1.697-.22 1.059-1.737 1.504-1.748 1.507-.534.141-.853.688-.712 1.222.118.449.523.746.966.746.085 0 .17-.011.256-.034.11-.029 2.72-.741 3.197-3.034.238-1.147-.22-2.112-.625-2.963-.471-.992-.872-1.86-.489-3.146 2.154-.377 3.767-2.741 3.767-5.698 0-1.156-.25-2.22-.678-3.112.563-2.237.87-4.55.87-6.918 0-10.55-5.766-19.772-14.308-24.699.242-.821.365-1.658.365-2.499 0-6.195-6.53-11.235-14.557-11.235s-14.557 5.04-14.557 11.235c0 .84.123 1.677.365 2.499-8.543 4.926-14.309 14.148-14.309 24.698 0 2.369.308 4.681.871 6.918-.429.893-.678 1.956-.678 3.113 0 2.92 1.572 5.26 3.685 5.682.392 1.296-.011 2.166-.485 3.162-.154.323-.31.665-.437 1.026-2.586-.73-5.482-.082-7.513 1.948l-.488.488-.488-.488c-2.988-2.988-7.851-2.988-10.839 0-1.448 1.447-2.245 3.372-2.245 5.419s.797 3.972 2.245 5.419l8.199 8.199v22.134c-3.642 1.293-6.262 4.763-6.262 8.843 0 5.177 4.212 9.39 9.39 9.39h66.732c1.654 0 3-1.346 3-3v-15.173c-.001-10.63-5.443-19.973-13.811-25.319zm-2.165 41.492h-6.133l3.887-22.187c1.402 1.837 2.245 4.122 2.245 6.606v15.581zm-8.164 0h-17.035l3.169-5.858c.263-.486.082-1.092-.404-1.355-.487-.264-1.093-.081-1.355.404l-3.683 6.81h-12.949v-15.582c0-6.031 4.907-10.938 10.938-10.938 3.309 0 6.404 1.478 8.495 4.054.189.234.475.37.776.37s.587-.136.776-.37c1.589-1.958 3.761-3.269 6.163-3.79l-5.105 9.438c-.263.486-.082 1.092.404 1.355.151.082.314.121.475.121.355 0 .699-.19.881-.524l11.674-21.583c.2.143.414.262.636.372l-5.223 14.891c-.183.521.091 1.092.612 1.275.109.038.222.057.331.057.413 0 .799-.258.943-.669l5.288-15.078c.011 0 .02.003.031.003.199 0 .39-.034.582-.059zm8.366-41.126c0 1.393-1.133 2.525-2.525 2.525s-2.525-1.133-2.525-2.525 1.133-2.525 2.525-2.525 2.525 1.133 2.525 2.525zm-20.413-6.148c-11.915 0-21.608-9.693-21.608-21.608v-5.014c0-2.22 1.529-4.104 3.718-4.582 3.035-.662 7.354-1.881 10.699-3.927 2.724-1.666 4.61-3.775 5.884-5.627-.415 1.591-1.339 3.876-3.377 6.687-.324.447-.225 1.072.223 1.396.178.128.383.19.586.19.31 0 .615-.143.811-.413 2.649-3.654 3.599-6.557 3.925-8.408 1.038 1.737 2.575 3.823 4.748 5.703 2.871 2.483 8.167 3.84 12.104 4.541 2.258.402 3.896 2.343 3.896 4.615v4.838c-.001 11.916-9.694 21.609-21.609 21.609zm23.376-18.332c.149-1.071.232-2.164.232-3.276v-4.048c.11-.026.22-.049.33-.049 1.284 0 2.369 1.72 2.369 3.757 0 2.33-1.431 4.26-2.931 3.616zm1.836-18.663-3.132-2.56c-.427-.349-1.057-.285-1.407.142-.35.428-.286 1.058.142 1.407l3.138 2.565c-1.51.007-3.452-.25-4.862-1.403-1.932-1.58-2.424-4.511-2.549-5.949 1.431-.167 4.394-.27 6.335 1.317 1.401 1.146 2.039 2.998 2.335 4.481zm-37.769-22.182c0-5.092 5.633-9.235 12.557-9.235s12.557 4.143 12.557 9.235c0 .511-.066 1.022-.184 1.528-3.744-1.812-7.942-2.829-12.373-2.829s-8.629 1.017-12.373 2.829c-.118-.507-.184-1.018-.184-1.528zm12.557.698c10.645 0 19.838 6.312 24.048 15.386-2.452-1.936-5.854-1.889-7.612-1.701-.172-1.792-.82-5.167-3.262-7.164-3.362-2.751-8.633-1.645-8.854-1.597-.455.099-.781.498-.788.963-.003.228-.038 5.611 3.325 8.36 1.843 1.507 4.259 1.857 6.103 1.857.614 0 1.159-.039 1.604-.087.172 1.792.821 5.167 3.262 7.163 1.844 1.507 4.26 1.856 6.103 1.856 1.163 0 2.093-.138 2.514-.214.035.554.058 1.112.058 1.675 0 1.682-.172 3.333-.48 4.948-.615-.43-1.323-.674-2.081-.674-.15 0-.299.012-.447.031-.503-2.693-2.63-4.858-5.428-5.357-3.691-.657-8.621-1.899-11.147-4.085-4.341-3.756-5.949-8.547-5.966-8.595-.135-.411-.519-.688-.95-.688-.001 0-.002 0-.003 0-.433.001-.816.281-.949.693-.018.055-1.837 5.538-7.282 8.868-3.107 1.9-7.198 3.05-10.082 3.679-2.763.603-4.779 2.787-5.202 5.482-.139-.017-.279-.029-.42-.029-.759 0-1.466.243-2.081.674-.308-1.615-.48-3.266-.48-4.948 0-.563.024-1.12.058-1.675.421.075 1.351.214 2.514.214 1.844 0 4.26-.35 6.103-1.857 2.441-1.996 3.089-5.37 3.262-7.163.445.048.99.087 1.604.087 1.844 0 4.26-.35 6.103-1.856 3.364-2.75 3.328-8.133 3.325-8.361-.007-.465-.333-.864-.788-.963-.222-.048-5.488-1.153-8.854 1.596-2.441 1.996-3.09 5.372-3.262 7.164-1.758-.189-5.159-.234-7.612 1.7 4.206-9.07 13.399-15.382 24.044-15.382zm11.112 9.991c-.428-.35-1.058-.286-1.407.142-.35.427-.286 1.058.142 1.407l3.137 2.565c-1.51.007-3.452-.25-4.861-1.403-1.932-1.58-2.424-4.511-2.549-5.949 1.432-.167 4.393-.269 6.335 1.317 1.401 1.146 2.04 2.999 2.336 4.481zm-31.785 9.074c-.352-.429-.98-.491-1.407-.142l-3.132 2.561c.295-1.482.934-3.335 2.335-4.481 1.931-1.579 4.904-1.477 6.334-1.315-.125 1.438-.617 4.368-2.548 5.947-1.401 1.145-3.344 1.402-4.854 1.398l3.131-2.56c.427-.35.49-.981.141-1.408zm10.968-8.933c-.351-.428-.98-.492-1.407-.142l-3.132 2.561c.295-1.482.934-3.335 2.335-4.48 1.933-1.579 4.901-1.477 6.335-1.316-.126 1.438-.617 4.368-2.549 5.947-1.402 1.144-3.344 1.403-4.855 1.398l3.132-2.56c.427-.35.49-.98.141-1.408zm-16.603 26.399c0-2.037 1.085-3.757 2.369-3.757.11 0 .22.023.33.049v4.048c0 1.112.083 2.205.233 3.277-1.494.64-2.932-1.286-2.932-3.617zm3.007 9.702c.296-.622.643-1.376.778-2.284 2.008 6.375 6.654 11.586 12.651 14.359v1.446c-8.521 1.053-15.813 5.569-20.547 12.056v-4.423l8.2-8.2c2.988-2.989 2.988-7.851 0-10.839-.456-.456-.96-.834-1.49-1.151.085-.274.228-.585.408-.964zm-21.817 7.535c0-1.513.589-2.936 1.659-4.005 1.104-1.104 2.555-1.656 4.005-1.656 1.451 0 2.901.552 4.006 1.656l1.195 1.195c.391.391 1.023.391 1.414 0l1.195-1.195c2.209-2.207 5.802-2.208 8.011 0 2.208 2.208 2.208 5.802 0 8.011l-8.499 8.499c-.756.755-2.072.755-2.828 0l-8.499-8.499c-1.071-1.071-1.659-2.493-1.659-4.006zm10.444 14.91c.364.107.739.18 1.128.18s.764-.073 1.127-.18v20.37c-.37-.045-.745-.074-1.127-.074s-.757.03-1.128.074zm-6.262 29.685c0-4.075 3.315-7.39 7.39-7.39s7.39 3.315 7.39 7.39-3.315 7.39-7.39 7.39-7.39-3.315-7.39-7.39zm16.779 0c0-4.08-2.62-7.551-6.263-8.843v-14.036c4.394-7.609 12.265-12.958 21.641-13.837.514-.048.906-.479.906-.996v-1.526c2.464.874 5.112 1.355 7.872 1.355s5.408-.48 7.872-1.355v1.526c0 .516.393.947.906.996 1.753.164 3.447.497 5.082.961-.308.611-.498 1.29-.498 2.02 0 .74.196 1.43.512 2.047l-5.74 10.615c-3.093.271-5.966 1.63-8.133 3.862-2.431-2.503-5.749-3.919-9.271-3.919-4.607 0-8.648 2.427-10.941 6.062-.011-3.098-.92-6.105-2.635-8.7-.304-.461-.928-.586-1.385-.283-.461.305-.588.925-.283 1.386 1.508 2.283 2.305 4.93 2.305 7.655v6.819 15.582h-5.563c2.197-1.721 3.616-4.391 3.616-7.391zm58.343 6.39c0 .551-.448 1-1 1h-10.975v-15.582-6.819c0-2.726.797-5.373 2.305-7.655.305-.46.178-1.081-.282-1.386-.461-.303-1.082-.178-1.386.283-1.712 2.59-2.621 5.593-2.634 8.688-.516-.817-1.124-1.568-1.804-2.248l2.253-12.859c.588-.461 1.068-1.052 1.371-1.745 7.392 5.06 12.153 13.542 12.153 23.15v15.173z"/><path d="m57.492 45.536c-1.249 0-2.261 1.012-2.261 2.261s1.012 2.261 2.261 2.261 2.261-1.012 2.261-2.261-1.013-2.261-2.261-2.261z"/><path d="m77.44 45.536c-1.249 0-2.261 1.012-2.261 2.261s1.012 2.261 2.261 2.261 2.261-1.012 2.261-2.261-1.012-2.261-2.261-2.261z"/><path d="m70.037 52.781c-.553 0-1 .448-1 1v1.507c0 .866-.705 1.571-1.571 1.571s-1.571-.705-1.571-1.571v-1.507c0-.552-.447-1-1-1s-1 .448-1 1v1.507c0 1.969 1.603 3.571 3.571 3.571s3.571-1.602 3.571-3.571v-1.507c0-.552-.447-1-1-1z"/><path d="m80.491 42.219-4.428-.771c-.553-.09-1.063.27-1.157.813-.095.544.27 1.062.813 1.157l4.428.771c.059.01.116.015.173.015.478 0 .899-.342.984-.828.095-.544-.269-1.062-.813-1.157z"/><path d="m58.868 41.447-4.427.771c-.544.095-.908.613-.813 1.157.085.486.507.828.984.828.057 0 .114-.005.173-.015l4.427-.771c.544-.095.908-.613.813-1.157-.094-.543-.604-.903-1.157-.813z"/><path d="m68.988 105.703c-.487-.264-1.092-.082-1.355.404l-2.236 4.135c-.263.486-.082 1.092.404 1.355.151.082.314.121.475.121.355 0 .699-.19.881-.524l2.236-4.135c.262-.487.081-1.093-.405-1.356z"/></g></g></g></g></g></svg>