<svg id="Layer_1" enable-background="new 0 0 128 128" height="512" viewBox="0 0 128 128" width="512" xmlns="http://www.w3.org/2000/svg"><g><g><path d="m118.068 83.237c-.159-.363-.519-.597-.915-.597h-21.169l16.712-23.874c.214-.305.24-.704.067-1.035-.172-.331-.514-.538-.887-.538h-15.785c-.356 0-.687.19-.865.499l-5.076 8.761c-2.928-3.091-4.162-6.985-5.349-10.771-.326-1.041-.65-2.067-1.004-3.056v-20.924c0-12.157-9.891-22.048-22.048-22.048h-11.873c-12.157 0-22.048 9.891-22.048 22.048v20.924c-.354.989-.678 2.015-1.004 3.056-1.332 4.247-2.708 8.639-6.488 11.87-2.095 1.79-4.508 2.554-5.416 2.841-.405.128-1.158.367-1.065 1.202.037.334.255.623.546.778.069.064.158.16.271.274.886.909 2.979 3.053 5.9 3.592-2.045 1.348-4.514 1.951-5.408 2.168-.423.103-1.21.294-1.144 1.157.028.367.269.683.594.834.079.063.188.16.328.281 1.189 1.035 4.236 3.684 8.049 3.684.634 0 1.291-.081 1.963-.247-3.355 4.85-5.327 10.726-5.327 17.057v18.173c0 1.654 1.346 3 3 3h66.393c5.159-.021 9.349-4.226 9.349-9.39 0-2.022-.649-3.892-1.741-5.427l21.263-23.214c.267-.292.338-.715.177-1.078zm-21.83 8.917-4.239 10.803v-1.784c0-3.141-.486-6.171-1.384-9.019z" fill="#e6e7e8"/></g><g><g><g><g><g><path d="m82.797 70.235 3.575-6.171c-4.79-4.288-5.809-10.398-7.575-15.265v3.352c.459 3.089.62 6.655-.086 9.995.928 2.792 2.082 5.63 4.086 8.089z" fill="#d4fbff"/></g><g><path d="m24.828 52.153v-3.353c-1.799 4.959-2.813 11.214-7.842 15.511-2.979 2.546-6.524 3.148-6.103 3.183.353.03 3.584 4.734 8.435 3.699 2.902-3.041 4.225-6.816 5.357-10.391-.419-2.936-.245-5.971.153-8.649z" fill="#d4fbff"/></g></g><g><path d="m78.866 77.021 3.931-6.785c-2.003-2.458-3.159-5.294-4.086-8.083-.482 2.28-1.364 4.456-2.845 6.3-.95 1.182-2.047 2.088-3.255 2.814.319.491.661.975 1.022 1.452 1.908 1.228 3.664 2.673 5.233 4.302z" fill="#d4fbff"/></g><g><path d="m27.76 68.453c-1.769-2.202-2.688-4.876-3.084-7.637-1.272 4.023-2.79 8.3-6.53 11.496-2.979 2.546-7.524 3.148-7.103 3.183.395.034 5.389 5.944 11.232 3.083 4.002-1.96 6.434-4.711 8.272-7.616-1.022-.673-1.962-1.483-2.787-2.509z" fill="#d4fbff"/></g><g><path d="m71.883 71.672c-3.462 1.826-7.723 2.427-12.043 3.843-5.226 1.713-8.027 4.938-8.027 4.938s-2.801-3.225-8.027-4.938c-4.32-1.416-8.581-2.017-12.043-3.843-9.008 4.937-15.116 14.505-15.116 25.501v18.173c0 1.105.896 2 2 2h66.373c1.104 0 2-.895 2-2v-18.173c-.001-10.996-6.11-20.564-15.117-25.501z" fill="#fff"/><g><path d="m67.008 83.265c-3.676 0-6.661-2.932-6.76-6.584l-28.435 32.084v8.581h40v-36.084c-1.227 1.237-2.926 2.003-4.805 2.003z" fill="#0089ef"/></g><path d="m60.341 75.358c-.063.371-.103.749-.103 1.138 0 3.739 3.031 6.769 6.769 6.769 3.739 0 6.769-3.031 6.769-6.769 0-1.865-.755-3.554-1.975-4.779-3.312 1.723-7.347 2.349-11.46 3.641z" fill="#6dc9f7"/></g><g><g><g><path d="m78.797 52.152v-24.45c0-11.625-9.423-21.048-21.048-21.048h-11.873c-11.624 0-21.048 9.423-21.048 21.048v24.451c-.772 5.2-.72 11.753 2.933 16.3 3.765 4.687 9.838 5.034 16.026 7.062 5.226 1.713 8.027 4.938 8.027 4.938s2.801-3.225 8.027-4.938c6.187-2.028 12.261-2.375 16.026-7.062 3.651-4.547 3.703-11.101 2.93-16.301z" fill="#d4fbff"/></g><g><g><path d="m45.876 9.654h11.874c11.625 0 21.048 9.423 21.048 21.048v-3c0-11.625-9.423-21.048-21.048-21.048h-11.874c-11.624 0-21.048 9.423-21.048 21.048v3c0-11.625 9.423-21.048 21.048-21.048z" fill="#fff"/></g></g></g><g fill="#fff"><g><path d="m75.428 42.949c-.353 0-.687.098-1.007.24v3.041c0 1.919-.241 3.782-.691 5.561.5.416 1.076.67 1.698.67 1.861 0 3.369-2.13 3.369-4.757 0-2.625-1.508-4.755-3.369-4.755z"/><path d="m29.204 46.231v-3.041c-.32-.142-.654-.241-1.007-.241-1.861 0-3.369 2.13-3.369 4.757s1.508 4.757 3.369 4.757c.623 0 1.198-.255 1.699-.67-.451-1.78-.692-3.643-.692-5.562z"/></g><path d="m74.239 30.816c-1.349-.163-2.802-.587-3.968-1.54-1.792-1.465-2.495-3.841-2.774-5.543-.729-.186-1.489-.295-2.276-.295h-.678c-3.05 0-5.996 1.107-8.291 3.115-2.542 2.224-6.338 2.224-8.88 0-2.295-2.008-5.241-3.115-8.291-3.115h-.678c-.787 0-1.547.109-2.276.295-.279 1.701-.982 4.078-2.774 5.543-1.166.953-2.619 1.376-3.968 1.54-.118.589-.182 1.198-.182 1.822v13.593c0 12.486 10.122 22.608 22.608 22.608 12.486 0 22.608-10.122 22.608-22.608v-13.593c.002-.624-.062-1.233-.18-1.822z"/></g></g><g fill="#d4fbff"><path d="m51.839 56.483c-.207-.553.812-2.904 2.973-3.042 2.757-.176 5.151 3.333 7.208 4.684 1.07.702 2.659-.157 2.541-.086-.111.067-.727 2.518-2.852 2.518-3.358 0-4.872-2.433-6.917-3.292-2.083-.875-2.746-.229-2.953-.782z"/><path d="m51.786 56.483c.207-.553-.812-2.904-2.973-3.042-2.757-.176-5.151 3.333-7.208 4.684-1.07.702-2.659-.157-2.541-.086.111.067.727 2.518 2.852 2.518 3.358 0 4.872-2.433 6.917-3.292 2.083-.875 2.746-.229 2.953-.782z"/></g></g><g fill="#6dc9f7"><g><path d="m75.322 23.098c-3.029-2.476-8.01-1.394-8.01-1.394s-.071 5.097 2.958 7.573 8.01 1.394 8.01 1.394.071-5.097-2.958-7.573z"/><path d="m64.354 14.165c-3.029-2.476-8.01-1.394-8.01-1.394s-.071 5.097 2.958 7.573 8.01 1.394 8.01 1.394.071-5.097-2.958-7.573z"/></g><g><path d="m36.312 21.704s-4.981-1.082-8.01 1.394-2.958 7.573-2.958 7.573 4.981 1.082 8.01-1.394 2.958-7.573 2.958-7.573z"/><path d="m47.28 12.771s-4.981-1.082-8.01 1.394-2.958 7.573-2.958 7.573 4.981 1.082 8.01-1.394 2.958-7.573 2.958-7.573z"/></g></g><g><path d="m88.191 101.206c1.215.504 2.283 1.289 3.131 2.269l21.832-23.835h-23.09l17.813-25.447h-15.786l-19.095 32.961h20.71z" fill="#fa759e"/><g><circle cx="84.979" cy="108.956" fill="#fff" r="8.39"/><g fill="#3a2c60"><path d="m60.154 90.741c-.491-.256-1.095-.064-1.349.425l-2.178 4.183c-.255.49-.065 1.094.425 1.349.147.077.306.113.461.113.361 0 .71-.196.888-.538l2.178-4.183c.255-.49.066-1.094-.425-1.349z"/><path d="m56.491 97.778c-.492-.257-1.095-.065-1.349.425l-4.015 7.71c-.255.49-.065 1.094.425 1.349.147.077.306.113.461.113.361 0 .71-.196.888-.538l4.015-7.71c.255-.49.065-1.094-.425-1.349z"/><path d="m44.099 43.066c0-1.249-1.012-2.261-2.261-2.261s-2.261 1.012-2.261 2.261 1.012 2.261 2.261 2.261 2.261-1.012 2.261-2.261z"/><path d="m59.526 43.066c0 1.249 1.012 2.261 2.261 2.261s2.261-1.012 2.261-2.261-1.012-2.261-2.261-2.261c-1.249.001-2.261 1.013-2.261 2.261z"/><path d="m51.812 52.129c1.969 0 3.571-1.602 3.571-3.571v-1.507c0-.552-.447-1-1-1s-1 .448-1 1v1.507c0 .866-.705 1.571-1.571 1.571s-1.571-.705-1.571-1.571v-1.507c0-.552-.447-1-1-1s-1 .448-1 1v1.507c0 1.969 1.603 3.571 3.571 3.571z"/><path d="m60.238 40.475c.124 0 .25-.023.371-.072l4.427-1.771c.514-.205.763-.787.558-1.3-.207-.513-.793-.761-1.3-.557l-4.427 1.771c-.514.205-.763.787-.558 1.3.157.391.533.629.929.629z"/><path d="m38.589 38.631 4.427 1.771c.121.049.247.072.371.072.396 0 .772-.238.929-.629.205-.513-.044-1.095-.558-1.3l-4.427-1.771c-.509-.205-1.095.043-1.3.557-.205.513.044 1.095.558 1.3z"/><path d="m41.057 57.289c-.342.225-1.03.083-1.563-.156-.479-.216-1.075-.032-1.322.438-.17.326-.141.707.046 1l.026.063c.82 1.939 2.056 2.922 3.673 2.922 1.714 0 3.015-.561 4.09-1.229.169.228 2.093 2.71 5.806 2.71 3.708 0 5.72-2.596 5.806-2.71 1.075.668 2.376 1.229 4.09 1.229 1.618 0 2.854-.984 3.673-2.924l.026-.062c.186-.293.215-.674.045-.999-.246-.47-.842-.656-1.322-.438-.531.239-1.22.38-1.563.156-.573-.376-1.219-.982-1.901-1.623-1.686-1.581-3.595-3.368-5.919-3.224-1.128.072-2.17.629-2.935 1.545-.765-.917-1.807-1.473-2.935-1.545-2.309-.144-4.232 1.642-5.918 3.222-.684.643-1.329 1.248-1.903 1.625zm10.755 3.749c-2.609 0-3.979-1.622-4.167-1.862.541-.403 1.06-.773 1.574-.989.974-.409 1.538-.426 1.95-.438.163-.005.399-.016.643-.083.244.067.479.078.643.083.412.012.977.029 1.949.438.515.217 1.034.586 1.575.988-.225.27-1.655 1.863-4.167 1.863zm3.063-6.599c1.47-.097 3.035 1.382 4.424 2.686.747.702 1.454 1.364 2.172 1.836.318.208.655.331.991.392-.214.128-.462.204-.753.204-1.881 0-3.065-.887-4.319-1.825-.688-.515-1.4-1.048-2.21-1.389-.96-.403-1.669-.526-2.178-.568.289-.549.91-1.274 1.873-1.336zm-6.125 0c.963.062 1.585.787 1.874 1.335-.509.042-1.218.165-2.179.568-.81.34-1.521.874-2.21 1.389-1.254.938-2.438 1.825-4.318 1.825-.291 0-.539-.076-.753-.205.336-.061.673-.183.99-.391.719-.472 1.426-1.135 2.174-1.837 1.39-1.302 2.965-2.764 4.422-2.684z"/><path d="m114.068 79.237c-.159-.363-.519-.597-.915-.597h-21.168l16.711-23.874c.214-.305.24-.704.067-1.035-.172-.331-.514-.538-.887-.538h-15.785c-.356 0-.687.19-.865.499l-5.065 8.744c-2.931-3.097-4.177-6.99-5.367-10.776-.331-1.056-.647-2.053-.996-3.029v-20.929c0-12.157-9.891-22.048-22.048-22.048h-11.874c-12.157 0-22.048 9.891-22.048 22.048v20.931c-.351.982-.669 1.987-1.002 3.05-1.332 4.246-2.71 8.637-6.49 11.868-2.094 1.789-4.507 2.554-5.415 2.841-.405.128-1.159.367-1.066 1.202.037.335.256.624.548.779.069.064.158.159.271.273.918.936 2.997 3.058 5.921 3.579-2.049 1.357-4.532 1.963-5.428 2.181-.424.103-1.211.294-1.146 1.157.028.367.269.683.594.835.079.062.188.16.328.281 1.189 1.035 4.236 3.684 8.048 3.684.638 0 1.3-.086 1.976-.257-3.362 4.851-5.339 10.73-5.339 17.067v18.172c0 1.654 1.346 3 3 3 0 0 66.381-.002 66.385-.002 5.163-.017 9.358-4.222 9.358-9.388 0-2.022-.649-3.893-1.741-5.427l21.263-23.214c.265-.292.335-.714.175-1.077zm-28.957-14.991-2.414 4.167c-1.391-2.062-2.276-4.317-2.959-6.342.392-1.998.497-4.039.429-5.973 1.064 2.858 2.498 5.734 4.944 8.148zm-23.873 12.25c0-.124.017-.243.025-.365 1.151-.344 2.301-.659 3.422-.951 2.408-.628 4.744-1.242 6.86-2.224.767.978 1.23 2.204 1.23 3.54 0 3.181-2.588 5.769-5.769 5.769-3.18 0-5.768-2.588-5.768-5.769zm-32.698-8.669c-3.451-4.297-3.417-10.642-2.754-15.297.687.59 1.513.932 2.411.932.376 0 .739-.064 1.084-.177 3.007 9.583 11.97 16.554 22.531 16.554 10.562 0 19.525-6.972 22.531-16.555.346.114.708.178 1.085.178.898 0 1.723-.342 2.41-.932.663 4.655.697 11-2.753 15.296-2.615 3.255-6.457 4.258-10.905 5.418-1.512.395-3.074.802-4.653 1.32-3.906 1.28-6.515 3.356-7.715 4.471-1.2-1.115-3.809-3.191-7.715-4.471-1.579-.518-3.142-.925-4.652-1.32-4.448-1.16-8.29-2.162-10.905-5.417zm10.294-46.859 3.132-2.561c.428-.35.491-.979.142-1.407-.351-.428-.98-.493-1.407-.141l-3.137 2.565c.293-1.481.931-3.333 2.34-4.485 1.932-1.579 4.899-1.479 6.335-1.316-.126 1.438-.617 4.368-2.549 5.947-1.402 1.145-3.345 1.403-4.856 1.398zm-1.846 3.604c.461-.082.932-.134 1.416-.134h.678c2.809 0 5.52 1.019 7.633 2.868 2.906 2.544 7.289 2.543 10.195 0 2.114-1.849 4.825-2.868 7.633-2.868h.678c.484 0 .955.052 1.416.134.379 1.786 1.201 4.008 3.001 5.479 1.115.911 2.439 1.395 3.72 1.638.038.311.064.627.064.948v13.593c0 11.915-9.693 21.608-21.608 21.608s-21.608-9.693-21.608-21.608v-13.592c0-.322.025-.637.064-.948 1.281-.243 2.605-.727 3.719-1.639 1.798-1.472 2.62-3.693 2.999-5.479zm25.937-7.713c-.427-.351-1.057-.287-1.407.141-.35.427-.286 1.057.142 1.407l3.138 2.566c-1.51.007-3.453-.25-4.862-1.403-1.932-1.58-2.424-4.512-2.549-5.949 1.435-.166 4.395-.268 6.335 1.318 1.401 1.146 2.04 2.999 2.336 4.482zm14.1 11.493-3.132-2.56c-.427-.35-1.057-.286-1.407.142s-.286 1.058.142 1.407l3.138 2.565c-1.51.007-3.452-.251-4.861-1.403-1.932-1.58-2.424-4.512-2.549-5.949 1.434-.166 4.396-.268 6.335 1.318 1.4 1.145 2.038 2.998 2.334 4.48zm-1.604 17.879v-2.28c.003 0 .005-.002.008-.002 1.283 0 2.368 1.72 2.368 3.757 0 2.036-1.085 3.756-2.368 3.756-.197 0-.385-.055-.569-.132.363-1.643.561-3.348.561-5.099zm.008-4.282c-.003 0-.005.001-.008.001v-9.312c0-.25-.016-.495-.036-.739.119.003.241.009.355.009.846 0 1.562-.073 2.057-.142v11.083c-.679-.569-1.488-.9-2.368-.9zm-46.664 9.381c-.183.078-.371.132-.568.132-1.284 0-2.369-1.72-2.369-3.756 0-2.037 1.085-3.757 2.369-3.757.002 0 .005.001.007.001v2.28c0 1.752.198 3.457.561 5.1zm3.957-22.827c-1.401 1.145-3.344 1.403-4.855 1.398l3.131-2.56c.428-.35.491-.98.142-1.407-.351-.428-.98-.492-1.407-.142l-3.137 2.565c.294-1.481.931-3.333 2.34-4.485 1.932-1.579 4.901-1.479 6.337-1.315-.124 1.435-.611 4.359-2.551 5.946zm-4.837 3.405c.115 0 .237-.006.356-.009-.02.244-.036.49-.036.739v9.312c-.002 0-.005-.001-.007-.001-.881 0-1.69.331-2.369.899v-11.083c.493.069 1.21.143 2.056.143zm44.927 49.733c1.218-1.372 1.964-3.171 1.964-5.145 0-.663-.092-1.304-.25-1.918 1.09.802 2.11 1.689 3.072 2.637l-4.786 8.261zm5.817-6.207c-1.475-1.406-3.087-2.665-4.822-3.751 1.032-.702 1.987-1.547 2.837-2.604.93-1.158 1.632-2.438 2.161-3.779.693 1.678 1.582 3.399 2.793 5.009zm-32.753-67.78h11.873c9.787 0 17.944 7.053 19.69 16.34-.402-.61-.887-1.183-1.484-1.67-2.458-2.01-5.927-1.96-7.706-1.769-.172-1.792-.82-5.167-3.262-7.163-3.363-2.75-8.632-1.646-8.854-1.597-.455.099-.781.498-.788.963-.003.228-.038 5.611 3.325 8.361 1.009.825 2.189 1.296 3.353 1.559-2.368.447-4.592 1.516-6.429 3.124-2.156 1.886-5.406 1.886-7.563 0-1.837-1.608-4.06-2.677-6.429-3.124 1.164-.264 2.344-.734 3.353-1.559 3.364-2.75 3.328-8.134 3.325-8.362-.007-.465-.333-.864-.788-.963-.223-.05-5.49-1.154-8.854 1.597-2.441 1.996-3.089 5.371-3.262 7.163-1.78-.191-5.249-.241-7.706 1.769-.597.488-1.082 1.061-1.484 1.671 1.746-9.287 9.903-16.34 19.69-16.34zm-28.241 57.418c3-2.564 4.639-5.773 5.822-8.962-.052 1.493-.003 3.05.203 4.602-1.106 3.479-2.35 6.819-4.829 9.537-2.697.438-4.842-1.183-6.087-2.365 1.295-.485 3.168-1.34 4.891-2.812zm4.202 12.608c-3.566 1.747-6.839-.285-8.668-1.741 1.582-.478 3.849-1.348 5.628-2.868 2.887-2.467 4.494-5.457 5.705-8.652.552 1.663 1.347 3.251 2.479 4.66.669.833 1.406 1.532 2.192 2.137-.456.666-.926 1.286-1.414 1.861-1.375 1.025-2.653 2.169-3.833 3.409-.659.432-1.349.832-2.089 1.194zm-4.211 37.666v-18.173c0-10.418 5.719-19.51 14.171-24.35 2.189 1.061 4.627 1.701 7.143 2.358 1.481.386 3.014.786 4.534 1.285 4.874 1.598 7.558 4.615 7.583 4.644.189.219.465.344.755.344s.565-.125.755-.344c.023-.027 2.114-2.391 6.007-4.048l-25.762 29.068v-14.498c0-.552-.447-1-1-1s-1 .448-1 1v17.132 7.581h-12.186c-.552.001-1-.448-1-.999zm15.186 1v-7.202l26.809-30.249c.581 1.783 1.792 3.279 3.367 4.237l-2.65 5.09c-.255.49-.064 1.094.425 1.349.147.077.306.113.461.113.361 0 .71-.196.888-.538l2.707-5.2c.695.205 1.428.319 2.188.319 1.382 0 2.679-.367 3.805-1.003v33.083h-38zm40 0v-28.217c.061.011.121.024.184.024h11.5c.967 2.832 1.502 5.863 1.502 9.02v2.451c-.335-.036-.675-.058-1.02-.058-5.178 0-9.39 4.212-9.39 9.389 0 3 1.42 5.669 3.617 7.39h-6.393zm13.797-28.192h5.629l-4.239 10.803v-1.784c0-3.142-.49-6.171-1.39-9.019zm-1.63 28.192c-4.074 0-7.39-3.315-7.39-7.39 0-4.074 3.315-7.389 7.39-7.389s7.39 3.315 7.39 7.389c0 4.075-3.315 7.39-7.39 7.39zm6.313-14.32c-.556-.507-1.166-.956-1.832-1.319l5.175-13.188c.121-.308.082-.655-.104-.929-.187-.273-.495-.437-.826-.437h-18.974l17.936-30.961h13.289l-16.711 23.874c-.214.305-.24.704-.067 1.035.172.331.514.538.887.538h20.816z"/></g></g></g></g></g></g></svg>