<svg id="Layer_1" enable-background="new 0 0 128 128" height="512" viewBox="0 0 128 128" width="512" xmlns="http://www.w3.org/2000/svg"><g><g><path d="m124.645 90.568-4.193-5.945c1.114-1.435 1.841-3.175 2.026-5.056l1.419-14.413c.223-2.253-.347-4.532-1.602-6.418l-5.949-8.939c-1.271-1.911-3.183-3.324-5.383-3.979l-4.521-1.348c-3.379-1.006-7.057-.122-9.605 2.31l-5.524 5.268-3.389-2.315c.994-1.932 1.529-4.083 1.529-6.319v-13.179c0-4.229-1.894-8.169-5.195-10.811l-6.814-5.451c-2.445-1.957-5.517-3.034-8.648-3.034h-5.686c-3.132 0-6.204 1.077-8.648 3.034l-6.814 5.451c-3.302 2.642-5.196 6.582-5.196 10.811v13.179c0 2.236.535 4.387 1.529 6.319l-3.334 2.277-5.485-5.231c-2.548-2.431-6.228-3.315-9.604-2.31l-4.521 1.348c-2.199.656-4.111 2.069-5.382 3.979l-5.949 8.94c-1.254 1.885-1.823 4.164-1.601 6.417l1.419 14.413c.185 1.881.912 3.621 2.026 5.056l-4.193 5.945c-1.168 1.655-1.785 3.601-1.785 5.626v3.817c0 3.706 3.015 6.721 6.721 6.721h1.153c-.279.802-.427 1.65-.427 2.506v.999c0 1.729.595 3.424 1.674 4.773l1.218 1.521c1.458 1.823 3.632 2.868 5.966 2.868h4.648c2.041 0 3.959-.795 5.402-2.238l1.943-1.943c1.443-1.443 2.238-3.361 2.238-5.402v-.156c0-2.041-.795-3.959-2.238-5.402l-1.943-1.943c-.186-.186-.381-.36-.582-.525l1.835-2.121c1.37-1.583 2.206-3.605 2.355-5.693l.439-6.16 1.45-.746c.465.596.979 1.157 1.558 1.662l6.751 5.886-.515.586c-2.9 3.301-3.467 7.954-1.444 11.855l4.303 8.294c1.826 3.521 5.425 5.708 9.391 5.708h16.967c3.966 0 7.564-2.187 9.392-5.708l4.303-8.294c2.023-3.901 1.456-8.554-1.444-11.855l-.515-.586 6.751-5.886c.59-.515 1.115-1.088 1.587-1.697l1.518.781.438 6.159c.148 2.089.985 4.111 2.355 5.693l1.834 2.12c-.201.164-.396.339-.582.525l-1.942 1.943c-1.443 1.442-2.238 3.361-2.238 5.403v.156c0 2.042.795 3.96 2.238 5.402l1.942 1.944c1.444 1.443 3.363 2.237 5.403 2.237h4.648c2.333 0 4.508-1.045 5.967-2.868l1.216-1.521c1.08-1.349 1.675-3.044 1.675-4.773v-.999c0-.857-.148-1.704-.426-2.506h1.153c3.706 0 6.721-3.015 6.721-6.721v-3.817c0-2.023-.617-3.968-1.784-5.624z" fill="#e6e7e8"/></g><g><path d="m119.827 87.144-4.64-6.578c1.265-1.38 2.103-3.146 2.295-5.097l1.419-14.413c.2-2.03-.308-4.067-1.439-5.766l-5.949-8.939c-1.145-1.72-2.855-2.985-4.836-3.575l-4.521-1.348c-3.04-.906-6.333-.115-8.629 2.075l-6.12 5.836c-.056-.04-.106-.088-.163-.127l-4.65-3.176c1.196-1.985 1.857-4.267 1.857-6.623v-13.178c0-3.902-1.774-7.592-4.82-10.029l-6.814-5.451c-2.277-1.822-5.107-2.814-8.024-2.814h-5.683c-2.917 0-5.746.993-8.024 2.814l-6.814 5.451c-3.047 2.437-4.82 6.128-4.82 10.029v13.179c0 2.356.661 4.638 1.857 6.623l-4.65 3.176c-.039.026-.072.059-.11.086l-6.077-5.795c-2.296-2.189-5.589-2.981-8.629-2.075l-4.521 1.348c-1.98.59-3.691 1.855-4.836 3.575l-5.949 8.939c-1.13 1.698-1.639 3.735-1.439 5.766l1.419 14.413c.192 1.951 1.03 3.717 2.295 5.097l-4.64 6.578c-1.042 1.478-1.602 3.242-1.602 5.05v3.817c0 3.159 2.561 5.721 5.721 5.721h2.752c-.656 1.05-1.025 2.258-1.025 3.507v.998c0 1.508.513 2.971 1.455 4.148l1.218 1.522c1.26 1.575 3.168 2.492 5.185 2.492h4.648c1.761 0 3.45-.7 4.696-1.945l1.943-1.943c1.245-1.245 1.945-2.934 1.945-4.696v-.156c0-1.761-.7-3.45-1.945-4.696l-1.943-1.943c-.41-.41-.871-.754-1.363-1.04l2.567-2.967c1.238-1.431 1.979-3.223 2.114-5.11l.479-6.72 2.717-1.399c.534.803 1.164 1.547 1.905 2.193l7.508 6.545-1.177 1.34c-2.607 2.967-3.126 7.229-1.307 10.734l4.303 8.294c1.647 3.175 4.926 5.168 8.503 5.168h16.968c3.577 0 6.856-1.993 8.503-5.168l4.303-8.294c1.819-3.506 1.299-7.768-1.307-10.734l-1.177-1.34 7.508-6.545c.753-.656 1.391-1.413 1.93-2.23l2.789 1.436.479 6.72c.134 1.887.876 3.68 2.114 5.11l2.567 2.967c-.492.286-.954.63-1.363 1.04l-1.943 1.943c-1.245 1.245-1.945 2.934-1.945 4.696v.156c0 1.761.7 3.45 1.945 4.696l1.943 1.943c1.245 1.245 2.934 1.945 4.696 1.945h4.648c2.017 0 3.925-.917 5.185-2.492l1.218-1.522c.942-1.177 1.455-2.64 1.455-4.148v-.998c0-1.249-.37-2.456-1.025-3.507h2.752c3.159 0 5.721-2.561 5.721-5.721v-3.817c-.004-1.809-.563-3.573-1.606-5.051z" fill="#ffd7e5"/><g><path d="m79.632 16.205-6.814-5.451c-2.277-1.822-5.107-2.814-8.024-2.814h-5.684c-2.917 0-5.746.993-8.024 2.814l-6.814 5.451c-3.047 2.437-4.82 6.128-4.82 10.029v3c0-3.902 1.774-7.592 4.82-10.029l6.814-5.451c2.277-1.822 5.107-2.814 8.024-2.814h5.685c2.917 0 5.746.993 8.024 2.814l6.814 5.451c3.047 2.437 4.82 6.128 4.82 10.029v-3c-.001-3.901-1.774-7.591-4.821-10.029z" fill="#fff"/></g><g fill="#fa759e"><path d="m69.189 31.945v.236c0 1.894 1.782 3.281 3.618 2.818 1.29-.326 2.195-1.487 2.195-2.818v-2.549z"/><path d="m54.715 31.945v.236c0 1.894-1.782 3.281-3.618 2.818-1.29-.326-2.195-1.487-2.195-2.818v-2.549z"/></g><g fill="#3a2c60"><path d="m120.644 86.568-4.193-5.945c1.114-1.435 1.841-3.175 2.026-5.056l1.419-14.413c.222-2.252-.347-4.531-1.602-6.418l-5.949-8.939c-1.271-1.91-3.183-3.324-5.382-3.979l-4.521-1.348c-3.377-1.007-7.057-.121-9.604 2.31l-5.525 5.268-3.389-2.315c.994-1.932 1.528-4.083 1.528-6.319v-13.179c0-4.229-1.894-8.168-5.195-10.81l-6.813-5.451c-2.445-1.957-5.518-3.034-8.649-3.034h-5.685c-3.131 0-6.203 1.077-8.648 3.034l-6.814 5.451c-3.302 2.642-5.196 6.582-5.196 10.81v13.179c0 2.236.535 4.387 1.529 6.319l-3.334 2.277-5.485-5.23c-2.548-2.43-6.227-3.314-9.604-2.31l-4.521 1.348c-2.199.656-4.11 2.069-5.383 3.979l-5.949 8.939c-1.254 1.885-1.823 4.165-1.602 6.418l1.419 14.413c.185 1.881.913 3.621 2.026 5.056l-4.194 5.945c-1.167 1.655-1.784 3.601-1.784 5.626v3.817c0 3.706 3.015 6.721 6.721 6.721h1.172c-.284.802-.446 1.648-.446 2.507v.998c0 1.729.595 3.424 1.675 4.773l1.217 1.522c1.458 1.823 3.632 2.868 5.966 2.868h4.648c2.041 0 3.96-.795 5.403-2.238l1.943-1.943c1.443-1.443 2.238-3.361 2.238-5.402v-.156c0-2.041-.795-3.959-2.238-5.402l-1.943-1.943c-.186-.186-.385-.355-.587-.518l1.84-2.127c1.37-1.583 2.206-3.605 2.354-5.693l.439-6.16 1.45-.746c.465.596.979 1.157 1.558 1.662l6.751 5.886-.514.586c-2.901 3.301-3.468 7.954-1.444 11.855l4.303 8.294c1.827 3.521 5.425 5.708 9.391 5.708h16.968c3.966 0 7.564-2.187 9.391-5.708l4.303-8.294c2.023-3.901 1.457-8.555-1.444-11.855l-.515-.586 6.751-5.886c.591-.515 1.115-1.088 1.587-1.697l1.518.781.439 6.159c.147 2.088.984 4.111 2.354 5.694l1.84 2.127c-.203.163-.401.332-.588.518l-1.942 1.943c-1.443 1.442-2.238 3.361-2.238 5.403v.156c0 2.042.795 3.96 2.238 5.402l1.942 1.943c1.443 1.443 3.362 2.238 5.403 2.238h4.648c2.333 0 4.508-1.045 5.967-2.868l1.216-1.521c1.081-1.35 1.676-3.045 1.676-4.773v-.998c0-.859-.161-1.704-.446-2.507h1.171c3.706 0 6.721-3.015 6.721-6.721v-3.817c.002-2.027-.616-3.972-1.783-5.628zm-80.192-60.333c0-3.618 1.62-6.989 4.445-9.249l6.814-5.451c1.352-1.081 2.928-1.843 4.596-2.251.01.014.013.032.024.046l2.158 2.648-2.391 2.859c-.267.319-.308.771-.104 1.133l1.836 3.258c.184.326.523.509.872.509.166 0 .335-.042.49-.129.481-.271.651-.881.38-1.362l-1.497-2.655 2.477-2.962c.308-.368.311-.902.008-1.273l-1.95-2.394c.166-.007.332-.021.499-.021h5.685c2.679 0 5.307.922 7.399 2.595l6.813 5.451c2.825 2.26 4.445 5.631 4.445 9.249v13.179c0 3.163-1.232 6.138-3.469 8.375l-7.629 7.628c-2.236 2.237-5.211 3.469-8.375 3.469h-4.055c-3.164 0-6.138-1.232-8.375-3.469l-7.629-7.628c-2.237-2.237-3.469-5.211-3.469-8.375v-13.18zm-13.938 73.493 1.943 1.943c1.065 1.065 1.652 2.481 1.652 3.988v.079l-5.434 1.254-2.796-2.06c-.444-.327-1.07-.231-1.398.212-.328.445-.232 1.071.212 1.398l3.167 2.333c.174.128.382.195.593.195.075 0 .15-.008.225-.025l5.033-1.161c-.28.71-.698 1.365-1.254 1.921l-1.943 1.943c-1.065 1.065-2.482 1.652-3.989 1.652h-4.648c-1.723 0-3.328-.771-4.405-2.117l-1.217-1.522c-.797-.996-1.236-2.247-1.236-3.523v-.998c0-.874.22-1.73.606-2.507h8.373c1.953 0 3.805-.847 5.083-2.323l.944-1.091c.167.127.336.256.489.409zm3.026-9.895c-.118 1.661-.783 3.268-1.872 4.527l-4.101 4.74c-.897 1.037-2.198 1.632-3.57 1.632h-.689l-.701-4.483c-.057-.364-.309-.667-.657-.79l-6.702-2.351 1.163-3.92c.157-.53-.145-1.086-.674-1.243-.532-.16-1.086.144-1.243.674l-1.434 4.833c-.152.511.125 1.052.627 1.229l7.036 2.468.561 3.583h-8.992c-2.603 0-4.721-2.118-4.721-4.721v-3.817c0-1.61.491-3.157 1.419-4.474l3.965-5.62c1.106.942 2.424 1.649 3.884 2.029l8.667 2.255c.818.213 1.651.318 2.481.318 1.554 0 3.097-.369 4.502-1.092l1.402-.722zm51.644 2.691c2.353 2.676 2.813 6.45 1.171 9.614l-4.303 8.294c-1.481 2.855-4.399 4.628-7.615 4.628h-6.848l.861-1.681 5.177-.914c.29-.051.543-.228.69-.482l1.5-2.58c.278-.477.116-1.089-.361-1.367-.478-.277-1.09-.115-1.367.362l-1.267 2.178-5.209.919c-.309.055-.573.25-.716.529l-1.555 3.036h-7.872c-3.216 0-6.134-1.773-7.616-4.628l-4.303-8.294c-1.641-3.164-1.181-6.937 1.171-9.614l.52-.592 4.896 4.269c2.177 1.897 4.965 2.942 7.851 2.942h.093l-1.684 2.154-3.42 1.159c-.523.178-.803.745-.626 1.269.142.417.53.679.947.679.106 0 .215-.018.321-.053l3.703-1.255c.185-.063.347-.178.466-.332l2.83-3.621h9.297c2.886 0 5.675-1.045 7.852-2.942l4.896-4.269zm6.423-9.3-13.154 11.469c-1.813 1.58-4.134 2.45-6.537 2.45h-11.928c-2.403 0-4.725-.87-6.537-2.45l-9.886-8.619.761-3.191 2.466-1.451c.476-.28.635-.893.355-1.369-.279-.477-.892-.634-1.369-.355l-2.833 1.667c-.234.138-.403.365-.466.63l-.616 2.585-1.567-1.366c-2.167-1.889-3.41-4.622-3.41-7.498v-3.414c0-.552-.448-1-1-1s-1 .448-1 1v3.414c0 2 .515 3.936 1.442 5.658l-4.753 2.447c-1.718.885-3.693 1.104-5.564.617l-8.667-2.255c-3.005-.781-5.245-3.296-5.743-6.332l6-5.108c.182-.155.303-.371.34-.607l1-6.422c.085-.545-.289-1.057-.834-1.142-.548-.082-1.057.289-1.142.834l-.943 6.055-4.695 3.997-1.232-12.51c-.177-1.795.277-3.612 1.276-5.114l5.949-8.939c1.014-1.522 2.537-2.649 4.289-3.171l4.521-1.348c.734-.219 1.486-.326 2.232-.326 1.99 0 3.944.757 5.421 2.166l.992.946-.561 1.206-2.231.647c-.53.154-.835.708-.682 1.239.127.437.526.722.96.722.092 0 .186-.013.279-.04l2.667-.774c.277-.081.506-.277.628-.539l.468-1.005 2.718 2.592c-2.607 2.255-4.134 5.538-4.134 9.031v2.185c0 .552.448 1 1 1s1-.448 1-1v-2.185c0-3.289 1.621-6.359 4.337-8.214l3.806-2.599c.443.62.928 1.215 1.478 1.764l7.629 7.628c2.615 2.615 6.091 4.055 9.789 4.055h4.055c3.698 0 7.175-1.44 9.789-4.055l7.629-7.628c.549-.549 1.035-1.145 1.478-1.764l3.805 2.599c2.717 1.855 4.338 4.926 4.338 8.214v14.613l-5.178-3.46c-.218-.145-.484-.2-.737-.152l-3.896.722-3.961-5.179c-.334-.438-.961-.522-1.401-.187-.438.335-.522.963-.187 1.402l.584.764-6.016 1.604-1.971-2.654c-.33-.443-.956-.538-1.398-.207-.443.329-.536.956-.207 1.399l2.375 3.199c.191.258.491.404.803.404.086 0 .172-.011.258-.034l7.472-1.992 2.434 3.184c.229.299.607.445.976.376l4.101-.76 5.951 3.977v.455c-.004 2.877-1.247 5.61-3.415 7.499zm5.411-7.497v-17.475c0-3.469-1.505-6.736-4.081-8.989l5.281-5.036c2.031-1.937 4.963-2.641 7.653-1.84l4.521 1.348c1.753.522 3.275 1.648 4.289 3.171l.913 1.372-8.64 4.749c-.447.246-.638.788-.442 1.259l2.102 5.07-1.906 2.029c-.379.402-.358 1.035.044 1.414.193.181.438.271.685.271.267 0 .532-.106.729-.315l2.349-2.5c.27-.287.346-.704.195-1.067l-2.006-4.839 8.004-4.399 3.923 5.896c1 1.503 1.453 3.319 1.276 5.114l-1.419 14.413c-.321 3.256-2.664 5.998-5.83 6.822l-4.854 1.263.622-2.657c.126-.538-.208-1.076-.746-1.202-.538-.127-1.075.208-1.201.746l-.862 3.683-1.627.423c-1.872.487-3.848.268-5.564-.617l-4.828-2.486c.913-1.715 1.42-3.636 1.42-5.621zm19.964 29.512v.998c0 1.276-.439 2.527-1.237 3.524l-1.216 1.521c-1.077 1.346-2.683 2.117-4.405 2.117h-4.648c-1.507 0-2.924-.587-3.989-1.652l-1.942-1.944c-.814-.814-1.343-1.834-1.55-2.942l5.604.954 2.262 3.543c.19.299.514.462.844.462.184 0 .37-.051.537-.157.466-.297.602-.916.305-1.381l-2.5-3.917c-.151-.238-.396-.4-.675-.448l-6.397-1.089c.175-1.19.705-2.292 1.571-3.158l1.942-1.943c.153-.153.322-.282.491-.411l.944 1.091c1.277 1.477 3.13 2.323 5.082 2.323h8.373c.384.778.604 1.635.604 2.509zm7.447-9.228c0 2.603-2.118 4.721-4.721 4.721h-5.831l-1.536-4.916 3.337-2.25c.458-.309.579-.93.271-1.388-.31-.458-.931-.579-1.388-.27l-3.955 2.667c-.367.247-.527.706-.396 1.127l1.572 5.03h-3.779c-1.371 0-2.673-.595-3.57-1.632l-4.101-4.74c-1.089-1.259-1.754-2.866-1.872-4.527l-.352-4.945 1.401.721c1.405.724 2.948 1.092 4.503 1.092.83 0 1.664-.105 2.481-.318l8.668-2.255c1.46-.38 2.778-1.087 3.884-2.029l3.964 5.621c.929 1.316 1.419 2.863 1.419 4.474v3.817z"/><path d="m31.886 62.771c-.552 0-1 .448-1 1v5.097c0 .552.448 1 1 1s1-.448 1-1v-5.097c0-.552-.448-1-1-1z"/><path d="m51.079 47.486c1.184 1.183 2.756 1.834 4.429 1.834h12.89c1.648 0 3.263-.668 4.428-1.834l3.459-3.458c.391-.39.391-1.023 0-1.414s-1.023-.391-1.414 0l-3.459 3.458c-.793.793-1.892 1.249-3.014 1.249h-12.89c-1.138 0-2.209-.443-3.015-1.249l-3.458-3.458c-.391-.391-1.023-.391-1.414 0s-.391 1.023 0 1.414z"/><path d="m59.786 43.32h4.333c.552 0 1-.448 1-1v-4.407c0-.552-.448-1-1-1s-1 .448-1 1v3.407h-2.333v-3.407c0-.552-.448-1-1-1s-1 .448-1 1v4.407c0 .553.447 1 1 1z"/><path d="m68.904 29.513c.14 0 .282-.029.419-.092l6.097-2.817c.502-.231.721-.826.489-1.327-.231-.501-.821-.722-1.328-.488l-6.097 2.817c-.502.231-.721.826-.489 1.327.169.365.531.58.909.58z"/><path d="m74.631 28.704-5.813 2.313c-.38.151-.63.52-.63.929v.236c0 1.213.549 2.336 1.506 3.082.696.542 1.534.827 2.392.827.321 0 .646-.04.966-.121 1.736-.439 2.949-1.997 2.949-3.788v-2.549c0-.332-.164-.642-.438-.828s-.624-.224-.932-.101zm-.63 3.478c0 .874-.592 1.634-1.439 1.848-.573.145-1.17.02-1.639-.345-.353-.275-.592-.655-.688-1.08l3.766-1.498z"/><path d="m48.483 26.603 6.099 2.817c.136.063.278.092.419.092.378 0 .739-.215.908-.581.232-.501.013-1.096-.488-1.327l-6.099-2.817c-.5-.233-1.095-.014-1.327.488s-.013 1.097.488 1.328z"/><path d="m50.853 35.969c.32.081.644.121.965.121.858 0 1.695-.284 2.392-.827.957-.745 1.506-1.869 1.506-3.082v-.236c0-.41-.25-.778-.63-.929l-5.813-2.313c-.308-.122-.656-.084-.931.102-.274.186-.438.496-.438.828v2.549c-.001 1.791 1.212 3.348 2.949 3.787zm-.95-4.862 3.766 1.498c-.096.425-.335.806-.688 1.081-.467.363-1.065.49-1.638.344-.848-.214-1.44-.974-1.44-1.848z"/></g></g></g></svg>