<svg id="Layer_1" enable-background="new 0 0 128 128" height="512" viewBox="0 0 128 128" width="512" xmlns="http://www.w3.org/2000/svg"><g><path d="m125.281 18.99c-.287-.307-.736-.401-1.12-.236-.059.025-5.935 2.494-12.456 3.141-1.787.177-3.647.05-5.446-.073-2.825-.193-5.745-.394-8.461.587-4.869 1.758-7.349 4.961-8.588 7.422-5.037-6.449-13.051-10.156-23.098-10.156-10.138 0-18.204 3.775-23.232 10.333-1.225-2.526-3.709-5.805-8.677-7.599-2.717-.982-5.638-.781-8.461-.587-1.797.123-3.658.25-5.446.073-6.509-.645-12.397-3.116-12.456-3.141-.389-.167-.833-.069-1.12.237-.286.306-.353.758-.164 1.133.029.058 2.908 5.835 4.395 12.739.22 1.019.433 2.064.648 3.122 1.813 8.872 3.866 18.928 11.433 22.054 2.049.847 4.177 1.269 6.339 1.269 2.214 0 4.462-.45 6.696-1.333-.942 5.659-1.748 10.99 1.656 15.009.478.564 1.03 1.089 1.655 1.577-12.154 8.083-19.378 21.074-19.378 35.065 0 .257.003.513.009.769.038 1.617 1.387 2.933 3.006 2.933h85.97c1.618 0 2.968-1.315 3.007-2.937.005-.254.009-.509.009-.765 0-14.03-7.259-27.045-19.467-35.125.601-.469 1.137-.968 1.598-1.504 3.443-4.001 2.795-9.313 1.948-14.966 2.186.845 4.385 1.275 6.552 1.275 2.162 0 4.291-.422 6.339-1.268 7.567-3.127 9.621-13.184 11.432-22.057.216-1.057.43-2.101.648-3.119 1.486-6.904 4.365-12.681 4.395-12.739.187-.375.122-.827-.165-1.133z" fill="#e6e7e8"/><g><g><g><path d="m82.504 72.426c-4.48 1.439-10.998 2.248-20.393 2.248-9.523 0-16.121-.797-20.643-2.217-6.946 7.713-11.363 19.258-11.363 32.169 0 1.248.049 2.481.13 3.702h63.529c.081-1.221.13-2.453.13-3.702.001-12.928-4.428-24.487-11.39-32.2z" fill="#6dc9f7"/></g><g fill="#0089ef"><path d="m41.467 72.456c-1.72-.54-3.134-1.172-4.3-1.882-12.15 7.526-20.167 20.409-20.167 35.051 0 .249.003.497.009.745.026 1.088.918 1.957 2.006 1.957h11.22c-.081-1.221-.13-2.453-.13-3.702 0-12.91 4.415-24.457 11.362-32.169z"/><path d="m86.76 70.529c-1.156.716-2.559 1.351-4.255 1.896 6.963 7.711 11.39 19.272 11.39 32.2 0 1.248-.049 2.481-.13 3.702h11.22c1.088 0 1.981-.869 2.006-1.957.006-.248.009-.496.009-.745 0-14.671-8.049-27.576-20.24-35.096z"/></g><g><path d="m80.87 108.327c.048-.725.077-1.457.077-2.199 0-13.796-8.483-24.979-18.947-24.979s-18.947 11.184-18.947 24.979c0 .742.029 1.474.077 2.199z" fill="#d4fbff"/></g></g><g><g><g><path d="m107.804 18.889c-4.702.466-9.48-1.052-13.667.459-5.625 2.031-7.845 6.078-8.692 8.461 3.117 4.691 4.666 10.531 4.666 16.864 0 2.624.341 5.221.712 7.725 3.563 1.74 8.44 2.915 13.765.715 7.931-3.277 9.445-14.994 11.484-24.462 1.534-7.121 4.479-12.978 4.479-12.978s-5.999 2.547-12.747 3.216z" fill="#0089ef"/></g><g><path d="m107.804 18.889c-4.702.466-9.48-1.052-13.667.459-5.625 2.031-7.845 6.078-8.692 8.461 1.127 1.696 2.045 3.545 2.762 5.51 6.013-7.085 14.199-7.643 21.68-9.945 6.17-1.898 9.616-6.202 10.663-7.701v-.001c.001.002-5.998 2.548-12.746 3.217z" fill="#6dc9f7"/></g></g><g><g><path d="m34.111 44.674c0-6.233 1.501-11.989 4.52-16.642-.784-2.344-2.96-6.586-8.768-8.683-4.186-1.512-8.964.007-13.667-.459-6.748-.67-12.747-3.216-12.747-3.216s2.945 5.857 4.479 12.978c2.039 9.468 3.553 21.185 11.484 24.462 5.413 2.237 10.364.985 13.942-.802.401-2.478.757-5.045.757-7.638z" fill="#0089ef"/></g><g><path d="m35.948 33.499c.696-1.947 1.588-3.78 2.683-5.467-.784-2.344-2.96-6.586-8.768-8.683-4.186-1.512-8.964.007-13.667-.459-6.748-.67-12.747-3.216-12.747-3.216v.001c1.047 1.499 4.493 5.802 10.663 7.701 7.546 2.32 15.809 2.864 21.836 10.123z" fill="#6dc9f7"/></g></g></g><path d="m90.111 44.674c0-15.464-9.222-28-28-28s-28 12.536-28 28-12.667 30 28 30c39.834 0 28-14.536 28-30z" fill="#6dc9f7"/><g fill="#fff"><path d="m68.445 62.827h-2.455c.378 1.458 1.066 3.641 1.801 3.641.755 0 1.489-2.305 1.877-3.76-.399.079-.808.119-1.223.119z"/><path d="m55.555 62.827c-.416 0-.825-.041-1.223-.119.388 1.455 1.122 3.76 1.877 3.76.735 0 1.423-2.182 1.801-3.641z"/></g><g><path d="m62.116 19.674c13.818 0 22.663 6.258 26.67 15.381-3.162-10.726-12.001-18.381-26.675-18.381-14.698 0-23.541 7.681-26.69 18.435 3.997-9.152 12.849-15.435 26.695-15.435z" fill="#fff"/></g><g><path d="m71.189 45.55v.304c0 2.437 3.372 4.223 6.846 3.626 2.442-.419 4.153-1.913 4.153-3.626v-3.28z" fill="#fa759e"/><g><path d="m52.811 45.55v.304c0 2.437-3.372 4.223-6.846 3.626-2.442-.419-4.153-1.913-4.153-3.626v-3.28z" fill="#fa759e"/><g fill="#3a2c60"><path d="m65.416 107.327h-6.833c-.553 0-1 .448-1 1s.447 1 1 1h6.833c.553 0 1-.448 1-1s-.447-1-1-1z"/><path d="m121.281 14.99c-.287-.307-.736-.401-1.12-.236-.059.025-5.935 2.494-12.456 3.141-1.787.177-3.647.05-5.446-.073-2.825-.193-5.745-.394-8.461.587-4.869 1.758-7.349 4.961-8.588 7.422-5.037-6.449-13.051-10.156-23.098-10.156-10.138 0-18.204 3.775-23.232 10.333-1.225-2.526-3.709-5.805-8.677-7.599-2.717-.982-5.638-.781-8.461-.587-1.797.123-3.658.25-5.446.073-6.509-.645-12.397-3.116-12.456-3.141-.389-.167-.833-.069-1.12.237-.286.306-.353.758-.164 1.133.029.058 2.908 5.835 4.395 12.739.22 1.019.433 2.064.648 3.122 1.812 8.872 3.866 18.928 11.433 22.054 2.049.847 4.177 1.269 6.339 1.269 2.214 0 4.462-.45 6.696-1.333-.942 5.659-1.748 10.99 1.656 15.009.48.566 1.034 1.093 1.663 1.584-12.155 8.082-19.386 21.067-19.386 35.058 0 .257.003.513.009.769.038 1.617 1.387 2.933 3.006 2.933h9.456 1.765 24.452c.553 0 1-.448 1-1s-.447-1-1-1h-23.502c-.049-.94-.081-1.843-.081-2.702 0-11.937 3.893-23.19 10.686-31.009 4.816 1.401 11.462 2.057 20.321 2.057 8.636 0 15.234-.687 20.046-2.115 6.826 7.821 10.738 19.097 10.738 31.067 0 .855-.032 1.758-.08 2.702h-23.441c-.553 0-1 .448-1 1s.447 1 1 1h24.39 1.765 9.455c1.618 0 2.968-1.315 3.007-2.937.005-.254.009-.509.009-.765 0-14.03-7.265-27.039-19.475-35.118.604-.471 1.143-.972 1.606-1.511 3.443-4.001 2.795-9.313 1.948-14.966 2.186.845 4.385 1.275 6.552 1.275 2.162 0 4.291-.422 6.339-1.268 7.567-3.127 9.621-13.184 11.432-22.057.216-1.057.43-2.101.648-3.119 1.486-6.904 4.365-12.681 4.395-12.739.187-.375.122-.827-.165-1.133zm-26.804 5.299c2.319-.838 4.906-.662 7.645-.473 1.88.129 3.824.262 5.78.068 3.606-.357 6.957-1.224 9.368-1.98-1.718 1.619-4.262 3.465-7.676 4.515-1.576.485-3.227.902-4.822 1.305-5.648 1.427-11.471 2.905-16.222 7.74-.575-1.323-1.243-2.576-1.998-3.752.867-2.17 2.979-5.637 7.925-7.423zm-72.599-.473c2.739-.189 5.323-.366 7.645.473 5.079 1.834 7.175 5.416 8.012 7.645-.729 1.16-1.372 2.392-1.928 3.693-4.778-4.965-10.668-6.46-16.379-7.903-1.596-.403-3.246-.82-4.822-1.305-3.414-1.05-5.959-2.896-7.676-4.515 2.411.756 5.762 1.623 9.368 1.98 1.956.193 3.9.061 5.78-.068zm-2.084 32.373c-6.584-2.72-8.524-12.222-10.236-20.605-.218-1.065-.433-2.117-.653-3.143-.653-3.034-1.548-5.812-2.374-8.04 1.822 1.495 4.226 2.987 7.288 3.929 1.625.5 3.3.923 4.92 1.333 5.957 1.505 11.59 2.94 16.072 8.059-1.109 3.292-1.699 6.96-1.699 10.952 0 2.34-.301 4.666-.661 6.946-4.344 2.042-8.6 2.246-12.657.569zm9.311 52.437c0 .867.023 1.758.07 2.702h-.704-9.456c-.542 0-.993-.439-1.006-.98-.006-.24-.009-.48-.009-.722 0-13.587 7.161-26.211 19.187-33.883.769.43 1.619.823 2.553 1.18-6.774 8.144-10.635 19.603-10.635 31.703zm57.639-32.926c12.07 7.669 19.256 20.307 19.256 33.926 0 .243-.004.484-.009.721-.013.541-.465.981-1.007.981h-9.454-.705c.047-.947.07-1.838.07-2.702 0-12.123-3.874-23.598-10.673-31.746.012-.005.017-.024.024-.039.904-.352 1.731-.737 2.479-1.157.007.006.015.018.019.016zm1.872-4.008c-3.512 4.081-11.934 5.981-26.504 5.981-14.869 0-23.405-1.901-26.863-5.983-2.877-3.396-2.077-8.191-1.151-13.742.499-2.989 1.015-6.081 1.015-9.274 0-13.053 7.093-27 27-27s27 13.947 27 27c0 3.088.452 6.084.89 8.982.854 5.673 1.593 10.573-1.387 14.036zm26.479-39.251c-.221 1.025-.436 2.076-.652 3.14-1.712 8.384-3.651 17.888-10.236 20.608-4.001 1.652-8.194 1.475-12.472-.483-.335-2.306-.623-4.662-.623-7.032 0-4.066-.613-7.795-1.763-11.133 4.459-4.972 10.026-6.39 15.913-7.878 1.62-.409 3.295-.832 4.92-1.333 3.067-.944 5.467-2.441 7.29-3.938-.827 2.229-1.723 5.011-2.377 8.049z"/><path d="m74.918 56.12-3.459 3.458c-.806.806-1.876 1.249-3.015 1.249h-12.89c-1.139 0-2.209-.443-3.015-1.249l-3.458-3.458c-.391-.391-1.023-.391-1.414 0-.391.39-.391 1.023 0 1.414l3.458 3.459c1.184 1.183 2.756 1.834 4.429 1.834h12.89c1.673 0 3.245-.651 4.429-1.834l3.459-3.458c.391-.39.391-1.023 0-1.414s-1.023-.391-1.414-.001z"/><path d="m70.648 42.134c.099 0 .2-.015.3-.046l11.54-3.626c.526-.166.819-.727.654-1.254-.166-.526-.726-.822-1.254-.654l-11.54 3.626c-.526.166-.819.727-.654 1.254.134.426.528.7.954.7z"/><path d="m81.927 41.609-10.999 2.976c-.437.118-.739.514-.739.965v.304c0 1.152.557 2.256 1.567 3.108 1.249 1.053 3.044 1.634 4.917 1.634.508 0 1.021-.042 1.53-.13 2.935-.504 4.984-2.4 4.984-4.611v-3.28c0-.312-.145-.605-.393-.794-.245-.19-.567-.256-.867-.172zm-.739 4.246c0 1.199-1.397 2.31-3.322 2.641-1.797.308-3.69-.108-4.82-1.062-.305-.256-.654-.642-.794-1.134l8.937-2.418v1.973z"/><path d="m41.513 38.461 11.539 3.626c.1.031.201.046.3.046.426 0 .819-.273.954-.701.165-.527-.127-1.088-.654-1.254l-11.539-3.626c-.531-.168-1.089.127-1.254.654s.127 1.09.654 1.255z"/><path d="m53.811 45.855v-.305c0-.452-.303-.847-.739-.965l-10.998-2.976c-.301-.083-.622-.018-.868.171-.248.189-.393.482-.393.794v3.28c0 2.211 2.049 4.107 4.983 4.611.51.088 1.022.13 1.53.13 1.873 0 3.669-.581 4.917-1.634 1.011-.85 1.568-1.954 1.568-3.106zm-2.857 1.578c-1.13.954-3.023 1.369-4.82 1.062-1.925-.331-3.321-1.441-3.321-2.641v-1.974l8.936 2.418c-.14.494-.49.879-.795 1.135z"/></g></g></g></g></g></svg>