<svg id="Layer_1" enable-background="new 0 0 128 128" height="512" viewBox="0 0 128 128" width="512" xmlns="http://www.w3.org/2000/svg"><g><g><path d="m106.027 77.75c0-20.373-18.293-47.669-37-47.669-11.606 0-23.048 10.508-30.065 23.349v-25.008h31.171c9.409 0 18.183 4.656 23.469 12.456.19.279.503.438.828.438.105 0 .212-.017.316-.052.425-.142.704-.549.683-.996-.782-16.175-14.089-28.846-30.296-28.846h-26.171v-1.851c0-1.654-1.346-3-3-3h-1.199c-1.654 0-3 1.346-3 3v88.798c-3.396 1.415-5.79 4.767-5.79 8.67s2.394 7.255 5.79 8.67v6.72c0 1.654 1.346 3 3 3h67.451c1.654 0 3-1.346 3-3v-12.172c0-6.205-1.89-11.977-5.125-16.77 3.934-4.871 5.938-10.123 5.938-15.737z" fill="#e6e7e8"/></g><g><g><path d="m101.027 73.75c0-19.147-17.202-46.669-36-46.669-12.682 0-24.628 12.528-31.066 26.559v34.12c.41.559.84 1.1 1.282 1.63-.457.64-.879 1.307-1.282 1.986v3.69c-.01-.003-.021-.004-.032-.008 3.376 1.085 5.822 4.245 5.822 7.982 0 4.633-3.756 8.39-8.39 8.39-.52 0-1.027-.054-1.521-.145v7.145c0 1.105.896 2 2 2h66.373c1.104 0 2-.895 2-2v-12.173c0-6.281-1.999-12.091-5.386-16.843 3.59-4.273 6.2-9.486 6.2-15.664z" fill="#0089ef"/></g><g><path d="m65.027 45.081c-8.345 0-16.371 5.427-22.719 13.134-1.089 4.17-.624 8.114-.043 10.085 1.075 3.648 6.579 6.146 6.579 6.146s-3.741 1.466-2.486 4.684c1.253 3.219 6.017 2.892 6.017 2.892s-3.223 7.916.567 9.266c3.789 1.349 4.887-3.049 4.887-3.049s-.748 4.056 2.796 4.45c2.316.258 3.986-3.305 4.404-4.88.418 1.575 2.088 5.138 4.404 4.88 3.544-.394 2.796-4.45 2.796-4.45s1.098 4.398 4.887 3.049c3.789-1.351.567-9.266.567-9.266s4.764.327 6.017-2.892c1.255-3.218-2.486-4.684-2.486-4.684s5.504-2.498 6.579-6.146c.581-1.972 1.045-5.916-.044-10.086-6.351-7.707-14.377-13.133-22.722-13.133z" fill="#fff"/></g><path d="m65.027 27.081c-12.682 0-24.628 12.529-31.066 26.559v18c6.434-14.031 18.383-26.559 31.066-26.559 15.609 0 30.108 18.976 34.581 36.377.896-2.379 1.419-4.947 1.419-7.708 0-19.147-17.202-46.669-36-46.669z" fill="#6dc9f7"/><g><g><path d="m61.133 8.422h-27.171v15h32.171c10.109 0 19.022 5.114 24.297 12.895-.75-15.532-13.579-27.895-29.297-27.895z" fill="#d4fbff"/></g><g><path d="m61.744 11.422c13.668 0 25.146 9.35 28.403 22.001-2.095-14.146-14.286-25.001-29.014-25.001h-27.171v3z" fill="#fff"/></g><g fill="#fa759e"><path d="m31.362 111.429c-.908 0-1.78-.149-2.599-.415v7.416c0 1.104.896 2 2 2h1.199c1.105 0 2-.895 2-2v-7.416c-.819.266-1.692.415-2.6.415z"/><path d="m31.362 94.65c.908 0 1.78.149 2.599.416v-89.495c0-1.105-.895-2-2-2h-1.199c-1.104 0-2 .895-2 2v89.494c.82-.266 1.692-.415 2.6-.415z"/></g><path d="m28.763 8.422h5.199v4.792h-5.199z" fill="#ffd7e5"/><path d="m28.763 18.629h5.199v4.792h-5.199z" fill="#ffd7e5"/><g><circle cx="31.362" cy="103.039" fill="#fff" r="8.39"/><g fill="#3a2c60"><path d="m69.327 119.429h-7.172c-.553 0-1 .447-1 1s.447 1 1 1h7.172c.553 0 1-.447 1-1s-.447-1-1-1z"/><path d="m101.93 75.823c.064-.689.097-1.38.097-2.073 0-20.373-18.293-47.669-37-47.669-11.608 0-23.048 10.514-30.065 23.358v-25.017h31.171c9.409 0 18.183 4.656 23.469 12.456.19.279.503.438.828.438.105 0 .212-.017.316-.052.425-.142.704-.549.683-.996-.782-16.175-14.089-28.846-30.296-28.846h-26.171v-1.851c0-1.654-1.346-3-3-3h-1.199c-1.654 0-3 1.346-3 3v88.799c-3.396 1.415-5.79 4.767-5.79 8.67 0 3.902 2.394 7.254 5.79 8.669v6.72c0 1.654 1.346 3 3 3h27.765c.553 0 1-.447 1-1s-.447-1-1-1h-13.712v-12.4c0-.553-.447-1-1-1s-1 .447-1 1v12.4h-8.039c.112-.314.184-.648.184-1v-6.72c3.396-1.415 5.79-4.767 5.79-8.669 0-3.903-2.394-7.255-5.79-8.67v-3.707c7.588 8.727 18.778 13.392 19.486 13.681.124.051.252.074.378.074.394 0 .768-.234.926-.622.209-.512-.037-1.096-.548-1.304-.18-.073-12.964-5.402-20.242-15.104v-15.533c1.606-3.484 3.553-6.862 5.764-9.967-.189 2.717.122 5.145.579 6.694.805 2.735 3.673 4.821 5.518 5.918-1.254 1.033-2.283 2.722-1.397 4.993 1.022 2.629 3.803 3.32 5.543 3.488-.595 1.852-1.391 5.148-.414 7.33.415.926 1.123 1.589 2.051 1.92 1.316.469 2.523.419 3.584-.151.38-.203.709-.46.994-.742.12.275.271.547.462.803.648.873 1.64 1.407 2.867 1.544 2.048.213 3.586-1.561 4.514-3.268.874 1.607 2.277 3.287 4.158 3.287.118 0 .237-.007.357-.02 1.227-.137 2.218-.67 2.866-1.543.19-.257.343-.528.463-.804.284.282.614.538.994.742 1.061.57 2.268.62 3.585.151.927-.331 1.635-.994 2.05-1.92.977-2.182.181-5.479-.414-7.33 1.74-.168 4.521-.859 5.543-3.487.886-2.272-.145-3.961-1.397-4.995 1.844-1.096 4.712-3.182 5.518-5.917.458-1.552.769-3.985.578-6.708 4.214 5.913 7.468 12.828 9.236 19.555-3.061 7.857-10.941 14.894-23.565 20.991l-.205.099c-.497.24-.705.839-.465 1.336.241.496.837.705 1.336.465l.204-.099c8.218-3.969 14.493-8.361 18.849-13.138 2.831 4.38 4.497 9.581 4.497 15.174v12.172c0 .552-.448 1-1 1h-10.977v-12.4c0-.553-.447-1-1-1s-1 .447-1 1v12.4h-12.21c-.553 0-1 .447-1 1s.447 1 1 1h25.187c1.654 0 3-1.346 3-3v-12.172c0-6.202-1.911-11.955-5.143-16.747 3.457-4.272 5.428-8.839 5.859-13.686zm-72.167-61.609h3.199v3.415h-3.199zm0-4.792h3.199v2.792h-3.199zm0 10.207h3.199v2.793l-3.199-.001zm59.286 13.251c-5.729-6.605-14.06-10.458-22.916-10.458h-31.171v-3.793-5.415-3.792h26.171c13.953 0 25.605 10.054 27.916 23.458zm-58.286-28.309h1.199c.552 0 1 .448 1 1v1.851h-3.199v-1.851c0-.552.448-1 1-1zm2.199 113.858c0 .552-.448 1-1 1h-1.199c-.552 0-1-.448-1-1v-6.147c.521.09 1.053.147 1.6.147s1.079-.057 1.6-.147v6.147zm5.79-15.389c0 4.074-3.315 7.389-7.39 7.389s-7.39-3.314-7.39-7.389 3.315-7.39 7.39-7.39 7.39 3.316 7.39 7.39zm-7.39-9.39c-.546 0-1.079.057-1.6.147v-69.376h3.199v69.375c-.52-.089-1.052-.146-1.599-.146zm55.469-25.632c-.932 3.161-5.983 5.495-6.034 5.519-.364.166-.593.534-.583.934.009.4.257.757.629.906.287.115 2.781 1.189 1.923 3.393-.969 2.488-4.979 2.262-5.017 2.256-.342-.016-.676.134-.879.412-.202.279-.246.644-.115.963.542 1.333 1.765 5.205.92 7.095-.194.434-.479.704-.896.853-.771.274-1.413.268-1.963-.025-.969-.516-1.498-1.855-1.618-2.324-.131-.523-.655-.852-1.183-.735-.527.114-.869.628-.771 1.158.074.402.151 1.73-.441 2.529-.317.427-.803.672-1.481.747-1.438.156-2.91-2.569-3.327-4.143-.116-.438-.513-.743-.967-.743-.453 0-.85.305-.967.743-.406 1.528-1.806 4.149-3.205 4.149-.04 0-.081-.002-.122-.007-.677-.075-1.16-.317-1.478-.742-.592-.79-.521-2.1-.445-2.533.098-.531-.243-1.045-.771-1.159-.526-.116-1.052.212-1.183.735-.004.017-.451 1.698-1.611 2.32-.551.294-1.195.307-1.969.029-.417-.148-.701-.419-.896-.852-.844-1.883.378-5.761.92-7.096.129-.319.084-.683-.117-.962s-.537-.425-.876-.413c-.043.006-4.051.231-5.019-2.257-.858-2.202 1.635-3.276 1.919-3.391.374-.146.623-.502.634-.903.011-.402-.22-.771-.585-.938-.051-.023-5.102-2.357-6.033-5.519-.589-2-.927-5.648.02-9.404 6.134-7.38 13.821-12.533 21.784-12.533 7.964 0 15.647 5.143 21.779 12.514.953 3.764.614 7.42.024 9.424zm12.776 9.86c-5.472-16.84-19.513-33.797-34.58-33.797-11.898 0-23.161 10.599-30.065 23.349v-13.73c6.391-13.728 18.134-25.619 30.065-25.619 17.696 0 35 26.15 35 45.669 0 1.386-.14 2.766-.42 4.128z"/><path d="m61.639 65.489c-2.323-2.53-6.467-6.639-8.41-6.078-1.286.371-4.052 5.101-1.95 7.109 1.425 1.361 6.441 1.273 9.528 1.074 1.055-.068 1.548-1.326.832-2.105z"/><path d="m76.825 59.411c-1.944-.561-6.087 3.547-8.41 6.078-.716.779-.223 2.037.833 2.105 3.087.198 8.103.287 9.528-1.074 2.101-2.008-.665-6.738-1.951-7.109z"/><path d="m66.32 73.942c-.549-1.039-2.037-1.039-2.586 0l-2.486 4.706c-.515.974.192 2.146 1.293 2.146h4.971c1.102 0 1.808-1.172 1.293-2.146z"/></g></g></g></g></g></svg>