<svg id="Layer_1" enable-background="new 0 0 128 128" height="512" viewBox="0 0 128 128" width="512" xmlns="http://www.w3.org/2000/svg"><g><g><path d="m126.85 49.146c-.039-.074-3.891-7.448-3.957-13.055-.065-5.506 3.506-10.628 3.542-10.679.252-.357.243-.838-.022-1.186-.266-.346-.722-.482-1.139-.331-.142.052-14.325 5.283-23.327 10.997-3.489 2.214-6.302 4.41-8.462 6.291v-.697c0-7.69-3.119-14.665-8.157-19.728-.455-6.985-6.096-12.451-7.314-12.804-.338-.101-.789.001-1.046.244-.521.489-.39 1.071-.104 2.346.245 1.09.618 2.757.712 4.701-3.657-1.759-7.753-2.745-12.076-2.745s-8.418.986-12.077 2.743c.095-1.944.467-3.612.712-4.701.286-1.275.417-1.856-.104-2.346-.258-.243-.704-.344-1.046-.244-1.217.354-6.859 5.819-7.314 12.805-5.038 5.063-8.157 12.038-8.157 19.728v.697c-2.16-1.881-4.973-4.077-8.462-6.291-9-5.713-23.183-10.944-23.325-10.996-.417-.151-.873-.015-1.139.331-.266.348-.274.828-.022 1.186.036.051 3.607 5.173 3.542 10.679-.067 5.598-3.918 12.981-3.957 13.055-.128.244-.151.53-.061.791.089.26.282.473.533.586.073.033 7.381 3.397 10.914 9.696 3.56 6.345 3.111 17.237 3.106 17.346-.014.302.11.594.337.794.226.201.532.287.829.237.082-.015 8.241-1.338 15.972 2.4.257.124.509.26.76.397-4.5 5.257-7.228 12.074-7.228 19.52v15.1c-1.054-.426-2.09-1.01-3.008-1.835-2.463-2.214-3.61-5.683-3.411-10.311.634-14.703-1.544-21.443-8.851-26.393l1.576-2.06c.214-.279.265-.649.136-.975-.128-.326-.419-.561-.765-.619l-8.62-1.441c-.378-.063-.753.093-.976.401s-.251.716-.074 1.052l3.969 7.521c.159.301.461.501.801.53.028.002.057.003.084.003.31 0 .604-.144.794-.392l1.864-2.435c6.01 3.977 8.734 9.217 8.065 24.723-.227 5.253 1.144 9.251 4.072 11.884 1.333 1.198 2.846 1.969 4.345 2.479v1.941c0 1.654 1.346 3 3 3h66.373c1.654 0 3-1.346 3-3v-19.173c0-7.446-2.728-14.264-7.228-19.52.251-.136.503-.272.76-.397 7.709-3.728 15.891-2.413 15.973-2.4.298.049.603-.038.829-.238s.35-.492.336-.794c-.005-.109-.458-10.992 3.106-17.346 3.533-6.299 10.841-9.663 10.914-9.696.251-.114.444-.326.533-.586.09-.26.068-.546-.06-.79zm-37.455 19.008c-.642 2.258-1.701 4.436-3.142 6.51-2.095-1.172-4.343-2.099-6.706-2.745 4.441-3.298 7.683-8.119 8.959-13.681.307.091.619.15.933.15.16 0 .317-.012.472-.033.302 3.386.289 6.967-.516 9.799zm-48.304-9.799c.155.021.311.033.471.033.315 0 .627-.06.933-.15 1.277 5.562 4.518 10.383 8.959 13.681-2.364.647-4.612 1.573-6.706 2.745-1.441-2.073-2.5-4.251-3.142-6.509-.805-2.831-.818-6.412-.515-9.8z" fill="#e6e7e8"/></g><g><g><path d="m7.174 77.886 4.652-6.079-8.621-1.442z" fill="#fa759e"/><g><path d="m35.085 78.141c1.864-2.007 4.006-3.75 6.369-5.167-1.536-2.058-2.967-4.585-3.81-7.546-2.265-7.962 1.421-21.286 1.421-21.286s-4.531-5.685-13.547-11.407c-9.015-5.721-23.136-10.901-23.136-10.901s3.796 5.355 3.726 11.269-4.073 13.51-4.073 13.51 7.63 3.441 11.375 10.117 3.233 17.881 3.233 17.881 8.466-1.435 16.574 2.486c.662.319 1.277.674 1.868 1.044z" fill="#fa759e"/></g><g><path d="m118.893 33.102c-.07-5.914 3.726-11.269 3.726-11.269s-14.12 5.18-23.136 10.902-13.547 11.407-13.547 11.407 3.686 13.323 1.421 21.286c-.843 2.962-2.273 5.489-3.81 7.546 2.362 1.417 4.505 3.16 6.369 5.167.591-.37 1.206-.725 1.867-1.045 8.108-3.921 16.574-2.486 16.574-2.486s-.512-11.204 3.233-17.881c3.745-6.676 11.375-10.117 11.375-10.117s-4.002-7.596-4.072-13.51z" fill="#fa759e"/></g><g><path d="m74.086 69.371c-3.389 2.026-7.35 3.194-11.585 3.194-4.235 0-8.197-1.167-11.585-3.194-13.44 2.556-23.602 14.359-23.602 28.542v19.173c0 1.105.896 2 2 2h66.373c1.105 0 2-.895 2-2v-19.173c0-14.183-10.163-25.986-23.601-28.542z" fill="#fa759e"/></g><g><path d="m51.775 69.862c-.291-.157-.577-.322-.86-.491-13.439 2.556-23.601 14.359-23.601 28.542v19.173c0 1.105.896 2 2 2h3c-1.104 0-2-.895-2-2v-19.173c0-13.419 9.098-24.709 21.461-28.051z" fill="#fff"/></g></g><g><path d="m62.5 72.565c-3.725 0-7.236-.906-10.334-2.502-.102.587-.166 1.188-.166 1.804 0 5.799 4.701 10.5 10.5 10.5s10.5-4.701 10.5-10.5c0-.617-.064-1.217-.166-1.805-3.098 1.596-6.609 2.503-10.334 2.503z" fill="#ffd7e5"/></g><g><g fill="#fa759e"><path d="m74.411 19.305c-.162.38-.334.752-.515 1.114-.739 1.479.095 3.251 1.723 3.541l2.45.436c1.265.225 2.511-.564 2.796-1.817.199-.876.353-1.775.447-2.69.785-7.688-5.854-13.767-6.577-13.977-.781-.227 2.552 6.633-.324 13.393z"/><path d="m50.589 19.305c.162.38.334.752.515 1.114.739 1.479-.095 3.251-1.723 3.541l-2.45.436c-1.265.225-2.511-.564-2.796-1.817-.199-.876-.353-1.775-.447-2.69-.785-7.688 5.854-13.767 6.577-13.977.782-.227-2.552 6.633.324 13.393z"/></g><g><g><path d="m85.109 44.892v5.064c0 1.364-.128 2.697-.359 3.995.418.27.876.436 1.366.436 1.861 0 3.369-2.13 3.369-4.757s0-9.757 0-9.757z" fill="#ffd7e5"/></g><g><path d="m39.892 49.956v-5.064l-4.376-5.018v9.757c0 2.627 1.509 4.757 3.369 4.757.49 0 .948-.166 1.366-.436-.231-1.298-.359-2.632-.359-3.996z" fill="#ffd7e5"/></g></g><path d="m79.538 27.933c-2.037-2.063-5.083-2.661-7.833-1.744-2.374.792-5.62 1.28-9.205 1.28s-6.831-.488-9.205-1.28c-2.75-.917-5.796-.319-7.833 1.744-3.444 3.489-5.57 8.28-5.57 13.57v8.453c0 12.486 10.122 22.608 22.608 22.608 12.486 0 22.608-10.122 22.608-22.608v-8.453c.001-5.289-2.126-10.081-5.57-13.57z" fill="#ffd7e5"/><g fill="#3a2c60"><path d="m123.851 46.146c-.039-.074-3.892-7.448-3.958-13.056-.065-5.506 3.506-10.628 3.542-10.679.252-.357.243-.838-.022-1.186-.266-.346-.721-.48-1.139-.331-.142.052-14.325 5.283-23.327 10.997-3.489 2.214-6.302 4.41-8.461 6.29v-.697c0-7.689-3.12-14.661-8.157-19.724-.452-6.986-6.096-12.454-7.313-12.809-.343-.1-.788.001-1.046.244-.521.489-.39 1.071-.104 2.347.246 1.093.62 2.766.713 4.717-3.661-1.759-7.753-2.759-12.079-2.759s-8.417.999-12.077 2.76c.093-1.951.467-3.624.713-4.717.286-1.275.417-1.857-.104-2.347-.258-.243-.705-.344-1.046-.244-1.218.354-6.861 5.823-7.313 12.808-5.037 5.063-8.157 12.035-8.157 19.724v.697c-2.159-1.88-4.972-4.076-8.461-6.29-9.002-5.713-23.186-10.944-23.328-10.996-.417-.151-.873-.016-1.139.331s-.274.828-.022 1.186c.036.051 3.606 5.173 3.542 10.679-.066 5.598-3.919 12.981-3.958 13.055-.129.244-.15.531-.06.792s.283.473.534.586c.073.033 7.371 3.378 10.914 9.695 3.56 6.345 3.111 17.237 3.106 17.346-.014.302.11.593.336.794.227.2.532.289.829.237.081-.014 8.265-1.328 15.974 2.4.251.121.503.255.76.397-4.502 5.255-7.229 12.072-7.229 19.519v15.103c-4.526-1.818-6.689-5.893-6.419-12.148.639-14.826-1.541-21.456-8.855-26.388l1.58-2.065c.214-.278.265-.648.136-.975-.128-.326-.419-.561-.765-.619l-8.621-1.441c-.378-.063-.753.093-.976.401s-.251.716-.074 1.052l3.97 7.521c.159.302.461.501.801.53.028.002.057.003.084.003.31 0 .604-.144.794-.393l1.861-2.432c5.889 3.907 8.74 9.126 8.068 24.72-.4 9.263 4.192 12.939 8.417 14.372v1.932c0 1.654 1.346 3 3 3h66.372c1.654 0 3-1.346 3-3v-2.889c0-.552-.447-1-1-1s-1 .448-1 1v2.889c0 .551-.448 1-1 1h-14.187v-20.022c0-.552-.447-1-1-1s-1 .448-1 1v20.023h-34v-20.023c0-.552-.447-1-1-1s-1 .448-1 1v20.023h-14.186c-.552 0-1-.449-1-1v-19.173c0-13.55 9.656-24.878 22.447-27.487.108.062.214.126.323.186-.05.431-.084.851-.084 1.255 0 6.341 5.159 11.5 11.5 11.5s11.5-5.158 11.5-11.5c0-.406-.034-.826-.084-1.255.109-.06.215-.124.323-.186 12.791 2.609 22.448 13.937 22.448 27.487v4.45c0 .552.447 1 1 1s1-.448 1-1v-4.45c0-7.447-2.727-14.265-7.229-19.519.258-.142.51-.276.761-.397 7.707-3.727 15.892-2.412 15.973-2.4.296.051.603-.037.829-.237.226-.201.35-.492.336-.794-.005-.109-.452-11.001 3.106-17.346 3.533-6.299 10.842-9.662 10.915-9.695.251-.113.444-.326.533-.586.09-.263.067-.549-.06-.793zm-116.521 29.892-2.298-4.353 4.99.834zm92.688-42.458c6.494-4.122 15.791-8.006 20.296-9.788-1.124 2.216-2.466 5.644-2.422 9.322.054 4.5 2.223 9.798 3.42 12.386l-30.827-2.056v-2.561c2.216-2.051 5.394-4.676 9.533-7.303zm-37.518 37.984c-11.915 0-21.608-9.693-21.608-21.608v-8.453c0-4.847 1.876-9.417 5.283-12.868 1.204-1.22 2.838-1.868 4.555-1.868.743 0 1.502.122 2.249.371 2.574.858 5.955 1.332 9.521 1.332s6.947-.473 9.521-1.332c2.469-.826 5.078-.251 6.805 1.498 3.406 3.45 5.282 8.02 5.282 12.868v8.453c0 11.914-9.693 21.607-21.608 21.607zm-25.984-21.933v-7.088l2.376 2.725v4.689c0 1.151.087 2.281.247 3.388-.085.018-.17.043-.254.043-1.284-.001-2.369-1.721-2.369-3.757zm49.592.326v-4.689l2.377-2.725v7.089c0 2.036-1.085 3.756-2.369 3.756-.084 0-.17-.025-.255-.043.16-1.108.247-2.238.247-3.388zm-5.792-30.17c-.085.83-.229 1.695-.427 2.571-.161.713-.893 1.188-1.646 1.054l-2.45-.436c-.606-.108-.894-.517-1.012-.751-.214-.425-.21-.92.009-1.359.19-.38.372-.771.541-1.17 1.811-4.258 1.316-8.49.785-11.186 1.952 2.207 4.701 6.371 4.2 11.277zm-31.432-11.278c-.531 2.696-1.025 6.928.785 11.186.169.399.351.79.541 1.17.219.439.222.935.008 1.36-.117.234-.405.643-1.011.75l-2.45.436c-.752.134-1.483-.34-1.646-1.053-.2-.883-.344-1.748-.427-2.571-.5-4.906 2.249-9.07 4.2-11.278zm-44.199 15.283c4.505 1.781 13.8 5.665 20.297 9.788 4.14 2.627 7.318 5.253 9.533 7.303v2.561l-30.826 2.056c1.196-2.589 3.366-7.886 3.42-12.386.042-3.679-1.299-7.107-2.424-9.322zm9.597 32.448c-2.367-4.221-6.156-7.169-8.81-8.855l29.043-1.937v2.181 1.009l-16.87 22.924c-.114-3.888-.719-10.607-3.363-15.322zm20.646 20.645c-.438-.255-.865-.49-1.275-.689-5.812-2.81-11.724-2.975-14.874-2.801l16.007-21.751c.281 1.02.77 1.896 1.405 2.543-.411 3.858-.476 8.117.49 11.514.689 2.42 1.838 4.764 3.371 6.994-1.859 1.207-3.577 2.614-5.124 4.19zm6.838-5.224c-1.446-2.08-2.522-4.261-3.161-6.507-.81-2.848-.814-6.454-.505-9.861.254.058.515.094.784.094.211 0 .42-.029.628-.07 1.29 5.53 4.522 10.32 8.943 13.603-2.357.645-4.598 1.574-6.689 2.741zm30.234.206c0 5.238-4.262 9.5-9.5 9.5s-9.5-4.262-9.5-9.5c0-.097.011-.2.014-.299 2.905 1.28 6.113 1.996 9.486 1.996s6.581-.716 9.486-1.996c.003.099.014.202.014.299zm13.487-16.55c.208.042.418.07.629.07.269 0 .531-.036.785-.094.309 3.406.304 7.011-.507 9.861-.639 2.246-1.715 4.428-3.16 6.507-2.091-1.167-4.332-2.096-6.691-2.741 4.422-3.283 7.655-8.073 8.944-13.603zm5.862 20.879c-.411.198-.837.434-1.276.689-1.547-1.576-3.265-2.983-5.125-4.19 1.534-2.229 2.682-4.573 3.371-6.994.967-3.397.902-7.655.491-11.513.635-.648 1.124-1.523 1.405-2.543l16.006 21.75c-3.149-.175-9.063-.009-14.872 2.801zm19.37-19.956c-2.644 4.714-3.249 11.433-3.363 15.322l-16.871-22.924v-1.009-2.181l29.043 1.937c-2.654 1.686-6.442 4.635-8.809 8.855z"/><path d="m97.686 105.072c-.553 0-1 .448-1 1v4.375c0 .552.447 1 1 1s1-.448 1-1v-4.375c0-.552-.447-1-1-1z"/><path d="m52.526 44.546c-1.249 0-2.261 1.012-2.261 2.261s1.012 2.261 2.261 2.261 2.261-1.012 2.261-2.261-1.012-2.261-2.261-2.261z"/><path d="m72.475 44.546c-1.249 0-2.261 1.012-2.261 2.261s1.012 2.261 2.261 2.261 2.261-1.012 2.261-2.261-1.013-2.261-2.261-2.261z"/><path d="m62.5 57.87c1.969 0 3.571-1.602 3.571-3.571v-1.507c0-.552-.447-1-1-1s-1 .448-1 1v1.507c0 .866-.705 1.571-1.571 1.571s-1.57-.705-1.57-1.571v-1.507c0-.552-.447-1-1-1s-1 .448-1 1v1.507c0 1.969 1.601 3.571 3.57 3.571z"/><path d="m74.904 39.321-4.428 2.229c-.494.248-.692.849-.444 1.343.176.349.528.55.895.55.151 0 .305-.034.448-.107l4.428-2.229c.494-.248.692-.849.444-1.343-.249-.493-.853-.692-1.343-.443z"/><path d="m54.524 41.55-4.428-2.229c-.492-.25-1.095-.05-1.343.443s-.05 1.095.444 1.343l4.428 2.229c.144.073.297.107.448.107.366 0 .719-.201.895-.55.249-.494.05-1.095-.444-1.343z"/><path d="m67.51 61.464h-10.019c-.553 0-1 .448-1 1s.447 1 1 1h10.019c.553 0 1-.448 1-1s-.448-1-1-1z"/></g></g></g></g></svg>