<svg id="Layer_1" enable-background="new 0 0 128 128" height="512" viewBox="0 0 128 128" width="512" xmlns="http://www.w3.org/2000/svg"><g><g><path d="m121.15 111.388c-.246-.817-1.081-.971-2.236-1.184-2.522-.465-7.218-1.331-8.493-7.677-.461-2.292-.592-4.832-.73-7.521-.353-6.824-.752-14.56-6.371-23.021-1.226-1.846-2.697-3.223-4.286-4.253.172-.209.347-.408.515-.632 4.271-5.694 2.977-13.572 1.937-19.902-.656-3.997-1.276-7.772-.084-9.245 1.646-2.035 4.188-.257 7.097 2.086 1.59 1.281 2.547 2.057 3.522 1.69.887-.332 1.468-1.085 1.636-2.123.418-2.584-1.744-6.617-4.923-9.181-3.555-2.869-7.749-3.57-11.809-1.978-6.17 2.42-6.89 9.518-7.585 16.382-.592 5.834-1.15 11.345-4.861 13.581-3.082 1.856-6.245 1.114-7.872.497 3.399-4.199 15.084-20.511 7.618-38.228-3.765-8.931-13.428-14.676-24.657-14.676-.069 0-.14 0-.209 0-11.184.071-20.402 5.7-24.057 14.689-7.035 17.302 5.466 34.445 8.655 38.408-2.035 1.428-7.583 4.721-12.218 1.956-3.015-1.799-2.228-4.478-.577-9.057 1.055-2.928 2.147-5.957 1.691-8.965-.585-3.861-2.364-7.056-5.01-8.995-2.231-1.636-4.881-2.271-7.661-1.833-3.716.582-6.701 3.441-8.129 5.712-.627.998-1.608 2.911-1.128 4.5.094.311.317.566.612.702.644.294 1.312.001 2.776-.646 1.926-.85 5.151-2.272 7.02-1.312.815.419 1.35 1.283 1.633 2.642.472 2.26-.82 4.585-2.315 7.277-2.039 3.67-4.576 8.238-3.325 14.368.957 4.691 4.508 7.799 8.269 9.82-4.78 3.566-9.445 8.735-11.326 16.003-3.836 14.821 3.29 27.569 12.312 32.502 2.934 1.604 5.665 2.222 8.003 2.222 2.271 0 4.17-.583 5.523-1.412 1.939-1.187 3.021-2.955 2.967-4.85-.018-.637-.31-1-.551-1.193-.638-.508-1.466-.343-2.515-.135-2.265.451-6.054 1.206-10.369-3.492-5.458-5.944-3.681-16.755 1.19-23.772 1.189-1.712 2.676-3.279 4.366-4.653.64 5.817 2.808 13.296 9.163 18.644 6.869 5.78 14.44 4.725 18.836 2.064 5.122-3.099 5.507-7.577 5.435-9.358-.097-2.4-1.104-4.423-2.567-5.155-.326-.163-.695-.163-1.012 0-.572.295-.662.872-.776 1.602-.108.696-.256 1.65-.737 2.441-1.259 2.076-4.065 3.684-8.167 1.971-4.091-1.708-7.364-7.216-5.705-14.441 1.368-5.955 6.177-10.063 11.412-9.779 7.168.394 16.761 9.611 17.922 20.468.907 8.495-2.72 18.833-10.36 21.429-6.037 2.055-9.002-.428-10.773-1.91-.82-.686-1.47-1.233-2.271-1.088-.304.053-.735.232-1.056.782-.957 1.637-.855 3.707.276 5.679 1.603 2.792 5.665 5.777 12.257 5.777 10.282 0 22.65-7.767 26.395-22.612 2.02-8.009-.04-15.352-2.952-21.04.852.444 1.675.975 2.443 1.629 4.244 3.615 5.696 9.774 7.101 15.73.982 4.167 1.91 8.103 3.773 10.875 2.447 3.64 5.769 4.7 8.123 4.949.445.047.889.069 1.327.069 3.188 0 6.101-1.168 7.404-2.43.568-.545.566-1.061.464-1.397z" fill="#e6e7e8"/></g><g><g><path d="m24.902 111.592c-5.997-6.531-3.692-18.108 1.106-25.019 1.641-2.364 3.731-4.371 6.048-5.994-.257-3.998.173-6.826.173-6.826s-4.286-.624-8.692-2.656c-5.138 3.495-10.315 8.758-12.299 16.426-3.83 14.797 3.595 26.875 11.823 31.374 8.229 4.499 15.13.998 15.014-3.133-.063-2.236-6.14 3.487-13.173-4.172z" fill="#6dc9f7"/></g><g><path d="m105.441 98.724c-1.628-8.101.768-18.559-6.954-30.186-1.395-2.1-3.123-3.561-4.983-4.569-6.842 7.175-16.26 3.116-16.26 3.116s3.659 3.386 6.94 8.833c1.881.606 3.755 1.495 5.423 2.916 7.562 6.443 6.714 20.351 11.055 26.809 4.646 6.91 13.206 4.482 15.33 2.427 1.797-1.739-8.497.879-10.551-9.346z" fill="#6dc9f7"/></g><g><path d="m41.398 55.268s-16.88-19.235-9.17-38.199 39.258-18.545 47.073 0c8.479 20.121-8.311 38.199-8.311 38.199s5.1 2.953 10.003 0c8.753-5.272 1.667-25.72 12.296-29.888s18.293 9.951 14.38 11.414c-1.367.511-7.502-7.846-11.045-3.47s5.002 20.006-1.876 29.176-17.506 4.585-17.506 4.585 15.608 14.412 11.254 31.677c-3.738 14.821-16.047 21.856-25.425 21.856s-13.754-6.383-11.67-9.952c1.128-1.932 3.714 6.005 13.559 2.659 8.395-2.853 11.926-14.117 11.032-22.483-1.199-11.219-11.053-20.931-18.861-21.36-5.876-.323-10.982 4.204-12.441 10.553-1.812 7.887 1.91 13.758 6.294 15.588 4.732 1.975 7.972-.01 9.407-2.375 1.047-1.725.765-3.897 1.223-3.668 2.501 1.25 3.797 8.687-2.939 12.763-4.348 2.631-11.407 3.301-17.674-1.973-11.368-9.567-8.773-26.616-8.773-26.616s-15.838-2.293-17.922-12.504 6.897-15.62 5.639-21.649c-1.692-8.109-11.741-.406-12.062-1.471-.723-2.394 3.346-8.136 8.454-8.936 5.584-.874 10.486 3.114 11.528 9.991s-7.098 14.876-.638 18.731 14.171-2.648 14.171-2.648z" fill="#d4fbff"/></g><g><g><path d="m32.229 20.069c7.711-18.964 39.258-18.545 47.073 0 1.488 3.531 2.186 6.997 2.344 10.315.205-4.204-.401-8.704-2.344-13.315-7.815-18.545-39.363-18.964-47.073 0-1.64 4.033-2.16 8.076-1.974 11.946.152-2.937.754-5.945 1.974-8.946z" fill="#fff"/></g></g><g><g fill="#fa759e"><path d="m61.823 30.995v.256c0 2.049 2.835 3.55 5.756 3.049 2.053-.353 3.491-1.609 3.491-3.049v-2.758z"/><path d="m50.575 30.995v.256c0 2.049-2.835 3.55-5.756 3.049-2.053-.353-3.491-1.609-3.491-3.049v-2.758z"/></g><g fill="#3a2c60"><path d="m103.136 78.785c-.537.127-.87.667-.742 1.204.395 1.668.689 3.441.899 5.42.055.513.488.895.993.895.035 0 .07-.002.106-.005.549-.059.947-.551.889-1.1-.219-2.064-.527-3.918-.942-5.67-.127-.539-.668-.87-1.203-.744z"/><path d="m117.15 107.388c-.246-.817-1.081-.971-2.236-1.184-2.522-.465-7.218-1.331-8.493-7.677-.46-2.29-.591-4.827-.729-7.513-.04-.772-.081-1.558-.13-2.356-.033-.551-.484-.976-1.06-.937-.551.034-.971.508-.937 1.06.049.792.089 1.571.128 2.336.143 2.761.277 5.37.767 7.804 1.472 7.323 6.994 8.664 9.72 9.181-1.387.708-3.62 1.31-6.014 1.06-2.81-.296-5.056-1.667-6.675-4.076-1.66-2.469-2.547-6.232-3.486-10.217-1.409-5.979-3.007-12.754-7.75-16.795-1.485-1.265-3.245-2.226-5.341-2.95-1.575-2.567-3.222-4.67-4.524-6.172 3.446.567 8.803.498 13.26-3.715 1.593.982 2.948 2.264 4.004 3.855 1.679 2.528 2.948 5.107 3.881 7.886.141.418.53.682.948.682.105 0 .213-.017.318-.053.523-.176.806-.743.63-1.266-.99-2.947-2.335-5.68-4.111-8.356-1.145-1.725-2.597-3.136-4.293-4.243.175-.212.352-.414.523-.641 4.271-5.694 2.977-13.572 1.937-19.901-.656-3.997-1.276-7.772-.084-9.245 1.646-2.036 4.188-.257 7.097 2.087 1.59 1.281 2.555 2.055 3.521 1.69.888-.332 1.469-1.085 1.637-2.124.419-2.583-1.743-6.616-4.921-9.18-3.557-2.868-7.751-3.569-11.81-1.978-6.17 2.42-6.89 9.518-7.585 16.382-.592 5.834-1.15 11.345-4.861 13.581-3.082 1.856-6.245 1.114-7.872.497 3.399-4.199 15.083-20.511 7.617-38.228-3.767-8.934-13.429-14.679-24.658-14.679-.069 0-.139 0-.208 0-11.184.071-20.403 5.7-24.057 14.69-7.035 17.302 5.466 34.445 8.655 38.408-2.035 1.428-7.584 4.721-12.218 1.956-3.015-1.799-2.228-4.478-.577-9.057 1.055-2.929 2.147-5.957 1.691-8.966-.585-3.861-2.364-7.056-5.01-8.995-2.231-1.634-4.879-2.271-7.662-1.833-3.715.582-6.701 3.44-8.128 5.712-.627.999-1.608 2.911-1.128 4.501.094.311.317.566.612.702.644.295 1.313 0 2.777-.646 1.927-.849 5.149-2.272 7.02-1.312.815.419 1.349 1.283 1.632 2.641.472 2.26-.82 4.585-2.315 7.277-2.039 3.67-4.576 8.238-3.325 14.368.956 4.686 4.501 7.792 8.257 9.814-5.89 4.379-9.695 9.756-11.314 16.009-3.836 14.821 3.29 27.569 12.312 32.502 2.934 1.604 5.665 2.222 8.003 2.222 2.271 0 4.169-.583 5.522-1.411 1.939-1.188 3.021-2.955 2.967-4.85-.018-.637-.31-1-.551-1.192-.638-.508-1.466-.343-2.515-.135-2.266.452-6.054 1.206-10.37-3.492-5.458-5.944-3.681-16.754 1.191-23.772 1.187-1.71 2.658-3.264 4.366-4.65.641 5.817 2.809 13.294 9.162 18.641 6.87 5.779 14.44 4.724 18.836 2.063 5.122-3.099 5.508-7.577 5.436-9.358-.097-2.4-1.104-4.423-2.567-5.154-.326-.163-.696-.164-1.012 0-.573.295-.663.873-.776 1.604-.108.696-.256 1.649-.736 2.44-1.259 2.075-4.067 3.682-8.167 1.971-4.091-1.708-7.364-7.216-5.705-14.441 1.368-5.954 6.162-10.063 11.412-9.779 7.168.394 16.761 9.612 17.922 20.468.907 8.495-2.72 18.833-10.36 21.43-6.037 2.053-9.002-.428-10.773-1.91-.82-.686-1.467-1.23-2.272-1.088-.304.053-.734.231-1.056.782-.956 1.637-.855 3.707.277 5.679 1.603 2.793 5.665 5.777 12.257 5.777 10.283 0 22.651-7.767 26.395-22.612 2.02-8.009-.04-15.352-2.952-21.04.899.47 1.713 1.007 2.443 1.629 4.244 3.616 5.696 9.775 7.101 15.732.981 4.167 1.909 8.102 3.772 10.874 2.448 3.641 5.77 4.701 8.125 4.949.445.047.888.069 1.326.069 3.188 0 6.101-1.168 7.404-2.43.567-.55.565-1.066.463-1.402zm-91.964-21.385c-5.32 7.664-7.157 19.583-1.021 26.265 5.075 5.526 9.909 4.563 12.233 4.102.211-.042.448-.089.65-.123-.144.995-.847 1.935-1.986 2.633-2.269 1.388-6.487 1.893-11.521-.86-8.343-4.562-14.915-16.415-11.335-30.246 1.576-6.089 5.433-11.3 11.434-15.512 3.08 1.349 6.012 2.029 7.484 2.314-.11 1.115-.237 3.094-.116 5.547-2.318 1.699-4.285 3.667-5.822 5.88zm62.341 12.514c-3.494 13.853-14.947 21.101-24.456 21.101-5.738 0-9.198-2.465-10.522-4.773-.664-1.157-.83-2.318-.479-3.262.162.126.347.281.512.419 1.816 1.52 5.597 4.684 12.701 2.27 8.588-2.919 12.696-14.259 11.705-23.536-1.282-11.99-11.697-21.807-19.801-22.252-6.231-.358-11.884 4.422-13.47 11.328-1.908 8.304 2.019 14.704 6.883 16.735 5.276 2.203 9.033-.12 10.647-2.779.449-.74.686-1.523.832-2.204.295.605.514 1.416.552 2.357.058 1.426-.263 5.02-4.473 7.566-3.83 2.319-10.453 3.217-16.513-1.883-10.794-9.083-8.453-25.536-8.428-25.701.04-.263-.027-.532-.186-.746s-.396-.356-.66-.394c-.151-.022-15.165-2.301-17.085-11.714-1.103-5.405 1.137-9.438 3.113-12.997 1.619-2.915 3.148-5.668 2.525-8.656-.409-1.959-1.309-3.309-2.676-4.012-2.717-1.396-6.342.203-8.741 1.261-.201.089-.42.186-.628.274.124-.524.399-1.192.868-1.939 1.204-1.916 3.692-4.322 6.744-4.8 2.243-.352 4.377.157 6.169 1.471 2.213 1.622 3.71 4.35 4.215 7.682.38 2.508-.624 5.294-1.595 7.988-1.473 4.088-3.143 8.721 1.434 11.453 6.991 4.171 14.991-2.458 15.329-2.741.206-.173.333-.422.353-.69s-.068-.532-.246-.734c-.165-.188-16.387-18.981-8.995-37.163 3.998-9.833 14.098-13.391 22.218-13.443h.196c10.421 0 19.361 5.267 22.812 13.455 8.124 19.276-7.958 36.955-8.122 37.131-.206.223-.301.528-.255.829.045.301.224.564.487.717.229.133 5.674 3.213 11.02-.009 4.568-2.751 5.204-9.025 5.819-15.092.665-6.556 1.292-12.748 6.326-14.722 4.312-1.69 7.722-.023 9.823 1.672 2.807 2.265 4.468 5.667 4.203 7.304-.043.264-.127.401-.207.477-.382-.202-1.145-.816-1.722-1.281-2.57-2.07-6.871-5.535-9.906-1.788-1.757 2.17-1.129 5.991-.335 10.828.979 5.955 2.196 13.365-1.563 18.377-6.31 8.412-15.906 4.439-16.312 4.266-.449-.191-.969-.033-1.233.375s-.197.948.16 1.278c.153.14 15.123 14.199 10.963 30.697z"/><path d="m61.368 28.282c.1 0 .201-.015.3-.046l9.702-3.049c.527-.166.819-.727.654-1.254-.166-.526-.725-.821-1.254-.654l-9.702 3.049c-.527.166-.82.727-.654 1.254.135.426.529.7.954.7z"/><path d="m72.07 31.25v-2.758c0-.312-.145-.605-.393-.794-.246-.189-.568-.255-.868-.171l-9.247 2.502c-.436.118-.739.514-.739.965v.256c0 1.017.488 1.988 1.375 2.735 1.078.909 2.626 1.411 4.238 1.411.436 0 .875-.037 1.312-.112 2.545-.436 4.322-2.095 4.322-4.034zm-2 0c0 .931-1.119 1.798-2.66 2.063-1.471.25-3.007-.085-3.923-.857-.205-.172-.435-.417-.563-.724l7.146-1.934z"/><path d="m41.028 25.186 9.702 3.049c.1.031.201.046.3.046.425 0 .819-.273.954-.701.166-.527-.127-1.088-.654-1.254l-9.702-3.049c-.524-.163-1.088.127-1.254.654-.166.528.127 1.09.654 1.255z"/><path d="m51.575 30.995c0-.452-.303-.847-.739-.965l-9.247-2.502c-.3-.082-.622-.019-.869.171-.247.189-.392.482-.392.794v2.758c0 1.938 1.777 3.598 4.322 4.034.437.075.877.112 1.312.112 1.612 0 3.16-.502 4.238-1.411.886-.747 1.375-1.718 1.375-2.735zm-2.663 1.461c-.917.773-2.457 1.108-3.922.857-1.542-.265-2.661-1.133-2.661-2.063v-1.451l7.147 1.934c-.129.305-.36.551-.564.723z"/><path d="m60.021 40.735h-7.643c-.552 0-1 .448-1 1s.448 1 1 1h7.643c.552 0 1-.448 1-1s-.448-1-1-1z"/></g></g></g></g></svg>