<svg id="Layer_1" enable-background="new 0 0 128 128" height="512" viewBox="0 0 128 128" width="512" xmlns="http://www.w3.org/2000/svg"><g><g><path d="m95.457 87.63c1.665-1.034 2.995-2.047 3.741-2.976 2.882-3.587 3.659-9.678 3.543-15.752 1.985-.551 3.432-2.824 3.432-5.627 0-3.228-1.919-5.756-4.369-5.756-.044 0-.087.008-.131.009-.382-2.438-.785-4.459-1.066-5.763 1.28-.288 2.416-.965 3.229-1.996.918-1.164 1.319-2.604 1.131-4.054-.39-2.998-3.173-5.179-6.207-4.854-.659.07-1.32.12-1.979.184l-10.898-28.678c-.733-1.929-2.611-3.224-4.674-3.224h-13.687c-2.063 0-3.941 1.295-4.673 3.224l-10.9 28.678c-.66-.064-1.321-.114-1.98-.184-3.041-.319-5.816 1.857-6.206 4.854-.188 1.45.213 2.89 1.13 4.053.814 1.032 1.949 1.709 3.23 1.997-.281 1.304-.684 3.325-1.066 5.763-.044-.002-.086-.009-.13-.009-2.45 0-4.369 2.528-4.369 5.756 0 2.803 1.447 5.076 3.432 5.627-.012.611-.012 1.222-.004 1.831-.079-.003-.158-.012-.237-.012-1.698 0-3.295.661-4.496 1.862l-.254.254-.254-.254c-1.201-1.201-2.797-1.862-4.496-1.862-1.698 0-3.294.661-4.495 1.862-1.201 1.2-1.862 2.797-1.862 4.495s.662 3.295 1.862 4.495l5.146 5.146-6.776-2.654c-3.268-1.281-6.96.338-8.238 3.6-.62 1.581-.586 3.31.094 4.865.68 1.556 1.925 2.754 3.506 3.373l.334.132-.131.335c-.619 1.581-.586 3.309.094 4.864.68 1.557 1.926 2.754 3.507 3.373.752.295 1.537.441 2.32.441.865 0 1.729-.179 2.544-.535 1.556-.681 2.754-1.926 3.374-3.508l1.364-3.483-.745 7c-3.788 1.21-6.539 4.76-6.539 8.944 0 5.177 4.212 9.389 9.39 9.389h66.553c1.654 0 3-1.346 3-3v-6.172c.001-11.127-6.083-20.856-15.094-26.053zm-45.924-2.976c.064.08.144.162.217.243l-4.652 1.822 3.486-3.486c.29.504.6.986.949 1.421z" fill="#e6e7e8"/></g><g><path d="m89.443 83.67c-7.27 4.1-19.078 8.358-19.078 8.358s-7.951-2.868-14.821-6.162c.048 2.184-1.245 4.265-3.397 5.108l-1.266.496.496 1.266c1.079 2.755-.279 5.863-3.034 6.942s-5.863-.279-6.943-3.034l-.496-1.266-.752-1.92c-3.131 4.635-4.973 10.212-4.973 16.228v6.173c0 1.105.895 2 2 2h66.373c1.105 0 2-.895 2-2v-6.173c0-11.396-6.561-21.253-16.109-26.016z" fill="#6dc9f7"/><g fill="#0089ef"><path d="m52.155 111.007h11.607v6.85h-11.607z"/><path d="m76.969 111.007h11.607v6.85h-11.607z"/></g><path d="m63.762 109.767h13.208v8.091h-13.208z" fill="#d4fbff"/><g><path d="m70.366 92.028s-2.47-.891-5.844-2.248l5.844 10.375 5.844-10.375c-3.374 1.357-5.844 2.248-5.844 2.248z" fill="#fff"/></g><g><g fill="#fff"><path d="m43.895 54.744c-.309-.132-.629-.226-.968-.226-1.861 0-3.369 2.13-3.369 4.757s1.508 4.757 3.369 4.757c.032 0 .062-.008.093-.009.114-3.261.469-6.492.875-9.279z"/><path d="m97.804 54.518c-.339 0-.66.094-.968.226.406 2.787.762 6.018.875 9.278.031.001.062.009.093.009 1.861 0 3.369-2.13 3.369-4.757 0-2.626-1.509-4.756-3.369-4.756z"/></g><path d="m45.331 46.948c-.814 3.57-5.388 25.149.983 33.08 3.765 4.687 24.052 12 24.052 12s20.287-7.313 24.052-12c6.371-7.931 1.796-29.51.983-33.08-16.645 1.74-33.425 1.74-50.07 0z" fill="#fa759e"/><path d="m47.757 47.174v12.442c0 12.486 10.122 22.608 22.608 22.608 12.486 0 22.608-10.122 22.608-22.608v-12.442c-15.039 1.418-30.176 1.418-45.216 0z" fill="#fff"/><g><path d="m99.976 41.844c-.324-2.494-2.61-4.253-5.109-3.988-.916.097-1.833.169-2.75.256l-11.169-29.39c-.59-1.553-2.078-2.579-3.739-2.579h-13.687c-1.661 0-3.149 1.026-3.739 2.579l-11.17 29.389c-.916-.086-1.834-.158-2.75-.256-2.499-.265-4.784 1.494-5.109 3.988-.325 2.492 1.53 4.787 4.146 5.065 16.929 1.8 34 1.8 50.929 0 2.617-.277 4.471-2.572 4.147-5.064z" fill="#0089ef"/></g><g><path d="m99.976 41.844c-.044-.336-.129-.655-.239-.962-.575 1.594-2.038 2.828-3.907 3.026-16.928 1.8-34 1.8-50.929 0-1.869-.198-3.332-1.433-3.907-3.026-.111.306-.195.626-.239.962-.325 2.492 1.53 4.787 4.146 5.065 16.929 1.8 34 1.8 50.929 0 2.616-.278 4.47-2.573 4.146-5.065z" fill="#fff"/></g><g><path d="m53.692 24.748-2.943 7.744h39.233l-2.943-7.744z" fill="#fa759e"/></g><path d="m61.976 24.022v9.116c0 .713.578 1.291 1.291 1.291h14.198c.713 0 1.291-.578 1.291-1.291v-9.116c0-.713-.578-1.291-1.291-1.291h-14.198c-.713 0-1.291.578-1.291 1.291zm12.907 7.179h-9.035c-.356 0-.645-.289-.645-.645v-3.953c0-.356.289-.645.645-.645h9.035c.356 0 .645.289.645.645v3.953c0 .356-.289.645-.645.645z" fill="#ffd7e5"/></g><g><g><path d="m36.999 101.078c.665 0 1.308.085 1.929.232l-1.693-15.905h-.472l-1.693 15.905c.621-.146 1.264-.232 1.929-.232z" fill="#0089ef"/></g><g fill="#0089ef"><path d="m45.537 69.29c-2.092-2.092-5.484-2.092-7.577 0l-.961.961-.961-.961c-2.092-2.092-5.484-2.092-7.577 0-2.092 2.092-2.092 5.484 0 7.577l.961.961 7.577 7.577 7.577-7.577.961-.961c2.093-2.092 2.093-5.484 0-7.577z"/><path d="m48.343 99.677c2.755-1.079 4.114-4.187 3.035-6.942l-.496-1.266 1.266-.496c2.755-1.079 4.114-4.187 3.035-6.942-1.079-2.755-4.187-4.114-6.942-3.035l-1.266.496-9.978 3.908 3.908 9.977.496 1.266c1.079 2.755 4.187 4.113 6.942 3.034z"/><path d="m25.656 99.677c-2.755-1.079-4.114-4.187-3.035-6.942l.496-1.266-1.266-.496c-2.755-1.079-4.114-4.187-3.035-6.942 1.079-2.755 4.187-4.114 6.942-3.035l1.266.496 9.977 3.908-3.908 9.977-.496 1.266c-1.078 2.755-4.186 4.113-6.941 3.034z"/></g></g><g><circle cx="36.999" cy="109.468" fill="#fff" r="8.39"/><g fill="#3a2c60"><path d="m91.443 83.639c1.671-1.037 3.007-2.054 3.755-2.985 2.883-3.589 3.66-9.68 3.544-15.753 1.984-.551 3.431-2.824 3.431-5.626 0-3.228-1.919-5.757-4.369-5.757-.043 0-.085.01-.129.012-.383-2.439-.787-4.462-1.068-5.765 1.281-.288 2.416-.965 3.23-1.997.917-1.163 1.319-2.603 1.13-4.053-.39-2.998-3.17-5.179-6.207-4.854-.655.07-1.319.123-1.978.188l-10.9-28.682c-.732-1.928-2.61-3.224-4.673-3.224h-13.686c-2.063 0-3.941 1.295-4.674 3.223l-10.899 28.677c-.659-.064-1.323-.112-1.98-.182-3.045-.318-5.816 1.857-6.206 4.854-.188 1.45.213 2.89 1.13 4.053.814 1.032 1.95 1.709 3.23 1.997-.281 1.303-.684 3.316-1.067 5.765-.043-.002-.086-.012-.129-.012-2.45 0-4.369 2.529-4.369 5.757 0 2.805 1.45 5.08 3.437 5.628-.012.612-.013 1.223-.005 1.832-1.708-.064-3.436.547-4.738 1.847l-.254.254-.254-.254c-2.479-2.479-6.513-2.479-8.991 0-2.479 2.479-2.479 6.513 0 8.991l5.146 5.147-6.776-2.654c-3.267-1.281-6.959.337-8.238 3.602-1.278 3.264.337 6.959 3.601 8.238l.334.13-.131.334c-1.278 3.264.337 6.959 3.601 8.238.759.298 1.541.438 2.311.438 2.541 0 4.946-1.534 5.927-4.04l1.364-3.483-.745 6.999c-3.788 1.21-6.539 4.76-6.539 8.944 0 5.178 4.212 9.39 9.39 9.39h66.553c1.654 0 3-1.346 3-3v-6.173c0-11.13-6.094-20.848-15.109-26.044zm4.477 5.842c-5.11 2.755-8.344 8.089-8.344 13.976v6.55h-9.606v-.24c0-.553-.448-1-1-1h-13.208c-.552 0-1 .447-1 1v.24h-9.607v-6.55c0-2.044-.411-4.011-1.135-5.836.818-1.573.984-3.475.289-5.251l-.131-.335.334-.131c1.581-.619 2.827-1.816 3.507-3.373.165-.378.291-.766.379-1.16 2.56 1.191 5.175 2.298 7.426 3.208l5.541 9.838v3.089c0 .553.448 1 1 1s1-.447 1-1v-3.089l5.54-9.836c3.812-1.541 8.674-3.646 12.522-5.769 2.386 1.246 4.57 2.82 6.493 4.669zm-47.942 9.266c-2.237.875-4.77-.231-5.647-2.469l-4.028-10.285-.003-.029 10.304-4.037c2.235-.874 4.771.231 5.647 2.469.424 1.084.401 2.269-.064 3.335-.466 1.066-1.32 1.888-2.403 2.312l-1.266.495c-.247.097-.446.288-.552.531s-.112.518-.015.765l.496 1.267c.876 2.235-.232 4.768-2.469 5.646zm-3.388-19.519c.288.506.594.991.943 1.426.064.08.146.162.219.243l-4.653 1.823zm25.775 18.889-3.588-6.37c1.818.703 3.053 1.151 3.249 1.221.109.04.224.06.339.06s.229-.02.339-.06c.196-.07 1.432-.518 3.249-1.22zm29.808-38.842c0 1.552-.641 2.931-1.508 3.488-.13-2.528-.39-4.998-.696-7.23 1.185.145 2.204 1.798 2.204 3.742zm-51.416-11.004c7.18.643 14.392.985 21.608.985 7.215 0 14.429-.342 21.608-.985v11.344c0 11.916-9.693 21.609-21.608 21.609s-21.608-9.693-21.608-21.609zm28.998-20.651h-1.227v-1.017c0-.907-.738-1.645-1.646-1.645h-9.035c-.907 0-1.646.738-1.646 1.645v3.953c0 .907.738 1.646 1.646 1.646h9.035c.907 0 1.646-.738 1.646-1.646v-.936h1.227v3.518c0 .16-.13.291-.291.291h-14.198c-.16 0-.291-.13-.291-.291v-9.116c0-.161.13-.291.291-.291h14.198c.16 0 .291.13.291.291zm-5.64 2h2.413v.582h-8.326v-3.244h8.326v.662h-2.413c-.552 0-1 .448-1 1s.448 1 1 1zm7.64 0h.217c.552 0 1-.448 1-1s-.448-1-1-1h-.217v-1.872h6.594l2.183 5.744h-8.777zm-19.037-20.543c.44-1.156 1.567-1.934 2.805-1.934h13.686c1.238 0 2.364.777 2.804 1.934l5.576 14.671h-5.862c-.137-1.133-1.093-2.017-2.263-2.017h-14.198c-1.169 0-2.126.884-2.263 2.017h-5.862zm-8.519 22.415 2.183-5.744h6.594v5.744zm-9.735 13.037c-.581-.737-.836-1.645-.717-2.557.251-1.93 2.054-3.334 4.011-3.123 8.667.922 17.477 1.356 26.197 1.299.552-.004.997-.455.993-1.007-.004-.55-.451-.993-1-.993-.002 0-.004 0-.007 0-7.291.048-14.643-.273-21.925-.916l1.422-3.741h9.573c.172 1.094 1.113 1.936 2.255 1.936h14.198c1.142 0 2.083-.842 2.255-1.936h9.573l1.426 3.752c-2.126.188-4.256.358-6.373.486-.551.033-.971.507-.938 1.059.034.552.523.988 1.059.938 3.492-.212 7.027-.507 10.506-.876 1.95-.208 3.761 1.192 4.012 3.123.119.912-.136 1.82-.717 2.557-.619.784-1.522 1.276-2.543 1.384-16.826 1.79-33.89 1.79-50.717 0-1.021-.108-1.924-.6-2.543-1.385zm-1.906 14.746c0-1.948.995-3.589 2.206-3.73-.305 2.231-.567 4.694-.697 7.22-.869-.555-1.509-1.936-1.509-3.49zm5.56-11.249c.213.021.426.038.639.059v11.53c0 13.018 10.591 23.609 23.608 23.609s23.608-10.591 23.608-23.609v-11.53c.213-.021.426-.038.639-.059 1.123 5.245 4.697 24.315-.975 31.376-2.885 3.592-17.453 9.442-23.272 11.563-3.144-1.145-8.839-3.38-13.868-5.759-.065-.521-.188-1.038-.385-1.539-1.279-3.265-4.976-4.883-8.239-3.602l-.103.04c-.269-.242-.497-.477-.679-.703-.392-.488-.723-1.053-1.029-1.648l.18-.18c2.479-2.479 2.479-6.513 0-8.991-.66-.66-1.432-1.139-2.254-1.447-.134-7.606 1.447-15.911 2.13-19.11zm-16.949 21.971c.85-.85 1.965-1.273 3.082-1.273 1.116 0 2.231.424 3.081 1.273l.961.962c.188.188.442.293.708.293.265 0 .52-.105.708-.293l.961-.962c1.7-1.699 4.464-1.698 6.163 0 1.699 1.699 1.699 4.464 0 6.163l-7.831 7.831-7.831-7.831c-1.701-1.699-1.701-4.464-.002-6.163zm2.498 26.281c-.877 2.236-3.41 3.343-5.646 2.469-2.237-.877-3.344-3.411-2.468-5.648l.496-1.266c.097-.247.091-.521-.015-.765-.106-.243-.305-.435-.552-.531l-1.265-.494c-2.237-.877-3.344-3.41-2.468-5.647.876-2.236 3.408-3.343 5.646-2.469l10.304 4.037-.003.031zm5.332-3.64.796 7.481c-.263-.022-.528-.04-.796-.04s-.533.018-.796.04zm-7.389 16.83c0-4.074 3.315-7.39 7.39-7.39s7.39 3.315 7.39 7.39-3.315 7.39-7.39 7.39-7.39-3.316-7.39-7.39zm16.779 0c0-4.184-2.752-7.734-6.539-8.944l-.414-3.887c.165-.316.346-.622.523-.931l.51 1.303c.982 2.505 3.387 4.039 5.928 4.039.77 0 1.552-.141 2.311-.438.701-.275 1.321-.667 1.858-1.137.381 1.272.589 2.61.589 3.985v7.55 5.851h-8.383c2.197-1.722 3.617-4.391 3.617-7.391zm6.766 2.539h9.607v4.851h-9.607zm11.607-1v-.24h11.208v.24 5.851h-11.208zm13.207 1h9.606v4.851h-9.606zm26.583 3.85c0 .552-.449 1-1 1h-13.976v-5.851-7.55c0-5.337 3.04-10.152 7.797-12.474 4.456 4.967 7.179 11.518 7.179 18.702z"/><path d="m75.528 40.097h.023c1.788-.04 3.576-.1 5.363-.181.552-.025.979-.493.954-1.044s-.496-.972-1.044-.954c-1.771.08-3.544.14-5.317.18-.552.012-.99.47-.977 1.022.011.544.456.977.998.977z"/><path d="m59.992 54.19c-1.249 0-2.261 1.012-2.261 2.261s1.012 2.261 2.261 2.261 2.261-1.012 2.261-2.261c0-1.248-1.012-2.261-2.261-2.261z"/><path d="m79.941 54.19c-1.249 0-2.261 1.012-2.261 2.261s1.012 2.261 2.261 2.261 2.261-1.012 2.261-2.261c0-1.248-1.013-2.261-2.261-2.261z"/><path d="m70.365 67.515c1.969 0 3.571-1.603 3.571-3.571v-1.507c0-.552-.448-1-1-1s-1 .448-1 1v1.507c0 .866-.705 1.571-1.571 1.571s-1.571-.705-1.571-1.571v-1.507c0-.552-.448-1-1-1s-1 .448-1 1v1.507c0 1.968 1.602 3.571 3.571 3.571z"/><path d="m78.22 53.073 4.427.771c.058.01.116.015.173.015.477 0 .899-.342.984-.828.095-.544-.27-1.062-.813-1.157l-4.427-.771c-.544-.088-1.062.27-1.157.813-.095.544.27 1.061.813 1.157z"/><path d="m57.113 53.859c.057 0 .115-.005.173-.015l4.427-.771c.544-.095.908-.613.813-1.157-.095-.543-.609-.902-1.157-.813l-4.427.771c-.544.095-.908.613-.813 1.157.084.485.507.828.984.828z"/><path d="m70.365 74.423c3.711 0 5.723-2.6 5.807-2.711.333-.44.247-1.067-.193-1.4-.442-.335-1.069-.247-1.401.193-.014.019-1.484 1.918-4.212 1.918-2.748 0-4.137-1.817-4.202-1.904-.325-.443-.947-.543-1.393-.221-.448.322-.549.947-.226 1.396.081.111 2.013 2.729 5.82 2.729z"/></g></g></g></g></svg>