<svg id="Layer_1" enable-background="new 0 0 128 128" height="512" viewBox="0 0 128 128" width="512" xmlns="http://www.w3.org/2000/svg"><g><g><path d="m110.571 7.5h-83.74c-3.529 0-6.401 2.872-6.401 6.401v97.545.002s0 .001 0 .002c0 3.528 2.87 6.398 6.397 6.398h.004 14.901v5.651c0 .366.2.703.521.878.322.177.713.16 1.021-.038l4.229-2.734 4.229 2.734c.165.106.354.16.543.16.164 0 .329-.04.479-.122.321-.175.521-.512.521-.878v-5.651h57.295c.553 0 1-.447 1-1v-108.348c.001-.553-.446-1-.999-1z" fill="#e6e7e8"/></g><g><g><g><path d="m22.827 102.052h10.796v-97.553h-10.792c-2.983 0-5.402 2.419-5.402 5.402v97.545.002c.002-2.98 2.418-5.396 5.398-5.396z" fill="#0089ef"/><path d="m20.429 102.637v-92.736c0-2.983 2.418-5.402 5.402-5.402h-3c-2.983 0-5.402 2.419-5.402 5.402v97.545.002c.001-2.115 1.229-3.926 3-4.811z" fill="#fff"/><g><path d="m33.624 4.499h72.947v97.552h-72.947z" fill="#ffd7e5"/></g><g fill="#fa759e"><path d="m33.624 80.17v21.882h21.882z"/><path d="m84.689 102.052h21.882v-21.882z"/><path d="m33.624 4.499v21.882l21.882-21.882z"/><path d="m84.689 4.499 21.882 21.882v-21.882z"/></g><path d="m22.827 102.052c-2.981 0-5.398 2.417-5.398 5.398s2.417 5.398 5.398 5.398h83.744v-10.796z" fill="#d4fbff"/><path d="m70.097 76.749 6.44-17.034 17.033-6.439-17.033-6.44-6.44-17.033-6.439 17.033-17.034 6.44 17.034 6.439z" fill="#0089ef"/><path d="m70.097 45.964c-2.801 0-5.071 3.273-5.071 7.312 0 4.038 2.27 7.312 5.071 7.312s5.071-3.274 5.071-7.312c0-4.039-2.27-7.312-5.071-7.312z" fill="#6dc9f7"/></g><g fill="#d4fbff"><circle cx="40.179" cy="10.862" r="2.988"/><circle cx="100.016" cy="10.862" r="2.988"/><circle cx="40.179" cy="95.497" r="2.988"/><circle cx="100.016" cy="95.497" r="2.988"/></g><g><path d="m38.733 106.775v12.724l4.771-3.084 4.772 3.084v-12.724z" fill="#0089ef"/><g fill="#3a2c60"><path d="m99.63 45c.553 0 1-.447 1-1v-9.75c0-.553-.447-1-1-1s-1 .447-1 1v9.75c0 .553.447 1 1 1z"/><path d="m106.57 3.5h-83.739c-3.53 0-6.402 2.872-6.402 6.401v97.545.002s0 .001 0 .002c0 3.528 2.87 6.398 6.398 6.398h.004 14.901v5.651c0 .366.2.703.521.878.322.177.714.16 1.021-.038l4.229-2.734 4.229 2.734c.165.106.354.16.543.16.164 0 .329-.04.479-.122.321-.175.521-.512.521-.878v-5.651h57.295c.553 0 1-.447 1-1v-108.348c0-.553-.447-1-1-1zm-50.651 97.552-4.555-4.555h37.465l-4.555 4.555zm28.356-95.552 4.94 4.94h-38.236l4.94-4.94zm-35.296 6.94h42.236l7.415 7.415v9.947c0 .553.447 1 1 1s1-.447 1-1v-7.947l4.94 4.94v52.96l-4.94 4.94v-35.945c0-.553-.447-1-1-1s-1 .447-1 1v37.946l-7.801 7.801h-41.465l-7.8-7.8v-66.843zm-9.414 72.257-4.941-4.941v-52.96l4.941-4.941zm-4.942-2.113 18.468 18.468h-18.468zm70.947 0v18.468h-18.467zm0-77.084v18.468l-18.467-18.468zm-70.947 18.468v-18.468h18.468zm-11.792-18.468h9.792v95.552h-9.796c-1.704 0-3.251.674-4.398 1.763v-92.914c0-2.427 1.974-4.401 4.402-4.401zm24.445 112.163-3.229-2.088c-.165-.106-.354-.16-.543-.16s-.378.054-.543.16l-3.229 2.088v-9.888h7.543v9.888zm-8.543-11.888c-.553 0-1 .447-1 1v5.073h-14.902c-2.427 0-4.401-1.974-4.402-4.4.001-2.425 1.973-4.396 4.398-4.396h82.743v8.797h-56.294v-5.073c0-.553-.447-1-1-1h-9.543z"/><path d="m46.271 54.211 16.612 6.279 6.278 16.612c.147.389.52.646.936.646s.788-.258.936-.646l6.279-16.612 16.612-6.279c.389-.147.646-.52.646-.936s-.258-.788-.646-.936l-16.612-6.278-6.279-16.612c-.147-.389-.52-.646-.936-.646s-.788.258-.936.646l-6.278 16.612-16.612 6.279c-.389.147-.646.52-.646.936s.257.787.646.935zm17.741-6.439c.269-.102.48-.313.582-.582l5.503-14.56 5.504 14.56c.102.269.313.48.582.582l14.56 5.503-14.56 5.504c-.269.102-.48.313-.582.582l-5.504 14.56-5.503-14.56c-.102-.269-.313-.48-.582-.582l-14.56-5.504z"/><path d="m70.097 61.588c3.404 0 6.071-3.651 6.071-8.313 0-4.583-2.724-8.312-6.071-8.312s-6.07 3.729-6.07 8.312c0 4.584 2.722 8.313 6.07 8.313zm0-14.624c2.207 0 4.071 2.891 4.071 6.312 0 3.422-1.864 6.313-4.071 6.313-2.206 0-4.07-2.891-4.07-6.313s1.864-6.312 4.07-6.312z"/><path d="m40.179 14.849c2.199 0 3.988-1.789 3.988-3.988s-1.789-3.988-3.988-3.988-3.988 1.789-3.988 3.988 1.789 3.988 3.988 3.988zm0-5.976c1.097 0 1.988.892 1.988 1.988s-.892 1.988-1.988 1.988-1.988-.892-1.988-1.988.891-1.988 1.988-1.988z"/><path d="m100.016 6.873c-2.199 0-3.988 1.789-3.988 3.988s1.789 3.988 3.988 3.988 3.988-1.789 3.988-3.988-1.789-3.988-3.988-3.988zm0 5.976c-1.097 0-1.988-.892-1.988-1.988s.892-1.988 1.988-1.988 1.988.892 1.988 1.988-.892 1.988-1.988 1.988z"/><path d="m40.179 91.509c-2.199 0-3.988 1.789-3.988 3.988s1.789 3.988 3.988 3.988 3.988-1.789 3.988-3.988-1.789-3.988-3.988-3.988zm0 5.976c-1.097 0-1.988-.892-1.988-1.988s.892-1.988 1.988-1.988 1.988.892 1.988 1.988-.891 1.988-1.988 1.988z"/><path d="m100.016 91.509c-2.199 0-3.988 1.789-3.988 3.988s1.789 3.988 3.988 3.988 3.988-1.789 3.988-3.988-1.789-3.988-3.988-3.988zm0 5.976c-1.097 0-1.988-.892-1.988-1.988s.892-1.988 1.988-1.988 1.988.892 1.988 1.988-.892 1.988-1.988 1.988z"/></g></g></g></g></g></svg>