<svg id="Layer_1" enable-background="new 0 0 128 128" height="512" viewBox="0 0 128 128" width="512" xmlns="http://www.w3.org/2000/svg"><g><g><path d="m109.925 104.303c-1.637-1.082-3.636-1.398-5.478-.873-.914.261-1.708.609-2.408 1.021 6.179-9.692 9.88-21.91 9.88-35.186s-3.701-25.493-9.88-35.186c.701.412 1.495.76 2.408 1.021.584.167 1.183.249 1.78.249 1.291 0 2.578-.382 3.697-1.122 1.688-1.115 2.799-2.886 3.048-4.861.226-1.791-.454-3.612-1.773-4.753-1.283-1.109-3.034-1.464-4.805-.975-.532.148-.844.699-.696 1.231.148.533.699.841 1.231.697 1.126-.314 2.182-.115 2.962.56.819.709 1.24 1.854 1.097 2.99-.176 1.395-.965 2.649-2.166 3.442-1.148.758-2.544.985-3.826.619-6.139-1.752-5.895-8.503-5.716-13.434l.021-.576c.127-3.704-2.206-6.565-5.673-6.957-1.816-.205-3.759.592-5.065 2.081-1.064 1.211-1.606 2.757-1.575 4.397-2.49-1.595-5.109-2.92-7.837-3.936l.962-7.982c.051-.424-.173-.833-.557-1.02-.384-.185-.843-.109-1.146.194l-5.853 5.882-5.854-5.882c-.376-.378-1.044-.376-1.418 0l-5.848 5.881-5.851-5.881c-.302-.303-.761-.379-1.146-.195-.384.186-.607.596-.557 1.02l.955 7.928c-2.725 1.002-5.343 2.311-7.833 3.89.008-1.602-.531-3.11-1.573-4.296-1.307-1.489-3.25-2.285-5.065-2.081-3.467.392-5.8 3.253-5.673 6.957l.021.576c.179 4.93.423 11.682-5.716 13.434-1.286.367-2.679.14-3.826-.619-1.201-.793-1.99-2.048-2.166-3.442-.144-1.136.277-2.281 1.097-2.99.78-.675 1.834-.875 2.962-.56.532.144 1.083-.164 1.231-.697.147-.532-.164-1.083-.696-1.231-1.769-.491-3.521-.136-4.805.975-1.319 1.141-1.999 2.962-1.773 4.753.249 1.975 1.359 3.746 3.048 4.861 1.119.739 2.406 1.122 3.697 1.122.598 0 1.197-.082 1.78-.249.817-.233 1.526-.544 2.171-.899-6.132 9.673-9.803 21.844-9.803 35.064s3.671 25.391 9.803 35.064c-.645-.355-1.354-.666-2.171-.899-1.845-.525-3.841-.209-5.478.873-1.688 1.115-2.799 2.886-3.048 4.861-.226 1.791.454 3.612 1.773 4.753 1.284 1.11 3.037 1.466 4.805.975.532-.148.844-.699.696-1.231-.148-.533-.7-.84-1.231-.697-1.128.313-2.182.114-2.962-.56-.819-.709-1.24-1.854-1.097-2.99.176-1.395.965-2.649 2.166-3.442 1.147-.758 2.543-.984 3.826-.619 6.139 1.752 5.895 8.503 5.716 13.434l-.021.576c-.127 3.704 2.206 6.565 5.673 6.957.189.021.38.032.571.032 1.645 0 3.324-.779 4.494-2.112 1.042-1.187 1.58-2.695 1.573-4.296 6.279 3.984 13.383 6.248 20.911 6.248 7.591 0 14.751-2.301 21.069-6.348-.031 1.639.511 3.185 1.575 4.397 1.17 1.334 2.85 2.113 4.494 2.112.191 0 .382-.01.571-.032 3.467-.392 5.8-3.253 5.673-6.957l-.021-.576c-.179-4.93-.423-11.682 5.716-13.434 1.286-.365 2.678-.14 3.826.619 1.201.793 1.99 2.048 2.166 3.442.144 1.136-.277 2.281-1.097 2.99-.78.674-1.836.873-2.962.56-.532-.144-1.083.164-1.231.697-.147.532.164 1.083.696 1.231 1.77.491 3.521.135 4.805-.975 1.319-1.141 1.999-2.962 1.773-4.753-.244-1.976-1.354-3.748-3.043-4.862zm-20.777-84.456c-.397-1.605-.071-3.11.918-4.237.881-1.004 2.159-1.544 3.338-1.413 2.016.228 4.004 1.832 3.899 4.901l-.021.572c-.094 2.592-.206 5.832.605 8.719-2.628-3.148-5.555-5.911-8.726-8.219.01-.105.014-.213-.013-.323zm-54.432-.176-.021-.572c-.104-3.069 1.884-4.673 3.899-4.901 1.184-.132 2.457.409 3.338 1.413.989 1.127 1.315 2.632.918 4.237-.017.069-.007.137-.009.206-3.143 2.266-6.049 4.978-8.664 8.069.734-2.82.631-5.94.539-8.452zm8.135 99.01c.397 1.605.071 3.11-.918 4.237-.881 1.004-2.153 1.545-3.338 1.413-2.016-.228-4.004-1.832-3.899-4.901l.021-.572c.091-2.512.194-5.632-.538-8.451 2.615 3.091 5.52 5.803 8.664 8.069.002.069-.009.136.008.205zm54.432.177.021.572c.104 3.069-1.884 4.673-3.899 4.901-1.18.132-2.457-.408-3.338-1.413-.989-1.127-1.315-2.632-.918-4.237.027-.109.023-.217.014-.323 3.171-2.308 6.098-5.071 8.726-8.219-.813 2.887-.7 6.128-.606 8.719z" fill="#e6e7e8"/></g><g><g><ellipse cx="61.919" cy="65.264" fill="#0089ef" rx="45" ry="55.925"/><g><path d="m70.696 114.001c-.653 0-1.254-.43-1.441-1.089-.228-.797.234-1.627 1.031-1.854.3-.086.599-.176.895-.271.794-.252 1.633.183 1.886.972.252.789-.183 1.633-.972 1.886-.327.104-.655.204-.986.298-.139.039-.278.058-.413.058zm-18.414-.259c-.149 0-.301-.022-.451-.07-.327-.104-.652-.212-.976-.325-.782-.273-1.194-1.129-.921-1.911.273-.781 1.129-1.193 1.911-.921.294.103.59.202.888.295.79.25 1.229 1.092.979 1.882-.202.641-.793 1.05-1.43 1.05zm27.345-3.781c-.495 0-.98-.246-1.267-.695-.444-.699-.238-1.626.461-2.071.266-.169.529-.341.791-.518.688-.46 1.619-.279 2.082.408.462.688.279 1.62-.408 2.082-.283.19-.568.376-.855.559-.249.16-.528.235-.804.235zm-36.17-.491c-.287 0-.576-.082-.833-.253-.283-.189-.564-.383-.844-.581-.676-.479-.836-1.415-.357-2.091.479-.677 1.414-.836 2.092-.357.256.182.516.36.777.535.688.46.873 1.392.413 2.081-.289.432-.764.666-1.248.666zm43.721-5.775c-.37 0-.74-.136-1.03-.41-.602-.569-.629-1.518-.061-2.12.218-.23.433-.463.646-.699.557-.615 1.505-.661 2.118-.107.614.556.662 1.504.106 2.119-.228.252-.458.501-.689.747-.295.312-.691.47-1.09.47zm-51.128-.659c-.408 0-.814-.166-1.111-.492-.228-.251-.453-.505-.676-.763-.542-.627-.473-1.574.154-2.116.625-.542 1.572-.473 2.115.154.207.239.417.476.629.709.557.613.51 1.562-.104 2.119-.286.26-.646.389-1.007.389zm57.058-7.169c-.264 0-.531-.069-.773-.215-.709-.428-.938-1.35-.51-2.059.164-.273.327-.548.487-.825.416-.718 1.337-.959 2.05-.545.717.416.961 1.333.546 2.05-.17.292-.341.582-.515.869-.281.467-.777.725-1.285.725zm-62.836-.773c-.518 0-1.021-.269-1.299-.749-.168-.291-.335-.583-.499-.878-.403-.724-.143-1.637.581-2.041.721-.402 1.637-.144 2.04.581.156.28.313.558.474.834.415.717.171 1.635-.546 2.05-.237.137-.495.203-.751.203zm67.092-8.083c-.174 0-.351-.03-.523-.095-.776-.289-1.171-1.152-.883-1.929.111-.298.219-.597.324-.898.273-.782 1.128-1.192 1.911-.921.782.273 1.194 1.129.921 1.911-.111.319-.227.637-.344.954-.226.605-.798.978-1.406.978zm-71.195-.846c-.619 0-1.198-.386-1.415-1.003-.111-.317-.221-.636-.327-.956-.261-.786.165-1.635.951-1.896.789-.262 1.635.165 1.896.952.101.304.204.606.31.906.274.782-.137 1.638-.918 1.912-.164.058-.332.085-.497.085zm73.786-8.634c-.089 0-.18-.008-.271-.025-.814-.148-1.355-.929-1.207-1.744.057-.314.112-.63.165-.946.135-.818.911-1.369 1.725-1.235.817.136 1.37.908 1.234 1.725-.055.332-.112.663-.173.993-.131.724-.762 1.232-1.473 1.232zm-76.227-.887c-.72 0-1.355-.52-1.478-1.254-.055-.33-.107-.662-.157-.995-.123-.819.441-1.583 1.261-1.707.815-.124 1.582.441 1.706 1.26.048.317.097.633.149.949.136.817-.416 1.59-1.233 1.726-.083.015-.166.021-.248.021zm76.519-18.871c-.729 0-1.37-.534-1.481-1.277-.048-.316-.098-.63-.15-.944-.139-.817.411-1.591 1.228-1.729.82-.136 1.592.412 1.729 1.229.057.332.11.665.16 1 .123.819-.441 1.583-1.261 1.706-.075.01-.15.015-.225.015zm-76.543-.721c-.08 0-.161-.006-.243-.02-.817-.133-1.372-.904-1.239-1.721.054-.333.111-.666.172-.998.148-.814.929-1.358 1.744-1.207.814.148 1.355.929 1.207 1.744-.057.313-.11.627-.162.942-.12.737-.756 1.26-1.479 1.26zm74.256-8.836c-.629 0-1.215-.398-1.424-1.028-.101-.302-.203-.603-.31-.902-.276-.781.132-1.638.913-1.915.783-.276 1.638.132 1.915.913.112.318.223.638.329.959.261.786-.165 1.635-.951 1.896-.156.052-.315.077-.472.077zm-71.846-.692c-.164 0-.331-.027-.494-.084-.782-.273-1.195-1.128-.922-1.91.111-.319.225-.635.341-.951.285-.776 1.146-1.177 1.926-.889.777.287 1.176 1.148.889 1.926-.11.299-.218.6-.323.902-.217.619-.797 1.006-1.417 1.006zm67.899-8.306c-.525 0-1.036-.277-1.311-.77-.156-.279-.313-.556-.474-.83-.417-.715-.176-1.634.54-2.052.714-.417 1.634-.177 2.052.539.17.292.337.585.501.88.404.724.145 1.637-.579 2.041-.231.131-.481.192-.729.192zm-63.828-.636c-.255 0-.512-.065-.748-.201-.718-.414-.964-1.331-.551-2.049.169-.292.34-.582.512-.87.426-.711 1.347-.94 2.059-.516.71.426.941 1.347.516 2.058-.164.273-.327.548-.486.826-.28.483-.784.752-1.302.752zm58.203-7.416c-.419 0-.836-.174-1.133-.516-.208-.239-.418-.476-.631-.709-.559-.612-.515-1.561.098-2.119.611-.557 1.56-.515 2.119.099.229.25.454.504.678.761.544.625.478 1.572-.147 2.116-.285.247-.635.368-.984.368zm-52.453-.547c-.357 0-.716-.127-1.003-.385-.615-.554-.665-1.502-.111-2.118.228-.253.458-.502.69-.749.568-.603 1.518-.631 2.121-.063s.631 1.518.063 2.12c-.217.23-.432.463-.644.698-.297.33-.705.497-1.116.497zm45.184-6.051c-.299 0-.6-.088-.862-.273-.258-.182-.519-.36-.78-.535-.689-.459-.876-1.391-.416-2.08.46-.69 1.392-.875 2.08-.416.283.188.563.381.843.578.678.477.84 1.412.363 2.09-.292.415-.756.636-1.228.636zm-37.799-.415c-.481 0-.954-.231-1.244-.66-.464-.687-.283-1.619.403-2.083.283-.191.568-.379.855-.562.697-.445 1.625-.242 2.071.457.445.698.24 1.626-.458 2.071-.264.169-.527.342-.789.519-.257.175-.549.258-.838.258z" fill="#fff"/></g><path d="m61.92 23.764c3.636 0 7.129.774 10.393 2.181l2.807-23.296-6.562 6.594-6.562-6.594-6.557 6.594-6.559-6.594 2.799 23.23c3.221-1.365 6.661-2.115 10.241-2.115z" fill="#ffd7e5"/><g><path d="m56.647 11.028 4.141-4.164c.666-.67 1.75-.67 2.416 0l4.145 4.165c.666.669 1.75.669 2.416 0l4.942-4.966.411-3.413-6.562 6.594-6.562-6.594-6.557 6.594-6.557-6.595.411 3.413 4.94 4.965c.666.671 1.75.671 2.416.001z" fill="#fff"/></g><ellipse cx="61.92" cy="65.264" fill="#d4fbff" rx="32.5" ry="41.5"/><g><path d="m30.104 73.763c1.001 6.142 3.068 11.783 5.938 16.602l49.658-53.374c-3.259-4.467-7.28-8.011-11.799-10.302z" fill="#fff"/></g><g><path d="m70.286 77.289c3.22-2.125 5.587-5.438 6.475-9.311.198.059.399.097.602.097 1.581 0 2.819-1.631 2.819-3.714 0-.506-.074-.985-.208-1.421v-6.414c0-9.955-8.099-18.054-18.055-18.054-9.955 0-18.054 8.099-18.054 18.054v6.412c-.134.437-.209.916-.209 1.424 0 2.083 1.238 3.714 2.819 3.714.203 0 .404-.039.602-.097.889 3.872 3.255 7.186 6.475 9.311-8.057 1.946-14.069 9.094-14.311 17.689 5.856 7.289 13.854 11.786 22.677 11.786s16.821-4.497 22.677-11.786c-.24-8.596-6.252-15.744-14.309-17.69z" fill="#6dc9f7"/></g><g><path d="m70.286 77.289c3.22-2.125 5.587-5.438 6.475-9.311.198.059.399.097.602.097 1.581 0 2.819-1.631 2.819-3.714 0-.506-.074-.985-.208-1.421v-6.414c0-9.955-8.099-18.054-18.055-18.054-9.955 0-18.054 8.099-18.054 18.054v6.412c-.134.437-.209.916-.209 1.424 0 2.083 1.238 3.714 2.819 3.714.203 0 .404-.039.602-.097.889 3.872 3.255 7.186 6.475 9.311-8.057 1.946-14.069 9.094-14.311 17.689 5.856 7.289 13.854 11.786 22.677 11.786s16.821-4.497 22.677-11.786c-.24-8.596-6.252-15.744-14.309-17.69z" fill="#6dc9f7"/></g><g><path d="m89.967 44.307-10.064 10.817c.036.464.071.928.071 1.401v6.414c.134.436.208.915.208 1.421 0 2.083-1.238 3.714-2.819 3.714-.203 0-.404-.038-.602-.097-.889 3.873-3.255 7.186-6.475 9.311.725.175 1.427.407 2.117.663l21.068-22.645c-.755-3.914-1.947-7.609-3.504-10.999z" fill="#fff"/></g><g><path d="m48.859 103.259 23.544-25.306c-.69-.257-1.392-.488-2.117-.663 3.22-2.125 5.587-5.438 6.475-9.311.198.059.399.097.602.097 1.581 0 2.819-1.631 2.819-3.714 0-.506-.074-.985-.208-1.421v-6.414c0-.473-.035-.937-.071-1.401l-38.931 41.843c2.365 2.551 5.016 4.677 7.887 6.29z" fill="#d4fbff"/></g><g><path d="m29.53 61.981 35.385-38.034c-.987-.115-1.985-.182-2.996-.182-1.135 0-2.257.076-3.362.221l-27.913 30.002c-.568 2.572-.945 5.244-1.114 7.993z" fill="#fff"/></g><g><path d="m62.893 38.521-19.028 20.451v3.966c-.134.437-.209.916-.209 1.424 0 2.083 1.238 3.714 2.819 3.714.203 0 .404-.039.602-.097.586 2.554 1.825 4.856 3.519 6.743l26.3-28.268c-3.075-4.558-8.18-7.62-14.003-7.933z" fill="#d4fbff"/></g></g><g fill="#fa759e"><path d="m62 13.593c-1.751 0-3.171 1.42-3.171 3.171s1.42 3.171 3.171 3.171 3.171-1.42 3.171-3.171-1.42-3.171-3.171-3.171z"/><path d="m62 110.593c-1.751 0-3.171 1.42-3.171 3.171s1.42 3.171 3.171 3.171 3.171-1.42 3.171-3.171-1.42-3.171-3.171-3.171z"/></g><g fill="#6dc9f7"><path d="m23.5 62.093c-1.751 0-3.171 1.42-3.171 3.171s1.42 3.171 3.171 3.171 3.171-1.42 3.171-3.171-1.42-3.171-3.171-3.171z"/><path d="m100.5 62.093c-1.751 0-3.171 1.42-3.171 3.171s1.42 3.171 3.171 3.171 3.171-1.42 3.171-3.171-1.42-3.171-3.171-3.171z"/></g><g fill="#3a2c60"><path d="m91.288 84.06c.405 0 .787-.249.938-.651.748-2.011 1.377-4.117 1.867-6.259.123-.538-.213-1.075-.751-1.198-.536-.126-1.075.213-1.198.751-.472 2.057-1.074 4.079-1.793 6.007-.192.518.071 1.094.589 1.286.114.044.232.064.348.064z"/><path d="m61.999 20.936c2.301 0 4.172-1.871 4.172-4.171s-1.871-4.171-4.172-4.171c-2.3 0-4.171 1.871-4.171 4.171s1.872 4.171 4.171 4.171zm0-6.343c1.197 0 2.172.974 2.172 2.171s-.975 2.171-2.172 2.171-2.171-.974-2.171-2.171.974-2.171 2.171-2.171z"/><path d="m61.999 109.593c-2.3 0-4.171 1.871-4.171 4.171s1.871 4.171 4.171 4.171c2.301 0 4.172-1.871 4.172-4.171s-1.871-4.171-4.172-4.171zm0 6.343c-1.197 0-2.171-.974-2.171-2.171s.974-2.171 2.171-2.171 2.172.974 2.172 2.171-.974 2.171-2.172 2.171z"/><path d="m23.499 61.093c-2.3 0-4.171 1.871-4.171 4.171s1.871 4.171 4.171 4.171c2.301 0 4.172-1.871 4.172-4.171s-1.871-4.171-4.172-4.171zm0 6.343c-1.197 0-2.171-.974-2.171-2.171s.974-2.171 2.171-2.171 2.172.974 2.172 2.171-.974 2.171-2.172 2.171z"/><path d="m100.499 69.436c2.301 0 4.172-1.871 4.172-4.171s-1.871-4.171-4.172-4.171c-2.3 0-4.171 1.871-4.171 4.171s1.872 4.171 4.171 4.171zm0-6.343c1.197 0 2.172.974 2.172 2.171s-.975 2.171-2.172 2.171-2.171-.974-2.171-2.171.974-2.171 2.171-2.171z"/><path d="m105.927 100.303c-1.639-1.082-3.636-1.401-5.479-.874-.914.261-1.708.609-2.409 1.021 6.179-9.692 9.88-21.91 9.88-35.186 0-13.277-3.698-25.497-9.88-35.186.701.412 1.495.76 2.409 1.021.583.167 1.182.249 1.78.249 1.291 0 2.578-.382 3.697-1.122 1.688-1.115 2.799-2.887 3.047-4.861.226-1.791-.453-3.613-1.773-4.753-1.284-1.111-3.037-1.466-4.804-.975-.532.148-.844.699-.696 1.231.148.533.699.841 1.231.697 1.126-.314 2.18-.115 2.961.56.819.709 1.24 1.855 1.097 2.991-.176 1.395-.965 2.649-2.165 3.442-1.149.759-2.547.984-3.826.619-6.138-1.751-5.895-8.502-5.717-13.431l.021-.578c.127-3.704-2.206-6.564-5.672-6.957-1.815-.205-3.758.591-5.065 2.081-1.064 1.212-1.606 2.758-1.575 4.399-2.489-1.594-5.113-2.906-7.84-3.922l.964-7.999c.051-.424-.173-.833-.557-1.02-.384-.185-.843-.109-1.146.194l-5.853 5.882-5.853-5.882c-.376-.378-1.044-.377-1.418 0l-5.849 5.881-5.85-5.881c-.302-.303-.76-.379-1.146-.195-.384.186-.607.596-.557 1.02l.957 7.94c-2.724 1.002-5.347 2.298-7.835 3.876.007-1.601-.531-3.109-1.573-4.295-1.303-1.488-3.243-2.285-5.063-2.08-3.467.393-5.8 3.253-5.672 6.957l.021.578c.178 4.929.421 11.68-5.717 13.431-1.282.366-2.677.141-3.826-.619-1.2-.793-1.989-2.047-2.165-3.442-.144-1.136.277-2.282 1.097-2.991.78-.675 1.834-.874 2.961-.56.533.144 1.084-.164 1.231-.697.147-.532-.164-1.083-.696-1.231-1.77-.492-3.521-.136-4.804.975-1.32 1.141-1.999 2.962-1.773 4.753.248 1.974 1.358 3.746 3.047 4.861 1.119.739 2.406 1.122 3.697 1.122.598 0 1.197-.082 1.78-.249.814-.232 1.521-.542 2.164-.896-6.132 9.669-9.796 21.842-9.796 35.061s3.67 25.39 9.802 35.063c-.645-.355-1.354-.666-2.171-.899-1.844-.528-3.841-.208-5.479.874-1.688 1.115-2.798 2.886-3.046 4.86-.226 1.792.454 3.613 1.773 4.754 1.283 1.11 3.033 1.466 4.804.975.532-.148.844-.699.696-1.231-.148-.533-.699-.843-1.231-.697-1.127.313-2.181.115-2.961-.56-.819-.709-1.24-1.855-1.097-2.991.176-1.394.964-2.648 2.164-3.441 1.151-.76 2.548-.984 3.827-.62 6.138 1.752 5.895 8.502 5.717 13.432l-.021.578c-.128 3.704 2.205 6.565 5.672 6.957.189.021.38.032.572.032 1.644 0 3.323-.779 4.493-2.112 1.041-1.187 1.58-2.695 1.573-4.296 6.279 3.984 13.383 6.248 20.911 6.248 7.591 0 14.752-2.301 21.069-6.348-.031 1.64.511 3.186 1.575 4.397 1.171 1.333 2.85 2.112 4.493 2.112.191 0 .383-.011.572-.032 3.466-.392 5.799-3.252 5.672-6.957l-.021-.578c-.178-4.929-.421-11.68 5.717-13.432 1.281-.365 2.677-.14 3.827.62 1.2.793 1.988 2.047 2.164 3.441.144 1.136-.277 2.282-1.097 2.991-.781.674-1.835.872-2.961.56-.532-.146-1.083.164-1.231.697-.147.532.164 1.083.696 1.231 1.771.491 3.521.134 4.804-.975 1.319-1.141 1.999-2.962 1.773-4.754-.244-1.973-1.354-3.744-3.042-4.859zm-20.779-84.455c-.397-1.605-.071-3.11.919-4.237.881-1.004 2.156-1.545 3.338-1.413 2.016.228 4.003 1.833 3.898 4.901l-.021.575c-.094 2.595-.206 5.84.609 8.73-2.628-3.148-5.557-5.911-8.729-8.219.011-.111.014-.224-.014-.337zm-30.418-5.9c.375.378 1.043.378 1.418 0l5.849-5.881 5.853 5.881c.375.377 1.043.377 1.418 0l4.512-4.535-2.304 19.122c-3.03-1.146-6.236-1.771-9.556-1.771-3.264 0-6.417.606-9.401 1.716l-2.298-19.065zm-24.013 5.726-.021-.575c-.105-3.069 1.882-4.673 3.898-4.901 1.182-.133 2.457.409 3.338 1.413.989 1.127 1.315 2.632.918 4.237-.018.073-.008.143-.009.215-3.143 2.265-6.05 4.974-8.664 8.062.734-2.819.631-5.939.54-8.451zm8.134 99.008c.397 1.605.071 3.11-.918 4.237-.882 1.004-2.163 1.541-3.338 1.412-2.017-.228-4.004-1.832-3.898-4.901l.021-.575c.091-2.511.193-5.63-.539-8.448 2.615 3.09 5.52 5.803 8.663 8.069.002.069-.008.136.009.206zm-20.932-49.417c0-24.713 13.151-45.641 31.17-52.515l1.508 12.518c-12.917 5.903-22.179 21.601-22.179 39.997 0 23.435 15.028 42.5 33.5 42.5 11.806 0 22.515-7.642 28.646-20.442.238-.498.027-1.095-.471-1.334-.496-.24-1.096-.028-1.334.47-5.791 12.089-15.825 19.307-26.842 19.307-17.369 0-31.5-18.168-31.5-40.5s14.131-40.5 31.5-40.5 31.5 18.168 31.5 40.5c0 2.555-.187 5.114-.555 7.604-.081.546.297 1.055.843 1.135.546.078 1.055-.296 1.136-.843.382-2.586.576-5.243.576-7.896 0-18.323-9.188-33.975-22.026-39.931l1.509-12.525c17.94 6.934 31.016 27.813 31.016 52.455 0 30.286-19.738 54.925-44 54.925s-43.997-24.64-43.997-54.925zm75.364 49.59.021.575c.104 3.069-1.883 4.673-3.898 4.901-1.174.129-2.456-.408-3.338-1.412-.99-1.127-1.316-2.632-.919-4.237.027-.109.023-.217.014-.323 3.172-2.308 6.099-5.072 8.727-8.221-.813 2.886-.701 6.126-.607 8.717z"/></g></g></g></svg>