<svg id="Layer_1" enable-background="new 0 0 128 128" height="512" viewBox="0 0 128 128" width="512" xmlns="http://www.w3.org/2000/svg"><g><g><g><path d="m91.495 93.116c-1.309-2.188-3.234-5.631-5.156-9.867 3.63-4.291 12.703-16.479 6.915-25.161-1.889-2.834-4.409-4.511-7.49-4.984-2.594-.392-5.162.197-7.328 1.048-.254-1.883-.444-3.57-.586-4.983h2.306c2.481 0 4.5-2.019 4.5-4.5s-2.019-4.5-4.5-4.5h-28.31c-2.481 0-4.5 2.019-4.5 4.5s2.019 4.5 4.5 4.5h2.306c-.142 1.412-.332 3.098-.585 4.979-2.166-.851-4.735-1.44-7.33-1.043-3.08.472-5.6 2.149-7.49 4.984-5.788 8.682 3.284 20.87 6.914 25.161-1.922 4.236-3.847 7.679-5.156 9.868-1.41 2.356-2.249 4.785-2.495 7.217-.446 4.418.321 8.875 2.218 12.89 3.334 7.052 10.648 11.609 18.634 11.609h14.276c7.986 0 15.3-4.557 18.634-11.609 1.897-4.015 2.665-8.472 2.218-12.89-.246-2.433-1.085-4.861-2.495-7.219zm-41.502-21.462c-.453 1.565-.955 3.086-1.481 4.562-3.224-4.482-6.691-10.903-4.302-14.486.847-1.271 1.807-1.95 3.022-2.136 1.762-.271 3.74.457 5.273 1.248-.632 3.447-1.452 7.153-2.512 10.812zm32.013 0c-1.06-3.658-1.88-7.365-2.512-10.813 1.533-.791 3.511-1.519 5.273-1.248 1.215.187 2.176.866 3.022 2.136 2.389 3.583-1.079 10.005-4.302 14.487-.526-1.475-1.027-2.997-1.481-4.562z" fill="#e6e7e8"/></g><g><path d="m65.451 18.244c1.077.731 2.512.768 3.661.093 1.101-.647 1.689-1.789 1.576-3.052-.049-.549-.518-.945-1.086-.906-.55.05-.956.536-.906 1.086.06.658-.349 1.002-.598 1.148-.484.286-1.082.276-1.521-.023-.854-.581-1.515-2.045-1.473-3.264.051-1.484.487-2.427 1.458-3.154 1.238-.925 2.861-1.231 4.447-.839 1.654.408 3.008 1.491 3.716 2.973 2.117 4.43-.768 7.41-3.821 10.564-1.639 1.693-3.333 3.443-4.171 5.429-1.055 2.5-1.173 5.613-.351 9.251.105.464.518.779.975.779.073 0 .147-.008.222-.024.539-.122.876-.657.755-1.196-.729-3.222-.647-5.924.243-8.032.692-1.642 2.185-3.183 3.765-4.815 3.237-3.343 6.905-7.132 4.189-12.817-.967-2.024-2.805-3.501-5.042-4.053-2.172-.536-4.404-.106-6.123 1.179-1.469 1.1-2.188 2.589-2.26 4.687-.059 1.646.729 3.888 2.345 4.986z" fill="#e6e7e8"/></g><g><path d="m57.808 30.503c1.02.79 1.982 1.535 2.479 2.361.645 1.071.898 2.547.751 4.386-.043.551.367 1.033.917 1.077.027.002.054.003.081.003.516 0 .954-.397.996-.92.18-2.264-.167-4.14-1.031-5.576-.69-1.147-1.849-2.044-2.969-2.911-2.307-1.787-3.684-3.001-2.95-5.35.25-.798.856-1.443 1.665-1.77.772-.313 1.607-.278 2.291.095.508.277.768.688.898 1.415.1.559-.112 1.322-.453 1.633-.127.116-.315.115-.442.063-.175-.072-.182-.199-.185-.253-.029-.552-.513-.979-1.051-.946-.552.029-.975.5-.946 1.051.047.892.592 1.658 1.423 1.999.868.356 1.869.184 2.55-.436.955-.873 1.263-2.402 1.073-3.463-.237-1.324-.861-2.246-1.909-2.818-1.211-.661-2.669-.731-3.999-.194-1.365.552-2.395 1.656-2.824 3.028-1.186 3.793 1.487 5.863 3.635 7.526z" fill="#e6e7e8"/></g></g><g><path d="m88.995 96.435c-.244-2.415-1.112-4.722-2.358-6.805-2.302-3.848-6.798-12.059-9.59-21.697-2.695-9.299-3.848-18.814-4.302-23.765h3.41c1.933 0 3.501-1.567 3.501-3.501s-1.567-3.501-3.501-3.501h-28.31c-1.933 0-3.501 1.567-3.501 3.501s1.567 3.501 3.501 3.501h3.41c-.454 4.951-1.607 14.466-4.302 23.765-2.793 9.638-7.289 17.849-9.59 21.697-1.246 2.083-2.114 4.39-2.358 6.805-.425 4.21.295 8.486 2.127 12.362 3.218 6.807 10.2 11.037 17.73 11.037h14.276c7.529 0 14.512-4.229 17.73-11.037 1.832-3.876 2.552-8.153 2.127-12.362z" fill="#d4fbff"/><g><g><path d="m74.38 56.312c1.729-.977 4.252-2.057 6.539-1.707 1.491.229 2.703 1.069 3.703 2.57 3 4.499-1.763 12.412-5.432 17.119.64 1.677 1.307 3.278 1.979 4.783 3.173-3.647 12.888-15.981 7.252-24.435-1.727-2.591-4.018-4.122-6.809-4.55-2.877-.439-5.752.439-7.992 1.487.213 1.488.465 3.077.76 4.733z" fill="#d4fbff"/></g><g><path d="m44.81 74.295c-3.669-4.707-8.432-12.62-5.432-17.119 1-1.5 2.212-2.341 3.703-2.57 2.287-.35 4.81.73 6.539 1.707.295-1.656.547-3.245.761-4.733-2.241-1.048-5.115-1.926-7.993-1.487-2.791.429-5.082 1.959-6.809 4.55-5.636 8.454 4.079 20.788 7.252 24.435.672-1.506 1.339-3.106 1.979-4.783z" fill="#d4fbff"/></g></g><g><path d="m82.758 90.509c-1.926-3.219-5.686-10.088-8.023-18.15-1.231-4.247-2.077-8.548-2.653-12.254h-20.164c-.577 3.705-1.423 8.006-2.653 12.254-2.336 8.062-6.097 14.931-8.023 18.15-1.042 1.742-1.769 3.672-1.973 5.692-.356 3.522.247 7.099 1.78 10.341 2.692 5.694 8.533 9.232 14.831 9.232h12.24c6.298 0 12.139-3.538 14.831-9.232 1.533-3.242 2.135-6.82 1.78-10.341-.204-2.02-.931-3.95-1.973-5.692z" fill="#fa759e"/></g><g fill="#ffd7e5"><path d="m50.984 96.889c-2.112 0-3.824 1.712-3.824 3.824s1.712 3.824 3.824 3.824 3.824-1.712 3.824-3.824-1.712-3.824-3.824-3.824z"/><path d="m72.226 100.122c-1.974 0-3.574 1.6-3.574 3.574s1.6 3.574 3.574 3.574 3.574-1.6 3.574-3.574c0-1.973-1.6-3.574-3.574-3.574z"/><circle cx="68.417" cy="87.104" r="2.786"/><path d="m64.733 66.803c-1.042 0-1.888.845-1.888 1.888s.845 1.888 1.888 1.888c1.042 0 1.888-.845 1.888-1.888-.001-1.043-.846-1.888-1.888-1.888z"/><path d="m57.776 75.581c-1.639 0-2.968 1.329-2.968 2.968s1.329 2.968 2.968 2.968 2.968-1.329 2.968-2.968-1.329-2.968-2.968-2.968z"/></g><g><path d="m47.845 40.167h28.309c1.394 0 2.588.821 3.151 2.001.218-.456.35-.961.35-1.5 0-1.933-1.567-3.501-3.501-3.501h-28.309c-1.933 0-3.501 1.567-3.501 3.501 0 .539.132 1.044.35 1.5.563-1.18 1.757-2.001 3.151-2.001z" fill="#fff"/></g><g fill="#3a2c60"><path d="m87.495 89.117c-1.309-2.188-3.234-5.632-5.156-9.868 3.601-4.253 12.709-16.469 6.914-25.161-1.89-2.834-4.41-4.511-7.491-4.985-2.255-.344-4.716.008-7.332 1.04-.254-1.887-.445-3.573-.585-4.975h2.309c2.482 0 4.501-2.019 4.501-4.5 0-2.482-2.019-4.501-4.501-4.501h-28.309c-2.482 0-4.501 2.019-4.501 4.501 0 2.481 2.019 4.5 4.501 4.5h2.31c-.14 1.402-.331 3.089-.585 4.976-2.615-1.032-5.076-1.384-7.334-1.04-3.08.473-5.6 2.15-7.489 4.984-5.796 8.693 3.313 20.909 6.914 25.161-1.922 4.236-3.847 7.679-5.156 9.868-1.41 2.356-2.249 4.785-2.495 7.217-.446 4.418.321 8.875 2.218 12.89 3.334 7.052 10.648 11.609 18.634 11.609h14.276c7.986 0 15.3-4.557 18.634-11.609 1.897-4.015 2.665-8.472 2.218-12.89-.246-2.431-1.085-4.86-2.495-7.217zm-6.035-38.037c2.502.384 4.564 1.77 6.129 4.117 4.742 7.113-2.494 17.518-6.149 22.005-.378-.887-.753-1.798-1.118-2.739 2.985-3.921 8.647-12.571 5.133-17.843-1.149-1.724-2.624-2.734-4.384-3.003-2.045-.313-4.201.366-5.935 1.184-.151-.897-.289-1.768-.414-2.611 2.449-1.039 4.714-1.416 6.738-1.11zm-3.454 16.574c-1.062-3.667-1.88-7.368-2.512-10.808 1.53-.787 3.515-1.522 5.273-1.253 1.214.187 2.175.865 3.022 2.136 2.183 3.274-.625 9.379-4.301 14.49-.526-1.476-1.028-2.998-1.482-4.565zm-33.496 4.567c-2.56-3.564-6.887-10.611-4.3-14.491.847-1.271 1.808-1.95 3.022-2.136 1.755-.268 3.743.466 5.274 1.253-.632 3.439-1.45 7.14-2.512 10.808-.455 1.566-.956 3.089-1.484 4.566zm-8.099-17.024c1.565-2.348 3.627-3.733 6.128-4.117 2.025-.308 4.29.07 6.741 1.109-.126.843-.263 1.714-.414 2.611-1.735-.819-3.892-1.497-5.936-1.184-1.76.27-3.235 1.28-4.383 3.003-3.514 5.271 2.148 13.922 5.132 17.843-.365.94-.74 1.852-1.118 2.739-3.657-4.486-10.893-14.889-6.15-22.004zm49.552 53.173c-3.004 6.356-9.609 10.464-16.825 10.464h-14.276c-7.216 0-13.821-4.107-16.825-10.464-1.742-3.686-2.447-7.778-2.037-11.834.216-2.139.963-4.289 2.222-6.392 2.417-4.041 6.891-12.264 9.692-21.932 2.567-8.859 3.746-17.918 4.25-23.043h4.206c.552 0 1-.448 1-1s-.448-1-1-1h-8.525c-1.379 0-2.501-1.122-2.501-2.5s1.122-2.501 2.501-2.501h28.309c1.379 0 2.501 1.122 2.501 2.501s-1.122 2.5-2.501 2.5h-9.159c-.552 0-1 .448-1 1s.448 1 1 1h4.84c.505 5.126 1.684 14.187 4.25 23.043 2.802 9.67 7.275 17.892 9.692 21.932 1.259 2.104 2.006 4.254 2.222 6.392.411 4.055-.294 8.148-2.036 11.834z"/><path d="m63.808 43.168h-4.25c-.552 0-1 .448-1 1s.448 1 1 1h4.25c.552 0 1-.448 1-1s-.448-1-1-1z"/><path d="m61.45 14.244c1.076.731 2.512.768 3.662.093 1.1-.647 1.689-1.789 1.575-3.052-.05-.549-.529-.95-1.086-.906-.55.05-.956.536-.906 1.086.06.658-.349 1.002-.597 1.148-.485.286-1.082.276-1.522-.023-.854-.581-1.515-2.045-1.473-3.264.051-1.483.487-2.427 1.458-3.154 1.237-.925 2.857-1.231 4.446-.839 1.654.408 3.008 1.491 3.716 2.973 2.117 4.431-.768 7.41-3.821 10.564-1.639 1.692-3.333 3.442-4.171 5.429-1.055 2.501-1.173 5.613-.351 9.251.105.464.518.779.975.779.073 0 .147-.008.222-.024.539-.122.876-.657.755-1.196-.729-3.221-.647-5.924.243-8.032.692-1.642 2.185-3.183 3.765-4.815 3.237-3.343 6.905-7.133 4.189-12.818-.967-2.024-2.805-3.501-5.042-4.053-2.173-.535-4.404-.105-6.123 1.179-1.469 1.1-2.188 2.589-2.26 4.687-.057 1.646.731 3.887 2.346 4.987z"/><path d="m53.808 26.503c1.019.79 1.982 1.535 2.479 2.362.645 1.072.898 2.547.751 4.385-.044.55.366 1.032.917 1.076.027.002.054.003.081.003.516 0 .954-.397.996-.92.181-2.262-.166-4.138-1.03-5.576-.691-1.147-1.849-2.044-2.969-2.912-2.307-1.787-3.684-3.001-2.95-5.35.25-.798.856-1.443 1.664-1.77.772-.312 1.607-.278 2.291.095.508.278.769.688.898 1.415.1.559-.112 1.321-.453 1.633-.127.116-.314.115-.443.063-.175-.072-.182-.199-.185-.253-.029-.552-.511-.981-1.051-.946-.552.029-.975.5-.946 1.051.047.892.592 1.658 1.423 1.999.869.355 1.87.185 2.55-.436.955-.872 1.263-2.402 1.073-3.462-.237-1.324-.861-2.246-1.909-2.818-1.211-.661-2.67-.733-3.999-.194-1.365.552-2.395 1.656-2.823 3.027-1.186 3.795 1.487 5.865 3.635 7.528z"/></g></g></g></svg>