<svg id="Layer_1" enable-background="new 0 0 128 128" height="512" viewBox="0 0 128 128" width="512" xmlns="http://www.w3.org/2000/svg"><g><g><g><path d="m65.622 45.894 3.604 1.221c1.92.65 3.456 2.186 4.106 4.106l1.221 3.604c.138.406.519.679.947.679s.81-.273.947-.679l1.221-3.604c.65-1.921 2.186-3.456 4.106-4.106l3.604-1.221c.406-.138.679-.519.679-.947s-.273-.81-.679-.947l-3.604-1.221c-1.92-.65-3.456-2.186-4.106-4.106l-1.221-3.604c-.138-.406-.519-.679-.947-.679s-.81.273-.947.679l-1.221 3.604c-.65 1.921-2.186 3.456-4.106 4.106l-3.604 1.221c-.406.138-.679.519-.679.947s.273.809.679.947z" fill="#e6e7e8"/></g><g><path d="m56.776 75.944-2.486-.842c-1.234-.418-2.22-1.404-2.638-2.639l-.842-2.486c-.138-.406-.519-.679-.947-.679s-.81.273-.947.679l-.842 2.486c-.418 1.234-1.405 2.221-2.639 2.639l-2.486.842c-.406.138-.679.519-.679.947s.273.81.679.947l2.486.842c1.234.418 2.221 1.405 2.639 2.639l.842 2.486c.138.406.519.679.947.679s.81-.273.947-.679l.842-2.486c.418-1.234 1.404-2.221 2.638-2.639l2.486-.842c.406-.138.679-.519.679-.947s-.273-.81-.679-.947z" fill="#e6e7e8"/></g><g><path d="m37.068 68.805-1.953-.662c-.906-.307-1.631-1.032-1.938-1.938l-.662-1.953c-.138-.406-.519-.679-.947-.679s-.81.273-.947.679l-.662 1.953c-.307.906-1.031 1.631-1.938 1.938l-1.953.662c-.406.138-.679.519-.679.947s.273.81.679.947l1.953.662c.907.307 1.631 1.031 1.938 1.938l.662 1.953c.138.406.519.679.947.679s.81-.273.947-.679l.662-1.953c.307-.907 1.032-1.631 1.938-1.938l1.953-.662c.406-.138.679-.519.679-.947s-.273-.809-.679-.947z" fill="#e6e7e8"/></g><g><path d="m124.134 116.161-17.006-16.441 1.057-1.057c1.618-1.618 1.618-4.251 0-5.87-1.277-1.277-3.18-1.529-4.723-.791-1.78-1.777-4.222-2.487-6.538-2.148l-47.409-45.835c.913-.43 1.892-.75 2.927-.925l7.745-1.31c.391-.066.706-.356.802-.741.097-.384-.042-.79-.354-1.033l-6.191-4.834c-3.871-3.023-5.322-8.147-3.61-12.751l2.738-7.362c.138-.372.043-.79-.24-1.065-.285-.277-.705-.358-1.072-.21l-7.282 2.944c-4.551 1.843-9.715.537-12.848-3.249l-5.007-6.053c-.253-.305-.663-.433-1.043-.325-.381.108-.663.431-.718.823l-1.091 7.779c-.682 4.864-4.395 8.683-9.238 9.502l-7.745 1.31c-.391.066-.706.356-.802.741-.097.384.042.79.354 1.033l6.191 4.834c3.871 3.023 5.322 8.147 3.609 12.751l-2.737 7.362c-.138.372-.043.79.24 1.065.285.276.706.357 1.072.21l7.282-2.944c4.552-1.843 9.717-.536 12.848 3.249l5.007 6.052c.193.233.477.362.771.362.091 0 .183-.012.272-.038.381-.108.663-.431.718-.824l1.091-7.778c.194-1.383.64-2.676 1.28-3.845l45.982 47.561c-.339 2.315.371 4.755 2.145 6.535-.267.554-.422 1.158-.422 1.791 0 1.109.432 2.151 1.216 2.935.809.809 1.872 1.214 2.935 1.214s2.126-.405 2.935-1.214l1.057-1.057 16.441 17.005c.869.899 2.036 1.399 3.287 1.41h.04c1.236 0 2.396-.48 3.271-1.355l.819-.819c.884-.884 1.366-2.06 1.355-3.31-.011-1.248-.512-2.415-1.411-3.284z" fill="#e6e7e8"/></g></g><g><g><path d="m41.353 13.658 7.282-2.944-2.738 7.362c-1.856 4.991-.265 10.61 3.932 13.888l6.191 4.834-7.745 1.31c-5.251.888-9.321 5.075-10.061 10.349l-1.091 7.778-5.007-6.052c-3.395-4.103-9.056-5.535-13.993-3.539l-7.282 2.944 2.738-7.362c1.856-4.991.265-10.61-3.932-13.888l-6.191-4.834 7.745-1.31c5.251-.888 9.321-5.075 10.061-10.349l1.091-7.778 5.007 6.052c3.394 4.104 9.055 5.535 13.993 3.539z" fill="#d4fbff"/></g><g><g><path d="m14.2 25.195c5.251-.888 9.321-5.075 10.061-10.349l1.016-7.243-2.925-3.535-1.091 7.779c-.74 5.274-4.81 9.461-10.061 10.349l-7.745 1.31 3.692 2.883z" fill="#fff"/></g></g><path d="m39.602 42.401c-1.232 1.706-2.07 3.72-2.378 5.918l-.776 5.532-3.562-4.304c-2.574-3.112-6.314-4.801-10.163-4.801-1.667 0-3.354.317-4.976.973l-5.179 2.094 1.947-5.236c2.017-5.425.308-11.463-4.254-15.024l-4.403-3.438 5.509-.932c5.706-.965 10.081-5.464 10.884-11.196l.776-5.533 3.561 4.305c3.689 4.458 9.772 5.996 15.139 3.828l5.179-2.094-1.947 5.236c-2.017 5.425-.307 11.463 4.254 15.024l4.403 3.438-5.509.932c-1.833.31-3.525.988-5.009 1.951l1.486 1.437c1.163-.688 2.461-1.18 3.857-1.417l7.745-1.31c.391-.066.706-.356.802-.741.097-.384-.042-.79-.354-1.033l-6.191-4.834c-3.871-3.023-5.322-8.147-3.61-12.751l2.738-7.362c.138-.372.043-.79-.24-1.065-.285-.277-.705-.358-1.072-.21l-7.282 2.944c-4.551 1.843-9.715.537-12.848-3.249l-5.006-6.053c-.253-.305-.663-.433-1.043-.325-.381.108-.663.431-.718.823l-1.091 7.779c-.682 4.864-4.395 8.683-9.238 9.502l-7.745 1.31c-.391.066-.706.356-.802.741-.097.384.042.79.354 1.033l6.191 4.834c3.871 3.023 5.322 8.147 3.609 12.751l-2.737 7.362c-.138.372-.043.79.24 1.065.285.276.706.357 1.072.21l7.282-2.944c4.552-1.843 9.717-.536 12.848 3.249l5.007 6.052c.193.233.477.362.771.362.091 0 .183-.012.272-.038.381-.108.663-.431.718-.824l1.091-7.778c.244-1.742.883-3.345 1.816-4.729z" fill="#3a2c60"/><g><path d="m71.5 31.39 1.221 3.604c.755 2.228 2.504 3.978 4.733 4.733l3.604 1.221-3.604 1.221c-2.228.755-3.978 2.504-4.733 4.733l-1.221 3.602-1.221-3.604c-.755-2.228-2.504-3.978-4.733-4.733l-3.604-1.221 3.604-1.221c2.228-.755 3.978-2.504 4.733-4.733z" fill="#fa759e"/><path d="m71.5 51.504c-.429 0-.81-.273-.947-.679l-1.221-3.604c-.65-1.921-2.186-3.456-4.106-4.106l-3.604-1.221c-.406-.138-.679-.519-.679-.947s.273-.81.679-.947l3.604-1.221c1.92-.65 3.456-2.186 4.106-4.106l1.221-3.604c.138-.406.519-.679.947-.679.429 0 .81.273.947.679l1.221 3.604c.65 1.921 2.186 3.456 4.106 4.106l3.604 1.221c.406.138.679.519.679.947s-.273.81-.679.947l-3.604 1.221c-1.92.65-3.456 2.186-4.106 4.106l-1.221 3.604c-.137.405-.518.679-.947.679zm-6.44-10.557.808.273c2.506.849 4.51 2.853 5.359 5.359l.274.808.273-.808c.849-2.507 2.853-4.51 5.359-5.359l.808-.273-.808-.273c-2.506-.849-4.51-2.853-5.359-5.359l-.274-.809-.274.808c-.849 2.507-2.853 4.51-5.359 5.359z" fill="#3a2c60"/></g><g><path d="m45.862 66.298.842 2.486c.521 1.537 1.728 2.744 3.265 3.265l2.486.842-2.486.842c-1.537.521-2.744 1.728-3.265 3.265l-.842 2.486-.842-2.486c-.521-1.537-1.728-2.744-3.265-3.265l-2.486-.842 2.486-.842c1.537-.521 2.744-1.728 3.265-3.265z" fill="#fa759e"/><path d="m45.862 80.484c-.429 0-.81-.273-.947-.679l-.842-2.486c-.418-1.234-1.405-2.221-2.639-2.639l-2.486-.842c-.406-.138-.679-.519-.679-.947s.273-.81.679-.947l2.486-.842c1.234-.418 2.221-1.404 2.639-2.639l.842-2.486c.138-.406.519-.679.947-.679s.81.273.947.679l.842 2.486c.418 1.234 1.404 2.221 2.638 2.639l2.486.842c.406.138.679.519.679.947s-.273.81-.679.947l-2.486.842c-1.234.418-2.22 1.405-2.638 2.639l-.842 2.486c-.138.406-.519.679-.947.679zm-3.501-7.593c1.592.63 2.871 1.909 3.501 3.501.629-1.592 1.909-2.871 3.5-3.501-1.592-.629-2.871-1.909-3.5-3.501-.63 1.592-1.91 2.872-3.501 3.501z" fill="#3a2c60"/></g><g><path d="m27.569 60.573.662 1.953c.409 1.207 1.357 2.155 2.565 2.565l1.953.662-1.953.662c-1.207.409-2.155 1.357-2.565 2.565l-.662 1.953-.662-1.953c-.409-1.207-1.357-2.155-2.565-2.565l-1.953-.662 1.953-.662c1.207-.409 2.155-1.357 2.565-2.565z" fill="#fa759e"/><path d="m27.569 71.931c-.429 0-.81-.273-.947-.679l-.662-1.953c-.307-.907-1.031-1.631-1.938-1.938l-1.953-.661c-.406-.138-.679-.519-.679-.947s.273-.81.679-.947l1.953-.662c.907-.307 1.631-1.032 1.938-1.938l.662-1.953c.138-.406.519-.679.947-.679s.81.273.947.679l.662 1.953c.307.906 1.032 1.631 1.938 1.938l1.953.662c.406.138.679.519.679.947s-.273.81-.679.947l-1.953.662c-.906.307-1.631 1.031-1.938 1.938l-.662 1.953c-.138.405-.519.678-.947.678zm-2.23-6.179c.956.488 1.741 1.274 2.229 2.229.489-.956 1.274-1.741 2.229-2.229-.955-.489-1.741-1.274-2.229-2.229-.488.955-1.273 1.74-2.229 2.229z" fill="#3a2c60"/></g><g><path d="m119.438 112.879-90.622-87.614c-.816-.788-2.113-.778-2.915.025s-.813 2.099-.025 2.915l87.615 90.623c1.409 1.457 3.739 1.477 5.172.044l.819-.819c1.433-1.435 1.414-3.765-.044-5.174z" fill="#0089ef"/><g fill="#3a2c60"><path d="m91.503 87.262c.757-.311 1.56-.473 2.367-.494l-19.337-18.694c-.398-.385-1.031-.374-1.414.023-.384.397-.374 1.03.023 1.414z"/><path d="m87.874 90.892-61.278-63.383c-.407-.42-.401-1.099.013-1.513.413-.413 1.092-.419 1.512-.013l35.138 33.972c.397.384 1.03.373 1.414-.023.384-.397.374-1.03-.024-1.414l-35.138-33.972c-1.2-1.161-3.137-1.146-4.317.036-1.18 1.18-1.197 3.117-.037 4.317l62.223 64.359c.021-.806.183-1.609.494-2.366z"/><path d="m120.134 112.161-17.724-17.136-1.414 1.414 17.748 17.159c.511.494.795 1.157.801 1.867s-.267 1.377-.769 1.879l-.819.819c-.497.497-1.155.769-1.857.769-.007 0-.015 0-.023 0-.71-.006-1.373-.29-1.866-.801l-17.159-17.748-1.414 1.414 17.136 17.724c.869.899 2.036 1.399 3.287 1.41h.04c1.236 0 2.396-.48 3.271-1.355l.819-.819c.884-.884 1.366-2.06 1.355-3.31-.012-1.25-.513-2.417-1.412-3.286z"/></g><g><path d="m71.258 67.298c-.25 0-.501-.093-.695-.281l-4.825-4.664c-.397-.384-.408-1.017-.024-1.414.383-.398 1.017-.409 1.414-.024l4.825 4.664c.397.384.408 1.017.024 1.414-.196.203-.458.305-.719.305z" fill="#3a2c60"/></g><g><path d="m89.907 98.662c.068-.084.127-.173.205-.251l8.911-8.911c.078-.078.167-.137.251-.205-.159-.201-.328-.396-.513-.581-2.605-2.605-6.83-2.605-9.435 0s-2.605 6.83 0 9.435c.185.186.381.354.581.513z" fill="#d4fbff"/><g><path d="m90.112 98.411.498-.498c-.196-.15-.398-.292-.577-.471-2.211-2.211-2.211-5.81 0-8.021 1.106-1.105 2.558-1.658 4.011-1.658 1.452 0 2.904.553 4.01 1.658.179.179.321.381.471.577l.498-.498c.327-.327.71-.561 1.116-.714-.206-.27-.424-.533-.671-.779-2.991-2.991-7.858-2.99-10.849 0-2.991 2.991-2.991 7.858 0 10.849.246.246.509.465.779.671.153-.406.387-.789.714-1.116z" fill="#3a2c60"/></g></g><g><path d="m103.478 89.5c-1.23-1.23-3.225-1.23-4.456 0l-8.911 8.911c-1.23 1.23-1.23 3.225 0 4.455 1.23 1.23 3.225 1.23 4.455 0l8.911-8.911c1.232-1.229 1.232-3.224.001-4.455z" fill="#0089ef"/><path d="m92.34 104.788c-1.063 0-2.125-.405-2.935-1.214-.784-.784-1.216-1.826-1.216-2.935s.432-2.151 1.216-2.935l8.911-8.911c1.618-1.617 4.251-1.618 5.87 0s1.618 4.251 0 5.87l-8.911 8.911c-.809.809-1.872 1.214-2.935 1.214zm8.91-15.209c-.55 0-1.101.21-1.521.629l-8.911 8.911c-.406.406-.63.946-.63 1.521s.224 1.114.63 1.521c.839.838 2.203.838 3.042 0l8.911-8.911c.838-.838.838-2.203 0-3.042-.419-.419-.97-.629-1.521-.629z" fill="#3a2c60"/></g></g></g></g></svg>