<svg id="Layer_1" enable-background="new 0 0 128 128" height="512" viewBox="0 0 128 128" width="512" xmlns="http://www.w3.org/2000/svg"><g><g><g><path d="m119.662 119.004-60.874-60.873 8.56-3.033c1.18-.418 2.001-1.406 2.196-2.643s-.28-2.429-1.273-3.19l-10.804-8.294-.359-13.616c-.033-1.251-.718-2.337-1.834-2.905-1.115-.569-2.396-.485-3.428.225l-11.226 7.713-13.061-3.866c-1.202-.354-2.446-.04-3.33.847-.885.885-1.201 2.13-.846 3.33l3.866 13.06-7.713 11.227c-.708 1.031-.792 2.313-.225 3.428.568 1.115 1.654 1.802 2.906 1.835l13.616.358 8.293 10.804c.649.846 1.61 1.316 2.646 1.316.18 0 .362-.014.545-.043 1.236-.196 2.224-1.018 2.642-2.197l3.033-8.559 60.873 60.874c.773.774 1.803 1.2 2.897 1.2s2.124-.426 2.898-1.2c1.599-1.6 1.599-4.199.002-5.798z" fill="#e6e7e8"/></g><g><path d="m64.202 29.409 5.169 1.751c2.882.977 5.186 3.28 6.162 6.163l1.751 5.169c.138.405.519.679.947.679s.81-.273.947-.679l1.751-5.17c.976-2.882 3.28-5.186 6.162-6.162l5.169-1.751c.406-.138.679-.519.679-.947s-.273-.81-.679-.947l-5.169-1.751c-2.882-.977-5.186-3.28-6.162-6.163l-1.751-5.169c-.138-.405-.519-.679-.947-.679s-.81.273-.947.679l-1.751 5.17c-.976 2.882-3.28 5.186-6.162 6.162l-5.169 1.751c-.406.138-.679.519-.679.947s.272.809.679.947z" fill="#e6e7e8"/></g><g><path d="m25.714 15.7 2.923.99c1.502.509 2.703 1.71 3.212 3.213l.991 2.924c.138.405.519.679.947.679s.81-.273.947-.68l.99-2.923c.509-1.503 1.71-2.704 3.213-3.213l2.923-.99c.406-.138.679-.519.679-.947s-.273-.81-.679-.947l-2.923-.99c-1.503-.509-2.704-1.71-3.213-3.214l-.99-2.923c-.136-.406-.517-.679-.946-.679s-.81.273-.947.679l-.991 2.923c-.509 1.504-1.71 2.705-3.212 3.214l-2.923.99c-.406.138-.679.519-.679.947s.272.81.678.947z" fill="#e6e7e8"/></g><g><path d="m32.171 81.433-3.716-1.259c-1.99-.674-3.58-2.264-4.254-4.254l-1.259-3.716c-.138-.405-.519-.679-.947-.679s-.81.273-.947.679l-1.259 3.716c-.674 1.99-2.265 3.58-4.254 4.254l-3.716 1.259c-.406.138-.679.519-.679.947s.273.81.679.947l3.716 1.259c1.989.674 3.58 2.265 4.254 4.255l1.259 3.716c.138.405.519.679.947.679s.81-.273.947-.679l1.259-3.716c.674-1.99 2.264-3.581 4.254-4.255l3.716-1.259c.406-.138.679-.519.679-.947s-.273-.81-.679-.947z" fill="#e6e7e8"/></g><g><path d="m91.937 44.047c-.429 0-.81.273-.947.679l-.699 2.063c-.33.975-1.109 1.754-2.083 2.084l-2.063.699c-.406.138-.679.519-.679.947s.273.81.679.947l2.064.699c.974.33 1.753 1.108 2.083 2.083l.699 2.063c.138.405.519.679.947.679s.81-.273.947-.68l.699-2.063c.33-.975 1.109-1.753 2.083-2.083l2.063-.699c.406-.138.679-.519.679-.947s-.273-.81-.679-.947l-2.063-.699c-.975-.33-1.754-1.109-2.084-2.083l-.699-2.063c-.138-.406-.519-.679-.947-.679z" fill="#e6e7e8"/></g></g><g><g><g><path d="m49.726 54.864-1.146 3.235 61.994 61.994c1.21 1.21 3.171 1.21 4.381 0s1.21-3.171 0-4.381l-61.994-61.994z" fill="#0089ef"/></g><g><path d="m49.726 54.864-1.147 3.235 39.357 39.357 4.382-4.382-39.357-39.356z" fill="#6dc9f7"/></g><g><path d="m23.275 25.48 13.517 4.002 11.619-7.983c1.543-1.06 3.647.012 3.696 1.883l.371 14.092 11.183 8.584c1.485 1.14 1.116 3.472-.649 4.097l-13.288 4.708-4.708 13.288c-.625 1.765-2.957 2.134-4.097.649l-8.584-11.183-14.092-.371c-1.871-.049-2.943-2.153-1.883-3.696l7.983-11.619-4.002-13.517c-.53-1.795 1.139-3.465 2.934-2.934z" fill="#fa759e"/></g><g><g><path d="m60.51 47.652-12.358 4.378c-.588.208-1.051.671-1.26 1.26l-4.378 12.358c-.446 1.26-1.76 1.792-2.891 1.462l1.297 1.69c1.14 1.485 3.472 1.116 4.097-.649l4.708-13.288 13.288-4.708c1.765-.625 2.134-2.958.649-4.097l-1.69-1.297c.33 1.132-.202 2.445-1.462 2.891z" fill="#fff"/></g></g></g><g fill="#ffd7e5"><path d="m74.231 10.753 1.751 5.169c1.083 3.196 3.592 5.706 6.789 6.789l5.169 1.751-5.169 1.751c-3.196 1.083-5.706 3.592-6.789 6.789l-1.751 5.169-1.751-5.169c-1.083-3.196-3.592-5.706-6.789-6.789l-5.169-1.751 5.169-1.751c3.196-1.083 5.706-3.592 6.789-6.789z"/><path d="m29.788 3 .99 2.923c.612 1.808 2.032 3.227 3.839 3.839l2.923.99-2.923.99c-1.808.612-3.227 2.032-3.839 3.839l-.99 2.923-.99-2.923c-.612-1.808-2.032-3.227-3.839-3.839l-2.923-.99 2.923-.99c1.808-.612 3.227-2.032 3.839-3.839z"/><path d="m17.995 68.525 1.259 3.716c.778 2.298 2.582 4.102 4.88 4.88l3.716 1.259-3.716 1.259c-2.298.778-4.102 2.582-4.88 4.88l-1.259 3.716-1.259-3.716c-.778-2.298-2.582-4.102-4.88-4.88l-3.716-1.259 3.716-1.259c2.298-.778 4.102-2.582 4.88-4.88z"/></g><g><path d="m87.936 41.047.699 2.063c.432 1.276 1.434 2.278 2.71 2.71l2.063.699-2.063.699c-1.276.432-2.278 1.434-2.71 2.71l-.699 2.063-.699-2.063c-.432-1.276-1.434-2.278-2.71-2.71l-2.063-.699 2.063-.699c1.276-.432 2.278-1.434 2.71-2.71z" fill="#ffd7e5"/><g fill="#3a2c60"><path d="m67.062 67.818c-.391.391-.391 1.023 0 1.414l5.841 5.842c.195.195.451.293.707.293s.512-.098.707-.293c.391-.391.391-1.023 0-1.414l-5.841-5.842c-.391-.39-1.024-.39-1.414 0z"/><path d="m115.662 115.004-37.728-37.728c-.391-.391-1.023-.391-1.414 0s-.391 1.023 0 1.414l14.384 14.384-2.967 2.967-38.204-38.203.776-2.19 2.191-.776 11.023 11.023c.195.195.451.293.707.293s.512-.098.707-.293c.391-.391.391-1.023 0-1.414l-10.349-10.35 8.56-3.033c1.18-.418 2.001-1.406 2.196-2.643s-.28-2.429-1.273-3.19l-10.804-8.294-.359-13.616c-.033-1.251-.718-2.337-1.834-2.905-1.115-.569-2.397-.485-3.428.225l-11.226 7.713-13.061-3.866c-1.201-.354-2.445-.039-3.33.847-.885.885-1.201 2.13-.846 3.33l3.866 13.06-7.713 11.227c-.708 1.031-.792 2.313-.225 3.428.568 1.115 1.654 1.802 2.906 1.835l13.616.358 8.293 10.804c.649.846 1.61 1.316 2.646 1.316.18 0 .362-.014.545-.043 1.236-.196 2.224-1.018 2.642-2.197l3.033-8.559 60.873 60.874c.773.774 1.803 1.2 2.897 1.2s2.124-.426 2.898-1.2c1.599-1.6 1.599-4.199.002-5.798zm-71.587-47.187c-.169.478-.569.811-1.07.89-.5.082-.982-.113-1.291-.516l-8.584-11.182c-.184-.238-.466-.383-.767-.391l-14.092-.371c-.506-.013-.946-.291-1.176-.742s-.196-.971.091-1.388l7.983-11.62c.171-.249.22-.562.135-.851l-4.003-13.516c-.144-.485-.016-.99.342-1.348.262-.262.601-.4.954-.4.13 0 .263.019.395.058l13.518 4.001c.289.084.602.036.85-.135l11.619-7.982c.417-.288.938-.321 1.388-.091.452.229.729.669.743 1.176l.372 14.093c.008.302.151.583.391.767l11.183 8.584c.402.309.594.792.515 1.292-.079.501-.412.9-.889 1.07l-13.288 4.708c-.284.101-.508.324-.608.608zm70.173 51.569c-.793.793-2.174.793-2.967 0l-21.93-21.93 2.967-2.967 21.93 21.929c.817.818.817 2.149 0 2.968z"/><path d="m60.202 25.409 5.169 1.751c2.882.977 5.186 3.28 6.163 6.163l1.751 5.169c.138.405.519.679.947.679s.81-.273.947-.679l1.751-5.17c.976-2.882 3.28-5.186 6.162-6.162l5.169-1.751c.406-.138.679-.519.679-.947s-.273-.81-.679-.947l-5.169-1.751c-2.882-.977-5.186-3.28-6.162-6.163l-1.751-5.169c-.138-.405-.519-.679-.947-.679s-.81.273-.947.679l-1.751 5.169c-.977 2.883-3.28 5.187-6.163 6.163l-5.169 1.751c-.406.138-.679.519-.679.947s.272.809.679.947zm5.81-1.751c3.468-1.175 6.24-3.947 7.416-7.415l.804-2.374.804 2.373c1.175 3.469 3.947 6.24 7.415 7.416l2.373.804-2.373.804c-3.468 1.176-6.24 3.947-7.415 7.415l-.804 2.374-.804-2.374c-1.175-3.468-3.947-6.24-7.416-7.415l-2.373-.804z"/><path d="m21.714 11.7 2.923.99c1.502.509 2.703 1.71 3.212 3.213l.991 2.924c.138.405.519.679.947.679s.81-.273.947-.68l.99-2.923c.509-1.503 1.71-2.704 3.213-3.213l2.923-.99c.406-.138.679-.519.679-.947s-.273-.81-.679-.947l-2.923-.99c-1.503-.509-2.704-1.71-3.213-3.214l-.99-2.923c-.136-.406-.517-.679-.946-.679s-.81.273-.947.679l-.991 2.923c-.509 1.504-1.71 2.705-3.212 3.214l-2.923.99c-.406.138-.679.519-.679.947s.272.81.678.947zm3.565-.99c2.088-.707 3.757-2.377 4.465-4.466l.043-.128.043.128c.708 2.089 2.377 3.758 4.466 4.466l.127.043-.127.043c-2.088.708-3.758 2.377-4.466 4.466l-.043.127-.043-.128c-.708-2.088-2.377-3.758-4.465-4.465l-.127-.043z"/><path d="m28.171 77.433-3.716-1.259c-1.99-.674-3.58-2.264-4.254-4.254l-1.259-3.716c-.138-.405-.519-.679-.947-.679s-.81.273-.947.679l-1.259 3.716c-.674 1.99-2.265 3.58-4.254 4.254l-3.716 1.259c-.406.137-.679.518-.679.947s.273.81.679.947l3.716 1.259c1.989.674 3.58 2.265 4.254 4.255l1.259 3.716c.138.405.519.679.947.679s.81-.273.947-.679l1.259-3.716c.674-1.99 2.264-3.581 4.254-4.255l3.716-1.259c.406-.138.679-.519.679-.947s-.273-.81-.679-.947zm-4.358 1.258c-2.576.872-4.634 2.932-5.507 5.507l-.312.921-.312-.921c-.874-2.576-2.932-4.635-5.507-5.507l-.92-.312.92-.312c2.575-.872 4.634-2.931 5.507-5.506l.312-.921.312.921c.873 2.575 2.931 4.633 5.507 5.506l.92.312z"/><path d="m87.937 40.047c-.429 0-.81.273-.947.679l-.699 2.063c-.33.975-1.109 1.754-2.083 2.084l-2.063.699c-.406.138-.679.519-.679.947s.273.81.679.947l2.064.699c.974.33 1.753 1.108 2.083 2.083l.699 2.063c.138.405.519.679.947.679s.81-.273.947-.68l.699-2.063c.33-.975 1.109-1.753 2.083-2.083l2.063-.699c.406-.138.679-.519.679-.947s-.273-.81-.679-.947l-2.063-.699c-.975-.33-1.754-1.109-2.084-2.083l-.699-2.063c-.138-.406-.519-.679-.947-.679zm2.482 6.473c-1.079.522-1.96 1.403-2.483 2.482-.523-1.079-1.405-1.96-2.483-2.482 1.079-.523 1.96-1.404 2.483-2.483.523 1.078 1.404 1.959 2.483 2.483z"/></g></g></g></g></svg>