<svg id="Layer_1" enable-background="new 0 0 128 128" height="512" viewBox="0 0 128 128" width="512" xmlns="http://www.w3.org/2000/svg"><g><g><path d="m118.065 52.25v-9.333c0-.552-.447-1-1-1-11.698 0-21.586 7.87-24.667 18.591-1.131-3.938-3.179-7.489-5.9-10.408-.525-1.246-1.125-2.2-1.686-3.077-.834-1.306-1.555-2.434-1.978-4.366-.274-1.257-.374-2.637-.479-4.097-.232-3.22-.495-6.87-2.793-10.29-2.843-4.231-6.57-5.651-9.858-6.904-.582-.221-1.155-.44-1.716-.67-1.633-.673-2.884-1.562-4.209-2.502-2.095-1.486-4.261-3.023-7.838-3.482-5.708-.733-10.077 1.272-13.586 2.885-1.464.672-2.847 1.308-4.105 1.64-4.331 1.142-7.152 2.444-11.475 6.759-3.025 3.021-3.665 6.945-4.229 10.407-.274 1.679-.532 3.266-1.026 4.68-.563 1.614-1.424 2.789-2.335 4.032-1.514 2.066-3.078 4.202-3.078 8.213 0 3.185.622 4.976 1.224 6.708.564 1.623 1.097 3.156 1.097 5.917 0 2.742-1.054 5.209-2.169 7.822-1.143 2.677-2.324 5.445-2.324 8.583 0 4.612 3.292 8.622 5.344 10.675-2.615 4.472-4.107 9.681-4.107 15.241v6.173c0 1.654 1.346 3 3 3h92.039c.874 0 1.703-.379 2.275-1.041.569-.658.824-1.529.698-2.389-.63-4.323-1.762-8.863-3.561-14.288-2.13-6.424-6.792-16.67-9.733-22.931 10.509-3.215 18.175-13.002 18.175-24.548z" fill="#e6e7e8"/></g><g><g><path d="m104.674 96.043c-2.25-6.788-7.385-17.948-10.191-23.885-1.947.494-3.985.758-6.085.758-2.159 0-4.249-.287-6.245-.808-.025.054-.051.107-.075.158.971 1.893 1.852 4.129 1.852 7.269 0 4.78-4.002 8.423-5.593 9.683 2.666 4.391 4.207 9.541 4.207 15.054v6.173c0 1.105-.896 2-2 2h25.666c1.219 0 2.16-1.079 1.984-2.285-.618-4.238-1.725-8.704-3.52-14.117z" fill="#fa759e"/><g fill="#6dc9f7"><path d="m81.637 46.627c.359.879.675 1.905.907 3.2 1.033 5.763-2.99 11.803-2.99 15.995 0 2.244 1.253 4.014 2.418 6.243 2.049.552 4.202.851 6.425.851v-9.333c.001-6.57-2.573-12.535-6.76-16.956z"/><path d="m88.398 63.583v9.333c13.623 0 24.667-11.044 24.667-24.667v-9.333c-13.624 0-24.667 11.044-24.667 24.667z"/></g></g><g><path d="m16.574 88.891c4.678-7.481 12.665-12.68 21.912-13.547v-3.341c-6.961-2.973-12.121-9.338-13.416-17.017-.49.392-1.048.634-1.651.634-1.861 0-3.369-2.13-3.369-4.757s1.508-4.757 3.369-4.757c.473 0 .922.14 1.33.388v-.044c0-5.138 1.662-10.138 4.738-14.254l.992-1.327s8.671 3.708 15.003 4.333 8.782-1.063 12.761-1.625c1.116-.158 2.178-.153 3.181-.046l.034-.031-1.552-3.64c-.442-1.036.691-2.037 1.665-1.471l3.422 1.987 2.982-2.601c.849-.74 2.151.028 1.914 1.128l-.832 3.868 3.395 2.033c.966.578.638 2.054-.482 2.169l-3.348.343c.854 1.273 1.344 2.794 1.344 4.398v4.779c.408-.248.857-.388 1.33-.388 1.861 0 3.369 2.13 3.369 4.757s-1.508 4.757-3.369 4.757c-.603 0-1.161-.242-1.651-.634-1.294 7.679-6.455 14.044-13.416 17.017v3.341c9.381.88 17.46 6.22 22.108 13.875 1.591-1.26 5.593-4.903 5.593-9.683 0-7-4.376-9.522-4.376-13.713 0-4.192 4.022-10.232 2.99-15.995-1.033-5.763-3.686-6.381-4.686-10.958-.912-4.176.027-9.352-3.125-14.042-3.151-4.69-7.438-5.688-11.125-7.208-4.436-1.83-6.321-5.214-11.793-5.917-7.79-1-12.883 3.333-17.31 4.5-4.238 1.117-6.85 2.333-11.022 6.5s-3.432 10.167-5.018 14.709-5.357 5.913-5.357 11.916 2.32 6.735 2.32 12.624-4.493 10.533-4.493 16.404c0 4.705 3.837 8.848 5.639 10.536z" fill="#ffd7e5"/><g fill="#fff"><path d="m71.296 46.106c-.473 0-.922.14-1.33.388v4.709c0 1.289-.114 2.552-.321 3.782.49.392 1.048.634 1.651.634 1.861 0 3.369-2.13 3.369-4.757 0-2.626-1.509-4.756-3.369-4.756z"/><path d="m24.749 51.204v-4.709c-.408-.248-.857-.388-1.33-.388-1.861 0-3.369 2.13-3.369 4.757s1.508 4.757 3.369 4.757c.603 0 1.161-.242 1.651-.634-.207-1.232-.321-2.494-.321-3.783z"/></g><path d="m56.229 75.344v-3.341c8.076-3.449 13.737-11.462 13.737-20.799v-9.489c0-1.603-.49-3.125-1.344-4.398l-.588.06-.884 3.857c-.252 1.098-1.756 1.242-2.212.212l-1.6-3.619-3.941.351c-1.122.1-1.724-1.286-.885-2.038l2.913-2.61c-1.002-.107-2.065-.111-3.181.046-3.979.562-6.429 2.25-12.761 1.625s-15.003-4.333-15.003-4.333l-.992 1.327c-3.076 4.116-4.738 9.116-4.738 14.254v4.753c0 9.337 5.661 17.35 13.737 20.799v3.341c-14.761 1.385-26.314 13.805-26.314 28.929v6.173c0 1.105.895 2 2 2h66.373c1.104 0 2-.895 2-2v-6.173c-.002-15.122-11.555-27.542-26.317-28.927z" fill="#fff"/><g><path d="m68.643 112.445v-7.822c0-6.594-5.345-11.939-11.939-11.939-3.745 0-7.083 1.727-9.272 4.424-2.189-2.697-5.527-4.424-9.272-4.424-6.594 0-11.939 5.345-11.939 11.939v7.822z" fill="#fa759e"/></g><g><path d="m56.704 92.685c-3.745 0-7.083 1.727-9.272 4.424-2.189-2.697-5.527-4.424-9.272-4.424-6.594 0-11.939 5.345-11.939 11.939v3c0-6.594 5.345-11.939 11.939-11.939 3.745 0 7.083 1.727 9.272 4.424 2.189-2.697 5.527-4.424 9.272-4.424 6.594 0 11.939 5.345 11.939 11.939v-3c0-6.594-5.345-11.939-11.939-11.939z" fill="#fff"/></g><g><g fill="#ffd7e5"><path d="m60.251 52.594c-1.109 0-2.008.567-2.008 1.266s.899 1.266 2.008 1.266 2.008-.567 2.008-1.266-.899-1.266-2.008-1.266z"/><path d="m34.464 52.313c-1.109 0-2.008.567-2.008 1.266s.899 1.266 2.008 1.266 2.008-.567 2.008-1.266-.899-1.266-2.008-1.266z"/></g><g><path d="m47.357 65.011c-3.442 0-5.195-2.373-5.268-2.474-.323-.448-.223-1.073.226-1.396.447-.322 1.068-.222 1.392.22.058.077 1.268 1.65 3.65 1.65 2.373 0 3.647-1.646 3.66-1.663.332-.439.959-.528 1.4-.193.44.333.527.961.193 1.401-.074.1-1.897 2.455-5.253 2.455z" fill="#fa759e"/></g></g></g><g><path d="m69.889 28.904-.832 3.868 3.395 2.033c.966.578.638 2.054-.482 2.169l-3.936.404-.884 3.857c-.252 1.098-1.756 1.242-2.212.212l-1.6-3.619-3.941.351c-1.122.1-1.724-1.286-.885-2.038l2.947-2.64-1.552-3.64c-.442-1.036.691-2.037 1.665-1.471l3.422 1.987 2.982-2.601c.848-.741 2.15.027 1.913 1.128z" fill="#d4fbff"/><g fill="#3a2c60"><path d="m89.99 88.31c0-.552-.447-1-1-1s-1 .448-1 1c0 .743-.605 1.348-1.349 1.348s-1.349-.605-1.349-1.348c0-.552-.447-1-1-1s-1 .448-1 1c0 1.846 1.502 3.348 3.349 3.348s3.349-1.502 3.349-3.348z"/><path d="m93.121 87.31c-.553 0-1 .448-1 1 0 1.846 1.502 3.348 3.349 3.348s3.349-1.502 3.349-3.348c0-.552-.447-1-1-1s-1 .448-1 1c0 .743-.605 1.348-1.349 1.348s-1.349-.605-1.349-1.348c0-.552-.447-1-1-1z"/><path d="m87.424 80.017c0 1.847 1.502 3.349 3.349 3.349s3.349-1.502 3.349-3.349c0-.552-.447-1-1-1s-1 .448-1 1c0 .744-.605 1.349-1.349 1.349s-1.349-.605-1.349-1.349c0-.552-.447-1-1-1s-1 .448-1 1z"/><path d="m93.904 94.573c-.553 0-1 .448-1 1 0 .743-.605 1.348-1.349 1.348s-1.349-.605-1.349-1.348c0-.552-.447-1-1-1s-1 .448-1 1c0 1.846 1.502 3.348 3.349 3.348s3.349-1.502 3.349-3.348c0-.552-.447-1-1-1z"/><path d="m97.596 102.49c0-.552-.447-1-1-1s-1 .448-1 1c0 1.846 1.502 3.348 3.349 3.348s3.349-1.502 3.349-3.348c0-.552-.447-1-1-1s-1 .448-1 1c0 .743-.605 1.348-1.349 1.348s-1.349-.605-1.349-1.348z"/><path d="m91.898 104.055c-.553 0-1 .448-1 1 0 .744-.604 1.349-1.348 1.349s-1.349-.605-1.349-1.349c0-.552-.447-1-1-1s-1 .448-1 1c0 1.847 1.502 3.349 3.349 3.349 1.846 0 3.348-1.502 3.348-3.349 0-.552-.447-1-1-1z"/><path d="m114.064 48.25v-9.333c0-.552-.447-1-1-1-11.694 0-21.578 7.864-24.663 18.579-1.131-3.928-3.183-7.467-5.897-10.381-.527-1.254-1.13-2.212-1.693-3.093-.834-1.306-1.555-2.434-1.978-4.365-.274-1.257-.374-2.637-.479-4.097-.232-3.22-.495-6.87-2.793-10.29-2.843-4.231-6.57-5.651-9.858-6.904-.582-.221-1.155-.44-1.716-.67-1.632-.673-2.883-1.562-4.208-2.501-2.095-1.487-4.262-3.024-7.839-3.483-5.71-.734-10.077 1.273-13.586 2.885-1.464.672-2.847 1.308-4.105 1.64-4.33 1.141-7.151 2.443-11.475 6.759-3.024 3.021-3.664 6.944-4.228 10.405-.274 1.68-.533 3.267-1.027 4.682-.563 1.614-1.424 2.789-2.335 4.032-1.514 2.066-3.078 4.202-3.078 8.213 0 3.185.622 4.976 1.224 6.708.564 1.623 1.097 3.156 1.097 5.917 0 2.742-1.054 5.209-2.168 7.822-1.143 2.676-2.324 5.444-2.324 8.582 0 4.612 3.292 8.624 5.342 10.676-2.615 4.472-4.107 9.681-4.107 15.241v6.173c0 1.654 1.346 3 3 3h22.301c.553 0 1-.448 1-1s-.447-1-1-1h-9.25v-6.822c0-6.032 4.907-10.938 10.939-10.938 3.309 0 6.404 1.478 8.495 4.054.379.469 1.174.469 1.553 0 2.091-2.577 5.188-4.054 8.496-4.054 6.031 0 10.938 4.907 10.938 10.938v6.822h-14.642c-.553 0-1 .448-1 1s.447 1 1 1h53.21c.874 0 1.703-.379 2.275-1.041.569-.658.824-1.529.698-2.389-.631-4.326-1.762-8.866-3.56-14.288-2.131-6.426-6.792-16.67-9.734-22.93 10.509-3.215 18.175-13.003 18.175-24.549zm-26.667 23.645c-1.632-.068-3.219-.31-4.75-.695-.151-.281-.301-.553-.446-.817-.884-1.604-1.647-2.989-1.647-4.561 0-1.546.649-3.507 1.337-5.583.955-2.883 2.016-6.107 1.782-9.362 2.35 3.674 3.725 8.029 3.725 12.705zm-75.462 6.461c0-2.729 1.051-5.191 2.163-7.797 1.146-2.683 2.329-5.457 2.329-8.607 0-3.099-.613-4.865-1.207-6.573-.572-1.647-1.113-3.204-1.113-6.051 0-3.357 1.247-5.06 2.691-7.031.958-1.308 1.948-2.66 2.61-4.555.552-1.58.837-3.329 1.112-5.02.541-3.317 1.1-6.747 3.668-9.312 4.022-4.016 6.512-5.171 10.57-6.241 1.427-.375 2.886-1.046 4.431-1.756 3.446-1.583 7.352-3.376 12.497-2.719 3.081.396 4.953 1.724 6.936 3.13 1.357.963 2.761 1.959 4.604 2.719.576.238 1.166.463 1.765.691 3.157 1.203 6.423 2.447 8.911 6.15 2.001 2.979 2.233 6.201 2.458 9.318.11 1.534.215 2.982.521 4.38.498 2.281 1.387 3.671 2.246 5.016.982 1.537 1.91 2.989 2.433 5.905.567 3.167-.565 6.588-1.566 9.607-.739 2.233-1.438 4.343-1.438 6.211 0 2.086.921 3.757 1.896 5.526 1.162 2.108 2.479 4.499 2.479 8.188 0 3.616-2.615 6.582-4.331 8.142-4.688-7.117-12.342-12.115-21.37-13.231v-1.806c6.555-3.031 11.491-8.979 13.137-16.17.306.09.617.149.93.149 2.45 0 4.369-2.529 4.369-5.757s-1.919-5.756-4.369-5.756c-.111 0-.22.012-.33.023v-3.415c0-1.252-.283-2.453-.775-3.553l1.88-.193c.947-.097 1.691-.76 1.898-1.688.206-.929-.188-1.844-1.004-2.333l-2.78-1.665.682-3.168c.2-.93-.201-1.843-1.021-2.326s-1.812-.391-2.528.234l-2.442 2.13-2.803-1.627c-.822-.478-1.814-.379-2.526.25-.713.63-.933 1.603-.56 2.478l.945 2.216c-.611.003-1.221.032-1.828.118-1.308.185-2.462.487-3.579.78-2.35.615-4.781 1.25-8.943.84-6.103-.603-14.623-4.221-14.708-4.257-.424-.181-.918-.05-1.194.321l-.992 1.327c-2.92 3.907-4.619 8.67-4.884 13.536-.127-.014-.255-.027-.384-.027-2.449 0-4.368 2.528-4.368 5.756s1.919 5.757 4.368 5.757c.313 0 .624-.059.93-.149 1.646 7.192 6.582 13.14 13.138 16.171v1.806c-8.862 1.096-16.401 5.932-21.109 12.841-1.83-1.907-4.445-5.271-4.445-8.933zm13.814-27.152v-4.754c0-4.89 1.612-9.739 4.539-13.655l.526-.705c2.247.912 9.161 3.573 14.569 4.107 4.524.446 7.127-.236 9.647-.896 1.11-.291 2.159-.565 3.352-.734.142-.02.286-.025.429-.038l-.967.866c-.709.635-.922 1.608-.543 2.481s1.237 1.378 2.184 1.297l3.228-.288 1.311 2.964c.355.803 1.115 1.293 1.974 1.293.072 0 .146-.003.219-.011.947-.091 1.696-.749 1.908-1.675l.449-1.959c.245.703.392 1.445.392 2.216v9.489c0 11.915-9.693 21.608-21.608 21.608s-21.609-9.691-21.609-21.606zm42.794-17.574 3.396 2.033c.031.019.105.063.078.183-.026.12-.112.129-.149.133l-3.936.404c-.426.043-.776.354-.872.771l-.885 3.858c-.009.036-.027.119-.149.131-.128.008-.157-.067-.172-.101l-1.601-3.619c-.161-.364-.521-.596-.915-.596-.029 0-.059.001-.089.004l-3.941.351c-.038.003-.123.012-.172-.102-.049-.113.016-.17.043-.195l2.947-2.641c.319-.286.421-.743.253-1.137l-1.552-3.64c-.015-.034-.049-.114.044-.195.091-.08.167-.039.198-.02l3.422 1.987c.369.214.835.17 1.159-.111l2.982-2.601c.027-.024.092-.082.198-.018.106.063.089.147.081.183l-.833 3.868c-.089.42.098.85.465 1.07zm2.423 17.574v-4.058c1.385-.336 2.699 1.505 2.699 3.717 0 2.331-1.432 4.295-2.933 3.63h-.001c.151-1.076.235-2.173.235-3.289zm-46.983 3.289c-1.493.662-2.932-1.297-2.932-3.63 0-2.036 1.085-3.756 2.368-3.756.11 0 .221.013.33.04v4.058c0 1.115.083 2.213.234 3.288zm45.66 43.552c0-2.778.827-5.469 2.393-7.782.31-.458.189-1.079-.268-1.389-.458-.31-1.079-.19-1.389.268-1.737 2.566-2.671 5.541-2.726 8.619-2.291-3.643-6.336-6.076-10.949-6.076-3.523 0-6.842 1.416-9.272 3.919-2.431-2.504-5.749-3.919-9.271-3.919-4.613 0-8.658 2.434-10.95 6.077-.055-3.078-.989-6.054-2.726-8.62-.31-.456-.931-.579-1.389-.268-.457.31-.577.931-.268 1.389 1.565 2.313 2.393 5.003 2.393 7.782v13.4h-11.05c-.552 0-1-.449-1-1v-6.173c0-14.565 10.924-26.574 25.409-27.933.514-.048.906-.479.906-.996v-1.886c2.464.874 5.112 1.354 7.871 1.354 2.76 0 5.408-.48 7.872-1.355v1.886c0 .516.393.947.906.996 14.485 1.359 25.408 13.368 25.408 27.933v6.173c0 .551-.448 1-1 1h-10.9zm34.082-1.687c1.76 5.308 2.865 9.74 3.479 13.947.042.289-.041.57-.232.792-.194.225-.466.349-.763.349h-22.85c.112-.314.184-.648.184-1v-6.173c0-5.4-1.407-10.468-3.883-14.852 1.96-1.704 5.268-5.262 5.268-9.885 0-2.461-.523-4.412-1.197-6.057 1.514.282 3.071.438 4.666.438 1.896 0 3.742-.213 5.522-.605 2.912 6.182 7.671 16.603 9.806 23.046zm-14.327-24.463v-8.312c0-12.715 10.079-23.12 22.666-23.646v8.313c0 12.714-10.079 23.119-22.666 23.645z"/><path d="m49 111.445h-8.375c-.553 0-1 .448-1 1s.447 1 1 1h8.375c.553 0 1-.448 1-1s-.447-1-1-1z"/><path d="m37.383 45.778c-1.249 0-2.261 1.012-2.261 2.261s1.012 2.261 2.261 2.261 2.261-1.012 2.261-2.261-1.012-2.261-2.261-2.261z"/><path d="m57.332 45.778c-1.249 0-2.261 1.012-2.261 2.261s1.012 2.261 2.261 2.261 2.261-1.012 2.261-2.261-1.013-2.261-2.261-2.261z"/><path d="m50.929 55.531v-1.507c0-.552-.447-1-1-1s-1 .448-1 1v1.507c0 .866-.705 1.571-1.571 1.571s-1.571-.705-1.571-1.571v-1.507c0-.552-.447-1-1-1s-1 .448-1 1v1.507c0 1.969 1.603 3.571 3.571 3.571s3.571-1.602 3.571-3.571z"/><path d="m55.611 43.661 4.428.771c.059.01.116.015.173.015.478 0 .899-.342.984-.829.095-.544-.27-1.062-.813-1.157l-4.428-.771c-.555-.091-1.063.27-1.157.814s.269 1.062.813 1.157z"/><path d="m38.76 41.69-4.427.771c-.544.095-.908.613-.813 1.157.085.486.507.829.984.829.057 0 .114-.005.173-.015l4.427-.771c.544-.095.908-.613.813-1.157s-.607-.906-1.157-.814z"/></g></g></g></g></svg>