<svg id="Layer_1" enable-background="new 0 0 128 128" height="512" viewBox="0 0 128 128" width="512" xmlns="http://www.w3.org/2000/svg"><g><path d="m122.771 35.889c4.418-8.829 2.192-18.313-1.056-23.75-.554-.925-1.892-1.301-2.87-.803-.422.216-1.717 1.108-.67 3.547.634 1.476.36 8.979-3.616 14.525-2.971 4.145-7.221 6.193-12.637 6.1-3.959-5.626-10.498-9.314-17.876-9.314h-10.172c-7.382 0-13.916 3.683-17.874 9.304-4.454.071-8.095-1.308-10.806-4.131-5.234-5.449-5.535-14.527-5.371-16.582.76-1.506.219-2.7-.69-3.231-1.027-.6-2.358-.332-2.906.585-3.248 5.438-5.474 14.921-1.056 23.751 3.862 7.714 9.507 12.343 16.852 13.861v1.526c-1.731.215-3.263.746-4.592 1.589-2.294-3.758-4.893-4.902-5.052-4.969-.335-.14-.718-.088-1.005.136l-6.04 4.747c-1.38 1.084-2.87 1.963-4.431 2.643l-.785-3.717c-.456-2.158-2.589-3.541-4.741-3.087-2.157.456-3.542 2.582-3.087 4.74l.785 3.717c-1.702.009-3.421-.192-5.122-.625l-7.444-1.899c-.354-.092-.725.019-.974.282-.175.185-4.253 4.634-2.205 14.33 2.049 9.697 7.577 12.117 7.812 12.215.125.052.256.078.387.078.221 0 .438-.073.618-.214l6.041-4.747c1.38-1.084 2.87-1.963 4.431-2.643l6.416 30.377c-2.106 1.723-3.453 4.34-3.453 7.267 0 5.177 4.212 9.39 9.39 9.39h77.986c1.624 0 2.973-1.319 3.006-2.941.005-.253.008-.506.008-.761 0-16.249-8.885-30.942-22.172-38.218 1.971-3.873 3.508-8.137 4.435-12.348 1.42.776 2.997 1.168 4.726 1.168 2.503 0 5.32-.813 8.426-2.436.317-.166.522-.489.536-.847.012-.305.234-7.501-4.773-11.238-1.469-1.096-3.231-1.742-5.244-1.99l-.004-1.521c7.352-1.515 13.005-6.146 16.869-13.866zm-74.785 38.553c.119-.126 2.06-2.248 2.624-6.672.123.004.25.015.372.015 1.729 0 3.306-.392 4.726-1.168.927 4.211 2.464 8.476 4.435 12.348-8.912 4.881-15.836 13.101-19.434 22.886l-6.263-29.651c1.702-.009 3.421.192 5.121.625l7.444 1.899c.354.09.725-.019.975-.282z" fill="#e6e7e8"/><g><g><path d="m91.15 77.663c-.674 1.101-1.378 2.154-2.114 3.135-1.321 1.762-1.828 3.968-1.497 6.005.105.648.125 1.326.049 2.019-.42 3.826-3.787 6.644-7.427 6.644h-10.38c-3.639 0-7.007-2.818-7.427-6.643-.076-.694-.056-1.371.049-2.02.331-2.037-.176-4.242-1.497-6.004-.736-.981-1.44-2.035-2.114-3.135-7.355 7.596-12.172 20.221-12.172 34.522 0 1.248.044 2.481.116 3.702h56.47c.072-1.221.116-2.453.116-3.702 0-14.302-4.817-26.927-12.172-34.523z" fill="#ffd7e5"/><g fill="#fa759e"><path d="m58.794 77.665c-.453-.74-.891-1.502-1.312-2.286-13.324 6.821-22.511 21.178-22.511 37.805 0 .909.037 1.808.091 2.702h11.674c-.072-1.221-.116-2.453-.116-3.702 0-14.301 4.818-26.924 12.174-34.519z"/><path d="m92.46 75.379c-.42.784-.859 1.546-1.312 2.286 7.356 7.595 12.174 20.218 12.174 34.519 0 1.248-.044 2.481-.116 3.702h9.751c1.09 0 1.983-.871 2.006-1.961.005-.246.008-.493.008-.741 0-16.627-9.187-30.984-22.511-37.805z"/></g></g><g><g><g fill="#ffd7e5"><path d="m100.919 48.175v4.832c0 1.908-1.179 3.534-2.845 4.206-.014.155-.022.305-.039.462-.114 1.094-.279 2.198-.484 3.304 2.764 2.154 6.973 2.828 13.372-.515 0 0 .449-11.689-10.004-12.289z"/><path d="m51.907 57.676c-.017-.167-.026-.327-.041-.492-1.686-.723-2.843-2.47-2.843-4.404v-4.605c-2.585.148-4.502.977-5.925 2.137.83 1.563 1.591 3.526 2.115 6.006.528 2.498.623 4.612.491 6.385 2.853.317 5.032-.434 6.688-1.724-.206-1.105-.371-2.209-.485-3.303z"/></g><g><g><g><g><path d="m96.378 57.548c-1.996 0-3.673-1.297-4.281-3.087-.609 1.79-2.285 3.087-4.281 3.087s-3.672-1.297-4.281-3.087c-.609 1.79-2.285 3.087-4.281 3.087s-3.673-1.297-4.281-3.087c-.609 1.79-2.285 3.087-4.281 3.087s-3.673-1.297-4.281-3.087c-.609 1.79-2.285 3.087-4.281 3.087s-3.673-1.296-4.281-3.087c-.632 1.859-2.415 3.185-4.511 3.081-.524-.026-1.012-.162-1.469-.358.015.165.024.325.041.492.859 8.217 4.385 16.967 8.999 23.122 1.321 1.762 1.828 3.967 1.497 6.004-.105.649-.125 1.326-.049 2.02.42 3.826 3.788 6.643 7.427 6.643h10.381c3.639 0 7.007-2.818 7.427-6.644.076-.693.056-1.371-.049-2.019-.331-2.037.176-4.243 1.497-6.005 4.614-6.155 8.14-14.905 8.999-23.122.016-.157.024-.307.039-.462-.529.212-1.099.335-1.7.335z" fill="#ffd7e5"/><path d="m80.046 23.193h-10.172c-11.516 0-20.851 9.335-20.851 20.851v8.736c0 2.459 1.856 4.641 4.312 4.762 2.096.104 3.879-1.222 4.511-3.081.609 1.79 2.285 3.087 4.281 3.087s3.673-1.297 4.281-3.087c.609 1.79 2.285 3.087 4.281 3.087s3.673-1.297 4.282-3.087c.609 1.79 2.285 3.087 4.281 3.087s3.673-1.297 4.282-3.087c.609 1.79 2.285 3.087 4.281 3.087s3.673-1.297 4.281-3.087c.609 1.79 2.285 3.087 4.281 3.087 2.508 0 4.541-2.033 4.541-4.541v-9.014c-.027-11.496-9.376-20.8-20.872-20.8z" fill="#fa759e"/></g></g></g></g><g fill="#6dc9f7"><path d="m49.023 44.044c0-4.278 1.292-8.252 3.502-11.561-17.071.658-18.076-18.648-17.677-21.996 1.22-2.135-1.205-2.769-1.762-1.836-2.542 4.254-5.579 13.681-1.02 22.791 4.509 9.008 10.966 12.441 16.957 13.488z"/><path d="m116.856 8.651c-.557-.933-2.918-.856-1.762 1.836 1.33 3.099-.573 22.652-17.686 21.995 2.205 3.296 3.5 7.251 3.511 11.511v.937c5.991-1.048 12.448-4.48 16.957-13.488 4.559-9.11 1.522-18.536-1.02-22.791z"/></g><path d="m80.046 23.193h-10.172c-11.516 0-20.851 9.335-20.851 20.851v3c0-11.516 9.335-20.851 20.851-20.851h10.172c11.496 0 20.845 9.304 20.873 20.8v-3c-.028-11.496-9.377-20.8-20.873-20.8z" fill="#fff"/></g></g><g><path d="m34.971 99.107c.337 0 .667.026.994.064l-10.825-51.258c-.342-1.621-1.934-2.658-3.555-2.315s-2.658 1.934-2.315 3.555l10.874 51.49c1.365-.965 3.028-1.536 4.827-1.536z" fill="#0089ef"/><path d="m37.993 44.819-6.041 4.747c-5.214 4.098-11.82 5.493-18.246 3.853l-7.443-1.899s-3.916 4.142-1.953 13.437 7.219 11.5 7.219 11.5l6.041-4.747c5.214-4.098 11.82-5.493 18.246-3.853l7.444 1.899s3.916-4.142 1.953-13.437c-1.964-9.296-7.22-11.5-7.22-11.5z" fill="#d4fbff"/><g><path d="m20.302 54.041 3.048 14.433c1.889-.698 3.861-1.114 5.871-1.24l-3.048-14.433c-1.89.698-3.862 1.115-5.871 1.24z" fill="#6dc9f7"/></g></g><g><circle cx="34.971" cy="107.496" fill="#fa759e" r="8.39"/><g fill="#3a2c60"><path d="m66.971 114.886h-7.364c-.553 0-1 .448-1 1s.447 1 1 1h7.364c.553 0 1-.448 1-1s-.447-1-1-1z"/><path d="m62.295 61.6c-1.759 0-3.185 1.426-3.185 3.185s1.426 3.185 3.185 3.185 3.185-1.426 3.185-3.185c-.001-1.76-1.426-3.185-3.185-3.185z"/><circle cx="88.034" cy="64.784" r="3.185"/><path d="m118.771 31.89c4.418-8.829 2.193-18.313-1.056-23.751-.554-.925-1.892-1.301-2.87-.803-.422.216-1.717 1.108-.67 3.547.608 1.417.363 8.718-3.419 14.225-2.973 4.328-7.279 6.456-12.837 6.371-3.966-5.609-10.5-9.285-17.873-9.285h-10.172c-7.375 0-13.904 3.677-17.863 9.289-4.563.067-8.275-1.378-11.009-4.341-4.713-5.106-5.438-13.561-5.181-16.353.763-1.508.222-2.703-.688-3.235-1.027-.6-2.358-.333-2.906.586-3.249 5.438-5.474 14.922-1.056 23.751 3.837 7.664 9.507 12.315 16.852 13.856v1.516c-1.735.216-3.271.755-4.598 1.595-2.292-3.75-4.887-4.893-5.046-4.96-.335-.14-.718-.088-1.005.136l-6.04 4.747c-1.38 1.084-2.871 1.963-4.432 2.643l-.785-3.717c-.221-1.045-.835-1.942-1.73-2.525s-1.962-.781-3.01-.562c-1.045.221-1.941.835-2.525 1.731-.583.896-.782 1.964-.562 3.009l.785 3.717c-1.702.009-3.421-.192-5.122-.625l-7.444-1.899c-.354-.092-.725.019-.974.282-.175.185-4.253 4.634-2.205 14.33 2.049 9.697 7.577 12.117 7.812 12.215.125.052.256.078.387.078.221 0 .438-.073.618-.214l6.041-4.747c1.38-1.084 2.87-1.962 4.431-2.643l6.415 30.377c-2.105 1.723-3.452 4.34-3.452 7.266 0 5.177 4.212 9.39 9.39 9.39h11.765 8.818c.553 0 1-.448 1-1s-.447-1-1-1h-7.863c-.043-.941-.071-1.844-.071-2.702 0-12.958 4.109-25.121 11.031-32.876.471.72.954 1.422 1.454 2.09 1.13 1.507 1.607 3.418 1.31 5.245-.121.752-.14 1.522-.056 2.289.464 4.225 4.163 7.534 8.421 7.534h10.381c4.258 0 7.957-3.31 8.421-7.535.084-.767.065-1.536-.056-2.289-.297-1.827.181-3.738 1.31-5.245.5-.667.983-1.369 1.454-2.089 6.922 7.754 11.031 19.918 11.031 32.876 0 .858-.028 1.761-.071 2.702h-30.944c-.553 0-1 .448-1 1s.447 1 1 1h31.899 9.751c1.624 0 2.973-1.319 3.006-2.941.005-.253.008-.506.008-.761 0-16.239-8.48-30.771-22.178-38.206 1.973-3.874 3.512-8.141 4.441-12.356 1.417.779 2.991 1.171 4.72 1.171 2.499 0 5.316-.814 8.432-2.442.318-.166.522-.49.536-.848.005-.123.334-11.964-10.002-13.239v-1.518c7.344-1.542 13.014-6.193 16.851-13.857zm-6.366-5.651c4.023-5.857 4.623-13.783 3.608-16.146-.271-.632-.246-.954-.261-.976.063-.022.21.014.246.047 2.406 4.03 5.322 13.162.983 21.83-3.476 6.946-8.544 11.214-15.07 12.712-.057-3.707-1.042-7.194-2.736-10.238 5.57-.252 10.135-2.722 13.23-7.229zm-42.531-2.047h10.172c10.931 0 19.846 8.884 19.873 19.801v9.014c0 1.953-1.589 3.541-3.541 3.541-1.505 0-2.845-.968-3.334-2.409-.139-.405-.519-.678-.947-.678s-.809.272-.946.678c-.491 1.441-1.831 2.409-3.335 2.409-1.505 0-2.845-.968-3.336-2.409-.138-.405-.519-.678-.946-.678-.429 0-.809.273-.947.678-.489 1.441-1.829 2.409-3.334 2.409-1.504 0-2.844-.968-3.335-2.409-.138-.405-.519-.678-.946-.678-.429 0-.809.273-.947.678-.489 1.441-1.829 2.409-3.334 2.409s-2.845-.968-3.334-2.409c-.139-.405-.519-.678-.947-.678s-.809.272-.946.678c-.491 1.441-1.831 2.409-3.336 2.409-1.504 0-2.844-.968-3.335-2.409-.138-.405-.519-.678-.946-.678-.429 0-.809.273-.946.678-.516 1.517-1.95 2.478-3.515 2.404-1.854-.092-3.361-1.78-3.361-3.764v-8.736c-.002-10.945 8.903-19.851 19.849-19.851zm-39.428 44.008c1.702-.009 3.421.192 5.122.625l7.444 1.899c.353.09.724-.019.974-.282.12-.126 2.065-2.252 2.627-6.688.122.004.249.021.369.021 1.735 0 3.316-.388 4.726-1.157.927 4.212 2.465 8.477 4.437 12.35-9.143 4.964-15.938 13.098-19.455 22.788zm2.514-37.206c-4.313-8.618-1.456-17.696.942-21.76.082-.012.207.016.262.077.041.045.049.271-.185.68-.066.116-.109.245-.125.377-.251 2.104-.029 11.944 5.678 18.128 2.874 3.115 6.649 4.781 11.226 4.976-1.689 3.042-2.67 6.527-2.727 10.234-6.527-1.497-11.594-5.766-15.071-12.712zm15.063 18.309v3.476c0 2.184 1.171 4.072 2.896 5.051.094.889.224 1.789.38 2.695-1.304.863-2.827 1.281-4.551 1.243.038-1.641-.104-3.514-.557-5.657-.459-2.176-1.099-3.968-1.81-5.467 1.039-.684 2.256-1.135 3.642-1.341zm-15.452 1.049 5.525-4.343c1.278.789 4.651 3.476 6.138 10.516 1.488 7.047-.514 10.869-1.36 12.1l-6.812-1.738c-2.005-.512-4.033-.732-6.038-.685l-2.699-12.782c1.852-.766 3.618-1.789 5.246-3.068zm-4.561 15.994c-1.328.155-2.636.431-3.913.826l-2.586-12.242c1.328-.155 2.636-.431 3.913-.826zm-7.763-17.401c-.11-.522-.011-1.057.28-1.504.292-.448.74-.755 1.264-.865.521-.11 1.058-.011 1.504.281.448.292.755.74.865 1.263l.849 4.019c-1.274.407-2.583.684-3.913.827zm-3.295 21.978-5.526 4.343c-1.278-.788-4.65-3.475-6.138-10.516-1.488-7.047.514-10.868 1.36-12.1l6.812 1.738c2.005.512 4.033.733 6.038.686l2.699 12.782c-1.853.766-3.618 1.788-5.245 3.067zm7.56-1.786c1.274-.407 2.584-.684 3.914-.826l6.296 29.809c-1.392.037-2.707.378-3.886.96zm3.069 38.359c0-4.074 3.315-7.389 7.39-7.389s7.39 3.315 7.39 7.389c0 4.075-3.315 7.39-7.39 7.39s-7.39-3.315-7.39-7.39zm18.04 4.688c0 .866.021 1.757.063 2.702h-4.939c2.197-1.72 3.617-4.39 3.617-7.39 0-3.949-2.454-7.33-5.914-8.715 3.317-9.385 9.836-17.266 18.643-22.051.153.272.304.547.461.815-7.478 8.095-11.931 20.963-11.931 34.639zm42.616-31.986c-1.454 1.939-2.068 4.405-1.685 6.764.093.574.106 1.163.042 1.751-.354 3.226-3.18 5.752-6.433 5.752h-4.19v-4.727c1.255-1.028 4.78-4.152 4.78-6.806 0-.552-.447-1-1-1s-1 .448-1 1c0 1.319-2.045 3.568-3.78 5.038-1.735-1.47-3.78-3.719-3.78-5.038 0-.552-.447-1-1-1s-1 .448-1 1c0 2.654 3.525 5.778 4.78 6.806v4.727h-4.19c-3.253 0-6.079-2.527-6.433-5.752-.064-.588-.051-1.178.042-1.751.384-2.359-.229-4.825-1.685-6.765-4.433-5.915-7.713-14.145-8.689-21.698.091.009.177.036.269.041 1.796.082 3.48-.689 4.563-2.036 1.03 1.267 2.587 2.043 4.277 2.043 1.693 0 3.252-.778 4.282-2.048 1.028 1.271 2.588 2.048 4.281 2.048s3.253-.778 4.281-2.048c1.029 1.27 2.589 2.048 4.281 2.048 1.693 0 3.253-.778 4.281-2.048 1.03 1.271 2.589 2.048 4.282 2.048 1.692 0 3.252-.778 4.281-2.048 1.028 1.27 2.588 2.048 4.281 2.048.184 0 .366-.01.545-.028-.975 7.549-4.254 15.771-8.683 21.679zm25.734 32.986c0 .241-.003.481-.008.72-.011.541-.462.981-1.006.981h-8.698c.042-.944.063-1.835.063-2.702 0-13.677-4.454-26.544-11.931-34.639.156-.264.305-.536.456-.806 13.047 7.088 21.124 20.949 21.124 36.446zm-4.05-53.332c-4.678 2.32-8.457 2.521-11.274.65.151-.882.277-1.758.37-2.624 1.727-.94 2.901-2.771 2.901-4.871v-3.708c7.182 1.074 7.941 8.403 8.003 10.553z"/></g></g></g></g></svg>