<svg id="Layer_1" enable-background="new 0 0 128 128" height="512" viewBox="0 0 128 128" width="512" xmlns="http://www.w3.org/2000/svg"><g><g><path d="m116.034 19.175c-5.658-7.345-19.66-8.182-20.253-8.214-.453-.027-.848.265-.989.687-7.747-2.04-14.641.297-16.598 1.074-1.685-1.091-7.493-4.146-16.642-1.578-9.324 2.619-16.896 10.987-20.772 22.957-3.528 10.893-3.432 22.566-.095 32.403-13.175 2.21-23.248 13.688-23.248 27.481 0 2.417.31 4.763.891 7.001-3 1.569-5.055 4.707-5.055 8.321 0 5.177 4.212 9.389 9.39 9.389 2.338 0 4.475-.865 6.12-2.284 4.471 3.303 9.961 5.313 15.903 5.444.053.003 66.529 0 66.529 0 1.654 0 3-1.346 3-3v-18.173c0-6.962-2.336-13.375-6.295-18.477 1.017-2.514 2.173-4.832 3.31-7.099 1.579-3.147 3.07-6.12 4.178-9.523 2.972-9.125 3.154-19.022 1.051-27.862.807-1.766 4.911-11.619-.425-18.547z" fill="#e6e7e8"/></g><g><g><g><path d="m65.157 67.754v-3.38c-7.714-3.317-13.219-10.79-13.663-19.609-.582 1.047-1.056 2.128-1.359 3.26-2.583 9.648.46 16.527 2.719 23.804 3.653-2.216 7.829-3.655 12.303-4.075z" fill="#ffd7e5"/></g><g><path d="m82.901 64.422v3.332c3.489.327 6.794 1.277 9.815 2.728.611-6.225 2.084-13.01 2.688-19.377-2.11 6.003-6.682 10.843-12.503 13.317z" fill="#ffd7e5"/></g></g><g><g><path d="m40.843 116.856h.465c-.208 0-.414-.011-.621-.016.052.004.102.016.156.016z" fill="#fff"/><path d="m82.901 67.754v-3.332c-2.712 1.153-5.694 1.795-8.828 1.795-3.169 0-6.178-.666-8.916-1.843v3.38c-2.355.221-4.627.725-6.784 1.474 5.987 4.928 9.806 12.396 9.806 20.756 0 14.84-12.031 26.871-26.871 26.871h65.908c1.105 0 2-.895 2-2v-18.172c0-15.123-11.554-27.544-26.315-28.929z" fill="#fff"/><g><path d="m94.643 38.183c-4.084-13.092-20.569-17.243-20.569-17.243s-2.714 5.076-7 8.792c-5.269 4.568-12.333 9.193-15.579 15.032.602 11.949 10.481 21.452 22.579 21.452 9.861 0 18.243-6.316 21.333-15.121.444-4.659.426-9.097-.764-12.912z" fill="#fff"/></g></g><path d="m83.301 85.335c-3.745 0-7.083 1.727-9.272 4.424-1.563-1.927-3.719-3.344-6.184-4.004.218 1.378.334 2.79.334 4.229 0 10.721-6.28 19.972-15.36 24.284v2.587h42.421v-19.581c0-6.593-5.345-11.939-11.939-11.939z" fill="#fa759e"/><g><path d="m83.301 85.335c-3.745 0-7.083 1.727-9.272 4.424-1.563-1.927-3.719-3.344-6.184-4.004.16 1.012.262 2.043.305 3.09 2.337.694 4.381 2.068 5.879 3.915 2.189-2.697 5.527-4.424 9.272-4.424 6.594 0 11.939 5.345 11.939 11.939v-3c0-6.595-5.345-11.94-11.939-11.94z" fill="#fff"/></g></g><g><path d="m94.643 38.183c-4.084-13.092-20.569-17.243-20.569-17.243s-2.714 5.076-7 8.792c-5.269 4.568-12.333 9.193-15.579 15.032.602 11.949 10.481 21.452 22.579 21.452 9.861 0 18.243-6.316 21.333-15.121.444-4.659.426-9.097-.764-12.912z" fill="#fff"/></g><g fill="#ffd7e5"><path d="m86.967 44.999c-1.109 0-2.008.567-2.008 1.266s.899 1.266 2.008 1.266 2.008-.567 2.008-1.266-.899-1.266-2.008-1.266z"/><path d="m61.18 44.718c-1.109 0-2.008.567-2.008 1.266s.899 1.266 2.008 1.266 2.008-.567 2.008-1.266-.899-1.266-2.008-1.266z"/></g><g><path d="m74.073 57.415c-3.443 0-5.195-2.373-5.268-2.474-.323-.448-.222-1.073.226-1.396.446-.322 1.068-.222 1.392.221.061.081 1.269 1.649 3.649 1.649 2.373 0 3.647-1.646 3.66-1.663.333-.439.96-.527 1.401-.193.44.333.526.961.193 1.401-.075.101-1.897 2.455-5.253 2.455z" fill="#fa759e"/></g><g><path d="m96.793 11.314c-10.974-6.819-22.72-1.457-22.72-1.457s-5.87-4.666-16.25-1.75c-18.915 5.313-27.534 34.172-19.778 55.211 1.07-.13 2.157-.204 3.262-.204 3.284 0 6.429.591 9.338 1.67-1.422-4.973-2.259-10.23-.511-16.759 1.994-7.446 10.725-12.905 16.938-18.292 4.286-3.716 7-8.792 7-8.792s16.485 4.151 20.569 17.243c3.369 10.799-2.57 26.543-2.194 38.408.625 19.738 8.61 28.752 8.61 28.752s-1.865-14.325 0-21.678c2.265-8.933 6.919-14.775 9.4-22.392 5.867-18.006.89-40.917-13.664-49.96z" fill="#ffd7e5"/></g><path d="m111.241 15.785c-5.442-7.066-19.513-7.825-19.513-7.825s-2.859 13.799 2.584 20.865c5.442 7.066 17.125 4.724 17.125 4.724s5.247-10.697-.196-17.764z" fill="#6dc9f7"/><circle cx="41.308" cy="89.985" fill="#6dc9f7" r="26.871"/><g><g><path d="m55.715 98.633c.928.164 1.992 1.033 1.743 2.439-.123.695-.195 3.068-1.586 3.864-1.462.837-2.453 2.26-2.759 2.007-.759-.627.801-1.807 1.309-3.625.289-1.035-.085-2.222.083-3.088.198-1.029.93-1.647 1.21-1.597z" fill="#0089ef"/></g><g><path d="m58.68 77.958c1.5-.068 1.74 1.31 2.52 1.834s2.882.786 2.882.786l2.452.129c-2.718-7.389-8.59-13.254-15.984-15.962.083.406-.059.81-.618 1.159-2.096 1.31-3.931 1.31-3.931 1.31s-1.887.202-2.782 1.338-.263 1.993-.624 3.117-1.834.786-1.834.786-3.12-.871-4.509.809c-.535.647-.105 3.208-.799 4.112-1.108 1.443-2.581 1.94-2.309 3.188.222 1.014 2.167 2.736 3.66 1.727 1.104-.746.124-1.827.823-2.634.81-.937 2.945-1.193 3.659-1.419 2.658-.842 4.503-.564 5.816.291 1.313.854.932 3.781 2.734 4.073.792.128 1.931.503 2.464.131.339-.237.798.597.584 1.282s-1.365 1.146-2.17 1.178-1.613-.348-1.906-.557c-1.452-1.032-4.039.688-5.247.907-1.207.218-2.059-1.326-4.275-.441s-4.021 2.943-4.021 2.943c-.264.192-.475.443-.618.736-.474.971-1.55 3.225-1.55 3.685 0 .41.044 2.109 1.222 3.017s2.366 1.555 2.713 1.901c.59.59 1.377 1.377 2.557 2.951s1.269 5.312.679 6.492c-.382.764.307 2.434.841 3.517.309.626.924 1.04 1.62 1.098.782.065 4.892-1.871 5.272-2.557.462-.833 1.025-1.88 1.138-2.218.168-.503.348-3.763 1.833-5.533s4.797-5.882 4.397-8.223-2.187-1.599-3.027-3.94c-.428-1.193-1.562-2.151-1.231-2.589s.995-.481 1.787-.103c.324.155.551 1.663 1.178 2.727.596 1.012 1.587 1.586 2.106 1.62 1.064.071 3.369-2.056 3.526-3.269.06-.468-1.514-.468-2.184-1.328-1.069-1.371-.4-2.456-1.028-2.912-.628-.457-1.42-.002-1.628-.286-.543-.742.73-1.695.579-2.461-.15-.767 2.522-2.38 3.233-2.412z" fill="#0089ef"/></g><g><path d="m14.437 89.985c0 3.287.593 6.435 1.673 9.347 1.656 1.723 3.797 2.948 4.34 2.706.532-.237 1.246-2.171 1.182-4.36-.054-1.855-.873-3.823-.685-5.825.24-2.557 1.657-4.528 2.227-5.575.68-1.25 2.975-1.322 4.454-2.391 1.875-1.355 2.912-3.711 2.912-5.482 0-1.276-2.132-6.126-3.845-7.821-.784-.776-1.559-1.238-2.257-1.508-6.097 4.925-10.001 12.459-10.001 20.909z" fill="#0089ef"/></g></g><g><circle cx="18.663" cy="105.307" fill="#fff" r="8.39"/><g fill="#3a2c60"><path d="m88.029 115.855h-5.375c-.552 0-1 .447-1 1s.448 1 1 1h5.375c.552 0 1-.447 1-1s-.447-1-1-1z"/><path d="m64.099 42.705c1.249 0 2.261-1.012 2.261-2.261s-1.012-2.261-2.261-2.261-2.261 1.012-2.261 2.261 1.013 2.261 2.261 2.261z"/><path d="m84.048 38.183c-1.249 0-2.261 1.012-2.261 2.261s1.012 2.261 2.261 2.261 2.261-1.012 2.261-2.261-1.013-2.261-2.261-2.261z"/><path d="m74.073 51.507c1.969 0 3.571-1.602 3.571-3.571v-1.507c0-.552-.448-1-1-1s-1 .448-1 1v1.507c0 .866-.705 1.571-1.571 1.571s-1.571-.705-1.571-1.571v-1.507c0-.552-.448-1-1-1s-1 .448-1 1v1.507c0 1.969 1.603 3.571 3.571 3.571z"/><path d="m82.327 36.065 4.427.771c.058.01.116.015.173.015.477 0 .899-.342.984-.828.095-.544-.27-1.062-.813-1.157l-4.427-.771c-.544-.092-1.062.27-1.157.813-.095.545.269 1.062.813 1.157z"/><path d="m112.034 15.175c-5.658-7.345-19.659-8.182-20.252-8.214-.451-.024-.856.271-.993.699-7.745-2.036-14.639.286-16.594 1.062-1.684-1.092-7.493-4.146-16.642-1.578-7.325 2.058-13.697 7.771-17.941 16.088-5.953 11.665-7.042 26.928-2.895 39.266-13.19 2.196-23.28 13.682-23.28 27.486 0 2.417.33 4.754.912 6.991-3.011 1.566-5.076 4.709-5.076 8.331 0 5.178 4.212 9.39 9.39 9.39 2.348 0 4.493-.873 6.141-2.303 4.441 3.281 9.875 5.276 15.771 5.43.09.008.175.032.268.032h38.187c.552 0 1-.447 1-1s-.448-1-1-1h-25.212v-.977c9.101-4.592 15.36-14.023 15.36-24.894 0-.924-.048-1.836-.136-2.737 1.614.687 3.068 1.735 4.21 3.142.38.469 1.174.469 1.553 0 2.091-2.577 5.188-4.055 8.496-4.055 6.032 0 10.938 4.907 10.938 10.939v18.581h-2.21c-.552 0-1 .447-1 1s.448 1 1 1h15.186c1.654 0 3-1.346 3-3v-18.171c0-6.962-2.337-13.372-6.296-18.473 1.017-2.515 2.174-4.834 3.312-7.103 1.579-3.146 3.07-6.119 4.178-9.523 2.972-9.124 3.151-19.019 1.049-27.858.802-1.756 4.916-11.618-.424-18.551zm-19.481-6.144c3.1.303 13.552 1.725 17.896 7.365 3.827 4.968 1.87 12.076.724 15.172l-3.06-3.973 1.08-8.324c.071-.548-.315-1.049-.863-1.121-.55-.072-1.05.315-1.121.863l-.823 6.341-4.729-6.139.615-4.736c.071-.548-.315-1.049-.863-1.121-.551-.076-1.05.315-1.121.863l-.357 2.753-2.592-3.366c-.338-.438-.966-.518-1.403-.182-.438.337-.519.965-.182 1.403l2.592 3.365-2.753-.357c-.551-.077-1.05.315-1.121.863s.315 1.049.863 1.121l4.737.615 4.728 6.139-6.34-.823c-.553-.074-1.049.315-1.121.863-.071.548.315 1.049.863 1.121l8.324 1.08 3.062 3.976c-3.284.321-10.65.404-14.486-4.576-4.336-5.633-3.046-16.109-2.549-19.185zm-73.89 103.665c-4.075 0-7.39-3.315-7.39-7.39s3.315-7.39 7.39-7.39 7.39 3.315 7.39 7.39-3.315 7.39-7.39 7.39zm22.645 3.159c-5.655 0-10.874-1.845-15.136-4.936 1.175-1.568 1.88-3.507 1.88-5.613 0-5.178-4.212-9.39-9.39-9.39-.844 0-1.658.122-2.436.332-.504-2.008-.79-4.102-.79-6.265 0-14.265 11.606-25.871 25.871-25.871s25.872 11.608 25.872 25.872c0 14.266-11.606 25.871-25.871 25.871zm9.702-67.201c1.588 7.322 6.546 13.338 13.147 16.39v1.812c-1.941.24-3.815.669-5.613 1.25-2.128-1.68-4.504-3.055-7.066-4.063-1.207-4.347-2.033-9.229-.468-15.389zm9.428-12.203c.186.241.467.4.782.4.057 0 .115-.005.173-.015l4.427-.771c.544-.095.908-.613.813-1.157-.095-.543-.609-.905-1.157-.813l-2.733.476c.276-.221.551-.443.826-.663 1.465-1.175 2.85-2.284 4.16-3.42 3.465-3.005 5.904-6.81 6.824-8.368 3.162.974 15.741 5.481 19.135 16.361 1.127 3.612 1.159 7.879.742 12.368-3.058 8.597-11.225 14.368-20.357 14.368-11.437 0-20.85-8.876-21.556-20.251 1.798-3.095 4.74-5.866 7.921-8.515zm31.424 32.542c-2.493-1.045-5.154-1.79-7.961-2.137v-1.79c3.952-1.814 7.353-4.702 9.796-8.355-.207 1.387-.429 2.777-.651 4.159-.433 2.699-.873 5.444-1.184 8.123zm-8.561 15.342c-3.522 0-6.841 1.415-9.272 3.92-1.488-1.534-3.314-2.645-5.311-3.285-1.093-5.987-4.101-11.31-8.369-15.311 1.579-.437 3.214-.751 4.902-.909.514-.049.907-.48.907-.996v-1.896c2.477.879 5.142 1.359 7.916 1.359 2.72 0 5.356-.481 7.828-1.352v1.89c0 .516.393.947.907.996 3.141.295 6.111 1.097 8.842 2.311-.171 1.918-.256 3.787-.2 5.562.144 4.533.668 8.501 1.392 11.941-2.37-2.592-5.764-4.23-9.542-4.23zm24.914 12.348v18.173c0 .552-.449 1-1 1h-10.975v-16.673c2.005 4.436 3.909 6.642 4.07 6.824.194.22.469.337.749.337.14 0 .281-.029.414-.09.4-.182.634-.604.578-1.039-.019-.142-1.818-14.222-.022-21.303.305-1.203.657-2.351 1.042-3.457 3.239 4.587 5.144 10.179 5.144 16.228zm1.293-35.719c-1.062 3.26-2.521 6.167-4.064 9.246-1.993 3.972-4.053 8.079-5.354 13.21-1.285 5.068-.868 13.168-.446 18.019-2.341-4.132-5.796-12.283-6.195-24.878-.147-4.659.688-9.863 1.572-15.373 1.311-8.164 2.666-16.605.577-23.302-4.203-13.472-20.584-17.739-21.279-17.914-.447-.114-.91.093-1.126.498-.026.049-2.675 4.954-6.773 8.508-1.281 1.11-2.65 2.208-4.101 3.37-5.647 4.527-11.486 9.208-13.149 15.418-1.648 6.155-1.026 11.243.033 15.494-2.505-.741-5.152-1.146-7.894-1.146-.867 0-1.723.045-2.57.123-4.135-11.912-3.125-26.768 2.655-38.095 3.988-7.814 9.919-13.167 16.701-15.072 9.709-2.729 15.134 1.395 15.357 1.57.293.234.695.283 1.036.127.092-.041 7.576-3.332 15.942-1.108-.588 4.129-1.391 13.959 3.09 19.776 3.529 4.582 9.351 5.498 13.443 5.498 1.555 0 2.851-.132 3.686-.246 1.886 8.349 1.665 17.662-1.141 26.277z"/></g></g></g></g></svg>