<svg id="Layer_1" enable-background="new 0 0 128 128" height="512" viewBox="0 0 128 128" width="512" xmlns="http://www.w3.org/2000/svg"><g><path d="m87.518 69.488c8.287-4.562 13.916-13.379 13.916-23.489v-13.203c0-2.118-.255-4.177-.721-6.154h8.452c.345 0 .666-.178.849-.472.183-.293.201-.659.049-.97l-1.623-3.303 1.299-.912c.273-.191.433-.507.425-.841-.007-.334-.181-.643-.463-.821l-2.804-1.782 2.884-2.253c.336-.263.469-.71.33-1.113-.139-.404-.519-.675-.945-.675h-15.964c-4.82-4.639-11.362-7.5-18.564-7.5-14.774 0-26.793 12.019-26.793 26.792v13.211c0 10.108 5.628 18.924 13.913 23.485-16.034 2.802-28.263 16.814-28.263 33.638v4.176h-16.279c-.386 0-.737.222-.903.57-.166.349-.116.762.128 1.061l2.419 2.973-2.337 2.249c-.21.202-.322.486-.305.778.017.291.16.561.392.737l3.061 2.335-3.138 2.943c-.299.281-.396.716-.246 1.098.151.381.52.632.93.632h16.279v.04c0 1.81 1.472 3.282 3.282 3.282h75.726c1.81 0 3.282-1.473 3.282-3.282v-19.592c-.002-16.824-12.232-30.837-28.268-33.638z" fill="#e6e7e8"/><g><path d="m101.164 13.625 4-3.125h-16.373c3.075 3.051 5.379 6.865 6.613 11.141h9.76l-2-4.071 2-1.404z" fill="#d4fbff"/><path d="m30.495 117.678v-13.376h-17.279l3 3.687-3 2.886 4 3.051-4 3.752z" fill="#d4fbff"/><g><path d="m13.216 104.302 2.441 3h14.838v-3z" fill="#fff"/></g><g><path d="m79.943 66.058c9.646-3.734 16.491-13.094 16.491-24.059v-13.203c0-14.247-11.549-25.796-25.796-25.796-14.245 0-25.793 11.548-25.793 25.792v13.211c0 10.963 6.843 20.322 16.488 24.055-17.229 1.192-30.838 15.536-30.838 33.068v19.592c0 1.26 1.022 2.282 2.282 2.282h75.726c1.26 0 2.282-1.022 2.282-2.282v-19.592c-.001-17.533-13.611-31.878-30.842-33.068z" fill="#d4fbff"/><g><path d="m96.356 43.903c.046-.63.077-1.263.077-1.904v-13.203c0-2.101-.257-4.141-.731-6.097l-50.622 2.655c-.15 1.125-.235 2.271-.235 3.438v13.211c0 1.567.147 3.098.415 4.588z" fill="#ffd7e5"/></g><g fill="#fa759e"><path d="m77.056 37.027v.292c0 2.337 3.234 4.051 6.567 3.478 2.342-.402 3.983-1.835 3.983-3.478v-3.147z"/><path d="m64.223 37.027v.292c0 2.337-3.234 4.051-6.567 3.478-2.342-.402-3.983-1.835-3.983-3.478v-3.147z"/></g></g><g fill="#3a2c60"><path d="m59.796 120h-7.411c-.552 0-1 .447-1 1s.448 1 1 1h7.411c.552 0 1-.447 1-1s-.448-1-1-1z"/><path d="m83.515 65.49c3.408-1.875 6.365-4.47 8.667-7.58.02-.021.031-.047.049-.069 3.267-4.441 5.202-9.919 5.202-15.842v-13.203c0-2.118-.255-4.177-.721-6.154h8.452c.345 0 .666-.178.849-.472.183-.293.201-.659.049-.97l-1.623-3.303 1.299-.912c.273-.191.433-.507.425-.841-.007-.334-.181-.643-.463-.821l-2.804-1.782 2.884-2.253c.336-.263.469-.71.33-1.113-.139-.404-.519-.675-.945-.675h-15.963c-.06-.057-.119-.114-.179-.171-.03-.031-.058-.06-.091-.087-4.793-4.487-11.226-7.242-18.294-7.242-8.076 0-15.323 3.596-20.239 9.266-.03.03-.056.061-.082.095-4.029 4.689-6.471 10.779-6.471 17.431v13.211c0 6.915 2.634 13.226 6.95 17.984.029.032.054.065.087.093 1.975 2.157 4.298 3.99 6.879 5.41-16.036 2.8-28.267 16.811-28.267 33.636v4.176h-16.279c-.386 0-.737.222-.903.57-.166.349-.116.762.128 1.061l2.419 2.973-2.337 2.249c-.21.202-.322.486-.305.778.017.291.16.561.392.737l3.061 2.335-3.138 2.943c-.299.281-.397.716-.246 1.098.151.381.52.632.93.632h16.279v.04c0 1.81 1.472 3.282 3.282 3.282h14.745c.552 0 1-.447 1-1s-.448-1-1-1h-14.746c-.707 0-1.282-.575-1.282-1.282v-.148l51.617-5.863-2.859 7.293h-15.889c-.552 0-1 .447-1 1s.448 1 1 1h44.138c1.81 0 3.282-1.473 3.282-3.282v-19.592c0-16.825-12.232-30.837-28.269-33.636zm21.959 31.466 4.193-.474c.071.873.118 1.753.118 2.644v8.54l-8.906 1.011zm.826-2.107 2.05-5.228c.489 1.576.855 3.204 1.097 4.873zm-16.937 1.913-39.493 4.462 43.803-15.455zm5.276-13.455-53.612 18.917-9.531 1.077v-4.174c0-1.856.167-3.672.47-5.443l62.387-22.012c1.328.812 2.593 1.719 3.786 2.709zm-41.775-14.471 13.018 10.759-12.177 4.296-11.026-9.111c2.974-2.565 6.416-4.598 10.185-5.944zm33.754 3.443.833-3.769c1.576.507 3.097 1.134 4.557 1.867zm-1.092-4.326-1.13 5.109-12.294 4.338 1.952-8.831c2.094-.268 4.113-.774 6.028-1.498 1.862.142 3.682.436 5.444.882zm-39.052-20.424 35.278-1.855c.024.017.038.043.063.058l11.142 6.712c.044.026.09.04.136.058-.62 1.32-1.354 2.575-2.187 3.756l-38.923 2.047c-2.655-3.034-4.581-6.716-5.509-10.776zm1.473-28.708 24.005 4.123-25.689 1.348c.351-1.91.92-3.742 1.684-5.471zm3.641-5.875 36.333-1.906c3.004 2.925 5.27 6.602 6.491 10.725l-13.411.703-32.139-5.52c.779-1.424 1.694-2.764 2.726-4.002zm23.762-8.491c3.855.745 7.393 2.385 10.392 4.696l-13.534.71 3.125-5.357c.009-.016.009-.033.017-.049zm18.52 46.204-8.585-5.172 9.965-.524c-.237 1.979-.704 3.888-1.38 5.696zm-48.025-8.656v-13.211c0-.838.043-1.666.125-2.482l48.945-2.567c.339 1.632.519 3.322.519 5.054v13.203c0 .319-.012.636-.024.952l-49.307 2.593c-.167-1.158-.258-2.339-.258-3.542zm19.654 17.594 2.397 7.042c-5.395-.596-10.273-2.93-14.062-6.429zm4.558 7.183-2.482-7.292 12.252-.644 1.825 5.362c-3.321 1.654-7.06 2.59-11.015 2.59-.194-.001-.386-.011-.58-.016zm13.377-3.55-1.53-4.495 7.354-.387c-1.678 1.908-3.64 3.56-5.824 4.882zm17.194-48.761 2.736 1.739-.774.544c-.403.282-.541.817-.323 1.26l1.292 2.63h-7.398c-1.086-3.39-2.829-6.486-5.08-9.142h11.179l-1.711 1.337c-.256.2-.399.512-.383.837.015.324.188.621.462.795zm-27.396-10.333-3.412 5.85-16.252.853c4.449-4.233 10.459-6.839 17.07-6.839.876 0 1.741.047 2.594.136zm-2.594 64.659c.444 0 .885-.012 1.324-.034l-2.083 9.423-1.798.635-12.943-10.697c1.952-.537 3.977-.891 6.058-1.05 2.938 1.11 6.119 1.723 9.442 1.723zm-29.447 7.349 10.314 8.524-19.064 6.727c1.459-5.889 4.544-11.139 8.75-15.251zm-25.447 40.534 2.156-2.022c.214-.201.33-.486.314-.78-.015-.294-.158-.566-.392-.744l-3.073-2.344 2.16-2.078c.375-.36.411-.948.082-1.352l-1.672-2.056h14.176v11.376zm15.751-.12v-11.244l57.043-6.445-4.6 11.732zm68.235-40.756c3.237 3.069 5.841 6.798 7.586 10.976l-13.026 33.222h-11.888zm8.773 44.198h-12.064l3.614-9.217 9.732-1.105v9.04c-.001.707-.576 1.282-1.282 1.282z"/><path d="m76.837 33.744 11.069-3.479c.527-.166.82-.727.654-1.254-.166-.526-.729-.817-1.254-.654l-11.069 3.479c-.527.166-.82.727-.654 1.254.134.427.529.7.954.7.099 0 .2-.015.3-.046z"/><path d="m88.215 33.378c-.248-.188-.569-.252-.869-.171l-10.55 2.855c-.436.117-.739.513-.739.965v.291c0 1.118.539 2.188 1.518 3.013 1.206 1.016 2.938 1.577 4.744 1.577.489 0 .983-.041 1.475-.126 2.834-.486 4.814-2.322 4.814-4.464v-3.146c-.001-.312-.146-.605-.393-.794zm-1.608 3.94c0 1.131-1.326 2.179-3.153 2.493-1.712.293-3.515-.103-4.591-1.01-.279-.234-.598-.584-.736-1.028l8.48-2.295z"/><path d="m65.042 31.836-11.069-3.479c-.523-.163-1.088.128-1.254.654-.166.527.127 1.088.654 1.254l11.069 3.479c.1.031.201.046.3.046.425 0 .819-.273.954-.7.165-.528-.127-1.088-.654-1.254z"/><path d="m64.484 36.062-10.55-2.855c-.3-.081-.621-.018-.869.171-.247.189-.392.482-.392.794v3.146c0 2.142 1.979 3.978 4.814 4.464.491.085.985.126 1.475.126 1.806 0 3.539-.562 4.744-1.577.979-.825 1.518-1.895 1.518-3.013v-.291c-.001-.452-.304-.847-.74-.965zm-2.068 2.74c-1.077.908-2.878 1.302-4.59 1.01-1.827-.314-3.153-1.362-3.153-2.493v-1.84l8.479 2.295c-.138.444-.457.793-.736 1.028z"/></g></g></g></svg>