<svg id="Layer_1" enable-background="new 0 0 128 128" height="512" viewBox="0 0 128 128" width="512" xmlns="http://www.w3.org/2000/svg"><g><g><path d="m96.348 77.596c9.299-6.8 14.022-14.534 14.022-23.103 0-20.374-18.624-47.669-37.669-47.669s-37.669 27.295-37.669 47.669c0 .841.064 1.659.155 2.466-2.307.54-4.463 1.499-6.511 2.903-6.284 4.31-6.152 11.53-5.205 14.746.529 1.795 2.231 3.164 3.512 3.973-.787.814-1.276 1.999-.715 3.438.679 1.744 2.385 2.327 3.632 2.515-.361 1.233-.722 3.075-.273 4.476-.662.658-1.471 1.263-2.468 1.734-.426-.43-.974-.748-1.608-.885-1.738-.375-3.47.737-3.847 2.482-.376 1.744.737 3.47 2.482 3.847.229.049.457.073.682.073 1.492 0 2.837-1.039 3.165-2.555.086-.4.086-.798.026-1.18 1.101-.531 2.017-1.199 2.777-1.928.151.09.312.167.483.228 1.219.435 2.135.174 2.687-.121.152-.082.293-.174.424-.273.046.075.096.149.15.222.082.111.182.203.278.3-.408 1.411-1.527 4.527-3.996 7.215-.384-.16-.804-.25-1.245-.25-1.785 0-3.237 1.452-3.237 3.237s1.452 3.237 3.237 3.237 3.237-1.452 3.237-3.237c0-.615-.182-1.185-.481-1.675 1.998-2.181 3.189-4.576 3.862-6.339v.432 13.539c-3.396 1.415-5.791 4.767-5.791 8.67 0 4.959 3.868 9.056 8.744 9.39.108.012 66.697 0 66.697 0 1.654 0 3-1.346 3-3v-20.172c.002-10.042-4.951-18.943-12.537-24.405z" fill="#e6e7e8"/></g><g><g><path d="m90.644 73.625c7.174-5.023 14.725-12.711 14.725-23.133 0-19.147-17.522-46.669-36.669-46.669s-36.669 27.522-36.669 46.669c0 10.33 7.647 18.143 14.691 23.155-7.95 5.186-13.208 14.153-13.208 24.352v20.173c0 1.105.895 2 2 2h66.373c1.105 0 2-.895 2-2v-20.173c0-10.214-5.274-19.191-13.243-24.374z" fill="#0089ef"/><path d="m68.7 69.538c-3.15 0-6.148-.646-8.872-1.809v.269c0 4.9 8.872 10.872 8.872 10.872s8.872-5.972 8.872-10.872v-.269c-2.724 1.164-5.722 1.809-8.872 1.809z" fill="#fff"/><g><path d="m78.629 32.968c-6.144-3.586-9.431-9.263-9.431-9.263s-1.464 4.482-8.936 9.263c-5.119 3.275-10.979 3.091-14.171 2.651v11.311c0 12.486 10.122 22.608 22.608 22.608s22.61-10.122 22.61-22.608v-11.551c-3.068.162-8.506.025-12.68-2.411z" fill="#fff"/><g><path d="m68.7 18.163c-9.422 0-18.395 7.522-24.517 17.115 1.955.448 9.617 1.825 16.08-2.31 7.472-4.781 8.936-9.263 8.936-9.263s3.287 5.677 9.431 9.263c5.277 3.079 12.589 2.487 14.554 2.258-6.123-9.568-15.08-17.063-24.484-17.063z" fill="#6dc9f7"/></g></g></g><g><g><g fill="#6dc9f7"><path d="m25.618 94.918c-1.236 0-2.237 1.002-2.237 2.237 0 1.236 1.002 2.237 2.237 2.237 1.236 0 2.237-1.002 2.237-2.237s-1.002-2.237-2.237-2.237z"/><path d="m21.341 86.836c-1.208-.26-2.398.507-2.659 1.715-.26 1.208.508 2.398 1.715 2.659s2.398-.507 2.659-1.715-.507-2.398-1.715-2.659z"/><path d="m46.053 94.918c-1.236 0-2.237 1.002-2.237 2.237 0 1.236 1.002 2.237 2.237 2.237s2.237-1.002 2.237-2.237-1.001-2.237-2.237-2.237z"/><path d="m52.989 88.551c-.26-1.208-1.451-1.976-2.659-1.715-1.208.26-1.976 1.451-1.715 2.659.26 1.208 1.451 1.976 2.659 1.715 1.207-.26 1.975-1.451 1.715-2.659z"/></g><g><path d="m35.835 83.529c-.26.977-1.232 3.079-2.599 3.289v16.99c.819-.267 1.691-.415 2.599-.415s1.78.149 2.599.415v-16.99c-1.367-.21-2.339-2.311-2.599-3.289z" fill="#fa759e"/><g fill="#6dc9f7"><path d="m33.236 89.573h5.199v5.051h-5.199z"/><path d="m33.236 97.573h5.199v3.051h-5.199z"/></g></g><g><g><path d="m46.43 56.686c-3.01-2.064-6.409-3.254-10.595-3.254s-7.585 1.19-10.595 3.254c-6.029 4.135-5.539 11.169-4.811 13.638.727 2.469 4.453 4.16 4.453 4.16s-2.532.992-1.682 3.171c.848 2.179 4.072 1.957 4.072 1.957s-2.181 5.357.384 6.272c2.564.913 3.307-2.064 3.307-2.064s-.506 2.745 1.892 3.012c1.568.175 2.698-2.237 2.981-3.303.283 1.066 1.413 3.478 2.981 3.303 2.398-.267 1.892-3.012 1.892-3.012s.743 2.977 3.307 2.064c2.565-.914.384-6.272.384-6.272s3.224.222 4.072-1.957c.85-2.178-1.682-3.171-1.682-3.171s3.725-1.691 4.453-4.16c.726-2.469 1.216-9.503-4.813-13.638z" fill="#ffd7e5"/></g><g><g><path d="m25.24 59.686c3.01-2.064 6.409-3.254 10.595-3.254s7.584 1.19 10.595 3.254c3.574 2.451 4.849 5.916 5.15 8.85.347-3.18-.233-8.478-5.15-11.85-3.01-2.064-6.409-3.254-10.595-3.254s-7.585 1.19-10.595 3.254c-4.917 3.372-5.497 8.67-5.15 11.85.302-2.933 1.577-6.399 5.15-8.85z" fill="#fff"/></g></g></g></g><g><circle cx="35.835" cy="111.782" fill="#fff" r="8.39"/><g fill="#3a2c60"><path d="m65 119.172h-7.172c-.552 0-1 .448-1 1s.448 1 1 1h7.172c.553 0 1-.448 1-1s-.447-1-1-1z"/><path d="m92.341 73.601c9.304-6.801 14.028-14.537 14.028-23.108 0-20.374-18.624-47.669-37.669-47.669s-37.669 27.296-37.669 47.669c0 .841.065 1.658.157 2.465-2.308.54-4.464 1.499-6.513 2.904-6.283 4.309-6.152 11.529-5.206 14.746.529 1.795 2.232 3.164 3.513 3.973-.787.814-1.276 1.998-.715 3.437.679 1.744 2.385 2.328 3.633 2.516-.36 1.232-.721 3.072-.274 4.473-.661.656-1.48 1.255-2.474 1.726-.435-.435-.984-.741-1.6-.874-.845-.181-1.711-.025-2.438.444s-1.227 1.192-1.409 2.038c-.183.845-.025 1.711.444 2.438s1.192 1.227 2.038 1.409c.229.049.46.074.689.074.615 0 1.219-.176 1.748-.518.727-.469 1.227-1.192 1.409-2.038.087-.404.092-.813.026-1.209 1.091-.529 2.01-1.181 2.766-1.904.154.092.318.171.494.233 1.221.435 2.135.175 2.687-.122.152-.081.293-.173.424-.273.046.076.096.15.15.223.083.112.183.205.28.301-.406 1.411-1.522 4.522-3.998 7.214-.383-.16-.803-.25-1.244-.25-1.785 0-3.237 1.452-3.237 3.237s1.452 3.237 3.237 3.237 3.237-1.452 3.237-3.237c0-.616-.182-1.187-.482-1.678 2.001-2.184 3.19-4.58 3.864-6.338v13.974c-3.396 1.415-5.791 4.767-5.791 8.67 0 4.912 3.793 8.988 8.603 9.39h19.152c.552 0 1-.448 1-1s-.448-1-1-1h-5.71v-19.911c.492-.568.801-1.299.801-2.108 0-1.785-1.452-3.237-3.237-3.237-.44 0-.859.09-1.242.25-2.468-2.686-3.589-5.802-3.998-7.215.096-.096.196-.189.278-.3.054-.073.104-.147.15-.222.13.1.271.191.423.273.552.296 1.464.557 2.688.122.175-.062.339-.141.493-.233.756.723 1.675 1.375 2.766 1.904-.065.396-.061.805.026 1.209.327 1.516 1.672 2.555 3.164 2.555.226 0 .454-.024.683-.073 1.745-.376 2.858-2.102 2.482-3.847s-2.103-2.855-3.847-2.482c-.617.133-1.165.438-1.601.874-.995-.471-1.813-1.07-2.474-1.726.447-1.401.087-3.241-.274-4.473 1.248-.188 2.954-.771 3.632-2.515.167-.428.232-.83.233-1.21 4.379 2.677 7.91 4.126 8.302 4.282.122.049.248.072.371.072.397 0 .772-.238.929-.629.206-.513-.044-1.095-.557-1.3-.104-.042-4.365-1.788-9.383-5.066 1.163-.828 2.454-2.039 2.903-3.561.456-1.549.715-4.028.167-6.662 1.893 1.819 4.085 3.327 6.497 4.439.386 5.172 8.347 10.69 9.277 11.316.169.114.363.17.559.17.194 0 .39-.057.559-.17.93-.626 8.89-6.144 9.276-11.316 8.12-3.737 13.774-11.945 13.774-21.454v-11.173c1.984 3.084 3.659 6.369 4.931 9.645.154.396.532.639.933.639.121 0 .243-.022.362-.068.515-.2.77-.779.57-1.294-5.147-13.252-16.856-27.515-30.404-27.515-13.547 0-25.258 14.263-30.405 27.514-.2.515.055 1.095.57 1.294.513.201 1.094-.055 1.294-.57 1.272-3.276 2.947-6.561 4.932-9.646v11.174c0 3.119.62 6.091 1.725 8.818-3.316-2.226-6.91-3.315-10.982-3.315-.915 0-1.802.064-2.67.174-.078-.694-.134-1.395-.134-2.115 0-19.519 17.635-45.669 35.669-45.669s35.669 26.15 35.669 45.669c0 10.998-8.578 20.643-25.497 28.667l-.21.1c-.499.237-.712.833-.475 1.332.236.5.833.713 1.332.475l.21-.1c4.101-1.945 7.713-3.995 10.873-6.138 7.404 5.057 12.283 13.548 12.283 23.171v20.173c0 .551-.448 1-1 1h-10.977v-20.4c0-.552-.447-1-1-1s-1 .448-1 1v20.4h-20.21c-.553 0-1 .448-1 1s.447 1 1 1h33.186c1.654 0 3-1.346 3-3v-20.173c0-10.041-4.958-18.936-12.545-24.398zm-70.263 15.683c-.07.323-.261.6-.539.779s-.608.24-.932.169c-.323-.07-.6-.261-.779-.539-.179-.277-.239-.608-.169-.932.07-.323.261-.6.539-.779.202-.13.433-.198.667-.198.088 0 .176.009.264.028.323.07.6.261.779.539.18.279.24.61.17.933zm15.356 4.34h-3.198v-3.05h3.198zm-3.198 1.999 3.198.001v.949h-3.198zm0 2.95h3.198v1.051h-3.198zm3.198-10h-3.198v-1.046c.653-.348 1.188-.944 1.599-1.585.411.641.946 1.238 1.599 1.586zm-11.816 9.82c-.682 0-1.237-.555-1.237-1.237s.555-1.237 1.237-1.237 1.237.555 1.237 1.237-.555 1.237-1.237 1.237zm8.618 3.23 3.198.001v.915c-.521-.09-1.053-.147-1.599-.147s-1.078.057-1.599.147zm-5.79 10.159c0-4.075 3.315-7.39 7.39-7.39s7.39 3.315 7.39 7.39-3.315 7.39-7.39 7.39-7.39-3.315-7.39-7.39zm13.162 7.39c2.197-1.72 3.617-4.39 3.617-7.39 0-3.903-2.395-7.255-5.791-8.67v-13.974c.674 1.759 1.862 4.155 3.864 6.339-.3.491-.483 1.062-.483 1.678 0 1.785 1.452 3.237 3.237 3.237.149 0 .292-.024.437-.044v18.823h-4.881zm5.682-22.017c0 .682-.555 1.237-1.237 1.237s-1.237-.555-1.237-1.237.555-1.237 1.237-1.237 1.237.555 1.237 1.237zm2.472-8.803c.179-.278.456-.469.779-.539.665-.143 1.327.282 1.47.948.07.323.009.654-.17.932s-.456.469-.779.539c-.661.145-1.326-.281-1.47-.949-.069-.322-.009-.653.17-.931zm26.585-19.081c-1.028 3.105-5.343 6.729-7.646 8.381-2.305-1.651-6.621-5.272-7.648-8.381.002.001.002-.005.003-.005 2.398.824 4.97 1.272 7.645 1.272 2.673 0 5.242-.453 7.639-1.276.003.001.004.01.007.009zm13.962-22.341c0 11.915-9.693 21.608-21.608 21.608s-21.609-9.693-21.609-21.608v-10.189c3.408.318 8.871.166 13.71-2.931 4.988-3.192 7.412-6.284 8.516-8.115 1.431 1.992 4.396 5.562 8.808 8.137 3.965 2.314 8.989 2.653 12.184 2.584v10.514zm-44.493-12.27c5.887-8.677 14.227-15.497 22.885-15.497 8.572 0 16.829 6.686 22.705 15.239-.05-.005-.098-.025-.149-.022-2.814.147-8.137.05-12.123-2.276-5.828-3.401-9.038-8.847-9.069-8.901-.197-.339-.58-.531-.965-.49-.39.039-.723.304-.849.675-.015.042-1.512 4.249-8.527 8.737-4.882 3.123-10.552 2.908-13.495 2.502-.141-.018-.281-.006-.413.033zm.049 22.851c5.534 3.795 5.065 10.333 4.417 12.531-.488 1.657-2.986 3.111-3.908 3.532-.363.166-.59.533-.582.932s.256.756.625.907c.267.109 1.577.71 1.121 1.879-.56 1.438-3.049 1.322-3.072 1.323-.342-.026-.675.131-.878.411-.202.279-.247.643-.117.963.489 1.208 1.092 3.511.626 4.549-.095.212-.221.333-.419.404-.431.154-.779.154-1.066.002-.55-.291-.863-1.089-.936-1.366-.13-.522-.652-.843-1.175-.733-.526.111-.87.621-.779 1.151.042.243.086 1.033-.242 1.47-.101.134-.292.319-.776.373-.699.066-1.615-1.479-1.904-2.566-.116-.438-.513-.743-.966-.743s-.85.305-.966.743c-.288 1.086-1.2 2.628-1.904 2.566-.484-.054-.674-.239-.775-.373-.329-.437-.284-1.227-.244-1.464.098-.531-.244-1.044-.771-1.159-.525-.111-1.051.211-1.182.735-.053.211-.365 1.061-.93 1.363-.106.057-.43.228-1.071 0-.199-.071-.324-.192-.419-.404-.466-1.038.137-3.341.626-4.549.129-.319.084-.681-.117-.96-.2-.279-.523-.434-.875-.415-.026.001-2.516.116-3.075-1.323-.456-1.168.854-1.77 1.116-1.876.374-.147.624-.503.634-.905.011-.402-.22-.771-.586-.937-.92-.417-3.416-1.866-3.906-3.531-.647-2.199-1.116-8.737 4.417-12.531 3.021-2.071 6.302-3.078 10.029-3.078s7.009 1.008 10.03 3.079z"/><path d="m73.158 58.678h-8.915c-.552 0-1 .448-1 1s.448 1 1 1h8.915c.553 0 1-.448 1-1s-.448-1-1-1z"/><path d="m58.726 42.505c-1.249 0-2.261 1.012-2.261 2.261s1.012 2.261 2.261 2.261 2.261-1.012 2.261-2.261-1.012-2.261-2.261-2.261z"/><path d="m78.674 42.505c-1.249 0-2.261 1.012-2.261 2.261s1.012 2.261 2.261 2.261 2.261-1.012 2.261-2.261-1.012-2.261-2.261-2.261z"/><path d="m68.701 54.829c1.969 0 3.57-1.602 3.57-3.571v-1.508c0-.552-.447-1-1-1s-1 .448-1 1v1.507c0 .866-.704 1.571-1.57 1.571s-1.571-.705-1.571-1.571v-1.507c0-.552-.447-1-1-1s-1 .448-1 1v1.507c-.001 1.969 1.602 3.572 3.571 3.572z"/><path d="m81.285 38.209-4.428 1.229c-.532.147-.844.699-.696 1.231.123.442.525.733.963.733.089 0 .179-.012.269-.037l4.428-1.229c.532-.147.844-.699.696-1.231s-.699-.845-1.232-.696z"/><path d="m60.542 39.438-4.427-1.229c-.534-.147-1.083.164-1.231.696s.164 1.083.696 1.231l4.427 1.229c.09.025.18.037.268.037.438 0 .84-.291.963-.733.148-.532-.163-1.084-.696-1.231z"/><path d="m32.979 69.847c.714-.046 1.048-.898.564-1.425-1.572-1.712-4.377-4.493-5.692-4.113-.87.251-2.742 3.452-1.32 4.811.963.921 4.359.861 6.448.727z"/><path d="m38.692 69.847c2.089.134 5.484.194 6.449-.727 1.422-1.359-.45-4.56-1.32-4.811-1.316-.38-4.12 2.401-5.692 4.113-.485.527-.152 1.379.563 1.425z"/><path d="m34.153 78.78h3.365c.746 0 1.224-.793.875-1.452l-1.682-3.185c-.372-.703-1.379-.703-1.751 0l-1.682 3.185c-.349.659.129 1.452.875 1.452z"/></g></g></g></g></g></svg>