<svg id="Layer_1" enable-background="new 0 0 128 128" height="512" viewBox="0 0 128 128" width="512" xmlns="http://www.w3.org/2000/svg"><g><g><path d="m103.325 88.01c3.239-1.018 6.645-2.784 9.642-5.781 8.976-8.977 10.583-25.39 10.647-26.084.027-.296-.078-.589-.289-.799-.21-.209-.497-.315-.799-.289-.622.057-13.869 1.358-23.074 8.089-.062-.11-.118-.221-.182-.331-5.335-9.109-4.314-23.036-4.3-23.254 0-15.729-12.796-28.525-28.525-28.525s-28.525 12.796-28.522 28.597c.012.161 1.096 16.123-3.952 24.382-.033.054-.062.108-.094.162-9.197-7.634-23.75-9.06-24.403-9.121-.299-.027-.589.079-.799.289s-.316.503-.289.799c.064.694 1.671 17.108 10.647 26.084 2.997 2.997 6.403 4.763 9.641 5.781-3.239 1.018-6.644 2.78-9.641 5.777-8.976 8.977-10.583 25.39-10.647 26.084-.027.296.078.589.289.799.188.188.443.293.707.293.03 0 .061-.001.092-.004.572-.053 11.82-1.158 20.783-6.569v2.786c0 1.654 1.346 3 3 3h66.373c1.654 0 3-1.346 3-3v-2.268c8.801 4.963 19.342 5.999 19.895 6.05.031.003.062.004.092.004.264 0 .519-.104.707-.293.21-.21.316-.503.289-.799-.064-.694-1.671-17.108-10.647-26.084-2.997-2.996-6.402-4.757-9.641-5.775z" fill="#e6e7e8"/></g><g><g><g><path d="m95.119 60.661c3.885 7.901 2.25 17.164-1.094 23.324.017.032.032.065.05.097 4.309-.508 9.746-2.121 14.185-6.56 8.824-8.824 10.359-25.469 10.359-25.469s-14.387 1.33-23.5 8.608z" fill="#d4fbff"/></g><g><path d="m94.025 83.985c2.295 4.157 3.606 8.934 3.606 14.019v11.138c9.02 5.716 20.987 6.822 20.987 6.822s-1.535-16.645-10.359-25.469c-4.447-4.447-9.895-6.057-14.207-6.562-.009.016-.018.035-.027.052z" fill="#d4fbff"/></g></g><g><g><path d="m30.146 61.742c-8.974-8.23-24.764-9.689-24.764-9.689s1.535 16.645 10.359 25.469c4.699 4.699 10.517 6.232 14.93 6.639-3.819-6.199-4.678-14.673-.525-22.419z" fill="#d4fbff"/></g><g><path d="m27.258 98.004c0-4.978 1.258-9.66 3.464-13.755-.076-.123-.143-.252-.217-.377-4.392.43-10.123 1.981-14.764 6.622-8.824 8.824-10.359 25.469-10.359 25.469s12.776-1.179 21.875-7.404v-10.555z" fill="#d4fbff"/></g></g><g><path d="m53.572 69.075v-2.887c-6.961-2.973-12.121-9.338-13.415-17.017-.49.392-1.048.634-1.651.634-1.861 0-3.369-2.13-3.369-4.757s1.508-4.757 3.369-4.757c.473 0 .922.14 1.33.388v-.305c0-2.684 1.882-4.986 4.504-5.558 3.099-.677 7.214-1.861 10.391-3.803 5.854-3.581 7.713-9.416 7.713-9.416s1.638 5.041 6.262 9.041c2.703 2.338 7.831 3.637 11.626 4.313 2.724.485 4.721 2.832 4.721 5.6v.129c.408-.248.857-.388 1.33-.388 1.861 0 3.369 2.13 3.369 4.757s-1.508 4.757-3.369 4.757c-.603 0-1.161-.242-1.651-.634-1.294 7.679-6.455 14.044-13.415 17.017v2.887c9.798.919 18.178 6.704 22.709 14.91 3.534-6.511 5.17-16.492.383-24.664-5.563-9.497-4.437-23.759-4.437-23.759 0-15.202-12.323-27.525-27.525-27.525-15.202 0-27.525 12.323-27.525 27.525 0 0 1.182 16.339-4.096 24.975-4.948 8.096-4.167 17.184-.103 23.712 4.495-8.347 12.947-14.246 22.849-15.175z" fill="#fa759e"/><g><g><path d="m62.446 11.037c14.609 0 26.553 11.383 27.463 25.762.027-.785.062-1.237.062-1.237 0-15.202-12.323-27.525-27.525-27.525-15.202 0-27.525 12.323-27.525 27.525 0 0 .032.453.062 1.236.91-14.379 12.854-25.761 27.463-25.761z" fill="#fff"/></g></g><g><g><path d="m71.316 69.075v-2.887c-2.724 1.164-5.722 1.809-8.872 1.809-3.149 0-6.148-.646-8.872-1.809v2.887c-14.761 1.385-26.314 13.805-26.314 28.929v15.173c0 1.105.895 2 2 2h66.373c1.105 0 2-.895 2-2v-15.173c0-15.124-11.554-27.544-26.315-28.929z" fill="#fff"/></g><path d="m82.472 102.973c1.189-6.632-.287-13.758-.287-13.758s-6.291.343-12.087 2.68c-3.159-5.151-7.653-9.018-7.653-9.018s-4.494 3.867-7.653 9.018c-5.796-2.337-12.087-2.68-12.087-2.68s-1.476 7.125-.287 13.758h-1.183v12.203h42.421v-12.203z" fill="#6dc9f7"/></g><g fill="#fff"><path d="m86.383 40.291c-.473 0-.922.14-1.33.388v4.709c0 1.289-.114 2.552-.321 3.782.49.392 1.048.634 1.651.634 1.861 0 3.369-2.13 3.369-4.757s-1.509-4.756-3.369-4.756z"/><path d="m39.836 45.388v-4.709c-.408-.248-.857-.388-1.33-.388-1.861 0-3.369 2.13-3.369 4.757s1.508 4.757 3.369 4.757c.603 0 1.161-.242 1.651-.634-.207-1.231-.321-2.493-.321-3.783z"/></g><path d="m80.332 34.95c-3.795-.676-8.923-1.975-11.626-4.313-4.624-4-6.262-9.041-6.262-9.041s-1.859 5.836-7.713 9.416c-3.177 1.943-7.291 3.127-10.391 3.803-2.623.573-4.504 2.874-4.504 5.558v5.014c0 12.486 10.122 22.608 22.608 22.608 12.486 0 22.608-10.122 22.608-22.608v-4.837c.001-2.767-1.996-5.115-4.72-5.6z" fill="#fff"/><g><g fill="#ffd7e5"><path d="m75.338 46.779c-1.109 0-2.008.567-2.008 1.266s.899 1.266 2.008 1.266 2.008-.567 2.008-1.266-.899-1.266-2.008-1.266z"/><path d="m49.551 46.498c-1.109 0-2.008.567-2.008 1.266s.899 1.266 2.008 1.266 2.008-.567 2.008-1.266-.899-1.266-2.008-1.266z"/></g><g><path d="m62.444 59.196c-3.443 0-5.195-2.373-5.268-2.474-.323-.448-.222-1.073.226-1.396.446-.322 1.068-.222 1.392.221.063.084 1.272 1.649 3.65 1.649 2.373 0 3.647-1.646 3.66-1.663.332-.439.959-.528 1.401-.193.44.333.526.96.193 1.401-.075.1-1.898 2.455-5.254 2.455z" fill="#fa759e"/></g></g></g><g fill="#6dc9f7"><g><path d="m85.954 24.817c-3.029-2.476-8.01-1.394-8.01-1.394s-.071 5.097 2.958 7.573 8.01 1.394 8.01 1.394.071-5.097-2.958-7.573z"/><path d="m74.986 15.884c-3.029-2.476-8.01-1.394-8.01-1.394s-.071 5.097 2.958 7.573 8.01 1.394 8.01 1.394.071-5.096-2.958-7.573z"/></g><g><path d="m46.944 23.423s-4.981-1.082-8.01 1.394-2.958 7.573-2.958 7.573 4.981 1.082 8.01-1.394 2.958-7.573 2.958-7.573z"/><path d="m57.912 14.491s-4.981-1.082-8.01 1.394-2.958 7.573-2.958 7.573 4.981 1.082 8.01-1.394c3.029-2.477 2.958-7.573 2.958-7.573z"/></g></g><g fill="#3a2c60"><path d="m113.469 70.113c-.486-.261-1.092-.08-1.355.406-.803 1.49-1.679 2.855-2.606 4.059-.337.438-.255 1.065.183 1.402.182.14.396.208.609.208.299 0 .596-.134.793-.39.992-1.289 1.928-2.745 2.782-4.329.262-.487.08-1.094-.406-1.356z"/><path d="m99.233 84.006c3.195-.991 6.687-2.731 9.733-5.778.391-.391.391-1.023 0-1.414s-1.023-.391-1.414 0c-3.734 3.734-8.229 5.333-11.821 6.001 2.833-6.19 3.874-14.538.632-21.834 7.224-5.415 17.567-7.282 21.107-7.779-.355 2.556-1.415 8.659-4.015 14.565-.223.505.006 1.095.512 1.318.131.058.268.085.402.085.384 0 .751-.223.916-.598 3.519-7.991 4.297-16.088 4.329-16.429.027-.296-.079-.589-.289-.799s-.507-.318-.799-.289c-.579.053-13.844 1.352-23.076 8.096-.063-.112-.114-.227-.179-.337-5.335-9.109-4.314-23.036-4.3-23.254 0-15.729-12.796-28.525-28.525-28.525s-28.525 12.796-28.522 28.597c.012.16 1.1 16.115-3.952 24.381-.034.056-.061.112-.094.168-9.207-7.641-23.766-9.068-24.403-9.127-.291-.025-.588.079-.799.289-.21.21-.316.503-.289.799.064.694 1.671 17.108 10.647 26.084 3.029 3.029 6.499 4.779 9.728 5.779-3.222 1-6.697 2.748-9.728 5.779-8.977 8.976-10.583 25.39-10.647 26.084-.027.296.078.589.289.799.188.188.443.293.707.293.03 0 .061-.001.092-.004.503-.046 11.776-1.145 20.784-6.574v2.791c0 1.654 1.346 3 3 3h66.373c1.654 0 3-1.346 3-3v-2.273c8.855 4.986 19.424 6.015 19.895 6.059.031.003.061.004.092.004.264 0 .519-.104.707-.293.21-.21.316-.503.289-.799-.064-.694-1.671-17.108-10.647-26.084-3.046-3.044-6.538-4.788-9.735-5.781zm-9.502-35.226c.668 3.711 1.825 7.652 3.814 11.047 4.104 7.007 3.216 15.74.418 22.016-4.659-7.347-12.437-12.527-21.647-13.665v-1.352c6.55-3.028 11.483-8.969 13.133-16.153.3.085.611.132.933.132 1.36 0 2.554-.781 3.349-2.025zm-27.287 18.217c-11.915 0-21.608-9.693-21.608-21.608v-5.015c0-2.22 1.529-4.104 3.718-4.581 3.035-.663 7.354-1.882 10.699-3.928 3.859-2.36 6.063-5.62 7.181-7.761.961 1.923 2.729 4.79 5.618 7.29 2.87 2.483 8.167 3.84 12.105 4.541 2.257.402 3.896 2.343 3.896 4.616v4.838c0 11.914-9.694 21.608-21.609 21.608zm23.375-18.323c.15-1.075.234-2.17.234-3.285v-4.055c.108-.025.218-.042.33-.042 1.284 0 2.369 1.72 2.369 3.756 0 2.037-1.085 3.757-2.369 3.757-.196 0-.382-.054-.564-.131zm-2.56-19.614 3.137 2.564c-1.509.007-3.451-.251-4.86-1.403-1.932-1.579-2.423-4.511-2.548-5.948 1.43-.167 4.394-.269 6.334 1.318 1.401 1.145 2.039 2.997 2.335 4.48l-3.132-2.56c-.427-.349-1.058-.286-1.407.142-.35.427-.287 1.057.141 1.407zm-41.488-1.407c-.35-.429-.98-.491-1.407-.142l-3.132 2.561c.296-1.482.934-3.335 2.335-4.48 1.931-1.579 4.9-1.479 6.335-1.316-.125 1.438-.618 4.368-2.548 5.947-1.401 1.145-3.344 1.402-4.855 1.397l3.13-2.559c.428-.351.491-.981.142-1.408zm-5.756 5.763c.428.076 1.353.211 2.502.211 1.844 0 4.259-.35 6.103-1.857 2.441-1.996 3.089-5.37 3.262-7.162.445.048.99.087 1.604.087 1.844 0 4.259-.35 6.103-1.856 3.364-2.75 3.328-8.133 3.325-8.361-.006-.465-.333-.865-.788-.963-.223-.048-5.49-1.154-8.855 1.597-2.442 1.996-3.09 5.372-3.262 7.164-1.686-.181-4.88-.225-7.303 1.477 4.353-8.713 13.356-14.714 23.74-14.714 10.403 0 19.423 6.023 23.767 14.735-2.426-1.723-5.639-1.68-7.331-1.498-.172-1.792-.82-5.167-3.262-7.163-3.364-2.751-8.633-1.646-8.855-1.597-.455.099-.781.498-.788.963-.003.228-.038 5.611 3.325 8.361 1.844 1.507 4.259 1.856 6.103 1.856.614 0 1.159-.039 1.604-.087.172 1.792.82 5.167 3.262 7.163 1.843 1.508 4.258 1.857 6.102 1.857 1.16 0 2.09-.138 2.512-.213.054.684.09 1.373.09 2.07-.016.208-.15 2.084-.08 4.83-.706-.644-1.569-1.022-2.512-1.022-.151 0-.295.028-.442.048-.497-2.701-2.629-4.874-5.433-5.373-3.691-.657-8.621-1.899-11.147-4.085-4.342-3.756-5.95-8.547-5.965-8.595-.135-.411-.519-.688-.951-.688-.001 0-.002 0-.002 0-.433.001-.817.281-.95.693-.018.055-1.837 5.538-7.283 8.868-3.107 1.9-7.197 3.05-10.082 3.68-2.768.604-4.784 2.795-5.202 5.497-.139-.017-.276-.045-.419-.045-.924 0-1.771.36-2.469.98.021-2.675-.101-4.513-.116-4.71-.002-.725.036-1.44.093-2.148zm16.724-14.696c-.35-.429-.98-.491-1.407-.142l-3.137 2.565c.293-1.48.931-3.332 2.34-4.484 1.932-1.579 4.903-1.479 6.336-1.315-.122 1.435-.61 4.359-2.55 5.946-1.401 1.145-3.344 1.403-4.855 1.398l3.131-2.56c.428-.35.491-.981.142-1.408zm19.552 1.407 3.137 2.564c-1.509.007-3.451-.251-4.861-1.402-1.931-1.58-2.423-4.511-2.548-5.949 1.43-.167 4.394-.269 6.335 1.318 1.401 1.146 2.039 2.998 2.335 4.48l-3.132-2.561c-.426-.35-1.057-.286-1.407.142s-.287 1.059.141 1.408zm-33.221 28.547c-.182.077-.369.131-.564.131-1.284 0-2.369-1.72-2.369-3.757 0-2.036 1.085-3.756 2.369-3.756.112 0 .222.017.33.042v4.055c0 1.115.083 2.21.234 3.285zm-7.392 12.385c2.04-3.338 3.147-7.719 3.735-11.909.785 1.027 1.873 1.655 3.092 1.655.322 0 .634-.047.934-.132 1.65 7.184 6.583 13.124 13.133 16.153v1.352c-9.341 1.155-17.212 6.465-21.847 13.98-2.988-5.927-3.497-13.818.953-21.099zm-25.146-7.857c3.75.525 15.126 2.585 22.36 8.788-3.624 7.315-2.953 14.998-.011 20.934-3.793-.615-8.53-2.206-12.433-6.109-7.09-7.091-9.359-19.639-9.916-23.613zm0 61.612c.557-3.974 2.826-16.522 9.916-23.613 4.008-4.008 8.898-5.575 12.71-6.153-1.861 3.926-2.901 8.318-2.901 12.956v10.01c-7.097 4.669-16.404 6.335-19.725 6.8zm35.702-.638v-7.86c.534 1.585 1.265 3.08 2.262 4.374 1.192 1.547 2.647 2.668 4.207 3.485h-6.469zm3.847-4.706c-4.337-5.631-3.048-16.106-2.551-19.183 1.741.171 5.798.704 9.791 2.129-1.045 1.876-1.89 3.896-2.297 5.962l-2.706-3.514c-.339-.438-.966-.518-1.403-.182-.438.337-.519.965-.182 1.403l4.04 5.245c.172 6.107 4.84 10.494 8.109 12.824-3.684.126-9.526-.431-12.801-4.684zm16.363-19.693c-.552 0-1 .448-1 1v22.672c-2.797-1.749-8.685-6.178-8.685-12.465 0-7.108 7.414-14.62 9.685-16.754 2.271 2.134 9.685 9.646 9.685 16.754 0 6.271-5.887 10.708-8.685 12.462v-22.669c0-.552-.447-1-1-1zm3.569 24.373c3.269-2.332 7.932-6.717 8.104-12.821l4.04-5.245c.337-.438.255-1.065-.182-1.403-.438-.335-1.065-.256-1.403.182l-2.706 3.514c-.407-2.066-1.252-4.086-2.297-5.962 3.993-1.425 8.051-1.957 9.791-2.128.499 3.074 1.793 13.543-2.551 19.183-3.268 4.242-9.11 4.803-12.796 4.68zm16.642.026h-6.469c1.56-.817 3.015-1.938 4.207-3.485.997-1.295 1.728-2.79 2.263-4.375v7.86zm13.976-1c0 .551-.449 1-1 1h-10.976v-22.4c0-2.726.797-5.373 2.305-7.654.304-.46.178-1.081-.283-1.386-.46-.304-1.082-.178-1.386.283-1.135 1.718-1.91 3.619-2.313 5.606-.195-.261-.505-.427-.848-.408-.373.02-6.052.364-11.623 2.441-3.11-4.797-7.137-8.303-7.411-8.539-.375-.322-.929-.322-1.304 0-.274.236-4.301 3.742-7.411 8.539-5.571-2.077-11.25-2.421-11.623-2.441-.344-.021-.653.145-.848.407-.403-1.986-1.177-3.887-2.312-5.605-.304-.46-.923-.587-1.386-.283-.461.305-.587.925-.283 1.386 1.508 2.283 2.305 4.929 2.305 7.654v22.4h-10.976c-.551 0-1-.449-1-1v-15.172c0-14.566 10.923-26.575 25.408-27.934.514-.048.907-.479.907-.996v-1.433c2.464.874 5.112 1.354 7.872 1.354s5.408-.48 7.872-1.354v1.432c0 .516.393.947.907.996 14.485 1.359 25.408 13.368 25.408 27.934v15.173zm2-4.601v-10.571c0-4.573-1.012-8.907-2.823-12.791 3.582.677 8.04 2.284 11.745 5.988 7.09 7.091 9.358 19.641 9.916 23.613-3.184-.444-11.866-1.991-18.838-6.239z"/><path d="m52.47 39.963c-1.249 0-2.261 1.012-2.261 2.261s1.012 2.261 2.261 2.261 2.261-1.012 2.261-2.261-1.012-2.261-2.261-2.261z"/><path d="m72.419 39.963c-1.249 0-2.261 1.012-2.261 2.261s1.012 2.261 2.261 2.261 2.261-1.012 2.261-2.261c-.001-1.249-1.013-2.261-2.261-2.261z"/><path d="m65.016 47.208c-.552 0-1 .448-1 1v1.507c0 .866-.705 1.571-1.571 1.571s-1.571-.705-1.571-1.571v-1.507c0-.552-.448-1-1-1s-1 .448-1 1v1.507c0 1.969 1.602 3.571 3.571 3.571s3.571-1.602 3.571-3.571v-1.507c0-.552-.448-1-1-1z"/><path d="m75.469 36.646-4.427-.771c-.548-.09-1.062.27-1.157.814s.27 1.062.814 1.157l4.427.771c.058.01.116.015.172.015.477 0 .899-.342.984-.829.095-.544-.269-1.062-.813-1.157z"/><path d="m53.847 35.875-4.427.771c-.544.095-.909.613-.814 1.157.085.486.507.829.984.829.057 0 .115-.005.172-.015l4.427-.771c.544-.095.909-.613.814-1.157s-.612-.904-1.156-.814z"/></g></g></g></svg>