<svg id="Layer_1" enable-background="new 0 0 128 128" height="512" viewBox="0 0 128 128" width="512" xmlns="http://www.w3.org/2000/svg"><g><path d="m89.353 67.475c3.714-5.726 5.898-12.452 5.896-18.734v-6.743c.008-4.102-.883-8.013-2.48-11.559 2.768-1.413 5.794-2.248 8.927-2.457.636.315 1.186.458 1.637.458.513 0 .913-.155 1.213-.352 2.19-1.437.65-5.959-1.708-9.551-1.211-1.846-2.612-3.429-3.944-4.456-2.103-1.621-3.412-1.391-4.138-.913-.6.394-1.19 1.232-1.019 2.95-1.345 2.771-3.206 5.231-5.504 7.248-5.273-6.064-13.055-9.978-21.743-10.11-8.668.131-16.44 4.044-21.708 10.106-2.296-2.017-4.156-4.476-5.5-7.245.171-1.718-.419-2.556-1.019-2.95-.728-.478-2.036-.706-4.138.913-1.333 1.027-2.733 2.61-3.944 4.456-2.358 3.592-3.897 8.114-1.708 9.551.301.198.7.352 1.213.352.45 0 1.001-.143 1.636-.458 3.133.209 6.158 1.044 8.925 2.456-1.595 3.545-2.486 7.455-2.478 11.555v6.749c-.002 6.183 2.111 12.797 5.718 18.463-16.852 8.906-28.176 27.369-28.176 47.828 0 .41.006.818.017 1.226.048 1.819 1.507 3.244 3.321 3.244h95.017c1.815 0 3.274-1.425 3.321-3.243.011-.407.017-.816.017-1.227 0-20.248-11.088-38.549-27.651-47.557z" fill="#e6e7e8"/><g><path d="m81.484 65.981c-4.953 5.925-11.764 10.046-19.396 10.127-7.793-.082-14.732-4.374-19.709-10.501-9.574 9.363-15.897 25.46-15.897 43.758 0 1.555.055 3.09.144 4.61h70.222c.089-1.52.144-3.055.144-4.61 0-18.052-6.151-33.969-15.508-43.384z" fill="#fa759e"/><path d="m96.915 106.073h-70.357c-.046 1.09-.076 2.185-.076 3.292 0 1.555.055 3.09.144 4.61h70.222c.089-1.52.144-3.055.144-4.61 0-1.107-.031-2.203-.077-3.292z" fill="#d4fbff"/><g fill="#ffd7e5"><path d="m42.378 65.605c-.624-.769-1.217-1.567-1.778-2.388-16.899 8.364-28.605 26.432-28.605 47.393 0 .4.006.799.016 1.197.032 1.205 1.011 2.168 2.216 2.168h12.397c-.089-1.52-.144-3.055-.144-4.61.002-18.299 6.324-34.399 15.898-43.76z"/><path d="m83.393 63.482c-.602.866-1.243 1.702-1.916 2.507 9.36 9.413 15.515 25.321 15.515 43.375 0 1.555-.055 3.09-.144 4.61h12.397c1.205 0 2.185-.964 2.216-2.168.01-.398.016-.796.016-1.197.001-20.743-11.466-38.652-28.084-47.127z"/></g><path d="m62.088 76.108c-2.558-.027-5.022-.516-7.358-1.366l7.358 13.063 7.358-13.063c-2.336.85-4.8 1.339-7.358 1.366z" fill="#ffd7e5"/><path d="m69.744 111.664c0-4.228-3.428-7.656-7.656-7.656s-7.656 3.428-7.656 7.656c0 .806.126 1.581.357 2.311h14.599c.23-.73.356-1.506.356-2.311z" fill="#6dc9f7"/><g><g><path d="m92.966 17.69c-1.396-2.128-2.279-4.245-2.517-5.796-1.581 3.363-3.91 6.308-6.805 8.616 1.256 1.56 2.345 3.251 3.241 5.048 3.236-1.839 6.859-2.919 10.599-3.126-1.368-.789-3.051-2.506-4.518-4.742z" fill="#6dc9f7"/><path d="m97.493 14.72c-2.368-3.61-5.302-5.871-6.552-5.051s-.343 4.411 2.025 8.021 5.302 5.871 6.552 5.051.343-4.411-2.025-8.021z" fill="#0089ef"/></g><g><path d="m33.727 11.894c-.238 1.551-1.121 3.668-2.517 5.796-1.467 2.236-3.15 3.953-4.517 4.742 3.739.207 7.361 1.287 10.597 3.125.895-1.797 1.985-3.488 3.24-5.048-2.894-2.308-5.223-5.253-6.803-8.615z" fill="#6dc9f7"/><path d="m33.235 9.669c-1.25-.82-4.183 1.441-6.552 5.051-2.368 3.61-3.275 7.201-2.025 8.021s4.183-1.441 6.552-5.051 3.275-7.2 2.025-8.021z" fill="#0089ef"/></g></g><g><path d="m62.086 9.938c-15.264.234-27.662 12.76-27.632 27.632v6.75c-.005 14.802 12.129 31.625 27.634 31.788 15.505-.164 27.64-16.987 27.634-31.788 0-3.086 0-3.66 0-6.745.03-14.875-12.37-27.403-27.636-27.637z" fill="#6dc9f7"/><path d="m62.086 13.254c9.834.137 18.581 4.493 24.14 11.065-4.727-8.387-13.77-14.222-24.14-14.381-10.369.159-19.41 5.993-24.136 14.379 5.558-6.57 14.304-10.926 24.136-11.063z" fill="#fff"/><path d="m69.825 59.858s-2.994 5.712-7.737 5.712c-5.112 0-7.737-5.712-7.737-5.712z" fill="#fa759e"/></g><g fill="#3a2c60"><path d="m84.783 63.091c3.739-5.728 5.941-12.474 5.938-18.771v-6.744c.008-4.116-.893-8.039-2.505-11.593 2.812-1.448 5.915-2.318 9.05-2.53.648.331 1.193.458 1.644.458.489 0 .87-.147 1.155-.334.699-.459 1.4-1.533.766-4.045-.409-1.62-1.298-3.524-2.503-5.36s-2.597-3.41-3.92-4.43c-2.053-1.582-3.316-1.367-4.016-.908-.849.557-1.108 1.605-.974 2.884-1.357 2.796-3.287 5.318-5.629 7.361-5.254-6.081-13.031-10.008-21.718-10.141-8.669.133-16.438 4.059-21.688 10.137-2.341-2.042-4.27-4.563-5.626-7.358.135-1.279-.124-2.327-.974-2.884-.701-.459-1.965-.674-4.016.908-1.323 1.021-2.716 2.594-3.92 4.43-1.205 1.837-2.094 3.741-2.503 5.361-.634 2.512.066 3.586.766 4.045.351.23.739.336 1.153.336.517 0 1.073-.166 1.648-.46 3.135.212 6.236 1.081 9.047 2.529-1.611 3.552-2.512 7.474-2.503 11.588v6.749c-.002 6.195 2.127 12.825 5.755 18.493-17.172 8.968-28.214 27.602-28.214 47.798 0 .409.006.816.017 1.223.046 1.762 1.459 3.142 3.216 3.142h95.017c1.758 0 3.17-1.38 3.216-3.141.011-.406.017-.814.017-1.223-.001-20.245-10.588-38.347-27.696-47.52zm6.701-52.582c.496-.196 2.835 1.198 5.173 4.76 2.337 3.562 2.677 6.269 2.318 6.633-.491.192-2.835-1.199-5.173-4.761-2.338-3.562-2.677-6.269-2.318-6.632zm-1.313 4.013c.494 1.242 1.18 2.529 1.959 3.717.875 1.333 1.849 2.521 2.824 3.466-2.645.416-5.23 1.257-7.622 2.484-.673-1.242-1.435-2.433-2.281-3.56 2.013-1.746 3.748-3.818 5.12-6.107zm-64.96 7.387c-.369-.372-.029-3.079 2.308-6.641 2.202-3.356 4.414-4.783 5.061-4.783.04 0 .074.005.101.016.37.371.03 3.078-2.307 6.641-2.339 3.564-4.695 4.955-5.163 4.767zm4.017-.204c1.01-.982 1.987-2.2 2.818-3.466.779-1.187 1.465-2.475 1.959-3.717 1.371 2.288 3.105 4.359 5.118 6.105-.846 1.127-1.607 2.318-2.281 3.561-2.389-1.226-4.972-2.066-7.614-2.483zm6.226 15.863c-.029-14.459 11.924-26.405 26.617-26.63 14.724.225 26.68 12.173 26.651 26.636v6.746c.005 14.104-11.627 30.621-26.634 30.788-15.006-.167-26.639-16.684-26.634-30.788zm54.268 69.505h6.223c.023.762.047 1.524.047 2.292 0 1.144-.038 2.348-.099 3.61h-25.249c.066-.433.1-.87.1-1.311 0-1.687-.493-3.259-1.331-4.591h6.229c.552 0 1-.448 1-1s-.448-1-1-1h-7.957c-1.271-1.081-2.855-1.801-4.597-2.002v-15.004l7.064-12.541c4.294-1.659 8.144-4.515 11.316-8.079 8.318 8.821 13.548 22.576 14.389 37.626h-6.136c-.552 0-1 .448-1 1s.449 1 1.001 1zm-62.24 2.292c0-.768.025-1.53.048-2.292h27.234c-.839 1.333-1.331 2.904-1.331 4.591 0 .44.034.878.1 1.311h-25.952c-.061-1.261-.099-2.464-.099-3.61zm29.009-4.292h-28.876c.851-15.308 6.217-29.211 14.759-38.017 3.235 3.743 7.201 6.752 11.65 8.47l7.064 12.541v15.003c-1.742.202-3.326.922-4.597 2.003zm5.597-19.306-5.269-9.353c1.7.427 3.455.675 5.258.694h.011s.007 0 .011 0c1.803-.019 3.558-.267 5.258-.694zm-47.859 27.207c-.665 0-1.2-.524-1.217-1.194-.01-.389-.016-.779-.016-1.17 0-19.538 10.711-37.55 27.347-46.133.247.344.499.683.757 1.018-9.787 9.977-15.619 26.287-15.619 43.869 0 1.156.029 2.345.089 3.61zm41.333 0c-.086-.431-.13-.869-.13-1.311 0-3.67 2.986-6.656 6.656-6.656s6.656 2.986 6.656 6.656c0 .441-.043.88-.13 1.311zm54.9-1.193c-.018.669-.552 1.194-1.217 1.194h-11.343c.06-1.267.089-2.456.089-3.61 0-17.299-5.687-33.457-15.232-43.464.301-.379.595-.763.881-1.154 16.573 8.79 26.838 26.283 26.838 45.864 0 .39-.006.78-.016 1.17z"/><path d="m85.577 105.073h-5.941c-.552 0-1 .448-1 1s.448 1 1 1h5.941c.552 0 1-.448 1-1s-.448-1-1-1z"/><path d="m69.825 58.858h-15.474c-.341 0-.658.173-.842.46s-.209.647-.067.957c.118.257 2.958 6.294 8.646 6.294 5.288 0 8.489-5.992 8.623-6.247.163-.31.151-.683-.03-.982s-.506-.482-.856-.482zm-7.737 5.711c-2.889 0-4.92-2.193-5.979-3.711h11.878c-1.139 1.53-3.23 3.711-5.899 3.711z"/><circle cx="51.063" cy="42.989" r="2.499"/><circle cx="73.113" cy="42.989" r="2.499"/><path d="m59.246 46.394c-.552 0-1 .448-1 1v1.666c0 2.118 1.724 3.842 3.842 3.842s3.842-1.724 3.842-3.842v-1.666c0-.552-.448-1-1-1s-1 .448-1 1v1.666c0 1.016-.826 1.842-1.842 1.842s-1.842-.826-1.842-1.842v-1.666c0-.552-.448-1-1-1z"/><path d="m70.438 37.328c.123.442.525.733.963.733.088 0 .178-.012.268-.037l4.894-1.358c.532-.147.844-.699.696-1.231-.147-.532-.696-.842-1.231-.696l-4.894 1.358c-.532.147-.844.699-.696 1.231z"/><path d="m47.613 36.666 4.894 1.358c.09.025.18.037.268.037.438 0 .84-.291.963-.733.148-.532-.164-1.083-.696-1.231l-4.894-1.358c-.534-.146-1.083.164-1.231.696-.147.532.164 1.083.696 1.231z"/><path d="m70.834 53.777c-.254-.107-.548.014-.654.269s.014.548.269.654c3.025 1.263 4.733 4.496 4.75 4.529.089.171.264.27.444.27.078 0 .156-.018.229-.056.245-.127.341-.429.214-.674-.075-.146-1.886-3.587-5.252-4.992z"/><path d="m53.997 54.046c-.106-.254-.399-.375-.654-.269-3.366 1.405-5.177 4.846-5.252 4.991-.127.245-.031.546.214.674.073.038.152.056.229.056.181 0 .355-.099.444-.27.017-.033 1.726-3.266 4.75-4.529.254-.105.375-.398.269-.653z"/><path d="m54.176 21.469c2.625.373 5.269.56 7.912.56s5.287-.187 7.912-.56c.547-.078.927-.584.85-1.131-.078-.546-.587-.923-1.131-.85-5.063.721-10.198.721-15.262 0-.54-.08-1.053.303-1.131.85-.077.546.303 1.052.85 1.131z"/><path d="m49.754 26.995c4.092.583 8.213.874 12.334.874s8.242-.291 12.334-.874c.546-.078.927-.584.849-1.131s-.582-.921-1.131-.849c-7.997 1.139-16.106 1.139-24.104 0-.541-.072-1.053.303-1.131.849s.303 1.053.849 1.131z"/></g></g></g></svg>