<svg id="Layer_1" enable-background="new 0 0 128 128" height="512" viewBox="0 0 128 128" width="512" xmlns="http://www.w3.org/2000/svg"><g><g><path d="m106.856 68.355c3.849-2.587 8.552-6.863 12.874-13.846 5.638-9.11 5.608-20.529 3.826-21.978-.537-.436-1.18-.184-1.861.083-3.04 1.19-25.128 12.266-44.368 25.67-.569-1.005-1.165-1.996-1.798-2.963-10.136-15.496-20.522-21.78-25.239-24.002-.055-1.454-.375-3.156-1.249-4.967-1.858-3.852-4.89-4.843-6.106-5.09-1.358-.275-2.559-.099-3.211.473-.715.629-.693 1.741-.652 3.761.034 1.652.067 3.87-.371 6.148-2.622.362-7.638 1.63-11.363 6.073-1.264 1.508-2.661 4.25-4.278 7.426-1.702 3.341-3.631 7.128-5.93 10.581-1.547 2.324-3.488 4.299-5.201 6.042-2.091 2.127-3.896 3.964-4.366 5.84-.623 2.49.426 5.607 2.549 7.581 1.447 1.345 4.691 3.333 10.146 1.536 3.814-1.255 12.346-8.926 13.827-10.275.806.148 1.669.225 2.557.225 1.529 0 3.123-.225 4.588-.691.077-.025.145-.052.221-.077.752 2.662 1.477 7.382-.084 13.529-.393 1.547-.905 3.149-1.4 4.698-1.817 5.683-3.697 11.56-.644 16.999 3.847 6.855 11.191 8.296 16.684 8.296 1.652 0 3.136-.13 4.307-.283 4.013 1.265 8.478 1.722 12.638 1.722 5.875 0 11.133-.898 13.613-1.669 14.799-4.598 21.984-13.475 21.536-15.07-.172-.614-.443-1.573-9.508-1.967 3.359-1.369 7.665-3.709 11.859-7.659 8.536-8.038 10.229-16.541 9.958-17.489-.264-.922-.407-1.419-13.554 1.343z" fill="#e6e7e8"/></g><g><g><g><path d="m44.923 86.154c1.285-8.945 13.747-20.214 28.091-30.355-.721-1.34-1.489-2.656-2.321-3.928-10.403-15.906-21.149-21.985-25.399-23.899.026-1.456-.222-3.254-1.154-5.186-2.272-4.709-6.78-5.158-7.757-4.3-.812.713.279 5.302-.85 10.07-2.132.208-7.557 1.183-11.43 5.803-2.446 2.919-5.6 11.096-10.143 17.919-3.451 5.184-8.678 8.565-9.429 11.57-.95 3.799 2.754 10.776 11.413 7.925 3.936-1.296 13.681-10.261 13.681-10.261l.332-.107c2.032.435 4.624.37 6.967-.376.414-.132.799-.275 1.172-.424.87 2.502 2.079 7.818.236 15.074-1.803 7.1-5.792 14.457-2.141 20.962 4.746 8.457 15.434 8.103 20.186 7.473-7.373-2.402-12.937-7.634-11.454-17.96z" fill="#ffd7e5"/></g></g><g><path d="m44.923 86.154c3.14-21.864 73.057-57.613 74.003-56.845 1.106.899 1.604 11.548-4.046 20.675-9.206 14.873-20.245 17.174-20.245 17.174s20.618-4.551 20.812-3.871c.143.499-1.32 8.612-9.682 16.486-8.479 7.983-17.533 9.227-17.533 9.227s14.555.158 14.904 1.397c.143.507-5.702 9.132-20.87 13.844-8.496 2.64-40.673 5.1-37.343-18.087z" fill="#fa759e"/></g><g><g><path d="m101.497 89.786c-2.652 3.015-8.682 8.179-19.231 11.456-7.877 2.447-36.091 4.725-37.508-13.436-1.579 21.401 29.222 19.01 37.508 16.436 15.168-4.712 21.013-13.337 20.87-13.844-.069-.244-.691-.445-1.639-.612z" fill="#fff"/></g></g><g fill="#3a2c60"><circle cx="29.017" cy="42.697" r="2.254"/><path d="m64.011 61.265c-1.417 1.122-2.777 2.239-4.042 3.318-.42.358-.47.99-.112 1.41.198.232.479.351.761.351.229 0 .46-.079.648-.239 1.247-1.064 2.588-2.165 3.987-3.272.433-.343.506-.972.163-1.405-.343-.434-.972-.506-1.405-.163z"/><path d="m102.856 64.355c3.849-2.587 8.552-6.863 12.874-13.846 5.638-9.109 5.608-20.529 3.826-21.977-.532-.433-.754-.612-6.348 2.147-3.604 1.778-8.105 4.167-12.673 6.727-6.061 3.396-16.754 9.638-27.183 16.934-.604-1.076-1.205-2.072-1.823-3.018-10.118-15.47-20.636-21.8-25.239-23.989-.053-1.457-.373-3.164-1.25-4.981-1.859-3.853-4.891-4.843-6.107-5.09-1.359-.275-2.559-.099-3.209.473-.716.628-.693 1.742-.653 3.762.034 1.653.067 3.874-.372 6.153-2.607.367-7.651 1.64-11.362 6.067-1.264 1.508-2.661 4.25-4.278 7.426-1.702 3.341-3.631 7.128-5.93 10.581-1.547 2.324-3.488 4.299-5.201 6.042-2.091 2.127-3.896 3.964-4.366 5.84-.623 2.49.426 5.607 2.549 7.581 1.035.962 2.988 2.253 6.014 2.253 1.205 0 2.58-.205 4.133-.717 3.811-1.254 12.337-8.919 13.826-10.275.806.148 1.669.225 2.556.225 1.529 0 3.123-.225 4.588-.691.08-.026.151-.054.229-.081.75 2.638 1.477 7.349-.093 13.532-.393 1.547-.905 3.149-1.4 4.698-1.817 5.683-3.697 11.56-.644 16.999 3.858 6.875 11.369 8.265 16.811 8.265 1.621 0 3.045-.124 4.148-.263 4.021 1.273 8.5 1.732 12.671 1.732 5.875 0 11.132-.898 13.612-1.668 14.799-4.597 21.984-13.475 21.536-15.07-.172-.614-.443-1.573-9.508-1.967 3.359-1.369 7.665-3.709 11.859-7.659 8.536-8.038 10.229-16.541 9.958-17.489-.261-.922-.406-1.419-13.551 1.344zm2.223 14.689c-8.124 7.649-16.896 8.953-16.984 8.965-.519.073-.894.533-.86 1.055.033.522.463.93.986.936 5.316.058 11.454.387 13.562.847-1.532 2.197-7.485 8.61-19.814 12.439-5.952 1.849-23.554 3.444-31.792-3.582-3.659-3.12-5.093-7.632-4.264-13.409.696-4.846 5.009-10.89 12.819-17.964.409-.371.44-1.003.07-1.413-.37-.409-1.003-.44-1.413-.07-8.165 7.396-12.692 13.842-13.456 19.162-.934 6.501.73 11.621 4.946 15.215.974.831 2.053 1.548 3.208 2.168-4.945-.006-11.655-1.243-15.022-7.242-2.627-4.681-.96-9.893.804-15.412.504-1.577 1.026-3.208 1.434-4.814 1.718-6.764.855-11.935.023-14.764 4.099-1.933 5.263-4.8 5.469-7.008.051-.55-.353-1.037-.903-1.088-.564-.055-1.037.353-1.088.903-.264 2.831-2.344 4.886-6.182 6.107-3.439 1.094-7.302.574-8.752-.597-.428-.346-1.059-.28-1.406.149s-.28 1.059.149 1.406c.349.282.767.527 1.233.738-3.25 2.898-9.505 8.159-12.214 9.05-4.256 1.399-6.788.174-8.16-1.102-1.799-1.672-2.353-4.098-1.97-5.63.337-1.348 1.966-3.005 3.852-4.924 1.775-1.806 3.788-3.854 5.44-6.335 2.363-3.55 4.32-7.392 6.047-10.782 1.562-3.067 2.911-5.715 4.029-7.049 2.925-3.491 6.82-4.768 9.279-5.236-.146.422-.314.84-.507 1.252-.235.5-.02 1.095.48 1.33.498.233 1.095.02 1.33-.48 1.753-3.736 1.672-7.753 1.619-10.412-.017-.833-.038-1.852.048-2.246.243-.08.873-.151 1.768.096 1.062.295 3.04 1.195 4.353 3.915 2.027 4.202.557 7.672.495 7.813-.225.504.001 1.096.505 1.321.133.059.271.087.408.087.382 0 .748-.221.914-.592.035-.079.415-.956.617-2.347 4.747 2.406 14.346 8.645 23.677 22.913.628.959 1.238 1.977 1.853 3.083-1.658 1.181-3.303 2.385-4.914 3.608-.44.334-.526.961-.192 1.401.333.44.96.526 1.401.192 19.258-14.618 45.675-28.41 50.38-30.222.555 2.292.589 10.991-4.354 18.978-8.696 14.05-19.148 16.617-19.586 16.718-.008.001-.017.004-.025.005-.537.119-.878.648-.762 1.187.116.537.642.882 1.182.769.015-.003.04-.009.076-.017 7.825-1.727 16.542-3.498 19.411-3.844-.521 2.397-2.74 8.646-9.247 14.773z"/></g></g></g></svg>