<svg id="Layer_1" enable-background="new 0 0 128 128" height="512" viewBox="0 0 128 128" width="512" xmlns="http://www.w3.org/2000/svg"><g><g><g><path d="m104.719 63.019c-5.933-6.609-14.988-9.452-23.635-7.425-.9.211-1.839 0-2.571-.58-.75-.594-1.18-1.482-1.18-2.438v-1.029c1.55-.609 2.583-1.429 2.583-2.53 0-1.383-1.536-2.163-2.583-2.558v-5.025h.935c1.966 0 3.565-1.6 3.565-3.565v-3.167c0-1.966-1.6-3.565-3.565-3.565h-24.536c-1.966 0-3.565 1.6-3.565 3.565v3.167c0 1.966 1.6 3.565 3.565 3.565h.935v5.025c-1.047.395-2.583 1.175-2.583 2.558 0 1.101 1.033 1.92 2.583 2.53v1.029c0 .956-.43 1.845-1.18 2.438-.732.58-1.672.791-2.571.58-8.644-2.027-17.701.815-23.635 7.425-8.603 9.584-8.055 24.377 1.247 33.679l23.938 23.938c3.731 3.731 8.633 5.597 13.534 5.597s9.804-1.865 13.535-5.597l23.938-23.938c9.301-9.302 9.849-24.095 1.246-33.679zm-26.844-13.994c-.096.118-.284.249-.541.384v-.756c.291.155.459.286.541.372zm-23.749 0c.082-.086.25-.217.541-.372v.756c-.258-.135-.446-.265-.541-.384z" fill="#e6e7e8"/></g><g><path d="m67.583 14.517c1.032.704 2.429.622 3.396-.195.421-.356.474-.987.116-1.409-.355-.42-.987-.474-1.409-.116-.233.197-.655.29-.979.067-.566-.385-1.021-1.404-.993-2.226.036-1.026.333-1.676.992-2.169.865-.647 2.001-.861 3.117-.585 1.164.287 2.118 1.049 2.615 2.09 1.407 2.946-.124 4.846-2.813 7.624-1.243 1.283-2.528 2.611-3.173 4.142-.812 1.921-.904 4.302-.277 7.078.105.464.518.779.975.779.073 0 .147-.008.222-.024.538-.122.877-.657.755-1.196-.534-2.359-.478-4.331.169-5.859.5-1.186 1.601-2.323 2.767-3.528 2.356-2.434 5.289-5.464 3.182-9.876-.757-1.584-2.193-2.739-3.941-3.171-1.699-.416-3.447-.081-4.794.926-1.148.86-1.735 2.071-1.792 3.701-.047 1.3.58 3.074 1.865 3.947z" fill="#e6e7e8"/></g><g><path d="m59.85 23.686c.744.576 1.446 1.12 1.794 1.698.455.756.633 1.811.526 3.133-.044.551.367 1.033.917 1.077.027.002.055.003.081.003.517 0 .954-.396.996-.92.14-1.748-.132-3.202-.807-4.324-.541-.899-1.427-1.585-2.283-2.248-1.691-1.31-2.624-2.129-2.123-3.73.165-.525.565-.951 1.101-1.167.505-.206 1.055-.187 1.5.059.265.145.448.343.545.883.059.327-.07.818-.261.991-.408.373-.438 1.005-.065 1.413.372.41 1.007.438 1.413.065.819-.748 1.031-1.987.882-2.822-.191-1.07-.7-1.818-1.556-2.286-.974-.531-2.144-.589-3.209-.157-1.092.441-1.914 1.325-2.258 2.424-.94 3.007 1.226 4.684 2.807 5.908z" fill="#e6e7e8"/></g></g><g><g><path d="m99.975 59.687c-5.946-6.624-14.698-8.988-22.662-7.119-2.549.598-4.979-1.373-4.979-3.992v-12.142h1.935c1.417 0 2.565-1.149 2.565-2.565v-3.167c0-1.417-1.149-2.565-2.565-2.565h-24.537c-1.417 0-2.565 1.149-2.565 2.565v3.167c0 1.417 1.149 2.565 2.565 2.565h1.935v12.142c0 2.619-2.43 4.591-4.979 3.992-7.964-1.87-16.716.495-22.662 7.119-8.306 9.253-7.583 23.511 1.21 32.304l3.851 3.851 20.086 20.086c7.085 7.085 18.571 7.085 25.655 0l20.086-20.086 3.851-3.851c8.792-8.792 9.516-23.051 1.21-32.304z" fill="#d4fbff"/></g><g><g><path d="m49.732 31.137h24.536c1.417 0 2.565 1.149 2.565 2.565v-3c0-1.417-1.149-2.565-2.565-2.565h-24.536c-1.417 0-2.565 1.149-2.565 2.565v3c0-1.417 1.148-2.565 2.565-2.565z" fill="#fff"/></g></g><g><path d="m28.844 75.126c-2.498 0-4.488 2.198-4.123 4.669.601 4.073 2.466 7.995 5.601 11.13l3.566 3.566 17.156 17.156c6.051 6.051 15.861 6.051 21.912 0l17.156-17.156 3.566-3.566c3.135-3.135 5.001-7.057 5.601-11.13.364-2.471-1.625-4.669-4.123-4.669z" fill="#fa759e"/></g><g fill="#ffd7e5"><path d="m40.75 83.882c-2.629 0-4.76 2.131-4.76 4.76s2.131 4.76 4.76 4.76 4.76-2.131 4.76-4.76-2.131-4.76-4.76-4.76z"/><path d="m66.764 102.599c-2.029 0-3.674 1.645-3.674 3.674s1.645 3.674 3.674 3.674 3.674-1.645 3.674-3.674-1.645-3.674-3.674-3.674z"/><circle cx="55.876" cy="97.733" r="2.077"/><circle cx="91.375" cy="82.459" r="2.164"/><path d="m51.351 78.91c-1.195 0-2.164.969-2.164 2.163s.969 2.164 2.164 2.164 2.163-.969 2.163-2.164-.969-2.163-2.163-2.163z"/></g><g><path d="m57.303 57.918-5.006 10.944c-.356.778-.326 1.679.08 2.432l14.309 26.499c.716 1.326 2.372 1.821 3.698 1.105l16.895-9.123c1.326-.716 1.821-2.372 1.105-3.698l-14.303-26.489c-.406-.752-1.141-1.271-1.987-1.401l-11.897-1.831c-1.205-.185-2.387.452-2.894 1.562zm7.988 5.24c.761 1.409.235 3.167-1.173 3.928-1.409.761-3.168.235-3.928-1.173-.761-1.409-.235-3.168 1.173-3.928s3.167-.236 3.928 1.173z" fill="#6dc9f7"/><path d="m75 71.238c-2.525-.754-5.183.681-5.937 3.206l-.346 1.16-1.16-.346c-2.525-.754-5.183.681-5.937 3.206-.754 2.525.681 5.182 3.206 5.937l1.16.346 6.424 1.919c1.501.448 3.081-.405 3.53-1.906l1.919-6.424.346-1.16c.754-2.526-.681-5.184-3.205-5.938z" fill="#fa759e"/></g><g fill="#3a2c60"><path d="m100.719 59.019c-5.933-6.609-14.988-9.452-23.635-7.425-.9.211-1.839 0-2.571-.58-.75-.594-1.18-1.482-1.18-2.438v-1.029c1.55-.609 2.583-1.429 2.583-2.53 0-1.384-1.536-2.163-2.583-2.558v-5.025h.935c1.966 0 3.565-1.6 3.565-3.565v-3.167c0-1.966-1.6-3.565-3.565-3.565h-24.536c-1.966 0-3.565 1.6-3.565 3.565v3.167c0 1.966 1.6 3.565 3.565 3.565h.935v5.025c-1.047.395-2.583 1.175-2.583 2.558 0 1.101 1.033 1.92 2.583 2.53v1.029c0 .956-.43 1.845-1.18 2.438-.732.58-1.672.791-2.571.58-8.644-2.027-17.701.815-23.635 7.425-8.603 9.584-8.055 24.377 1.247 33.679l23.938 23.938c3.731 3.731 8.633 5.597 13.534 5.597s9.804-1.865 13.535-5.597l23.938-23.938c9.301-9.302 9.849-24.095 1.246-33.679zm-26.845-13.994c-.096.118-.284.249-.541.384v-.756c.292.155.459.286.541.372zm-24.142-9.591c-.863 0-1.565-.702-1.565-1.565v-3.167c0-.863.702-1.565 1.565-1.565h24.536c.863 0 1.565.702 1.565 1.565v3.167c0 .863-.702 1.565-1.565 1.565h-1.935-3.584c-.553 0-1 .447-1 1s.447 1 1 1h2.584v8.683c-2.038.531-5.206.983-9.334.983-1.39 0-2.667-.053-3.834-.141l-.387-.555c-.315-.454-.939-.564-1.392-.249-.208.145-.333.356-.39.584-1.321-.171-2.435-.388-3.331-.622v-8.683h4.148c.553 0 1-.447 1-1s-.447-1-1-1h-5.148zm10.031 26.59c-.341.404-.603.873-.758 1.395-.299.998-.19 2.053.305 2.968.495.917 1.316 1.586 2.314 1.884.37.11.747.165 1.122.165.638 0 1.27-.158 1.848-.47 1.891-1.021 2.599-3.392 1.577-5.283 0-.001 0-.001 0-.001-.495-.916-1.317-1.584-2.314-1.883-.814-.24-1.659-.2-2.44.084-.808-1.052-1.406-2.272-1.845-3.534.156-.02.315-.03.476-.005l11.896 1.831c.532.082 1.003.414 1.259.888l14.303 26.488c.22.406.268.873.136 1.315-.133.443-.429.808-.836 1.027l-16.896 9.123c-.405.22-.872.269-1.316.136-.442-.133-.807-.429-1.026-.836l-14.311-26.498c-.257-.474-.275-1.05-.052-1.54l4.778-10.445c.456 1.123 1.039 2.21 1.78 3.191zm2.797 2.591c.165.104.349.152.529.152.333 0 .659-.167.849-.47.293-.469.15-1.086-.317-1.378-.083-.052-.16-.11-.24-.165.44.158.806.462 1.031.878.497.921.152 2.076-.768 2.573-.447.24-.961.294-1.446.148-.486-.146-.887-.471-1.128-.918-.241-.445-.294-.959-.148-1.444.05-.167.128-.319.218-.462.433.396.903.763 1.42 1.086zm-12.435-19.59c.082-.086.25-.217.541-.372v.756c-.257-.135-.445-.265-.541-.384zm47.933 46.259-23.938 23.938c-6.685 6.683-17.559 6.683-24.241 0l-23.937-23.938c-8.55-8.551-9.065-22.136-1.173-30.929 4.283-4.771 10.34-7.404 16.592-7.404 1.695 0 3.405.193 5.098.591 1.5.351 3.057.003 4.271-.96 1.231-.976 1.938-2.436 1.938-4.006v-.415c1.151.276 2.42.483 3.712.629-.042 1.387-.012 4.433.806 7.604-.323.314-.597.683-.792 1.108l-5.006 10.945c-.483 1.058-.442 2.3.11 3.322l14.309 26.498c.473.877 1.26 1.517 2.214 1.802.354.105.714.158 1.072.158.61 0 1.215-.151 1.768-.45l16.896-9.123c.876-.474 1.516-1.26 1.801-2.214.285-.955.182-1.963-.292-2.84l-14.305-26.488c-.552-1.021-1.566-1.736-2.714-1.913l-11.896-1.831c-.455-.07-.905-.046-1.336.045-.415-1.798-.57-3.541-.62-4.868.134.063.279.102.427.102.197 0 .396-.059.57-.18.259-.18.391-.461.411-.753 1.402.542 3.642 1.723 5.628 4.181.197.244.486.371.778.371.221 0 .442-.072.628-.223.43-.347.496-.977.148-1.406-1.311-1.623-2.713-2.754-3.984-3.548 2.585-.052 5.768-.315 8.331-.929v.415c0 1.57.706 3.03 1.938 4.006 1.215.962 2.77 1.31 4.271.96 7.937-1.864 16.246.749 21.689 6.813 7.893 8.794 7.378 22.379-1.172 30.93z"/><path d="m60.508 37.434h4.741c.553 0 1-.447 1-1s-.447-1-1-1h-4.741c-.553 0-1 .447-1 1s.448 1 1 1z"/><path d="m63.582 10.517c1.032.704 2.429.622 3.396-.195.421-.356.474-.987.116-1.409-.355-.42-.987-.474-1.409-.116-.233.197-.654.288-.978.067-.566-.385-1.021-1.404-.993-2.227.035-1.025.332-1.674.991-2.168.865-.647 2.001-.861 3.117-.585 1.164.287 2.118 1.049 2.615 2.091 1.407 2.945-.124 4.845-2.813 7.623-1.243 1.283-2.528 2.611-3.173 4.142-.812 1.921-.904 4.302-.277 7.078.105.464.518.779.975.779.073 0 .147-.008.222-.024.538-.122.877-.657.755-1.196-.534-2.359-.478-4.331.169-5.859.5-1.186 1.601-2.323 2.767-3.528 2.357-2.434 5.29-5.464 3.182-9.876-.757-1.584-2.193-2.739-3.941-3.171-1.699-.416-3.447-.081-4.794.926-1.149.861-1.735 2.071-1.791 3.701-.046 1.301.581 3.075 1.864 3.947z"/><path d="m55.85 19.686c.744.576 1.446 1.12 1.794 1.698.455.756.633 1.811.526 3.133-.044.551.367 1.033.917 1.077.027.002.055.003.081.003.517 0 .954-.396.996-.92.14-1.748-.132-3.202-.807-4.324-.541-.899-1.427-1.585-2.283-2.248-1.691-1.31-2.624-2.129-2.123-3.73.165-.525.565-.951 1.101-1.167.505-.206 1.055-.187 1.5.059.265.145.448.343.545.883.059.327-.07.818-.261.991-.408.373-.438 1.005-.065 1.413.372.41 1.007.438 1.413.065.819-.748 1.031-1.987.882-2.822-.191-1.07-.7-1.818-1.556-2.286-.974-.531-2.144-.589-3.209-.157-1.092.441-1.914 1.325-2.258 2.424-.94 3.006 1.226 4.684 2.807 5.908z"/><path d="m64.54 85.357 7.583 2.265c.363.109.735.163 1.104.163.628 0 1.249-.156 1.817-.463.901-.486 1.56-1.295 1.853-2.277l2.266-7.584c.91-3.049-.829-6.271-3.878-7.182-1.479-.44-3.037-.281-4.394.452-1.356.732-2.347 1.949-2.787 3.426l-.061.201-.201-.06c-1.479-.441-3.037-.281-4.394.451-1.356.732-2.347 1.949-2.787 3.427-.441 1.477-.281 3.037.451 4.394.734 1.356 1.95 2.346 3.428 2.787zm-1.961-6.608c.288-.965.936-1.761 1.821-2.239.559-.301 1.17-.454 1.787-.454.362 0 .727.053 1.084.159l1.159.347c.252.075.527.049.761-.078.233-.126.407-.34.483-.594l.347-1.16c.288-.965.936-1.76 1.821-2.238.887-.479 1.904-.583 2.871-.296 1.992.596 3.129 2.701 2.534 4.693l-2.266 7.584c-.141.47-.455.857-.887 1.09-.431.232-.927.284-1.399.144l-7.584-2.265c-.965-.289-1.76-.936-2.238-1.822-.478-.887-.583-1.906-.294-2.871z"/></g></g></g></svg>