<svg id="Layer_1" enable-background="new 0 0 128 128" height="512" viewBox="0 0 128 128" width="512" xmlns="http://www.w3.org/2000/svg"><g><g><path d="m115.096 34.379h-40.672c-.463-1.363-1.239-2.557-2.229-3.519l17.304-17.304c.391-.391.391-1.023 0-1.414s-1.023-.391-1.414 0l-17.489 17.489c-1.351-.815-2.926-1.282-4.596-1.282s-3.245.467-4.596 1.282l-17.489-17.489c-.391-.391-1.023-.391-1.414 0s-.391 1.023 0 1.414l17.304 17.304c-.991.961-1.766 2.156-2.229 3.519h-40.671c-4.783 0-8.675 3.892-8.675 8.675v68.422c0 4.783 3.892 8.675 8.675 8.675h98.191c4.783 0 8.675-3.892 8.675-8.675v-68.422c-.001-4.783-3.892-8.675-8.675-8.675z" fill="#e6e7e8"/></g><g><path d="m69.676 31.379c-.845-3.459-3.957-6.03-7.676-6.03s-6.831 2.571-7.676 6.03z" fill="#0089ef"/><g><path d="m111.095 31.379h-98.191c-4.239 0-7.675 3.436-7.675 7.675v68.422c0 4.239 3.436 7.675 7.675 7.675h98.191c4.239 0 7.675-3.436 7.675-7.675v-68.422c0-4.239-3.436-7.675-7.675-7.675z" fill="#6dc9f7"/></g><g><path d="m8.23 107.476v-68.422c0-4.239 3.436-7.675 7.675-7.675h-3c-4.239 0-7.675 3.436-7.675 7.675v68.422c0 4.239 3.436 7.675 7.675 7.675h3c-4.239 0-7.675-3.437-7.675-7.675z" fill="#fff"/></g><path d="m83.933 38.612h-62.723c-4.239 0-7.675 3.436-7.675 7.675v53.956c0 4.239 3.436 7.675 7.675 7.675h62.724c4.239 0 7.675-3.436 7.675-7.675v-53.956c-.001-4.239-3.437-7.675-7.676-7.675z" fill="#d4fbff"/><path d="m48.661 67.274c-1.108-.643-2.522-.347-3.28.685l-3.154 4.299c-.134.182-.366.264-.584.206-.249-.066-.419-.296-.409-.554l.681-16.71c.06-1.342-1.012-2.462-2.355-2.462-1.261 0-2.298.992-2.354 2.252l-.762 14.493c-.006.121-.105.215-.225.217h-.007c-.128.002-.232-.102-.232-.229v-16.286c0-1.299-1.016-2.413-2.316-2.437-1.323-.025-2.403 1.041-2.403 2.359v16.439c0 .125-.1.227-.226.229-.124.002-.226-.095-.232-.219l-.566-12.996c-.046-1.268-1.087-2.272-2.356-2.272-1.336 0-2.405 1.108-2.357 2.443l.562 12.879c.005.129-.097.237-.226.239h-.017c-.114.001-.211-.081-.229-.193l-.702-6.307c-.079-1.24-1.107-2.205-2.35-2.205-1.359 0-2.436 1.148-2.35 2.505l1.798 16.237c.397 2.462 1.586 4.625 3.279 6.25v21.783h14.496v-20.796c2.025-1.392 3.615-3.397 4.482-5.787.134-.368 3.579-7.208 5.375-10.765.598-1.186.168-2.631-.981-3.297z" fill="#fa759e"/><g><path d="m82.054 61.144c-1.242 0-2.271.965-2.35 2.205l-.702 6.307c-.018.112-.116.194-.229.193h-.017c-.129-.002-.231-.11-.226-.239l.562-12.879c.048-1.335-1.021-2.443-2.357-2.443-1.269 0-2.31 1.004-2.356 2.272l-.566 12.996c-.005.124-.108.221-.232.219-.125-.002-.226-.104-.226-.229v-16.439c0-1.318-1.08-2.383-2.403-2.359-1.299.024-2.316 1.138-2.316 2.437v16.287c0 .127-.104.231-.232.229h-.007c-.121-.002-.219-.096-.225-.217l-.761-14.494c-.056-1.26-1.093-2.252-2.354-2.252-1.343 0-2.414 1.12-2.355 2.462l.681 16.71c.01.258-.159.488-.409.554-.219.058-.45-.024-.584-.206l-3.154-4.299c-.758-1.032-2.172-1.328-3.28-.685-1.149.666-1.579 2.112-.981 3.298 1.796 3.557 5.241 10.397 5.375 10.765.867 2.389 2.457 4.394 4.482 5.787v20.795h14.496v-21.784c1.693-1.625 2.882-3.787 3.279-6.25l1.798-16.237c.085-1.357-.992-2.504-2.351-2.504z" fill="#fa759e"/><g fill="#3a2c60"><path d="m111.095 30.379h-10.512c-.552 0-1 .448-1 1s.448 1 1 1h10.512c3.681 0 6.675 2.994 6.675 6.675v68.421c0 3.681-2.994 6.675-6.675 6.675h-98.191c-3.681 0-6.675-2.994-6.675-6.675v-68.421c0-3.681 2.994-6.675 6.675-6.675h41.419 15.353 10.135c.552 0 1-.448 1-1s-.448-1-1-1h-9.387c-.463-1.363-1.239-2.557-2.229-3.519l17.304-17.304c.391-.391.391-1.023 0-1.414s-1.023-.391-1.414 0l-17.489 17.489c-1.351-.815-2.926-1.282-4.596-1.282s-3.245.467-4.596 1.282l-17.489-17.489c-.391-.391-1.023-.391-1.414 0s-.391 1.023 0 1.414l17.304 17.304c-.991.961-1.766 2.156-2.229 3.519h-40.672c-4.783 0-8.675 3.892-8.675 8.675v68.421c0 4.783 3.892 8.675 8.675 8.675h98.191c4.783 0 8.675-3.892 8.675-8.675v-68.421c0-4.783-3.892-8.675-8.675-8.675zm-49.095-4.03c2.746 0 5.171 1.605 6.276 4.03h-12.552c1.105-2.425 3.53-4.03 6.276-4.03z"/><path d="m83.696 31.379c0 .552.448 1 1 1h10.911c.552 0 1-.448 1-1s-.448-1-1-1h-10.911c-.552 0-1 .448-1 1z"/><path d="m21.21 37.612c-4.783 0-8.675 3.892-8.675 8.675v53.956c0 4.783 3.892 8.675 8.675 8.675h62.724c4.783 0 8.675-3.892 8.675-8.675v-53.956c0-4.783-3.892-8.675-8.675-8.675zm5.08 69.306v-20.783c0-.272-.111-.533-.308-.721-1.599-1.536-2.631-3.502-2.977-5.639l-1.794-16.19c-.024-.378.105-.738.364-1.014s.609-.428.987-.428c.713 0 1.307.557 1.356 1.315l.708 6.355c.096.6.665 1.034 1.249 1.034.33-.005.648-.146.875-.385s.348-.566.334-.897l-.562-12.872c-.014-.372.122-.725.38-.992s.605-.415.978-.415c.734 0 1.33.575 1.357 1.315l.566 12.996c.029.67.561 1.173 1.246 1.176.667-.01 1.21-.562 1.21-1.229v-16.437c0-.368.145-.712.407-.97s.619-.423.978-.389c.736.013 1.334.658 1.334 1.437v16.287c0 .327.134.646.367.875s.539.346.889.353c.644-.011 1.174-.522 1.208-1.165l.763-14.502c.032-.727.627-1.296 1.355-1.296.374 0 .722.149.98.419s.392.625.375 1.002l-.681 16.709c-.03.721.455 1.377 1.15 1.562.62.165 1.268-.063 1.647-.581l3.154-4.299c.457-.622 1.303-.799 1.972-.412.689.4.948 1.271.59 1.981-5.25 10.399-5.375 10.745-5.422 10.874-.785 2.161-2.206 3.996-4.109 5.305-.271.187-.433.495-.433.824v19.794h-12.493zm39.542 0v-19.795c0-.329-.162-.637-.433-.824-1.904-1.31-3.325-3.144-4.109-5.305-.043-.118-.173-.475-5.422-10.873-.359-.711-.1-1.582.59-1.982.669-.387 1.515-.21 1.972.412l3.154 4.298c.38.519 1.027.749 1.646.582.698-.185 1.183-.841 1.152-1.561l-.681-16.714c-.017-.374.117-.729.375-.999s.607-.419.981-.419c.728 0 1.323.569 1.356 1.305l.762 14.493c.034.643.564 1.154 1.216 1.165.331.009.648-.124.88-.353.233-.229.367-.549.367-.875v-16.288c0-.779.598-1.424 1.334-1.437.362-.032.715.131.978.389s.407.602.407.97v16.438c0 .667.543 1.218 1.21 1.229.66-.037 1.217-.506 1.246-1.176l.566-13.003c.026-.733.623-1.308 1.357-1.308.372 0 .719.147.977.415s.394.62.38.984l-.563 12.881c-.014.33.108.656.334.896s.545.38.89.385h.021c.598 0 1.118-.441 1.219-1.082l.707-6.354c.045-.711.639-1.268 1.352-1.268.378 0 .729.152.987.428.259.276.388.636.368.967l-1.791 16.187c-.352 2.185-1.384 4.152-2.984 5.688-.197.188-.308.449-.308.721v20.783zm24.776-60.631v53.956c0 3.681-2.994 6.675-6.675 6.675h-3.606v-20.367c1.741-1.792 2.868-4.035 3.273-6.556l1.802-16.283c.059-.921-.27-1.836-.902-2.509-.631-.673-1.523-1.059-2.446-1.059-.811 0-1.56.292-2.144.773l.182-4.151c.033-.919-.301-1.791-.939-2.452-.639-.662-1.497-1.026-2.417-1.026-.931 0-1.772.374-2.38.981v-1.161c0-.909-.357-1.761-1.006-2.397-.648-.636-1.481-.958-2.416-.961-1.742.032-3.173 1.45-3.289 3.207-.616-.745-1.548-1.216-2.589-1.216-.925 0-1.787.368-2.426 1.037-.639.668-.969 1.545-.928 2.466l.621 15.236-2.282-3.109c-1.063-1.448-3.034-1.859-4.587-.959-1.605.931-2.208 2.957-1.372 4.613 3.137 6.214 5.182 10.305 5.328 10.655.867 2.388 2.39 4.438 4.422 5.959v19.281h-23.047v-19.284c2.032-1.521 3.555-3.569 4.415-5.939.157-.377 2.151-4.368 5.335-10.676.835-1.656.232-3.682-1.372-4.612-1.553-.903-3.526-.489-4.588.958l-2.282 3.109.621-15.232c.041-.924-.289-1.802-.928-2.47-.64-.668-1.501-1.036-2.426-1.036-1.042 0-1.973.471-2.589 1.215-.117-1.756-1.547-3.173-3.289-3.205-.917 0-1.768.324-2.416.961s-1.006 1.488-1.006 2.397v1.162c-.607-.608-1.448-.982-2.379-.982-.92 0-1.778.365-2.417 1.026-.639.662-.972 1.533-.939 2.46l.181 4.148c-.583-.486-1.333-.777-2.144-.777-.923 0-1.814.386-2.446 1.059s-.96 1.588-.898 2.556l1.805 16.286c.399 2.476 1.526 4.716 3.266 6.507v20.367h-3.08c-3.681 0-6.675-2.994-6.675-6.675v-53.956c0-3.681 2.994-6.675 6.675-6.675h62.724c3.681 0 6.675 2.994 6.675 6.675z"/></g></g><g><g><path d="m109.069 91.382h-12.625c-.552 0-1-.448-1-1s.448-1 1-1h12.625c.552 0 1 .448 1 1s-.448 1-1 1z" fill="#fff"/></g><g><path d="m109.069 84.614h-12.625c-.552 0-1-.448-1-1s.448-1 1-1h12.625c.552 0 1 .448 1 1s-.448 1-1 1z" fill="#fff"/></g><g><path d="m109.069 98.15h-12.625c-.552 0-1-.448-1-1s.448-1 1-1h12.625c.552 0 1 .448 1 1s-.448 1-1 1z" fill="#fff"/></g><g><path d="m109.069 104.918h-12.625c-.552 0-1-.448-1-1s.448-1 1-1h12.625c.552 0 1 .448 1 1s-.448 1-1 1z" fill="#fff"/></g></g><g><g><path d="m107.393 43.637c-1.158-1.243-2.804-2.025-4.636-2.025-3.502 0-6.341 2.839-6.341 6.341 0 .865.175 1.69.489 2.442z" fill="#fa759e"/></g><g><path d="m98.226 52.386c1.151 1.177 2.755 1.909 4.531 1.909 3.502 0 6.341-2.839 6.341-6.341 0-.81-.158-1.581-.434-2.293z" fill="#fa759e"/></g></g><g><g><path d="m98.226 71.742c1.151 1.177 2.755 1.909 4.531 1.909 3.502 0 6.341-2.839 6.341-6.341 0-.81-.158-1.581-.434-2.293z" fill="#ffd7e5"/></g><g><path d="m107.393 62.993c-1.158-1.243-2.804-2.025-4.636-2.025-3.502 0-6.341 2.839-6.341 6.341 0 .865.175 1.69.489 2.442z" fill="#ffd7e5"/></g></g></g></g></svg>