<svg id="Layer_1" enable-background="new 0 0 128 128" height="512" viewBox="0 0 128 128" width="512" xmlns="http://www.w3.org/2000/svg"><g><g><path d="m125.949 72.382c-.404-3.993-3.411-8.228-9.216-8.687-7.877-.63-11.067 5.605-13.886 11.101-1.129 2.201-2.224 4.319-3.538 5.898 2.299-4.178 3.624-9.059 3.624-14.272 0-14.495-10.226-26.437-23.244-27.758-2.243-1.816-6.007-5.19-8.311-9.044-.826-1.381-1.294-3.708-1.746-5.959-.27-1.34-.548-2.725-.908-3.956-.97-3.314-2.133-5.508-2.939-6.765-.939-1.464-2.823-1.967-4.383-1.171l-1.855.947c-1.581.806-2.267 2.653-1.596 4.298 1.043 2.556 3.353 8.952 2.28 13.14-.981 3.826-6.24 7.069-9.375 8.699-12.319 2.027-21.791 13.617-21.791 27.569 0 5.212 1.325 10.092 3.623 14.27-1.313-1.579-2.407-3.696-3.535-5.896-2.819-5.494-6.018-11.721-13.886-11.101-5.805.459-8.811 4.693-9.216 8.687-.45 4.438 2.063 8.354 6.111 9.521 4.408 1.27 7.549-.549 9.021-2.678 1.49-2.155 1.536-4.776.116-6.677-1.898-2.541-4.61-2.703-6.517-2.009-2.073.756-3.447 2.559-3.341 4.383.033.552.506.968 1.057.94.551-.031.972-.505.94-1.056-.055-.936.799-1.94 2.03-2.389.596-.218 2.666-.766 4.229 1.327.897 1.2.835 2.905-.159 4.342-1.076 1.557-3.433 2.871-6.821 1.894-3.641-1.051-4.972-4.473-4.676-7.397.297-2.935 2.41-6.501 7.384-6.895 6.536-.521 9.169 4.601 11.949 10.02 1.47 2.865 2.89 5.601 4.884 7.429-9.413 1.014-16.767 9.001-16.767 18.679 0 10.361 8.43 18.791 18.792 18.791s18.792-8.43 18.792-18.791c0-.411-.036-.813-.062-1.218 4.017 1.609 8.501 2.421 12.988 2.421 4.488 0 8.971-.812 12.988-2.421-.026.405-.062.807-.062 1.218 0 10.361 8.43 18.791 18.792 18.791 10.361 0 18.791-8.43 18.791-18.791 0-9.678-7.355-17.665-16.767-18.679 1.994-1.828 3.415-4.564 4.884-7.429 2.78-5.419 5.409-10.54 11.948-10.02 4.975.394 7.087 3.96 7.384 6.895.297 2.925-1.034 6.347-4.675 7.397-3.384.978-5.746-.337-6.821-1.894-.994-1.437-1.057-3.142-.16-4.342 1.564-2.094 3.633-1.545 4.23-1.327 1.23.448 2.084 1.453 2.03 2.389-.032.551.389 1.024.94 1.056.543.026 1.024-.389 1.056-.94.105-1.824-1.269-3.627-3.341-4.383-1.908-.694-4.619-.532-6.518 2.009-1.42 1.9-1.374 4.521.116 6.677 1.471 2.128 4.613 3.947 9.021 2.678 4.049-1.168 6.561-5.083 6.112-9.521zm-37.535 21.545 4.216 4.216c-.563.778-.95 1.687-1.109 2.674h-5.963c.213-2.616 1.25-4.999 2.856-6.89zm3.107 8.889c.159.987.546 1.896 1.109 2.674l-4.216 4.216c-1.606-1.891-2.643-4.274-2.857-6.89zm2.523 4.088c.778.563 1.687.95 2.674 1.109v5.964c-2.616-.214-4.999-1.25-6.89-2.857zm4.675 1.109c.987-.159 1.896-.546 2.673-1.109l4.216 4.216c-1.891 1.606-4.274 2.643-6.89 2.856v-5.963zm4.087-2.523c.563-.778.95-1.687 1.109-2.674h5.964c-.214 2.616-1.25 4.999-2.856 6.89zm1.11-4.674c-.159-.987-.546-1.897-1.109-2.674l4.216-4.216c1.606 1.891 2.643 4.274 2.856 6.89zm-2.523-4.088c-.778-.563-1.687-.95-2.674-1.109v-5.964c2.616.214 4.999 1.251 6.89 2.857zm-4.674-1.109c-.987.159-1.897.546-2.675 1.109l-4.216-4.216c1.891-1.607 4.275-2.644 6.891-2.857zm-61.437 12.394c.987-.159 1.896-.546 2.674-1.109l4.216 4.216c-1.891 1.606-4.274 2.643-6.89 2.856zm2.674-11.285c-.778-.563-1.687-.95-2.674-1.109v-5.964c2.616.214 4.999 1.251 6.89 2.857zm-4.674-1.109c-.987.159-1.897.546-2.674 1.109l-4.216-4.216c1.891-1.606 4.274-2.643 6.89-2.857zm-4.089 2.523c-.563.778-.95 1.687-1.109 2.674h-5.963c.214-2.616 1.25-4.999 2.857-6.89zm-1.109 4.674c.159.987.546 1.896 1.109 2.674l-4.216 4.216c-1.606-1.891-2.643-4.274-2.857-6.89zm2.524 4.088c.777.563 1.687.95 2.674 1.109v5.964c-2.616-.214-4.999-1.25-6.89-2.856zm8.762-1.414c.563-.777.95-1.687 1.109-2.674h5.964c-.214 2.616-1.25 4.999-2.857 6.89zm1.109-4.674c-.159-.987-.546-1.897-1.109-2.674l4.216-4.216c1.606 1.891 2.643 4.274 2.857 6.89zm12.255-2.5c-.282-1.488-.743-2.909-1.354-4.252 1.091.154 2.2.243 3.329.243 1.769 0 3.497-.196 5.167-.569 2.076.44 4.174.569 6.125.569s4.049-.129 6.125-.569c1.669.373 3.397.569 5.166.569 1.129 0 2.239-.088 3.329-.243-.611 1.342-1.073 2.764-1.354 4.252-8.077 3.612-18.457 3.612-26.533 0z" fill="#e6e7e8"/></g><g><g><path d="m47.171 35.818c1.156-.181 2.336-.28 3.538-.28 1.809 0 3.568.225 5.265.63 1.923-1.216 3.956-1.885 6.026-1.885s4.104.668 6.026 1.885c1.697-.405 3.456-.63 5.265-.63.676 0 1.343.038 2.005.096-2.264-1.809-6.305-5.369-8.776-9.501-1.431-2.391-1.79-6.849-2.756-10.149-.913-3.119-1.992-5.212-2.821-6.505-.66-1.03-1.997-1.377-3.087-.821l-1.855.947c-1.107.565-1.594 1.878-1.124 3.03 1.293 3.168 3.438 9.417 2.323 13.766-1.094 4.27-6.777 7.742-10.029 9.417z" fill="#6dc9f7"/><path d="m73.291 35.538c-1.809 0-3.568.225-5.265.63-1.923-1.216-3.956-1.885-6.026-1.885s-4.104.668-6.026 1.885c-1.697-.405-3.456-.63-5.265-.63-13.61 0-24.644 12.037-24.644 26.884 0 6.783 2.308 12.975 6.107 17.705 5.695.602 10.573 3.899 13.374 8.583 1.665.387 3.391.596 5.163.596 1.777 0 3.505-.218 5.175-.609 1.949.441 4.014.609 6.117.609 2.102 0 4.167-.168 6.117-.609 1.669.391 3.398.609 5.175.609 1.771 0 3.497-.208 5.163-.596 2.801-4.684 7.679-7.981 13.374-8.583 3.799-4.73 6.107-10.922 6.107-17.705-.002-14.847-11.035-26.884-24.646-26.884z" fill="#fa759e"/><circle cx="61.648" cy="62.715" fill="#d4fbff" r="11.829"/><g><path d="m61.649 53.886c6.024 0 10.985 4.506 11.724 10.329.062-.492.105-.991.105-1.5 0-6.533-5.296-11.829-11.829-11.829s-11.829 5.296-11.829 11.829c0 .509.043 1.008.105 1.5.739-5.823 5.7-10.329 11.724-10.329z" fill="#fff"/></g></g><g><g><path d="m30.282 92.531c-2.919 0-5.285 2.366-5.285 5.285s2.366 5.285 5.285 5.285 5.285-2.366 5.285-5.285c-.001-2.919-2.367-5.285-5.285-5.285z" fill="#0089ef"/><path d="m30.282 80.025c-9.826 0-17.791 7.965-17.791 17.791s7.965 17.791 17.791 17.791 17.791-7.965 17.791-17.791-7.965-17.791-17.791-17.791zm0 31.003c-7.296 0-13.211-5.915-13.211-13.211s5.915-13.211 13.211-13.211 13.211 5.915 13.211 13.211-5.915 13.211-13.211 13.211z" fill="#6dc9f7"/></g><g><path d="m93.718 92.531c-2.919 0-5.285 2.366-5.285 5.285s2.366 5.285 5.285 5.285 5.285-2.366 5.285-5.285-2.366-5.285-5.285-5.285z" fill="#0089ef"/><path d="m75.927 97.816c0 9.826 7.965 17.791 17.791 17.791s17.791-7.965 17.791-17.791-7.965-17.791-17.791-17.791-17.791 7.965-17.791 17.791zm4.58 0c0-7.296 5.915-13.211 13.211-13.211s13.211 5.915 13.211 13.211-5.915 13.211-13.211 13.211-13.211-5.914-13.211-13.211z" fill="#6dc9f7"/></g></g><g fill="#3a2c60"><path d="m78.735 56.707c.229 1.101.424 2.226.579 3.344.069.5.498.862.989.862.046 0 .092-.003.139-.01.547-.075.929-.581.853-1.128-.161-1.162-.363-2.332-.603-3.477-.112-.54-.638-.891-1.183-.774-.54.112-.887.642-.774 1.183z"/><path d="m61.648 49.886c-7.074 0-12.829 5.755-12.829 12.829 0 7.073 5.755 12.828 12.829 12.828s12.829-5.755 12.829-12.828c0-7.074-5.755-12.829-12.829-12.829zm0 23.658c-5.971 0-10.829-4.857-10.829-10.828s4.858-10.829 10.829-10.829 10.829 4.858 10.829 10.829-4.857 10.828-10.829 10.828z"/><path d="m61.629 59.548c.392-.389.395-1.021.006-1.414-.387-.392-1.022-.395-1.414-.006l-3.352 3.324c-.392.389-.395 1.021-.006 1.414.195.197.453.296.71.296.254 0 .509-.097.704-.29z"/><path d="m65.597 59.203-7.582 7.52c-.392.389-.395 1.022-.006 1.414.195.197.453.296.71.296.254 0 .509-.097.704-.29l7.582-7.52c.393-.389.395-1.022.006-1.414-.389-.393-1.022-.395-1.414-.006z"/><path d="m30.282 83.605c-7.836 0-14.211 6.375-14.211 14.211 0 7.837 6.375 14.212 14.211 14.212s14.211-6.375 14.211-14.212c0-7.836-6.375-14.211-14.211-14.211zm9.304 22.101-4.216-4.216c.563-.777.95-1.687 1.109-2.674h5.964c-.214 2.616-1.251 4.999-2.857 6.89zm-21.465-6.89h5.964c.159.987.546 1.896 1.109 2.674l-4.216 4.216c-1.607-1.891-2.643-4.274-2.857-6.89zm2.857-8.89 4.216 4.216c-.563.777-.95 1.687-1.109 2.674h-5.964c.214-2.616 1.25-4.999 2.857-6.89zm9.304 12.174c-2.363 0-4.285-1.922-4.285-4.284s1.922-4.284 4.285-4.284 4.285 1.922 4.285 4.284-1.922 4.284-4.285 4.284zm3.674-9.372c-.777-.563-1.687-.95-2.674-1.109v-5.964c2.616.214 4.999 1.25 6.89 2.856zm-4.674-1.109c-.987.159-1.896.546-2.674 1.109l-4.216-4.216c1.891-1.606 4.274-2.643 6.89-2.856zm-2.674 11.285c.777.563 1.687.95 2.674 1.109v5.964c-2.616-.214-4.999-1.251-6.89-2.857zm4.674 1.109c.987-.159 1.896-.546 2.674-1.109l4.216 4.216c-1.891 1.606-4.274 2.643-6.89 2.857zm5.197-7.197c-.159-.987-.546-1.896-1.109-2.674l4.216-4.216c1.606 1.891 2.643 4.274 2.857 6.89z"/><path d="m121.949 68.384c-.404-3.994-3.41-8.229-9.215-8.688-7.889-.629-11.067 5.605-13.887 11.101-1.148 2.239-2.259 4.397-3.603 5.984 2.332-4.198 3.691-9.104 3.691-14.357 0-14.497-10.227-26.44-23.247-27.759-2.24-1.813-6.003-5.188-8.309-9.044-.826-1.381-1.294-3.709-1.746-5.961-.27-1.339-.547-2.723-.908-3.954-.97-3.314-2.133-5.508-2.939-6.765-.939-1.464-2.823-1.968-4.383-1.171l-1.855.947c-1.581.807-2.266 2.654-1.595 4.298 1.043 2.556 3.353 8.952 2.28 13.14-.981 3.826-6.24 7.069-9.375 8.699-12.321 2.026-21.793 13.616-21.793 27.569 0 5.252 1.358 10.156 3.69 14.354-1.343-1.586-2.454-3.743-3.602-5.981-2.819-5.494-6.009-11.724-13.887-11.101-5.805.46-8.811 4.694-9.215 8.688-.449 4.438 2.063 8.353 6.111 9.521 4.408 1.269 7.549-.55 9.021-2.677 1.49-2.155 1.536-4.776.116-6.678-1.898-2.541-4.611-2.703-6.517-2.009-2.073.756-3.447 2.559-3.341 4.383.033.553.498.979 1.057.94.551-.031.972-.505.94-1.056-.055-.936.799-1.94 2.03-2.389.596-.218 2.666-.766 4.229 1.327.897 1.201.835 2.905-.159 4.343-1.076 1.556-3.434 2.87-6.821 1.893-3.641-1.05-4.972-4.472-4.676-7.397.297-2.935 2.409-6.501 7.384-6.895 6.532-.521 9.169 4.601 11.949 10.02 1.47 2.865 2.891 5.601 4.885 7.43-9.413 1.013-16.768 9-16.768 18.678 0 10.361 8.43 18.791 18.792 18.791s18.792-8.43 18.792-18.791c0-.411-.036-.813-.062-1.218 4.018 1.609 8.5 2.421 12.988 2.421 4.487 0 8.971-.813 12.989-2.421-.026.405-.062.807-.062 1.218 0 10.361 8.43 18.791 18.791 18.791s18.791-8.43 18.791-18.791c0-9.682-7.361-17.672-16.78-18.68 2-1.825 3.426-4.559 4.898-7.428 2.779-5.419 5.41-10.54 11.948-10.02 4.975.394 7.087 3.961 7.384 6.896.296 2.925-1.035 6.347-4.676 7.396-3.383.979-5.745-.336-6.821-1.893-.993-1.437-1.056-3.142-.159-4.343 1.563-2.093 3.634-1.545 4.23-1.327 1.229.448 2.083 1.453 2.029 2.389-.032.551.389 1.023.94 1.056.537.025 1.024-.389 1.056-.94.106-1.824-1.268-3.627-3.34-4.383-1.907-.694-4.618-.533-6.518 2.009-1.42 1.901-1.374 4.522.116 6.678 1.472 2.128 4.615 3.945 9.021 2.677 4.047-1.169 6.561-5.083 6.111-9.52zm-25.014-5.961c0 6.401-2.141 12.259-5.671 16.782-5.655.743-10.516 4.002-13.432 8.621-1.47.315-2.988.481-4.54.481-.296 0-.589-.02-.883-.033 5.207-2.597 9.41-8.358 9.41-20.866 0-1.267-.043-2.546-.128-3.803-.037-.551-.517-.951-1.065-.931-.551.038-.968.515-.931 1.065.082 1.212.124 2.446.124 3.668 0 18.523-9.522 20.898-17.819 20.898s-17.819-2.375-17.819-20.898c0-17.113 8.327-32.124 17.819-32.124 6.386 0 12.76 7.194 15.861 17.903.153.53.707.834 1.239.683.53-.154.836-.709.683-1.239-2.04-7.042-5.368-12.573-9.296-15.89.925-.12 1.858-.203 2.805-.203 13.037.001 23.643 11.613 23.643 25.886zm-38.766-35.773c1.178-4.594-.977-10.988-2.366-14.392-.275-.674.006-1.431.653-1.761l1.856-.947c.639-.327 1.408-.125 1.79.47.735 1.146 1.8 3.159 2.703 6.246.336 1.148.606 2.489.866 3.787.486 2.417.988 4.917 1.991 6.594 1.884 3.147 4.594 5.925 6.826 7.919-1.456.05-2.889.225-4.292.536-1.982-1.172-4.069-1.818-6.195-1.818-2.165 0-4.26.644-6.229 1.809-1.458-.321-2.948-.495-4.462-.534 2.949-1.962 6.035-4.694 6.859-7.909zm-7.461 9.888c.932 0 1.849.08 2.759.196-6.611 5.602-11.287 17.398-11.287 30.674 0 12.508 4.203 18.269 9.41 20.866-.294.012-.587.033-.883.033-1.553 0-3.07-.166-4.54-.481-2.916-4.619-7.777-7.878-13.432-8.621-3.53-4.522-5.672-10.38-5.672-16.782.002-14.273 10.608-25.885 23.645-25.885zm-20.426 78.069c-9.259 0-16.792-7.532-16.792-16.791s7.533-16.791 16.792-16.791 16.792 7.532 16.792 16.791-7.533 16.791-16.792 16.791zm18.452-20.292c-.282-1.488-.743-2.91-1.355-4.252 1.09.157 2.2.243 3.329.243 1.746 0 3.456-.205 5.129-.577 2.088.447 4.2.577 6.163.577s4.075-.131 6.163-.577c1.673.372 3.383.577 5.129.577 1.129 0 2.24-.086 3.33-.243-.611 1.342-1.073 2.764-1.355 4.252-8.078 3.612-18.457 3.61-26.533 0zm61.775 3.501c0 9.259-7.532 16.791-16.791 16.791s-16.791-7.532-16.791-16.791 7.532-16.791 16.791-16.791 16.791 7.532 16.791 16.791z"/><path d="m79.507 97.816c0 7.837 6.375 14.212 14.211 14.212 7.837 0 14.212-6.375 14.212-14.212 0-7.836-6.375-14.211-14.212-14.211-7.836 0-14.211 6.375-14.211 14.211zm26.373-1h-5.964c-.159-.987-.546-1.896-1.109-2.674l4.216-4.217c1.606 1.892 2.643 4.275 2.857 6.891zm-2.857 8.89-4.217-4.217c.563-.777.95-1.687 1.109-2.674h5.964c-.213 2.617-1.25 5-2.856 6.891zm-21.465-6.89h5.964c.159.987.546 1.896 1.109 2.674l-4.216 4.216c-1.607-1.891-2.643-4.274-2.857-6.89zm2.856-8.89 4.216 4.216c-.563.777-.95 1.687-1.109 2.674h-5.964c.215-2.616 1.251-4.999 2.857-6.89zm13.588 7.89c0 2.362-1.922 4.284-4.284 4.284s-4.284-1.922-4.284-4.284 1.922-4.284 4.284-4.284 4.284 1.922 4.284 4.284zm-5.284-6.197c-.987.159-1.896.546-2.674 1.109l-4.216-4.216c1.891-1.606 4.274-2.643 6.89-2.856zm-2.673 11.285c.777.563 1.687.95 2.674 1.109v5.964c-2.616-.214-4.999-1.251-6.89-2.857zm4.673 1.109c.987-.159 1.896-.546 2.674-1.109l4.217 4.217c-1.891 1.606-4.274 2.643-6.89 2.857v-5.965zm2.674-11.285c-.777-.563-1.687-.95-2.674-1.109v-5.964c2.616.214 4.999 1.25 6.89 2.856z"/></g></g></g></svg>