<svg id="Layer_1" enable-background="new 0 0 128 128" height="512" viewBox="0 0 128 128" width="512" xmlns="http://www.w3.org/2000/svg"><g><g><path d="m105.283 92.998c-.042-.051-.083-.099-.134-.14-1.19-1.252-2.482-2.406-3.871-3.439.276-.284.545-.579.803-.899 3.371-4.197 3.863-12.247 3.411-19.721 2.052-.485 3.564-2.794 3.564-5.658 0-3.228-1.919-5.757-4.369-5.757-.177 0-.352.017-.525.044-.311-1.86-.602-3.35-.795-4.285 2.524-.591 4.411-2.855 4.411-5.556v-2.397c0-3.149-2.562-5.711-5.711-5.711h-1.442l-11.974-14.04 1.729-4.084c.312.049.628.082.954.082 3.353 0 6.08-2.728 6.08-6.08s-2.728-6.08-6.08-6.08c-3.172 0-5.78 2.442-6.053 5.544l-8.491 2.121c-3.071.767-5.781 2.446-7.837 4.855l-15.08 17.682h-1.443c-3.149 0-5.711 2.562-5.711 5.711v2.395c0 2.701 1.887 4.966 4.411 5.556-.193.935-.484 2.425-.795 4.285-.173-.027-.348-.044-.525-.044-2.45 0-4.369 2.529-4.369 5.757 0 2.864 1.512 5.173 3.564 5.658-.432 7.158.01 14.833 3.009 19.157h-9.474c2.87-1.26 5.842-3.042 6.432-5.196.217-.789.223-1.993-.977-3.246-1.639-1.712-3.218-1.798-4.252-1.571-3.201.702-5.701 5.342-6.996 8.3-1.295-2.958-3.795-7.598-6.996-8.3-1.035-.227-2.614-.14-4.253 1.571-1.199 1.252-1.193 2.456-.977 3.246.591 2.154 3.562 3.936 6.433 5.196h-11.39c-.553 0-1 .448-1 1v7.401c0 .552.447 1 1 1h2v22.366c0 1.654 1.346 3 3 3h85.871c1.654 0 3-1.346 3-3v-6.173c.001-7.942-3.102-15.17-8.152-20.55zm-61.11-13.102c.137-.03.272-.044.407-.044.651 0 1.3.345 1.971 1.045.599.625.568 1.061.493 1.333-.512 1.867-4.972 3.925-8.614 5.158 1.37-3.197 3.632-7.029 5.743-7.492zm-17.722 2.334c-.075-.273-.105-.708.493-1.333.671-.701 1.319-1.045 1.971-1.045.136 0 .271.015.407.044 2.112.463 4.374 4.295 5.744 7.492-3.774-1.281-8.126-3.373-8.615-5.158z" fill="#e6e7e8"/></g><g><g><path d="m95.713 85.516c-3.765 3.18-9.057 3.676-14.438 5.439-5.226 1.713-8.027 4.938-8.027 4.938s-2.801-3.225-8.027-4.938c-5.371-1.761-10.654-2.258-14.418-5.424-.291.198-.591.384-.874.592v6.233h-3v23.366c0 1.105-.896 2-2 2h61.505c1.105 0 2-.895 2-2v-6.173c.001-9.991-5.042-18.803-12.721-24.033z" fill="#fa759e"/><g><g fill="#ffd7e5"><path d="m78.272 110.872c1.177 1.242 1.903 2.914 1.903 4.76 0 .729-.114 1.431-.323 2.091h11.608v-6.85h-13.188z"/><path d="m66.323 115.632c0-1.846.727-3.518 1.903-4.76h-13.188v6.85h11.607c-.208-.66-.322-1.361-.322-2.09z"/></g><path d="m80.176 115.632c0-3.825-3.101-6.927-6.927-6.927s-6.927 3.101-6.927 6.927c0 .729.114 1.431.323 2.091h13.208c.209-.66.323-1.362.323-2.091z" fill="#fff"/></g><path d="m80.176 115.632c0-3.825-3.101-6.927-6.927-6.927s-6.927 3.101-6.927 6.927c0 .729.114 1.431.323 2.091h13.208c.209-.66.323-1.362.323-2.091z" fill="#fff"/><g><g><path d="m47.14 54.771c-.408-.248-.857-.388-1.329-.388-1.861 0-3.369 2.13-3.369 4.757s1.508 4.757 3.369 4.757c.092 0 .18-.016.27-.027.241-3.321.651-6.494 1.059-9.099z" fill="#fff"/><g><path d="m100.687 54.383c-.472 0-.921.14-1.329.388.407 2.605.818 5.778 1.059 9.099.09.011.178.027.27.027 1.861 0 3.369-2.13 3.369-4.757s-1.508-4.757-3.369-4.757z" fill="#fff"/><path d="m98.164 48.297h-49.829s-6.092 26.938.862 35.597c3.765 4.687 9.838 5.034 16.026 7.062 5.226 1.713 8.027 4.938 8.027 4.938s2.801-3.225 8.027-4.938c6.187-2.028 12.261-2.375 16.026-7.062 6.953-8.659.861-35.597.861-35.597z" fill="#d4fbff"/></g></g><path d="m98.164 48.297h-49.829s-6.092 26.938.862 35.597c3.765 4.687 9.838 5.034 16.026 7.062 5.226 1.713 8.027 4.938 8.027 4.938s2.801-3.225 8.027-4.938c6.187-2.028 12.261-2.375 16.026-7.062 6.953-8.659.861-35.597.861-35.597z" fill="#d4fbff"/><path d="m50.641 48.297v2.184c0 12.486 10.122 22.608 22.608 22.608s22.608-10.122 22.608-22.608v-2.184z" fill="#fff"/><g fill="#d4fbff"><path d="m48.249 69.036s2.059 4.056 6.169 6.725c4.252 2.761 10.623 4.1 14.571 1.674 6.037-3.711 4.762-11.536-2.149-13.043-4.83-1.053-7.601 1.845-11.683 3.889-3.706 1.856-6.908.755-6.908.755z"/><path d="m98.249 69.036s-2.059 4.056-6.169 6.725c-4.252 2.761-10.623 4.1-14.571 1.674-6.037-3.711-4.762-11.536 2.149-13.043 4.83-1.053 7.601 1.845 11.683 3.889 3.706 1.856 6.908.755 6.908.755z"/></g><circle cx="73.249" cy="71.275" fill="#ffd7e5" r="3.32"/><g><path d="m83.489 21.619 2.305-5.444c-1.972-.631-3.411-2.416-3.516-4.571l-9.246 2.31c-2.852.712-5.41 2.297-7.318 4.534l-15.38 18.033h45.829z" fill="#fa759e"/><circle cx="87.333" cy="11.358" fill="#ffd7e5" r="5.08"/><path d="m98.068 36.479h-49.638c-2.602 0-4.711 2.109-4.711 4.711v2.395c0 2.602 2.109 4.711 4.711 4.711h49.637c2.602 0 4.711-2.109 4.711-4.711v-2.395c.001-2.601-2.109-4.711-4.71-4.711z" fill="#ffd7e5"/><g><path d="m98.068 45.297h-49.638c-2.498 0-4.522-1.95-4.681-4.409-.007.102-.031.199-.031.303v2.395c0 2.602 2.109 4.711 4.711 4.711h49.637c2.602 0 4.711-2.109 4.711-4.711v-2.395c0-.104-.024-.201-.031-.303-.157 2.458-2.18 4.409-4.678 4.409z" fill="#fff"/></g></g></g></g><g><path d="m15.564 84.955v7.401h3v23.366c0 1.105.896 2 2 2h24.366c1.104 0 2-.895 2-2v-23.366h3v-7.401z" fill="#0089ef"/><path d="m28.456 84.955h8.583v32.767h-8.583z" fill="#6dc9f7"/><g fill="#3a2c60"><circle cx="73.249" cy="102.955" r="2"/><path d="m101.321 89.053c-.06-.085-.127-.158-.208-.219-1.183-1.24-2.469-2.379-3.848-3.404.28-.288.554-.586.815-.911 3.371-4.197 3.863-12.247 3.411-19.721 2.052-.485 3.564-2.794 3.564-5.658 0-3.228-1.919-5.757-4.369-5.757-.177 0-.349.033-.522.061-.312-1.868-.604-3.364-.798-4.302 2.524-.591 4.411-2.855 4.411-5.556v-2.396c0-3.149-2.562-5.711-5.711-5.711h-1.442l-11.973-14.039 1.729-4.084c.312.049.628.082.954.082 3.353 0 6.08-2.728 6.08-6.08s-2.728-6.08-6.08-6.08c-3.172 0-5.78 2.442-6.053 5.544l-8.491 2.121c-3.071.767-5.781 2.445-7.837 4.855l-15.079 17.682h-1.443c-3.149 0-5.711 2.562-5.711 5.711v2.395c0 2.701 1.887 4.966 4.411 5.556-.194.938-.486 2.434-.798 4.303-.173-.028-.345-.061-.522-.061-2.45 0-4.369 2.529-4.369 5.757 0 2.864 1.512 5.173 3.564 5.658-.432 7.157.01 14.833 3.009 19.157h-9.474c2.87-1.26 5.841-3.041 6.432-5.195.217-.79.223-1.993-.977-3.246-1.639-1.712-3.218-1.797-4.252-1.571-3.201.702-5.701 5.342-6.996 8.3-1.295-2.958-3.795-7.598-6.996-8.3-1.035-.226-2.614-.14-4.253 1.571-1.199 1.253-1.193 2.457-.977 3.246.591 2.154 3.562 3.936 6.433 5.196h-11.391c-.553 0-1 .448-1 1v7.401c0 .552.447 1 1 1h2v22.366c0 1.654 1.346 3 3 3h85.871c1.654 0 3-1.346 3-3v-6.172c.001-7.922-3.089-15.125-8.114-20.499zm-22.145 26.579c0 .367-.034.731-.102 1.09h-11.65c-.067-.359-.102-.724-.102-1.09 0-3.268 2.659-5.927 5.927-5.927s5.927 2.659 5.927 5.927zm1.049-3.76h10.235v4.85h-9.368c.05-.361.083-.724.083-1.09.001-1.36-.344-2.64-.95-3.76zm10.235-8.55v6.55h-11.782c-1.42-1.339-3.328-2.167-5.429-2.167s-4.009.828-5.429 2.167h-11.782v-6.55c0-4.514-1.918-8.686-5.107-11.636v-4.782c2.711 1.959 6.007 2.82 9.446 3.717 1.481.386 3.014.786 4.534 1.285 4.874 1.598 7.558 4.615 7.583 4.644.189.219.465.344.755.344s.565-.125.755-.344c.026-.03 2.677-3.035 7.583-4.644 1.521-.499 3.053-.898 4.535-1.285 3.508-.915 6.866-1.796 9.607-3.841 1.087.783 2.123 1.633 3.087 2.56-5.117 2.752-8.356 8.089-8.356 13.982zm-41.529-17.367v5.401h-2-8.892v-5.401zm-19.475 0h6.583v30.767h-6.583zm8.583 7.401h7.892v22.366c0 .551-.448 1-1 1h-6.892zm9.892 22.366v-22.366h1.88c2.651 2.565 4.227 6.129 4.227 9.966v7.55 5.85h-6.292c.112-.314.185-.647.185-1zm55.126-56.582c0 1.675-.741 3.155-1.714 3.61-.22-2.643-.536-5.156-.864-7.334 1.338-.201 2.578 1.578 2.578 3.724zm-15.723-51.863c2.25 0 4.08 1.83 4.08 4.08s-1.83 4.08-4.08 4.08-4.08-1.83-4.08-4.08 1.83-4.08 4.08-4.08zm-42.614 36.309v-2.396c0-2.046 1.665-3.711 3.711-3.711h24.818c.553 0 1-.448 1-1s-.447-1-1-1h-20.747l13.973-16.384c1.784-2.091 4.136-3.547 6.8-4.212l8.17-2.041c.423 1.678 1.54 3.081 3.032 3.879l-1.282 3.029-1.518-1.754c-.361-.418-.992-.463-1.41-.102s-.463.993-.102 1.411l2.563 2.962s0 .001.001.001l11.268 13.212h-6.31c-.553 0-1 .448-1 1s.447 1 1 1h10.381c2.046 0 3.711 1.665 3.711 3.711v2.395c0 2.046-1.665 3.711-3.711 3.711h-2.21-45.217-2.21c-2.046-.001-3.711-1.665-3.711-3.711zm13.71 24c2.744-1.639 4.915-2.933 8.197-2.217 1.765.385 3.167 1.25 4.076 2.435-1.07.787-1.773 2.045-1.773 3.472 0 1.379.661 2.595 1.67 3.386-.549.729-1.263 1.385-2.135 1.921-3.655 2.248-9.683.82-13.502-1.661-2.161-1.403-3.734-3.235-4.696-4.568 1.403.047 3.302-.159 5.339-1.179 1.012-.507 1.933-1.057 2.824-1.589zm12.5 3.689c0-1.279 1.04-2.32 2.319-2.32s2.319 1.041 2.319 2.32-1.04 2.32-2.319 2.32-2.319-1.041-2.319-2.32zm4.865-3.472c.91-1.184 2.311-2.05 4.076-2.435.637-.139 1.23-.202 1.795-.202 2.352 0 4.189 1.098 6.402 2.419.891.532 1.812 1.082 2.824 1.589 2.039 1.021 3.94 1.224 5.343 1.179-.959 1.331-2.529 3.159-4.7 4.568-3.819 2.48-9.851 3.907-13.502 1.661-.872-.536-1.586-1.193-2.135-1.921 1.009-.791 1.67-2.008 1.67-3.386 0-1.427-.703-2.685-1.773-3.472zm12.862-2.194c-2.717-1.615-5.36-3.034-9.212-2.194-2.416.527-4.349 1.835-5.529 3.608-.219-.034-.439-.068-.667-.068s-.448.033-.667.068c-1.18-1.773-3.113-3.081-5.529-3.608-3.852-.84-6.494.579-9.212 2.194-3.831-3.901-6.2-9.242-6.2-15.128v-1.184h43.217v1.184c-.001 5.886-2.37 11.227-6.201 15.128zm-45.216-6.469c0-2.037 1.085-3.757 2.369-3.757.07 0 .14.015.21.025-.328 2.18-.646 4.696-.865 7.342-.973-.454-1.714-1.935-1.714-3.61zm5.704-9.844h.496v1.184c0 6.254 2.45 11.942 6.433 16.17-.443.253-.897.502-1.365.736-3.253 1.628-6.019.742-6.139.702-.385-.13-.809-.016-1.075.291-.268.307-.322.746-.138 1.109.089.175 2.229 4.327 6.516 7.111 2.815 1.828 6.577 3.103 10.075 3.103 2.021 0 3.953-.425 5.563-1.416 1.229-.755 2.217-1.706 2.944-2.772.258.048.522.08.794.08s.536-.032.794-.08c.727 1.066 1.715 2.017 2.944 2.772 1.61.99 3.543 1.416 5.563 1.416 3.497 0 7.26-1.274 10.075-3.103 4.286-2.784 6.427-6.936 6.516-7.111.184-.362.128-.797-.137-1.104-.264-.307-.689-.424-1.075-.295-.116.039-2.885.929-6.14-.702-.468-.234-.922-.483-1.365-.736 3.984-4.228 6.433-9.916 6.433-16.17v-1.184h.496c.916 4.443 5.101 26.585-.831 33.97-2.615 3.255-6.457 4.258-10.905 5.418-1.512.395-3.074.802-4.653 1.32-3.906 1.28-6.515 3.356-7.715 4.471-1.2-1.115-3.809-3.191-7.715-4.471-1.579-.518-3.142-.925-4.652-1.32-4.448-1.161-8.29-2.163-10.905-5.418-5.932-7.385-1.748-29.527-.832-33.971zm-8.972 26.6c.137-.03.272-.044.407-.044.651 0 1.3.345 1.971 1.045.599.625.568 1.061.493 1.334-.512 1.866-4.972 3.925-8.614 5.157 1.37-3.197 3.632-7.03 5.743-7.492zm-17.722 2.335c-.075-.273-.105-.709.493-1.334.671-.701 1.319-1.045 1.971-1.045.136 0 .271.015.407.044 2.112.463 4.374 4.295 5.744 7.492-3.774-1.282-8.126-3.373-8.615-5.157zm-5.887 7.724h10.892v5.401h-8.892-2zm3 29.767v-22.366h7.892v23.366h-6.892c-.551 0-1-.449-1-1zm36.474-3.85h10.235c-.606 1.12-.951 2.4-.951 3.76 0 .366.033.729.083 1.09h-9.368v-4.85zm51.398 3.85c0 .551-.448 1-1 1h-13.976v-5.85-7.55c0-5.338 3.042-10.155 7.801-12.475 4.455 4.968 7.175 11.521 7.175 18.703z"/><path d="m73.249 83.714c3.355 0 5.179-2.355 5.254-2.455.334-.44.247-1.068-.193-1.401-.442-.334-1.068-.247-1.4.193-.013.017-1.287 1.663-3.66 1.663-2.381 0-3.59-1.569-3.649-1.649-.324-.443-.946-.543-1.393-.221-.448.323-.549.948-.226 1.396.072.101 1.824 2.474 5.267 2.474z"/><path d="m63.749 56.974c-2.825 0-4.364 1.989-4.428 2.073-.332.438-.246 1.057.188 1.392.436.335 1.06.254 1.4-.178.041-.052 1.032-1.288 2.839-1.288 1.836 0 2.774 1.202 2.825 1.269.195.267.499.408.807.408.202 0 .407-.062.584-.189.448-.323.549-.948.226-1.396-.061-.084-1.542-2.091-4.441-2.091z"/><path d="m82.749 56.974c-2.825 0-4.364 1.989-4.428 2.073-.332.438-.246 1.057.188 1.392.437.335 1.061.254 1.4-.178.041-.052 1.032-1.288 2.839-1.288 1.836 0 2.774 1.202 2.825 1.269.195.267.499.408.807.408.202 0 .407-.062.584-.189.448-.323.549-.948.226-1.396-.061-.084-1.542-2.091-4.441-2.091z"/><path d="m81.503 54.938 4.427.771c.059.01.116.015.173.015.478 0 .899-.342.984-.828.095-.544-.27-1.062-.813-1.157l-4.427-.771c-.552-.092-1.063.27-1.157.813-.095.544.269 1.061.813 1.157z"/><path d="m60.396 55.724c.057 0 .114-.005.173-.015l4.427-.771c.544-.095.908-.613.813-1.157-.095-.543-.604-.906-1.157-.813l-4.427.771c-.544.095-.908.613-.813 1.157.084.485.506.828.984.828z"/><path d="m77.249 37.48h6.64c.553 0 1-.448 1-1s-.447-1-1-1h-6.64c-.553 0-1 .448-1 1s.447 1 1 1z"/></g></g></g></g></svg>