<svg id="Layer_1" enable-background="new 0 0 128 128" height="512" viewBox="0 0 128 128" width="512" xmlns="http://www.w3.org/2000/svg"><g><g><path d="m111.912 67.466h-10.342v-3.618c0-1.654-1.346-3-3-3h-21.57c-.19 0-.376.054-.537.156l-6.93 4.41v-5.802c8.668-1.45 15.59-8.112 17.389-16.658l1.546 1.836c.198.235.48.356.765.356.228 0 .456-.077.644-.235.422-.355.477-.986.121-1.409l-2.702-3.208c.047-.579.089-1.159.089-1.75v-1.442l3.723 1.508c.123.05.25.074.375.074.396 0 .77-.236.927-.625.208-.512-.04-1.095-.551-1.302l-4.474-1.812v-3.146l2.083 2.617c.197.249.489.377.783.377.218 0 .438-.071.622-.218.432-.344.504-.973.16-1.405l-2.24-2.814c4.536-.072 8.207-3.779 8.207-8.333 0-.552-.448-1-1-1h-8.307l-3.573-10.217c-1.099-3.14-4.072-5.25-7.398-5.25h-21.443c-3.326 0-6.3 2.11-7.398 5.25l-3.573 10.217h-8.308c-.552 0-1 .448-1 1 0 3.558 2.245 6.595 5.389 7.79l-2.601.565c-.54.117-.882.65-.765 1.189.102.468.516.788.976.788.07 0 .142-.007.213-.023l3.481-.757-3.812 3.001c-.434.342-.509.97-.167 1.404.197.25.49.381.786.381.217 0 .435-.07.618-.214l5.497-4.327v3.218l-3.452 2.552c-.444.329-.538.955-.209 1.399.196.265.499.405.805.405.207 0 .415-.063.594-.196l2.262-1.673v1.017c0 1.044.101 2.062.246 3.067l-1.871 1.818c-.396.385-.405 1.018-.021 1.414.196.202.457.303.717.303.251 0 .502-.094.697-.283l.949-.922c2.109 8.067 8.806 14.277 17.135 15.671v5.457l-5.596-4.032c-.17-.123-.375-.189-.584-.189h-22.857c-1.654 0-3 1.346-3 3v3.618h-10.342c-1.948 0-3.534 1.585-3.534 3.534s1.585 3.533 3.534 3.533h10.342v4.06c0 1.654 1.346 3 3 3h9.479v33.396c0 1.654 1.346 3 3 3h5.502c.379 0 .726-.214.895-.554l2.979-5.97 2.266 5.883c.148.386.52.641.933.641h3.983v4.922c0 1.948 1.585 3.533 3.533 3.533s3.533-1.585 3.533-3.533v-4.922h6.126c.251 0 .493-.094.678-.265l3.662-3.374 3.643 3.373c.185.171.427.266.679.266h1.771c1.654 0 3-1.346 3-3v-33.394h9.479c1.654 0 3-1.346 3-3v-4.06h10.341c1.948 0 3.534-1.585 3.534-3.534-.001-1.948-1.586-3.533-3.534-3.533z" fill="#e6e7e8"/></g><g><g fill="#0089ef"><path d="m62 54.929c-.86 0-1.701-.07-2.533-.174v8.267l2.533 1.826 2.533-1.612v-8.48c-.832.103-1.673.173-2.533.173z"/><path d="m59.467 112.989v5.922c0 1.399 1.134 2.533 2.533 2.533s2.533-1.134 2.533-2.533v-5.922z"/></g><g fill="#0089ef"><path d="m62.6 64.466h-1.13l.53.382z"/><path d="m27.43 64.466h-11.342c-1.399 0-2.533 1.134-2.533 2.533s1.134 2.533 2.533 2.533h11.342z"/><path d="m107.912 64.466h-11.342v5.066h11.342c1.399 0 2.533-1.134 2.533-2.533s-1.134-2.533-2.533-2.533z"/></g><g><path d="m41.615 25.362v9.182c0 11.258 9.127 20.385 20.385 20.385s20.385-9.127 20.385-20.385v-9.182z" fill="#fff"/><g><path d="m32 18.023c0 4.053 3.285 7.338 7.338 7.338h45.323c4.053 0 7.338-3.285 7.338-7.338z" fill="#6dc9f7"/><g><path d="m91.354 21.023c.412-.917.646-1.93.646-3h-60c0 1.07.234 2.083.646 3z" fill="#fff"/></g><path d="m79.175 7.136c-.959-2.743-3.548-4.58-6.454-4.58h-21.442c-2.906 0-5.495 1.837-6.454 4.58l-3.808 10.887h41.967z" fill="#6dc9f7"/><g><path d="m42.535 13.681-1.519 4.342h41.967l-1.519-4.342z" fill="#fa759e"/></g></g></g><g><path d="m94.57 57.848h-21.57l-11 7-9.713-7h-22.857c-1.105 0-2 .895-2 2v14.745c0 1.105.895 2 2 2h10.479v34.396c0 1.105.895 2 2 2h5.502l3.992-8 3.08 8h17.176l4.341-4 4.32 4h1.77c1.105 0 2-.895 2-2v-34.396h10.48c1.105 0 2-.895 2-2v-14.745c0-1.105-.895-2-2-2z" fill="#fa759e"/></g><g><path d="m70.659 72.737-2 7.279 8.28 3 1-11.279z" fill="#ffd7e5"/><g fill="#3a2c60"><path d="m107.912 63.466h-10.342v-3.618c0-1.654-1.346-3-3-3h-21.57c-.19 0-.376.054-.537.156l-6.93 4.41v-5.802c8.668-1.45 15.59-8.112 17.389-16.658l1.546 1.836c.198.235.48.356.765.356.228 0 .456-.077.644-.235.423-.355.477-.986.121-1.409l-2.702-3.207c.047-.579.089-1.159.089-1.75v-1.443l3.723 1.508c.123.05.25.074.375.074.396 0 .77-.236.927-.625.208-.512-.04-1.095-.551-1.302l-4.474-1.812v-3.146l2.083 2.617c.197.248.489.377.783.377.218 0 .438-.071.622-.218.432-.344.504-.973.16-1.405l-2.24-2.815c4.536-.071 8.207-3.778 8.207-8.331 0-.552-.448-1-1-1h-8.307l-3.574-10.218c-1.098-3.141-4.072-5.25-7.398-5.25h-21.442c-3.327 0-6.3 2.11-7.398 5.25l-3.573 10.217h-8.308c-.552 0-1 .448-1 1 0 3.558 2.244 6.594 5.389 7.789l-2.601.565c-.54.117-.882.65-.765 1.189.102.468.516.788.976.788.07 0 .142-.007.213-.023l3.482-.757-3.813 3.002c-.434.342-.509.97-.167 1.404.197.25.49.381.786.381.217 0 .435-.07.618-.214l5.496-4.327v3.218l-3.451 2.552c-.444.329-.538.955-.209 1.399.196.265.499.405.805.405.207 0 .415-.064.594-.196l2.262-1.673v1.016c0 1.044.101 2.062.246 3.066l-1.871 1.818c-.396.385-.405 1.018-.021 1.414.196.202.457.303.717.303.251 0 .502-.094.697-.283l.948-.921c2.109 8.067 8.806 14.277 17.135 15.671v5.457l-5.596-4.033c-.17-.123-.375-.188-.584-.188h-22.856c-1.654 0-3 1.346-3 3v3.618h-10.342c-1.948 0-3.533 1.585-3.533 3.533s1.585 3.533 3.533 3.533h10.342v4.061c0 1.654 1.346 3 3 3h9.479v33.396c0 1.654 1.346 3 3 3h5.502c.379 0 .726-.214.895-.554l2.979-5.97 2.265 5.883c.148.386.52.641.933.641h3.984v4.922c0 1.948 1.585 3.533 3.533 3.533s3.533-1.585 3.533-3.533v-4.922h6.126c.251 0 .493-.094.678-.265l3.662-3.374 3.643 3.373c.185.171.427.266.679.266h1.77c1.654 0 3-1.346 3-3v-12.652c0-.552-.448-1-1-1s-1 .448-1 1v12.655c0 .551-.449 1-1 1h-1.378l-4.033-3.734c-.382-.354-.974-.354-1.357-.001l-4.054 3.735h-16.1l-2.833-7.359c-.142-.37-.49-.621-.885-.64-.413-.019-.766.198-.943.553l-3.715 7.446h-4.883c-.551 0-1-.449-1-1v-34.396c0-.552-.448-1-1-1h-10.48c-.551 0-1-.449-1-1v-14.745c0-.551.449-1 1-1h22.534l9.452 6.811c.331.24.775.252 1.122.033l10.754-6.844h21.278c.551 0 1 .449 1 1v14.745c0 .551-.449 1-1 1h-10.48c-.552 0-1 .448-1 1v8.074c0 .552.448 1 1 1s1-.448 1-1v-7.074h9.479c1.654 0 3-1.346 3-3v-4.061h10.342c1.948 0 3.533-1.585 3.533-3.533s-1.584-3.533-3.532-3.533zm-44.379 55.445c0 .845-.688 1.533-1.533 1.533s-1.533-.688-1.533-1.533v-4.922h3.066zm-47.445-50.379c-.845 0-1.533-.688-1.533-1.533s.688-1.533 1.533-1.533h10.342v3.066zm35.191-64.976h21.442c2.478 0 4.692 1.572 5.511 3.911l1.824 5.214h-36.111l1.824-5.214c.817-2.339 3.032-3.911 5.51-3.911zm-8.034 11.125h37.51l.819 2.343h-39.148zm-10.166 4.343h7.935.003.003 49.902c-.481 3.021-3.105 5.338-6.26 5.338h-2.277-40.77-2.277c-3.154-.001-5.778-2.317-6.259-5.338zm9.536 15.52v-8.183h38.77v8.183c0 10.689-8.696 19.385-19.385 19.385s-19.385-8.696-19.385-19.385zm19.42 29.096-1.568-1.13v-6.659c.508.036 1.016.078 1.533.078s1.025-.041 1.533-.078v6.835zm45.877 4.892h-10.342v-3.066h10.342c.845 0 1.533.688 1.533 1.533s-.688 1.533-1.533 1.533z"/><path d="m53.007 32.357c-1.126 0-2.039.913-2.039 2.039s.913 2.039 2.039 2.039 2.038-.913 2.038-2.039-.913-2.039-2.038-2.039z"/><path d="m62 42.666c1.83 0 3.318-1.488 3.318-3.318v-1.359c0-.552-.448-1-1-1s-1 .448-1 1v1.359c0 .727-.591 1.318-1.318 1.318s-1.318-.591-1.318-1.318v-1.359c0-.552-.448-1-1-1s-1 .448-1 1v1.359c0 1.829 1.488 3.318 3.318 3.318z"/><path d="m68.266 32.266 1.737.826-2.043 2.214c-.375.406-.349 1.039.057 1.413.192.178.436.265.678.265.27 0 .538-.108.735-.322l2.465-2.671 2.299 1.093c.139.066.285.097.429.097.374 0 .732-.21.904-.571.237-.499.025-1.095-.474-1.333l-1.737-.826 2.043-2.214c.375-.406.349-1.039-.057-1.413-.406-.375-1.038-.348-1.413.057l-2.465 2.671-2.299-1.093c-.498-.237-1.095-.025-1.333.474-.237.499-.025 1.096.474 1.333z"/><path d="m54.67 29.498-3.992-1.108c-.535-.147-1.083.164-1.231.696s.164 1.083.696 1.231l3.992 1.108c.09.025.18.037.268.037.438 0 .84-.291.963-.733.148-.533-.163-1.084-.696-1.231z"/><path d="m67.487 45.566c-.134-.536-.679-.864-1.212-.729l-8.034 2c-.536.133-.862.676-.729 1.212.113.455.521.758.969.758.08 0 .162-.009.243-.03l8.034-2c.536-.132.863-.674.729-1.211z"/><path d="m84.09 87.5c-.552 0-1 .448-1 1v5.927c0 .552.448 1 1 1s1-.448 1-1v-5.927c0-.552-.447-1-1-1z"/><path d="m50.571 97.235c.161.096.338.142.513.142.34 0 .671-.173.859-.486l.474-.791.609.685c.198.222.472.335.748.335.236 0 .474-.083.664-.253.413-.367.45-.999.083-1.412l-1.027-1.154.786-1.313c.284-.474.129-1.088-.344-1.372-.475-.283-1.088-.13-1.372.344l-.463.774-1.98-2.225 1.29-1.532c.355-.422.301-1.053-.121-1.409-.422-.354-1.054-.301-1.409.121l-1.103 1.31-1.451-1.63c-.367-.413-.999-.449-1.412-.083-.413.367-.45.999-.083 1.412l1.643 1.847-1.623 1.928c-.355.422-.301 1.053.121 1.409.188.158.416.235.644.235.285 0 .568-.121.766-.356l1.436-1.706 2.204 2.477-.796 1.33c-.284.475-.13 1.09.344 1.373z"/><path d="m70.523 71.746c-.396.055-.722.34-.828.726l-2 7.279c-.138.503.133 1.028.624 1.205l8.279 3c.111.041.226.06.341.06.188 0 .375-.053.538-.157.262-.167.431-.446.458-.755l1-11.279c.027-.303-.086-.602-.306-.813-.22-.21-.526-.307-.826-.267zm5.534 9.887-6.189-2.243 1.581-5.753 5.383-.739z"/></g></g></g></g></svg>