<svg id="Layer_1" enable-background="new 0 0 128 128" height="512" viewBox="0 0 128 128" width="512" xmlns="http://www.w3.org/2000/svg"><g><g><path d="m119.661 65.643c-.188-.395-.604-.621-1.043-.562-.399.056-9.847 1.406-16.371 3.817-6.581 2.432-10.281 5.43-10.436 5.557-.248.203-.383.512-.364.832.005.087.479 8.726-1.883 13.169-.794 1.494-1.919 2.849-3.324 4.057-2.883-1.593-5.98-2.828-9.226-3.661 6.166-4.371 10.66-10.945 12.322-18.571.476.181.968.278 1.463.278 3 0 5.44-3.261 5.44-7.269 0-.997-.152-1.948-.425-2.814v-13.192c0-6.968-1.961-13.486-5.358-19.034.057-.09.122-.181.177-.271 4.62-7.608 1.033-17.401-.119-18.426-.264-.235-.722-.338-1.058-.231-.695.223-.828.809-1.149 2.224-.462 2.044-1.341 5.902-3.916 9.227-6.558-6.221-15.407-10.051-25.138-10.051-20.16 0-36.563 16.402-36.563 36.563v13.192c-.273.866-.425 1.817-.425 2.814 0 4.008 2.44 7.269 5.44 7.269.495 0 .987-.097 1.463-.278 1.662 7.625 6.156 14.2 12.322 18.571-15.162 3.89-27.058 16.669-29.239 32.735-.038.286.048.575.238.793.189.217.464.342.753.342h46.01 46.01c.289 0 .563-.125.753-.342.19-.218.276-.507.238-.793-1.295-9.538-6.017-17.915-12.809-23.966 4.657-.637 8.663.905 8.707.923.283.111.6.089.86-.06.263-.148.445-.407.495-.705.012-.069 1.189-6.937 4.251-10.408 3.02-3.424 8.007-4.542 8.057-4.553.269-.059.503-.226.645-.462s.181-.521.106-.786c-.015-.051-1.432-5.173-.727-8.658.686-3.385 3.567-6.077 3.597-6.104.322-.299.414-.771.226-1.166z" fill="#e6e7e8"/></g><g><g><path d="m114.758 62.071s-9.664 1.363-16.164 3.765c-6.499 2.402-10.149 5.392-10.149 5.392s.524 8.955-1.998 13.698c-1.091 2.053-2.608 3.624-4.059 4.782 1.72.99 3.356 2.109 4.895 3.346.132-.037.249-.089.384-.122 5.678-1.383 10.854.681 10.854.681s1.202-7.178 4.487-10.904c3.286-3.726 8.595-4.87 8.595-4.87s-1.505-5.365-.744-9.126c.761-3.762 3.899-6.642 3.899-6.642z" fill="#ffd7e5"/></g><g><g><path d="m9.243 117.721h46.01v-28.207c-5.585 0-10.809-1.54-15.277-4.214-16.033 3.054-28.518 16.105-30.733 32.421z" fill="#6dc9f7"/></g><g><path d="m39.976 85.3c-16.033 3.054-28.518 16.105-30.733 32.422h3c2.115-15.576 13.59-28.169 28.574-31.938-.283-.158-.564-.319-.841-.484z" fill="#fff"/></g><g><path d="m41.415 88.594c0 7.642 6.195 13.838 13.838 13.838v-12.918c-4.909 0-9.536-1.195-13.619-3.298-.134.774-.219 1.566-.219 2.378z" fill="#fff"/></g><g><g><g><path d="m25.458 59.024v-5.492c-.538-.327-1.13-.511-1.753-.511-2.452 0-4.44 2.807-4.44 6.269s1.988 6.269 4.44 6.269c.834 0 1.606-.345 2.273-.91-.338-1.83-.52-3.71-.52-5.625z" fill="#fff"/></g></g><path d="m55.253 30.085c-4.725 0-9.002-.644-12.131-1.688-3.624-1.209-7.639-.421-10.323 2.298-4.539 4.598-7.341 10.912-7.341 17.884v11.14c0 16.455 13.339 29.795 29.795 29.795z" fill="#fff"/></g></g><g><g><path d="m70.53 85.3c-4.468 2.674-9.692 4.214-15.277 4.214v28.207h46.01c-2.215-16.316-14.7-29.367-30.733-32.421z" fill="#fa759e"/></g><g><path d="m55.253 89.514v12.918c7.642 0 13.838-6.195 13.838-13.838 0-.813-.084-1.604-.219-2.378-4.083 2.103-8.71 3.298-13.619 3.298z" fill="#ffd7e5"/></g><g><path d="m55.253 7.721c19.641 0 35.562 15.922 35.562 35.562v13.368c-.707-2.139-2.233-3.63-4.015-3.63-.623 0-1.215.184-1.753.511v-4.953c0-6.971-2.802-13.286-7.341-17.884-2.684-2.719-6.698-3.507-10.323-2.298-3.129 1.044-7.406 1.688-12.131 1.688v-22.364z" fill="#fa759e"/><g><g><path d="m85.048 59.024v-5.492c.538-.327 1.13-.511 1.753-.511 2.452 0 4.44 2.807 4.44 6.269s-1.988 6.269-4.44 6.269c-.834 0-1.606-.345-2.273-.91.338-1.83.52-3.71.52-5.625z" fill="#ffd7e5"/></g></g><path d="m55.253 30.085c4.725 0 9.002-.644 12.131-1.688 3.624-1.209 7.639-.421 10.323 2.298 4.539 4.598 7.341 10.912 7.341 17.884v11.14c0 16.455-13.339 29.795-29.795 29.795z" fill="#ffd7e5"/><path d="m68.398 52.589c-1.646 0-2.979 1.334-2.979 2.979s1.334 2.979 2.979 2.979c1.646 0 2.979-1.334 2.979-2.979s-1.334-2.979-2.979-2.979z" fill="#fa759e"/></g></g><g><path d="m79.136 19.581c-.344.304-.694.595-1.048.872-1.447 1.131-1.456 3.307.039 4.374l2.25 1.607c1.162.829 2.789.632 3.672-.489.617-.784 1.201-1.612 1.731-2.485 4.456-7.339.695-16.604.07-17.16-.675-.601-.603 7.871-6.714 13.281z" fill="#ffd7e5"/><g fill="#3a2c60"><path d="m115.661 61.643c-.188-.395-.604-.62-1.043-.562-.399.056-9.847 1.406-16.371 3.817-6.581 2.432-10.281 5.429-10.436 5.556-.248.203-.383.512-.364.832.005.087.479 8.727-1.883 13.17-.783 1.473-1.896 2.815-3.283 4.016-2.874-1.579-5.977-2.805-9.249-3.634 6.157-4.371 10.644-10.94 12.304-18.558.476.181.968.278 1.463.278 3 0 5.44-3.261 5.44-7.269 0-.997-.152-1.948-.425-2.814v-13.192c0-6.964-1.982-13.462-5.376-19.007.062-.099.134-.199.194-.298 4.622-7.612 1.032-17.403-.119-18.426-.263-.234-.719-.339-1.059-.232-.695.223-.828.809-1.148 2.223-.463 2.044-1.341 5.903-3.917 9.229-6.556-6.221-15.404-10.051-25.136-10.051-20.16 0-36.563 16.402-36.563 36.562v13.192c-.273.866-.425 1.817-.425 2.814 0 4.008 2.44 7.269 5.439 7.269.496 0 .985-.108 1.461-.292 1.658 7.624 6.147 14.199 12.307 18.572-15.443 3.914-27.056 16.797-29.222 32.747-.038.286.048.575.238.793.189.217.464.342.753.342h46.011 19.833c.553 0 1-.447 1-1s-.447-1-1-1h-18.832v-13.34c7.715-.518 13.838-6.943 13.838-14.787 0-.583-.055-1.192-.136-1.822.242-.132.479-.274.718-.413 15.205 3.038 26.885 15.121 29.428 30.362h-8.098c-.553 0-1 .447-1 1s.447 1 1 1h9.26c.289 0 .563-.125.753-.342.19-.218.276-.507.238-.793-1.289-9.494-5.926-17.901-12.723-23.979 4.624-.607 8.577.917 8.62.935.119.047.244.07.368.07.171 0 .341-.044.492-.13.263-.148.445-.407.495-.705.012-.069 1.189-6.937 4.251-10.408 3.02-3.424 8.007-4.542 8.057-4.553.269-.059.502-.226.645-.462.142-.236.181-.521.106-.785-.015-.052-1.43-5.182-.727-8.658.686-3.386 3.567-6.078 3.597-6.104.322-.296.414-.768.226-1.163zm-59.408 26.853v-11.294h2.857c.102 1.8.404 4.483 1.31 4.483s1.24-2.683 1.364-4.483h.072c.553 0 1-.447 1-1s-.447-1-1-1h-5.602v-5.498c1.938-.455 3.389-2.188 3.389-4.263v-1.986c0-.552-.447-1-1-1s-1 .448-1 1v1.986c0 .959-.571 1.782-1.389 2.162v-36.527c4.293-.082 8.326-.689 11.447-1.729 3.374-1.127 6.935-.339 9.294 2.052 4.549 4.607 7.054 10.709 7.054 17.181v11.14c-.001 15.542-12.379 28.249-27.796 28.776zm-13.796-.778c3.614 1.658 7.599 2.635 11.797 2.77v10.893c-6.612-.513-11.838-6.046-11.838-12.787-.001-.285.018-.579.041-.876zm44.343-23.159c-.366 0-.73-.109-1.088-.307.219-1.48.336-2.993.336-4.532v-5.548c.248-.089.498-.15.752-.15 1.865 0 3.44 2.413 3.44 5.269s-1.575 5.268-3.44 5.268zm3.016-21.276v9.958c-.001-.001-.001.002-.002.001-.863-.771-1.899-1.222-3.013-1.222-.254 0-.504.031-.752.077v-3.519c0-7.001-2.71-13.603-7.63-18.586-2.899-2.937-7.247-3.912-11.351-2.544-2.925.976-6.736 1.539-10.814 1.62v-20.332c8.829.252 16.83 3.843 22.809 9.537-.191.189-.384.377-.589.559-.328.291-.661.568-1.002.833-.958.75-1.492 1.868-1.466 3.068.025 1.167.587 2.227 1.54 2.908l2.251 1.606c.661.472 1.422.7 2.173.7 1.085 0 2.149-.477 2.864-1.384.125-.159.236-.321.357-.481 2.926 5.072 4.625 10.937 4.625 17.201zm-3.818-34.177c.963 3.15 1.838 9.039-1.074 13.834-.481.795-1.041 1.598-1.662 2.385-.547.696-1.559.825-2.304.294l-2.251-1.606c-.441-.316-.691-.786-.703-1.324-.012-.564.243-1.092.698-1.448.371-.29.737-.594 1.097-.912 4.017-3.556 5.486-8.295 6.199-11.223zm-62.293 55.453c-1.864 0-3.439-2.413-3.439-5.269 0-.89.167-1.724.434-2.468.081-.225.167-.443.266-.645.022-.045.047-.086.071-.13.817-1.543 2.161-2.3 3.422-1.869v5.541c0 1.54.117 3.053.336 4.532-.358.198-.723.308-1.09.308zm2.753-4.84v-11.14c0-6.472 2.505-12.574 7.053-17.181 1.648-1.67 3.883-2.557 6.229-2.557 1.014 0 2.048.166 3.065.505 3.12 1.041 7.153 1.647 11.447 1.729v36.528c-.817-.38-1.389-1.203-1.389-2.162v-1.986c0-.552-.447-1-1-1s-1 .448-1 1v1.986c0 2.075 1.451 3.808 3.389 4.263v5.498h-5.602c-.553 0-1 .447-1 1s.447 1 1 1h5.602v11.294c-15.416-.527-27.794-13.234-27.794-28.777zm13.376 26.639c.239.139.475.281.717.413-.081.627-.136 1.236-.136 1.823 0 7.844 6.123 14.269 13.838 14.787v13.34h-43.848c2.544-15.242 14.224-27.324 29.429-30.363zm28.257 2.236c0 6.742-5.226 12.274-11.838 12.787v-10.893c4.197-.135 8.183-1.112 11.796-2.77.023.298.042.592.042.876zm19.446 3.346c-1.1-.86-2.25-1.659-3.442-2.4 1.34-1.25 2.433-2.636 3.234-4.144 1.425-2.68 1.931-6.534 2.094-9.557l7.291 16.198c-2.111-.499-5.517-.964-9.177-.097zm14.721-9.893c-2.081 2.359-3.353 5.926-4.045 8.444l-7.972-17.711 18 5.139c-1.859.792-4.182 2.086-5.983 4.128zm7.62-13.532c-.534 2.642-.043 5.932.361 7.895l-19.51-5.57c1.633-1.06 4.433-2.669 8.211-4.065 4.25-1.571 9.956-2.702 13.268-3.279-.924 1.272-1.925 3.021-2.33 5.019z"/><circle cx="42.108" cy="55.568" r="2.979"/><path d="m44.599 48.924-5.835-2.937c-.492-.249-1.095-.051-1.343.443s-.05 1.095.444 1.343l5.835 2.937c.144.073.297.107.448.107.366 0 .719-.201.895-.55.248-.494.05-1.095-.444-1.343z"/><path d="m87.628 116.721h-8.125c-.553 0-1 .447-1 1s.447 1 1 1h8.125c.553 0 1-.447 1-1s-.447-1-1-1z"/><path d="m71.742 45.987-5.835 2.937c-.494.248-.692.849-.444 1.343.176.349.528.55.895.55.151 0 .305-.034.448-.107l5.835-2.937c.494-.248.692-.849.444-1.343s-.852-.692-1.343-.443z"/></g></g></g></g></svg>