<svg id="Layer_1" enable-background="new 0 0 128 128" height="512" viewBox="0 0 128 128" width="512" xmlns="http://www.w3.org/2000/svg"><g><g><path d="m86.497 23.184h-1.448c-.482-3.026-3.102-5.348-6.262-5.348h-8.828l5.248-7.497c.214-.305.24-.704.067-1.035-.172-.331-.514-.538-.887-.538h-8.945c-.356 0-.687.19-.865.499l-4.966 8.572h-6.398c-3.16 0-5.78 2.322-6.262 5.348h-1.448c-9.521 0-17.269 7.747-17.269 17.269v70.705c0 4.394 3.574 7.969 7.968 7.969h8.461c-.122.33-.199.683-.199 1.055 0 1.685 1.37 3.055 3.055 3.055h36.963c1.685 0 3.055-1.37 3.055-3.055 0-.372-.077-.725-.199-1.055h8.461c4.394 0 7.968-3.575 7.968-7.969v-70.707c-.001-9.522-7.748-17.268-17.27-17.268z" fill="#e6e7e8"/></g><g><path d="m82.497 20.184h-40.994c-8.985 0-16.269 7.284-16.269 16.269v70.705c0 3.848 3.12 6.968 6.968 6.968h59.596c3.848 0 6.968-3.12 6.968-6.968v-70.706c0-8.985-7.284-16.268-16.269-16.268z" fill="#d4fbff"/><g><path d="m82.497 20.184h-40.994c-8.148 0-14.877 5.997-16.064 13.814h73.122c-1.186-7.818-7.915-13.814-16.064-13.814z" fill="#0089ef"/></g><path d="m80.481 114.125h-36.962c-1.135 0-2.055.92-2.055 2.055s.92 2.055 2.055 2.055h36.962c1.135 0 2.055-.92 2.055-2.055s-.92-2.055-2.055-2.055z" fill="#0089ef"/><path d="m74.787 14.835h-25.574c-2.954 0-5.348 2.395-5.348 5.348h36.271c0-2.953-2.395-5.348-5.349-5.348z" fill="#0089ef"/><g><g><path d="m82.494 40.852c-1.292-.909-3.096-.525-4.071.718l-9.804 12.494c-.772.984-1.953 1.558-3.204 1.558h-.486c2.377-1.131 4.002-3.588 3.9-6.418-.128-3.565-3.146-6.521-6.713-6.581-3.827-.063-6.949 3.02-6.949 6.832 0 2.724 1.598 5.069 3.904 6.167h-.486c-1.251 0-2.432-.575-3.204-1.558l-9.804-12.494c-.975-1.242-2.779-1.626-4.071-.718-1.378.969-1.646 2.881-.62 4.189l12.859 16.388c.652.831 1.007 1.858 1.007 2.914v6.049c2.248-.887 4.688-1.391 7.248-1.391s5 .504 7.248 1.391v-6.049c0-1.057.354-2.083 1.007-2.914l12.859-16.388c1.026-1.308.758-3.22-.62-4.189z" fill="#6dc9f7"/></g></g><g><path d="m25.234 86.169v20.988c0 3.848 3.12 6.968 6.968 6.968h59.596c3.848 0 6.968-3.12 6.968-6.968v-20.988z" fill="#0089ef"/></g><g><path d="m91.798 111.125h-59.596c-3.848 0-6.968-3.12-6.968-6.968v3c0 3.848 3.12 6.968 6.968 6.968h59.596c3.848 0 6.968-3.12 6.968-6.968v-3c0 3.848-3.12 6.968-6.968 6.968z" fill="#fff"/></g><g><g><path d="m62 73.998c-8.186 0-14.821 6.635-14.821 14.821s6.635 14.821 14.821 14.821c8.186 0 14.821-6.635 14.821-14.821s-6.635-14.821-14.821-14.821z" fill="#fff"/></g><path d="m62 108.641c-10.929 0-19.819-8.891-19.819-19.819s8.89-19.821 19.819-19.821 19.819 8.892 19.819 19.82-8.89 19.82-19.819 19.82z" fill="#fa759e"/><circle cx="62" cy="88.821" fill="#ffd7e5" r="14.82"/><circle cx="62" cy="88.821" fill="#fa759e" r="1.981"/></g><g><g><path d="m61.443 5.765h8.945l-10.094 14.42h13.084l-16.358 17.858 5.338-13.6h-11.735z" fill="#fa759e"/><g fill="#3a2c60"><path d="m62 104.641c8.724 0 15.82-7.097 15.82-15.819s-7.096-15.82-15.82-15.82c-8.723 0-15.819 7.097-15.819 15.819s7.096 15.82 15.819 15.82zm0-29.639c7.62 0 13.82 6.199 13.82 13.819s-6.2 13.819-13.82 13.819-13.819-6.199-13.819-13.819 6.199-13.819 13.819-13.819z"/><path d="m62 91.802c.336 0 .654-.068.955-.171l2.624 3.301c.198.249.489.378.784.378.218 0 .438-.071.621-.217.433-.344.505-.973.161-1.405l-2.621-3.298c.285-.457.457-.991.457-1.568 0-.302-.058-.587-.142-.862l6.482-4.811c.443-.329.536-.955.207-1.398-.33-.444-.957-.536-1.398-.207l-6.472 4.803c-.474-.32-1.045-.507-1.658-.507-1.644 0-2.981 1.338-2.981 2.981s1.337 2.981 2.981 2.981zm0-3.962c.541 0 .981.44.981.981s-.44.98-.981.98-.981-.439-.981-.98.44-.981.981-.981z"/><path d="m62.002 80.741c.553 0 1-.447 1-1v-2.056c0-.553-.447-1-1-1s-1 .447-1 1v2.056c0 .553.447 1 1 1z"/><path d="m53.92 88.819c0-.553-.447-1-1-1h-2.056c-.553 0-1 .447-1 1s.447 1 1 1h2.056c.553 0 1-.447 1-1z"/><path d="m61.998 96.901c-.553 0-1 .447-1 1v2.056c0 .553.447 1 1 1s1-.447 1-1v-2.056c0-.552-.447-1-1-1z"/><path d="m70.08 88.823c0 .553.447 1 1 1h2.056c.553 0 1-.447 1-1s-.447-1-1-1h-2.056c-.553 0-1 .448-1 1z"/><path d="m82.497 19.184h-1.448c-.482-3.026-3.102-5.349-6.262-5.349h-8.828l5.248-7.497c.214-.305.24-.704.067-1.035-.172-.331-.514-.538-.887-.538h-8.945c-.356 0-.687.19-.865.499l-4.965 8.571h-6.399c-3.16 0-5.78 2.323-6.262 5.349h-1.448c-9.521 0-17.269 7.747-17.269 17.269v70.705c0 4.394 3.574 7.968 7.968 7.968h8.46c-.124.329-.198.682-.198 1.055 0 1.685 1.371 3.055 3.056 3.055h36.962c1.685 0 3.055-1.37 3.055-3.055 0-.372-.074-.726-.198-1.055h8.46c4.394 0 7.969-3.574 7.969-7.968v-42.314c0-.552-.447-1-1-1s-1 .448-1 1v20.325h-15.29c-1.238-6.952-5.921-12.722-12.23-15.456v-5.37c0-.829.282-1.645.794-2.297l12.859-16.388c.66-.841.949-1.931.793-2.989-.158-1.073-.735-2.009-1.625-2.634-1.703-1.198-4.089-.792-5.434.918l-7.984 10.175c.14-.634.201-1.292.177-1.96-.147-4.092-3.6-7.477-7.695-7.544-2.146-.011-4.117.764-5.625 2.248-1.51 1.484-2.341 3.468-2.341 5.584 0 .57.063 1.132.185 1.677l-7.987-10.18c-1.344-1.712-3.729-2.116-5.434-.918-.89.626-1.467 1.562-1.625 2.636-.155 1.058.134 2.147.794 2.988l12.858 16.388c.512.652.794 1.468.794 2.297v5.37c-6.309 2.734-10.992 8.504-12.23 15.456h-15.288v-48.718c0-.491.028-.976.074-1.455h30.834l-1.052 2.681c-.176.448-.008.958.401 1.214.164.102.347.151.529.151.272 0 .542-.111.737-.325l3.409-3.722h36.526c.046.479.074.964.074 1.455v13.549c0 .552.447 1 1 1s1-.448 1-1v-13.548c.001-9.522-7.747-17.268-17.269-17.268zm-7.71-3.349c2.054 0 3.779 1.431 4.232 3.349h-16.804l2.344-3.349zm-12.769-9.07h6.448l-8.992 12.846c-.214.305-.24.704-.067 1.035.172.331.514.538.887.538h10.812l-11.19 12.217 3.372-8.594c.121-.308.082-.655-.104-.929-.187-.273-.495-.437-.826-.437h-9.999zm-12.805 9.07h5.24l-1.94 3.349h-7.533c.454-1.918 2.179-3.349 4.233-3.349zm32.323 100.345c0 .582-.473 1.055-1.055 1.055h-36.962c-.582 0-1.056-.473-1.056-1.055s.474-1.055 1.056-1.055h36.962c.582 0 1.055.473 1.055 1.055zm-27.004-55.368-12.859-16.389c-.327-.417-.466-.937-.389-1.462.078-.525.36-.983.797-1.291.82-.575 2.035-.343 2.709.517l9.805 12.495c.968 1.233 2.423 1.941 3.99 1.941h.486c.468 0 .872-.324.976-.78.103-.456-.124-.922-.546-1.123-2.025-.964-3.334-3.03-3.334-5.264 0-1.576.619-3.053 1.743-4.159 1.123-1.105 2.617-1.694 4.189-1.673 3.05.05 5.62 2.57 5.73 5.616.083 2.326-1.225 4.477-3.331 5.48-.422.201-.648.667-.546 1.123.104.456.508.78.976.78h.487c1.568 0 3.022-.708 3.99-1.941l9.803-12.494c.677-.861 1.894-1.092 2.71-.517.437.307.72.765.797 1.29.077.526-.061 1.045-.389 1.463l-12.858 16.388c-.786 1.003-1.22 2.257-1.22 3.532v4.619c-1.974-.622-4.072-.961-6.248-.961s-4.275.339-6.248.961v-4.619c0-1.275-.434-2.529-1.22-3.532zm7.468 9.189c10.377 0 18.819 8.442 18.819 18.82 0 10.377-8.442 18.819-18.819 18.819s-18.819-8.442-18.819-18.819c0-10.378 8.442-18.82 18.819-18.82zm-20.736 17.168c-.043.547-.084 1.095-.084 1.652 0 11.479 9.34 20.819 20.819 20.819s20.819-9.34 20.819-20.819c0-.558-.04-1.106-.084-1.652h15.031v19.988c0 3.291-2.678 5.968-5.969 5.968h-59.594c-3.291 0-5.968-2.677-5.968-5.968v-19.988zm-14.621-54.172c1.572-6.758 7.63-11.813 14.859-11.813h9.852l-1.597 2.757c-.18.31-.18.691-.001 1.001s.509.5.866.5h10.268l-2.964 7.555zm36.355 0 10.82-11.813h8.678c7.23 0 13.288 5.056 14.86 11.813z"/><path d="m98.767 52.834c-.553 0-1 .448-1 1v7.166c0 .552.447 1 1 1s1-.448 1-1v-7.167c0-.552-.448-.999-1-.999z"/></g></g></g></g></g></svg>