<svg id="Layer_1" enable-background="new 0 0 128 128" height="512" viewBox="0 0 128 128" width="512" xmlns="http://www.w3.org/2000/svg"><g><g><path d="m124.673 41.532-21.756-11.8c-8.203-4.448-18.133-2.612-24.29 3.828l1.484-10.833c.058-.426-.162-.841-.548-1.032-.383-.191-.848-.114-1.152.19l-5.853 5.881-5.853-5.881c-.376-.377-1.043-.377-1.418 0l-5.848 5.88-5.851-5.88c-.303-.305-.766-.382-1.152-.191-.385.191-.606.606-.547 1.032l1.484 10.834c-6.158-6.442-16.09-8.277-24.29-3.829l-21.756 11.8c-2.325 1.261-3.28 4.143-2.129 6.424.587 1.166 1.596 2.022 2.839 2.411 1.246.39 2.561.262 3.707-.359l.19-.103c-.13 1.033.08 2.074.615 2.994 1.286 2.209 4.223 2.98 6.545 1.719l.118-.064c-.131 1.033.08 2.075.615 2.994.867 1.489 2.484 2.325 4.158 2.325.809 0 1.631-.195 2.388-.605l6.38-3.46c.051.242.094.485.155.726l8.924 48.77c.457 2.497 2.279 4.394 4.754 4.95 2.476.556 4.933-.378 6.415-2.438l7.896-10.981c1.195-1.663 3.055-2.616 5.103-2.616s3.907.953 5.104 2.616l7.896 10.981c1.198 1.666 3.035 2.596 5.003 2.596.466 0 .938-.052 1.412-.159 2.476-.557 4.297-2.453 4.753-4.949l8.909-48.703c.067-.264.115-.529.17-.794l6.381 3.461c.757.411 1.579.606 2.388.606 1.675 0 3.292-.836 4.158-2.325.535-.919.745-1.96.614-2.994l.118.064c2.322 1.259 5.261.491 6.546-1.719.535-.919.745-1.961.614-2.994l.191.104c1.144.622 2.459.75 3.705.36 1.244-.39 2.252-1.246 2.84-2.412 1.151-2.283.196-5.164-2.129-6.425z" fill="#e6e7e8"/></g><g><g><g><path d="m120.196 38.411-21.756-11.8c-8.718-4.728-19.467-2.026-24.99 5.941 4.666-1.4 9.832-.712 14.029 2.168 5.098 3.498 7.742 9.515 7.01 15.537l7.614 4.129c1.819.986 4.164.445 5.205-1.343 1.077-1.85.405-4.211-1.463-5.224l3.537 1.918c1.819.986 4.164.445 5.205-1.343 1.077-1.85.405-4.211-1.463-5.224l3.609 1.957c1.868 1.013 4.213.289 5.176-1.623.931-1.846.106-4.107-1.713-5.093z" fill="#fa759e"/></g><g><path d="m36.52 34.72c4.197-2.88 9.364-3.568 14.029-2.168-5.523-7.967-16.271-10.67-24.99-5.941l-21.756 11.8c-1.818.986-2.644 3.248-1.713 5.095.964 1.911 3.308 2.636 5.176 1.623l3.609-1.957c-1.868 1.013-2.539 3.374-1.463 5.224 1.04 1.788 3.386 2.329 5.205 1.343l3.537-1.918c-1.868 1.013-2.54 3.374-1.463 5.224 1.04 1.788 3.386 2.329 5.205 1.343l7.614-4.129c-.731-6.024 1.913-12.041 7.01-15.539z" fill="#fa759e"/></g></g><g><path d="m87.479 34.72c-6.001-4.118-13.996-3.802-19.653.777l-2.889 2.339c-1.713 1.386-4.162 1.386-5.875 0l-2.889-2.339c-5.657-4.579-13.652-4.895-19.653-.777-5.689 3.904-8.336 10.945-6.628 17.631l8.924 48.771c.829 4.528 6.686 5.845 9.373 2.108l7.896-10.981c2.907-4.043 8.923-4.043 11.83 0l7.896 10.981c2.687 3.737 8.545 2.42 9.373-2.108l8.924-48.771c1.708-6.686-.939-13.726-6.629-17.631z" fill="#d4fbff"/></g><g><path d="m76.818 100.23-8.471-10.981c-3.119-4.043-9.573-4.043-12.692 0l-8.471 10.981c-2.125 2.755-6.092 2.756-8.391.757l.025.135c.829 4.528 6.686 5.845 9.373 2.108l7.896-10.981c2.907-4.043 8.923-4.043 11.83 0l7.896 10.981c2.687 3.737 8.545 2.42 9.373-2.108l.025-.135c-2.301 1.999-6.268 1.997-8.393-.757z" fill="#fff"/></g><g><g><path d="m48.88 18.591 6.559 6.594 6.557-6.594 6.562 6.594 6.562-6.594-2.321 16.943c-.389 2.838-2.814 4.954-5.679 4.954h-10.24c-2.865 0-5.29-2.115-5.679-4.954z" fill="#ffd7e5"/><g fill="#3a2c60"><path d="m120.673 37.531-21.757-11.8c-8.157-4.425-18.078-2.703-24.29 3.826l1.484-10.831c.058-.426-.162-.841-.548-1.032-.384-.189-.848-.113-1.152.191l-5.853 5.882-5.853-5.882c-.376-.377-1.043-.377-1.418 0l-5.848 5.881-5.85-5.881c-.303-.305-.767-.382-1.152-.191s-.606.606-.547 1.032l1.484 10.831c-6.21-6.529-16.13-8.251-24.29-3.826l-21.756 11.8c-2.324 1.261-3.279 4.143-2.129 6.424.588 1.166 1.597 2.022 2.84 2.412 1.245.388 2.561.261 3.706-.36l.191-.103c-.131 1.033.08 2.074.614 2.993 1.286 2.208 4.222 2.98 6.546 1.719l.118-.064c-.131 1.033.08 2.075.615 2.994.866 1.489 2.483 2.325 4.158 2.325.809 0 1.631-.195 2.388-.605l6.38-3.461c.051.242.094.485.155.726l8.924 48.771c.457 2.496 2.278 4.393 4.754 4.949.474.106.946.158 1.412.158 1.968 0 3.806-.93 5.004-2.596l7.896-10.981c1.195-1.663 3.055-2.616 5.103-2.616 2.047 0 3.907.953 5.103 2.616l7.896 10.981c1.481 2.06 3.936 2.994 6.415 2.438 2.476-.557 4.297-2.453 4.754-4.949l2.671-14.596c.1-.543-.26-1.063-.804-1.163-.539-.104-1.063.261-1.163.804l-2.674 14.596c-.371 2.023-1.91 3.061-3.227 3.357-1.314.294-3.151.017-4.353-1.654l-7.896-10.981c-1.575-2.191-4.026-3.448-6.726-3.448-2.699 0-5.151 1.257-6.727 3.448l-7.896 10.981c-1.201 1.672-3.037 1.948-4.353 1.654-1.316-.297-2.855-1.334-3.225-3.357l-8.939-48.839c-1.597-6.252.905-12.907 6.226-16.559 3.804-2.611 8.524-3.276 12.818-2.11l.306 2.235c.454 3.317 3.321 5.818 6.669 5.818h10.239c3.348 0 6.215-2.501 6.67-5.818l.306-2.236c4.294-1.165 9.014-.5 12.819 2.111 5.32 3.651 7.822 10.306 6.21 16.626l-3.386 18.504c-.1.543.26 1.063.804 1.163.541.105 1.064-.261 1.163-.804l3.371-18.436c.067-.264.115-.529.17-.793l6.381 3.461c.757.411 1.578.605 2.387.605 1.675 0 3.292-.836 4.159-2.325.535-.919.745-1.96.614-2.994l.118.064c2.322 1.259 5.26.49 6.546-1.719.535-.919.745-1.96.614-2.993l.19.103c1.144.622 2.461.75 3.706.36 1.244-.39 2.253-1.246 2.84-2.412 1.154-2.281.199-5.163-2.125-6.424zm-84.719-3.636c-5.204 3.572-8.014 9.688-7.514 15.805l-7.021 3.808c-1.383.749-3.117.317-3.864-.967-.382-.657-.48-1.42-.275-2.149.205-.73.685-1.331 1.351-1.692.001 0 .001-.001.001-.001l5.15-2.793c.486-.263.666-.87.402-1.355-.263-.486-.871-.666-1.355-.402l-5.156 2.796s-.001.001-.001.001l-3.531 1.915c-1.384.75-3.118.316-3.864-.967-.382-.657-.479-1.42-.275-2.15s.684-1.331 1.35-1.692l5.155-2.796c.486-.263.666-.87.402-1.355s-.87-.667-1.355-.402l-5.155 2.796c-.001 0-.003.001-.004.002l-3.605 1.953c-.667.361-1.433.435-2.155.209-.723-.227-1.31-.725-1.652-1.403-.668-1.326-.087-3.016 1.296-3.766l21.756-11.8c7.389-4.007 16.38-2.42 21.971 3.534-4.15-.52-8.463.409-12.052 2.871zm35.853 1.503c-.318 2.332-2.334 4.089-4.688 4.089h-10.239c-2.354 0-4.369-1.758-4.688-4.089l-1.916-13.986 4.454 4.478c.375.378 1.043.378 1.418 0l5.848-5.881 5.853 5.881c.375.377 1.043.377 1.418 0l4.457-4.479zm49.21 7.657c-.343.678-.929 1.177-1.652 1.403-.722.228-1.488.153-2.155-.209l-3.602-1.954c-.002-.001-.005-.002-.007-.003l-5.155-2.796c-.485-.265-1.093-.083-1.355.402-.264.485-.083 1.092.402 1.355l5.155 2.796.004.002c.664.361 1.142.961 1.346 1.689.205.729.107 1.493-.274 2.15-.747 1.284-2.481 1.716-3.864.967l-3.53-1.914c-.001 0-.001-.001-.002-.002l-5.156-2.796c-.486-.264-1.093-.083-1.355.402-.264.485-.083 1.092.402 1.355l5.149 2.792c.001 0 .001.001.002.002h.001c.666.361 1.146.962 1.35 1.691.205.73.107 1.493-.274 2.15-.747 1.284-2.48 1.716-3.864.967l-7.028-3.812c.492-6.145-2.316-12.238-7.507-15.801-3.588-2.463-7.9-3.391-12.051-2.873 5.591-5.954 14.58-7.54 21.969-3.533l21.757 11.8c1.38.755 1.962 2.444 1.294 3.77z"/><path d="m90.171 73.863c-.539-.102-1.063.261-1.163.804l-1.33 7.27c-.1.543.26 1.063.804 1.163.061.012.121.017.181.017.474 0 .895-.338.982-.82l1.33-7.27c.099-.543-.26-1.064-.804-1.164z"/><path d="m48.265 61.055c.44.333 1.068.245 1.401-.193.009-.013 1.021-1.281 2.833-1.281 1.841 0 2.779 1.209 2.825 1.27.196.267.499.408.807.408.203 0 .407-.062.584-.189.448-.323.549-.948.226-1.396-.062-.085-1.543-2.092-4.442-2.092-2.824 0-4.363 1.989-4.428 2.073-.332.439-.246 1.066.194 1.4z"/><path d="m67.072 59.654c-.332.438-.246 1.057.188 1.392.437.334 1.061.255 1.4-.178.041-.052 1.032-1.288 2.839-1.288 1.835 0 2.773 1.202 2.824 1.269.195.267.499.408.807.408.202 0 .407-.062.584-.189.448-.323.549-.948.226-1.396-.062-.085-1.542-2.092-4.44-2.092-2.825 0-4.364 1.989-4.428 2.074z"/><path d="m74.681 56.316c.059.01.116.015.173.015.478 0 .899-.342.984-.828.095-.544-.27-1.062-.813-1.157l-4.428-.771c-.554-.092-1.063.27-1.157.813-.095.544.27 1.062.813 1.157z"/><path d="m49.146 56.33c.057 0 .115-.005.173-.015l4.427-.771c.544-.095.908-.613.813-1.157-.095-.543-.609-.902-1.157-.813l-4.427.771c-.544.095-.908.613-.813 1.157.085.486.507.828.984.828z"/></g></g></g><g><path d="m62 75.266c-3.443 0-5.195-2.372-5.268-2.474-.323-.447-.222-1.072.226-1.396.448-.322 1.068-.224 1.392.22.058.077 1.267 1.649 3.65 1.649 2.373 0 3.648-1.646 3.661-1.663.332-.438.96-.526 1.401-.192.439.334.526.961.192 1.401-.076.1-1.899 2.455-5.254 2.455z" fill="#fa759e"/></g><g fill="#ffd7e5"><path d="m74.894 63.85c-1.109 0-2.008.567-2.008 1.265s.899 1.266 2.008 1.266 2.008-.567 2.008-1.266-.899-1.265-2.008-1.265z"/><path d="m49.106 63.568c-1.109 0-2.008.567-2.008 1.265 0 .699.899 1.266 2.008 1.266s2.008-.567 2.008-1.266c0-.698-.899-1.265-2.008-1.265z"/></g></g></g></svg>