<svg id="Layer_1" enable-background="new 0 0 128 128" height="512" viewBox="0 0 128 128" width="512" xmlns="http://www.w3.org/2000/svg"><g><path d="m76.397 86.614c6.294-3.101 11.01-8.924 12.612-15.922.306.09.616.149.929.149 3.492 0 4.369-13.619 4.369-13.757 0-1.094-.574-1.463-.916-1.586-.205-.073-.413-.078-.627-.052-.469-6.175-1.705-12.274-3.699-18.152l-5.271-15.541c-.29-.855-1.476-.918-1.855-.099l-1.288 2.786-5.041-10.032c-.413-.823-1.625-.697-1.86.194l-1.626 6.155-4.253-13.595c-.284-.909-1.558-.943-1.891-.051l-5.042 13.501-.847-5.523c-.147-.957-1.433-1.168-1.877-.307l-4.853 9.398-.912-2.793c-.287-.881-1.514-.931-1.873-.077l-5.796 13.805c-2.735 6.515-4.5 13.377-5.286 20.37-.309-.094-.599-.089-.886.013-.342.123-.916.493-.916 1.586 0 .138.877 13.757 4.369 13.757.313 0 .623-.059.93-.149 1.602 6.999 6.318 12.822 12.612 15.923-14.559 2.081-25.79 14.627-25.79 29.753v6.173c0 1.654 1.346 3 3 3h66.373c1.654 0 3-1.346 3-3v-6.173c0-15.127-11.23-27.673-25.789-29.754z" fill="#e6e7e8"/><g><g><path d="m68.124 83.305h-.417c9.723-2.529 16.901-11.366 16.901-21.88v-8.593c0-5.081-4.119-9.2-9.2-9.2h-.678c-3.05 0-5.996 1.107-8.291 3.115-2.542 2.224-6.338 2.224-8.879 0-2.295-2.008-5.241-3.115-8.291-3.115h-.678c-5.081 0-9.2 4.119-9.2 9.2v8.593c0 10.515 7.178 19.351 16.901 21.88h-.417c-16.05 0-29.062 13.011-29.062 29.062v6.173c0 1.105.895 2 2 2h66.373c1.105 0 2-.895 2-2v-6.173c0-16.05-13.011-29.062-29.062-29.062z" fill="#ffd7e5"/><path d="m29.814 118.54v-6.173c0-16.05 13.011-29.062 29.062-29.062h-3c-16.05 0-29.062 13.011-29.062 29.062v6.173c0 1.105.895 2 2 2h3c-1.105 0-2-.896-2-2z" fill="#fff"/><path d="m51.996 83.571c-3.976.531-7.698 1.861-10.996 3.83v33.139h42v-15.331z" fill="#0089ef"/><g fill="#fa759e"><path d="m59.508 88.813c-1.637 1.985-3.63 5.152-2.028 7.396 2.064 2.89 10.074 3.211 13.233.425z"/><path d="m41 113.687c1.16 1.76 3.345 2.952 5.565 2.115 3.829-1.445 5.868-8.91 1.929-7.288-3.514 1.447-5.953-1.381-7.494.224z"/><path d="m83 118.553c-2.463-2.743-2.917-4.594-5.167-4.593-3.352 0-4.443 3.449-1.635 6.214.134.132.281.252.435.366h6.367z"/></g></g><g><path d="m84.608 56.716v4.709c0 1.289-.114 2.552-.321 3.782.49.392 1.048.634 1.651.634 1.861 0 3.369-10.13 3.369-12.757s-4.29 3.383-4.699 3.632z" fill="#ffd7e5"/><path d="m39.392 61.425v-4.709c-.408-.248-4.699-6.258-4.699-3.631s1.508 12.757 3.369 12.757c.603 0 1.161-.242 1.651-.634-.208-1.232-.321-2.494-.321-3.783z" fill="#ffd7e5"/><g fill="#3a2c60"><path d="m41 101.959c.552 0 1-.448 1-1v-4.5c0-.552-.448-1-1-1s-1 .448-1 1v4.5c0 .552.448 1 1 1z"/><path d="m72.379 82.623c6.303-3.099 11.026-8.926 12.63-15.931.306.09.616.149.929.149 3.492 0 4.369-13.619 4.369-13.756 0-1.094-.574-1.463-.917-1.586-.211-.076-.426-.08-.648-.048-.466-6.176-1.683-12.277-3.677-18.156l-5.271-15.541c-.29-.855-1.476-.918-1.855-.099l-1.288 2.786-5.041-10.032c-.413-.823-1.625-.697-1.86.194l-1.626 6.155-4.253-13.596c-.284-.909-1.558-.943-1.891-.051l-5.042 13.501-.847-5.523c-.147-.957-1.433-1.168-1.877-.307l-4.853 9.398-.912-2.793c-.287-.881-1.514-.931-1.873-.077l-5.796 13.805c-2.736 6.517-4.485 13.384-5.266 20.38-.317-.101-.613-.101-.906.003-.342.123-.917.493-.917 1.586 0 .138.877 13.756 4.369 13.756.313 0 .623-.059.93-.149 1.603 7.006 6.327 12.833 12.63 15.932-14.566 2.074-25.807 14.614-25.807 29.744v6.172c0 1.654 1.346 3 3 3h66.373c1.654 0 3-1.346 3-3v-6.172c.001-15.13-11.24-27.67-25.807-29.744zm13.421-17.79c-.141-.016-.283-.058-.425-.122.15-1.075.234-2.171.234-3.286v-4.303c.143-.164.329-.388.594-.71.429-.521 1.345-1.632 2.067-2.354-.234 3.415-1.5 9.814-2.47 10.775zm-47.6 0c-.971-.961-2.237-7.36-2.47-10.775.722.722 1.638 1.833 2.067 2.354.265.322.451.546.594.71v4.303c0 1.116.083 2.212.234 3.286-.142.064-.284.106-.425.122zm2.192-3.408v-8.593c0-4.521 3.678-8.2 8.2-8.2h.678c2.809 0 5.519 1.019 7.632 2.868 2.906 2.543 7.29 2.544 10.197 0 2.114-1.849 4.824-2.868 7.632-2.868h.678c4.521 0 8.2 3.678 8.2 8.2v8.593c0 11.915-9.693 21.608-21.608 21.608s-21.609-9.693-21.609-21.608zm-12.578 57.115v-6.172c0-9.585 4.833-18.058 12.187-23.123v3.934c0 .552.448 1 1 1s1-.448 1-1v-5.187c2.956-1.689 6.243-2.86 9.742-3.379l6.34 4.425c-2.309 3.121-2.816 5.792-1.415 7.753.993 1.391 3.098 2.364 5.773 2.669.539.062 1.128.097 1.745.097 2.193 0 4.726-.446 6.551-1.687l11.263 7.86v9.99c-1.167-1.547-2.109-2.762-4.167-2.762-1.86 0-3.337.895-3.951 2.393-.531 1.295-.319 2.805.533 4.188h-32.415v-3.45c.887.602 1.931.994 3.064.994.599 0 1.221-.107 1.854-.346 2.453-.925 4.288-3.875 4.645-6.193.196-1.274-.083-2.28-.786-2.833-.463-.365-1.302-.684-2.664-.123-1.519.626-2.782.293-4.004-.03-.678-.179-1.404-.362-2.109-.314v-2.868c0-.552-.448-1-1-1s-1 .448-1 1v15.164h-11.186c-.552 0-1-.449-1-1zm41.121-21.928c-1.601.787-3.938 1.125-6.268.86-2.083-.238-3.718-.928-4.373-1.845-1.08-1.512.218-3.843 1.417-5.454zm-26.935 12.644c.286-.083.722.004 1.6.236 1.323.349 3.135.828 5.275-.055.355-.146.549-.158.624-.158h.036c.05.062.191.486-.038 1.391-.401 1.584-1.689 3.593-3.285 4.196-1.688.634-3.289-.264-4.212-1.495zm34.899 10.205c-1.116-1.099-1.563-2.383-1.166-3.351.3-.731 1.065-1.151 2.1-1.151 1.039 0 1.455.487 2.615 2.025.436.578.923 1.224 1.551 1.947v.608h-5.016c-.028-.025-.056-.051-.084-.078zm19.288-.921c0 .551-.449 1-1 1h-11.187v-.987-13.344-4.07c0-.552-.448-1-1-1s-1 .448-1 1v2.153l-27.166-18.96c.346-.013.692-.026 1.042-.026h.303c1.863.474 3.813.728 5.822.728s3.959-.254 5.822-.728h.303c15.474 0 28.062 12.588 28.062 28.062v6.172z"/><path d="m67.806 74.659c.333-.44.247-1.067-.193-1.401-.442-.335-1.069-.247-1.401.193-.015.02-1.485 1.918-4.212 1.918-2.748 0-4.137-1.817-4.202-1.904-.324-.444-.946-.543-1.393-.221-.448.323-.549.948-.226 1.396.081.111 2.013 2.729 5.82 2.729 3.711.001 5.724-2.599 5.807-2.71z"/><path d="m52.026 56c-1.249 0-2.261 1.012-2.261 2.261s1.012 2.261 2.261 2.261 2.261-1.012 2.261-2.261-1.013-2.261-2.261-2.261z"/><path d="m71.974 56c-1.249 0-2.261 1.012-2.261 2.261s1.012 2.261 2.261 2.261 2.261-1.012 2.261-2.261-1.012-2.261-2.261-2.261z"/><path d="m62 69.323c1.969 0 3.571-1.602 3.571-3.571v-1.507c0-.552-.448-1-1-1s-1 .448-1 1v1.507c0 .866-.705 1.571-1.571 1.571s-1.571-.705-1.571-1.571v-1.507c0-.552-.448-1-1-1s-1 .448-1 1v1.507c0 1.969 1.602 3.571 3.571 3.571z"/><path d="m70.374 53.667 4.427.229c.018.001.035.001.053.001.528 0 .97-.415.998-.948.029-.552-.396-1.022-.947-1.05l-4.427-.229c-.555-.035-1.022.395-1.05.947-.03.551.395 1.021.946 1.05z"/><path d="m53.522 51.669-4.427.229c-.551.028-.976.499-.947 1.05.027.534.469.948.998.948.018 0 .035 0 .053-.001l4.427-.229c.551-.028.976-.499.947-1.05-.029-.552-.512-.983-1.051-.947z"/></g></g></g></g></svg>