<svg id="Layer_1" enable-background="new 0 0 128 128" height="512" viewBox="0 0 128 128" width="512" xmlns="http://www.w3.org/2000/svg"><g><path d="m114.815 109.612c-.058-.028-5.773-2.924-6.157-7.701-.259-3.221.457-7.144 1.148-10.937.807-4.423 1.568-8.602.869-11.755-1.226-5.532-4.187-8.576-6.559-10.19.518-3.708.324-7.656-1.309-12.027-2.998-8.025-8.258-10.489-11.945-11.187-1.009-2.073-2.415-4.135-4.332-6.179-7.728-8.241-18.394-9.194-25.376-8.733-1.897-2.257-4.114-2.961-5.145-3.17-1.474-.298-2.77-.112-3.466.5-.756.664-.731 1.879-.687 4.087.039 1.903.076 4.479-.468 7.109-.088.012-.177.024-.271.038l-16.521-19.17c-.969-1.124-2.535-1.378-3.811-.617-1.274.761-1.794 2.261-1.264 3.647l8.886 23.241c-1.308 1.726-2.75 4.546-4.403 7.79-1.89 3.709-4.031 7.913-6.585 11.749-1.722 2.586-3.879 4.78-5.782 6.717-2.308 2.348-4.301 4.375-4.814 6.428-.681 2.725.468 6.139 2.795 8.301 1.587 1.476 5.144 3.656 11.146 1.681 4.239-1.396 13.794-10.004 15.333-11.407.901.169 1.87.256 2.866.256 1.686 0 3.444-.248 5.062-.763.146-.046.277-.098.417-.146.915 2.941 1.838 8.267-.12 15.171-2.992 10.547-11.733 17.632-11.821 17.702-.332.265-.46.711-.319 1.112s.519.669.943.669h59.471c1.865.681 3.699.928 5.354.928 3.875 0 6.777-1.312 6.84-1.342.348-.163.572-.51.577-.894.008-.384-.208-.737-.552-.908z" fill="#e6e7e8"/><g><path d="m35.545 42.74c3.58-4.238 8.335-5.69 11.187-6.189l-16.893-19.601c-1.463-1.698-4.183-.073-3.383 2.02z" fill="#d4fbff"/><path d="m39.128 106.827h59.602c-3.048-1.184-6.179-3.655-8.684-8.433-.296-.564-.546-1.139-.776-1.719-2.106-1.576-4.355-3.763-6.175-6.728-3.368-1.684-7.33-5.01-9.948-11.597-5.024-12.639 7.142-22.801-1.648-35.025-3.12-4.338-8.452-6.019-12.484-6.663.198-1.759.09-4.219-1.208-6.908-2.52-5.223-7.52-5.721-8.603-4.77-.912.801.338 6.004-.991 11.361-2.343.224-8.395 1.293-12.709 6.439-2.714 3.237-6.212 12.307-11.25 19.875-3.828 5.75-9.625 9.5-10.458 12.833-1.053 4.213 3.055 11.952 12.659 8.79 4.366-1.438 15.175-11.382 15.175-11.382l.368-.118c2.253.482 5.129.411 7.728-.417.475-.151.918-.316 1.345-.488 1.039 2.781 2.493 8.716.217 16.738-3.122 11.002-12.16 18.212-12.16 18.212z" fill="#ffd7e5"/><path d="m51.07 71.878c1.038 2.779 2.492 8.716.216 16.738-3.121 11-12.159 18.21-12.159 18.21h3s9.038-7.21 12.159-18.21c2.724-9.604.106-16.221-.747-18.002-.711.467-1.534.888-2.469 1.264z" fill="#fff"/><g><path d="m103.662 97.992c-.568-7.061 3.286-16.929 2.038-22.556-1.244-5.61-4.392-8.497-6.661-9.901-1.118 6.784-4.656 12.934-5.976 20.233-1.612 8.915 2.848 14.474 2.848 14.474s-3.117-.929-6.642-3.569c.23.581.481 1.157.777 1.722 7.417 14.148 20.324 8.114 20.324 8.114s-6.275-3.122-6.708-8.517z" fill="#0089ef"/></g><path d="m93.063 85.768c2.053-11.349 9.477-19.916 4.807-32.416-3.001-8.032-8.283-10.17-11.704-10.669 5.16 11.219-1.63 22.787-1.482 34.569.1 7.93 4.807 14.422 4.807 14.422s-2.874.035-6.397-1.727c4.868 7.928 12.816 10.295 12.816 10.295s-4.459-5.56-2.847-14.474z" fill="#fa759e"/><path d="m84.685 77.252c-.177-14.024 9.482-27.742-2.885-40.932-7.594-8.099-18.308-8.864-25.082-8.357.394.524.763 1.117 1.088 1.791 1.298 2.689 1.406 5.149 1.208 6.908 4.032.644 9.364 2.325 12.484 6.663 8.791 12.225-3.376 22.387 1.648 35.025 5.357 13.475 16.345 13.323 16.345 13.323s-4.707-6.492-4.806-14.421z" fill="#6dc9f7"/><g fill="#3a2c60"><path d="m64.002 105.827h-5.955c-.552 0-1 .448-1 1s.448 1 1 1h5.955c.552 0 1-.448 1-1s-.448-1-1-1z"/><path d="m110.815 105.613c-.058-.028-5.773-2.925-6.157-7.701-.259-3.221.457-7.144 1.148-10.937.807-4.423 1.568-8.602.869-11.755-1.21-5.458-4.128-8.516-6.561-10.176.521-3.712.328-7.665-1.308-12.042-3.091-8.273-8.611-10.591-11.961-11.217-1.008-2.062-2.409-4.114-4.316-6.148-7.505-8.004-17.822-9.18-25.35-8.701-1.903-2.282-4.135-2.991-5.171-3.202-1.473-.299-2.77-.112-3.466.5-.756.664-.731 1.879-.687 4.087.039 1.904.077 4.482-.469 7.114-.085.012-.175.025-.265.038l-16.524-19.176c-.969-1.124-2.534-1.378-3.811-.617-1.274.761-1.794 2.261-1.264 3.647l8.886 23.241c-1.308 1.725-2.75 4.546-4.403 7.79-1.89 3.709-4.031 7.913-6.585 11.749-1.722 2.586-3.879 4.78-5.782 6.717-2.308 2.348-4.301 4.375-4.814 6.428-.681 2.725.468 6.139 2.795 8.301 1.135 1.055 3.276 2.47 6.597 2.47 1.325 0 2.838-.226 4.549-.789 4.23-1.393 13.766-9.979 15.333-11.407.901.169 1.87.256 2.866.256 1.686 0 3.444-.248 5.062-.763.15-.048.284-.101.429-.15.899 2.876 1.844 8.211-.132 15.175-2.992 10.547-11.733 17.632-11.821 17.702-.332.265-.46.711-.319 1.112s.519.669.943.669h14.874c.552 0 1-.448 1-1s-.448-1-1-1h-12.269c2.91-2.829 8.224-8.852 10.517-16.938 2.145-7.562 1.057-13.382.071-16.464 4.518-2.122 5.799-5.271 6.025-7.695.051-.55-.353-1.037-.903-1.088-.562-.052-1.038.353-1.088.903-.297 3.188-2.629 5.499-6.933 6.868-3.848 1.226-8.179.637-9.81-.681-.428-.346-1.058-.28-1.406.149-.347.43-.28 1.059.149 1.406.418.338.93.624 1.501.869-3.57 3.192-10.655 9.169-13.715 10.176-4.771 1.571-7.614.189-9.159-1.246-2.027-1.883-2.649-4.621-2.217-6.351.381-1.524 2.197-3.372 4.3-5.512 1.965-2 4.193-4.267 6.021-7.01 2.618-3.933 4.788-8.191 6.702-11.949 1.736-3.407 3.235-6.35 4.482-7.838 3.35-3.996 7.839-5.39 10.552-5.879-.162.465-.346.927-.56 1.381-.235.5-.02 1.095.48 1.33.498.234 1.095.02 1.33-.48 1.935-4.121 1.844-8.562 1.785-11.5-.02-.973-.044-2.167.069-2.575.237-.097.918-.209 1.935.044.993.248 3.472 1.177 5.045 4.439 2.273 4.71.621 8.598.551 8.758-.225.504.001 1.096.505 1.321.133.059.271.087.408.087.382 0 .748-.221.914-.592.033-.074.341-.783.568-1.935 3.641.713 8.15 2.347 10.835 6.08 4.539 6.312 3.16 12.05 1.699 18.125-1.26 5.242-2.563 10.663-.168 16.687 2.691 6.768 6.726 10.253 10.223 12.048 1.804 2.843 3.964 4.98 6.016 6.55.237.577.464 1.083.704 1.54 1.695 3.234 3.676 5.454 5.735 6.969h-26.892c-.552 0-1 .448-1 1s.448 1 1 1h30.459c.025 0 .029-.024.046-.032 1.897.707 3.763.96 5.446.96 3.875 0 6.776-1.312 6.839-1.341.348-.163.572-.51.577-.894.006-.381-.21-.734-.554-.905zm-74.908-64.724-8.517-22.276c-.286-.748.301-1.144.421-1.216.122-.072.748-.4 1.271.206l15.795 18.327c-2.629.679-6.047 2.083-8.97 4.959zm38.169 37.092c-2.16-5.434-.987-10.313.254-15.479 1.501-6.246 3.054-12.705-2.02-19.761-3.098-4.308-8.188-6.135-12.224-6.904.074-1.797-.198-4.069-1.379-6.516-.076-.157-.156-.301-.236-.449 6.965-.256 15.999 1.094 22.599 8.133 8.165 8.708 6.32 17.618 4.367 27.051-.89 4.295-1.809 8.737-1.753 13.209.072 5.719 2.404 10.658 3.859 13.192-3.235-.628-9.724-3.062-13.467-12.476zm11.842 14.142c1.888.516 3.251.551 3.545.551h.043c.373-.005.712-.218.879-.551.168-.333.135-.733-.083-1.035-.045-.063-4.523-6.346-4.618-13.849-.054-4.254.844-8.587 1.711-12.778 1.391-6.717 2.809-13.595.408-20.388 3.161.952 6.824 3.459 9.13 9.628 3.044 8.148.712 14.608-1.756 21.448-1.192 3.303-2.425 6.719-3.098 10.44-1.018 5.626.258 9.968 1.458 12.563-2.081-1.057-5.038-2.963-7.619-6.029zm5.938 7.412c2.093 1.147 3.626 1.623 3.77 1.666.094.028.189.042.284.042.326 0 .639-.161.829-.441.244-.361.225-.841-.046-1.183-.042-.053-4.151-5.351-2.646-13.673.643-3.556 1.847-6.891 3.012-10.117 1.008-2.792 2.023-5.625 2.66-8.594 1.943 1.542 4.055 4.134 5.004 8.417.611 2.76-.115 6.745-.884 10.964-.715 3.92-1.454 7.974-1.174 11.456.318 3.955 3.356 6.744 5.403 8.191-3.453.95-10.907 1.728-16.212-6.728z"/><circle cx="40.953" cy="52.034" r="2.5"/></g></g></g></svg>