<svg id="Layer_1" enable-background="new 0 0 128 128" height="512" viewBox="0 0 128 128" width="512" xmlns="http://www.w3.org/2000/svg"><g><path d="m85.334 75.912 11.967-16.46c.222-.304.253-.707.082-1.042-.17-.335-.515-.546-.891-.546h-7.63c.054-.209.098-.421.146-.632.306.09.617.149.93.149 3.492 0 4.369-13.619 4.369-13.757 0-1.094-.574-1.463-.916-1.586-.134-.048-.27-.071-.407-.076v-6.574c0-6.659-3.126-12.577-7.978-16.403h.027l-13.174-10.176.266 3.489-6.125-4.379-5.063 4.233-.313-2.563-4 3.938v-2.25l-10.294 8.25c-4.472 3.832-7.316 9.51-7.316 15.862v6.574c-.137.005-.273.028-.407.077-.342.123-.916.492-.916 1.586 0 .138.877 13.757 4.369 13.757.313 0 .623-.059.93-.149.048.211.093.423.146.632h-7.63c-.376 0-.721.211-.891.546-.171.335-.14.737.082 1.042l11.967 16.46c-9.971 4.899-16.852 15.157-16.852 26.996v18.173c0 1.654 1.346 3 3 3h66.373c1.654 0 3-1.346 3-3v-18.173c.001-11.841-6.88-22.099-16.851-26.998z" fill="#e6e7e8"/><g><g><g fill="#0089ef"><path d="m83.533 54.864c-2.346 7.329-8.328 13.031-15.825 14.982h.417c4.16 0 8.113.88 11.691 2.455l12.677-17.437z"/><path d="m40.467 54.864h-8.96l12.677 17.437c3.578-1.575 7.531-2.455 11.691-2.455h.417c-7.497-1.95-13.478-7.653-15.825-14.982z"/></g><path d="m68.124 69.846h-.417c-1.823.474-3.736.728-5.707.728-1.972 0-3.884-.254-5.707-.728h-.417c-16.051 0-29.062 13.011-29.062 29.062v18.173c0 1.105.896 2 2 2h66.373c1.105 0 2-.895 2-2v-18.173c-.001-16.051-13.012-29.062-29.063-29.062z" fill="#0089ef"/><g fill="#fff"><path d="m74.437 70.542v3c13.014 2.884 22.749 14.485 22.749 28.366v-3c0-13.882-9.735-25.483-22.749-28.366z"/><path d="m49.563 70.542c.507-.112 1.019-.212 1.535-.298-13.776 2.28-24.284 14.242-24.284 28.664v3c0-13.882 9.736-25.483 22.749-28.366z"/></g><path d="m67.707 69.846c-1.823.474-3.736.728-5.707.728-1.972 0-3.884-.254-5.707-.728h-.417c-2.169 0-4.279.245-6.313.696v48.539h24.875v-48.539c-2.033-.451-4.144-.696-6.313-.696z" fill="#d4fbff"/><path d="m70.417 68.948c-1.677.673-3.452 1.151-5.299 1.406l-.968.35h-4.3l-.968-.35c-1.847-.255-3.622-.733-5.299-1.406-.343.216-.583.592-.583 1.045v8.202c0 .859.853 1.457 1.66 1.165l5.19-1.877h4.3l5.19 1.877c.808.292 1.66-.306 1.66-1.165v-8.202c0-.453-.24-.829-.583-1.045z" fill="#fa759e"/></g><g><g fill="#fff"><path d="m84.608 43.256v4.709c0 1.289-.114 2.552-.321 3.782.49.392 1.048.634 1.651.634 1.861 0 3.369-10.13 3.369-12.757s-4.29 3.384-4.699 3.632z"/><path d="m39.392 47.966v-4.709c-.408-.248-4.699-6.258-4.699-3.631s1.508 12.757 3.369 12.757c.603 0 1.161-.242 1.651-.634-.208-1.232-.321-2.494-.321-3.783z"/></g><path d="m75.408 25.173h-.678c-3.05 0-5.996 1.107-8.291 3.115-2.542 2.224-6.338 2.224-8.88 0-2.295-2.008-5.241-3.115-8.291-3.115h-.678c-5.081 0-9.2 4.119-9.2 9.2v13.593c0 12.486 10.122 22.608 22.608 22.608 12.486 0 22.608-10.122 22.608-22.608v-13.593c.002-5.081-4.117-9.2-9.198-9.2z" fill="#fff"/><g fill="#3a2c60"><path d="m62 86.5c.874 0 1.583-.709 1.583-1.583s-.709-1.584-1.583-1.584c-.875 0-1.583.709-1.583 1.583s.709 1.584 1.583 1.584z"/><path d="m62 96.5c.874 0 1.583-.709 1.583-1.583s-.709-1.584-1.583-1.584c-.875 0-1.583.709-1.583 1.583s.709 1.584 1.583 1.584z"/><path d="m62 106.5c.874 0 1.583-.709 1.583-1.583s-.709-1.583-1.583-1.583c-.875 0-1.583.709-1.583 1.583s.709 1.583 1.583 1.583z"/><path d="m62 116.5c.874 0 1.583-.709 1.583-1.583s-.709-1.583-1.583-1.583c-.875 0-1.583.709-1.583 1.583s.709 1.583 1.583 1.583z"/><path d="m44 112.919c.553 0 1-.448 1-1v-5.5c0-.552-.447-1-1-1s-1 .448-1 1v5.5c0 .553.447 1 1 1z"/><path d="m44 103.471c.553 0 1-.448 1-1v-4.414c0-.552-.447-1-1-1s-1 .448-1 1v4.414c0 .552.447 1 1 1z"/><path d="m81.332 71.916 11.969-16.464c.222-.304.253-.707.082-1.042-.17-.335-.515-.546-.891-.546h-7.63c.054-.209.098-.421.146-.632.306.09.617.149.93.149 3.492 0 4.369-13.619 4.369-13.757 0-1.094-.574-1.463-.916-1.586-.135-.048-.27-.071-.407-.076v-6.574c0-6.659-3.126-12.577-7.978-16.403h.027l-13.174-10.176.266 3.489-6.125-4.379-5.063 4.233-.313-2.563-4 3.938v-2.25l-10.294 8.25c-4.472 3.832-7.316 9.51-7.316 15.862v6.574c-.137.005-.273.028-.407.077-.342.123-.916.492-.916 1.586 0 .138.877 13.757 4.369 13.757.313 0 .623-.059.93-.149.048.211.093.423.146.632h-7.63c-.376 0-.721.211-.891.546-.171.335-.14.738.082 1.042l11.969 16.463c-9.973 4.896-16.855 15.152-16.855 26.992v18.173c0 1.654 1.346 3 3 3h66.373c1.654 0 3-1.346 3-3v-18.174c.003-11.84-6.88-22.096-16.852-26.992zm9.197-16.052-11.065 15.22c-2.241-.916-4.615-1.568-7.085-1.92 5.495-2.702 9.792-7.477 11.866-13.3zm-38.529 15.255v7.076c0 .729.356 1.414.953 1.833.381.268.832.406 1.286.406.257 0 .514-.044.761-.133l5.025-1.818h3.949l5.026 1.817c.247.089.504.133.761.133.454 0 .905-.138 1.286-.406.597-.418.953-1.103.953-1.832v-7.076c.483.067.963.144 1.438.236v46.726h-22.875v-46.726c.474-.092.954-.169 1.437-.236zm-11.608-23.153v-13.593c0-4.521 3.679-8.2 8.2-8.2h.678c2.808 0 5.519 1.019 7.633 2.868 2.906 2.543 7.289 2.543 10.195 0 2.113-1.849 4.824-2.868 7.633-2.868h.678c4.521 0 8.2 3.678 8.2 8.2v13.593c0 11.915-9.693 21.608-21.608 21.608s-21.609-9.693-21.609-21.608zm13.608 22.21c1.484.536 3.037.925 4.641 1.155l.209.076v5.374l-4.529 1.639c-.096.033-.173.003-.219-.029-.046-.033-.102-.094-.102-.196zm6.85 1.529h2.3v4.777h-2.3zm4.299-.298.208-.075c1.604-.23 3.158-.619 4.642-1.155v8.019c0 .103-.056.163-.102.195-.047.033-.12.064-.219.029l-4.53-1.639v-5.374zm20.651-20.033c-.141-.016-.283-.058-.425-.122.151-1.075.234-2.171.234-3.286v-4.303c.143-.165.329-.389.595-.711.43-.521 1.345-1.631 2.066-2.353-.234 3.415-1.499 9.813-2.47 10.775zm-47.6 0c-.971-.962-2.236-7.36-2.47-10.775.722.722 1.637 1.833 2.066 2.353.266.322.451.546.595.711v4.303c0 1.116.083 2.212.234 3.286-.142.064-.284.106-.425.122zm-4.729 4.49h6.284c2.074 5.823 6.37 10.598 11.866 13.3-2.471.352-4.845 1.004-7.085 1.92zm-5.657 61.217v-18.173c0-12.943 8.811-23.861 20.749-27.087v46.26h-3.563v-2.536c0-.552-.447-1-1-1s-1 .448-1 1v2.536h-14.186c-.552 0-1-.449-1-1zm68.373 0c0 .551-.448 1-1 1h-14.187v-20.023c0-.552-.447-1-1-1s-1 .448-1 1v20.023h-3.563v-46.26c11.938 3.226 20.749 14.144 20.749 27.087v18.173z"/><path d="m57.209 63.461c.587 0 .86-1.391.989-2.695.939.544 2.203 1.007 3.802 1.007 1.583 0 2.853-.474 3.8-1.025.128 1.309.401 2.713.99 2.713.96 0 1.129-3.722 1.157-4.691.131-.395.016-.843-.334-1.108-.441-.335-1.068-.247-1.4.193-.015.019-1.485 1.918-4.213 1.918-2.748 0-4.139-1.819-4.202-1.905-.325-.443-.946-.542-1.393-.221-.361.26-.483.713-.353 1.114.027.958.195 4.7 1.157 4.7z"/><path d="m52.026 42.54c-1.249 0-2.261 1.012-2.261 2.261s1.012 2.261 2.261 2.261 2.261-1.012 2.261-2.261c0-1.248-1.013-2.261-2.261-2.261z"/><path d="m71.974 42.54c-1.249 0-2.261 1.012-2.261 2.261s1.012 2.261 2.261 2.261 2.261-1.012 2.261-2.261c0-1.248-1.012-2.261-2.261-2.261z"/><path d="m62 55.864c1.969 0 3.571-1.602 3.571-3.571v-1.507c0-.552-.447-1-1-1s-1 .448-1 1v1.507c0 .866-.705 1.571-1.571 1.571s-1.571-.705-1.571-1.571v-1.507c0-.552-.447-1-1-1s-1 .448-1 1v1.507c0 1.969 1.602 3.571 3.571 3.571z"/><path d="m70.254 40.423 4.427.771c.059.01.116.015.173.015.478 0 .899-.342.984-.829.095-.544-.27-1.062-.813-1.157l-4.427-.771c-.553-.091-1.063.271-1.157.814-.095.544.269 1.062.813 1.157z"/><path d="m49.147 41.208c.057 0 .114-.005.173-.015l4.427-.771c.544-.095.908-.613.813-1.157s-.604-.905-1.157-.814l-4.427.771c-.544.095-.908.613-.813 1.157.084.487.506.829.984.829z"/></g></g></g></g></svg>