<svg id="Layer_1" enable-background="new 0 0 128 128" height="512" viewBox="0 0 128 128" width="512" xmlns="http://www.w3.org/2000/svg"><g><path d="m77.645 76.093c5.666-3.227 9.87-8.729 11.364-15.257.306.09.617.149.93.149 2.45 0 4.369-2.529 4.369-5.757s-1.919-5.756-4.369-5.756c-.111 0-.22.012-.33.023v-2.871l8.13-15.955c.314-.605.353-1.329.108-2.037-.341-.993-1.217-1.892-2.34-2.405-4.222-1.931-8.587-3.403-13.026-4.464-1.027-3.604-5.337-6.456-11.114-7.462.028-.202.062-.402.062-.612 0-2.481-2.019-4.5-4.5-4.5s-4.5 2.019-4.5 4.5c0 .19.033.37.056.554-5.765.911-10.153 3.637-11.393 7.141-4.982 1.072-9.878 2.685-14.598 4.843-1.125.514-2 1.414-2.342 2.406-.243.707-.205 1.429.108 2.033l8.131 15.96v2.87c-.109-.011-.219-.023-.33-.023-2.45 0-4.369 2.528-4.369 5.756s1.919 5.757 4.369 5.757c.313 0 .623-.059.929-.149 1.494 6.528 5.698 12.03 11.364 15.257-13.947 2.6-24.542 14.855-24.542 29.545v14.173c0 1.654 1.346 3 3 3h66.373c1.654 0 3-1.346 3-3v-14.173c.001-14.691-10.593-26.946-24.54-29.546z" fill="#e6e7e8"/><g><path d="m70.156 72.655c-2.531.98-5.279 1.523-8.156 1.523-2.877 0-5.625-.543-8.156-1.523-15.102 1.044-27.031 13.617-27.031 28.983v14.173c0 1.105.895 2 2 2h66.373c1.105 0 2-.895 2-2v-14.173c0-15.367-11.929-27.94-27.03-28.983z" fill="#0089ef"/><g fill="#ffd7e5"><path d="m59.226 93.935c-1.128 0-2.042.914-2.042 2.042s.914 2.042 2.042 2.042 2.042-.914 2.042-2.042-.914-2.042-2.042-2.042z"/><circle cx="64.774" cy="95.936" r="2.042"/><path d="m54.259 90.842c-1.128 0-2.042.914-2.042 2.042s.914 2.042 2.042 2.042 2.042-.914 2.042-2.042-.914-2.042-2.042-2.042z"/><circle cx="69.741" cy="92.884" r="2.042"/><path d="m50.376 86.681c-1.128 0-2.042.914-2.042 2.042s.914 2.042 2.042 2.042 2.042-.914 2.042-2.042-.914-2.042-2.042-2.042z"/><path d="m73.624 86.681c-1.128 0-2.042.914-2.042 2.042s.914 2.042 2.042 2.042 2.042-.914 2.042-2.042-.914-2.042-2.042-2.042z"/><path d="m47.71 81.546c-1.128 0-2.042.914-2.042 2.042s.914 2.042 2.042 2.042 2.042-.914 2.042-2.042-.914-2.042-2.042-2.042z"/><path d="m76.29 81.546c-1.128 0-2.042.914-2.042 2.042s.914 2.042 2.042 2.042 2.042-.914 2.042-2.042-.914-2.042-2.042-2.042z"/><path d="m45.66 76.296c-1.128 0-2.042.914-2.042 2.042s.914 2.042 2.042 2.042 2.042-.914 2.042-2.042-.914-2.042-2.042-2.042z"/><path d="m78.34 76.296c-1.128 0-2.042.914-2.042 2.042s.914 2.042 2.042 2.042 2.042-.914 2.042-2.042-.914-2.042-2.042-2.042z"/></g><path d="m71.746 102.201h-19.492c-1.105 0-2 .895-2 2v13.609h23.492v-13.609c0-1.104-.895-2-2-2z" fill="#6dc9f7"/><g><path d="m70.445 72.679-8.445 5.375 7.698 7.266 5.958-11.753c-1.681-.45-3.425-.746-5.211-.888z" fill="#6dc9f7"/><path d="m62 74.177c-3.031 0-5.921-.601-8.563-1.683v.104l8.563 5.456 8.571-5.456v-.107c-2.644 1.084-5.537 1.686-8.571 1.686z" fill="#fff"/><path d="m48.344 73.567 5.958 11.753 7.698-7.266-8.437-5.376c-1.789.142-3.535.439-5.219.889z" fill="#6dc9f7"/></g><g><g fill="#fff"><path d="m85.938 46.472c-.473 0-.922.14-1.33.388v4.709c0 1.289-.114 2.552-.321 3.782.49.392 1.048.634 1.651.634 1.861 0 3.369-2.13 3.369-4.757s-1.508-4.756-3.369-4.756z"/><path d="m39.392 42.385v9.184c0 12.486 10.122 22.608 22.608 22.608 12.486 0 22.608-10.122 22.608-22.608v-9.184c-14.203-7.237-31.013-7.237-45.216 0z"/><path d="m39.392 51.569v-4.709c-.408-.248-.857-.388-1.33-.388-1.861 0-3.369 2.13-3.369 4.757s1.508 4.757 3.369 4.757c.603 0 1.161-.242 1.651-.634-.208-1.232-.321-2.494-.321-3.783z"/></g><g><path d="m62.731 10.906c1.164 0 2.291.084 3.379.226.2-.441.319-.927.319-1.443 0-1.933-1.567-3.5-3.5-3.5s-3.5 1.567-3.5 3.5c0 .496.106.966.292 1.394.973-.113 1.977-.177 3.01-.177z" fill="#0089ef"/><path d="m77.657 18.594c-.734-4.314-7.135-7.688-14.926-7.688-7.584 0-13.838 3.199-14.843 7.349 9.826-2.024 19.98-1.909 29.769.339z" fill="#fa759e"/><path d="m91.09 23.137c-18.469-8.447-39.711-8.447-58.181 0-1.493.682-2.27 2.092-1.76 3.071 2.747 5.392 5.495 10.785 8.242 16.177 14.203-7.237 31.013-7.237 45.217 0 2.747-5.392 5.495-10.785 8.242-16.177.51-.979-.266-2.389-1.76-3.071z" fill="#0089ef"/><path d="m31.606 27.104c.325-.38.766-.722 1.304-.968 18.469-8.447 39.712-8.447 58.181 0 .538.246.978.587 1.304.968.152-.299.305-.598.457-.897.509-.979-.267-2.389-1.76-3.071-18.469-8.447-39.711-8.447-58.181 0-1.493.682-2.27 2.092-1.76 3.071.15.3.303.599.455.897z" fill="#fff"/></g><path d="m57.281 30.568h9.438v17.837h-9.438z" fill="#fa759e"/><g fill="#ffd7e5"><circle cx="49" cy="58.225" r="3.836"/><circle cx="75" cy="58.225" r="3.836"/></g><g fill="#3a2c60"><path d="m60.495 116.81h-6.495c-.552 0-1 .448-1 1s.448 1 1 1h6.495c.552 0 1-.448 1-1s-.448-1-1-1z"/><path d="m73.637 72.097c5.67-3.227 9.877-8.731 11.372-15.262.306.09.617.149.93.149 2.45 0 4.369-2.528 4.369-5.756s-1.919-5.757-4.369-5.757c-.111 0-.22.013-.33.023v-2.871l8.13-15.955c.314-.604.353-1.328.109-2.037-.342-.992-1.217-1.892-2.341-2.405-4.223-1.932-8.591-3.404-13.031-4.466-1.042-3.596-5.411-6.438-11.115-7.451.03-.206.068-.411.068-.621 0-2.481-2.019-4.5-4.5-4.5s-4.5 2.019-4.5 4.5c0 .186.034.367.057.549-5.688.908-10.099 3.612-11.363 7.139-4.992 1.072-9.898 2.686-14.628 4.85-1.125.514-2 1.414-2.342 2.406-.243.707-.205 1.429.108 2.033l8.132 15.959v2.87c-.11-.011-.219-.023-.33-.023-2.45 0-4.369 2.529-4.369 5.757s1.919 5.756 4.369 5.756c.313 0 .623-.059.93-.149 1.495 6.531 5.702 12.035 11.372 15.262-13.951 2.597-24.549 14.849-24.549 29.541v14.172c0 1.654 1.346 3 3 3h20.924c.552 0 1-.448 1-1s-.448-1-1-1h-4.95v-21.4c0-.552-.448-1-1-1s-1 .448-1 1v21.4h-13.976c-.551 0-1-.449-1-1v-14.172c0-12.676 8.451-23.411 20.013-26.88l5.584 11.014c.143.281.41.479.72.533.058.01.115.015.172.015.253 0 .5-.096.687-.273l7.01-6.618 7.011 6.618c.188.177.434.273.687.273.057 0 .114-.005.172-.015.311-.054.577-.252.72-.533l5.584-11.014c11.562 3.469 20.013 14.203 20.013 26.88v14.172c0 .551-.448 1-1 1h-13.976v-21.4c0-.552-.447-1-1-1s-1 .448-1 1v21.4h-14.711c-.552 0-1 .448-1 1s.448 1 1 1h30.687c1.654 0 3-1.346 3-3v-14.172c0-14.692-10.599-26.943-24.55-29.541zm-11.637 4.771-2.955-1.883c.969.122 1.953.191 2.954.191 1.003 0 1.988-.07 2.958-.192zm23.939-29.396c1.284 0 2.369 1.72 2.369 3.757 0 2.33-1.431 4.26-2.932 3.616.149-1.071.232-2.164.232-3.276v-4.048c.11-.027.22-.049.331-.049zm-25.51-37.783c0-1.378 1.122-2.5 2.5-2.5s2.5 1.122 2.5 2.5c0 .118-.021.236-.039.353-.866-.085-1.752-.137-2.659-.137-.772 0-1.526.041-2.269.102-.014-.105-.033-.21-.033-.318zm2.302 2.217c6.177 0 11.571 2.241 13.362 5.323-8.745-1.775-17.736-1.879-26.511-.316 1.964-2.94 7.173-5.007 13.149-5.007zm-30.695 13.84c-.076-.146-.038-.332.007-.462.129-.374.533-.896 1.283-1.238 9.111-4.167 18.893-6.25 28.674-6.25s19.563 2.083 28.675 6.251c.748.342 1.152.863 1.281 1.237.045.131.083.317.004.47l-7.793 15.295c-5.223-2.532-10.793-4.088-16.448-4.723v-5.758c0-.552-.447-1-1-1h-9.438c-.552 0-1 .448-1 1v5.758c-5.655.635-11.225 2.191-16.448 4.723l-7.793-15.295c-.001-.003-.002-.005-.004-.008zm33.683 5.822v15.836h-7.438v-15.836zm-30.027 19.66c0-2.037 1.085-3.757 2.369-3.757.11 0 .22.023.33.049v4.048c0 1.112.083 2.204.232 3.276-1.496.642-2.931-1.285-2.931-3.616zm4.7.341v-8.555c5.039-2.487 10.419-4.034 15.889-4.674v10.064c0 .552.448 1 1 1h9.438c.553 0 1-.448 1-1v-10.064c5.47.64 10.85 2.187 15.89 4.674v8.555c0 11.915-9.693 21.608-21.608 21.608s-21.609-9.693-21.609-21.608zm14.197 32.105-4.781-9.43c1.141-.253 2.307-.437 3.496-.545l7.076 4.509zm14.821 0-5.79-5.465 7.083-4.509c1.186.109 2.35.293 3.489.545z"/><path d="m52.026 46.143c-1.249 0-2.261 1.012-2.261 2.261s1.012 2.261 2.261 2.261 2.261-1.012 2.261-2.261c0-1.248-1.013-2.261-2.261-2.261z"/><path d="m71.974 46.143c-1.249 0-2.261 1.012-2.261 2.261s1.012 2.261 2.261 2.261 2.261-1.012 2.261-2.261c0-1.248-1.012-2.261-2.261-2.261z"/><path d="m65.232 64.061c.085 1.458.332 3.589 1.058 3.589.74 0 1.009-2.209 1.107-3.667.36-.151.612-.507.612-.922 0-.552-.447-1-1-1h-10.018c-.552 0-1 .448-1 1 0 .414.252.77.612.922.098 1.458.367 3.667 1.107 3.667.727 0 .974-2.131 1.058-3.589z"/><path d="m62 59.467c1.969 0 3.571-1.602 3.571-3.571v-1.507c0-.552-.448-1-1-1s-1 .448-1 1v1.507c0 .866-.705 1.571-1.571 1.571s-1.571-.705-1.571-1.571v-1.507c0-.552-.448-1-1-1s-1 .448-1 1v1.507c0 1.969 1.602 3.571 3.571 3.571z"/><path d="m70.425 46.041c.089 0 .179-.012.269-.037l4.427-1.229c.532-.147.844-.699.696-1.231s-.7-.842-1.231-.696l-4.427 1.229c-.532.147-.844.699-.696 1.231.122.442.524.733.962.733z"/><path d="m53.842 44.077-4.427-1.229c-.534-.146-1.083.164-1.231.696s.164 1.083.696 1.231l4.427 1.229c.09.025.18.037.268.037.438 0 .84-.291.963-.733.148-.532-.164-1.084-.696-1.231z"/></g></g></g></g></svg>