<svg id="Layer_1" enable-background="new 0 0 128 128" height="512" viewBox="0 0 128 128" width="512" xmlns="http://www.w3.org/2000/svg"><g><g><path d="m119.897 77.682-2.618-8.7c-.106-.353-.397-.618-.758-.692-.357-.071-.732.058-.968.339l-5.818 6.977c-.106.127-.179.278-.212.44l-3.774 18.481c-3.581-8.346-10.836-14.751-19.718-17.181 4.441-3.298 7.683-8.119 8.959-13.681.307.091.619.15.933.15 2.45 0 4.369-2.529 4.369-5.757 0-.786-.116-1.53-.323-2.207v-11.843c6.141-2.375 10.516-8.328 10.516-15.296v-3.064c0-1.186-.668-2.232-1.744-2.73-1.079-.498-2.307-.331-3.21.436l-1.547 1.312c-2.823 2.395-6.106 4.136-9.607 5.18l-.106-.486c0-.001-.001-.001-.001-.002l-2.868-13.144c-.612-2.808-2.417-5.199-4.949-6.559-2.533-1.36-5.523-1.542-8.202-.503l-3.924 1.524c-1.512.588-3.181.588-4.694-.001l-3.912-1.52c-2.68-1.042-5.67-.859-8.202.501-2.533 1.36-4.338 3.75-4.95 6.56l-2.869 13.14c0 .001-.001.002-.001.003l-.106.486c-3.501-1.044-6.783-2.785-9.607-5.18l-1.547-1.312c-.903-.766-2.131-.933-3.21-.436-1.076.499-1.744 1.544-1.744 2.73v3.064c0 6.969 4.375 12.921 10.516 15.296v11.845c-.208.677-.323 1.42-.323 2.207 0 3.228 1.919 5.757 4.369 5.757.315 0 .627-.06.933-.15 1.277 5.562 4.518 10.383 8.959 13.681-9.567 2.617-17.241 9.849-20.475 19.147l-2.154-10.55 6.122-1.25c1.582-.323 2.943-1.243 3.833-2.589s1.202-2.959.879-4.541l-1.438-7.04c-.322-1.582-1.241-2.943-2.589-3.833-1.347-.891-2.96-1.203-4.541-.879l-6.121 1.25-.023-.115c-.367-1.792-2.121-2.953-3.916-2.588l-1.933.395c-1.793.366-2.954 2.123-2.588 3.917l.023.114-6.122 1.25c-1.581.323-2.942 1.243-3.832 2.589-.891 1.347-1.202 2.959-.879 4.541l1.437 7.04c.584 2.859 3.109 4.835 5.92 4.835.399 0 .805-.04 1.211-.123l6.121-1.25 3.928 19.24c-2.072 1.724-3.393 4.319-3.393 7.218 0 5.177 4.212 9.39 9.39 9.39h70.373c5.178 0 9.39-4.212 9.39-9.39 0-2.535-1.014-4.834-2.652-6.525l6.01-29.43c.031-.162.024-.33-.023-.488z" fill="#e6e7e8"/></g><g><g><path d="m94.781 110.126c0-3.654 2.34-6.754 5.601-7.905l1.633-7.997c-3.019-10.388-11.677-18.376-22.445-20.424-3.388 2.026-7.35 3.194-11.585 3.194s-8.197-1.167-11.585-3.194c-11.651 2.216-20.833 11.384-23.072 23.025l1.033 5.062c3.886.733 6.827 4.14 6.827 8.239 0 4.633-3.756 8.39-8.389 8.39h70.373c-4.634-.001-8.391-3.757-8.391-8.39z" fill="#6dc9f7"/><g><path d="m67.985 76.994c-3.725 0-7.236-.906-10.334-2.502-.102.587-.166 1.188-.166 1.805 0 5.799 10.5 10.5 10.5 10.5s10.5-4.701 10.5-10.5c0-.617-.064-1.217-.166-1.805-3.098 1.596-6.61 2.502-10.334 2.502z" fill="#fff"/></g><g><g><g><path d="m91.923 49.303c-.473 0-.922.14-1.33.388v4.709c0 1.289-.113 2.552-.32 3.782.49.392 1.047.634 1.65.634 1.861 0 3.369-2.13 3.369-4.757 0-2.626-1.509-4.756-3.369-4.756z" fill="#fff"/></g><g><path d="m45.376 53.859v-4.167c-.408-.248-.857-.388-1.33-.388-1.861 0-3.369 2.13-3.369 4.757s1.508 4.757 3.369 4.757c.633 0 1.219-.262 1.725-.69-.257-1.39-.395-2.816-.395-4.269z" fill="#fff"/></g></g><path d="m90.076 40.121h-44.183c-.175 0-.344-.02-.517-.026v14.291c0 12.486 10.122 22.608 22.608 22.608s22.608-10.122 22.608-22.608v-14.291c-.172.005-.342.026-.516.026z" fill="#fff"/></g></g><g><path d="m82.795 27.974h-29.621c-6.533 0-12.853-2.32-17.834-6.546l-1.547-1.312c-1.305-1.107-3.308-.18-3.308 1.532v3.064c0 8.51 6.899 15.409 15.409 15.409h44.182c8.51 0 15.409-6.899 15.409-15.409v-3.064c0-1.711-2.003-2.639-3.308-1.532l-1.547 1.312c-4.982 4.226-11.302 6.546-17.835 6.546z" fill="#d4fbff"/><g><g><path d="m61.358 6.087 3.912 1.52c1.743.677 3.676.677 5.419.001l3.924-1.524c5.05-1.961 10.657 1.05 11.812 6.343l4.676 21.426h-46.233l4.676-21.423c1.155-5.294 6.764-8.305 11.814-6.343z" fill="#d4fbff"/></g></g><g><path d="m61.105 9.087 4.061 1.52c1.809.677 3.817.677 5.626.001l4.074-1.524c4.998-1.869 10.513.786 12.057 5.623l-.498-2.281c-1.155-5.292-6.763-8.303-11.812-6.343l-3.924 1.524c-1.743.677-3.676.677-5.419-.001l-3.911-1.52c-5.05-1.962-10.659 1.049-11.814 6.342l-.498 2.281c1.543-4.837 7.059-7.493 12.058-5.622z" fill="#fff"/></g><path d="m89.294 25.573h-42.619l-1.807 8.28h46.233z" fill="#6dc9f7"/></g><g><path d="m32.798 101.736c.534 0 1.056.055 1.562.151l-4.23-20.722-6.477 1.322 4.253 20.832c1.378-.992 3.064-1.583 4.892-1.583z" fill="#ffd7e5"/><path d="m20.198 65.565 6.477-1.322-.224-1.094c-.256-1.255-1.481-2.065-2.736-1.808l-1.932.394c-1.255.256-2.065 1.481-1.808 2.736z" fill="#ffd7e5"/><path d="m41.163 73.765-1.437-7.04c-.557-2.729-3.221-4.49-5.95-3.932l-20.679 4.222c-2.729.557-4.49 3.221-3.932 5.95l1.437 7.04c.557 2.729 3.221 4.49 5.95 3.932l20.679-4.222c2.729-.557 4.489-3.221 3.932-5.95z" fill="#fa759e"/></g><g><g><path d="m112.32 65.27-5.818 6.977 8.436 1.723z" fill="#ffd7e5"/></g><path d="m103.171 101.736c2.179 0 4.157.838 5.649 2.2l6.118-29.966-8.436-1.723-6.12 29.974c.874-.308 1.81-.485 2.789-.485z" fill="#fa759e"/></g><g><circle cx="32.798" cy="110.126" fill="#fff" r="8.39"/><g><circle cx="103.171" cy="110.126" fill="#fff" r="8.39"/><g fill="#3a2c60"><path d="m76.11 117.515h-7.25c-.553 0-1 .448-1 1s.447 1 1 1h7.25c.553 0 1-.448 1-1s-.447-1-1-1z"/><path d="m58.01 48.975c-1.249 0-2.261 1.012-2.261 2.261s1.012 2.261 2.261 2.261 2.261-1.012 2.261-2.261-1.012-2.261-2.261-2.261z"/><path d="m77.959 48.975c-1.249 0-2.261 1.012-2.261 2.261s1.012 2.261 2.261 2.261 2.261-1.012 2.261-2.261-1.013-2.261-2.261-2.261z"/><path d="m67.985 62.299c1.969 0 3.57-1.602 3.57-3.571v-1.507c0-.552-.447-1-1-1s-1 .448-1 1v1.507c0 .866-.704 1.571-1.57 1.571s-1.571-.705-1.571-1.571v-1.507c0-.552-.447-1-1-1s-1 .448-1 1v1.507c0 1.969 1.602 3.571 3.571 3.571z"/><path d="m76.409 47.873c.089 0 .179-.012.269-.037l4.428-1.229c.532-.147.844-.699.696-1.231-.147-.533-.698-.843-1.231-.696l-4.428 1.229c-.532.147-.844.699-.696 1.231.122.442.524.733.962.733z"/><path d="m59.827 45.909-4.428-1.229c-.533-.147-1.084.163-1.231.696-.147.532.164 1.083.696 1.231l4.428 1.229c.09.025.18.037.269.037.438 0 .84-.291.963-.733.147-.533-.165-1.084-.697-1.231z"/><path d="m73.994 66.894c0-.552-.447-1-1-1h-10.019c-.553 0-1 .448-1 1s.447 1 1 1h10.019c.553 0 1-.448 1-1z"/><path d="m115.896 73.682-2.618-8.699c-.106-.353-.397-.618-.758-.692-.359-.07-.733.057-.968.339l-5.818 6.977c-.106.127-.179.278-.212.44l-3.775 18.491c-3.545-8.285-10.72-14.74-19.72-17.187 4.443-3.298 7.686-8.12 8.963-13.684.307.091.618.15.932.15 2.45 0 4.369-2.528 4.369-5.756 0-.785-.115-1.527-.322-2.203v-11.85c6.141-2.375 10.516-8.327 10.516-15.296v-3.064c0-1.186-.669-2.232-1.745-2.73-1.076-.5-2.308-.331-3.21.436l-1.547 1.312c-2.823 2.395-6.105 4.138-9.606 5.18l-2.976-13.632c-.612-2.808-2.417-5.199-4.949-6.559-2.533-1.361-5.522-1.543-8.202-.503l-3.924 1.523c-1.512.588-3.181.588-4.694 0l-3.911-1.52c-2.68-1.042-5.671-.859-8.203.501-2.533 1.36-4.338 3.751-4.95 6.56l-2.975 13.63c-3.501-1.042-6.783-2.785-9.606-5.18l-1.547-1.312c-.902-.766-2.132-.934-3.21-.436-1.076.499-1.744 1.544-1.744 2.73v3.064c0 6.969 4.374 12.921 10.515 15.296v11.849c-.207.676-.322 1.418-.322 2.203 0 3.228 1.919 5.756 4.369 5.756.315 0 .626-.06.933-.15 1.276 5.563 4.518 10.383 8.959 13.681-9.694 2.637-17.274 9.924-20.478 19.138l-2.152-10.54 6.122-1.25c3.265-.667 5.378-3.865 4.712-7.13l-1.438-7.04c-.667-3.265-3.862-5.374-7.13-4.712l-6.122 1.25-.023-.114c-.177-.869-.682-1.617-1.422-2.106-.738-.489-1.624-.661-2.494-.483l-1.932.395c-1.793.366-2.954 2.123-2.588 3.917l.023.114-6.122 1.25c-3.265.667-5.378 3.866-4.712 7.131l1.438 7.04c.584 2.859 3.108 4.835 5.919 4.835.399 0 .805-.04 1.211-.123l6.122-1.25 3.928 19.241c-2.071 1.724-3.393 4.319-3.393 7.217 0 5.177 4.212 9.39 9.39 9.39h32.177c.553 0 1-.448 1-1s-.447-1-1-1h-13.99v-15.023c0-.552-.447-1-1-1s-1 .448-1 1v15.023h-10.414c2.197-1.72 3.617-4.39 3.617-7.39 0-4.341-2.966-7.994-6.976-9.063l-.855-4.188c2.17-10.916 10.691-19.741 21.896-22.014.105.06.209.122.314.181-.05.431-.084.851-.084 1.255 0 5.591 8.184 9.998 10.501 11.133v6.563c0 .552.447 1 1 1s1-.448 1-1v-6.564c2.32-1.137 10.499-5.543 10.499-11.132 0-.406-.034-.825-.083-1.255.107-.059.211-.122.317-.182 10.32 2.094 18.354 9.749 21.255 19.474l-1.459 7.145c-3.366 1.429-5.732 4.767-5.732 8.647 0 3 1.42 5.669 3.617 7.39h-10.414v-15.023c0-.552-.447-1-1-1s-1 .448-1 1v15.023h-4.876c-.553 0-1 .448-1 1s.447 1 1 1h23.062c5.178 0 9.39-4.212 9.39-9.39 0-2.534-1.014-4.833-2.651-6.524l6.009-29.431c.032-.164.024-.332-.023-.49zm-101.078-5.998 17.637-3.601 3.055 14.962-17.637 3.601zm23.929-.759 1.438 7.039c.415 2.035-.793 4.012-2.725 4.637l-3.037-14.874c.121-.011.244-.037.363-.037 1.881 0 3.57 1.323 3.961 3.235zm-17.793-2.654c-.145-.713.316-1.411 1.029-1.557l1.932-.395c.089-.019.178-.027.267-.027.256 0 .506.075.725.219.294.194.495.491.565.837l.023.114-4.518.922zm-9.373 15.534-1.438-7.039c-.415-2.035.793-4.013 2.725-4.637l3.037 14.874c-2.025.183-3.909-1.164-4.324-3.198zm28.607 30.321c0 4.075-3.315 7.39-7.39 7.39s-7.39-3.315-7.39-7.39c0-4.074 3.315-7.389 7.39-7.389s7.39 3.314 7.39 7.389zm-7.39-9.39c-1.509 0-2.931.366-4.195 1.001l-3.771-18.47 4.518-.922 3.758 18.407c-.103-.003-.205-.016-.31-.016zm58.561-43.06c.151-1.076.234-2.173.234-3.29v-4.033c.11-.026.219-.049.329-.049 1.284 0 2.369 1.72 2.369 3.757.001 2.33-1.429 4.262-2.932 3.615zm-43.878-31.103h41.007l1.371 6.28h-43.749zm3.039-13.93c.488-2.237 1.926-4.141 3.943-5.224s4.398-1.229 6.532-.399l3.911 1.52c1.982.77 4.163.77 6.144 0l3.924-1.523c2.132-.828 4.514-.683 6.531.4s3.454 2.987 3.942 5.224l2.604 11.933h-40.134zm-19.035 12.069v-3.064c0-.598.447-.852.585-.916.07-.033.233-.096.438-.096.191 0 .418.055.639.242l1.547 1.312c3.073 2.608 6.654 4.494 10.473 5.609l-1.094 5.012c-2.997-.201-5.78-1.593-7.72-3.917l-1.237-1.483c-.353-.424-.984-.481-1.408-.127s-.481.985-.127 1.409l1.237 1.483c2.481 2.972 6.124 4.676 9.996 4.676h.055 46.233.055c3.872 0 7.515-1.704 9.996-4.676l1.237-1.483c.354-.424.297-1.055-.127-1.409s-1.056-.296-1.408.127l-1.237 1.482c-1.94 2.324-4.723 3.717-7.72 3.917l-1.095-5.01c3.819-1.115 7.399-3.001 10.473-5.609l1.547-1.312c.456-.387.938-.21 1.077-.146.138.063.585.317.585.915v3.064c0 7.945-6.464 14.409-14.409 14.409h-44.183c-7.944 0-14.408-6.464-14.408-14.409zm10.192 29.348c0-2.037 1.085-3.757 2.369-3.757.11 0 .22.023.33.049v4.033c0 1.117.083 2.214.234 3.291-1.469.612-2.933-1.281-2.933-3.616zm4.7.326v-13.265h43.217v13.265c0 11.915-9.693 21.608-21.608 21.608s-21.609-9.693-21.609-21.608zm31.107 21.91c0 4.023-6.507 7.969-9.5 9.398-2.993-1.429-9.5-5.375-9.5-9.398 0-.097.011-.2.014-.299 2.905 1.28 6.113 1.997 9.487 1.997 3.373 0 6.58-.716 9.485-1.996.004.099.014.201.014.298zm34.414-8.958 1.6 5.317-5.156-1.053zm-4.616 6.09 6.477 1.322-5.601 27.435c-1.447-.912-3.154-1.448-4.987-1.448-.509 0-1.004.052-1.491.13zm-4.111 44.087c-4.074 0-7.39-3.315-7.39-7.39 0-4.074 3.315-7.389 7.39-7.389s7.39 3.315 7.39 7.389c-.001 4.075-3.316 7.39-7.39 7.39z"/></g></g></g></g></g></svg>