<svg id="Layer_1" enable-background="new 0 0 128 128" height="512" viewBox="0 0 128 128" width="512" xmlns="http://www.w3.org/2000/svg"><g><g><path d="m95.073 70.788 10.786-3.156c6.91-2.022 10.888-9.29 8.866-16.201-2.023-6.91-9.287-10.887-16.201-8.866l-12.361 3.618c3.429-4.568 5.177-10.118 4.971-15.945-.459-12.981-10.976-23.617-23.946-24.212-6.942-.32-13.536 2.143-18.551 6.932-5.018 4.792-7.782 11.251-7.782 18.188 0 5.486 1.752 10.716 4.99 15.038l-12.365-3.618c-6.909-2.02-14.178 1.955-16.201 8.866-2.021 6.911 1.956 14.179 8.867 16.201l11.01 3.222c5.245 1.534 8.908 6.423 8.908 11.888 0 2.171-.574 4.313-1.66 6.193l-9.963 17.256c-3.572 6.187-1.625 14.203 4.34 17.868 2.091 1.285 4.435 1.944 6.818 1.944 1.076-.001 2.16-.135 3.231-.406 3.448-.873 6.325-3.051 8.104-6.13l6.792-11.766c.475-.822 1.324-1.313 2.274-1.313.949 0 1.799.49 2.273 1.313l6.668 11.548c3.571 6.187 11.486 8.511 17.645 5.176 3.132-1.695 5.389-4.514 6.356-7.936s.521-7.002-1.257-10.081l-9.864-17.086c-1.086-1.88-1.66-4.021-1.66-6.193v-.453c0-.26.016-.517.032-.775l10.664 4.348c-.047.295-.078.595-.078.904 0 3.176 2.584 5.76 5.761 5.76 3.176 0 5.76-2.584 5.76-5.76 0-3.177-2.584-5.761-5.76-5.761-2.161 0-4.046 1.198-5.032 2.963l-11.013-4.49c1.011-4.268 4.254-7.813 8.578-9.078z" fill="#e6e7e8"/></g><g><g><path d="m109.765 47.712c-1.87-6.392-8.568-10.057-14.96-8.187l-15.605 4.566c4.484-4.55 7.179-10.869 6.934-17.817-.44-12.479-10.519-22.676-22.992-23.249-13.854-.637-25.287 10.407-25.287 24.12 0 6.604 2.653 12.586 6.949 16.945l-15.604-4.565c-6.392-1.87-13.09 1.796-14.96 8.187-1.87 6.392 1.795 13.09 8.188 14.96l11.01 3.222c5.706 1.67 9.627 6.903 9.627 12.848 0 2.35-.618 4.658-1.793 6.694l-9.963 17.256c-3.285 5.69-1.601 13.076 3.997 16.516 5.808 3.569 13.377 1.625 16.764-4.24l6.793-11.765c1.396-2.417 4.884-2.417 6.28 0l6.667 11.548c3.285 5.69 10.524 7.925 16.302 4.796 5.995-3.246 8.096-10.773 4.709-16.638l-9.864-17.085c-1.175-2.035-1.794-4.344-1.794-6.694v-.453c0-5.945 3.921-11.179 9.628-12.848l10.786-3.156c6.392-1.871 10.058-8.569 8.188-14.961z" fill="#6dc9f7"/></g><g><g><path d="m63.16 6.025c11.383.516 20.798 8.804 22.914 19.535-.794-12.149-10.7-21.973-22.932-22.535-13.369-.615-24.479 9.648-25.242 22.69 2.182-11.578 12.744-20.257 25.26-19.69z" fill="#fff"/></g></g><g><path d="m92.974 103.207c-3.324.345-7.201 1.621-11.002 3.815-4.31 2.489-7.65 5.651-9.533 8.704 3.515 4.958 10.238 6.761 15.673 3.819 5.895-3.19 8.012-10.518 4.862-16.338z" fill="#ffd7e5"/></g><g><path d="m31.095 103.207c3.324.345 7.201 1.621 11.002 3.815 4.31 2.489 7.65 5.651 9.533 8.704-3.515 4.958-10.238 6.761-15.673 3.819-5.895-3.19-8.012-10.518-4.862-16.338z" fill="#ffd7e5"/></g><g><path d="m14.24 47.712c1.87-6.392 8.568-10.057 14.96-8.187l.578.169c.59 3.665.265 8.064-1.141 12.547-1.335 4.258-3.428 7.893-5.841 10.538l-.369-.108c-6.391-1.869-10.057-8.567-8.187-14.959z" fill="#ffd7e5"/></g><g><path d="m109.765 47.712c-1.87-6.392-8.568-10.057-14.96-8.187l-.578.169c-.59 3.665-.265 8.064 1.141 12.547 1.335 4.258 3.428 7.893 5.841 10.538l.369-.108c6.391-1.869 10.057-8.567 8.187-14.959z" fill="#ffd7e5"/></g><g><path d="m67.742 70.877 5.973-3.363c.758-.427.507-1.577-.361-1.649l-8.041-.664-1.802-8.565c-.172-.818-1.279-.961-1.653-.214l-3.077 6.145-5.614-1.251c-.7-.156-1.284.543-1.006 1.204l2.236 5.318-5.484 2.996c-.78.426-.513 1.607.375 1.656l6.649.367-.135 3.22c-.03.707.743 1.16 1.345.788l4.061-2.504 4.54 6.395c.487.686 1.567.366 1.602-.474z" fill="#d4fbff"/></g><g><ellipse cx="71.12" cy="22.074" fill="#ffd7e5" rx="6.436" ry="6.436" transform="matrix(.987 -.16 .16 .987 -2.618 11.677)"/><ellipse cx="52.884" cy="22.074" fill="#fa759e" rx="6.436" ry="6.436" transform="matrix(.383 -.924 .924 .383 12.253 62.485)"/></g><path d="m98.542 78.392c-2.629 0-4.76 2.131-4.76 4.76s2.131 4.76 4.76 4.76 4.76-2.131 4.76-4.76-2.131-4.76-4.76-4.76z" fill="#0089ef"/><g fill="#3a2c60"><path d="m110.724 47.431c-2.021-6.91-9.289-10.888-16.201-8.866l-12.361 3.617c3.429-4.568 5.177-10.117 4.971-15.944-.458-12.98-10.975-23.615-23.945-24.213-6.951-.325-13.537 2.142-18.552 6.933-5.018 4.792-7.781 11.251-7.781 18.188 0 5.486 1.752 10.715 4.991 15.038l-12.365-3.618c-6.91-2.02-14.178 1.956-16.201 8.866-.979 3.349-.597 6.877 1.078 9.937 1.675 3.061 4.441 5.284 7.789 6.264l11.01 3.222c5.245 1.534 8.908 6.423 8.908 11.888 0 2.173-.574 4.314-1.66 6.194l-1.838 3.184c-.276.479-.112 1.09.366 1.366.477.275 1.089.112 1.366-.366l1.838-3.184c1.261-2.184 1.927-4.671 1.927-7.194 0-6.347-4.255-12.024-10.347-13.808l-9.162-2.681c.63-.79 1.222-1.634 1.776-2.525l1.596.464c.093.027.188.04.28.04.433 0 .833-.283.96-.721.154-.53-.151-1.085-.681-1.239l-1.139-.331c.743-1.411 1.392-2.915 1.936-4.495l1.489.395c.086.022.172.033.257.033.442 0 .847-.296.966-.743.142-.534-.176-1.082-.709-1.224l-1.407-.374c.455-1.631.778-3.273.967-4.893l1.402.369c.085.022.171.033.255.033.443 0 .848-.297.966-.745.141-.534-.178-1.081-.712-1.222l-1.742-.459c.057-1.209.044-2.395-.058-3.536l13.567 3.969c.438.13.905-.057 1.139-.447s.174-.89-.146-1.215c-4.296-4.359-6.662-10.128-6.662-16.243 0-6.385 2.543-12.33 7.162-16.741 4.616-4.409 10.68-6.675 17.079-6.381 11.937.55 21.617 10.338 22.038 22.285.227 6.435-2.134 12.5-6.646 17.08-.32.324-.38.824-.146 1.215.233.393.701.576 1.14.447l13.567-3.969c-.102 1.14-.116 2.326-.058 3.536l-1.742.459c-.534.141-.853.688-.712 1.222.118.448.523.745.966.745.085 0 .171-.011.256-.033l1.402-.369c.189 1.62.512 3.262.967 4.893l-1.408.374c-.533.142-.852.689-.71 1.224.119.447.523.743.966.743.085 0 .172-.011.258-.033l1.49-.396c.544 1.58 1.193 3.084 1.936 4.495l-1.14.332c-.53.154-.835.709-.681 1.239.127.438.526.721.96.721.092 0 .187-.013.279-.04l1.597-.464c.554.891 1.146 1.736 1.776 2.525l-8.94 2.616c-4.916 1.439-8.632 5.416-9.884 10.234l-19.854-8.094c-.513-.212-1.095.037-1.303.548-.208.512.037 1.096.548 1.304l20.245 8.254c-.057.516-.097 1.036-.097 1.564v.452c0 2.522.666 5.011 1.927 7.194l9.296 16.101c-1.123.196-2.28.491-3.447.863l-.989-1.633c-.287-.473-.902-.622-1.373-.338-.473.286-.624.901-.338 1.373l.775 1.279c-1.456.573-2.911 1.268-4.329 2.074l-.955-1.485c-.299-.464-.918-.597-1.382-.3-.465.299-.599.918-.3 1.382l.925 1.437c-1.252.808-2.413 1.68-3.484 2.592l-1.008-1.47c-.312-.456-.935-.571-1.39-.259-.456.313-.571.935-.259 1.39l1.166 1.7c-.947.929-1.802 1.888-2.525 2.87l-6.465-11.197c-.836-1.448-2.334-2.313-4.006-2.313s-3.169.864-4.006 2.313l-6.438 11.15c-.715-.965-1.556-1.909-2.488-2.823l1.166-1.7c.313-.455.196-1.078-.259-1.39-.455-.314-1.077-.197-1.39.259l-1.008 1.469c-1.071-.912-2.231-1.784-3.483-2.592l.925-1.437c.299-.464.165-1.083-.3-1.382-.464-.298-1.083-.165-1.382.3l-.955 1.484c-1.418-.806-2.872-1.501-4.328-2.073l.774-1.278c.286-.473.135-1.088-.337-1.374-.473-.285-1.087-.134-1.374.337l-.99 1.634c-1.188-.378-2.364-.678-3.505-.874l2.089-3.619c.276-.479.112-1.09-.366-1.366-.48-.277-1.09-.111-1.366.366l-2.539 4.397c-3.572 6.187-1.625 14.203 4.34 17.868 2.09 1.285 4.434 1.943 6.817 1.943 1.076 0 2.16-.135 3.232-.406 3.448-.873 6.326-3.05 8.104-6.13l6.792-11.765c.475-.822 1.324-1.313 2.273-1.313.95 0 1.799.49 2.274 1.313l6.667 11.548c3.572 6.188 11.488 8.508 17.645 5.176 3.132-1.695 5.39-4.514 6.356-7.935.968-3.423.521-7.003-1.257-10.083l-9.864-17.085c-1.086-1.88-1.659-4.022-1.659-6.194v-.452c0-.26.016-.518.032-.775l10.664 4.347c-.047.295-.078.595-.078.903 0 3.177 2.584 5.761 5.76 5.761 3.177 0 5.761-2.584 5.761-5.761 0-3.176-2.584-5.76-5.761-5.76-2.161 0-4.045 1.198-5.031 2.962l-11.013-4.49c1.008-4.266 4.251-7.812 8.574-9.077l10.785-3.156c3.349-.979 6.114-3.203 7.789-6.264 1.674-3.06 2.057-6.588 1.077-9.937zm-82.801-1.561.972.256c-.172 1.614-.491 3.259-.949 4.894l-1.221-.324c-.534-.139-1.082.177-1.223.71-.142.534.176 1.082.709 1.224l1.135.302c-.548 1.568-1.202 3.058-1.956 4.44l-1.102-.32c-.53-.156-1.085.15-1.24.681-.154.53.151 1.085.681 1.239l.596.173c-.579.887-1.2 1.717-1.861 2.484-2.724-.864-4.977-2.705-6.354-5.22-1.418-2.591-1.742-5.579-.913-8.414 1.707-5.836 7.831-9.203 13.669-7.521.149 1.159.212 2.371.173 3.624l-.609-.16c-.535-.142-1.081.179-1.222.712-.138.532.181 1.079.715 1.22zm16.418 73.788c-2.918.737-5.94.277-8.511-1.302-4.706-2.892-6.446-8.994-4.207-14.067 1.113.153 2.266.403 3.442.755l-.761 1.256c-.286.473-.135 1.088.337 1.374.162.098.341.145.517.145.338 0 .668-.172.856-.481l.988-1.63c1.44.547 2.885 1.223 4.297 2.019l-.946 1.47c-.299.464-.165 1.083.3 1.382.167.107.354.159.54.159.329 0 .651-.162.842-.459l.979-1.521c1.23.797 2.374 1.666 3.424 2.575l-.84 1.224c-.313.455-.196 1.078.259 1.39.173.119.37.176.564.176.319 0 .632-.151.826-.435l.672-.98c.961.967 1.787 1.964 2.466 2.965-1.504 1.966-3.601 3.366-6.044 3.985zm48.678-7.711c-.818 2.897-2.73 5.283-5.384 6.72-4.704 2.548-10.619 1.171-13.961-2.982.681-1.005 1.51-2.006 2.475-2.978l.672.98c.193.283.507.435.825.435.195 0 .392-.057.564-.176.456-.313.571-.935.259-1.39l-.839-1.223c1.049-.909 2.193-1.779 3.424-2.575l.979 1.521c.191.297.513.459.842.459.186 0 .373-.052.54-.159.465-.299.599-.918.3-1.382l-.946-1.47c1.412-.796 2.858-1.472 4.298-2.02l.987 1.63c.188.311.519.482.856.482.177 0 .355-.047.517-.145.473-.286.624-.901.338-1.373l-.761-1.257c1.163-.347 2.304-.596 3.406-.75 1.115 2.397 1.337 5.077.609 7.653zm5.523-32.555c2.073 0 3.761 1.687 3.761 3.76s-1.688 3.761-3.761 3.761-3.76-1.688-3.76-3.761 1.686-3.76 3.76-3.76zm9.35-22.984c-1.378 2.515-3.63 4.356-6.355 5.22-.66-.768-1.282-1.597-1.86-2.484l.596-.173c.53-.154.835-.709.681-1.239s-.708-.837-1.239-.681l-1.101.32c-.754-1.382-1.407-2.871-1.956-4.44l1.135-.301c.533-.142.852-.689.71-1.224-.142-.533-.691-.85-1.224-.71l-1.221.324c-.458-1.635-.777-3.281-.949-4.894l.972-.256c.534-.141.853-.688.712-1.222s-.694-.851-1.222-.712l-.609.161c-.039-1.253.024-2.465.173-3.624 5.835-1.682 11.961 1.686 13.668 7.521.831 2.835.507 5.823-.911 8.414z"/><path d="m34.971 96.347c.157.091.33.134.499.134.346 0 .682-.179.867-.5l2.256-3.907c.276-.479.112-1.09-.366-1.366-.479-.276-1.09-.113-1.366.366l-2.256 3.907c-.276.478-.112 1.089.366 1.366z"/><path d="m71.121 29.511c4.101 0 7.437-3.336 7.437-7.437s-3.336-7.437-7.437-7.437-7.437 3.336-7.437 7.437 3.336 7.437 7.437 7.437zm0-12.873c2.998 0 5.437 2.438 5.437 5.437s-2.438 5.437-5.437 5.437-5.437-2.438-5.437-5.437 2.439-5.437 5.437-5.437z"/><path d="m68.517 24.678c.195.195.451.293.707.293s.512-.098.707-.293l1.189-1.189 1.189 1.189c.195.195.451.293.707.293s.512-.098.707-.293c.391-.391.391-1.023 0-1.414l-1.189-1.189 1.189-1.189c.391-.391.391-1.023 0-1.414s-1.023-.391-1.414 0l-1.189 1.189-1.189-1.189c-.391-.391-1.023-.391-1.414 0s-.391 1.023 0 1.414l1.189 1.189-1.189 1.189c-.39.39-.39 1.023 0 1.414z"/><path d="m52.884 14.638c-4.1 0-7.436 3.336-7.436 7.437s3.336 7.437 7.436 7.437c4.101 0 7.437-3.336 7.437-7.437s-3.336-7.437-7.437-7.437zm0 12.873c-2.998 0-5.436-2.438-5.436-5.437s2.438-5.437 5.436-5.437 5.437 2.438 5.437 5.437-2.439 5.437-5.437 5.437z"/><path d="m55.487 19.471c-.391-.391-1.023-.391-1.414 0l-1.189 1.189-1.189-1.189c-.391-.391-1.023-.391-1.414 0s-.391 1.023 0 1.414l1.189 1.189-1.189 1.189c-.391.391-.391 1.023 0 1.414.195.195.451.293.707.293s.512-.098.707-.293l1.189-1.189 1.189 1.189c.195.195.451.293.707.293s.512-.098.707-.293c.391-.391.391-1.023 0-1.414l-1.189-1.189 1.189-1.189c.391-.391.391-1.024 0-1.414z"/><path d="m63.684 35.69h-3.364v-1.593c0-.553-.448-1-1-1s-1 .447-1 1v1.593h-3.364v-1.593c0-.553-.448-1-1-1s-1 .447-1 1v1.593h-.922c-.552 0-1 .447-1 1s.448 1 1 1h.922v1.592c0 .553.448 1 1 1s1-.447 1-1v-1.592h3.364v1.592c0 .553.448 1 1 1s1-.447 1-1v-1.592h3.364v1.592c0 .553.448 1 1 1s1-.447 1-1v-1.592h3.363v1.592c0 .553.447 1 1 1s1-.447 1-1v-1.592h.922c.553 0 1-.447 1-1s-.447-1-1-1h-.922v-1.593c0-.553-.447-1-1-1s-1 .447-1 1v1.593h-3.363v-1.593c0-.553-.448-1-1-1s-1 .447-1 1z"/></g></g></g></svg>