<svg id="Layer_1" enable-background="new 0 0 128 128" height="512" viewBox="0 0 128 128" width="512" xmlns="http://www.w3.org/2000/svg"><g><g><path d="m89.59 89.354c1.28-.947 2.441-1.951 3.474-3.034 2.342-2.458 3.702-6.305 4.107-11.591 11.076-5.382 16.814-12.822 18.858-15.961.423-.649.438-1.463.04-2.125-.399-.662-1.123-1.027-1.9-.957-2.464.229-7.309.152-12.06-2.949-.883-.576-1.807-1.193-2.771-1.837-3.255-2.175-7.006-4.671-11.114-6.875l-10.518-23.734 5.256-9.807c.379-.708.299-1.571-.204-2.197-.504-.626-1.328-.889-2.101-.673l-14.732 4.143c-3.027.852-5.456 3.006-6.664 5.911l-10.964 26.385c-4.086 2.196-7.817 4.68-11.058 6.845-.964.645-1.89 1.263-2.773 1.839-4.751 3.101-9.599 3.178-12.06 2.949-.775-.07-1.501.294-1.9.957-.398.661-.383 1.475.04 2.124.864 1.328 2.393 3.427 4.7 5.812-5.482 1.184-9.604 6.065-9.604 11.895 0 2.592.821 4.993 2.207 6.969-.115.95.25 1.935 1.063 2.558l3.279 2.512c1.253.96 2.001 2.475 2.001 4.052v13.841c-3.383 1.421-5.766 4.767-5.766 8.661 0 5.135 4.144 9.324 9.263 9.393.033.001 81.097 0 81.097 0 1.654 0 3-1.346 3-3v-.295c0-10.299-4.754-19.506-12.18-25.551.023-.181.055-.359.055-.546 0-2.413-1.963-4.375-4.375-4.375-.87 0-1.676.262-2.358.701-.252-.12-.508-.232-.763-.345-.826-.609-1.686-1.173-2.575-1.695zm-45.944 2.039c-.682-.439-1.489-.701-2.358-.701-2.412 0-4.375 1.962-4.375 4.375 0 .187.032.365.055.546-2.063 1.68-3.921 3.603-5.527 5.727v-8.775c0-1.578.748-3.093 2.001-4.053l3.278-2.512c.594-.454.975-1.112 1.072-1.852.032-.239.022-.476-.006-.709 1.067-1.523 1.787-3.299 2.065-5.22.657 3.523 1.87 6.22 3.661 8.1 1.032 1.083 2.193 2.087 3.473 3.034-.889.522-1.749 1.086-2.577 1.694-.255.114-.51.226-.762.346z" fill="#e6e7e8"/></g><g><g><g><g><g><path d="m34.067 92.024c-7.467 5.845-12.28 14.922-12.28 25.14v.295c0 1.105.895 2 2 2h5.313v-8.173c0-6.65 2.238-12.774 5.996-17.671-.482-.416-.842-.963-1.029-1.591z" fill="#0089ef"/></g></g><g><g><path d="m94.508 92.024c-.187.628-.546 1.174-1.03 1.591 3.758 4.897 5.996 11.021 5.996 17.671v8.173h5.314c1.104 0 2-.895 2-2v-.295c0-10.218-4.813-19.295-12.28-25.14z" fill="#0089ef"/></g></g></g><g><path d="m64.288 35.216c6.855 0 13.345 2.435 19.16 5.523l-10.855-24.489 5.486-10.237c.416-.777-.303-1.674-1.152-1.435l-14.732 4.143c-2.714.763-4.929 2.728-6.011 5.332l-11.098 26.708c5.826-3.098 12.33-5.545 19.202-5.545z" fill="#6dc9f7"/></g><g><path d="m110.261 52.681c-2.707.252-7.739.13-12.699-3.107-8.23-5.371-20.09-14.359-33.275-14.359s-25.044 8.987-33.275 14.359c-4.959 3.237-9.992 3.359-12.699 3.107-.836-.078-1.388.836-.93 1.539 2.208 3.392 7.959 10.711 18.975 15.898-.332-5.25.312-11.225 1.197-16.652.812-.326 1.641-.736 2.468-1.276 6.001-3.917 14.649-10.47 24.263-10.47s18.261 6.553 24.263 10.47c.828.54 1.656.95 2.468 1.276.885 5.427 1.529 11.402 1.197 16.652 11.016-5.187 16.767-12.507 18.975-15.898.461-.703-.091-1.616-.928-1.539z" fill="#0089ef"/></g><g><path d="m83.707 85.446c-3.374 2.235-7.266 3.893-11.393 5.245-5.226 1.713-8.027 6.938-8.027 6.938s-2.801-5.225-8.027-6.938c-4.126-1.353-8.019-3.01-11.393-5.245-9.361 4.826-15.767 14.582-15.767 25.84v8.173h70.373v-8.173c.001-11.258-6.405-21.013-15.766-25.84z" fill="#6dc9f7"/></g><g><path d="m72.314 90.692c-5.226 1.713-8.027 6.938-8.027 6.938s-2.801-5.225-8.027-6.938c-.663-.217-1.318-.447-1.968-.68l9.995 17.745 9.995-17.745c-.65.233-1.304.462-1.968.68z" fill="#fff"/></g><g><path d="m64.288 41.721c-9.614 0-18.261 6.553-24.263 10.47-.828.54-1.656.95-2.468 1.276-1.686 10.339-2.535 22.693 2.679 28.163 4.148 4.352 9.838 7.034 16.026 9.062 5.226 1.713 8.027 6.938 8.027 6.938s2.801-5.225 8.027-6.938c6.187-2.028 11.878-4.71 16.026-9.062 5.214-5.47 4.365-17.824 2.679-28.163-.812-.326-1.641-.736-2.468-1.276-6.004-3.917-14.652-10.47-24.265-10.47z" fill="#d4fbff"/></g><g><path d="m64.288 83.825c12.486 0 22.608-10.122 22.608-22.608v-10.122c-5.886-3.93-13.842-9.374-22.608-9.374s-16.722 5.444-22.608 9.374v10.122c-.001 12.486 10.121 22.608 22.608 22.608z" fill="#fff"/></g><g fill="#d4fbff"><path d="m64.314 73.66c-.207-.553.812-2.904 2.973-3.042 2.757-.176 5.151 3.333 7.208 4.684 1.07.702 2.659-.157 2.541-.086-.111.067-.727 2.518-2.852 2.518-3.358 0-4.872-2.433-6.917-3.292-2.083-.875-2.746-.229-2.953-.782z"/><path d="m64.261 73.66c.207-.553-.812-2.904-2.973-3.042-2.757-.176-5.151 3.333-7.208 4.684-1.07.702-2.659-.157-2.541-.086.111.067.727 2.518 2.852 2.518 3.358 0 4.872-2.433 6.917-3.292 2.084-.875 2.746-.229 2.953-.782z"/></g><g fill="#d4fbff"><circle cx="37.288" cy="91.067" r="3.375"/><circle cx="91.288" cy="91.067" r="3.375"/></g><g><path d="m15.187 78.689c.603-.787 1.73-.937 2.518-.334l2.562 1.962c.379.29.926.02.926-.457v-1.318c0-1.449 1.175-2.624 2.624-2.624s2.624 1.175 2.624 2.624v1.318c0 .477.547.747.926.457l2.562-1.962c.787-.603 1.915-.454 2.518.334.124.162.208.339.269.522 1.421-1.874 2.275-4.204 2.275-6.737 0-6.171-5.003-11.174-11.174-11.174s-11.174 5.003-11.174 11.174c0 2.534.853 4.863 2.275 6.738.061-.184.146-.361.269-.523z" fill="#ffd7e5"/><g><path d="m23.817 64.3c5.661 0 10.327 4.214 11.062 9.674.066-.492.112-.99.112-1.5 0-6.171-5.003-11.174-11.174-11.174s-11.174 5.003-11.174 11.174c0 .51.046 1.008.112 1.5.735-5.461 5.401-9.674 11.062-9.674z" fill="#fff"/></g><path d="m32.447 78.689c-.603-.787-1.73-.937-2.518-.334l-2.562 1.962c-.379.29-.926.02-.926-.457v-1.318c0-1.449-1.175-2.624-2.624-2.624s-2.624 1.175-2.624 2.624v1.318c0 .477-.547.747-.926.457l-2.562-1.962c-.787-.603-1.915-.454-2.518.334-.603.787-.454 1.915.334 2.518l3.279 2.512c1.508 1.155 2.393 2.947 2.393 4.846v14.536c.826-.272 1.707-.425 2.624-.425s1.798.152 2.624.425v-14.536c0-1.9.884-3.691 2.393-4.846l3.279-2.512c.788-.604.937-1.731.334-2.518z" fill="#fa759e"/></g><g><circle cx="23.817" cy="111.066" fill="#fff" r="8.39"/><g fill="#3a2c60"><path d="m50.063 28.785c.126.052.256.077.384.077.392 0 .764-.232.924-.617l2.08-5.007c.212-.51-.03-1.095-.54-1.307-.512-.212-1.095.03-1.308.54l-2.08 5.007c-.212.51.03 1.095.54 1.307z"/><path d="m50.719 75.811c.82 1.939 2.056 2.922 3.673 2.922 1.768 0 3.097-.597 4.191-1.292.47.571 2.367 2.583 5.705 2.583 3.298 0 5.25-2.05 5.704-2.585 1.094.696 2.423 1.294 4.193 1.294 1.617 0 2.853-.983 3.673-2.922l.027-.063c.186-.293.215-.674.045-1-.245-.47-.841-.655-1.322-.438-.53.239-1.222.38-1.563.156-.574-.377-1.22-.983-1.904-1.624-1.685-1.58-3.599-3.37-5.916-3.222-1.129.072-2.171.629-2.936 1.545-.765-.917-1.807-1.473-2.936-1.545-2.319-.148-4.231 1.642-5.916 3.222-.685.641-1.33 1.247-1.904 1.624-.343.225-1.031.084-1.563-.156-.48-.215-1.076-.032-1.322.438-.17.326-.141.707.045 1zm13.568 2.213c-2.325 0-3.667-1.293-4.067-1.746.505-.373.991-.711 1.476-.915.973-.409 1.537-.426 1.949-.438.163-.005.398-.016.642-.083.244.067.479.078.642.083.412.013.977.03 1.95.438.482.203.967.539 1.47.911-.427.467-1.807 1.75-4.062 1.75zm3.064-6.408c1.501-.103 3.033 1.383 4.421 2.685.749.703 1.456 1.366 2.175 1.837.317.208.654.331.991.391-.215.129-.463.205-.754.205-1.88 0-3.064-.886-4.317-1.824-.689-.516-1.402-1.049-2.212-1.389-.96-.403-1.669-.526-2.178-.569.289-.549.911-1.275 1.874-1.336zm-12.722 4.522c.719-.472 1.426-1.135 2.175-1.837 1.387-1.302 2.962-2.791 4.421-2.685.964.062 1.585.787 1.874 1.335-.509.043-1.218.166-2.177.569-.811.34-1.523.874-2.213 1.389-1.253.938-2.438 1.824-4.317 1.824-.291 0-.539-.076-.753-.205.336-.06.673-.182.99-.39z"/><path d="m52.271 58.053c0 1.249 1.012 2.261 2.261 2.261s2.261-1.012 2.261-2.261-1.012-2.261-2.261-2.261c-1.248 0-2.261 1.012-2.261 2.261z"/><path d="m72.22 58.053c0 1.249 1.012 2.261 2.261 2.261s2.261-1.012 2.261-2.261-1.012-2.261-2.261-2.261-2.261 1.012-2.261 2.261z"/><path d="m64.287 68.116c1.969 0 3.571-1.602 3.571-3.571v-1.507c0-.552-.447-1-1-1s-1 .448-1 1v1.507c0 .866-.705 1.571-1.571 1.571s-1.57-.705-1.57-1.571v-1.507c0-.552-.447-1-1-1s-1 .448-1 1v1.507c0 1.969 1.602 3.571 3.57 3.571z"/><path d="m72.933 54.688c.151 0 .305-.034.448-.107l4.428-2.229c.494-.248.692-.849.444-1.343-.249-.494-.853-.693-1.343-.443l-4.428 2.229c-.494.248-.692.849-.444 1.343.176.349.529.55.895.55z"/><path d="m51.204 52.353 4.428 2.229c.144.073.297.107.448.107.366 0 .719-.201.895-.55.248-.494.05-1.095-.444-1.343l-4.428-2.229c-.491-.25-1.095-.05-1.343.443s-.05 1.095.444 1.343z"/><path d="m89.064 82.319c2.338-2.453 3.697-6.288 4.105-11.557 10.695-5.179 16.401-12.219 18.861-15.996.423-.65.438-1.464.038-2.125s-1.13-1.03-1.898-.955c-2.466.228-7.313.15-12.06-2.949-.883-.576-1.808-1.194-2.771-1.838-3.255-2.175-7.005-4.671-11.113-6.875l-10.52-23.734 5.255-9.805c.38-.708.301-1.57-.202-2.197s-1.33-.89-2.102-.674l-14.732 4.144c-3.028.852-5.458 3.006-6.665 5.911l-2.107 5.072c-.212.51.03 1.095.54 1.307.511.211 1.095-.03 1.308-.54l2.107-5.072c.97-2.336 2.924-4.068 5.358-4.753l14.731-4.143-4.503 8.401-.796-1.864c-.217-.509-.81-.743-1.313-.527-.508.217-.744.804-.527 1.312l11.34 25.719c-5.27-2.518-11.052-4.366-17.111-4.366-6.109 0-11.934 1.881-17.239 4.43l2.558-6.156c.212-.51-.03-1.095-.54-1.307-.511-.211-1.095.03-1.308.54l-3.462 8.331c-4.087 2.197-7.819 4.681-11.06 6.846-.964.644-1.889 1.262-2.771 1.838-4.749 3.099-9.593 3.178-12.059 2.949-.764-.07-1.499.293-1.899.955-.399.661-.385 1.476.038 2.125.84 1.291 2.378 3.402 4.701 5.812-5.482 1.183-9.604 6.064-9.604 11.895 0 2.592.818 4.992 2.205 6.966-.028.233-.038.469-.007.708.099.74.479 1.398 1.071 1.853l3.279 2.512c1.253.959 2.001 2.474 2.001 4.052v13.841c-3.383 1.421-5.765 4.767-5.765 8.66 0 5.147 4.164 9.344 9.299 9.393h81.061c1.654 0 3-1.346 3-3v-.295c0-9.97-4.437-19.233-12.182-25.529.025-.188.057-.374.057-.568 0-2.413-1.963-4.375-4.375-4.375-.939 0-1.804.303-2.517.809-1.005-.775-2.059-1.5-3.171-2.153 1.277-.945 2.436-1.947 3.466-3.028zm-1.448-1.38c-3.485 3.656-8.446 6.453-15.613 8.802-3.861 1.266-6.456 4.256-7.716 6.031-1.26-1.775-3.854-4.765-7.715-6.031-7.167-2.35-12.128-5.146-15.613-8.802-3.842-4.031-4.684-13.035-2.503-26.767.754-.333 1.45-.711 2.115-1.145.034-.022.073-.049.107-.071v8.26c0 13.018 10.591 23.608 23.608 23.608s23.608-10.591 23.608-23.608v-8.261c.035.023.074.049.108.072.666.436 1.362.813 2.115 1.146 2.183 13.731 1.341 22.735-2.501 26.766zm-23.329 24.78-7.817-13.879c4.437 1.73 6.911 6.216 6.936 6.263.175.324.513.526.881.526h.001c.368 0 .706-.203.88-.527.025-.047 2.481-4.527 6.937-6.263zm-35.108-2.35c-.542-.378-1.122-.705-1.738-.964v-1.519c1.681-2.707 3.782-5.174 6.285-7.295.023.032.051.059.075.091-2.102 2.911-3.671 6.187-4.622 9.687zm5.733-12.302c0-1.31 1.065-2.375 2.375-2.375s2.375 1.065 2.375 2.375-1.065 2.375-2.375 2.375-2.375-1.066-2.375-2.375zm4.89-3.569c-.713-.504-1.578-.806-2.515-.806-2.412 0-4.375 1.962-4.375 4.375 0 .198.033.387.058.578-2.098 1.708-3.942 3.637-5.529 5.738v-8.818c0-1.578.748-3.093 2.001-4.052l3.28-2.513c.593-.454.973-1.112 1.071-1.853.031-.239.021-.475-.007-.708 1.062-1.511 1.789-3.272 2.072-5.178.659 3.501 1.869 6.185 3.654 8.057 1.03 1.08 2.188 2.082 3.464 3.028-1.114.653-2.168 1.377-3.174 2.152zm2.877-35.868c5.651-3.775 13.367-8.909 21.608-8.909 8.242 0 15.958 5.133 21.608 8.908v9.588c0 11.915-9.693 21.608-21.608 21.608s-21.608-9.693-21.608-21.608zm-24.457 2.047c2.723.255 8.08.166 13.338-3.265.888-.58 1.818-1.202 2.789-1.85 7.797-5.21 18.477-12.347 29.938-12.347 11.463 0 22.143 7.136 29.94 12.347.97.648 1.9 1.27 2.788 1.85 5.257 3.431 10.611 3.519 13.338 3.263-1.83 2.81-7.064 9.676-17.069 14.795.104-4.235-.317-9.27-1.279-15.165-.057-.346-.29-.636-.615-.767-.836-.335-1.586-.723-2.293-1.186-.645-.42-1.318-.871-2.021-1.34-5.869-3.921-13.907-9.292-22.789-9.292-8.881 0-16.919 5.371-22.788 9.292-.703.47-1.377.92-2.021 1.341-.706.461-1.456.849-2.294 1.186-.324.13-.558.421-.614.767-.959 5.88-1.381 10.905-1.28 15.134-1.67-4.733-6.176-8.14-11.473-8.14-.008 0-.016.001-.024.001-2.841-2.745-4.647-5.205-5.571-6.624zm5.595 8.623c5.61 0 10.175 4.564 10.175 10.174 0 1.836-.499 3.553-1.355 5.04-.367-.262-.788-.443-1.248-.504-.744-.098-1.475.098-2.068.552l-1.879 1.44v-.458c0-1.998-1.626-3.624-3.625-3.624-1.998 0-3.624 1.626-3.624 3.624v.458l-1.88-1.44c-.593-.454-1.324-.65-2.067-.552-.46.061-.881.242-1.248.504-.856-1.487-1.355-3.204-1.355-5.04 0-5.61 4.563-10.174 10.174-10.174zm-4.409 20.624-3.279-2.512c-.169-.129-.277-.316-.305-.527s.027-.42.157-.589c.129-.168.316-.277.526-.305.215-.026.421.028.589.157l2.563 1.962c.479.369 1.114.428 1.655.162.542-.267.878-.809.878-1.413v-1.318c0-.896.729-1.624 1.624-1.624.896 0 1.625.729 1.625 1.624v1.318c0 .604.336 1.146.878 1.413.543.268 1.176.205 1.656-.162l2.561-1.962c.169-.13.373-.184.59-.157.21.028.397.136.526.305v.001c.13.168.186.377.157.588-.027.21-.136.398-.305.527l-3.279 2.512c-1.743 1.335-2.784 3.443-2.784 5.64v13.262c-.529-.093-1.07-.151-1.625-.151s-1.095.058-1.624.15v-13.261c.001-2.196-1.04-4.305-2.784-5.64zm-2.98 28.142c0-4.075 3.314-7.39 7.389-7.39s7.39 3.315 7.39 7.39-3.315 7.39-7.39 7.39-7.389-3.315-7.389-7.39zm13.674 6.956c1.901-1.719 3.104-4.197 3.104-6.956 0-2.371-.891-4.534-2.346-6.188.838-3.591 2.374-6.947 4.492-9.907.586.292 1.237.471 1.935.471 2.412 0 4.375-1.962 4.375-4.375 0-.747-.206-1.44-.537-2.056 1.157-.886 2.39-1.689 3.698-2.399 2.467 1.567 5.361 2.956 8.779 4.209l9.686 17.197v10.441h-16.21v-13.4c0-.552-.447-1-1-1s-1 .448-1 1v13.4h-14.976zm75.685-.858v.295c0 .551-.448 1-1 1h-4.313v-7.173c0-6.467-2.078-12.565-5.714-17.588.024-.032.053-.06.077-.093 6.966 5.902 10.95 14.412 10.95 23.559zm-14.5-28.472c1.31 0 2.375 1.065 2.375 2.375s-1.065 2.375-2.375 2.375-2.375-1.065-2.375-2.375 1.066-2.375 2.375-2.375zm-3.835.313c-.333.617-.54 1.312-.54 2.062 0 2.413 1.963 4.375 4.375 4.375.695 0 1.343-.178 1.927-.467 3.347 4.669 5.259 10.321 5.259 16.312v7.173h-14.975v-13.4c0-.552-.447-1-1-1s-1 .448-1 1v13.4h-16.211v-10.441l9.687-17.197c3.418-1.254 6.312-2.642 8.779-4.209 1.307.707 2.542 1.509 3.699 2.392z"/></g></g></g></g></g></svg>