<svg id="Layer_1" enable-background="new 0 0 128 128" height="512" viewBox="0 0 128 128" width="512" xmlns="http://www.w3.org/2000/svg"><g><g><path d="m78.918 73.63 2.032-1.867 1.091 1.321 2.141-3.021 1.179 1.474 2.972-4.645c2.708-4.231 4.275-9.076 4.585-14.07 1.057-3.972 1.388-9.112 1.388-9.196 0-1.094-.574-1.463-.916-1.586-.134-.048-.269-.07-.406-.075v-6.575c0-6.659-3.126-12.577-7.978-16.403h.027l-13.174-10.178.266 3.489-6.125-4.379-5.062 4.233-.313-2.563-4 3.938v-2.25l-10.294 8.25c-4.472 3.832-7.316 9.51-7.316 15.862v6.575c-.137.005-.272.027-.406.075-.342.123-.916.493-.916 1.586 0 .084.328 5.178 1.374 9.143.249 4.934 1.72 9.737 4.316 13.96l.45.733 1.093-1.127 2.726 3.981 1.035-.941 4.52 4.227c-13.376 3.042-23.394 15.023-23.394 29.307v18.173c0 1.654 1.346 3 3 3h66.373c1.654 0 3-1.346 3-3v-18.173c0-14.24-9.954-26.189-23.268-29.278z" fill="#e6e7e8"/></g><g><g><path d="m68.124 69.846h-12.248c-16.05 0-29.062 13.011-29.062 29.062v18.173c0 1.105.895 2 2 2h66.373c1.105 0 2-.895 2-2v-18.173c-.001-16.051-13.012-29.062-29.063-29.062z" fill="#fff"/><g><path d="m74.474 70.556c.008.183.026.363.026.548 0 7.262-5.596 13.149-12.5 13.149s-12.5-5.887-12.5-13.149c0-.185.019-.365.026-.548-2.663.594-5.194 1.541-7.526 2.81v45.714h40v-45.713c-2.332-1.27-4.863-2.216-7.526-2.811z" fill="#0089ef"/></g><g><g><path d="m74.474 70.556c.008.183.026.363.026.548 0 .824-.081 1.627-.219 2.409 2.734.59 5.33 1.553 7.719 2.854v-3c-2.332-1.27-4.863-2.216-7.526-2.811z" fill="#fff"/></g><g><path d="m49.5 71.104c0-.185.019-.365.026-.548-2.663.594-5.194 1.541-7.526 2.81v3c2.389-1.3 4.985-2.263 7.719-2.854-.138-.781-.219-1.584-.219-2.408z" fill="#fff"/></g></g><g><g><path d="m66.147 101.081c-2.63-1.981-5.903-1.981-8.533 0-1.893 1.426-3.229 3.793-3.683 6.526-.381 2.297.491 4.636 2.134 5.718 1.789 1.178 3.988.542 5.197-1.503.309-.522.926-.522 1.235 0 1.21 2.046 3.408 2.682 5.198 1.503 1.643-1.082 2.516-3.42 2.134-5.718-.453-2.733-1.789-5.1-3.682-6.526z" fill="#6dc9f7"/></g><g><path d="m54.898 95.835c.307 1.906 1.68 2.275 3.259 2.02s2.766-1.036 2.458-2.942c-.299-1.856-1.938-4.292-3.482-4.184-.82-1.075-.143-2.412-.143-2.412-1.08 1.133-1.062 2.357-.957 2.991-.931.999-1.371 3.064-1.135 4.527z" fill="#6dc9f7"/></g><g><path d="m53.956 98.056c-1.062-1.246-3.214-2.329-4.589-2.003-1.507-.526-1.454-2.254-1.454-2.254-.521 1.505.032 2.626.391 3.147-.553 1.303.178 3.615 1.245 4.867 1.253 1.47 2.617 1.072 3.834.034 1.216-1.037 1.825-2.321.573-3.791z" fill="#6dc9f7"/></g><g><path d="m65.604 97.855c1.579.255 2.951-.114 3.259-2.02.215-1.333-.132-3.168-.899-4.24.187-.527.5-1.875-.545-3.266 0 0 .529 1.475-.512 2.448-.051-.014-.101-.033-.154-.042-1.579-.255-3.299 2.271-3.607 4.177s.879 2.688 2.458 2.943z" fill="#6dc9f7"/></g><g><path d="m76.087 94.003s.05 1.62-1.312 2.201c-1.319-.687-3.801.481-4.969 1.851-1.253 1.47-.643 2.754.574 3.791s2.581 1.435 3.834-.034c.971-1.139 1.662-3.157 1.363-4.494.321-.406 1.098-1.615.51-3.315z" fill="#6dc9f7"/></g></g></g><g><path d="m75.408 25.173h-.678c-3.05 0-5.996 1.107-8.291 3.115-2.542 2.224-6.338 2.224-8.879 0-2.295-2.008-5.241-3.115-8.291-3.115h-.678c-5.081 0-9.2 4.119-9.2 9.2v13.593c0 12.486 10.122 22.608 22.608 22.608 12.486 0 22.608-10.122 22.608-22.608v-13.593c.001-5.081-4.118-9.2-9.199-9.2z" fill="#fff"/><g fill="#fff"><path d="m84.608 43.256v4.709c0 1.289-.114 2.552-.321 3.782.49.392 1.048.634 1.651.634 1.861 0 3.369-10.13 3.369-12.757s-4.29 3.384-4.699 3.632z"/><path d="m39.392 47.966v-4.709c-.408-.248-4.699-6.258-4.699-3.631s1.508 12.757 3.369 12.757c.603 0 1.161-.242 1.651-.634-.208-1.232-.321-2.494-.321-3.783z"/></g><g fill="#3a2c60"><path d="m82 103c-.552 0-1 .448-1 1v5.625c0 .552.448 1 1 1s1-.448 1-1v-5.625c0-.552-.448-1-1-1z"/><path d="m74.918 69.63 2.032-1.867 1.091 1.321 2.141-3.021 1.179 1.474 2.972-4.645c2.708-4.231 4.276-9.076 4.585-14.07 1.057-3.972 1.388-9.112 1.388-9.196 0-1.094-.574-1.463-.916-1.586-.134-.048-.269-.069-.406-.075v-6.575c0-6.659-3.126-12.577-7.978-16.403h.027l-13.174-10.178.266 3.489-6.125-4.379-5.063 4.233-.313-2.563-4 3.938v-2.25l-10.294 8.25c-4.472 3.832-7.316 9.51-7.316 15.862v6.574c-.137.005-.272.028-.407.076-.342.123-.916.492-.916 1.586 0 .084.328 5.18 1.374 9.145.249 4.934 1.721 9.736 4.316 13.958l.45.733 1.093-1.127 2.726 3.981 1.035-.941 4.52 4.227c-13.376 3.042-23.394 15.023-23.394 29.307v18.173c0 1.654 1.346 3 3 3h66.373c1.654 0 3-1.346 3-3v-18.173c.003-14.24-9.952-26.189-23.266-29.278zm-1.812 1.668s-.005.002-.005.002l.003-.003c0 .001.001.001.002.001zm10.502-27.568c-.459 3.985-1.523 10.881-3.493 12.134-1.266.805-3.645 1.489-3.645 1.489l1.645 1.106-3.958 1.267 2.383 1.274s-1.148 2.229-4.269 4.104c-1.698 1.02-3.286 1.685-4.385 2.081l-1.626-1.352-4.26 1.334-3.998-1.333-1.855 1.364c-1.1-.395-2.704-1.064-4.418-2.094-3.121-1.875-4.269-4.104-4.269-4.104l2.383-1.275-3.958-1.267 1.645-1.106s-2.378-.684-3.645-1.489c-1.97-1.252-3.034-8.147-3.493-12.132v-9.359c0-4.521 3.678-8.2 8.2-8.2h.678c2.809 0 5.519 1.019 7.632 2.868 2.907 2.543 7.29 2.544 10.197 0 2.114-1.849 4.824-2.868 7.632-2.868h.678c4.521 0 8.2 3.678 8.2 8.2v9.358zm2.192 7.644c-.141-.016-.283-.056-.425-.119.155-1.102.233-2.205.233-3.29v-4.303c.144-.165.33-.39.595-.711.429-.521 1.344-1.631 2.065-2.353-.232 3.416-1.498 9.815-2.468 10.776zm-48.003-8.422c.265.321.452.547.595.711v4.303c0 1.083.078 2.188.233 3.29-.142.063-.284.103-.424.119-.971-.962-2.237-7.36-2.47-10.775.721.721 1.636 1.831 2.066 2.352zm20.741 35.375 1.568-1.661 1.894 3.334 2.26-3.333 1.448 1.427 7.393-6.794c.121.022.242.039.362.062.011.002.023.004.034.006-.133 6.578-5.239 11.885-11.497 11.885s-11.364-5.308-11.498-11.885c.011-.002.023-.004.034-.006.156-.029.312-.052.468-.08 0 0-.005-.003-.006-.003h.003zm-30.724 38.754v-18.173c0-10.012 5.274-18.81 13.187-23.778v42.951h-12.187c-.552 0-1-.449-1-1zm68.373 0c0 .551-.449 1-1 1h-12.187v-4.914c0-.552-.448-1-1-1s-1 .448-1 1v4.914h-38v-44.094c1.747-.906 3.599-1.635 5.535-2.16.362 7.465 6.254 13.426 13.465 13.426s13.103-5.961 13.465-13.427c1.936.525 3.788 1.254 5.535 2.16v26.347c0 .552.448 1 1 1s1-.448 1-1v-25.203c7.912 4.968 13.187 13.766 13.187 23.778z"/><path d="m52.026 42.54c-1.249 0-2.261 1.012-2.261 2.261s1.012 2.261 2.261 2.261 2.261-1.012 2.261-2.261c0-1.248-1.013-2.261-2.261-2.261z"/><path d="m71.974 42.54c-1.249 0-2.261 1.012-2.261 2.261s1.012 2.261 2.261 2.261 2.261-1.012 2.261-2.261c0-1.248-1.012-2.261-2.261-2.261z"/><path d="m62 55.864c1.969 0 3.571-1.602 3.571-3.571v-1.507c0-.552-.448-1-1-1s-1 .448-1 1v1.507c0 .866-.705 1.571-1.571 1.571s-1.571-.705-1.571-1.571v-1.507c0-.552-.448-1-1-1s-1 .448-1 1v1.507c0 1.969 1.602 3.571 3.571 3.571z"/><path d="m74.481 38.509-4.427 1.771c-.513.206-.762.787-.557 1.3.157.391.532.629.929.629.124 0 .249-.023.371-.072l4.427-1.771c.513-.206.762-.787.557-1.3-.205-.512-.785-.761-1.3-.557z"/><path d="m53.946 40.28-4.427-1.771c-.515-.204-1.095.044-1.3.557s.044 1.095.557 1.3l4.427 1.771c.122.049.248.072.371.072.397 0 .772-.238.929-.629.205-.513-.044-1.095-.557-1.3z"/><path d="m67.613 57.662c-.441-.335-1.069-.247-1.401.193-.015.02-1.485 1.918-4.212 1.918-2.748 0-4.137-1.817-4.202-1.904-.325-.444-.946-.542-1.393-.221-.361.26-.483.713-.354 1.114.027.957.195 4.699 1.157 4.699.587 0 .86-1.391.989-2.695.939.544 2.203 1.007 3.802 1.007 1.583 0 2.853-.474 3.8-1.025.128 1.309.401 2.713.99 2.713.96 0 1.129-3.725 1.157-4.692.132-.395.017-.842-.333-1.107z"/></g></g></g></g></svg>