<svg id="Layer_1" enable-background="new 0 0 128 128" height="512" viewBox="0 0 128 128" width="512" xmlns="http://www.w3.org/2000/svg"><g><g><path d="m116.485 110.73-21.32-17.301-15.41-38.255c-.487-1.207-.583-2.514-.278-3.778l7.641-31.743c.327-1.359-.285-2.709-1.523-3.358-1.234-.648-2.695-.387-3.629.655l-20.385 22.765c-3.748 4.186-6.713 8.95-8.813 14.161l-15.933 39.553-21.32 17.301c-1 .811-1.367 2.119-.937 3.332s1.54 1.997 2.827 1.997h97.189c1.287 0 2.397-.784 2.827-1.997.432-1.213.064-2.522-.936-3.332z" fill="#e6e7e8"/></g><g><path d="m111.855 107.506-21.522-17.465-15.506-38.493c-.561-1.393-.674-2.927-.322-4.387l7.64-31.743c.486-2.02-2.049-3.35-3.434-1.802l-20.385 22.766c-3.66 4.087-6.58 8.78-8.63 13.869l-16.029 39.79-21.522 17.465c-1.463 1.187-.623 3.553 1.26 3.553h97.19c1.883 0 2.723-2.366 1.26-3.553z" fill="#fa759e"/><g><path d="m110.595 108.059h-97.19c-.533 0-.97-.202-1.307-.5-1.383 1.201-.551 3.5 1.307 3.5h97.19c1.859 0 2.69-2.299 1.307-3.5-.337.298-.774.5-1.307.5z" fill="#fff"/></g><path d="m38.501 78.041-4.834 12h56.666l-4.834-12z" fill="#6dc9f7"/><path d="m56.375 85.729h-9.5c-.966 0-1.75-.784-1.75-1.75 0-.966.784-1.75 1.75-1.75h9.5c.966 0 1.75.784 1.75 1.75 0 .966-.784 1.75-1.75 1.75z" fill="#d4fbff"/><g><path d="m73 73.916h-22c-1.104 0-2 .896-2 2v6.313h-2.125c-.966 0-1.75.784-1.75 1.75 0 .967.784 1.75 1.75 1.75h2.125v6.313c0 1.105.896 2 2 2h22c1.105 0 2-.895 2-2v-16.126c0-1.104-.895-2-2-2zm-3 14.125c0 .552-.448 1-1 1h-14c-.552 0-1-.448-1-1v-2.313h2.375c.967 0 1.75-.783 1.75-1.75 0-.966-.783-1.75-1.75-1.75h-2.375v-2.313c0-.552.448-1 1-1h14c.552 0 1 .448 1 1z" fill="#d4fbff"/><g fill="#3a2c60"><path d="m41.849 69.732c.122.049.248.072.373.072.396 0 .771-.236.928-.627l2.22-5.513c.206-.512-.042-1.095-.555-1.301-.509-.202-1.094.041-1.301.555l-2.22 5.513c-.206.512.042 1.095.555 1.301z"/><path d="m112.485 106.729-21.32-17.301-15.411-38.253c-.486-1.206-.582-2.514-.277-3.779l7.64-31.743c.327-1.359-.285-2.709-1.522-3.358-1.238-.648-2.696-.388-3.63.655l-20.385 22.765c-3.747 4.185-6.712 8.949-8.813 14.162l-3.846 9.547c-.206.513.042 1.096.554 1.302.512.204 1.096-.041 1.302-.554l3.846-9.547c2.014-4.997 4.855-9.564 8.447-13.576l20.384-22.766c.481-.537 1.048-.304 1.21-.219s.677.417.507 1.119l-7.64 31.743c-.402 1.674-.275 3.4.367 4.996l10.12 25.118h-8.018v-1.125c0-1.654-1.346-3-3-3h-22c-1.654 0-3 1.346-3 3v1.125h-8.018l1.519-3.771c.206-.513-.042-1.095-.554-1.302-.513-.203-1.095.041-1.302.554l-6.811 16.907-21.32 17.301c-1 .811-1.367 2.118-.938 3.331.431 1.214 1.54 1.998 2.828 1.998h97.189c1.287 0 2.396-.784 2.827-1.997.432-1.213.065-2.521-.935-3.332zm-27.661-27.688 4.029 10h-12.853v-10zm-33.824-4.125h22c.552 0 1 .448 1 1v16.125c0 .552-.448 1-1 1h-22c-.552 0-1-.448-1-1v-5.313h3v1.313c0 1.103.897 2 2 2h14c1.103 0 2-.897 2-2v-8.125c0-1.103-.897-2-2-2h-14c-1.103 0-2 .897-2 2v1.313h-3v-5.313c0-.552.449-1 1-1zm5.375 8.313c.413 0 .75.337.75.75s-.337.75-.75.75h-9.5c-.413 0-.75-.337-.75-.75s.337-.75.75-.75zm-1.375-3.313h14l.001 8.125h-14.001v-1.313h1.375c1.517 0 2.75-1.233 2.75-2.75s-1.233-2.75-2.75-2.75h-1.375zm-7-.875v2.188h-1.125c-1.517 0-2.75 1.233-2.75 2.75s1.233 2.75 2.75 2.75h1.125v2.313h-12.852l4.029-10h8.823zm63.538 30.352c-.056.156-.287.666-.942.666h-97.19c-.656 0-.888-.51-.943-.666s-.196-.697.313-1.11l21.246-17.241h13.978v1c0 1.654 1.346 3 3 3h22c1.654 0 3-1.346 3-3v-1h13.979l21.246 17.241c.509.412.367.953.313 1.11z"/></g></g></g></g></svg>