<svg id="Layer_1" enable-background="new 0 0 128 128" height="512" viewBox="0 0 128 128" width="512" xmlns="http://www.w3.org/2000/svg"><g><g><path d="m102.979 52.687-16.532-9.224-3.212-7.248c0-.001-.001-.003-.002-.004l-7.816-17.633 5.256-9.807c.379-.708.299-1.571-.204-2.197-.504-.626-1.329-.889-2.101-.673l-14.732 4.143c-3.027.852-5.456 3.006-6.664 5.911l-8.417 20.257v.001l-3.015 7.257-16.52 9.217c-.808.451-1.194 1.355-.961 2.25.232.895 1.011 1.497 1.936 1.497h5.278c-.094.483-.177.987-.24 1.525-.1.85-.405 2.079-.76 3.503-1.358 5.467-3.632 14.617.503 23.126 2.69 5.535 2.08 11.498 1.29 15.088-3.916 5.076-6.253 11.43-6.253 18.322v5.172c0 1.654 1.346 3 3 3h66.373c1.654 0 3-1.346 3-3v-5.17c0-6.632-2.163-12.766-5.815-17.742-.403-3.17-.579-8.565 1.629-13.905 4.063-9.823.975-23.552-1.157-28.661-.184-.442-.376-.854-.569-1.257h5.73c.925 0 1.703-.602 1.936-1.497.234-.896-.153-1.8-.961-2.251z" fill="#e6e7e8"/></g><g><g fill="#6dc9f7"><path d="m33.016 96.066c4.819-6.13 12.047-10.278 20.261-11.006-.089-.348-.149-.701-.149-1.06v-.27c-8.076-3.449-13.737-11.463-13.737-20.799v-.773-10.724h-6.851c-.215.791-.397 1.654-.513 2.642-.504 4.282-5.404 15.677-.35 26.076 2.87 5.908 2.183 12.201 1.339 15.914z"/><path d="m84.608 62.931c0 9.337-5.661 17.35-13.737 20.799v.269c0 .359-.06.712-.149 1.06 8.456.75 15.868 5.123 20.681 11.553-.443-3.249-.684-8.942 1.673-14.642 4.109-9.937.639-23.592-1.156-27.894-.409-.98-.842-1.855-1.287-2.642h-6.026v9.778 1.719z"/></g><g fill="#fff"><path d="m85.938 57.833c-.473 0-.922.14-1.33.388v2.99 1.719c0 1.289-.114 2.552-.321 3.782.49.392 1.048.634 1.651.634 1.861 0 3.369-2.13 3.369-4.757 0-2.626-1.508-4.756-3.369-4.756z"/><path d="m39.392 62.931v-.773-3.936c-.408-.248-.857-.388-1.33-.388-1.861 0-3.369 2.13-3.369 4.757s1.508 4.757 3.369 4.757c.603 0 1.161-.242 1.651-.634-.208-1.232-.321-2.494-.321-3.783z"/></g><g><path d="m95.186 121.172h-66.372c-1.105 0-2-.895-2-2v-5.172c0-16.05 13.011-29.062 29.062-29.062h12.249c16.05 0 29.062 13.011 29.062 29.062v5.173c-.001 1.104-.896 1.999-2.001 1.999z" fill="#ffd7e5"/></g><g><path d="m70.721 85.066c-1.124 4.396-8.721 7.805-8.721 7.805s-7.597-3.409-8.721-7.805c-4.729.421-9.135 1.966-12.94 4.379 8.877 8.584 21.661 14.311 21.661 14.311s12.784-5.726 21.661-14.311c-3.805-2.413-8.21-3.958-12.94-4.379z" fill="#fa759e"/></g><g><path d="m62 85.539c-3.15 0-6.148-.646-8.872-1.809v.269c0 4.9 8.872 8.872 8.872 8.872s8.872-3.972 8.872-8.872v-.269c-2.724 1.163-5.722 1.809-8.872 1.809z" fill="#fff"/></g><path d="m39.392 51.434v10.724.773c0 12.486 10.122 22.608 22.608 22.608s22.608-10.122 22.608-22.608v-1.719-9.778z" fill="#fff"/><g><path d="m98.492 49.56-16.823-9.387h-39.338l-16.823 9.387c-.9.502-.544 1.873.487 1.873h72.01c1.031.001 1.388-1.37.487-1.873z" fill="#fa759e"/><path d="m70.305 14.537 5.487-10.237c.416-.777-.303-1.674-1.152-1.435l-14.733 4.143c-2.714.763-4.929 2.728-6.011 5.332l-11.565 27.834h39.338z" fill="#fa759e"/><g><path d="m45.477 32.603-3.146 7.571h39.338l-3.356-7.571z" fill="#ffd7e5"/></g><g><path d="m79.643 35.603-1.33-3h-32.836l-1.247 3z" fill="#fff"/></g></g><g><g fill="#ffd7e5"><path d="m74.894 65.321c-1.109 0-2.008.567-2.008 1.266s.899 1.266 2.008 1.266 2.008-.567 2.008-1.266-.899-1.266-2.008-1.266z"/><path d="m49.106 65.04c-1.109 0-2.008.567-2.008 1.266s.899 1.266 2.008 1.266 2.008-.567 2.008-1.266-.899-1.266-2.008-1.266z"/></g><g><path d="m62 77.737c-3.443 0-5.195-2.373-5.268-2.474-.323-.448-.223-1.073.226-1.396.447-.322 1.068-.222 1.392.221.061.08 1.27 1.649 3.65 1.649 2.337 0 3.611-1.6 3.664-1.668.338-.434.966-.516 1.4-.181.436.335.521.956.189 1.394-.075.101-1.898 2.455-5.253 2.455z" fill="#fa759e"/></g></g><g fill="#3a2c60"><path d="m62 108.479c-.553 0-1 .448-1 1v4.833c0 .552.447 1 1 1s1-.448 1-1v-4.833c0-.553-.447-1-1-1z"/><path d="m98.979 48.688-16.532-9.225-3.212-7.248c0-.001-.001-.003-.002-.004l-7.816-17.633 5.256-9.806c.379-.708.299-1.57-.204-2.196-.502-.626-1.324-.89-2.101-.674l-14.731 4.144c-3.028.852-5.457 3.006-6.664 5.911l-8.417 20.256c0 .001 0 .001-.001.002l-3.015 7.255-16.52 9.217c-.808.451-1.194 1.354-.961 2.25.232.896 1.011 1.497 1.936 1.497h5.285c-.101.504-.186 1.01-.247 1.525-.1.85-.405 2.079-.76 3.503-1.358 5.467-3.632 14.617.503 23.126 2.689 5.534 2.081 11.499 1.292 15.088-3.919 5.073-6.255 11.428-6.255 18.323v5.173c0 1.654 1.346 3 3 3h66.373c1.654 0 3-1.346 3-3v-5.172c0-6.631-2.165-12.76-5.817-17.733-.403-3.166-.578-8.571 1.631-13.915 4.063-9.822.975-23.551-1.157-28.662-.179-.429-.371-.847-.568-1.257h5.729c.925 0 1.703-.602 1.936-1.497.234-.894-.153-1.798-.961-2.248zm-44.159-35.964c.97-2.335 2.923-4.068 5.357-4.753l14.733-4.143-4.502 8.401-.796-1.865c-.218-.509-.81-.744-1.313-.527-.508.217-.744.804-.527 1.312l1.614 3.78c.001.003.004.005.005.008.001.001 0 .003.001.005l7.385 16.661h-29.802zm-8.676 20.879h31.519l2.469 5.571h-36.303zm-13.569 46.112c-3.817-7.857-1.737-16.23-.36-21.77.37-1.49.689-2.777.805-3.752.07-.596.169-1.176.301-1.759h5.071v4.432c-.11-.011-.218-.033-.33-.033-2.45 0-4.369 2.529-4.369 5.757s1.919 5.756 4.369 5.756c.322 0 .634-.047.934-.132 1.624 7.073 6.429 12.945 12.828 16.015-6.692.906-12.691 4.019-17.238 8.581.412-3.73.224-8.495-2.011-13.095zm49.636 40.458h-19.211v-2.444c0-.552-.447-1-1-1s-1 .448-1 1v2.444h-19.211v-12.4c0-5.126-2.411-9.831-6.5-12.816 1.477-1.594 3.137-3.017 4.945-4.235 7.865 7.365 18.191 12.463 20.766 13.674v1.417c0 .552.447 1 1 1s1-.448 1-1v-1.417c2.575-1.211 12.901-6.309 20.766-13.674 1.808 1.218 3.468 2.641 4.945 4.235-4.09 2.985-6.5 7.691-6.5 12.816zm-20.211-28.405c-2.203-1.062-6.534-3.669-7.618-6.497 2.392.818 4.953 1.268 7.618 1.268s5.226-.451 7.618-1.268c-1.084 2.827-5.415 5.435-7.618 6.497zm-1 1.733v8.67c-3.366-1.653-12.152-6.278-18.994-12.544 3.193-1.823 6.774-3.037 10.588-3.484 1.557 3.702 6.653 6.49 8.406 7.358zm2 8.67v-8.67c1.753-.867 6.849-3.655 8.406-7.358 3.814.447 7.395 1.661 10.588 3.484-6.838 6.261-15.627 10.889-18.994 12.544zm-1-17.632c-11.915 0-21.608-9.693-21.608-21.608v-10.497h43.217v10.496c-.001 11.915-9.694 21.609-21.609 21.609zm-23.375-18.323c-.182.077-.369.131-.564.131-1.284 0-2.369-1.72-2.369-3.756 0-2.037 1.085-3.757 2.369-3.757.112 0 .222.017.33.042v4.055c.001 1.115.084 2.21.234 3.285zm46.983-7.341c.108-.025.218-.042.33-.042 1.284 0 2.369 1.72 2.369 3.757 0 2.036-1.085 3.756-2.369 3.756-.195 0-.382-.054-.564-.131.15-1.074.234-2.17.234-3.285zm-57.795 60.298v-5.173c0-6.627 2.315-12.719 6.171-17.523 3.651 2.604 5.804 6.763 5.804 11.296v12.4h-10.975c-.551 0-1-.449-1-1zm68.374 0c0 .551-.448 1-1 1h-10.976v-12.4c0-4.532 2.153-8.692 5.804-11.296 3.856 4.804 6.172 10.896 6.172 17.523zm-5.189-64.712c2.027 4.86 4.977 17.885 1.155 27.127-1.798 4.348-2.144 8.652-2.02 11.972-4.624-4.969-10.906-8.375-17.957-9.33 6.399-3.07 11.204-8.942 12.828-16.015.3.085.612.132.934.132 2.45 0 4.369-2.528 4.369-5.756s-1.919-5.757-4.369-5.757c-.113 0-.22.022-.33.033v-4.432h4.434c.341.641.661 1.321.956 2.026zm-.364-4.027h-6.025-45.217-6.853-6.544l16.596-9.26h38.818l16.596 9.26z"/><path d="m52.026 58.505c-1.249 0-2.261 1.012-2.261 2.261s1.012 2.261 2.261 2.261 2.261-1.012 2.261-2.261-1.013-2.261-2.261-2.261z"/><path d="m71.974 58.505c-1.249 0-2.261 1.012-2.261 2.261s1.012 2.261 2.261 2.261 2.261-1.012 2.261-2.261-1.012-2.261-2.261-2.261z"/><path d="m64.571 65.751c-.553 0-1 .448-1 1v1.507c0 .866-.705 1.571-1.571 1.571s-1.571-.705-1.571-1.571v-1.507c0-.552-.447-1-1-1s-1 .448-1 1v1.507c0 1.969 1.603 3.571 3.571 3.571s3.571-1.602 3.571-3.571v-1.507c0-.553-.447-1-1-1z"/><path d="m75.024 55.188-4.427-.771c-.552-.091-1.063.27-1.157.813-.095.544.27 1.062.813 1.157l4.427.771c.059.01.116.015.173.015.478 0 .899-.342.984-.828.096-.544-.269-1.062-.813-1.157z"/><path d="m53.402 54.417-4.427.771c-.544.095-.908.613-.813 1.157.085.486.507.828.984.828.057 0 .114-.005.173-.015l4.427-.771c.544-.095.908-.613.813-1.157-.094-.543-.604-.905-1.157-.813z"/></g></g></g></svg>