<svg id="Layer_1" enable-background="new 0 0 128 128" height="512" viewBox="0 0 128 128" width="512" xmlns="http://www.w3.org/2000/svg"><g><g><path d="m104.813 98.618c-.041-.05-.081-.097-.131-.137-4.274-4.496-9.917-7.672-16.257-8.854 5.666-3.227 9.87-8.73 11.364-15.257.306.09.617.149.93.149 2.45 0 4.369-2.529 4.369-5.757s-1.919-5.756-4.369-5.756c-.111 0-.22.012-.33.023v-4.134h11.392c.345 0 .665-.178.848-.47s.202-.658.051-.968c-1.948-3.995-9.291-10.028-16.819-13.846-.371-.962-1.46-3.765-2.931-7.409-.001-.003-.002-.005-.003-.007-1.315-3.258-2.935-7.185-4.634-11.1-8.436-19.44-10.437-19.44-11.512-19.44s-3.076 0-11.512 19.44c-1.699 3.915-3.318 7.842-4.634 11.1-.001.002-.002.005-.003.007-1.471 3.644-2.56 6.447-2.931 7.409-7.528 3.817-14.872 9.851-16.819 13.846-.151.31-.132.676.051.968s.503.47.848.47h11.392v4.134c-.109-.011-.219-.023-.33-.023-2.45 0-4.369 2.528-4.369 5.756s1.919 5.757 4.369 5.757c.313 0 .623-.059.929-.149 1.494 6.528 5.698 12.03 11.364 15.257-6.34 1.182-11.983 4.358-16.256 8.853-.05.041-.091.088-.132.139-.633.674-1.233 1.377-1.802 2.106.007-5.187.012-9.396.012-10.324 0-6.17-1.159-10.492-3.646-13.599-2.322-2.901-5.636-4.725-9.33-5.134-3.691-.412-7.325.643-10.228 2.966-3.122 2.499-5.045 7.193-4.677 11.415.291 3.341 1.961 6.009 4.702 7.51 4.688 2.57 9.297.689 11.784-2.314 2.516-3.04 2.8-6.893.778-9.768-1.077-1.532-3.21-2.082-4.67-.908-1.339 1.077-1.539 3.044-.449 4.368.75.911-.293 2.225-.414 2.371-.292.352-1.858 2.047-4.063.838-.911-.5-1.408-1.361-1.519-2.633-.186-2.139.884-4.857 2.386-6.059 1.611-1.29 3.633-1.879 5.689-1.646 2.058.228 3.901 1.241 5.191 2.853 1.564 1.953 2.292 5.048 2.292 9.741 0 1.319-.011 9.24-.022 17.207-5.092.45-9.032 4.976-8.512 10.288.475 4.854 4.764 8.45 9.642 8.45h68.075c1.657 0 3-1.343 3-3v-4.173c.001-7.946-3.102-15.175-8.154-20.556z" fill="#e6e7e8"/></g><g><g><g><path d="m83.445 86.466-10.664 16.177-10.664-16.177c-13.894 2.18-24.522 14.201-24.522 28.707v6.173h68.373c1.105 0 2-.895 2-2v-4.173c0-14.506-10.629-26.527-24.523-28.707z" fill="#6dc9f7"/></g><g fill="#fff"><path d="m83.445 86.466-1.829 2.775c14.779 1.368 26.352 13.796 26.352 28.932v-3c0-14.506-10.629-26.527-24.523-28.707z"/><path d="m62.117 86.466c-13.894 2.18-24.522 14.201-24.522 28.707v3c0-15.136 11.573-27.564 26.352-28.932z"/></g><path d="m72.781 87.712c-2.875 0-5.622-.542-8.152-1.521-.847.059-1.686.146-2.512.275l10.664 16.177 10.664-16.177c-.826-.13-1.665-.216-2.512-.275-2.53.978-5.277 1.521-8.152 1.521z" fill="#fff"/><g><g><path d="m50.173 65.103v-4.709c-.408-.248-.857-.388-1.33-.388-1.861 0-3.369 2.13-3.369 4.757s1.508 4.757 3.369 4.757c.603 0 1.161-.242 1.651-.634-.207-1.231-.321-2.493-.321-3.783z" fill="#fff"/></g><g><path d="m96.72 60.006c-.473 0-.922.14-1.33.388v4.709c0 1.289-.114 2.552-.321 3.782.49.392 1.048.634 1.651.634 1.861 0 3.369-2.13 3.369-4.757 0-2.626-1.509-4.756-3.369-4.756z" fill="#fff"/></g><path d="m50.173 53.895v11.208c0 12.486 10.122 22.608 22.608 22.608s22.609-10.121 22.609-22.608v-11.208c-15.073 0-30.145 0-45.217 0z" fill="#fff"/></g></g><g><path d="m72.781 2.655c-3.872 0-18.285 37.676-18.285 37.676h36.57s-14.413-37.676-18.285-37.676z" fill="#0089ef"/><g><path d="m57.555 32.587c-1.831 4.535-3.059 7.744-3.059 7.744h36.57s-1.229-3.21-3.059-7.744z" fill="#fa759e"/></g><path d="m91.066 40.331c-12.19 0-24.38 0-36.57 0-7.528 3.746-14.889 9.818-16.715 13.564h70c-1.826-3.745-9.186-9.818-16.715-13.564z" fill="#0089ef"/><g><path d="m74.049 12.837-.435 2.535c-.062.36.316.634.639.464l2.276-1.197 2.276 1.197c.323.17.701-.105.639-.464l-.435-2.535.293-.285c-.927-1.914-1.826-3.67-2.66-5.152-.19-.051-.407.01-.508.215l-1.138 2.306-2.545.37c-.361.053-.506.497-.244.751z" fill="#d4fbff"/></g><g><path d="m68.013 20.491 1.138 2.306 2.545.37c.361.053.506.497.244.751l-1.842 1.795.435 2.535c.062.36-.316.634-.639.464l-2.276-1.197-2.276 1.197c-.323.17-.701-.105-.639-.464l.435-2.535-1.842-1.795c-.261-.255-.117-.699.244-.751l2.545-.37 1.138-2.306c.162-.327.629-.327.79 0z" fill="#d4fbff"/></g><g><path d="m89.212 42.513 1.138 2.306 2.545.37c.361.053.506.497.244.751l-1.842 1.795.435 2.535c.062.36-.316.634-.639.464l-2.276-1.197-2.276 1.197c-.323.17-.701-.105-.639-.464l.435-2.535-1.842-1.795c-.261-.255-.117-.699.244-.751l2.545-.37 1.138-2.306c.162-.327.629-.327.79 0z" fill="#d4fbff"/></g><g><path d="m104.552 49.787-.892 1.808-2.545.37c-.361.053-.506.497-.244.751l1.209 1.179h5.701c-.578-1.185-1.712-2.604-3.229-4.108z" fill="#d4fbff"/></g><g><path d="m69.646 53.895-.129-.755 1.842-1.795c.261-.255.117-.699-.244-.751l-2.545-.37-1.138-2.306c-.162-.327-.628-.327-.79 0l-1.138 2.306-2.545.37c-.361.053-.506.497-.244.751l1.842 1.795-.129.755z" fill="#d4fbff"/></g><g><path d="m47.165 48.234 2.276-1.197 2.276 1.197c.323.17.701-.104.639-.464l-.435-2.535 1.842-1.795c.261-.255.117-.699-.244-.751l-2.545-.37-.022-.044c-1.458.867-2.873 1.794-4.208 2.75l.216.21-.435 2.535c-.061.359.316.634.64.464z" fill="#d4fbff"/></g><path d="m64.392 31.861v9.116c0 .713.578 1.291 1.291 1.291h14.197c.713 0 1.291-.578 1.291-1.291v-9.116c0-.713-.578-1.291-1.291-1.291h-14.198c-.713 0-1.29.578-1.29 1.291zm12.907 7.18h-9.035c-.356 0-.645-.289-.645-.645v-3.953c0-.356.289-.645.645-.645h9.035c.356 0 .645.289.645.645v3.953c0 .356-.289.645-.645.645z" fill="#ffd7e5"/></g><g><path d="m30.792 86.607c2.339-2.825 2.509-6.426.423-8.959-.733-.889-2.047-1.016-2.937-.284s-1.017 2.047-.284 2.937c.957 1.163.374 2.69-.416 3.644-1.049 1.266-3.069 2.309-5.314 1.077-1.209-.663-1.894-1.815-2.034-3.423-.216-2.474.996-5.517 2.757-6.927 3.763-3.012 9.275-2.401 12.287 1.362 1.714 2.14 2.511 5.434 2.511 10.366 0 1.372-.011 9.891-.023 18.173 1.526.03 2.949.469 4.171 1.21.012-8.644.025-17.944.025-19.383 0-5.931-1.089-10.054-3.427-12.974-2.155-2.693-5.231-4.385-8.66-4.765-3.43-.381-6.801.598-9.493 2.754-2.876 2.302-4.646 6.639-4.306 10.547.261 2.998 1.748 5.384 4.186 6.72 4.189 2.296 8.31.612 10.534-2.075z" fill="#fa759e"/></g><g><circle cx="37.595" cy="112.956" fill="#fff" r="8.39"/><g fill="#3a2c60"><path d="m71.276 120.345h-6.495c-.552 0-1 .448-1 1s.448 1 1 1h6.495c.552 0 1-.448 1-1s-.447-1-1-1z"/><path d="m84.418 85.632c5.67-3.227 9.877-8.731 11.372-15.261.306.09.617.149.93.149 2.45 0 4.369-2.528 4.369-5.756s-1.919-5.757-4.369-5.757c-.111 0-.22.013-.33.023v-4.134h11.392c.345 0 .665-.178.848-.47s.202-.658.051-.968c-1.948-3.995-9.291-10.028-16.819-13.846-.704-1.823-3.967-10.218-7.568-18.516-8.436-19.44-10.437-19.44-11.512-19.44s-3.076 0-11.512 19.44c-3.601 8.298-6.864 16.693-7.568 18.516-7.528 3.817-14.872 9.851-16.819 13.846-.151.31-.132.676.051.968s.503.47.848.47h11.392v4.134c-.109-.011-.219-.023-.33-.023-2.45 0-4.369 2.529-4.369 5.757s1.919 5.756 4.369 5.756c.313 0 .623-.059.929-.149 1.493 6.526 5.696 12.026 11.359 15.254-7.347 1.372-13.76 5.426-18.186 11.103.007-5.19.012-9.397.012-10.326 0-6.17-1.159-10.492-3.646-13.6-2.323-2.902-5.637-4.725-9.33-5.133-3.689-.413-7.325.643-10.228 2.966-3.122 2.499-5.045 7.192-4.677 11.415.291 3.341 1.961 6.009 4.702 7.51 4.689 2.571 9.297.688 11.784-2.315 2.654-3.206 2.824-7.318.424-10.232-1.082-1.312-3.031-1.5-4.344-.42-1.313 1.082-1.502 3.03-.42 4.345.75.911-.293 2.225-.414 2.371-.292.352-1.859 2.048-4.063.838-.911-.5-1.408-1.361-1.519-2.633-.186-2.139.884-4.857 2.386-6.059 1.611-1.291 3.633-1.876 5.689-1.647 2.058.228 3.901 1.241 5.191 2.853 1.564 1.953 2.292 5.048 2.292 9.741 0 1.319-.011 9.24-.022 17.207-4.789.423-8.558 4.451-8.558 9.348 0 5.177 4.212 9.39 9.39 9.39h22.924c.552 0 1-.448 1-1s-.448-1-1-1h-4.948v-11.4c0-5.889-3.235-11.224-8.347-13.978 3.902-3.755 8.882-6.388 14.427-7.392l10.296 15.618c.185.281.499.45.835.45s.65-.169.835-.45l10.3-15.624c5.545 1.004 10.53 3.639 14.432 7.393-5.118 2.753-8.357 8.09-8.357 13.983v11.4h-14.71c-.552 0-1 .448-1 1s.448 1 1 1h30.687c1.654 0 3-1.346 3-3v-4.173c-.001-14.694-10.6-26.945-24.551-29.542zm12.302-24.626c1.284 0 2.369 1.72 2.369 3.757 0 2.331-1.434 4.257-2.931 3.616.149-1.071.232-2.164.232-3.276v-4.048c.109-.026.219-.049.33-.049zm-14.549-27.419h5.179c.764 1.906 1.521 3.828 2.26 5.744h-7.439zm-9.39-29.908c2.029.989 8.001 13.724 13.761 27.908h-4.399c-.137-1.133-1.093-2.017-2.263-2.017h-14.198c-1.169 0-2.126.884-2.263 2.017h-4.399c5.76-14.184 11.732-26.918 13.761-27.908zm7.39 28.182v9.116c0 .161-.13.291-.291.291h-14.198c-.16 0-.291-.13-.291-.291v-9.116c0-.16.13-.291.291-.291h14.198c.161 0 .291.131.291.291zm-24.219 7.47c.74-1.916 1.496-3.838 2.26-5.744h5.179v5.744zm-1.214 2h8.689c.172 1.094 1.113 1.937 2.255 1.937h14.198c1.142 0 2.083-.842 2.255-1.937h8.689c6.237 3.139 12.516 7.979 15.163 11.564h-10.597-45.217-10.597c2.647-3.584 8.925-8.424 15.162-11.564zm-8.264 23.432c0-2.037 1.085-3.757 2.369-3.757.11 0 .22.023.33.049v4.048c0 1.112.083 2.204.232 3.276-1.497.641-2.93-1.286-2.931-3.616zm4.699.34v-10.208h43.217v10.208c0 9.968-6.786 18.377-15.98 20.86l.636-2.635-2.004-1.667-4.26 1.333-3.998-1.333-2.266 1.667.686 2.65c-9.221-2.467-16.031-10.889-16.031-20.875zm-15.119 10.307c-1.624-2.029-3.944-3.304-6.533-3.591-2.586-.286-5.131.449-7.16 2.073s-3.374 4.975-3.128 7.794c.168 1.934 1.05 3.391 2.55 4.213 2.601 1.427 5.172.367 6.565-1.316 1.033-1.249 1.762-3.285.417-4.918-.381-.462-.314-1.148.147-1.529.462-.381 1.149-.314 1.53.148 1.772 2.152 1.603 5.24-.421 7.685-1.962 2.371-5.595 3.856-9.282 1.836-2.136-1.17-3.439-3.276-3.67-5.93-.313-3.594 1.305-7.574 3.935-9.679 2.485-1.99 5.593-2.893 8.758-2.54 3.163.35 6 1.911 7.989 4.396 2.188 2.734 3.208 6.658 3.208 12.35 0 1.351-.011 9.63-.023 17.79-.69-.264-1.416-.45-2.172-.544.011-7.98.022-15.924.022-17.245-.001-5.173-.869-8.666-2.732-10.993zm-5.849 37.546c0-4.075 3.315-7.39 7.39-7.39s7.39 3.315 7.39 7.39-3.315 7.39-7.39 7.39-7.39-3.316-7.39-7.39zm23.366-4.011v11.4h-10.203c2.197-1.72 3.617-4.39 3.617-7.39 0-3.194-1.606-6.017-4.05-7.714.002-1.686.005-3.386.007-5.046.838-1.323 1.792-2.563 2.833-3.724 4.756 2.321 7.796 7.137 7.796 12.474zm19.21-8.119-8.938-13.559c.212-.021.422-.051.636-.067 1.063.401 2.162.726 3.292.971l1.549 5.984 1.568-1.661 1.894 3.333 2.26-3.333 1.448 1.427 1.392-5.772c1.426-.315 2.806-.755 4.123-1.317zm34.187 18.519c0 .551-.449 1-1 1h-13.976v-11.4c0-5.341 3.043-10.158 7.805-12.477 4.454 4.967 7.171 11.523 7.171 18.705z"/><path d="m62.788 59.451c-1.249 0-2.261 1.012-2.261 2.261s1.012 2.261 2.261 2.261 2.261-1.012 2.261-2.261-1.013-2.261-2.261-2.261z"/><path d="m80.475 61.712c0 1.249 1.012 2.261 2.261 2.261s2.261-1.012 2.261-2.261-1.012-2.261-2.261-2.261c-1.248 0-2.261 1.012-2.261 2.261z"/><path d="m72.762 73.002c1.969 0 3.571-1.602 3.571-3.571v-1.507c0-.552-.448-1-1-1s-1 .448-1 1v1.507c0 .866-.705 1.571-1.571 1.571s-1.571-.705-1.571-1.571v-1.507c0-.552-.448-1-1-1s-1 .448-1 1v1.507c0 1.969 1.602 3.571 3.571 3.571z"/><path d="m81.016 58.333 4.427.771c.058.01.116.015.172.015.477 0 .899-.342.984-.829.095-.544-.27-1.062-.814-1.157l-4.427-.771c-.544-.09-1.062.27-1.157.814-.094.544.271 1.062.815 1.157z"/><path d="m60.081 59.104 4.427-.771c.544-.095.909-.613.814-1.157s-.614-.904-1.157-.814l-4.427.771c-.544.095-.909.613-.814 1.157.085.486.507.829.984.829.057 0 .115-.005.173-.015z"/><path d="m72.762 78.91c3.71 0 5.723-2.6 5.807-2.71.332-.438.246-1.06-.19-1.395-.436-.334-1.063-.251-1.4.182-.061.079-1.525 1.923-4.216 1.923-2.742 0-4.132-1.811-4.202-1.904-.325-.444-.947-.542-1.393-.221-.448.323-.549.948-.226 1.396.08.112 2.013 2.729 5.82 2.729z"/><path d="m80.692 71.654c-.252-.106-.548.014-.654.269s.014.548.269.654c2.719 1.135 4.258 4.046 4.273 4.075.089.171.264.27.444.27.078 0 .156-.018.229-.057.245-.127.341-.428.214-.673-.067-.132-1.714-3.26-4.775-4.538z"/><path d="m64.832 71.654c-3.061 1.278-4.708 4.405-4.776 4.538-.127.245-.031.547.214.674.074.038.152.056.229.056.181 0 .355-.099.444-.27.015-.029 1.544-2.936 4.273-4.075.255-.106.375-.399.269-.654-.106-.254-.4-.374-.653-.269z"/><path d="m83.271 67.215c.905 0 1.717-.23 2.229-.471.25-.117.356-.414.239-.664s-.414-.357-.664-.242c-.109.051-2.676 1.212-4.465-.773-.185-.206-.501-.222-.706-.037s-.222.501-.037.706c1.014 1.127 2.28 1.481 3.404 1.481z"/><path d="m64.915 65.065c-1.788 1.985-4.357.824-4.465.773-.25-.115-.547-.008-.664.242s-.01.546.239.664c.512.241 1.324.471 2.229.471 1.123 0 2.39-.354 3.404-1.481.185-.205.168-.521-.037-.706-.206-.184-.521-.168-.706.037z"/><path d="m77.299 32.797h-9.035c-.907 0-1.646.738-1.646 1.646v3.953c0 .907.738 1.646 1.646 1.646h9.035c.907 0 1.646-.738 1.646-1.646v-3.953c-.001-.908-.739-1.646-1.646-1.646zm-.355 5.244h-8.326v-3.244h8.326z"/></g></g></g></g></svg>