<svg id="Layer_1" enable-background="new 0 0 128 128" height="512" viewBox="0 0 128 128" width="512" xmlns="http://www.w3.org/2000/svg"><g><g><path d="m94.033 82.78c-.041-.05-.082-.097-.131-.138-4.274-4.496-9.917-7.672-16.257-8.854 5.666-3.227 9.87-8.73 11.364-15.258.306.09.617.149.93.149 2.45 0 4.369-2.529 4.369-5.757 0-2.632-1.276-4.798-3.076-5.508v-7.633c.145.179.285.362.411.548 1.097 1.622 1.618 3.376 2.213 3.067.576-.3.57-2.323.008-4.379-.498-1.822-1.531-3.72-1.531-3.72s3.815 2.103 4.187.56c.163-.676-.937-2.465-2.509-3.867-.901-.803-1.923-1.523-2.779-2.076v-.18h-.009c.086-.347.14-.707.14-1.078 0-2.474-2.012-4.486-4.485-4.486-.044 0-.087 0-.13.002.003-.074.004-.148.004-.222 0-3.671-2.945-6.667-6.596-6.749-.502-4.885-4.641-8.708-9.655-8.708-5.184 0-9.431 4.084-9.693 9.203-.871-.328-1.799-.497-2.746-.497-4.079 0-7.438 3.144-7.779 7.135-.478-.109-.962-.165-1.449-.165-2.64 0-4.925 1.528-6.034 3.743-1.069.407-2.911 1.301-4.596 3.077-1.45 1.529-2.672 3.191-2.509 3.867.372 1.543 4.187-.56 4.187-.56s-1.032 1.898-1.531 3.72c-.562 2.056-.568 4.08.008 4.379.595.31 1.116-1.444 2.213-3.067.061-.09.131-.178.198-.267v8.352c-1.799.71-3.076 2.876-3.076 5.508 0 3.228 1.919 5.757 4.369 5.757.313 0 .623-.059.93-.149 1.494 6.528 5.698 12.03 11.364 15.258-6.339 1.182-11.982 4.358-16.256 8.853-.051.041-.092.089-.134.141-5.05 5.38-8.152 12.608-8.152 20.552v17.173c0 1.654 1.346 3 3 3h66.373c1.654 0 3-1.346 3-3v-17.173c-.002-7.944-3.105-15.173-8.155-20.553z" fill="#e6e7e8"/></g><g><path d="m82.877 21.171c-.477 0-.931.097-1.345.27.129-.478.22-.972.22-1.491 0-3.176-2.574-5.751-5.751-5.751-.273 0-.535.044-.798.081 0-.027.004-.053.004-.081 0-4.808-3.898-8.706-8.706-8.706s-8.706 3.898-8.706 8.706c0 .4.036.79.088 1.175-1.09-.741-2.405-1.175-3.822-1.175-3.76 0-6.807 3.048-6.807 6.807 0 .249.015.495.041.737-.749-.357-1.577-.573-2.462-.573-3.176 0-5.751 2.575-5.751 5.751 0 .648.112 1.269.31 1.851v-1.692h16.599l2.219 1.859 1.795-3.204h10.022l4.16 4.944h.545l1.344-2.599h7.851v-.116c1.409-.447 2.436-1.75 2.436-3.307-.001-1.925-1.561-3.486-3.486-3.486z" fill="#fa759e"/><g><g><path d="m72.664 70.626-10.664 16.177-10.664-16.177c-13.894 2.18-24.522 14.201-24.522 28.707v17.173c0 1.105.896 2 2 2h66.373c1.105 0 2-.895 2-2v-17.173c-.001-14.506-10.629-26.527-24.523-28.707z" fill="#0089ef"/></g><g fill="#fff"><path d="m72.664 70.626-1.829 2.775c14.779 1.368 26.352 13.796 26.352 28.932v-3c-.001-14.506-10.629-26.527-24.523-28.707z"/><path d="m51.336 70.626c-13.894 2.18-24.522 14.201-24.522 28.707v3c0-15.136 11.573-27.564 26.352-28.932z"/></g><path d="m62 71.872c-2.875 0-5.622-.542-8.152-1.521-.847.059-1.686.146-2.512.275l10.664 16.177 10.664-16.177c-.826-.13-1.665-.216-2.512-.275-2.53.979-5.277 1.521-8.152 1.521z" fill="#fff"/><g><g><path d="m85.938 44.167c-.473 0-.922.14-1.33.388v4.709c0 1.289-.114 2.552-.321 3.782.49.392 1.048.634 1.651.634 1.861 0 3.369-2.13 3.369-4.757s-1.508-4.756-3.369-4.756z" fill="#fff"/></g><g><path d="m39.392 49.264v-4.709c-.408-.248-.857-.388-1.33-.388-1.861 0-3.369 2.13-3.369 4.757s1.508 4.757 3.369 4.757c.603 0 1.161-.242 1.651-.634-.208-1.231-.321-2.494-.321-3.783z" fill="#fff"/></g><path d="m76.075 28.08-1.551 3-4.498-5.346h-10.021l-1.795 3.204-2.22-1.858h-16.598v22.184c0 12.486 10.122 22.608 22.608 22.608 12.486 0 22.608-10.122 22.608-22.608v-21.184z" fill="#fff"/></g></g><g fill="#3a2c60"><path d="m70.495 117.506h-6.495c-.553 0-1 .448-1 1s.447 1 1 1h6.495c.553 0 1-.448 1-1s-.447-1-1-1z"/><path d="m73.637 69.793c5.67-3.227 9.877-8.731 11.372-15.262.306.09.617.149.93.149 2.45 0 4.369-2.529 4.369-5.757 0-2.632-1.276-4.798-3.076-5.508v-7.633c.145.179.285.362.411.548 1.097 1.622 1.618 3.376 2.213 3.067.576-.3.57-2.323.008-4.379-.498-1.822-1.531-3.72-1.531-3.72s3.815 2.103 4.187.56c.163-.676-.937-2.465-2.509-3.867-.901-.803-1.923-1.523-2.779-2.076v-.18h-.009c.086-.347.14-.707.14-1.078 0-2.518-2.132-4.564-4.615-4.484.003-.074.004-.148.004-.222 0-3.671-2.945-6.667-6.596-6.749-.502-4.885-4.641-8.708-9.655-8.708-5.184 0-9.431 4.084-9.693 9.203-.871-.328-1.799-.497-2.746-.497-4.079 0-7.438 3.144-7.779 7.135-.478-.109-.962-.165-1.449-.165-2.641 0-4.926 1.528-6.035 3.743-1.069.407-2.91 1.301-4.595 3.077-1.45 1.529-2.672 3.191-2.509 3.867.372 1.543 4.187-.56 4.187-.56s-1.032 1.898-1.531 3.72c-.562 2.056-.568 4.08.009 4.379.595.31 1.116-1.444 2.213-3.067.061-.09.131-.178.198-.267v8.352c-1.799.71-3.076 2.876-3.076 5.508 0 3.228 1.919 5.757 4.369 5.757.313 0 .623-.059.93-.149 1.495 6.531 5.702 12.035 11.371 15.262-13.953 2.598-24.551 14.849-24.551 29.541v17.173c0 1.654 1.346 3 3 3h30.924c.553 0 1-.448 1-1s-.447-1-1-1h-14.949v-24.4c0-5.892-3.238-11.228-8.354-13.981 3.902-3.755 8.884-6.392 14.429-7.396l9.624 14.599h-1.06c-.553 0-1 .448-1 1s.447 1 1 1h1.572v3h-1.571c-.553 0-1 .448-1 1s.447 1 1 1h1.571v2.526c0 .552.447 1 1 1s1-.448 1-1v-2.526h1.571c.553 0 1-.448 1-1s-.447-1-1-1h-1.571v-3h1.571c.553 0 1-.448 1-1s-.447-1-1-1h-1.06l9.624-14.599c5.545 1.004 10.527 3.641 14.429 7.396-5.116 2.753-8.353 8.089-8.353 13.981v24.4h-4.711c-.553 0-1 .448-1 1s.447 1 1 1h20.687c1.654 0 3-1.346 3-3v-17.173c0-14.692-10.599-26.943-24.55-29.54zm14.671-20.87c0 2.331-1.432 4.262-2.932 3.617.149-1.071.232-2.164.232-3.276v-4.048c.11-.026.22-.049.33-.049 1.285 0 2.37 1.72 2.37 3.756zm-43.476-26.752c.687 0 1.37.16 2.032.476.328.157.714.123 1.009-.086.296-.21.455-.563.416-.924-.022-.207-.036-.417-.036-.629 0-3.202 2.605-5.807 5.808-5.807.798 0 1.571.173 2.291.484-.916.791-1.651 1.815-2.103 3.027-.193.518.069 1.094.587 1.287.115.043.233.063.35.063.405 0 .787-.249.937-.651 1.05-2.817 4.196-4.256 7.013-3.205.518.193 1.094-.07 1.287-.588.192-.518-.071-1.093-.588-1.286-1.687-.628-3.458-.605-5.037-.057 0-.023-.003-.05-.003-.073 0-4.249 3.457-7.706 7.706-7.706s7.706 3.457 7.707 7.673c-.002.024-.005.089-.005.113 0 .29.125.565.344.755.219.189.503.273.796.235l.105-.015c.183-.026.363-.056.554-.056 2.619 0 4.75 2.131 4.75 4.75 0 .16-.016.327-.039.499-.423-.269-.889-.476-1.39-.599-.536-.129-1.078.197-1.209.735-.131.537.198 1.078.734 1.208 1.083.264 1.904 1.184 2.045 2.288.064.505.495.874.991.874.042 0 .084-.002.127-.008.548-.07.936-.57.866-1.118-.073-.571-.26-1.108-.523-1.6.171-.037.346-.059.523-.059 1.37 0 2.485 1.115 2.485 2.486 0 1.078-.699 2.023-1.739 2.354-.051.016-.092.047-.138.07h-7.409c-.374 0-.717.208-.889.541l-.862 1.668-3.532-4.199c-.19-.226-.471-.356-.766-.356h-1.417c1.11-1.028 2.146-2.496 2.367-4.484.269.048.541.081.817.081.251 0 .504-.02.756-.062.545-.09.913-.605.823-1.15s-.594-.911-1.149-.824c-1.096.182-2.215-.343-2.777-1.305-.277-.477-.888-.637-1.368-.359-.477.279-.637.891-.358 1.368.336.576.79 1.057 1.315 1.434-.001.014-.008.026-.008.04 0 3.306-3.226 4.927-3.98 5.261h-5.041c-.362 0-.695.195-.872.511l-1.206 2.152-1.295-1.084c-.18-.151-.407-.233-.642-.233h-2.685c-.034-.038-.055-.083-.096-.116-.018-.014-1.725-1.417-1.283-3.005.147-.532-.164-1.083-.696-1.231-.533-.146-1.084.164-1.231.696-.408 1.47.087 2.746.682 3.657h-10.517c.4-2.22 2.334-3.911 4.666-3.911zm-9.14 26.752c0-2.036 1.085-3.756 2.369-3.756.11 0 .22.023.33.049v4.048c0 1.112.083 2.204.232 3.276-1.499.646-2.931-1.286-2.931-3.617zm4.7.341v-21.184h15.235l1.941 1.625c.228.191.527.271.822.217.293-.054.546-.235.691-.495l1.509-2.693h4.658.001.003 4.308l4.198 4.99c.216.256.546.389.877.35.332-.037.623-.237.777-.535l1.271-2.459h6.925v20.184c0 11.915-9.693 21.608-21.608 21.608s-21.608-9.693-21.608-21.608zm2.397 43.841v24.4h-13.975c-.552 0-1-.449-1-1v-17.172c0-7.181 2.714-13.738 7.167-18.706 4.763 2.318 7.808 7.137 7.808 12.478zm19.211-8.119-8.948-13.573c.216-.022.434-.033.651-.05 2.583.973 5.378 1.509 8.296 1.509s5.713-.536 8.296-1.509c.217.017.436.028.651.05zm34.187 31.52c0 .551-.448 1-1 1h-13.976v-24.4c0-5.342 3.045-10.16 7.809-12.478 4.453 4.968 7.167 11.525 7.167 18.706z"/><path d="m57.525 43.86c0-3.033-2.468-5.5-5.5-5.5s-5.5 2.467-5.5 5.5 2.468 5.5 5.5 5.5 5.5-2.467 5.5-5.5zm-9 0c0-1.214.623-2.284 1.564-2.912-.202.338-.325.729-.325 1.151 0 1.249 1.012 2.261 2.261 2.261s2.261-1.012 2.261-2.261c0-.422-.123-.813-.325-1.151.941.628 1.564 1.698 1.564 2.912 0 1.93-1.57 3.5-3.5 3.5s-3.5-1.57-3.5-3.5z"/><path d="m71.975 49.36c3.032 0 5.5-2.467 5.5-5.5s-2.468-5.5-5.5-5.5-5.5 2.467-5.5 5.5 2.467 5.5 5.5 5.5zm-1.937-8.411c-.202.338-.325.729-.325 1.151 0 1.249 1.012 2.261 2.261 2.261s2.261-1.012 2.261-2.261c0-.422-.123-.813-.325-1.152.942.628 1.565 1.698 1.565 2.912 0 1.93-1.57 3.5-3.5 3.5s-3.5-1.57-3.5-3.5c0-1.213.622-2.283 1.563-2.911z"/><path d="m62 56.163c1.969 0 3.571-1.602 3.571-3.571v-1.507c0-.552-.447-1-1-1s-1 .448-1 1v1.507c0 .866-.705 1.571-1.571 1.571s-1.571-.705-1.571-1.571v-1.507c0-.552-.447-1-1-1s-1 .448-1 1v1.507c0 1.969 1.602 3.571 3.571 3.571z"/><path d="m70.254 36.721 4.427.771c.059.01.116.015.173.015.478 0 .899-.342.984-.829.095-.544-.27-1.062-.813-1.157l-4.427-.771c-.553-.091-1.063.27-1.157.814s.269 1.062.813 1.157z"/><path d="m49.147 37.507c.057 0 .114-.005.173-.015l4.427-.771c.544-.095.908-.613.813-1.157s-.604-.906-1.157-.814l-4.427.771c-.544.095-.908.613-.813 1.157.084.487.506.829.984.829z"/><path d="m69.93 55.815c-.253-.106-.547.013-.653.269-.106.255.014.548.269.654 2.72 1.136 4.259 4.046 4.274 4.075.089.171.264.27.443.27.078 0 .156-.018.23-.057.245-.127.341-.428.214-.673-.069-.133-1.716-3.26-4.777-4.538z"/><path d="m54.07 55.815c-3.062 1.278-4.708 4.405-4.777 4.538-.127.245-.031.546.214.673.074.039.152.057.23.057.18 0 .354-.098.443-.27.016-.029 1.555-2.939 4.274-4.075.255-.106.375-.399.269-.654s-.401-.375-.653-.269z"/><path d="m73.737 51.132c.25-.118.357-.416.239-.665-.117-.25-.417-.359-.665-.239-.026.013-2.665 1.225-4.464-.774-.187-.206-.502-.222-.707-.037s-.222.501-.037.706c1.015 1.127 2.281 1.481 3.404 1.481.906-.001 1.719-.231 2.23-.472z"/><path d="m55.859 49.416c-.205-.184-.52-.168-.707.037-1.787 1.985-4.357.824-4.465.773-.248-.113-.547-.009-.664.242-.117.25-.011.546.239.664.512.241 1.324.471 2.229.471 1.123 0 2.39-.354 3.404-1.481.186-.205.169-.521-.036-.706z"/><path d="m62.5 63.802v-.752c1.413-.091 2.558-.552 3.416-1.071l.682.985c.098.14.253.215.411.215.099 0 .198-.029.285-.089.227-.158.283-.469.126-.696l-.684-.987c.67-.533 1.036-1 1.07-1.046.334-.44.247-1.067-.193-1.401-.441-.336-1.068-.247-1.4.193-.005.007-.215.276-.615.611l-.615-.888c-.158-.228-.471-.282-.696-.126-.227.158-.283.469-.126.696l.611.881c-.585.337-1.345.619-2.271.702v-.805c0-.276-.224-.5-.5-.5s-.5.224-.5.5v.807c-.988-.085-1.776-.388-2.366-.74l.678-.809c.178-.212.15-.527-.062-.705-.211-.177-.526-.149-.704.062l-.726.867c-.318-.283-.501-.511-.522-.539-.325-.442-.946-.542-1.393-.221-.448.323-.549.948-.226 1.396.03.041.315.428.856.897l-.428.511c-.178.212-.15.527.062.705.094.079.208.117.321.117.143 0 .284-.061.383-.179l.462-.552c.874.575 2.094 1.112 3.665 1.209v.752c0 .276.224.5.5.5s.499-.223.499-.5z"/><path d="m34.776 104.979-1.451-1.631c-.367-.413-1.001-.45-1.412-.083-.412.367-.449.999-.082 1.412l1.644 1.848-1.622 1.927c-.356.422-.302 1.053.121 1.409.188.158.416.235.643.235.285 0 .568-.121.766-.356l1.436-1.706 2.205 2.478-.796 1.33c-.284.474-.13 1.088.344 1.372.161.096.338.142.513.142.34 0 .672-.173.858-.486l.474-.792.61.685c.197.222.472.335.747.335.236 0 .475-.083.665-.253.412-.367.449-.999.082-1.412l-1.027-1.154.786-1.312c.284-.474.13-1.088-.344-1.372-.475-.283-1.089-.13-1.371.344l-.464.774-1.98-2.226 1.29-1.532c.356-.422.302-1.053-.121-1.409s-1.054-.3-1.408.121z"/><path d="m88.474 94.128-1.104-1.311c-.354-.422-.985-.478-1.409-.121-.422.356-.477.987-.12 1.409l1.29 1.532-1.979 2.225-.463-.774c-.284-.474-.897-.627-1.372-.344-.474.284-.628.898-.345 1.372l.786 1.313-1.026 1.154c-.367.413-.33 1.044.082 1.412.19.169.429.253.665.253.275 0 .55-.113.747-.335l.609-.684.473.79c.188.313.52.486.859.486.175 0 .352-.046.513-.142.474-.284.628-.898.345-1.372l-.796-1.33 2.204-2.478 1.437 1.706c.197.235.48.356.766.356.227 0 .456-.077.644-.235.422-.356.477-.987.12-1.409l-1.623-1.928 1.644-1.847c.367-.413.33-1.044-.082-1.412-.413-.367-1.046-.331-1.412.083z"/></g></g></g></svg>